<?xml version="1.0" encoding="UTF-8"?>
<svg version="1.1" xmlns="http://www.w3.org/2000/svg" width="500" height="500">
<path d="M0 0 C13.51257268 -0.72173979 13.51257268 -0.72173979 19 4 C21.07313342 5.24702712 23.1671581 6.45247829 25.265625 7.65625 C27.4361714 9.3379346 28.12148755 10.38653581 29 13 C29.23046875 16.53125 29.23046875 16.53125 29.1875 20.5 C29.18105469 21.8096875 29.17460937 23.119375 29.16796875 24.46875 C29.03780602 27.20519436 28.82440789 29.41465687 28 32 C28.57105469 32.08636719 29.14210938 32.17273438 29.73046875 32.26171875 C51.55452744 36.04363035 73.43535058 50.41618371 86.62695312 68.19238281 C91.09297117 74.55188805 95.61118891 80.99112293 99 88 C100.01320313 87.94779297 100.01320313 87.94779297 101.046875 87.89453125 C101.93890625 87.86746094 102.8309375 87.84039062 103.75 87.8125 C105.07257813 87.76029297 105.07257813 87.76029297 106.421875 87.70703125 C109.55118319 88.06263445 110.83743932 88.71839928 113 91 C113.76627851 94.37500609 113.55726945 97.59508365 113 101 C111.25 103.625 111.25 103.625 109 105 C107.68 105 106.36 105 105 105 C105.309375 106.19625 105.61875 107.3925 105.9375 108.625 C108.20191343 118.85500959 108.28802743 129.56243447 108 140 C107.97486328 141.48693359 107.97486328 141.48693359 107.94921875 143.00390625 C107.24559094 159.06672392 101.57589623 173.0523235 94 187 C93.3265437 188.32991685 92.65588176 189.66132852 92 191 C91.34 191 90.68 191 90 191 C89.731875 191.7425 89.46375 192.485 89.1875 193.25 C88.04723249 195.89061949 86.90619694 197.85552844 85 200 C84.34 200 83.68 200 83 200 C83 200.66 83 201.32 83 202 C82.34 202 81.68 202 81 202 C80.75636719 202.5671875 80.51273438 203.134375 80.26171875 203.71875 C77.1862703 209.27931313 71.84876017 214.37430211 66.0625 217 C62.90759587 218.62312217 62.90759587 218.62312217 62.265625 221.0234375 C61.96391784 222.58919364 61.69420613 224.16145927 61.45703125 225.73828125 C60.75382406 229.21825531 59.23735252 231.27322661 57 234 C56.34 234 55.68 234 55 234 C55 234.66 55 235.32 55 236 C53.68 235.67 52.36 235.34 51 235 C51 232.03 51 229.06 51 226 C48.525 226.99 48.525 226.99 46 228 C46.00222061 228.73120056 46.00444122 229.46240112 46.00672913 230.21575928 C46.10366147 263.79286374 46.1118198 297.36395143 45.5625 330.9375 C45.5330278 332.86825378 45.5330278 332.86825378 45.50296021 334.8380127 C45.44626262 338.46374338 45.38279636 342.08927897 45.31640625 345.71484375 C45.29132996 347.30863106 45.29132996 347.30863106 45.26574707 348.93461609 C45.06398908 358.85606511 45.06398908 358.85606511 44 363 C43.34 363.33 42.68 363.66 42 364 C41.59142078 368.35462161 41.59142078 368.35462161 43.58203125 372.08984375 C44.31808594 372.69957031 45.05414063 373.30929687 45.8125 373.9375 C46.62460937 374.61039062 47.43671875 375.28328125 48.2734375 375.9765625 C51.95145212 378.70609198 55.7751588 381.12425015 59.71484375 383.45703125 C62 385 62 385 64 388 C64.125 390.6875 64.125 390.6875 64 393 C63.34 393 62.68 393 62 393 C62 393.66 62 394.32 62 395 C52.52356987 395.7683592 45.61029169 393.85371112 37 390 C36.11570312 389.63132812 35.23140625 389.26265625 34.3203125 388.8828125 C26.62032471 385.62609635 26.62032471 385.62609635 24 383 C23.57421875 380.07421875 23.57421875 380.07421875 23.6875 376.6875 C23.72423828 375.02267578 23.72423828 375.02267578 23.76171875 373.32421875 C23.98850312 370.16039084 24.42005313 367.11662504 25 364 C24.360625 363.87625 23.72125 363.7525 23.0625 363.625 C22.0415625 363.315625 22.0415625 363.315625 21 363 C19.49951773 359.99903545 19.5608353 356.82069181 19.30859375 353.51953125 C19.17131686 351.83786308 19.03368067 350.15622421 18.89575195 348.47460938 C18.78488754 347.10018677 18.78488754 347.10018677 18.67178345 345.69799805 C16.77491891 322.33570341 14.45313881 299.01797728 12.08629227 275.69964218 C11.81242545 272.99926493 11.53950881 270.29879308 11.26681519 267.59829712 C10.83178906 263.2926859 10.39440437 258.98732085 9.95500565 254.6821537 C9.79125878 253.07611068 9.62806775 251.47001087 9.46546555 249.86385155 C9.24036339 247.64340899 9.01274865 245.42323819 8.78442383 243.203125 C8.65659012 241.95176758 8.52875641 240.70041016 8.39704895 239.41113281 C8.02914841 236.25042022 7.55409634 233.13286129 7 230 C4.77302112 253.69123015 2.81240746 277.34133142 1.9375 301.125 C1.39007396 315.85929568 0.66626417 330.55056677 -0.5 345.25 C-0.56003204 346.04311584 -0.62006409 346.83623169 -0.68191528 347.65338135 C-0.85083095 349.85842269 -1.03221013 352.06201292 -1.21875 354.265625 C-1.3724707 356.11849121 -1.3724707 356.11849121 -1.52929688 358.00878906 C-2 361 -2 361 -4 364 C-4.99 364 -5.98 364 -7 364 C-6.835 364.9075 -6.67 365.815 -6.5 366.75 C-6.01246999 370.24874478 -5.8357033 373.71902404 -5.75 377.25 C-5.72421875 378.26578125 -5.6984375 379.2815625 -5.671875 380.328125 C-6.06102577 383.49692409 -6.60508964 384.00513183 -9 386 C-11.03710937 387.05908203 -11.03710937 387.05908203 -13.34375 388.0078125 C-14.17777344 388.35457031 -15.01179688 388.70132812 -15.87109375 389.05859375 C-17.17240234 389.58646484 -17.17240234 389.58646484 -18.5 390.125 C-19.36753906 390.48464844 -20.23507813 390.84429687 -21.12890625 391.21484375 C-26.63958762 393.48895801 -31.02077867 395.13968219 -37.0625 395.125 C-38.12597656 395.12757813 -39.18945312 395.13015625 -40.28515625 395.1328125 C-43 395 -43 395 -45 394 C-45.4375 390.875 -45.4375 390.875 -45 387 C-43.03944045 384.49073038 -40.60405228 382.80389804 -38 381 C-37.20851562 380.43667969 -36.41703125 379.87335938 -35.6015625 379.29296875 C-29.38831967 375 -29.38831967 375 -27 375 C-27 374.34 -27 373.68 -27 373 C-26.34 373 -25.68 373 -25 373 C-25 372.34 -25 371.68 -25 371 C-24.34 370.67 -23.68 370.34 -23 370 C-22.66574265 367.62625139 -22.66574265 367.62625139 -23 365 C-23.97428955 364.43949951 -23.97428955 364.43949951 -24.96826172 363.86767578 C-27.62242906 361.42783198 -27.55344134 359.4444973 -27.70703125 355.94958496 C-27.72378906 355.1180188 -27.74054688 354.28645264 -27.7578125 353.4296875 C-27.80784424 352.10378601 -27.80784424 352.10378601 -27.85888672 350.75109863 C-27.96601441 347.79271629 -28.04550389 344.83424403 -28.125 341.875 C-28.19471169 339.78591126 -28.26620022 337.69688115 -28.33935547 335.60791016 C-28.49383886 331.11776995 -28.63714971 326.62744684 -28.7734375 322.13671875 C-28.99918328 314.82920679 -29.27778519 307.52416719 -29.5625 300.21875 C-31.41602702 252.03829645 -31.41602702 252.03829645 -31 229 C-31.57355225 228.82476807 -32.14710449 228.64953613 -32.73803711 228.46899414 C-37.68073415 226.90044593 -42.0758333 225.09053535 -46.5625 222.4375 C-47.59503906 221.83808594 -48.62757813 221.23867188 -49.69140625 220.62109375 C-50.45324219 220.08613281 -51.21507812 219.55117188 -52 219 C-52 218.34 -52 217.68 -52 217 C-52.71800781 216.76023437 -53.43601563 216.52046875 -54.17578125 216.2734375 C-57.41839824 214.81134464 -59.56150895 213.0165985 -62.1875 210.625 C-63.04730469 209.85414063 -63.90710938 209.08328125 -64.79296875 208.2890625 C-66.78484862 206.22314816 -67.92534943 204.6295919 -69 202 C-69.66 202 -70.32 202 -71 202 C-71 201.34 -71 200.68 -71 200 C-71.66 200 -72.32 200 -73 200 C-74.7265625 197.6640625 -74.7265625 197.6640625 -76.625 194.625 C-77.25664062 193.62726563 -77.88828125 192.62953125 -78.5390625 191.6015625 C-80 189 -80 189 -80 187 C-80.66 187 -81.32 187 -82 187 C-89.71068422 170.985502 -95.67846459 154.98124958 -96 137 C-96.02707031 136.15566406 -96.05414063 135.31132812 -96.08203125 134.44140625 C-96.12580457 131.95428556 -96.07958672 129.48613764 -96 127 C-95.98324219 126.05125 -95.96648437 125.1025 -95.94921875 124.125 C-94.81348834 98.16544779 -81.94028735 73.45546356 -63.203125 55.8203125 C-51.28105252 45.07271928 -33.5575695 32.61873472 -17.08984375 31.8671875 C-16.40019531 31.91101563 -15.71054688 31.95484375 -15 32 C-15.165 31.236875 -15.33 30.47375 -15.5 29.6875 C-16.33521126 23.52781699 -16.78098803 17.02143572 -15 11 C-14.34 11 -13.68 11 -13 11 C-13 10.01 -13 9.02 -13 8 C-12.44570312 7.73445313 -11.89140625 7.46890625 -11.3203125 7.1953125 C-10.59585938 6.84210938 -9.87140625 6.48890625 -9.125 6.125 C-8.04605469 5.60292969 -8.04605469 5.60292969 -6.9453125 5.0703125 C-4.84864981 4.03442457 -4.84864981 4.03442457 -3 2 C-2.01 2 -1.02 2 0 2 C0 1.34 0 0.68 0 0 Z M104 90 C105.0209375 90.8353125 105.0209375 90.8353125 106.0625 91.6875 C108 94 108 94 107.9375 96.5625 C106.97076039 99.076023 106.05615305 100.30143878 104 102 C105.98 101.67 107.96 101.34 110 101 C111.1203061 96.17026575 111.1203061 96.17026575 109.8125 91.5625 C107.89389731 89.56470692 107.89389731 89.56470692 104 90 Z M101 94 C102 96 102 96 102 96 Z M105 94 C104.34 95.32 103.68 96.64 103 98 C103.99 97.67 104.98 97.34 106 97 C105.67 96.01 105.34 95.02 105 94 Z " fill="#C1BAB4" transform="translate(244,63)"/>
<path d="M0 0 C13.51257268 -0.72173979 13.51257268 -0.72173979 19 4 C21.07313342 5.24702712 23.1671581 6.45247829 25.265625 7.65625 C27.4202108 9.32556873 28.11727926 10.41393874 29 13 C30.74888093 37.39540683 30.74888093 37.39540683 26.58203125 42.859375 C25 44 25 44 23 44 C22.62875 45.670625 22.62875 45.670625 22.25 47.375 C21 51 21 51 17 53 C17 56.96 17 60.92 17 65 C21.05893838 67.02946919 24.86429862 67.94099488 29.25 68.875 C38.79222839 71.03889584 47.70643399 73.98760293 54 82 C57.21048963 88.64193785 59.22289509 95.72461371 61.1875 102.8125 C61.44724609 103.72708984 61.70699219 104.64167969 61.97460938 105.58398438 C63.84164323 112.21750261 65.13621289 118.05314281 65 125 C57.91237518 128.23565481 50.87191931 131.11540244 43 131 C43.26199675 136.58697588 43.52865373 142.17370296 43.79956055 147.76025391 C43.89100001 149.65928171 43.98118386 151.55837042 44.07006836 153.45751953 C44.19832602 156.19320529 44.33115356 158.9286375 44.46484375 161.6640625 C44.52272316 162.93003769 44.52272316 162.93003769 44.58177185 164.22158813 C44.7983301 168.55848293 45.23022519 172.71898541 46 177 C46.13997689 179.74300868 46.2297793 182.44506806 46.25 185.1875 C46.270625 185.89841797 46.29125 186.60933594 46.3125 187.34179688 C46.35121566 192.48613984 46.35121566 192.48613984 44.86230469 194.66455078 C42.24167196 196.54379318 40.07495242 196.63251812 36.875 196.94921875 C35.62396484 197.07538574 34.37292969 197.20155273 33.08398438 197.33154297 C31.72279583 197.45178596 30.36146254 197.57040007 29 197.6875 C27.96806519 197.78130951 27.96806519 197.78130951 26.9152832 197.87701416 C-20.74664227 202.16890516 -20.74664227 202.16890516 -33 194 C-33.328125 191.34765625 -33.328125 191.34765625 -33.25 188.0625 C-33.22421875 186.90492188 -33.1984375 185.74734375 -33.171875 184.5546875 C-32.93638461 179.68431814 -32.54376108 174.84529961 -32 170 C-31.01 170 -30.02 170 -29 170 C-29 170.66 -29 171.32 -29 172 C-28.40832031 172.18175781 -27.81664062 172.36351562 -27.20703125 172.55078125 C-18.69505836 175.25850509 -18.69505836 175.25850509 -15 178 C-15 178.66 -15 179.32 -15 180 C-10.59269509 181.79073927 -6.14349105 183.4604743 -1.6875 185.125 C-0.94693359 185.40214844 -0.20636719 185.67929688 0.55664062 185.96484375 C2.37090632 186.64373027 4.18542744 187.32193411 6 188 C6 187.34 6 186.68 6 186 C9.96 185.01 9.96 185.01 14 184 C13.7893266 180.1949704 13.7893266 180.1949704 12 177 C7.82590451 174.82408441 3.49463264 173.37371167 -1 172 C-1 171.67 -1 171.34 -1 171 C1.31 171 3.62 171 6 171 C5.67 170.34 5.34 169.68 5 169 C2.13632973 168.15247994 -0.32010636 168.00339736 -3.3125 168.03515625 C-14.56412865 168.11858994 -20.01241813 164.48536863 -28 157 C-28.53375244 156.59144775 -29.06750488 156.18289551 -29.61743164 155.76196289 C-31.70872125 153.09679653 -31.54050532 150.70956004 -31.73046875 147.36328125 C-31.81103516 146.06455078 -31.89160156 144.76582031 -31.97460938 143.42773438 C-32.04587442 142.05600521 -32.11683406 140.68426015 -32.1875 139.3125 C-32.26890371 137.92896064 -32.35157139 136.54549502 -32.43554688 135.16210938 C-32.63616162 131.77526042 -32.82377229 128.38819122 -33 125 C-33.99 126.65 -34.98 128.3 -36 130 C-44.4895485 130 -52.63307489 125.22908908 -58.6784668 119.37451172 C-59.11457275 118.92092285 -59.55067871 118.46733398 -60 118 C-55.93617955 104.24456449 -47.74793848 83.99895237 -35.7421875 75.37890625 C-28.09596907 71.23618019 -18.96218619 68.28549328 -10.3125 67.375 C-6.92446296 67.33984763 -6.92446296 67.33984763 -5 65 C-4.68050269 62.40083917 -4.68050269 62.40083917 -4.75 59.5 C-4.74484375 58.5203125 -4.7396875 57.540625 -4.734375 56.53125 C-4.74924955 53.83111848 -4.74924955 53.83111848 -7 52 C-7 51.01 -7 50.02 -7 49 C-7.66 49 -8.32 49 -9 49 C-9.0825 48.21625 -9.165 47.4325 -9.25 46.625 C-9.70909738 43.86943709 -9.70909738 43.86943709 -11.9375 42.875 C-12.9584375 42.441875 -12.9584375 42.441875 -14 42 C-16.23982401 38.64026399 -16.24719276 37.52255146 -16.23046875 33.59765625 C-16.22853516 32.54255859 -16.22660156 31.48746094 -16.22460938 30.40039062 C-16.20624023 28.74813477 -16.20624023 28.74813477 -16.1875 27.0625 C-16.18685547 25.96486328 -16.18621094 24.86722656 -16.18554688 23.73632812 C-16.13670112 14.8409726 -16.13670112 14.8409726 -15 11 C-14.34 11 -13.68 11 -13 11 C-13 10.01 -13 9.02 -13 8 C-12.44570312 7.73445313 -11.89140625 7.46890625 -11.3203125 7.1953125 C-10.59585938 6.84210938 -9.87140625 6.48890625 -9.125 6.125 C-8.40570313 5.77695313 -7.68640625 5.42890625 -6.9453125 5.0703125 C-4.84864981 4.03442457 -4.84864981 4.03442457 -3 2 C-2.01 2 -1.02 2 0 2 C0 1.34 0 0.68 0 0 Z " fill="#6F9F8F" transform="translate(244,63)"/>
<path d="M0 0 C-0.185625 1.5159375 -0.185625 1.5159375 -0.375 3.0625 C0.07523994 7.79001938 1.42647632 9.19104598 4.6875 12.421875 C6 14 6 14 6 17 C6.66 17 7.32 17 8 17 C11.6309439 21.04989896 11.35610286 25.32584748 11.3984375 30.4765625 C11 33 11 33 9.7734375 34.78125 C7.552794 36.30733099 5.92120625 36.54312286 3.25 36.875 C-1.60770971 37.65119862 -6.1505394 38.84446519 -10.8125 40.375 C-12.03582031 40.77460938 -13.25914062 41.17421875 -14.51953125 41.5859375 C-27.22216918 46.74682968 -31.84640787 59.53726725 -37.9375 71 C-38.4224292 71.90806396 -38.9073584 72.81612793 -39.40698242 73.75170898 C-39.85920166 74.61739502 -40.3114209 75.48308105 -40.77734375 76.375 C-41.18202881 77.14585937 -41.58671387 77.91671875 -42.00366211 78.7109375 C-43.05789067 81.13300242 -43.57526306 83.39931187 -44 86 C-37.11029183 91.97108041 -30.25437944 96.65724521 -21 97 C-20.525625 96.175 -20.05125 95.35 -19.5625 94.5 C-19.046875 93.675 -18.53125 92.85 -18 92 C-17.67 92 -17.34 92 -17 92 C-16.97607178 92.87736816 -16.95214355 93.75473633 -16.92749023 94.65869141 C-16.82193633 97.9371481 -16.68609721 101.21150039 -16.5300293 104.48779297 C-16.46882853 105.90138531 -16.4194795 107.31554546 -16.38256836 108.72998047 C-16.41474633 116.86868246 -16.41474633 116.86868246 -13.47119141 124.18334961 C-11.72026242 125.67602469 -9.98359502 126.84306687 -8 128 C-7.3709375 128.61488281 -6.741875 129.22976562 -6.09375 129.86328125 C-0.79172374 134.6844865 4.43952541 134.71059207 11.4140625 134.796875 C14.97025784 134.99831526 17.69473651 135.71857477 21 137 C21 137.66 21 138.32 21 139 C19.35 139.33 17.7 139.66 16 140 C17.28197266 140.41958984 17.28197266 140.41958984 18.58984375 140.84765625 C27.50556476 144.08311627 27.50556476 144.08311627 29.01953125 146.890625 C29.25 148.8125 29.25 148.8125 29 152 C25.77208445 154.1519437 24.71599191 154.20086443 21 154 C21 154.66 21 155.32 21 156 C16.59759475 155.41432875 12.89276282 154.30527385 8.8125 152.5625 C7.78769531 152.13066406 6.76289063 151.69882813 5.70703125 151.25390625 C3 150 3 150 0 148 C0 147.34 0 146.68 0 146 C-0.9590625 145.62875 -0.9590625 145.62875 -1.9375 145.25 C-5.99988351 143.59188428 -9.99724906 141.7964416 -14 140 C-14 139.34 -14 138.68 -14 138 C-14.99 138 -15.98 138 -17 138 C-17.02886984 141.97915159 -17.04675406 145.95827653 -17.0625 149.9375 C-17.07506836 151.64196289 -17.07506836 151.64196289 -17.08789062 153.38085938 C-17.09111328 154.46044922 -17.09433594 155.54003906 -17.09765625 156.65234375 C-17.10289307 157.65257568 -17.10812988 158.65280762 -17.11352539 159.68334961 C-17.26181095 161.96207228 -17.26181095 161.96207228 -16 163 C-15.91152257 165.52094076 -15.88472699 168.01430893 -15.90234375 170.53515625 C-15.9037587 171.28840683 -15.90517365 172.04165741 -15.90663147 172.81773376 C-15.91224624 175.2326956 -15.92480117 177.64756601 -15.9375 180.0625 C-15.9425131 181.69596221 -15.94707634 183.32942586 -15.95117188 184.96289062 C-15.96222046 188.97529585 -15.97949494 192.98763241 -16 197 C-21.54562898 195.305697 -26.54284303 193.40570073 -31.5625 190.4375 C-32.59503906 189.83808594 -33.62757813 189.23867188 -34.69140625 188.62109375 C-35.45324219 188.08613281 -36.21507812 187.55117188 -37 187 C-37 186.34 -37 185.68 -37 185 C-37.71800781 184.76023437 -38.43601563 184.52046875 -39.17578125 184.2734375 C-42.41839824 182.81134464 -44.56150895 181.0165985 -47.1875 178.625 C-48.04730469 177.85414063 -48.90710938 177.08328125 -49.79296875 176.2890625 C-51.78484862 174.22314816 -52.92534943 172.6295919 -54 170 C-54.66 170 -55.32 170 -56 170 C-56 169.34 -56 168.68 -56 168 C-56.66 168 -57.32 168 -58 168 C-59.7265625 165.6640625 -59.7265625 165.6640625 -61.625 162.625 C-62.25664062 161.62726563 -62.88828125 160.62953125 -63.5390625 159.6015625 C-65 157 -65 157 -65 155 C-65.66 155 -66.32 155 -67 155 C-74.71068422 138.985502 -80.67846459 122.98124958 -81 105 C-81.04060547 103.73349609 -81.04060547 103.73349609 -81.08203125 102.44140625 C-81.12580457 99.95428556 -81.07958672 97.48613764 -81 95 C-80.98324219 94.05125 -80.96648437 93.1025 -80.94921875 92.125 C-79.81348834 66.16544779 -66.94028735 41.45546356 -48.203125 23.8203125 C-36.21067794 13.00927751 -16.79499381 -1.0673454 0 0 Z " fill="#E0F4E8" transform="translate(229,95)"/>
<path d="M0 0 C22.61491479 3.71289646 44.91152801 17.71031236 58.62695312 36.19238281 C63.09297117 42.55188805 67.61118891 48.99112293 71 56 C72.01320313 55.94779297 72.01320313 55.94779297 73.046875 55.89453125 C73.93890625 55.86746094 74.8309375 55.84039062 75.75 55.8125 C77.07257813 55.76029297 77.07257813 55.76029297 78.421875 55.70703125 C81.55118319 56.06263445 82.83743932 56.71839928 85 59 C85.76627851 62.37500609 85.55726945 65.59508365 85 69 C83.25 71.625 83.25 71.625 81 73 C79.68 73 78.36 73 77 73 C77.4640625 74.794375 77.4640625 74.794375 77.9375 76.625 C80.20191343 86.85500959 80.28802743 97.56243447 80 108 C79.97486328 109.48693359 79.97486328 109.48693359 79.94921875 111.00390625 C79.24559094 127.06672392 73.57589623 141.0523235 66 155 C65.3265437 156.32991685 64.65588176 157.66132852 64 159 C63.34 159 62.68 159 62 159 C61.731875 159.7425 61.46375 160.485 61.1875 161.25 C60.04723249 163.89061949 58.90619694 165.85552844 57 168 C56.34 168 55.68 168 55 168 C55 168.66 55 169.32 55 170 C54.34 170 53.68 170 53 170 C52.75636719 170.56589844 52.51273437 171.13179687 52.26171875 171.71484375 C48.52076985 178.49024655 42.31590347 183.66513719 35 186 C33.01380489 184.01380489 33.83027586 180.2593558 33.81054688 177.59863281 C33.81119141 176.55545898 33.81183594 175.51228516 33.8125 174.4375 C33.81185547 173.36209961 33.81121094 172.28669922 33.81054688 171.17871094 C33.85872099 163.65697966 34.29548443 156.23654629 35 148.75 C36.3407862 134.45563901 36.4260524 120.38328493 35.22265625 106.078125 C34.90701923 101.71458161 34.90933802 97.37192213 35 93 C35.66 93 36.32 93 37 93 C35.15928152 82.72445976 33.10724429 72.60156533 30 62.625 C29.7632959 61.84793701 29.5265918 61.07087402 29.28271484 60.27026367 C26.64075166 52.0855513 22.56438495 46.23701309 15 42 C8.49644569 39.48726311 1.7708887 37.76316525 -5.09765625 36.58984375 C-7.65662248 35.79640658 -9.11141336 34.91751466 -11 33 C-11.53125 30.22265625 -11.53125 30.22265625 -11.5 27.0625 C-11.5103125 26.02222656 -11.520625 24.98195313 -11.53125 23.91015625 C-10.88398283 20.36446479 -9.6618249 19.3316367 -7 17 C-5.74563813 14.36777038 -5.74563813 14.36777038 -5 12 C-4.34 12 -3.68 12 -3 12 C-2.67 11.01 -2.34 10.02 -2 9 C-1.34 9 -0.68 9 0 9 C0 6.03 0 3.06 0 0 Z M76 58 C77.0209375 58.8353125 77.0209375 58.8353125 78.0625 59.6875 C80 62 80 62 79.9375 64.5625 C78.97076039 67.076023 78.05615305 68.30143878 76 70 C77.98 69.67 79.96 69.34 82 69 C83.1203061 64.17026575 83.1203061 64.17026575 81.8125 59.5625 C79.89389731 57.56470692 79.89389731 57.56470692 76 58 Z M73 62 C74 64 74 64 74 64 Z M77 62 C76.34 63.32 75.68 64.64 75 66 C75.99 65.67 76.98 65.34 78 65 C77.67 64.01 77.34 63.02 77 62 Z " fill="#E1F4E8" transform="translate(272,95)"/>
<path d="M0 0 C0.99 0 1.98 0 3 0 C3.33 0.66 3.66 1.32 4 2 C4.70125 1.649375 5.4025 1.29875 6.125 0.9375 C9.50268586 -0.1639193 11.58080593 0.20483859 15 1 C15 1.66 15 2.32 15 3 C16.26457031 3.07347656 16.26457031 3.07347656 17.5546875 3.1484375 C19.19824219 3.26058594 19.19824219 3.26058594 20.875 3.375 C21.96554687 3.44460937 23.05609375 3.51421875 24.1796875 3.5859375 C27 4 27 4 29 6 C29.51735644 10.65620796 28.68362626 13.19819614 26 17 C26.69867188 17.15855469 27.39734375 17.31710938 28.1171875 17.48046875 C35.64977912 19.41162893 35.64977912 19.41162893 37.5625 22.625 C37.706875 23.40875 37.85125 24.1925 38 25 C38.33 25.33 38.66 25.66 39 26 C39.65186913 32.25794361 37.88593186 36.50253635 35 42 C34.45666016 43.07701172 34.45666016 43.07701172 33.90234375 44.17578125 C30.56771149 50.17811931 26.25209923 53.6164379 19.70703125 55.74609375 C17.82044919 56.23026083 15.91119705 56.62458629 14 57 C14 57.66 14 58.32 14 59 C8.03596489 60.83508773 4.24817912 58.71739052 -1 56 C-1 55.67 -1 55.34 -1 55 C1.31 55 3.62 55 6 55 C5.67 54.34 5.34 53.68 5 53 C0.97312078 51.81868303 -2.95715044 51.96795402 -7.125 51.9375 C-15.33266635 51.48644081 -20.03308631 48.4458942 -26 43 C-25.01 42.505 -25.01 42.505 -24 42 C-24.01571045 41.35039307 -24.0314209 40.70078613 -24.04760742 40.03149414 C-24.11059337 37.04192069 -24.14919021 34.05248751 -24.1875 31.0625 C-24.21263672 30.04091797 -24.23777344 29.01933594 -24.26367188 27.96679688 C-24.32729075 21.3292281 -23.39759736 16.15830831 -21 10 C-20.63893903 8.33911955 -20.29537827 6.67381019 -20 5 C-19.67 4.01 -19.34 3.02 -19 2 C-17.35 2.99 -15.7 3.98 -14 5 C-13.67 4.67 -13.34 4.34 -13 4 C-10.48393551 3.75650989 -7.96913976 3.61636634 -5.4453125 3.4765625 C-2.61024952 2.92404224 -1.92015889 2.05182692 0 0 Z " fill="#8DAB9A" transform="translate(244,179)"/>
<path d="M0 0 C13.51257268 -0.72173979 13.51257268 -0.72173979 19 4 C21.07313342 5.24702712 23.1671581 6.45247829 25.265625 7.65625 C27.4202108 9.32556873 28.11727926 10.41393874 29 13 C30.74888093 37.39540683 30.74888093 37.39540683 26.58203125 42.859375 C25 44 25 44 23 44 C22.7525 45.11375 22.505 46.2275 22.25 47.375 C21 51 21 51 17 53 C17 56.96 17 60.92 17 65 C18.32 65.66 19.64 66.32 21 67 C22 70 22 70 20.9375 72.4375 C18.4547601 75.72112374 16.75799512 77.21989705 13 79 C6.56953992 79.79388396 0.41817054 79.92817364 -5 76 C-9 71.68421053 -9 71.68421053 -9 69 C-10.98 69 -12.96 69 -15 69 C-15 68.67 -15 68.34 -15 68 C-13.72125 67.87625 -12.4425 67.7525 -11.125 67.625 C-7.65209064 67.30957601 -7.65209064 67.30957601 -5 65 C-4.68050269 62.40083917 -4.68050269 62.40083917 -4.75 59.5 C-4.74484375 58.5203125 -4.7396875 57.540625 -4.734375 56.53125 C-4.74924955 53.83111848 -4.74924955 53.83111848 -7 52 C-7 51.01 -7 50.02 -7 49 C-7.66 49 -8.32 49 -9 49 C-9.0825 48.21625 -9.165 47.4325 -9.25 46.625 C-9.70909738 43.86943709 -9.70909738 43.86943709 -11.9375 42.875 C-12.9584375 42.441875 -12.9584375 42.441875 -14 42 C-16.23982401 38.64026399 -16.24719276 37.52255146 -16.23046875 33.59765625 C-16.22853516 32.54255859 -16.22660156 31.48746094 -16.22460938 30.40039062 C-16.21236328 29.29888672 -16.20011719 28.19738281 -16.1875 27.0625 C-16.18685547 25.96486328 -16.18621094 24.86722656 -16.18554688 23.73632812 C-16.13670112 14.8409726 -16.13670112 14.8409726 -15 11 C-14.34 11 -13.68 11 -13 11 C-13 10.01 -13 9.02 -13 8 C-12.44570312 7.73445313 -11.89140625 7.46890625 -11.3203125 7.1953125 C-10.59585938 6.84210938 -9.87140625 6.48890625 -9.125 6.125 C-8.40570313 5.77695313 -7.68640625 5.42890625 -6.9453125 5.0703125 C-4.84864981 4.03442457 -4.84864981 4.03442457 -3 2 C-2.01 2 -1.02 2 0 2 C0 1.34 0 0.68 0 0 Z " fill="#F8BDA2" transform="translate(244,63)"/>
<path d="M0 0 C1.99337131 19.47778241 2.58533759 38.12674105 0.71191406 57.62304688 C-0.08716707 66.48971935 -0.12916608 75.28733377 0.07421875 84.18408203 C0.22009998 93.07021282 -0.19597773 100.92634785 -6 108 C-6.66 108 -7.32 108 -8 108 C-8 108.66 -8 109.32 -8 110 C-9.32 109.67 -10.64 109.34 -12 109 C-12 106.03 -12 103.06 -12 100 C-14.475 100.99 -14.475 100.99 -17 102 C-17.33 106.29 -17.66 110.58 -18 115 C-18.33 115 -18.66 115 -19 115 C-19.02526945 108.3247966 -19.04283268 101.64960543 -19.05493164 94.97436523 C-19.05997325 92.70157409 -19.06680637 90.4287862 -19.07543945 88.15600586 C-19.08751261 84.89696449 -19.09322987 81.63796583 -19.09765625 78.37890625 C-19.10281754 77.35599991 -19.10797882 76.33309357 -19.11329651 75.27919006 C-19.11337204 74.33829025 -19.11344757 73.39739044 -19.11352539 72.42797852 C-19.115746 71.59524918 -19.11796661 70.76251984 -19.12025452 69.90455627 C-19 68 -19 68 -18 67 C-17.89908154 64.42657936 -17.8613248 61.88571619 -17.875 59.3125 C-17.87113281 58.60416016 -17.86726563 57.89582031 -17.86328125 57.16601562 C-17.87100361 52.98435607 -18.2943184 49.1295442 -19 45 C-19.2667948 41.77437677 -19.41771465 38.54564311 -19.5625 35.3125 C-19.6049585 34.40218018 -19.64741699 33.49186035 -19.69116211 32.55395508 C-20.08538891 23.36775662 -20.09455145 14.19250208 -20 5 C-16.85468901 4.16468645 -13.70866743 3.33208145 -10.5625 2.5 C-9.66466797 2.26152344 -8.76683594 2.02304688 -7.84179688 1.77734375 C-6.98779297 1.55175781 -6.13378906 1.32617188 -5.25390625 1.09375 C-4.46314697 0.88427734 -3.6723877 0.67480469 -2.85766602 0.45898438 C-1 0 -1 0 0 0 Z " fill="#F6BFA4" transform="translate(307,189)"/>
<path d="M0 0 C1.44632813 0.83144531 1.44632813 0.83144531 2.921875 1.6796875 C4.19788361 2.41151597 5.47392712 3.1432836 6.75 3.875 C7.70132813 4.42220703 7.70132813 4.42220703 8.671875 4.98046875 C15.39366808 9.32234822 15.39366808 9.32234822 23 10 C24.78969026 7.57327433 24.78969026 7.57327433 26 5 C26.33 5 26.66 5 27 5 C27.02392822 5.87736816 27.04785645 6.75473633 27.07250977 7.65869141 C27.17806367 10.9371481 27.31390279 14.21150039 27.4699707 17.48779297 C27.53117147 18.90138531 27.5805205 20.31554546 27.61743164 21.72998047 C27.58525367 29.86868246 27.58525367 29.86868246 30.52880859 37.18334961 C32.27973758 38.67602469 34.01640498 39.84306687 36 41 C36.6290625 41.61488281 37.258125 42.22976562 37.90625 42.86328125 C43.20827626 47.6844865 48.43952541 47.71059207 55.4140625 47.796875 C58.97025784 47.99831526 61.69473651 48.71857477 65 50 C65 50.66 65 51.32 65 52 C63.35 52.33 61.7 52.66 60 53 C60.85464844 53.27972656 61.70929688 53.55945313 62.58984375 53.84765625 C71.50556476 57.08311627 71.50556476 57.08311627 73.01953125 59.890625 C73.25 61.8125 73.25 61.8125 73 65 C69.77208445 67.1519437 68.71599191 67.20086443 65 67 C65 67.66 65 68.32 65 69 C60.59759475 68.41432875 56.89276282 67.30527385 52.8125 65.5625 C51.78769531 65.13066406 50.76289063 64.69882813 49.70703125 64.25390625 C47 63 47 63 44 61 C44 60.34 44 59.68 44 59 C43.360625 58.7525 42.72125 58.505 42.0625 58.25 C38.00011649 56.59188428 34.00275094 54.7964416 30 53 C30 52.34 30 51.68 30 51 C29.01 51 28.02 51 27 51 C27 54.63 27 58.26 27 62 C26.67 62 26.34 62 26 62 C26 58.37 26 54.74 26 51 C24.35 50.34 22.7 49.68 21 49 C19.45983439 48.13782757 17.93924644 47.23997454 16.4375 46.3125 C11.4523376 43.25222685 6.37871115 40.37046316 1.2734375 37.515625 C0.52320313 37.01546875 -0.22703125 36.5153125 -1 36 C-1 35.34 -1 34.68 -1 34 C-1.639375 33.731875 -2.27875 33.46375 -2.9375 33.1875 C-5 32 -5 32 -6 29 C-7.53700263 18.70791909 -3.50090477 9.47119772 0 0 Z " fill="#F6C0A5" transform="translate(185,182)"/>
<path d="M0 0 C1.12535156 0.02126953 1.12535156 0.02126953 2.2734375 0.04296875 C5.08394385 0.11771626 7.77593656 0.22218329 10.50830078 0.91918945 C12.82873165 1.48579218 14.06152639 0.96145747 16.375 0.375 C18.96873914 0.30601758 21.53310197 0.28065248 24.125 0.3125 C24.82238281 0.31701172 25.51976562 0.32152344 26.23828125 0.32617188 C27.95055803 0.3378998 29.66279033 0.35583347 31.375 0.375 C31.87 1.86 31.87 1.86 32.375 3.375 C32.045 4.035 31.715 4.695 31.375 5.375 C30.715 5.375 30.055 5.375 29.375 5.375 C29.375 6.035 29.375 6.695 29.375 7.375 C27.75525441 9.08730248 26.0791054 10.74663262 24.375 12.375 C23.653125 13.220625 22.93125 14.06625 22.1875 14.9375 C18.88824917 17.79685072 15.78120513 18.98225143 11.72265625 20.4765625 C9.0563236 21.49695602 6.8032832 22.88067188 4.375 24.375 C2.92172484 25.01167293 1.46274691 25.63540046 0 26.25 C-3.12580759 27.59186083 -5.73187131 29.06523106 -8.4375 31.125 C-11.625 33.375 -11.625 33.375 -15.625 33.375 C-17.28037902 30.06424197 -17.13601549 26.39305655 -17.375 22.75 C-17.44332031 21.96753906 -17.51164063 21.18507812 -17.58203125 20.37890625 C-17.94109397 14.82724416 -17.4706553 10.24449923 -14.625 5.375 C-10.02628478 0.20653245 -6.51952366 -0.32823991 0 0 Z " fill="#B06E66" transform="translate(239.625,184.625)"/>
<path d="M0 0 C13.51257268 -0.72173979 13.51257268 -0.72173979 19 4 C21.07313342 5.24702712 23.1671581 6.45247829 25.265625 7.65625 C27.44448057 9.34437234 28.12667647 10.37120795 29 13 C29.13958857 15.62426505 29.18931369 18.13292747 29.125 20.75 C29.11597656 21.44738281 29.10695313 22.14476563 29.09765625 22.86328125 C29.07419888 24.57566958 29.03833104 26.28788004 29 28 C28.34 28 27.68 28 27 28 C26.81824219 28.95712891 26.81824219 28.95712891 26.6328125 29.93359375 C26.38144531 31.17302734 26.38144531 31.17302734 26.125 32.4375 C25.96257812 33.26121094 25.80015625 34.08492187 25.6328125 34.93359375 C25.42398438 35.61550781 25.21515625 36.29742187 25 37 C24.01 37.495 24.01 37.495 23 38 C22.67 33.71 22.34 29.42 22 25 C20.370625 24.938125 18.74125 24.87625 17.0625 24.8125 C11.78075924 24.36500977 8.51865754 22.82953852 4.06640625 20.09765625 C0.85693064 18.39281193 -1.47352969 18.30853523 -5 19 C-8.99217939 22.86176337 -9.54616909 25.86002307 -9.75 31.3125 C-9.80671875 32.56675781 -9.8634375 33.82101563 -9.921875 35.11328125 C-9.94765625 36.06589844 -9.9734375 37.01851562 -10 38 C-13.44335994 36.27832003 -13.953118 32.61508733 -15.17578125 29.12890625 C-16.76316927 23.1028503 -16.71068307 16.99434473 -15 11 C-14.34 11 -13.68 11 -13 11 C-13 10.01 -13 9.02 -13 8 C-12.44570312 7.73445313 -11.89140625 7.46890625 -11.3203125 7.1953125 C-10.59585938 6.84210938 -9.87140625 6.48890625 -9.125 6.125 C-8.40570313 5.77695313 -7.68640625 5.42890625 -6.9453125 5.0703125 C-4.84864981 4.03442457 -4.84864981 4.03442457 -3 2 C-2.01 2 -1.02 2 0 2 C0 1.34 0 0.68 0 0 Z " fill="#464544" transform="translate(244,63)"/>
<path d="M0 0 C3.51653056 0.58608843 6.7337133 -0.097557 10.25 -0.625 C10.745 0.86 10.745 0.86 11.25 2.375 C11.91 2.705 12.57 3.035 13.25 3.375 C13.67784787 9.57879415 13.16735275 12.30548468 9.25 17.375 C8.55570621 18.6941582 7.87469505 20.02149406 7.25 21.375 C6.59 21.375 5.93 21.375 5.25 21.375 C5.25 22.035 5.25 22.695 5.25 23.375 C1.98520707 25.31226484 -0.53579661 25.67208488 -4.3125 25.6875 C-5.26253906 25.70425781 -6.21257812 25.72101563 -7.19140625 25.73828125 C-9.75 25.375 -9.75 25.375 -11.609375 24.0234375 C-12.75 22.375 -12.75 22.375 -12.4375 19.6875 C-12.0971875 18.5428125 -12.0971875 18.5428125 -11.75 17.375 C-14.74480917 16.5026588 -17.38575911 16.26670234 -20.5 16.3125 C-21.69882813 16.32603516 -21.69882813 16.32603516 -22.921875 16.33984375 C-23.52515625 16.35144531 -24.1284375 16.36304688 -24.75 16.375 C-24.75 15.715 -24.75 15.055 -24.75 14.375 C-25.74 14.045 -26.73 13.715 -27.75 13.375 C-27.110625 12.611875 -26.47125 11.84875 -25.8125 11.0625 C-23.60767219 8.49253287 -23.60767219 8.49253287 -22.75 5.375 C-20.53515625 4.27734375 -20.53515625 4.27734375 -17.8125 3.3125 C-13.91220589 1.94667745 -13.91220589 1.94667745 -10.75 -0.625 C-6.59763093 -1.82700157 -3.9807164 -1.42168443 0 0 Z " fill="#CCADB8" transform="translate(260.75,204.625)"/>
<path d="M0 0 C0.99 0 1.98 0 3 0 C3 0.66 3 1.32 3 2 C4.64574566 2.02688151 6.29161413 2.04634123 7.9375 2.0625 C9.31228516 2.07990234 9.31228516 2.07990234 10.71484375 2.09765625 C12.96593327 2.25949049 12.96593327 2.25949049 14 1 C16.87495878 0.68750448 18.4394566 0.61093085 20.8515625 2.28515625 C21.43679688 2.87167969 22.02203125 3.45820313 22.625 4.0625 C26.63782786 7.83792774 30.95702258 10.60669312 35.6796875 13.421875 C38 15 38 15 40 18 C40.125 20.6875 40.125 20.6875 40 23 C39.34 23 38.68 23 38 23 C38 23.66 38 24.32 38 25 C28.52356987 25.7683592 21.61029169 23.85371112 13 20 C12.11570312 19.63132812 11.23140625 19.26265625 10.3203125 18.8828125 C2.55221847 15.59729076 2.55221847 15.59729076 0 13 C-0.390625 9.86328125 -0.390625 9.86328125 -0.25 6.3125 C-0.21390625 5.13300781 -0.1778125 3.95351563 -0.140625 2.73828125 C-0.09421875 1.83464844 -0.0478125 0.93101562 0 0 Z " fill="#535251" transform="translate(268,433)"/>
<path d="M0 0 C0.66 0.33 1.32 0.66 2 1 C2.08107583 2.93681161 2.13922475 4.8745934 2.1875 6.8125 C2.23970703 8.43091797 2.23970703 8.43091797 2.29296875 10.08203125 C1.95361861 13.46195864 1.53686942 13.91179012 -1 16 C-3.03710938 17.05908203 -3.03710938 17.05908203 -5.34375 18.0078125 C-6.17777344 18.35457031 -7.01179688 18.70132812 -7.87109375 19.05859375 C-8.73863281 19.41050781 -9.60617188 19.76242187 -10.5 20.125 C-11.36753906 20.48464844 -12.23507813 20.84429687 -13.12890625 21.21484375 C-18.63958762 23.48895801 -23.02077867 25.13968219 -29.0625 25.125 C-30.12597656 25.12757813 -31.18945312 25.13015625 -32.28515625 25.1328125 C-35 25 -35 25 -37 24 C-37.4375 20.875 -37.4375 20.875 -37 17 C-35.03944045 14.49073038 -32.60405228 12.80389804 -30 11 C-29.20851562 10.43667969 -28.41703125 9.87335938 -27.6015625 9.29296875 C-21.38831967 5 -21.38831967 5 -19 5 C-19 4.34 -19 3.68 -19 3 C-18.34 3 -17.68 3 -17 3 C-17 2.34 -17 1.68 -17 1 C-16.02417969 1.09539062 -15.04835937 1.19078125 -14.04296875 1.2890625 C-12.13451172 1.45535156 -12.13451172 1.45535156 -10.1875 1.625 C-8.92292969 1.74101562 -7.65835938 1.85703125 -6.35546875 1.9765625 C-2.86442059 2.31441804 -2.86442059 2.31441804 0 0 Z " fill="#515050" transform="translate(236,433)"/>
<path d="M0 0 C5.2874559 5.2874559 4.59132483 15.54061761 5.0625 22.5625 C5.14556396 23.70968506 5.22862793 24.85687012 5.31420898 26.03881836 C5.67185183 31.02436666 6.00536265 36.01109336 6.3125 41 C6.35624756 41.70181396 6.39999512 42.40362793 6.44506836 43.12670898 C6.55441042 44.92914812 6.65452742 46.73214034 6.75390625 48.53515625 C6.7314876 50.94260734 6.7314876 50.94260734 8 52 C8.15327614 54.22545162 8.22203074 56.45695159 8.25 58.6875 C8.28867187 60.51861328 8.28867187 60.51861328 8.328125 62.38671875 C7.97094235 66.31998009 6.75745947 68.50755497 5 72 C4.64432526 74.6879236 4.40372459 77.18517772 4.3125 79.875 C4.27833984 80.56335938 4.24417969 81.25171875 4.20898438 81.9609375 C4.12735909 83.64008613 4.0619843 85.32001168 4 87 C4.66 87.33 5.32 87.66 6 88 C6.66 85.69 7.32 83.38 8 81 C8.66 81.33 9.32 81.66 10 82 C10.05399736 83.45792884 10.09279177 84.91642712 10.125 86.375 C10.14820313 87.18710937 10.17140625 87.99921875 10.1953125 88.8359375 C10 91 10 91 8 93 C7.67 92.34 7.34 91.68 7 91 C4.525 91.99 4.525 91.99 2 93 C1.67 97.29 1.34 101.58 1 106 C0.67 106 0.34 106 0 106 C-0.02526945 99.3247966 -0.04283268 92.64960543 -0.05493164 85.97436523 C-0.05997325 83.70157409 -0.06680637 81.4287862 -0.07543945 79.15600586 C-0.08751261 75.89696449 -0.09322987 72.63796583 -0.09765625 69.37890625 C-0.10281754 68.35599991 -0.10797882 67.33309357 -0.11329651 66.27919006 C-0.11337204 65.33829025 -0.11344757 64.39739044 -0.11352539 63.42797852 C-0.115746 62.59524918 -0.11796661 61.76251984 -0.12025452 60.90455627 C0 59 0 59 1 58 C1.10091846 55.42657936 1.1386752 52.88571619 1.125 50.3125 C1.12886719 49.60416016 1.13273437 48.89582031 1.13671875 48.16601562 C1.13478516 47.11897461 1.13478516 47.11897461 1.1328125 46.05078125 C1.13168457 45.41825439 1.13055664 44.78572754 1.12939453 44.1340332 C1.03665118 41.88955712 1.03665118 41.88955712 0.49780273 39.27563477 C-0.09909027 35.34796757 -0.12467926 31.49981806 -0.09765625 27.5390625 C-0.0962413 26.74849457 -0.09482635 25.95792664 -0.09336853 25.1434021 C-0.08780504 22.63722834 -0.07525944 20.13114642 -0.0625 17.625 C-0.05748028 15.91797005 -0.0529182 14.21093868 -0.04882812 12.50390625 C-0.03784759 8.33590252 -0.02060839 4.16796679 0 0 Z " fill="#E0F6E9" transform="translate(288,198)"/>
<path d="M0 0 C1.79824219 0.05994141 1.79824219 0.05994141 3.6328125 0.12109375 C4.82648438 0.14300781 6.02015625 0.16492188 7.25 0.1875 C10.69028709 0.55145019 13.53445961 1.33135389 16.7578125 2.55859375 C16.7578125 3.21859375 16.7578125 3.87859375 16.7578125 4.55859375 C15.1078125 4.88859375 13.4578125 5.21859375 11.7578125 5.55859375 C12.61246094 5.83832031 13.46710938 6.11804688 14.34765625 6.40625 C23.26337726 9.64171002 23.26337726 9.64171002 24.77734375 12.44921875 C25.0078125 14.37109375 25.0078125 14.37109375 24.7578125 17.55859375 C21.52989695 19.71053745 20.47380441 19.75945818 16.7578125 19.55859375 C16.7578125 20.21859375 16.7578125 20.87859375 16.7578125 21.55859375 C12.35540725 20.9729225 8.65057532 19.8638676 4.5703125 18.12109375 C3.54550781 17.68925781 2.52070313 17.25742188 1.46484375 16.8125 C-1.2421875 15.55859375 -1.2421875 15.55859375 -4.2421875 13.55859375 C-4.2421875 12.89859375 -4.2421875 12.23859375 -4.2421875 11.55859375 C-4.8815625 11.31109375 -5.5209375 11.06359375 -6.1796875 10.80859375 C-10.24207101 9.15047803 -14.23943656 7.35503535 -18.2421875 5.55859375 C-15.17165626 4.61588679 -14.05280837 4.59917499 -10.7421875 5.30859375 C-9.0096875 5.43234375 -9.0096875 5.43234375 -7.2421875 5.55859375 C-6.65179688 4.74777344 -6.06140625 3.93695313 -5.453125 3.1015625 C-3.2421875 0.55859375 -3.2421875 0.55859375 0 0 Z " fill="#F1C0A4" transform="translate(233.2421875,229.44140625)"/>
<path d="M0 0 C9.94382022 -0.16853933 9.94382022 -0.16853933 13 1 C14.25 3.5 14.25 3.5 15 6 C15.33 6.33 15.66 6.66 16 7 C16.40983807 12.22543543 15.76533508 15.53292026 13 20 C12.34 20.33 11.68 20.66 11 21 C9.9935725 22.66279327 8.99414593 24.32983484 8 26 C6.4375 27.8125 6.4375 27.8125 5 29 C4.34 29 3.68 29 3 29 C3 29.66 3 30.32 3 31 C2.34 31 1.68 31 1 31 C1 31.66 1 32.32 1 33 C-4.39460953 35.27141454 -9.26157749 35.20413361 -15 35 C-15 34.34 -15 33.68 -15 33 C-13.98679688 32.80083984 -13.98679688 32.80083984 -12.953125 32.59765625 C-12.06109375 32.42105469 -11.1690625 32.24445313 -10.25 32.0625 C-9.36828125 31.88847656 -8.4865625 31.71445313 -7.578125 31.53515625 C-5.36764947 31.07631512 -3.18487932 30.56663926 -1 30 C-1 29.34 -1 28.68 -1 28 C-0.34 27.67 0.32 27.34 1 27 C2.03432904 25.01753602 3.03238392 23.01586684 4 21 C4.66 20.01 5.32 19.02 6 18 C6.45139459 15.9507906 6.45139459 15.9507906 6.625 13.8125 C6.74875 12.554375 6.8725 11.29625 7 10 C5.68 9.34 4.36 8.68 3 8 C3.33 7.34 3.66 6.68 4 6 C3.00419922 6.28617188 3.00419922 6.28617188 1.98828125 6.578125 C-0.70837525 7.25524167 -3.2242635 7.80506278 -6 8 C-9.125 6.125 -9.125 6.125 -11 4 C-9.02 3.01 -7.04 2.02 -5 1 C-5 1.66 -5 2.32 -5 3 C-3.35 2.67 -1.7 2.34 0 2 C0 1.34 0 0.68 0 0 Z " fill="#A18595" transform="translate(267,198)"/>
<path d="M0 0 C1.65547957 2.56599334 1.84057796 4.91565684 1.74609375 7.93359375 C0.8308927 11.63042948 -1.65745951 12.89642328 -4.75 14.9375 C-7.046537 16.0857685 -8.33313167 16.05311175 -10.8828125 16.03515625 C-11.68847656 16.03193359 -12.49414062 16.02871094 -13.32421875 16.02539062 C-14.16597656 16.01701172 -15.00773438 16.00863281 -15.875 16 C-16.72449219 15.99548828 -17.57398438 15.99097656 -18.44921875 15.98632812 C-20.54950909 15.97452874 -22.6497633 15.95659306 -24.75 15.9375 C-24.75 15.2775 -24.75 14.6175 -24.75 13.9375 C-25.74 13.6075 -26.73 13.2775 -27.75 12.9375 C-27.110625 12.174375 -26.47125 11.41125 -25.8125 10.625 C-23.60767219 8.05503287 -23.60767219 8.05503287 -22.75 4.9375 C-20.53515625 3.83984375 -20.53515625 3.83984375 -17.8125 2.875 C-13.91220589 1.50917745 -13.91220589 1.50917745 -10.75 -1.0625 C-6.54655288 -2.27928732 -3.75480526 -2.27970319 0 0 Z " fill="#B3C8C8" transform="translate(260.75,205.0625)"/>
<path d="M0 0 C0.90609278 2.45081721 1.20886325 3.54322515 0.1015625 5.96484375 C-4.622254 12.27576262 -9.81431145 16.04536928 -17.5625 17.8125 C-18.366875 17.874375 -19.17125 17.93625 -20 18 C-20 18.66 -20 19.32 -20 20 C-25.96403511 21.83508773 -29.75182088 19.71739052 -35 17 C-35 16.67 -35 16.34 -35 16 C-32.69 16 -30.38 16 -28 16 C-28.33 15.34 -28.66 14.68 -29 14 C-31.77729227 13.34508976 -31.77729227 13.34508976 -35 12.9375 C-40.90508941 12.09491059 -40.90508941 12.09491059 -42 11 C-41.71269945 8.66055264 -41.38063221 6.3260857 -41 4 C-40.01 4 -39.02 4 -38 4 C-38 3.34 -38 2.68 -38 2 C-34.37471432 1.79859524 -32.13498292 2.14223235 -29 4 C-29.04125 4.78375 -29.0825 5.5675 -29.125 6.375 C-29.28728734 9.16116119 -29.28728734 9.16116119 -27 11 C-24.34462628 11.56520003 -21.70855287 11.73788198 -19 12 C-19 12.33 -19 12.66 -19 13 C-21.31 13 -23.62 13 -26 13 C-26 13.66 -26 14.32 -26 15 C-20.72 14.34 -15.44 13.68 -10 13 C-10 12.34 -10 11.68 -10 11 C-9.34 11 -8.68 11 -8 11 C-8 10.34 -8 9.68 -8 9 C-7.34 9 -6.68 9 -6 9 C-5.67 8.01 -5.34 7.02 -5 6 C-4.01 5.34 -3.02 4.68 -2 4 C-0.80767387 1.94996045 -0.80767387 1.94996045 0 0 Z " fill="#AB8C9B" transform="translate(278,218)"/>
<path d="M0 0 C3.06840472 1.84104283 4.62091574 3.327987 6.375 6.4375 C7.34190849 10.4018248 6.26394588 13.20816235 5 17 C4.34 17 3.68 17 3 17 C3 17.66 3 18.32 3 19 C-1.23740587 21.82493725 -5.02465933 21.7788872 -10 21 C-13.72413058 18.28448812 -15.95175986 15.5074326 -17 11 C-16.85728936 8.26811051 -16.45882729 5.70708099 -16 3 C-15.01 2.67 -14.02 2.34 -13 2 C-13.226875 3.19625 -13.45375 4.3925 -13.6875 5.625 C-14.22518868 9.8962171 -13.42444116 12.36333825 -11 16 C-7.73083718 18.17944188 -7.13719614 18.23305854 -3.4375 17.8125 C-2.65246094 17.73644531 -1.86742187 17.66039062 -1.05859375 17.58203125 C1.38047967 17.13317428 1.38047967 17.13317428 3 14 C3.50826085 9.31479518 3.50826085 9.31479518 1.75 5.125 C-1.0404806 3.33111961 -2.97070447 2.7998592 -6.25 3.4375 C-6.8275 3.623125 -7.405 3.80875 -8 4 C-8.6878236 6.35367713 -8.6878236 6.35367713 -9 9 C-8.01 10.485 -8.01 10.485 -7 12 C-5.68 12 -4.36 12 -3 12 C-2.67 10.68 -2.34 9.36 -2 8 C-2.66 8 -3.32 8 -4 8 C-4 8.99 -4 9.98 -4 11 C-4.99 11 -5.98 11 -7 11 C-6.67 9.35 -6.34 7.7 -6 6 C-2.25 4.875 -2.25 4.875 0 6 C0.875 8.8125 0.875 8.8125 1 12 C-0.5625 14.4375 -0.5625 14.4375 -3 16 C-6.47744465 16 -8.26240749 15.61862598 -10.9375 13.375 C-12.50171684 9.87851531 -11.9785177 7.65313273 -11 4 C-8.01782629 -0.47326056 -5.17580188 -0.72642833 0 0 Z " fill="#A5B6B1" transform="translate(178,289)"/>
<path d="M0 0 C0.33 0 0.66 0 1 0 C1.64217298 9.67846426 2.16831537 19.29381339 2 29 C1.01 28.67 0.02 28.34 -1 28 C-1 27.34 -1 26.68 -1 26 C-1.66 26 -2.32 26 -3 26 C-4.33333333 24.66666667 -5.66666667 23.33333333 -7 22 C-8.63978318 20.95650161 -10.30094366 19.94392019 -12 19 C-10.77443263 14.62297367 -9.46939453 10.30322683 -8 6 C-7.236875 5.938125 -6.47375 5.87625 -5.6875 5.8125 C-2.76885423 5.23675967 -2.76885423 5.23675967 -1.25 2.4375 C-0.8375 1.633125 -0.425 0.82875 0 0 Z " fill="#DCF3E6" transform="translate(211,187)"/>
<path d="M0 0 C2.22265625 1.20703125 2.22265625 1.20703125 4 3 C4.99809078 7.39600278 4.71547164 11.63409959 2.625 15.625 C-1.53507928 17.80408915 -5.42475807 17.96087472 -10 17 C-12.83135731 15.27984057 -13.3447522 14.08979589 -15 11 C-15.37789233 8.1884811 -15.24634613 5.85761512 -15 3 C-14.34 2.67 -13.68 2.34 -13 2 C-13.33 3.98 -13.66 5.96 -14 8 C-13.34 8 -12.68 8 -12 8 C-11.67 5.69 -11.34 3.38 -11 1 C-7.35680603 -0.21439799 -3.79156675 -0.61130827 0 0 Z M-5 2 C-3.9790625 2.8353125 -3.9790625 2.8353125 -2.9375 3.6875 C-1 6 -1 6 -1.0625 8.5625 C-2.02923961 11.076023 -2.94384695 12.30143878 -5 14 C-3.02 13.67 -1.04 13.34 1 13 C2.1203061 8.17026575 2.1203061 8.17026575 0.8125 3.5625 C-1.10610269 1.56470692 -1.10610269 1.56470692 -5 2 Z M-8 6 C-7 8 -7 8 -7 8 Z M-4 6 C-4.66 7.32 -5.32 8.64 -6 10 C-5.01 9.67 -4.02 9.34 -3 9 C-3.33 8.01 -3.66 7.02 -4 6 Z " fill="#C6E2D4" transform="translate(353,151)"/>
<path d="M0 0 C0.33 0 0.66 0 1 0 C1.06058594 1.07121094 1.12117188 2.14242187 1.18359375 3.24609375 C1.26798537 4.64324391 1.35263406 6.04037857 1.4375 7.4375 C1.47681641 8.14455078 1.51613281 8.85160156 1.55664062 9.58007812 C1.47624438 13.08690419 1.47624438 13.08690419 3 16 C3.15327614 18.22545162 3.22203074 20.45695159 3.25 22.6875 C3.28867187 24.51861328 3.28867187 24.51861328 3.328125 26.38671875 C2.97094235 30.31998009 1.75745947 32.50755497 0 36 C-0.35567474 38.6879236 -0.59627541 41.18517772 -0.6875 43.875 C-0.72166016 44.56335938 -0.75582031 45.25171875 -0.79101562 45.9609375 C-0.87264091 47.64008613 -0.9380157 49.32001168 -1 51 C-0.34 51.33 0.32 51.66 1 52 C1.66 49.69 2.32 47.38 3 45 C3.66 45.33 4.32 45.66 5 46 C5.05399736 47.45792884 5.09279177 48.91642712 5.125 50.375 C5.14820313 51.18710937 5.17140625 51.99921875 5.1953125 52.8359375 C5 55 5 55 3 57 C2.67 56.34 2.34 55.68 2 55 C0.35 55.66 -1.3 56.32 -3 57 C-3.33 61.29 -3.66 65.58 -4 70 C-4.33 70 -4.66 70 -5 70 C-5 56.47 -5 42.94 -5 29 C-4.67 29 -4.34 29 -4 29 C-3.67 32.63 -3.34 36.26 -3 40 C-2.34 37.03 -1.68 34.06 -1 31 C-0.34 31 0.32 31 1 31 C1.027193 29.41676312 1.04648306 27.83338938 1.0625 26.25 C1.07990234 24.92742187 1.07990234 24.92742187 1.09765625 23.578125 C1.09677937 21.08799305 1.09677937 21.08799305 0.5 19.09570312 C-0.01376984 16.942285 -0.11439402 15.10001016 -0.09765625 12.890625 C-0.09443359 12.13652344 -0.09121094 11.38242188 -0.08789062 10.60546875 C-0.07951172 9.82816406 -0.07113281 9.05085937 -0.0625 8.25 C-0.05798828 7.45722656 -0.05347656 6.66445312 -0.04882812 5.84765625 C-0.03708565 3.89840492 -0.01915146 1.94919262 0 0 Z " fill="#DFE9DD" transform="translate(293,234)"/>
<path d="M0 0 C0.33 0 0.66 0 1 0 C1.33 4.62 1.66 9.24 2 14 C2.66 14 3.32 14 4 14 C4 15.32 4 16.64 4 18 C5.32 18 6.64 18 8 18 C8.33 15.69 8.66 13.38 9 11 C9.99 12.485 9.99 12.485 11 14 C13.58380177 14.25030977 13.58380177 14.25030977 16 14 C16 13.01 16 12.02 16 11 C14.35 11 12.7 11 11 11 C11 10.67 11 10.34 11 10 C14.465 9.505 14.465 9.505 18 9 C18 9.66 18 10.32 18 11 C18.99 11 19.98 11 21 11 C21.33 10.01 21.66 9.02 22 8 C25.0625 6.8125 25.0625 6.8125 28 6 C27.49252483 9.75531625 26.92698841 11.58035625 24 14 C21.73046875 15.02734375 21.73046875 15.02734375 19.1875 15.9375 C14.96911662 17.54245344 11.63291254 19.34177131 8 22 C5 24 5 24 1 24 C-0.68927394 20.62145213 -0.42654051 16.85487095 -0.625 13.125 C-0.6765625 12.30902344 -0.728125 11.49304688 -0.78125 10.65234375 C-0.82507813 9.86214844 -0.86890625 9.07195312 -0.9140625 8.2578125 C-0.9548291 7.5373877 -0.9955957 6.81696289 -1.03759766 6.07470703 C-0.99827498 3.90481046 -0.60558744 2.07772078 0 0 Z " fill="#996F6A" transform="translate(223,194)"/>
<path d="M0 0 C2 2 2 2 2.3125 5.9375 C2.23455132 8.46853946 2.15823157 9.72749008 0.875 11.9375 C-1.82676164 13.46849826 -3.89435505 13.8757742 -7 14 C-11.56521739 11.86956522 -11.56521739 11.86956522 -13 9 C-13.04022391 6.6670134 -13.04320247 4.33293334 -13 2 C-8.18993795 -0.40503103 -5.37635604 -1.62540997 0 0 Z M-11 3 C-11.22223194 5.74086056 -11.34781139 7.43963721 -9.875 9.8125 C-7.22464043 11.49106106 -5.06753576 11.20450238 -2 11 C-2.33 10.34 -2.66 9.68 -3 9 C-3.804375 8.896875 -4.60875 8.79375 -5.4375 8.6875 C-6.283125 8.460625 -7.12875 8.23375 -8 8 C-9.3125 5.4375 -9.3125 5.4375 -10 3 C-10.33 3 -10.66 3 -11 3 Z M-2 3 C-2 4.98 -2 6.96 -2 9 C-1.34 9 -0.68 9 0 9 C0 7.02 0 5.04 0 3 C-0.66 3 -1.32 3 -2 3 Z " fill="#B7CBC5" transform="translate(332,278)"/>
<path d="M0 0 C0.99 0 1.98 0 3 0 C3.33 0.66 3.66 1.32 4 2 C4.70125 1.649375 5.4025 1.29875 6.125 0.9375 C9.50268586 -0.1639193 11.58080593 0.20483859 15 1 C15 1.66 15 2.32 15 3 C16.26457031 3.07347656 16.26457031 3.07347656 17.5546875 3.1484375 C19.19824219 3.26058594 19.19824219 3.26058594 20.875 3.375 C21.96554687 3.44460937 23.05609375 3.51421875 24.1796875 3.5859375 C27 4 27 4 29 6 C29.51735644 10.65620796 28.68362626 13.19819614 26 17 C27.32 17.66 28.64 18.32 30 19 C27.69 19 25.38 19 23 19 C23 19.66 23 20.32 23 21 C21.35 21.33 19.7 21.66 18 22 C18.57323431 18.13066838 20.38953552 15.84777943 23 13 C23.66 13 24.32 13 25 13 C25 12.34 25 11.68 25 11 C25.66 11 26.32 11 27 11 C27 9.35 27 7.7 27 6 C20.07 5.505 20.07 5.505 13 5 C13 4.01 13 3.02 13 2 C11.35 2 9.7 2 8 2 C8 3.32 8 4.64 8 6 C2.39 5.67 -3.22 5.34 -9 5 C-9 4.67 -9 4.34 -9 4 C-7.6078125 3.8453125 -7.6078125 3.8453125 -6.1875 3.6875 C-2.83847362 2.96516098 -2.1969635 2.40619812 0 0 Z " fill="#9AB2AD" transform="translate(244,179)"/>
<path d="M0 0 C0.886875 0.515625 1.77375 1.03125 2.6875 1.5625 C6.47837617 3.20759721 7.13370404 2.79973312 11 2 C13.3775477 2.05930391 15.75401732 2.18874446 18.125 2.375 C19.34445313 2.46523437 20.56390625 2.55546875 21.8203125 2.6484375 C25 3 25 3 28 4 C28 2.68 28 1.36 28 0 C29.65 0 31.3 0 33 0 C33 0.99 33 1.98 33 3 C36.63 3 40.26 3 44 3 C44 3.33 44 3.66 44 4 C41.04239121 4.36148552 38.08419774 4.71449116 35.125 5.0625 C34.28324219 5.16626953 33.44148438 5.27003906 32.57421875 5.37695312 C31.36572266 5.51713867 31.36572266 5.51713867 30.1328125 5.66015625 C29.38918457 5.74918213 28.64555664 5.83820801 27.87939453 5.92993164 C26 6 26 6 24 5 C21.2326581 4.79566041 18.52026719 4.67621502 15.75 4.625 C14.99847656 4.58761719 14.24695313 4.55023438 13.47265625 4.51171875 C9.55088804 4.4501203 6.78476893 4.70725449 3.578125 7.0859375 C-1.51433667 12.84196236 -1.27761471 19.15308241 -1.125 26.4375 C-1.11146484 27.67790039 -1.11146484 27.67790039 -1.09765625 28.94335938 C-1.07431512 30.96236708 -1.03845288 32.98122356 -1 35 C-1.495 33.515 -1.495 33.515 -2 32 C-2.66 32 -3.32 32 -4 32 C-4.30703026 23.3690383 -4.30166992 16.07855406 -1 8 C-0.31617249 5.14035769 0 2.9434464 0 0 Z " fill="#90A99C" transform="translate(224,181)"/>
<path d="M0 0 C5.94 0.33 11.88 0.66 18 1 C18.33 3.31 18.66 5.62 19 8 C14.49009758 10.25495121 10.94269981 10.2430836 6 10 C5.34 9.67 4.68 9.34 4 9 C4 8.34 4 7.68 4 7 C3.34 7 2.68 7 2 7 C2 5.02 2 3.04 2 1 C1.34 0.67 0.68 0.34 0 0 Z " fill="#EDC7B6" transform="translate(267,426)"/>
<path d="M0 0 C0.90609278 2.45081721 1.20886325 3.54322515 0.1015625 5.96484375 C-4.622254 12.27576262 -9.81431145 16.04536928 -17.5625 17.8125 C-18.366875 17.874375 -19.17125 17.93625 -20 18 C-20 18.66 -20 19.32 -20 20 C-25.96403511 21.83508773 -29.75182088 19.71739052 -35 17 C-35 16.67 -35 16.34 -35 16 C-32.69 16 -30.38 16 -28 16 C-28 15.34 -28 14.68 -28 14 C-27.20335937 14.01160156 -26.40671875 14.02320313 -25.5859375 14.03515625 C-17.74521011 14.11851557 -17.74521011 14.11851557 -10 13 C-10 12.34 -10 11.68 -10 11 C-9.34 11 -8.68 11 -8 11 C-8 10.34 -8 9.68 -8 9 C-7.34 9 -6.68 9 -6 9 C-5.67 8.01 -5.34 7.02 -5 6 C-4.01 5.34 -3.02 4.68 -2 4 C-0.80767387 1.94996045 -0.80767387 1.94996045 0 0 Z " fill="#97A7A5" transform="translate(278,218)"/>
<path d="M0 0 C2.64 0 5.28 0 8 0 C8 0.33 8 0.66 8 1 C6.35 1.33 4.7 1.66 3 2 C3.804375 2.4125 4.60875 2.825 5.4375 3.25 C8 5 8 5 8.6328125 6.84375 C9.45500269 11.6719307 10.1642463 15.94644603 7.66015625 20.36328125 C6.17941504 22.32482785 4.65913067 24.18779477 3 26 C2.67 25.34 2.34 24.68 2 24 C2.639375 23.175 3.27875 22.35 3.9375 21.5 C6.46413081 17.76808594 6.69360228 14.44276697 7 10 C5.68 9.34 4.36 8.68 3 8 C3.33 7.34 3.66 6.68 4 6 C3.00419922 6.28617188 3.00419922 6.28617188 1.98828125 6.578125 C-0.70837525 7.25524167 -3.2242635 7.80506278 -6 8 C-9.125 6.125 -9.125 6.125 -11 4 C-9.02 3.01 -7.04 2.02 -5 1 C-5 1.66 -5 2.32 -5 3 C-3.35 2.67 -1.7 2.34 0 2 C0 1.34 0 0.68 0 0 Z " fill="#AE91A1" transform="translate(267,198)"/>
<path d="M0 0 C1.65 0 3.3 0 5 0 C5 0.66 5 1.32 5 2 C11.435 1.505 11.435 1.505 18 1 C18 7 18 7 16.4375 8.875 C12.18679467 10.836864 8.42744269 10.48593794 4.0625 9 C3.381875 8.67 2.70125 8.34 2 8 C2.04125 7.05125 2.0825 6.1025 2.125 5.125 C2.34973818 1.89755144 2.34973818 1.89755144 0 0 Z " fill="#F1BEA4" transform="translate(219,426)"/>
<path d="M0 0 C5.01399944 0.62674993 10.00336053 1.27132341 15 2 C15 2.33 15 2.66 15 3 C13.02 3 11.04 3 9 3 C8.9175 3.86625 8.835 4.7325 8.75 5.625 C7.87646688 9.55589903 6.49803636 11.85961143 4 15 C2.02 15.99 2.02 15.99 0 17 C0 11.39 0 5.78 0 0 Z " fill="#B7B7AD" transform="translate(214,259)"/>
<path d="M0 0 C1.32 0.33 2.64 0.66 4 1 C4.33 2.32 4.66 3.64 5 5 C4.34 5 3.68 5 3 5 C2.835 6.155 2.67 7.31 2.5 8.5 C1.41799547 13.40404931 -0.58198877 17.65984696 -2.8125 22.125 C-3.14378906 22.79337891 -3.47507813 23.46175781 -3.81640625 24.15039062 C-10.06984066 36.35661355 -10.06984066 36.35661355 -15 38 C-14.47004789 33.6434819 -12.97353506 31.33167997 -10.25 27.9375 C-4.76438806 20.6496134 -1.27105423 13.05793382 0 4 C-0.66 3.67 -1.32 3.34 -2 3 C-1.34 2.01 -0.68 1.02 0 0 Z " fill="#A9BAB5" transform="translate(184,88)"/>
<path d="M0 0 C-2.62198774 2.15377564 -4.64404172 3.40072174 -8 4 C-8.6878236 6.35367713 -8.6878236 6.35367713 -9 9 C-8.01 10.485 -8.01 10.485 -7 12 C-5.68 12 -4.36 12 -3 12 C-2.67 10.68 -2.34 9.36 -2 8 C-2.66 8 -3.32 8 -4 8 C-4 8.99 -4 9.98 -4 11 C-4.99 11 -5.98 11 -7 11 C-6.67 9.35 -6.34 7.7 -6 6 C-2.25 4.875 -2.25 4.875 0 6 C0.875 8.8125 0.875 8.8125 1 12 C-0.5625 14.4375 -0.5625 14.4375 -3 16 C-6.47744465 16 -8.26240749 15.61862598 -10.9375 13.375 C-12.50171684 9.87851531 -11.9785177 7.65313273 -11 4 C-7.98572518 -0.52141224 -5.19683336 -0.39975641 0 0 Z " fill="#B6C9C2" transform="translate(178,289)"/>
<path d="M0 0 C1.32 0.66 2.64 1.32 4 2 C2.75889305 12.95094364 1.41607562 23.1994822 -4 33 C-4.99 33 -5.98 33 -7 33 C-6.00647893 29.99706019 -5.00125125 27.00347518 -3.9296875 24.02734375 C-1.51828714 16.96283381 -0.62672554 10.94749864 -0.95703125 3.484375 C-0.97121094 2.66453125 -0.98539062 1.8446875 -1 1 C-0.67 0.67 -0.34 0.34 0 0 Z " fill="#B0C3BA" transform="translate(335,90)"/>
<path d="M0 0 C5.59550963 5.59550963 4.43130545 16.15574824 4.625 23.5 C4.66367187 24.70398438 4.70234375 25.90796875 4.7421875 27.1484375 C4.83585016 30.09881119 4.92157524 33.04918856 5 36 C2.446213 33.446213 2.60486977 31.46513321 2.34375 27.97265625 C2.08195924 25.68567639 2.08195924 25.68567639 0 23 C-0.22705078 20.5480957 -0.22705078 20.5480957 -0.1953125 17.67578125 C-0.18886719 16.64775391 -0.18242187 15.61972656 -0.17578125 14.56054688 C-0.15064453 12.95276367 -0.15064453 12.95276367 -0.125 11.3125 C-0.11597656 10.22904297 -0.10695313 9.14558594 -0.09765625 8.02929688 C-0.0740734 5.3526429 -0.04116126 2.67643203 0 0 Z " fill="#F0F1E4" transform="translate(288,198)"/>
<path d="M0 0 C0 3 0 3 -1.5625 4.875 C-3.29950314 6.92611863 -3.29950314 6.92611863 -2.625 9.5 C-2.41875 10.325 -2.2125 11.15 -2 12 C-2.25 14.25 -2.25 14.25 -3 16 C-6 17 -6 17 -8.6875 15.9375 C-11 14 -11 14 -11.3125 10.8125 C-11.209375 9.884375 -11.10625 8.95625 -11 8 C-10.01 7.67 -9.02 7.34 -8 7 C-7.360625 6.195625 -6.72125 5.39125 -6.0625 4.5625 C-4.08608065 2.10694869 -2.87535256 1.12960279 0 0 Z " fill="#8EB3A9" transform="translate(237,211)"/>
<path d="M0 0 C7.32026144 -0.36601307 7.32026144 -0.36601307 10.234375 1.203125 C12 3 12 3 12.53125 5.33984375 C12.44854071 12.21505376 12.44854071 12.21505376 10.5 15.625 C6.85379595 17.63041222 4.12814187 17.27520946 0 17 C1.32 16.67 2.64 16.34 4 16 C4 15.34 4 14.68 4 14 C5.65 13.67 7.3 13.34 9 13 C9.29562367 7.67829506 9.29562367 7.67829506 7 3 C2.545 3.495 2.545 3.495 -2 4 C-1.34 2.68 -0.68 1.36 0 0 Z " fill="#C2CEC8" transform="translate(345,151)"/>
<path d="M0 0 C0.33 0 0.66 0 1 0 C1.20086443 3.71599191 1.1519437 4.77208445 -1 8 C-1.66 8 -2.32 8 -3 8 C-3 8.66 -3 9.32 -3 10 C-3.66 10 -4.32 10 -5 10 C-5 10.66 -5 11.32 -5 12 C-10.39460953 14.27141454 -15.26157749 14.20413361 -21 14 C-21 13.34 -21 12.68 -21 12 C-20.32453125 11.86722656 -19.6490625 11.73445312 -18.953125 11.59765625 C-17.61507812 11.33275391 -17.61507812 11.33275391 -16.25 11.0625 C-15.36828125 10.88847656 -14.4865625 10.71445313 -13.578125 10.53515625 C-11.36764947 10.07631512 -9.18487932 9.56663926 -7 9 C-7 8.34 -7 7.68 -7 7 C-5.37660195 5.29115995 -3.70680947 3.62553283 -2 2 C-1.34 1.34 -0.68 0.68 0 0 Z " fill="#A48690" transform="translate(273,219)"/>
<path d="M0 0 C0.33 0.99 0.66 1.98 1 3 C1.99 2.01 2.98 1.02 4 0 C4.125 2.375 4.125 2.375 4 5 C1.37548383 7.62451617 -0.4877828 7.5832868 -4.125 8.125 C-5.22070312 8.29257813 -6.31640625 8.46015625 -7.4453125 8.6328125 C-8.70988281 8.81457031 -8.70988281 8.81457031 -10 9 C-10.33 7.68 -10.66 6.36 -11 5 C-7.71379848 2.80919899 -4.78119262 2.05033128 -1 1 C-0.67 0.67 -0.34 0.34 0 0 Z " fill="#D8B0B5" transform="translate(259,219)"/>
<path d="M0 0 C1.32 0.33 2.64 0.66 4 1 C4.04898437 1.71027344 4.09796875 2.42054688 4.1484375 3.15234375 C4.22320312 4.07144531 4.29796875 4.99054688 4.375 5.9375 C4.44460938 6.85402344 4.51421875 7.77054687 4.5859375 8.71484375 C4.72257812 9.46894531 4.85921875 10.22304688 5 11 C5.66 11.33 6.32 11.66 7 12 C7 12.66 7 13.32 7 14 C7.66 14.33 8.32 14.66 9 15 C7.625 17 7.625 17 6 19 C5.34 19 4.68 19 4 19 C4 19.66 4 20.32 4 21 C2.68 20.67 1.36 20.34 0 20 C-0.25 14.375 -0.25 14.375 2 11 C2.24107326 8.71351152 2.24107326 8.71351152 2.125 6.3125 C2.10695313 5.50425781 2.08890625 4.69601562 2.0703125 3.86328125 C2.04710937 3.24839844 2.02390625 2.63351562 2 2 C1.34 2 0.68 2 0 2 C0 1.34 0 0.68 0 0 Z " fill="#F0C3AC" transform="translate(295,278)"/>
<path d="M0 0 C4.95 0 9.9 0 15 0 C15.33 0.99 15.66 1.98 16 3 C15.67 3.66 15.34 4.32 15 5 C14.34 5 13.68 5 13 5 C13 5.66 13 6.32 13 7 C11.38025441 8.71230248 9.7041054 10.37163262 8 12 C7.071875 12.928125 6.14375 13.85625 5.1875 14.8125 C4.465625 15.534375 3.74375 16.25625 3 17 C2.01 16.67 1.02 16.34 0 16 C0.99 15.67 1.98 15.34 3 15 C4.12516085 13.16715557 4.12516085 13.16715557 5 11 C5.66666667 9.66666667 6.33333333 8.33333333 7 7 C7.99 7 8.98 7 10 7 C10 5.68 10 4.36 10 3 C10.66 2.67 11.32 2.34 12 2 C8.04 1.67 4.08 1.34 0 1 C0 0.67 0 0.34 0 0 Z " fill="#976663" transform="translate(256,185)"/>
<path d="M0 0 C0.33 1.98 0.66 3.96 1 6 C-0.6875 7.625 -0.6875 7.625 -3 9 C-5.39263407 8.33228817 -7.22097385 7.77902615 -9 6 C-9.04063832 4.33382885 -9.042721 2.66611905 -9 1 C-5.57367167 -0.61798838 -3.61944899 -1.34053666 0 0 Z M-7 2 C-6 4 -6 4 -6 4 Z M-3 2 C-3.66 3.32 -4.32 4.64 -5 6 C-4.01 5.67 -3.02 5.34 -2 5 C-2.33 4.01 -2.66 3.02 -3 2 Z " fill="#AEC8BE" transform="translate(352,155)"/>
<path d="M0 0 C0 0.99 0 1.98 0 3 C0.31669821 5.33564933 0.64820803 7.6693782 1 10 C1.928125 10.2165625 1.928125 10.2165625 2.875 10.4375 C5 11 5 11 7 12 C11.06285675 12.31865543 14.08013247 12.14387153 17.75 10.4375 C21 9 21 9 24 10 C19.18413652 14.28076754 15.20386946 14.55645555 8.84375 14.3203125 C3.76219032 13.74793902 1.05822555 12.14176967 -2.375 8.4375 C-4 6 -4 6 -4 4 C-5.98 4 -7.96 4 -10 4 C-10 3.67 -10 3.34 -10 3 C-8.72125 2.87625 -7.4425 2.7525 -6.125 2.625 C-2.65209064 2.30957601 -2.65209064 2.30957601 0 0 Z " fill="#DCBFA8" transform="translate(239,128)"/>
<path d="M0 0 C0.66 0.33 1.32 0.66 2 1 C2 5.95 2 10.9 2 16 C1.34 16 0.68 16 0 16 C-0.12117188 16.63808594 -0.24234375 17.27617188 -0.3671875 17.93359375 C-0.53476562 18.75988281 -0.70234375 19.58617188 -0.875 20.4375 C-1.03742188 21.26121094 -1.19984375 22.08492187 -1.3671875 22.93359375 C-1.57601563 23.61550781 -1.78484375 24.29742187 -2 25 C-2.66 25.33 -3.32 25.66 -4 26 C-4 21.71 -4 17.42 -4 13 C-3.01 13 -2.02 13 -1 13 C-0.67 8.71 -0.34 4.42 0 0 Z " fill="#6A6966" transform="translate(271,75)"/>
<path d="M0 0 C0.99 0.33 1.98 0.66 3 1 C4.56532871 8.43531135 4.99019294 15.89829177 2 23 C1.01 23 0.02 23 -1 23 C-0.4740625 21.329375 -0.4740625 21.329375 0.0625 19.625 C1.49001817 13.97524498 0.91017418 8.35883632 -0.60546875 2.765625 C-0.73566406 2.18296875 -0.86585938 1.6003125 -1 1 C-0.67 0.67 -0.34 0.34 0 0 Z " fill="#A6B7B2" transform="translate(341,252)"/>
<path d="M0 0 C1.32 0.33 2.64 0.66 4 1 C6.31290989 11.34614155 6.1982842 21.46890579 6 32 C5.67 32 5.34 32 5 32 C4.95101563 30.7934375 4.90203125 29.586875 4.8515625 28.34375 C4.77646468 26.72914694 4.70091997 25.11456461 4.625 23.5 C4.5940625 22.70851562 4.563125 21.91703125 4.53125 21.1015625 C4.27143777 15.81871388 3.43666294 11.09256131 2 6 C1.67 10.29 1.34 14.58 1 19 C0.67 19 0.34 19 0 19 C0 12.73 0 6.46 0 0 Z " fill="#D9C9B7" transform="translate(287,194)"/>
<path d="M0 0 C3.375 0.5625 3.375 0.5625 6.375 3.5625 C3.405 3.2325 0.435 2.9025 -2.625 2.5625 C-2.955 3.5525 -3.285 4.5425 -3.625 5.5625 C-4.285 5.5625 -4.945 5.5625 -5.625 5.5625 C-5.295 8.5325 -4.965 11.5025 -4.625 14.5625 C-5.945 14.5625 -7.265 14.5625 -8.625 14.5625 C-9.29464286 6.79464286 -9.29464286 6.79464286 -6.5625 3.0625 C-3.625 0.5625 -3.625 0.5625 0 0 Z " fill="#ECB99C" transform="translate(242.625,80.4375)"/>
<path d="M0 0 C1.65 0 3.3 0 5 0 C5 0.99 5 1.98 5 3 C8.63 3 12.26 3 16 3 C16 3.33 16 3.66 16 4 C13.04239121 4.36148552 10.08419774 4.71449116 7.125 5.0625 C6.28324219 5.16626953 5.44148438 5.27003906 4.57421875 5.37695312 C3.36572266 5.51713867 3.36572266 5.51713867 2.1328125 5.66015625 C1.38918457 5.74918213 0.64555664 5.83820801 -0.12060547 5.92993164 C-2 6 -2 6 -4 5 C-6.71262116 4.7677354 -9.40773126 4.58063765 -12.125 4.4375 C-12.87910156 4.39431641 -13.63320312 4.35113281 -14.41015625 4.30664062 C-16.27321888 4.2005168 -18.13658524 4.09974999 -20 4 C-20 3.67 -20 3.34 -20 3 C-17.2291017 2.97303991 -14.4584655 2.95318048 -11.6875 2.9375 C-10.90181641 2.92912109 -10.11613281 2.92074219 -9.30664062 2.91210938 C-8.54931641 2.90888672 -7.79199219 2.90566406 -7.01171875 2.90234375 C-6.31522217 2.89710693 -5.61872559 2.89187012 -4.90112305 2.88647461 C-3 3 -3 3 0 4 C0 2.68 0 1.36 0 0 Z " fill="#A69595" transform="translate(252,181)"/>
<path d="M0 0 C0.66 0 1.32 0 2 0 C1.50211649 5.03164089 -0.04514096 8.15063771 -2.875 12.3125 C-3.57367188 13.36050781 -4.27234375 14.40851563 -4.9921875 15.48828125 C-7 18 -7 18 -10 19 C-9.47482718 14.48679604 -7.74971914 11.93981446 -5 8.375 C-1.97227849 4.47062775 -1.97227849 4.47062775 0 0 Z " fill="#B4C3BE" transform="translate(179,107)"/>
<path d="M0 0 C4.89839668 -0.34884724 7.65895937 0.53207378 11.875 3 C12.84179688 3.556875 13.80859375 4.11375 14.8046875 4.6875 C15.52914062 5.120625 16.25359375 5.55375 17 6 C16.67 6.66 16.34 7.32 16 8 C10.72 6.68 5.44 5.36 0 4 C0 2.68 0 1.36 0 0 Z " fill="#E9B59E" transform="translate(186,186)"/>
<path d="M0 0 C0.99 0.66 1.98 1.32 3 2 C2.67 4.97 2.34 7.94 2 11 C2.99 11.33 3.98 11.66 5 12 C4.01 12.33 3.02 12.66 2 13 C-0.2636564 11.59554165 -2.0208685 9.8032087 -4 8 C-3.50168276 4.31245243 -2.89932357 2.39509338 0 0 Z " fill="#6D9684" transform="translate(188,173)"/>
<path d="M0 0 C1.32 0.33 2.64 0.66 4 1 C4 1.66 4 2.32 4 3 C9.27315333 2.5547115 14.01770224 1.91626837 19 0 C18 3 18 3 15.5 4.75 C10.10376113 6.67722817 5.35787462 5.78595821 0 4 C0 2.68 0 1.36 0 0 Z " fill="#EAA98E" transform="translate(241,119)"/>
<path d="M0 0 C1.8125 0.05078125 1.8125 0.05078125 4 0.3125 C4.721875 0.39113281 5.44375 0.46976562 6.1875 0.55078125 C7.0846875 0.77314453 7.0846875 0.77314453 8 1 C8.33 1.66 8.66 2.32 9 3 C8.34 3 7.68 3 7 3 C7 3.99 7 4.98 7 6 C4.69 6 2.38 6 0 6 C-0.33 6.66 -0.66 7.32 -1 8 C-1.66 7.34 -2.32 6.68 -3 6 C-1.125 1.125 -1.125 1.125 0 0 Z " fill="#F5BDA0" transform="translate(274,428)"/>
<path d="M0 0 C-0.33 1.65 -0.66 3.3 -1 5 C0.32 5.66 1.64 6.32 3 7 C0.69 7 -1.62 7 -4 7 C-4 7.66 -4 8.32 -4 9 C-5.65 9.33 -7.3 9.66 -9 10 C-8.42562214 6.12294944 -6.57271945 3.88456423 -4 1 C-2 0 -2 0 0 0 Z " fill="#A9AFAE" transform="translate(271,191)"/>
<path d="M0 0 C0.66 0 1.32 0 2 0 C2 0.66 2 1.32 2 2 C3.32 1.67 4.64 1.34 6 1 C6 1.66 6 2.32 6 3 C5.01 3 4.02 3 3 3 C3 5.64 3 8.28 3 11 C-4.38461538 11.49230769 -4.38461538 11.49230769 -7.5 9 C-7.995 8.34 -8.49 7.68 -9 7 C-5.80097361 6.91113816 -3.07322544 7.08941469 0 8 C0 5.36 0 2.72 0 0 Z " fill="#9DABA1" transform="translate(234,219)"/>
<path d="M0 0 C0.89203125 0.01804688 1.7840625 0.03609375 2.703125 0.0546875 C3.71632812 0.08949219 3.71632812 0.08949219 4.75 0.125 C3.76 0.455 2.77 0.785 1.75 1.125 C1.75 2.115 1.75 3.105 1.75 4.125 C0.8425 3.939375 -0.065 3.75375 -1 3.5625 C-3.93314324 3.16765379 -5.5144657 3.17808428 -8.25 4.125 C-8.25 5.775 -8.25 7.425 -8.25 9.125 C-9.24 9.455 -10.23 9.785 -11.25 10.125 C-11.58 8.805 -11.91 7.485 -12.25 6.125 C-11.59 6.125 -10.93 6.125 -10.25 6.125 C-10.1675 5.50625 -10.085 4.8875 -10 4.25 C-9.25 2.125 -9.25 2.125 -7.53125 1 C-4.86432638 -0.02292961 -2.84677987 -0.07491526 0 0 Z " fill="#BF7B76" transform="translate(238.25,185.875)"/>
<path d="M0 0 C0.66 0 1.32 0 2 0 C2 1.32 2 2.64 2 4 C3.32 4.33 4.64 4.66 6 5 C5.67 5.66 5.34 6.32 5 7 C4.01 7 3.02 7 2 7 C2 8.32 2 9.64 2 11 C1.01 10.67 0.02 10.34 -1 10 C-1 9.01 -1 8.02 -1 7 C-1.99 7 -2.98 7 -4 7 C-3.67 6.01 -3.34 5.02 -3 4 C-2.34 4 -1.68 4 -1 4 C-0.67 2.68 -0.34 1.36 0 0 Z " fill="#BFD5CD" transform="translate(310,88)"/>
<path d="M0 0 C1.65 0 3.3 0 5 0 C5 0.66 5 1.32 5 2 C11.435 1.505 11.435 1.505 18 1 C18 2.98 18 4.96 18 7 C17.01 6.67 16.02 6.34 15 6 C14.67 5.34 14.34 4.68 14 4 C11.36 4 8.72 4 6 4 C5.67 5.32 5.34 6.64 5 8 C4.01 7.67 3.02 7.34 2 7 C2.04125 6.21625 2.0825 5.4325 2.125 4.625 C2.28728734 1.83883881 2.28728734 1.83883881 0 0 Z " fill="#EAC8B7" transform="translate(219,426)"/>
<path d="M0 0 C0.66 0 1.32 0 2 0 C1.773125 1.19625 1.54625 2.3925 1.3125 3.625 C0.77408131 7.9095994 1.61149134 10.33193312 4 14 C5.56102491 15.81554159 5.56102491 15.81554159 7 17 C6.01 17.33 5.02 17.66 4 18 C0.68664685 15.28135126 -1.2943618 13.24471214 -1.9375 9 C-2.18530858 5.556765 -1.64083297 3.08862677 0 0 Z " fill="#AEBDB5" transform="translate(163,291)"/>
<path d="M0 0 C0.33 0 0.66 0 1 0 C1.26487071 3.09015825 1.22498372 4.63806967 -0.4375 7.3125 C-2.53609582 10.92208481 -2.6489115 13.85715572 -3 18 C-2.34 18 -1.68 18 -1 18 C-1.33 19.98 -1.66 21.96 -2 24 C-2.99 23.67 -3.98 23.34 -5 23 C-4.58997722 7.25512528 -4.58997722 7.25512528 0 0 Z " fill="#E8C5B0" transform="translate(296,262)"/>
<path d="M0 0 C0.66 0 1.32 0 2 0 C2 1.32 2 2.64 2 4 C2.66 3.67 3.32 3.34 4 3 C5.99960012 2.960008 8.00047242 2.95653201 10 3 C9.01 3.495 9.01 3.495 8 4 C8 4.66 8 5.32 8 6 C2.03596489 7.83508773 -1.75182088 5.71739052 -7 3 C-7 2.67 -7 2.34 -7 2 C-4.69 2 -2.38 2 0 2 C0 1.34 0 0.68 0 0 Z " fill="#91AE9E" transform="translate(250,232)"/>
<path d="M0 0 C1.75 1.0625 1.75 1.0625 3 3 C3.64974619 8.11675127 3.64974619 8.11675127 3 11 C0.5 13.5 0.5 13.5 -2 15 C-0.125 11.125 -0.125 11.125 1 10 C1.04080783 8.00041636 1.04254356 5.99954746 1 4 C-1.65728125 2.26254687 -2.89600355 1.99168028 -6.125 2.25 C-9.10597798 2.76883165 -9.10597798 2.76883165 -11 5 C-13.125 4.625 -13.125 4.625 -15 4 C-5.20925926 -2.33518519 -5.20925926 -2.33518519 0 0 Z " fill="#C4C1C3" transform="translate(259,204)"/>
<path d="M0 0 C2.97 0.495 2.97 0.495 6 1 C6 1.66 6 2.32 6 3 C6.84304688 3.04898438 7.68609375 3.09796875 8.5546875 3.1484375 C10.19824219 3.26058594 10.19824219 3.26058594 11.875 3.375 C12.96554687 3.44460937 14.05609375 3.51421875 15.1796875 3.5859375 C18 4 18 4 20 6 C20.125 9.125 20.125 9.125 20 12 C19.01 12.495 19.01 12.495 18 13 C17.34 12.34 16.68 11.68 16 11 C16.66 11 17.32 11 18 11 C18 9.35 18 7.7 18 6 C11.07 5.505 11.07 5.505 4 5 C4 4.01 4 3.02 4 2 C2.68 2 1.36 2 0 2 C0 1.34 0 0.68 0 0 Z " fill="#95ADA6" transform="translate(253,179)"/>
<path d="M0 0 C0.99 0 1.98 0 3 0 C1.91574242 3.79490154 0.23944554 6.50922148 -2.87109375 8.99609375 C-7.52225337 11.18939287 -12.9386204 10.91739588 -18 11 C-18 10.67 -18 10.34 -18 10 C-17.32453125 9.89042969 -16.6490625 9.78085938 -15.953125 9.66796875 C-15.06109375 9.50941406 -14.1690625 9.35085937 -13.25 9.1875 C-12.36828125 9.03667969 -11.4865625 8.88585937 -10.578125 8.73046875 C-7.79999644 7.94333232 -6.23869646 6.77635698 -4 5 C-3.34 5 -2.68 5 -2 5 C-1.34 3.35 -0.68 1.7 0 0 Z " fill="#739880" transform="translate(265,133)"/>
<path d="M0 0 C2.42369218 4.33919085 2.95711539 8.11073553 2 13 C0.31162037 15.9693886 -1.69722379 18.48476527 -4 21 C-4.33 20.34 -4.66 19.68 -5 19 C-4.360625 18.175 -3.72125 17.35 -3.0625 16.5 C-0.53586919 12.76808594 -0.30639772 9.44276697 0 5 C-1.32 4.34 -2.64 3.68 -4 3 C-3.34 2.34 -2.68 1.68 -2 1 C-1.34 1.33 -0.68 1.66 0 2 C0 1.34 0 0.68 0 0 Z " fill="#BD97AA" transform="translate(274,203)"/>
<path d="M0 0 C1.65 0 3.3 0 5 0 C5.309375 0.804375 5.61875 1.60875 5.9375 2.4375 C6.76335345 4.89080405 6.76335345 4.89080405 8 6 C8.41199125 11.2528884 7.65673037 14.46141895 5 19 C3.63990278 16.27980556 4.04931833 14.21629284 4.1875 11.1875 C4.24316167 6.97239382 4.25592285 5.41587464 2 1.75 C1.34 1.1725 0.68 0.595 0 0 Z " fill="#97A9A8" transform="translate(275,199)"/>
<path d="M0 0 C0.33 0 0.66 0 1 0 C1.33 2.64 1.66 5.28 2 8 C1.67 8 1.34 8 1 8 C0.67 14.6 0.34 21.2 0 28 C-0.33 28 -0.66 28 -1 28 C-1.6466598 19.98603754 -2.16677223 12.04212755 -2 4 C-1.34 4 -0.68 4 0 4 C0 2.68 0 1.36 0 0 Z " fill="#E6E8D6" transform="translate(309,184)"/>
<path d="M0 0 C-0.33 1.65 -0.66 3.3 -1 5 C-3.375 5.625 -3.375 5.625 -6 6 C-6.66 5.34 -7.32 4.68 -8 4 C-8 3.01 -8 2.02 -8 1 C-4.93251126 -0.86240388 -3.40254489 -1.2151946 0 0 Z " fill="#B0C8BF" transform="translate(331,282)"/>
<path d="M0 0 C0.99 0.33 1.98 0.66 3 1 C2.01 1.33 1.02 1.66 0 2 C0 2.66 0 3.32 0 4 C-3.34939881 6.02558881 -5.86962551 6.21738987 -9.75 6.125 C-10.73484375 6.10695312 -11.7196875 6.08890625 -12.734375 6.0703125 C-13.85585937 6.03550781 -13.85585937 6.03550781 -15 6 C-15 5.01 -15 4.02 -15 3 C-12.36 2.67 -9.72 2.34 -7 2 C-7.33 2.66 -7.66 3.32 -8 4 C-4.31245243 3.50168276 -2.39509338 2.89932357 0 0 Z " fill="#C69FA8" transform="translate(266,224)"/>
<path d="M0 0 C1.98 0.495 1.98 0.495 4 1 C4 4.96 4 8.92 4 13 C0.65701008 11.32850504 0.18881264 8.39660753 -1 5 C-0.6875 2.0625 -0.6875 2.0625 0 0 Z " fill="#5D524D" transform="translate(230,88)"/>
<path d="M0 0 C1.485 0.99 1.485 0.99 3 2 C3.328125 4.64453125 3.328125 4.64453125 3.25 7.8125 C3.23453125 8.85019531 3.2190625 9.88789063 3.203125 10.95703125 C3.01807563 13.72921322 2.61981519 16.29580632 2 19 C1.67 19 1.34 19 1 19 C0.15976812 14.64667264 -0.10770995 10.55557481 -0.0625 6.125 C-0.05347656 4.97257813 -0.04445313 3.82015625 -0.03515625 2.6328125 C-0.02355469 1.76398438 -0.01195312 0.89515625 0 0 Z " fill="#D0EADC" transform="translate(288,221)"/>
<path d="M0 0 C-0.36512747 2.7019433 -0.69869237 4.58390852 -2.3125 6.8125 C-4 8 -4 8 -8 8 C-7.8125 5.6875 -7.8125 5.6875 -7 3 C-2.96551724 0 -2.96551724 0 0 0 Z " fill="#895B5B" transform="translate(251,200)"/>
<path d="M0 0 C0.66 0.66 1.32 1.32 2 2 C0.81921875 1.98839844 -0.3615625 1.97679687 -1.578125 1.96484375 C-3.13541508 1.95546248 -4.69270688 1.94636264 -6.25 1.9375 C-7.02730469 1.92912109 -7.80460937 1.92074219 -8.60546875 1.91210938 C-9.35957031 1.90888672 -10.11367187 1.90566406 -10.890625 1.90234375 C-11.58188477 1.89710693 -12.27314453 1.89187012 -12.98535156 1.88647461 C-15.09973898 2.00562029 -16.96641515 2.42381763 -19 3 C-19.33 4.32 -19.66 5.64 -20 7 C-21.32 6.67 -22.64 6.34 -24 6 C-17.5921005 -1.88664553 -9.43170717 -1.04461932 0 0 Z " fill="#A07772" transform="translate(248,185)"/>
<path d="M0 0 C0.66 0.33 1.32 0.66 2 1 C2.05399736 2.45792884 2.09279177 3.91642712 2.125 5.375 C2.14820313 6.18710937 2.17140625 6.99921875 2.1953125 7.8359375 C2 10 2 10 0 12 C0 11.01 0 10.02 0 9 C-1.65 8.67 -3.3 8.34 -5 8 C-4.67 7.34 -4.34 6.68 -4 6 C-3.34 6.33 -2.68 6.66 -2 7 C-1.34 4.69 -0.68 2.38 0 0 Z " fill="#E5EAD7" transform="translate(296,279)"/>
<path d="M0 0 C0.66 0 1.32 0 2 0 C1.24029922 3.35867712 0.12906745 6.52123658 -1.0625 9.75 C-1.42472656 10.73484375 -1.78695312 11.7196875 -2.16015625 12.734375 C-2.57587891 13.85585937 -2.57587891 13.85585937 -3 15 C-3.66 15 -4.32 15 -5 15 C-4.72706899 8.8590522 -4.02720165 4.75942013 0 0 Z " fill="#B5C2BB" transform="translate(166,90)"/>
<path d="M0 0 C1.65 0 3.3 0 5 0 C2.32983654 3.40104762 -0.80504825 4.06460634 -4.875 5.1875 C-6.08929688 5.53167969 -7.30359375 5.87585938 -8.5546875 6.23046875 C-11.53177807 6.89541982 -13.97337018 7.16686742 -17 7 C-12.41887818 2.61805739 -6.08938411 2 0 2 C0 1.34 0 0.68 0 0 Z " fill="#879A84" transform="translate(304,187)"/>
<path d="M0 0 C0.33 0 0.66 0 1 0 C1.06058594 1.07121094 1.12117188 2.14242187 1.18359375 3.24609375 C1.26798537 4.64324391 1.35263406 6.04037857 1.4375 7.4375 C1.47681641 8.14455078 1.51613281 8.85160156 1.55664062 9.58007812 C1.47624438 13.08690419 1.47624438 13.08690419 3 16 C3.07271741 18.35313555 3.08370868 20.70833668 3.0625 23.0625 C3.05347656 24.35285156 3.04445313 25.64320313 3.03515625 26.97265625 C3.02355469 27.97167969 3.01195312 28.97070312 3 30 C2.67 30 2.34 30 2 30 C0.0320296 19.89658054 -0.22102569 10.2531361 0 0 Z " fill="#E8E7D2" transform="translate(293,234)"/>
<path d="M0 0 C1.125 1.75 1.125 1.75 2 4 C1.23859476 6.58877782 0.40426918 7.69679811 -1.75 9.3125 C-4.80331554 10.24545753 -6.94528127 9.81459166 -10 9 C-10.33 8.34 -10.66 7.68 -11 7 C-8.03 7 -5.06 7 -2 7 C-2 6.34 -2 5.68 -2 5 C-1.34 5 -0.68 5 0 5 C0 3.35 0 1.7 0 0 Z " fill="#CCD7D3" transform="translate(332,282)"/>
<path d="M0 0 C2 3 2 3 1.57421875 5.19140625 C1.13529297 6.36509766 1.13529297 6.36509766 0.6875 7.5625 C0.40261719 8.34753906 0.11773437 9.13257812 -0.17578125 9.94140625 C-1 12 -1 12 -2 14 C-2.99 14 -3.98 14 -5 14 C-3.46527032 9.27775484 -1.76054874 4.64144669 0 0 Z " fill="#C4CDCA" transform="translate(333,109)"/>
<path d="M0 0 C0.33 0 0.66 0 1 0 C1.36625971 4.51720311 1.36625971 4.51720311 -0.375 6.8125 C-2 8 -2 8 -4 8 C-4.28875 9.134375 -4.5775 10.26875 -4.875 11.4375 C-5.24625 12.613125 -5.6175 13.78875 -6 15 C-6.99 15.495 -6.99 15.495 -8 16 C-6.67993255 7.87116358 -6.67993255 7.87116358 -4 4.4375 C-2 3 -2 3 0 3 C0 2.01 0 1.02 0 0 Z " fill="#ECCBB4" transform="translate(271,99)"/>
<path d="M0 0 C0.99 0 1.98 0 3 0 C4.05699482 5.28497409 4.05699482 5.28497409 4 8 C2.0625 10.5 2.0625 10.5 0 12 C-0.66 11.67 -1.32 11.34 -2 11 C-1.67 10.67 -1.34 10.34 -1 10 C-0.76712992 8.31816052 -0.58735834 6.6287584 -0.4375 4.9375 C-0.35371094 4.01839844 -0.26992188 3.09929687 -0.18359375 2.15234375 C-0.12300781 1.44207031 -0.06242187 0.73179687 0 0 Z " fill="#D3EDE2" transform="translate(290,246)"/>
<path d="M0 0 C0.66 0.33 1.32 0.66 2 1 C2 4.96 2 8.92 2 13 C1.67 13 1.34 13 1 13 C1 10.03 1 7.06 1 4 C0.071875 4.20625 -0.85625 4.4125 -1.8125 4.625 C-5 5 -5 5 -8 3 C-6.865625 2.690625 -5.73125 2.38125 -4.5625 2.0625 C-1.21224901 1.37075469 -1.21224901 1.37075469 0 0 Z " fill="#726863" transform="translate(236,433)"/>
<path d="M0 0 C0.33 0.99 0.66 1.98 1 3 C-2.22791555 5.1519437 -3.28400809 5.20086443 -7 5 C-7 5.66 -7 6.32 -7 7 C-8.32 6.67 -9.64 6.34 -11 6 C-10.34 5.67 -9.68 5.34 -9 5 C-9.66 4.34 -10.32 3.68 -11 3 C-10.2575 2.855625 -9.515 2.71125 -8.75 2.5625 C-6.07834232 2.05253619 -6.07834232 2.05253619 -3.8125 1.375 C-2 1 -2 1 0 2 C0 1.34 0 0.68 0 0 Z " fill="#CBB69E" transform="translate(257,244)"/>
<path d="M0 0 C0.99 0.33 1.98 0.66 3 1 C3 4.63 3 8.26 3 12 C2.01 12.495 2.01 12.495 1 13 C-0.00496852 9.98509443 -0.10335303 7.95818308 -0.0625 4.8125 C-0.05347656 3.91144531 -0.04445313 3.01039063 -0.03515625 2.08203125 C-0.02355469 1.39496094 -0.01195312 0.70789063 0 0 Z " fill="#E3F8EB" transform="translate(288,211)"/>
<path d="M0 0 C0.66 0 1.32 0 2 0 C5.6309439 4.04989896 5.35610286 8.32584748 5.3984375 13.4765625 C4.94459771 16.35088119 4.24688791 17.22864392 2 19 C1.34 18.67 0.68 18.34 0 18 C0.99 16.515 0.99 16.515 2 15 C2.66 15 3.32 15 4 15 C3.91291331 13.54054712 3.80473093 12.08234132 3.6875 10.625 C3.62949219 9.81289062 3.57148438 9.00078125 3.51171875 8.1640625 C3.17009472 5.62078662 3.17009472 5.62078662 0 4 C0 2.68 0 1.36 0 0 Z " fill="#EDEAD8" transform="translate(235,112)"/>
<path d="M0 0 C6.18160604 0.53753096 11.326858 2.54582388 17 5 C17 5.33 17 5.66 17 6 C10.59859065 5.53444296 5.73230171 3.85288164 0 1 C0 0.67 0 0.34 0 0 Z " fill="#D9BFA7" transform="translate(232,244)"/>
<path d="M0 0 C0.67546875 0.20496094 1.3509375 0.40992188 2.046875 0.62109375 C2.93890625 0.89050781 3.8309375 1.15992188 4.75 1.4375 C5.63171875 1.70433594 6.5134375 1.97117188 7.421875 2.24609375 C9.60565835 2.88468494 11.78835498 3.46775833 14 4 C14 3.34 14 2.68 14 2 C15.65 2 17.3 2 19 2 C18 3.5 18 3.5 16 5 C9.54323472 5.7660569 5.51939121 4.28814795 0 1 C0 0.67 0 0.34 0 0 Z " fill="#839A86" transform="translate(236,247)"/>
<path d="M0 0 C4.40114397 0.50298788 6.71195019 2.08772731 10 5 C8.54263913 5.19491452 7.08405407 5.38069358 5.625 5.5625 C4.81289062 5.66691406 4.00078125 5.77132812 3.1640625 5.87890625 C1 6 1 6 -1 5 C-1 4.34 -1 3.68 -1 3 C1.475 3.495 1.475 3.495 4 4 C4 3.34 4 2.68 4 2 C2.68 2 1.36 2 0 2 C0 1.34 0 0.68 0 0 Z " fill="#ECB899" transform="translate(243,242)"/>
<path d="M0 0 C6.52307692 0.61538462 6.52307692 0.61538462 8.9375 2.5625 C9.288125 3.036875 9.63875 3.51125 10 4 C9.01 4 8.02 4 7 4 C7 7.63 7 11.26 7 15 C6.67 15 6.34 15 6 15 C6 11.37 6 7.74 6 4 C3.525 3.01 3.525 3.01 1 2 C0.67 1.34 0.34 0.68 0 0 Z " fill="#D9D3C0" transform="translate(205,229)"/>
<path d="M0 0 C0.99 0.33 1.98 0.66 3 1 C3 2.98 3 4.96 3 7 C1.35 6.67 -0.3 6.34 -2 6 C-2 4.35 -2 2.7 -2 1 C-1.34 0.67 -0.68 0.34 0 0 Z " fill="#A3859A" transform="translate(238,223)"/>
<path d="M0 0 C1.32 0 2.64 0 4 0 C4.99 1.98 5.98 3.96 7 6 C4.69 5.67 2.38 5.34 0 5 C0 3.35 0 1.7 0 0 Z " fill="#A9B1AE" transform="translate(241,225)"/>
<path d="M0 0 C3.625 0.25 3.625 0.25 6.625 3.25 C3.655 2.92 0.685 2.59 -2.375 2.25 C-2.705 3.24 -3.035 4.23 -3.375 5.25 C-4.365 5.25 -5.355 5.25 -6.375 5.25 C-3.97723048 0.29460967 -3.97723048 0.29460967 0 0 Z " fill="#DFB6A3" transform="translate(242.375,80.75)"/>
<path d="M0 0 C0.12375 0.639375 0.2475 1.27875 0.375 1.9375 C0.58125 2.618125 0.7875 3.29875 1 4 C1.66 4.33 2.32 4.66 3 5 C-1.1205746 6.99785435 -4.45194365 7.17835515 -9 7 C-9 6.34 -9 5.68 -9 5 C-6.69 5 -4.38 5 -2 5 C-2 4.01 -2 3.02 -2 2 C-1.34 2 -0.68 2 0 2 C0 1.34 0 0.68 0 0 Z " fill="#E7C0A9" transform="translate(283,429)"/>
<path d="M0 0 C1.32 0 2.64 0 4 0 C4.75 2.75 4.75 2.75 5 6 C3.0625 8.375 3.0625 8.375 1 10 C0.34 9.67 -0.32 9.34 -1 9 C-0.01 8.67 0.98 8.34 2 8 C1.34 5.36 0.68 2.72 0 0 Z " fill="#85A490" transform="translate(256,239)"/>
<path d="M0 0 C0.66 1.32 1.32 2.64 2 4 C2.99 4.33 3.98 4.66 5 5 C4.67 6.65 4.34 8.3 4 10 C2.68 10 1.36 10 0 10 C0 6.7 0 3.4 0 0 Z " fill="#393B3A" transform="translate(229,79)"/>
<path d="M0 0 C3 3.625 3 3.625 3 7 C2.34 7 1.68 7 1 7 C1.33 8.65 1.66 10.3 2 12 C0.48046875 10.79296875 0.48046875 10.79296875 -1 9 C-1.07421875 6.73828125 -1.07421875 6.73828125 -0.6875 4.3125 C-0.56761719 3.50425781 -0.44773438 2.69601563 -0.32421875 1.86328125 C-0.21722656 1.24839844 -0.11023438 0.63351563 0 0 Z " fill="#E0C0AD" transform="translate(229,93)"/>
<path d="M0 0 C0.33 0 0.66 0 1 0 C1 2.97 1 5.94 1 9 C2.98 9 4.96 9 7 9 C5.75 10.5 5.75 10.5 4 12 C2.68 12 1.36 12 0 12 C0 8.04 0 4.08 0 0 Z " fill="#90675F" transform="translate(224,206)"/>
<path d="M0 0 C0.66 0.99 1.32 1.98 2 3 C1.01 3.7734375 1.01 3.7734375 0 4.5625 C-2.65637543 7.79995755 -2.31342132 9.92552281 -2 14 C-2.99 13.34 -3.98 12.68 -5 12 C-3.85814266 7.52040582 -2.56984833 3.85477249 0 0 Z " fill="#EDEED9" transform="translate(204,194)"/>
<path d="M0 0 C7.74468085 0.74468085 7.74468085 0.74468085 11 4 C11 4.66 11 5.32 11 6 C6.95743617 4.77782954 3.50711041 3.37245704 0 1 C0 0.67 0 0.34 0 0 Z " fill="#ECCAB3" transform="translate(189,220)"/>
<path d="M0 0 C4.95 0 9.9 0 15 0 C15.33 0.99 15.66 1.98 16 3 C15.67 3.66 15.34 4.32 15 5 C14.34 5 13.68 5 13 5 C12.67 4.01 12.34 3.02 12 2 C8.04 1.67 4.08 1.34 0 1 C0 0.67 0 0.34 0 0 Z " fill="#97726C" transform="translate(256,185)"/>
<path d="M0 0 C1.32 0.66 2.64 1.32 4 2 C2.125 6.75 2.125 6.75 1 9 C0.34 9 -0.32 9 -1 9 C-1 7.68 -1 6.36 -1 5 C-1.66 4.34 -2.32 3.68 -3 3 C-2.34 3 -1.68 3 -1 3 C-0.67 2.01 -0.34 1.02 0 0 Z " fill="#D5F1E4" transform="translate(196,146)"/>
<path d="M0 0 C1.32 0.99 2.64 1.98 4 3 C3.34 4.32 2.68 5.64 2 7 C1.34 7 0.68 7 0 7 C0 6.34 0 5.68 0 5 C-0.66 5 -1.32 5 -2 5 C-1.34 3.35 -0.68 1.7 0 0 Z " fill="#C3D3CE" transform="translate(174,322)"/>
<path d="M0 0 C1.67542976 0.28604898 3.34385343 0.61781233 5 1 C4.67 1.66 4.34 2.32 4 3 C3.01 3 2.02 3 1 3 C1 3.99 1 4.98 1 6 C0.01 6 -0.98 6 -2 6 C-1.125 1.125 -1.125 1.125 0 0 Z " fill="#C3D0CA" transform="translate(173,294)"/>
<path d="M0 0 C0.33 1.32 0.66 2.64 1 4 C-0.75 5.5625 -0.75 5.5625 -3 7 C-5.25 6.6875 -5.25 6.6875 -7 6 C-7 5.34 -7 4.68 -7 4 C-6.401875 3.896875 -5.80375 3.79375 -5.1875 3.6875 C-2.71756736 2.91123545 -1.67748765 1.92911079 0 0 Z " fill="#B6CBC3" transform="translate(352,157)"/>
<path d="M0 0 C0.66 0.66 1.32 1.32 2 2 C4.06874034 2.6425235 4.06874034 2.6425235 6 3 C6 3.66 6 4.32 6 5 C5.34 5 4.68 5 4 5 C4 5.66 4 6.32 4 7 C2.68 6.67 1.36 6.34 0 6 C0 4.02 0 2.04 0 0 Z " fill="#F1D6C6" transform="translate(295,292)"/>
<path d="M0 0 C0.33 0.66 0.66 1.32 1 2 C-1 5 -1 5 -3.1640625 5.51171875 C-3.97617188 5.56972656 -4.78828125 5.62773437 -5.625 5.6875 C-6.85089844 5.78611328 -6.85089844 5.78611328 -8.1015625 5.88671875 C-8.72804687 5.92410156 -9.35453125 5.96148437 -10 6 C-7.41804126 2.12706189 -5.39076016 2.11764804 -1 1 C-0.67 0.67 -0.34 0.34 0 0 Z " fill="#DBBCBF" transform="translate(259,219)"/>
<path d="M0 0 C2.64 0 5.28 0 8 0 C8 0.66 8 1.32 8 2 C4.7 2.66 1.4 3.32 -2 4 C-1.34 2.68 -0.68 1.36 0 0 Z " fill="#A9BCB3" transform="translate(345,151)"/>
<path d="M0 0 C1.32 0.66 2.64 1.32 4 2 C3.67 2.66 3.34 3.32 3 4 C2.34 3.67 1.68 3.34 1 3 C1 5.97 1 8.94 1 12 C0.67 12 0.34 12 0 12 C-0.19401633 10.18818595 -0.38004375 8.37551468 -0.5625 6.5625 C-0.66691406 5.55316406 -0.77132813 4.54382813 -0.87890625 3.50390625 C-0.91886719 2.67761719 -0.95882813 1.85132812 -1 1 C-0.67 0.67 -0.34 0.34 0 0 Z " fill="#CAD7D4" transform="translate(335,90)"/>
<path d="M0 0 C5.37305699 -0.35233161 5.37305699 -0.35233161 8 0 C10 2 10 2 11 4 C10.34 4.66 9.68 5.32 9 6 C8.62875 5.54625 8.2575 5.0925 7.875 4.625 C5.45735315 2.52970606 3.04569398 1.87986715 0 1 C0 0.67 0 0.34 0 0 Z " fill="#ACBCB5" transform="translate(172,290)"/>
<path d="M0 0 C0.99 0.33 1.98 0.66 3 1 C2.67 3.64 2.34 6.28 2 9 C0.59306362 6.37371875 -0.49157276 3.94887797 -1 1 C-0.67 0.67 -0.34 0.34 0 0 Z " fill="#B6CCC1" transform="translate(341,252)"/>
<path d="M0 0 C0.66 0 1.32 0 2 0 C2 1.32 2 2.64 2 4 C-0.78823655 5.0326802 -1.8677274 5.04509293 -4.75 4.0625 C-5.4925 3.711875 -6.235 3.36125 -7 3 C-7 2.67 -7 2.34 -7 2 C-4.69 2 -2.38 2 0 2 C0 1.34 0 0.68 0 0 Z " fill="#ABAD9F" transform="translate(250,232)"/>
<path d="M0 0 C-2.67312924 2.19578473 -4.67118118 3.19649201 -8 4 C-8.33 4.66 -8.66 5.32 -9 6 C-9.33 4.68 -9.66 3.36 -10 2 C-6.3558226 -0.4294516 -4.28758728 -0.16179575 0 0 Z " fill="#CAD9D0" transform="translate(178,289)"/>
<path d="M0 0 C0.33 0.66 0.66 1.32 1 2 C1.66 2 2.32 2 3 2 C3 2.99 3 3.98 3 5 C1.68 5.33 0.36 5.66 -1 6 C-1 4.68 -1 3.36 -1 2 C-2.65 2 -4.3 2 -6 2 C-6 1.67 -6 1.34 -6 1 C-4.02 0.67 -2.04 0.34 0 0 Z " fill="#9B6151" transform="translate(240,203)"/>
<path d="M0 0 C4.875 4.625 4.875 4.625 6 8 C4.35 8 2.7 8 1 8 C0.67 5.36 0.34 2.72 0 0 Z " fill="#7B9880" transform="translate(234,132)"/>
<path d="M0 0 C4.05606165 0.46800711 7.46588679 0.87953208 11 3 C10.67 3.66 10.34 4.32 10 5 C5.05 3.02 5.05 3.02 0 1 C0 0.67 0 0.34 0 0 Z " fill="#E1B498" transform="translate(246,239)"/>
<path d="M0 0 C1.31878578 0.76002917 2.6298684 1.53343653 3.9375 2.3125 C4.66839844 2.74175781 5.39929688 3.17101562 6.15234375 3.61328125 C8 5 8 5 9 8 C6.525 7.01 6.525 7.01 4 6 C4 5.34 4 4.68 4 4 C2.68 3.34 1.36 2.68 0 2 C0 1.34 0 0.68 0 0 Z " fill="#E9D2B9" transform="translate(180,212)"/>
<path d="M0 0 C0 3 0 3 -1.25 4.75 C-3 6 -3 6 -5.1875 5.6875 C-5.785625 5.460625 -6.38375 5.23375 -7 5 C-2.25 1.125 -2.25 1.125 0 0 Z " fill="#ABB3AF" transform="translate(237,211)"/>
<path d="M0 0 C1.65 1.32 3.3 2.64 5 4 C4.38125 4.061875 3.7625 4.12375 3.125 4.1875 C0.72238859 4.828919 0.72238859 4.828919 -0.25 7.5625 C-0.4975 8.366875 -0.745 9.17125 -1 10 C-2.46726798 6.18510326 -1.43336419 3.70988378 0 0 Z " fill="#DBC0AC" transform="translate(185,182)"/>
<path d="M0 0 C1.32 0.33 2.64 0.66 4 1 C4 2.65 4 4.3 4 6 C3.38125 5.67 2.7625 5.34 2.125 5 C0.08981656 3.85806765 0.08981656 3.85806765 -2 4 C-1.34 2.68 -0.68 1.36 0 0 Z " fill="#9EB4AB" transform="translate(348,154)"/>
<path d="M0 0 C0.66 0 1.32 0 2 0 C2 2.64 2 5.28 2 8 C1.01 7.67 0.02 7.34 -1 7 C-0.67 4.69 -0.34 2.38 0 0 Z " fill="#ABBEB6" transform="translate(167,293)"/>
<path d="M0 0 C0.66 0.33 1.32 0.66 2 1 C2 3.97 2 6.94 2 10 C1.34 9.01 0.68 8.02 0 7 C0.33 6.34 0.66 5.68 1 5 C0.34 5 -0.32 5 -1 5 C-0.67 3.35 -0.34 1.7 0 0 Z " fill="#E3DDC9" transform="translate(296,279)"/>
<path d="M0 0 C1.37562854 1.28965176 2.70766393 2.62689293 4 4 C4 4.66 4 5.32 4 6 C2.68 6.33 1.36 6.66 0 7 C-1.125 2.25 -1.125 2.25 0 0 Z " fill="#9D604E" transform="translate(232,205)"/>
<path d="M0 0 C2.97 0 5.94 0 9 0 C9 0.66 9 1.32 9 2 C6.1875 2.6875 6.1875 2.6875 3 3 C2.01 2.01 1.02 1.02 0 0 Z " fill="#BE9AAD" transform="translate(258,203)"/>
<path d="M0 0 C-0.33 1.32 -0.66 2.64 -1 4 C-1.99 3.67 -2.98 3.34 -4 3 C-4 3.66 -4 4.32 -4 5 C-4.99 5 -5.98 5 -7 5 C-6 2 -6 2 -4.0625 0.8125 C-2 0 -2 0 0 0 Z " fill="#9B5A58" transform="translate(251,200)"/>
<path d="M0 0 C0.99 0.66 1.98 1.32 3 2 C1.35 3.65 -0.3 5.3 -2 7 C-2.33 6.01 -2.66 5.02 -3 4 C-1.5625 1.8125 -1.5625 1.8125 0 0 Z " fill="#C7CDCB" transform="translate(172,119)"/>
<path d="M0 0 C0.99 0.33 1.98 0.66 3 1 C2.34 3.64 1.68 6.28 1 9 C0.34 9 -0.32 9 -1 9 C-0.67 6.03 -0.34 3.06 0 0 Z " fill="#C6CFCB" transform="translate(162,96)"/>
<path d="M0 0 C1.98 1.65 3.96 3.3 6 5 C5.01 5.66 4.02 6.32 3 7 C1.68 5.68 0.36 4.36 -1 3 C-0.67 2.01 -0.34 1.02 0 0 Z " fill="#C3CECB" transform="translate(164,302)"/>
<path d="M0 0 C0.99 0 1.98 0 3 0 C3.33 1.32 3.66 2.64 4 4 C2.68 4.33 1.36 4.66 0 5 C-0.33 4.01 -0.66 3.02 -1 2 C-0.67 1.34 -0.34 0.68 0 0 Z " fill="#BECFC5" transform="translate(320,304)"/>
<path d="M0 0 C2 3 2 3 1.625 5.6875 C1.41875 6.450625 1.2125 7.21375 1 8 C0.01 8 -0.98 8 -2 8 C-1.34 5.36 -0.68 2.72 0 0 Z " fill="#BCCAC5" transform="translate(342,267)"/>
<path d="M0 0 C0.99 0 1.98 0 3 0 C3 2.31 3 4.62 3 7 C2.01 7 1.02 7 0 7 C0 4.69 0 2.38 0 0 Z " fill="#87A494" transform="translate(212,233)"/>
<path d="M0 0 C0.66 0 1.32 0 2 0 C1.67 1.65 1.34 3.3 1 5 C1.66 5.33 2.32 5.66 3 6 C1.35 5.67 -0.3 5.34 -2 5 C-1.34 3.35 -0.68 1.7 0 0 Z " fill="#9DB4AF" transform="translate(269,191)"/>
<path d="M0 0 C2.475 0.495 2.475 0.495 5 1 C5 2.98 5 4.96 5 7 C4.01 7.495 4.01 7.495 3 8 C2.34 7.34 1.68 6.68 1 6 C1.66 6 2.32 6 3 6 C3 4.35 3 2.7 3 1 C2.01 0.67 1.02 0.34 0 0 Z " fill="#9BA59C" transform="translate(268,184)"/>
<path d="M0 0 C0.99 0.33 1.98 0.66 3 1 C3.33 3.64 3.66 6.28 4 9 C2 6 2 6 2 4 C1.01 3.67 0.02 3.34 -1 3 C-0.67 2.01 -0.34 1.02 0 0 Z " fill="#EFC8B3" transform="translate(232,103)"/>
<path d="M0 0 C4.875 0.875 4.875 0.875 6 2 C6.04080783 3.99958364 6.04254356 6.00045254 6 8 C5.62875 7.13375 5.62875 7.13375 5.25 6.25 C3.83316683 3.6997003 2.12372463 1.98214299 0 0 Z " fill="#A1B0AB" transform="translate(328,278)"/>
<path d="M0 0 C0.99 0 1.98 0 3 0 C6 3.33333333 6 3.33333333 6 6 C3.37812506 4.95125002 2.20628639 4.35068687 0.75 1.875 C0.5025 1.25625 0.255 0.6375 0 0 Z " fill="#B6B0A8" transform="translate(281,270)"/>
<path d="M0 0 C0.66 0.66 1.32 1.32 2 2 C1.01 3.32 0.02 4.64 -1 6 C-2.32 5.67 -3.64 5.34 -5 5 C-3.35 3.35 -1.7 1.7 0 0 Z " fill="#679B89" transform="translate(305,183)"/>
<path d="M0 0 C1.32 0 2.64 0 4 0 C4 3.63 4 7.26 4 11 C3.67 11 3.34 11 3 11 C2.8046875 9.01432292 2.609375 7.02864583 2.4140625 5.04296875 C2.07334609 2.70011858 2.07334609 2.70011858 0 0 Z " fill="#F1D2BA" transform="translate(237,114)"/>
<path d="M0 0 C0.6875 1.8125 0.6875 1.8125 1 4 C-0.3125 5.75 -0.3125 5.75 -2 7 C-2.66 7 -3.32 7 -4 7 C-3.67 5.68 -3.34 4.36 -3 3 C-2.34 3 -1.68 3 -1 3 C-0.67 2.01 -0.34 1.02 0 0 Z " fill="#E7ECDC" transform="translate(270,104)"/>
<path d="M0 0 C0.99 0.33 1.98 0.66 3 1 C2.625 3.9375 2.625 3.9375 2 7 C1.01 7.495 1.01 7.495 0 8 C0 5.36 0 2.72 0 0 Z " fill="#6E5747" transform="translate(267,93)"/>
<path d="M0 0 C0.66 0.33 1.32 0.66 2 1 C1.67 2.32 1.34 3.64 1 5 C0.01 4.67 -0.98 4.34 -2 4 C-2 3.01 -2 2.02 -2 1 C-1.34 0.67 -0.68 0.34 0 0 Z " fill="#B6C0BD" transform="translate(151,262)"/>
<path d="M0 0 C1.32 0 2.64 0 4 0 C4 0.99 4 1.98 4 3 C2.68 3 1.36 3 0 3 C0 2.01 0 1.02 0 0 Z " fill="#C2C7C5" transform="translate(138,197)"/>
<path d="M0 0 C0.66 0 1.32 0 2 0 C2.33 0.99 2.66 1.98 3 3 C1.68 3 0.36 3 -1 3 C-0.67 2.01 -0.34 1.02 0 0 Z " fill="#B7C3C0" transform="translate(345,117)"/>
<path d="M0 0 C0.99 0 1.98 0 3 0 C3 0.99 3 1.98 3 3 C2.01 3 1.02 3 0 3 C0 2.01 0 1.02 0 0 Z " fill="#B3BFBB" transform="translate(360,233)"/>
</svg>
