<?xml version="1.0" encoding="UTF-8"?>
<svg version="1.1" xmlns="http://www.w3.org/2000/svg" width="500" height="500">
<path d="M0 0 C3.22800851 2.30572036 3.77861611 4.06627251 4.625 7.875 C5.553125 7.730625 6.48125 7.58625 7.4375 7.4375 C13.31330795 7.41351711 18.19147529 11.36484337 22.625 14.875 C26.48989419 19.22971585 28.625 23.09332873 28.625 29.078125 C28.27008274 33.42586141 27.35523598 36.90227777 25.44140625 40.859375 C24.3733787 43.49622772 23.81266227 46.16355596 23.1875 48.9375 C22.01802378 53.77901037 20.95709394 57.15089501 17.625 60.875 C14.875 62.25 14.875 62.25 12.625 62.875 C13.12 66.835 13.12 66.835 13.625 70.875 C14.73875 71.1225 15.8525 71.37 17 71.625 C24.41943647 73.50951051 31.86687468 75.5308329 36.625 81.875 C39.01360324 87.7942982 40.94999941 93.83493633 42.8125 99.9375 C43.08513672 100.79666016 43.35777344 101.65582031 43.63867188 102.54101562 C45.15356223 107.51091908 45.94219553 111.68004212 45.625 116.875 C44.965 116.875 44.305 116.875 43.625 116.875 C43.96893232 119.6113738 44.34849343 122.33448593 44.75 125.0625 C44.8428125 125.83142578 44.935625 126.60035156 45.03125 127.39257812 C45.67672718 131.57024988 46.31977388 134.06956542 49.65625 136.8125 C50.6359375 137.493125 51.615625 138.17375 52.625 138.875 C55.40169933 142.53519457 54.90519915 146.46186344 54.625 150.875 C53.965 151.865 53.305 152.855 52.625 153.875 C52.17037514 155.97791295 52.17037514 155.97791295 51.9921875 158.296875 C51.86650391 159.58851563 51.86650391 159.58851563 51.73828125 160.90625 C51.65964844 161.8034375 51.58101563 162.700625 51.5 163.625 C51.37044922 164.94757813 51.37044922 164.94757813 51.23828125 166.296875 C50.31431948 176.15246721 49.75446717 185.8555192 55.875 194.25 C57.625 196.875 57.625 196.875 57.375 199.25 C57.00375 200.054375 57.00375 200.054375 56.625 200.875 C54.975 201.205 53.325 201.535 51.625 201.875 C43.43056897 192.26773604 42.98063598 183.09520756 43.625 170.875 C44.091976 165.84733871 44.83290254 160.86097061 45.625 155.875 C44.84125 155.730625 44.0575 155.58625 43.25 155.4375 C40.625 154.875 40.625 154.875 38.625 153.875 C38.8415625 155.09123047 38.8415625 155.09123047 39.0625 156.33203125 C40.13197853 162.71176775 40.83090125 168.77217403 40.59765625 175.2421875 C40.56455409 177.98024316 40.56455409 177.98024316 41.11181641 181.07275391 C42.02052497 187.80549754 41.91607677 194.59112213 41.9375 201.375 C41.94011841 202.16689728 41.94273682 202.95879456 41.94543457 203.77468872 C41.95164132 221.44420107 40.42789244 238.91785195 36.70385742 256.22753906 C33.259243 272.49420982 31.96763507 288.88690819 30.6272583 305.42840576 C30.37347091 308.53336261 30.11038051 311.63749841 29.84679127 314.74163628 C28.65490184 328.778766 27.52332208 342.81564148 26.625 356.875 C27.615 357.205 28.605 357.535 29.625 357.875 C30.08777344 358.6484375 30.55054688 359.421875 31.02734375 360.21875 C35.08688104 366.96810296 43.65683275 370.61602373 50.59375 373.83203125 C52.625 374.875 52.625 374.875 54.625 376.875 C54.89491906 379.56339385 54.71237357 382.16641936 54.625 384.875 C49.16446189 386.72140153 44.54130113 387.11267294 38.8046875 386.921875 C37.98300079 386.90159241 37.16131409 386.88130981 36.31472778 386.8604126 C34.58841437 386.81508531 32.862235 386.76436116 31.13623047 386.70849609 C28.50115321 386.62503653 25.86618674 386.56328474 23.23046875 386.50390625 C21.54683849 386.45702252 19.86324248 386.40888828 18.1796875 386.359375 C17.39624969 386.34154968 16.61281189 386.32372437 15.80563354 386.30535889 C11.67657608 386.15803546 8.34781418 385.71189664 4.625 383.875 C4.40591351 377.85012156 5.13101953 372.69950494 6.625 366.875 C6.81578125 366.10027344 7.0065625 365.32554687 7.203125 364.52734375 C7.66884543 362.64117601 8.14574817 360.75777506 8.625 358.875 C9.285 358.875 9.945 358.875 10.625 358.875 C9.47809673 349.59413805 8.10197547 340.3588369 6.625 331.125 C6.4590332 330.08480713 6.29306641 329.04461426 6.12207031 327.97290039 C5.16946421 322.0659004 4.14733402 316.17905401 3.02270508 310.30224609 C1.27568639 299.63996262 3.88779762 288.83414233 6.16064453 278.42089844 C7.97470759 268.4750259 6.05595739 257.87518762 4.97094727 247.91967773 C4.68480178 245.28768146 4.40918869 242.65472613 4.13476562 240.02148438 C3.95634318 238.34628866 3.77732875 236.67115586 3.59765625 234.99609375 C3.51532242 234.20972031 3.43298859 233.42334686 3.34815979 232.61314392 C2.96431377 228.61707187 2.96431377 228.61707187 1.625 224.875 C1.33109375 226.15503906 1.33109375 226.15503906 1.03125 227.4609375 C-2.82600855 243.58826851 -7.39370984 259.72131152 -13.5625 275.125 C-16.34454755 282.24975593 -18.00461439 289.45397089 -19.61743164 296.92114258 C-21.38317374 305.09029858 -23.29278765 313.18848666 -26.69921875 320.85546875 C-29.22923062 326.66767959 -31.09478839 332.73074823 -33.0625 338.75 C-33.47822266 339.97847656 -33.89394531 341.20695312 -34.32226562 342.47265625 C-36.49567586 349.13207087 -38.08467528 354.87243 -37.375 361.875 C-37.3128833 362.61717773 -37.2507666 363.35935547 -37.18676758 364.12402344 C-36.97662666 366.36009534 -36.71630532 368.58403474 -36.4375 370.8125 C-36.35048828 371.56595703 -36.26347656 372.31941406 -36.17382812 373.09570312 C-35.73851824 377.1118289 -35.73851824 377.1118289 -34.375 380.875 C-34.33477609 383.2079866 -34.33179753 385.54206666 -34.375 387.875 C-41.06851304 390.96431371 -47.02656781 391.66858945 -54.375 390.875 C-59.29166667 388.95833333 -59.29166667 388.95833333 -61.375 386.875 C-60.82416916 381.16295969 -59.41250047 375.72197697 -57.9375 370.1875 C-57.61168945 368.92583008 -57.61168945 368.92583008 -57.27929688 367.63867188 C-57.06466797 366.82591797 -56.85003906 366.01316406 -56.62890625 365.17578125 C-56.43627197 364.44528564 -56.2436377 363.71479004 -56.04516602 362.9621582 C-55.375 360.875 -55.375 360.875 -54.31811523 359.07006836 C-52.96381823 355.91798854 -53.05656819 352.82799793 -53.03125 349.453125 C-53.01060738 348.3598288 -53.01060738 348.3598288 -52.98954773 347.2444458 C-52.96005903 345.68198967 -52.93431302 344.11945923 -52.91195679 342.55688477 C-52.84984282 338.46957023 -52.74812847 334.38331956 -52.64453125 330.296875 C-52.62409256 329.48589355 -52.60365387 328.67491211 -52.58259583 327.83935547 C-51.7511133 296.76483419 -51.7511133 296.76483419 -46.375 284.875 C-45.94574219 283.9159375 -45.51648438 282.956875 -45.07421875 281.96875 C-44.21641648 280.08613971 -43.35099893 278.20697316 -42.4765625 276.33203125 C-38.03490721 266.42493487 -38.23201184 255.80566233 -38.1640625 245.16015625 C-38.13597534 242.67382175 -38.10731077 240.18749372 -38.078125 237.70117188 C-38.03710423 233.83130204 -38.00016489 229.96155048 -37.97363281 226.09155273 C-37.84328606 208.54530644 -37.50143536 191.74117977 -31.92578125 174.95703125 C-31.22208279 172.29695127 -31.33403852 169.76867678 -31.46875 167.03515625 C-31.27261122 162.51579193 -29.70259926 158.17389285 -28.375 153.875 C-29.19484375 153.75640625 -30.0146875 153.6378125 -30.859375 153.515625 C-41.44696459 151.5863309 -55.5756346 148.6743654 -63.375 140.875 C-65.72942298 131.88187616 -60.39884339 124.18185521 -56.28613281 116.60693359 C-54.70911617 113.60924977 -53.5255119 110.79282748 -52.9765625 107.4453125 C-52.18507415 104.06349865 -50.61230603 101.6764809 -48.75 98.75 C-48.21366943 97.90501953 -48.21366943 97.90501953 -47.66650391 97.04296875 C-46.93005248 95.88340791 -46.19095036 94.72552635 -45.44921875 93.56933594 C-44.44194125 91.9805846 -43.46962734 90.36981796 -42.5 88.7578125 C-34.32451173 75.29015548 -22.98571274 72.01833645 -8.375 67.875 C-7.715 63.255 -7.055 58.635 -6.375 53.875 C-8.355 53.215 -10.335 52.555 -12.375 51.875 C-14.203125 50.32421875 -14.203125 50.32421875 -15.625 48.5625 C-16.10453125 47.98886719 -16.5840625 47.41523437 -17.078125 46.82421875 C-20.86801608 41.12796679 -21.02959538 35.52530956 -20.375 28.875 C-19.60732021 26.29683839 -18.64856054 24.26292601 -17.375 21.875 C-18.10783203 21.05708984 -18.10783203 21.05708984 -18.85546875 20.22265625 C-20.70895066 17.35905052 -20.747313 15.69423483 -20.6875 12.3125 C-20.68363281 11.36246094 -20.67976563 10.41242188 -20.67578125 9.43359375 C-20.375 6.875 -20.375 6.875 -18.375 3.875 C-17.715 3.875 -17.055 3.875 -16.375 3.875 C-16.375 3.215 -16.375 2.555 -16.375 1.875 C-15.715 1.875 -15.055 1.875 -14.375 1.875 C-14.375 1.215 -14.375 0.555 -14.375 -0.125 C-9.30743348 -1.81418884 -4.98725848 -1.66241949 0 0 Z M-27.375 117.875 C-27.7875 118.7 -28.2 119.525 -28.625 120.375 C-29.2025 121.2 -29.78 122.025 -30.375 122.875 C-33.0625 123.1875 -33.0625 123.1875 -35.375 122.875 C-35.705 123.865 -36.035 124.855 -36.375 125.875 C-37.035 125.875 -37.695 125.875 -38.375 125.875 C-39.035 127.525 -39.695 129.175 -40.375 130.875 C-38.79710402 132.02830947 -37.2124518 133.17237927 -35.625 134.3125 C-34.74328125 134.95058594 -33.8615625 135.58867187 -32.953125 136.24609375 C-30.64800875 137.7025081 -29.03150428 138.43431821 -26.375 138.875 C-24.14294608 132.17883823 -25.5016942 124.75228315 -26.375 117.875 C-26.705 117.875 -27.035 117.875 -27.375 117.875 Z " fill="#8BB3A9" transform="translate(251.375,59.125)"/>
<path d="M0 0 C3.22800851 2.30572036 3.77861611 4.06627251 4.625 7.875 C6.0171875 7.6584375 6.0171875 7.6584375 7.4375 7.4375 C13.31330795 7.41351711 18.19147529 11.36484337 22.625 14.875 C26.48989419 19.22971585 28.625 23.09332873 28.625 29.078125 C28.27008274 33.42586141 27.35523598 36.90227777 25.44140625 40.859375 C24.3733787 43.49622772 23.81266227 46.16355596 23.1875 48.9375 C22.01802378 53.77901037 20.95709394 57.15089501 17.625 60.875 C14.875 62.25 14.875 62.25 12.625 62.875 C13.12 66.835 13.12 66.835 13.625 70.875 C14.73875 71.1225 15.8525 71.37 17 71.625 C24.41943647 73.50951051 31.86687468 75.5308329 36.625 81.875 C39.01360324 87.7942982 40.94999941 93.83493633 42.8125 99.9375 C43.08513672 100.79666016 43.35777344 101.65582031 43.63867188 102.54101562 C45.15356223 107.51091908 45.94219553 111.68004212 45.625 116.875 C44.573125 117.16375 43.52125 117.4525 42.4375 117.75 C39.39201446 118.64866787 36.55391659 119.67105847 33.625 120.875 C33.29021447 135.00759589 33.29021447 135.00759589 35.625 148.875 C29.51177873 149.36980381 25.82049544 147.90666008 20.5 145 C19.12328406 144.27175587 17.74569933 143.54515141 16.3671875 142.8203125 C15.72144775 142.4797583 15.07570801 142.1392041 14.41040039 141.78833008 C9.50820795 139.28059017 5.15087245 137.90940637 -0.375 138.875 C-5.01661702 140.7275148 -9.22302481 143.10701654 -13.375 145.875 C-18.1127351 145.61179249 -21.83338147 145.10533199 -25.375 141.875 C-26.31317078 138.18134347 -26.48921189 134.4836422 -26.6875 130.6875 C-26.76033203 129.65173828 -26.83316406 128.61597656 -26.90820312 127.54882812 C-27.08497587 124.99151579 -27.23967396 122.43478552 -27.375 119.875 C-28.00341797 120.85726562 -28.00341797 120.85726562 -28.64453125 121.859375 C-29.21558594 122.52453125 -29.78664062 123.1896875 -30.375 123.875 C-34.0625 124.125 -34.0625 124.125 -37.375 123.875 C-37.375 122.555 -37.375 121.235 -37.375 119.875 C-37.96410156 119.606875 -38.55320313 119.33875 -39.16015625 119.0625 C-41.38425927 117.8700356 -42.96522123 116.58149309 -44.8125 114.875 C-47.51998434 112.48261082 -49.86723168 110.9379601 -53.375 109.875 C-52.80294453 105.44565618 -51.13403519 102.49634102 -48.75 98.75 C-48.21366943 97.90501953 -48.21366943 97.90501953 -47.66650391 97.04296875 C-46.93005248 95.88340791 -46.19095036 94.72552635 -45.44921875 93.56933594 C-44.44194125 91.9805846 -43.46962734 90.36981796 -42.5 88.7578125 C-34.32451173 75.29015548 -22.98571274 72.01833645 -8.375 67.875 C-7.715 63.255 -7.055 58.635 -6.375 53.875 C-8.355 53.215 -10.335 52.555 -12.375 51.875 C-14.203125 50.32421875 -14.203125 50.32421875 -15.625 48.5625 C-16.10453125 47.98886719 -16.5840625 47.41523437 -17.078125 46.82421875 C-20.86801608 41.12796679 -21.02959538 35.52530956 -20.375 28.875 C-19.60732021 26.29683839 -18.64856054 24.26292601 -17.375 21.875 C-18.10783203 21.05708984 -18.10783203 21.05708984 -18.85546875 20.22265625 C-20.70895066 17.35905052 -20.747313 15.69423483 -20.6875 12.3125 C-20.68363281 11.36246094 -20.67976563 10.41242188 -20.67578125 9.43359375 C-20.375 6.875 -20.375 6.875 -18.375 3.875 C-17.715 3.875 -17.055 3.875 -16.375 3.875 C-16.375 3.215 -16.375 2.555 -16.375 1.875 C-15.715 1.875 -15.055 1.875 -14.375 1.875 C-14.375 1.215 -14.375 0.555 -14.375 -0.125 C-9.30743348 -1.81418884 -4.98725848 -1.66241949 0 0 Z " fill="#8BB3A9" transform="translate(251.375,59.125)"/>
<path d="M0 0 C3.7981298 0.38955177 6.70051811 1.28799446 10.0625 3 C15.81364867 5.71800862 21.72600338 5.80605884 28 6 C29.27841544 13.17967242 30.23589154 20.06526934 29.97265625 27.3671875 C29.93955409 30.10524316 29.93955409 30.10524316 30.48681641 33.19775391 C31.39552497 39.93049754 31.29107677 46.71612213 31.3125 53.5 C31.31511841 54.29189728 31.31773682 55.08379456 31.32043457 55.89968872 C31.32664132 73.56920107 29.80289244 91.04285195 26.07885742 108.35253906 C22.634243 124.61920982 21.34263507 141.01190819 20.0022583 157.55340576 C19.74847091 160.65836261 19.48538051 163.76249841 19.22179127 166.86663628 C18.02990184 180.903766 16.89832208 194.94064148 16 209 C16.99 209.33 17.98 209.66 19 210 C19.46277344 210.7734375 19.92554688 211.546875 20.40234375 212.34375 C24.46188104 219.09310296 33.03183275 222.74102373 39.96875 225.95703125 C42 227 42 227 44 229 C44.26991906 231.68839385 44.08737357 234.29141936 44 237 C38.53946189 238.84640153 33.91630113 239.23767294 28.1796875 239.046875 C26.94715744 239.01645111 26.94715744 239.01645111 25.68972778 238.9854126 C23.96341437 238.94008531 22.237235 238.88936116 20.51123047 238.83349609 C17.87615321 238.75003653 15.24118674 238.68828474 12.60546875 238.62890625 C10.92183849 238.58202252 9.23824248 238.53388828 7.5546875 238.484375 C6.77124969 238.46654968 5.98781189 238.44872437 5.18063354 238.43035889 C1.05157608 238.28303546 -2.27718582 237.83689664 -6 236 C-6.21908649 229.97512156 -5.49398047 224.82450494 -4 219 C-3.71382813 217.83791016 -3.71382813 217.83791016 -3.421875 216.65234375 C-2.95615457 214.76617601 -2.47925183 212.88277506 -2 211 C-1.34 211 -0.68 211 0 211 C-1.14690327 201.71913805 -2.52302453 192.4838369 -4 183.25 C-4.1659668 182.20980713 -4.33193359 181.16961426 -4.50292969 180.09790039 C-5.45553579 174.1909004 -6.47766598 168.30405401 -7.60229492 162.42724609 C-9.34628724 151.78343293 -6.76032619 140.96063953 -4.46240234 130.56884766 C-2.84943376 121.60810032 -4.38281087 112.25841471 -5.4375 103.3125 C-6.47266293 94.17715713 -7.36978168 85.09049663 -7.7890625 75.90625 C-7.8965474 73.09149342 -7.8965474 73.09149342 -8.609375 70.8203125 C-9.21738092 67.98700492 -7.83867425 65.89211121 -6.76953125 63.3046875 C-5.43537401 59.30898814 -5.24861727 55.18362859 -5 51 C-5.99 51.495 -5.99 51.495 -7 52 C-7.70119356 48.73644691 -8.18122397 45.56203566 -8.4296875 42.234375 C-8.50316406 41.34363281 -8.57664063 40.45289063 -8.65234375 39.53515625 C-8.79949137 37.69452023 -8.94023346 35.85335968 -9.07421875 34.01171875 C-9.528789 28.65703527 -10.43715008 24.00052707 -12.38330078 18.98144531 C-13 17 -13 17 -13 13 C-12.13375 12.814375 -11.2675 12.62875 -10.375 12.4375 C-6.42130173 10.7535174 -4.84363416 8.81553961 -2.296875 5.4609375 C-1.86890625 4.97882813 -1.4409375 4.49671875 -1 4 C-0.34 4 0.32 4 1 4 C0.67 2.68 0.34 1.36 0 0 Z " fill="#7BA298" transform="translate(262,207)"/>
<path d="M0 0 C4.73127546 1.33067122 7.69672104 4.19143943 11.23046875 7.44140625 C12.92814506 9.07056716 12.92814506 9.07056716 15 10 C15.625 13.0625 15.625 13.0625 16 16 C15.34 16 14.68 16 14 16 C13.67 17.65 13.34 19.3 13 21 C19.435 24.96 19.435 24.96 26 29 C26.495 27.515 26.495 27.515 27 26 C27 27.98 27 29.96 27 32 C31.00323753 33.81965342 34.58913531 34.84790122 39 35 C41.53943187 33.75255979 43.68009063 32.55379976 46 31 C50.7019413 28.19884348 54.57978207 27.18251707 60 28 C63.67258829 29.35846738 67.09608943 31.12388191 70.5625 32.9375 C78.88817027 37.26462603 78.88817027 37.26462603 88 39 C87.68289063 38.4534375 87.36578125 37.906875 87.0390625 37.34375 C83.62665157 29.6465825 84.86813181 19.26373969 85 11 C91.5 7 91.5 7 96 7 C96.14695312 8.16917969 96.29390625 9.33835938 96.4453125 10.54296875 C96.67053043 12.091342 96.89716816 13.63950921 97.125 15.1875 C97.2178125 15.95642578 97.310625 16.72535156 97.40625 17.51757812 C98.05172718 21.69524988 98.69477388 24.19456542 102.03125 26.9375 C103.50078125 27.9584375 103.50078125 27.9584375 105 29 C107.77669933 32.66019457 107.28019915 36.58686344 107 41 C106.34 41.99 105.68 42.98 105 44 C104.54537514 46.10291295 104.54537514 46.10291295 104.3671875 48.421875 C104.24150391 49.71351563 104.24150391 49.71351563 104.11328125 51.03125 C104.03464844 51.9284375 103.95601563 52.825625 103.875 53.75 C103.74544922 55.07257813 103.74544922 55.07257813 103.61328125 56.421875 C102.68931948 66.27746721 102.12946717 75.9805192 108.25 84.375 C110 87 110 87 109.75 89.375 C109.5025 89.91125 109.255 90.4475 109 91 C107.35 91.33 105.7 91.66 104 92 C95.80556897 82.39273604 95.35563598 73.22020756 96 61 C96.466976 55.97233871 97.20790254 50.98597061 98 46 C93.9275092 45.03994514 90.05028044 44.87203325 85.875 44.75 C79.47727693 44.38065982 74.80025924 43.06892653 69.171875 40.05859375 C66.95323344 38.78093153 66.95323344 38.78093153 64 39 C64 39.99 64 40.98 64 42 C63.34 42 62.68 42 62 42 C61.773125 42.556875 61.54625 43.11375 61.3125 43.6875 C59.58759086 46.72662564 57.67850171 48.75753345 55 51 C52.33203125 51.140625 52.33203125 51.140625 50 51 C50.47488898 52.98019743 50.95502859 54.95913635 51.4375 56.9375 C51.70433594 58.03964844 51.97117188 59.14179688 52.24609375 60.27734375 C52.72995725 62.89421254 52.72995725 62.89421254 54 64 C55.71068502 72.93357734 55.72602595 80.6164416 52 89 C50.68 88.67 49.36 88.34 48 88 C48.15855469 87.319375 48.31710938 86.63875 48.48046875 85.9375 C50.23742018 76.00345881 49.28210296 67.11205505 45.875 57.70703125 C45 55 45 55 45 51 C44.443125 50.82984375 43.88625 50.6596875 43.3125 50.484375 C38.61925756 48.99395341 34.43334029 47.32358698 30.21484375 44.76953125 C27.84104354 43.79551974 27.84104354 43.79551974 24.51171875 44.12109375 C18.62348183 44.25394186 13.37601027 42.15341705 7.875 40.25 C6.28751953 39.72792969 6.28751953 39.72792969 4.66796875 39.1953125 C-6.63318311 35.36681689 -6.63318311 35.36681689 -11 31 C-13.45407951 19.84279317 -5.57597827 9.09394563 0 0 Z " fill="#F3B6A3" transform="translate(199,169)"/>
<path d="M0 0 C3.22800851 2.30572036 3.77861611 4.06627251 4.625 7.875 C5.553125 7.730625 6.48125 7.58625 7.4375 7.4375 C13.31330795 7.41351711 18.19147529 11.36484337 22.625 14.875 C26.48989419 19.22971585 28.625 23.09332873 28.625 29.078125 C28.27008274 33.42586141 27.35523598 36.90227777 25.44140625 40.859375 C24.3733787 43.49622772 23.81266227 46.16355596 23.1875 48.9375 C22.01802378 53.77901037 20.95709394 57.15089501 17.625 60.875 C14.875 62.25 14.875 62.25 12.625 62.875 C13.12 66.835 13.12 66.835 13.625 70.875 C16.595 71.37 16.595 71.37 19.625 71.875 C19.00625 71.936875 18.3875 71.99875 17.75 72.0625 C16.698125 72.4646875 16.698125 72.4646875 15.625 72.875 C14.90772222 74.52051962 14.24174772 76.18922289 13.625 77.875 C9.73871978 80.46585348 7.74073361 79.97278322 3.25 79.41796875 C-0.72593441 78.59556565 -3.90534323 76.92817834 -7.375 74.875 C-8.05175781 74.49472656 -8.72851562 74.11445313 -9.42578125 73.72265625 C-11.08423126 72.78873951 -12.73094556 71.83403176 -14.375 70.875 C-12.375 69.875 -10.375 68.875 -8.375 67.875 C-7.90693355 65.53755706 -7.54830206 63.17760921 -7.25 60.8125 C-6.99863281 58.87697266 -6.99863281 58.87697266 -6.7421875 56.90234375 C-6.62101563 55.90332031 -6.49984375 54.90429688 -6.375 53.875 C-7.29796875 53.61332031 -8.2209375 53.35164063 -9.171875 53.08203125 C-12.33961203 51.88833522 -13.55140702 51.13170449 -15.625 48.5625 C-16.34429687 47.70205078 -16.34429687 47.70205078 -17.078125 46.82421875 C-20.86801608 41.12796679 -21.02959538 35.52530956 -20.375 28.875 C-19.60732021 26.29683839 -18.64856054 24.26292601 -17.375 21.875 C-17.86355469 21.32972656 -18.35210937 20.78445312 -18.85546875 20.22265625 C-20.70895066 17.35905052 -20.747313 15.69423483 -20.6875 12.3125 C-20.68363281 11.36246094 -20.67976562 10.41242188 -20.67578125 9.43359375 C-20.375 6.875 -20.375 6.875 -18.375 3.875 C-17.715 3.875 -17.055 3.875 -16.375 3.875 C-16.375 3.215 -16.375 2.555 -16.375 1.875 C-15.715 1.875 -15.055 1.875 -14.375 1.875 C-14.375 1.215 -14.375 0.555 -14.375 -0.125 C-9.30743348 -1.81418884 -4.98725848 -1.66241949 0 0 Z " fill="#F2B3A0" transform="translate(251.375,59.125)"/>
<path d="M0 0 C3.22800851 2.30572036 3.77861611 4.06627251 4.625 7.875 C5.553125 7.730625 6.48125 7.58625 7.4375 7.4375 C13.31330795 7.41351711 18.19147529 11.36484337 22.625 14.875 C26.48572485 19.22501811 28.68397773 23.12008478 28.58984375 29.11328125 C28.17494485 33.60173304 27.25009258 37.64975928 25.625 41.875 C24.965 41.875 24.305 41.875 23.625 41.875 C23.59921875 41.15054688 23.5734375 40.42609375 23.546875 39.6796875 C23.18555951 33.52090076 22.72229843 29.57484231 18.625 24.875 C15.11246854 22.53331236 13.76030644 22.37876323 9.625 22.875 C5.41202186 25.40278689 2.90451156 29.00069108 0.15234375 32.97265625 C-1.52038184 35.05607661 -3.11114103 36.45843328 -5.375 37.875 C-6.365 37.875 -7.355 37.875 -8.375 37.875 C-8.375 37.215 -8.375 36.555 -8.375 35.875 C-9.695 36.535 -11.015 37.195 -12.375 37.875 C-12.045 40.515 -11.715 43.155 -11.375 45.875 C-10.570625 46.101875 -9.76625 46.32875 -8.9375 46.5625 C-8.091875 46.995625 -7.24625 47.42875 -6.375 47.875 C-5.5625 50.5 -5.5625 50.5 -5.375 52.875 C-8.78958042 52.80670839 -11.41587046 52.67824393 -14.10546875 50.42578125 C-19.32034712 44.48983327 -20.76128688 39.45713701 -20.64453125 31.61328125 C-20.2729255 27.83798225 -19.15152346 25.20598148 -17.375 21.875 C-17.86355469 21.32972656 -18.35210937 20.78445312 -18.85546875 20.22265625 C-20.70895066 17.35905052 -20.747313 15.69423483 -20.6875 12.3125 C-20.68363281 11.36246094 -20.67976562 10.41242188 -20.67578125 9.43359375 C-20.375 6.875 -20.375 6.875 -18.375 3.875 C-17.715 3.875 -17.055 3.875 -16.375 3.875 C-16.375 3.215 -16.375 2.555 -16.375 1.875 C-15.715 1.875 -15.055 1.875 -14.375 1.875 C-14.375 1.215 -14.375 0.555 -14.375 -0.125 C-9.30743348 -1.81418884 -4.98725848 -1.66241949 0 0 Z " fill="#5C3932" transform="translate(251.375,59.125)"/>
<path d="M0 0 C0.14695312 1.16917969 0.29390625 2.33835938 0.4453125 3.54296875 C0.67053043 5.091342 0.89716816 6.63950921 1.125 8.1875 C1.2178125 8.95642578 1.310625 9.72535156 1.40625 10.51757812 C2.05172718 14.69524988 2.69477388 17.19456542 6.03125 19.9375 C7.0109375 20.618125 7.990625 21.29875 9 22 C11.77669933 25.66019457 11.28019915 29.58686344 11 34 C10.34 34.99 9.68 35.98 9 37 C8.54537514 39.10291295 8.54537514 39.10291295 8.3671875 41.421875 C8.28339844 42.28296875 8.19960938 43.1440625 8.11328125 44.03125 C8.03464844 44.9284375 7.95601563 45.825625 7.875 46.75 C7.78863281 47.63171875 7.70226562 48.5134375 7.61328125 49.421875 C6.68931948 59.27746721 6.12946717 68.9805192 12.25 77.375 C14 80 14 80 13.75 82.375 C13.5025 82.91125 13.255 83.4475 13 84 C10.525 84.495 10.525 84.495 8 85 C-0.19443103 75.39273604 -0.64436402 66.22020756 0 54 C0.466976 48.97233871 1.20790254 43.98597061 2 39 C-1.99229708 38.05267527 -5.71859158 37.93709612 -9.8125 37.875 C-18.83753558 37.36767551 -26.01157745 34.02045445 -34 30 C-34.27199219 30.64195312 -34.54398437 31.28390625 -34.82421875 31.9453125 C-36 34 -36 34 -38.8125 34.875 C-42.21173782 35.00830344 -44.01590126 34.574941 -47 33 C-49 31 -49 31 -49.4375 28.6875 C-48.78639541 24.68785752 -47.23864131 23.36150929 -44 21 C-36.67214113 20.07488825 -31.84419652 22.58553102 -25.4375 25.9375 C-17.11182973 30.26462603 -17.11182973 30.26462603 -8 32 C-8.31710937 31.4534375 -8.63421875 30.906875 -8.9609375 30.34375 C-12.37334843 22.6465825 -11.13186819 12.26373969 -11 4 C-4.5 0 -4.5 0 0 0 Z " fill="#F1BDAD" transform="translate(295,176)"/>
<path d="M0 0 C0.33 0 0.66 0 1 0 C1 3.3 1 6.6 1 10 C1.99 10.33 2.98 10.66 4 11 C4.46277344 11.7734375 4.92554688 12.546875 5.40234375 13.34375 C9.46188104 20.09310296 18.03183275 23.74102373 24.96875 26.95703125 C27 28 27 28 29 30 C29.26991906 32.68839385 29.08737357 35.29141936 29 38 C23.53946189 39.84640153 18.91630113 40.23767294 13.1796875 40.046875 C12.35800079 40.02659241 11.53631409 40.00630981 10.68972778 39.9854126 C8.96341437 39.94008531 7.237235 39.88936116 5.51123047 39.83349609 C2.87615321 39.75003653 0.24118674 39.68828474 -2.39453125 39.62890625 C-4.07816151 39.58202252 -5.76175752 39.53388828 -7.4453125 39.484375 C-8.62046921 39.45763702 -8.62046921 39.45763702 -9.81936646 39.43035889 C-13.94842392 39.28303546 -17.27718582 38.83689664 -21 37 C-21.21908649 30.97512156 -20.49398047 25.82450494 -19 20 C-18.71382813 18.83791016 -18.71382813 18.83791016 -18.421875 17.65234375 C-17.95615457 15.76617601 -17.47925183 13.88277506 -17 12 C-16.34 12 -15.68 12 -15 12 C-15.33 8.7 -15.66 5.4 -16 2 C-10.72 2.33 -5.44 2.66 0 3 C0 2.01 0 1.02 0 0 Z " fill="#E8B3A6" transform="translate(277,406)"/>
<path d="M0 0 C3.7981298 0.38955177 6.70051811 1.28799446 10.0625 3 C15.81364867 5.71800862 21.72600338 5.80605884 28 6 C31.09243697 24.36134454 31.09243697 24.36134454 28 29 C28 28.01 28 27.02 28 26 C26.87722656 26.20496094 25.75445312 26.40992188 24.59765625 26.62109375 C13.63565315 28.60383121 3.17304226 30.2099319 -8 30 C-8.33 30.99 -8.66 31.98 -9 33 C-9.103125 32.030625 -9.20625 31.06125 -9.3125 30.0625 C-9.84411222 26.21612923 -11.03102031 22.74418932 -12.37890625 19.11328125 C-13 17 -13 17 -13 13 C-12.13375 12.814375 -11.2675 12.62875 -10.375 12.4375 C-6.42130173 10.7535174 -4.84363416 8.81553961 -2.296875 5.4609375 C-1.86890625 4.97882813 -1.4409375 4.49671875 -1 4 C-0.34 4 0.32 4 1 4 C0.67 2.68 0.34 1.36 0 0 Z " fill="#8BB3A9" transform="translate(262,207)"/>
<path d="M0 0 C0.33 0 0.66 0 1 0 C1 8.91 1 17.82 1 27 C7.93 27.495 7.93 27.495 15 28 C15.33 27.34 15.66 26.68 16 26 C15.835 26.804375 15.67 27.60875 15.5 28.4375 C14.47558231 35.73647603 15.10072354 42.66795698 15.9375 49.9375 C16.06765503 51.07505737 16.06765503 51.07505737 16.20043945 52.2355957 C16.6385757 56.24385537 16.6385757 56.24385537 18 60 C18.04022391 62.3329866 18.04320247 64.66706666 18 67 C11.30648696 70.08931371 5.34843219 70.79358945 -2 70 C-6.91666667 68.08333333 -6.91666667 68.08333333 -9 66 C-8.44916916 60.28795969 -7.03750047 54.84697697 -5.5625 49.3125 C-5.34529297 48.47138672 -5.12808594 47.63027344 -4.90429688 46.76367188 C-4.68966797 45.95091797 -4.47503906 45.13816406 -4.25390625 44.30078125 C-4.06127197 43.57028564 -3.8686377 42.83979004 -3.67016602 42.0871582 C-3 40 -3 40 -1.94750977 38.24780273 C-0.50989908 34.8373205 -0.64086353 31.38056332 -0.5859375 27.734375 C-0.56657135 26.94097717 -0.5472052 26.14757935 -0.5272522 25.33013916 C-0.46761639 22.80353443 -0.42113557 20.27688375 -0.375 17.75 C-0.33680545 16.03383463 -0.29775285 14.31768813 -0.2578125 12.6015625 C-0.16192814 8.40119544 -0.07783833 4.20073866 0 0 Z " fill="#F2CFC2" transform="translate(199,380)"/>
<path d="M0 0 C1.875 1.0625 1.875 1.0625 3 3 C3.5378374 7.14903134 3.44164777 9.27443581 1.25 12.875 C-0.96160897 14.96374181 -2.02750614 15.68151851 -5 16 C-5 16.66 -5 17.32 -5 18 C-16.82103089 19.16363273 -24.64068314 16.27383404 -35 11 C-35.27199219 11.64195312 -35.54398437 12.28390625 -35.82421875 12.9453125 C-37 15 -37 15 -39.8125 15.875 C-43.21173782 16.00830344 -45.01590126 15.574941 -48 14 C-50 12 -50 12 -50.4375 9.6875 C-49.78639541 5.68785752 -48.23864131 4.36150929 -45 2 C-37.67214113 1.07488825 -32.84419652 3.58553102 -26.4375 6.9375 C-18.11182973 11.26462603 -18.11182973 11.26462603 -9 13 C-9.5259375 12.195625 -9.5259375 12.195625 -10.0625 11.375 C-11.33302894 8.15632669 -10.98013473 6.29045231 -10 3 C-7.02462107 -0.30597659 -4.31685053 -0.5510873 0 0 Z " fill="#F4F2DB" transform="translate(296,195)"/>
<path d="M0 0 C0.33 0 0.66 0 1 0 C1.08196118 4.18001995 0.89445704 7.92212105 0 12 C1.23234375 12.10957031 2.4646875 12.21914063 3.734375 12.33203125 C18.77564377 13.74857606 18.77564377 13.74857606 25.1875 15.625 C32.37471256 17.65950256 39.60249083 17.25346795 47 17 C47 18.65 47 20.3 47 22 C41.53946189 23.84640153 36.91630113 24.23767294 31.1796875 24.046875 C30.35800079 24.02659241 29.53631409 24.00630981 28.68972778 23.9854126 C26.96341437 23.94008531 25.237235 23.88936116 23.51123047 23.83349609 C20.87615321 23.75003653 18.24118674 23.68828474 15.60546875 23.62890625 C13.92183849 23.58202252 12.23824248 23.53388828 10.5546875 23.484375 C9.77124969 23.46654968 8.98781189 23.44872437 8.18063354 23.43035889 C4.05157608 23.28303546 0.72281418 22.83689664 -3 21 C-3.43230491 13.65081658 -1.81774185 7.09784913 0 0 Z " fill="#F9EBDC" transform="translate(259,422)"/>
<path d="M0 0 C0.33 0 0.66 0 1 0 C1.33 1.98 1.66 3.96 2 6 C2.33 5.34 2.66 4.68 3 4 C5.21484375 3.55078125 5.21484375 3.55078125 7.9375 3.3125 C8.83339844 3.22613281 9.72929687 3.13976562 10.65234375 3.05078125 C13 3 13 3 15 4 C15 5.65 15 7.3 15 9 C14.34773438 9.02578125 13.69546875 9.0515625 13.0234375 9.078125 C7.34647626 9.44654136 3.34940176 9.9851676 -1 14 C-1.96219702 16.62766389 -1.96219702 16.62766389 -2 19 C-0.989375 18.67 0.02125 18.34 1.0625 18 C6.54859938 16.4372929 11.472374 16.86195935 17 18 C18.58272601 16.41727399 18.34735747 14.61965997 18.5625 12.4375 C18.64628906 11.61121094 18.73007813 10.78492188 18.81640625 9.93359375 C18.90728516 8.97646484 18.90728516 8.97646484 19 8 C19.33 8 19.66 8 20 8 C21.38529821 13.45461169 22.2396943 18.36718401 22 24 C15.30648696 27.08931371 9.34843219 27.79358945 2 27 C-2.91666667 25.08333333 -2.91666667 25.08333333 -5 23 C-4.46362432 17.72450757 -3.2645701 12.68789796 -1.9375 7.5625 C-1.75123047 6.83095703 -1.56496094 6.09941406 -1.37304688 5.34570312 C-0.9186242 3.56296802 -0.45977534 1.78136213 0 0 Z " fill="#F9EBDB" transform="translate(195,423)"/>
<path d="M0 0 C2.64 0.33 5.28 0.66 8 1 C7.01 1.495 7.01 1.495 6 2 C6 2.66 6 3.32 6 4 C7.65 4 9.3 4 11 4 C11.11312574 9.56830033 10.91707276 14.96027356 10.3125 20.5 C9.69884193 27.94279571 10.85934158 34.24031698 15.25 40.375 C17 43 17 43 16.75 45.375 C16.5025 45.91125 16.255 46.4475 16 47 C13.525 47.495 13.525 47.495 11 48 C2.80556897 38.39273604 2.35563598 29.22020756 3 17 C3.466976 11.97233871 4.20790254 6.98597061 5 2 C3.35 1.67 1.7 1.34 0 1 C0 0.67 0 0.34 0 0 Z " fill="#FCF4E3" transform="translate(292,213)"/>
<path d="M0 0 C0 3.19438687 -0.60618354 4.23283065 -2 7 C-2.49565507 9.07673398 -2.49565507 9.07673398 -2.76196289 11.27783203 C-2.87870865 12.11194611 -2.99545441 12.94606018 -3.11573792 13.80545044 C-3.29241249 15.14311966 -3.29241249 15.14311966 -3.47265625 16.5078125 C-3.60063095 17.42964325 -3.72860565 18.351474 -3.86045837 19.30123901 C-4.26780446 22.24162117 -4.6657543 25.1831703 -5.0625 28.125 C-5.4640389 31.0737788 -5.86760523 34.02224371 -6.2752533 36.97018433 C-6.52842267 38.80374283 -6.7778481 40.63782285 -7.02320862 42.47244263 C-7.13680222 43.30025238 -7.25039581 44.12806213 -7.36743164 44.98095703 C-7.46576797 45.71057648 -7.56410431 46.44019592 -7.66542053 47.19192505 C-8 49 -8 49 -9 51 C-9.66 51 -10.32 51 -11 51 C-11.08302368 49.94087402 -11.08302368 49.94087402 -11.16772461 48.86035156 C-11.42083142 45.65661463 -11.67910904 42.45331489 -11.9375 39.25 C-12.02451172 38.13882813 -12.11152344 37.02765625 -12.20117188 35.8828125 C-12.28818359 34.81289063 -12.37519531 33.74296875 -12.46484375 32.640625 C-12.543396 31.65610352 -12.62194824 30.67158203 -12.70288086 29.65722656 C-12.91678781 27.06201954 -12.91678781 27.06201954 -13.61547852 24.87792969 C-14.20579661 21.99492855 -12.91067408 19.84044926 -11.80078125 17.21484375 C-10.96487072 14.90283755 -10.68265794 12.80754876 -10.375 10.375 C-9.77750056 7.29681093 -9.24678656 6.22092841 -6.875 4.09765625 C-4.6310295 2.60751959 -2.3844335 1.25109165 0 0 Z " fill="#6B9389" transform="translate(267,253)"/>
<path d="M0 0 C0.33 0 0.66 0 1 0 C1 3.3 1 6.6 1 10 C1.99 10.33 2.98 10.66 4 11 C4.37125 11.721875 4.7425 12.44375 5.125 13.1875 C7.54312809 16.81469214 10.46949663 18.49627542 14.13671875 20.765625 C14.75160156 21.17296875 15.36648438 21.5803125 16 22 C16 22.33 16 22.66 16 23 C14.58456585 23.19658808 13.16755969 23.38187546 11.75 23.5625 C10.96109375 23.66691406 10.1721875 23.77132813 9.359375 23.87890625 C6.99467126 24.00027349 5.2488963 23.69633257 3 23 C3 22.34 3 21.68 3 21 C3.66 21 4.32 21 5 21 C5 20.34 5 19.68 5 19 C3.35 19.66 1.7 20.32 0 21 C0 19.68 0 18.36 0 17 C-0.66 17 -1.32 17 -2 17 C-3.60725635 13.78548731 -3.05748185 10.56387464 -3 7 C-6.3 6.34 -9.6 5.68 -13 5 C-13 7.31 -13 9.62 -13 12 C-13.99 12.33 -14.98 12.66 -16 13 C-16.33 13.99 -16.66 14.98 -17 16 C-17 14.68 -17 13.36 -17 12 C-16.34 12 -15.68 12 -15 12 C-15.33 8.7 -15.66 5.4 -16 2 C-10.72 2.33 -5.44 2.66 0 3 C0 2.01 0 1.02 0 0 Z " fill="#EBB9AA" transform="translate(277,406)"/>
<path d="M0 0 C1.32 0 2.64 0 4 0 C4.20496094 0.85464844 4.40992188 1.70929688 4.62109375 2.58984375 C4.89050781 3.69457031 5.15992188 4.79929688 5.4375 5.9375 C5.83775391 7.59072266 5.83775391 7.59072266 6.24609375 9.27734375 C6.72995725 11.89421254 6.72995725 11.89421254 8 13 C9.71068502 21.93357734 9.72602595 29.6164416 6 38 C4.68 37.67 3.36 37.34 2 37 C2.15984375 36.32195312 2.3196875 35.64390625 2.484375 34.9453125 C4.06478263 25.91783254 3.43195334 17.01453634 0.66796875 8.3203125 C-0.14606425 5.49261892 -0.23718253 2.92525122 0 0 Z " fill="#EDF0DC" transform="translate(245,220)"/>
<path d="M0 0 C0.08333357 4.8333472 -0.04738513 9.23692563 -1 14 C-0.34 14 0.32 14 1 14 C1 15.65 1 17.3 1 19 C-2.31114834 20.12880057 -5.58978257 21.21302675 -9 22 C-10.32594359 16.03325384 -10.0884587 10.07416385 -10 4 C-3.375 0 -3.375 0 0 0 Z " fill="#F2AE97" transform="translate(294,176)"/>
<path d="M0 0 C1.76462683 3.08809695 2 4.23312136 2 8 C2.66 8.33 3.32 8.66 4 9 C3.34 9 2.68 9 2 9 C1.79375 9.639375 1.5875 10.27875 1.375 10.9375 C0 13 0 13 -2.8125 13.875 C-6.21173782 14.00830344 -8.01590126 13.574941 -11 12 C-13 10 -13 10 -13.4375 7.6875 C-12.17633281 -0.05966991 -6.52283062 -0.55278226 0 0 Z " fill="#E4DFCB" transform="translate(259,197)"/>
<path d="M0 0 C15.51 0 31.02 0 47 0 C46.67 0.99 46.34 1.98 46 3 C41.39675167 4.17867052 37.01476071 4.08866058 32.3046875 3.984375 C31.47542755 3.96787903 30.6461676 3.95138306 29.79177856 3.93438721 C28.04519889 3.89701028 26.29868419 3.8564801 24.55224609 3.81298828 C21.87735373 3.75005538 19.20265398 3.70873445 16.52734375 3.66796875 C14.82809393 3.62893407 13.12887305 3.58861366 11.4296875 3.546875 C10.62965302 3.53734802 9.82961853 3.52782104 9.00534058 3.51800537 C4.48546714 3.37822493 3.33378191 3.33378191 0 0 Z " fill="#D5D4CD" transform="translate(258,442)"/>
<path d="M0 0 C1.875 1.0625 1.875 1.0625 3 3 C3.1875 6.6875 3.1875 6.6875 3 10 C-0.78187881 11.83691257 -2.94568308 12.15837626 -7 11 C-5.68 10.67 -4.36 10.34 -3 10 C-3.99 9.67 -4.98 9.34 -6 9 C-6.33 8.34 -6.66 7.68 -7 7 C-8.98 7.99 -8.98 7.99 -11 9 C-10.51780822 3.57534247 -10.51780822 3.57534247 -8.3125 1.125 C-5.30746287 -0.33690996 -3.30322178 -0.42168789 0 0 Z " fill="#E9E0C7" transform="translate(296,195)"/>
<path d="M0 0 C0.99 -0.33 1.98 -0.66 3 -1 C5.40016865 1.40016865 5.68053501 3.24321685 6.046875 6.55859375 C5.9573333 11.22222374 4.4334847 15.5942617 3 20 C2.34 20 1.68 20 1 20 C0.97421875 19.27554688 0.9484375 18.55109375 0.921875 17.8046875 C0.47074341 10.11494455 -1.13149276 5.28165652 -7 0 C-3.98968256 -0.93423645 -3.13349732 -1.04449911 0 0 Z " fill="#5F3932" transform="translate(274,81)"/>
<path d="M0 0 C3.63 0.33 7.26 0.66 11 1 C10.21863261 9.12622089 10.21863261 9.12622089 7 12 C4.5 12.5625 4.5 12.5625 2 12 C0.125 9.9375 0.125 9.9375 -1 7 C-0.6875 3.1875 -0.6875 3.1875 0 0 Z " fill="#F5B5A0" transform="translate(264,411)"/>
<path d="M0 0 C0.33 0 0.66 0 1 0 C1.33 1.98 1.66 3.96 2 6 C2.33 5.34 2.66 4.68 3 4 C5.21484375 3.55078125 5.21484375 3.55078125 7.9375 3.3125 C8.83339844 3.22613281 9.72929687 3.13976562 10.65234375 3.05078125 C13 3 13 3 15 4 C15 5.65 15 7.3 15 9 C14.03900391 9.03867187 14.03900391 9.03867187 13.05859375 9.078125 C6.9410516 9.4792753 3.0874978 10.57146888 -2 14 C-1.43393721 9.30976546 -0.81462495 4.65499974 0 0 Z " fill="#F5D9CB" transform="translate(195,423)"/>
<path d="M0 0 C0.33 0.99 0.66 1.98 1 3 C0.34 3.66 -0.32 4.32 -1 5 C-1.66 6.65 -2.32 8.3 -3 10 C-6.63 10 -10.26 10 -14 10 C-14 7.03 -14 4.06 -14 1 C-7.07 1.495 -7.07 1.495 0 2 C0 1.34 0 0.68 0 0 Z " fill="#F3B8A4" transform="translate(214,406)"/>
<path d="M0 0 C0.33 0 0.66 0 1 0 C2.5912689 4.873261 3.21192221 8.80790596 3 14 C0.03 14.66 -2.94 15.32 -6 16 C-5.33333333 12 -4.66666667 8 -4 4 C-2.68 3.67 -1.36 3.34 0 3 C0 2.01 0 1.02 0 0 Z " fill="#97B7AE" transform="translate(294,162)"/>
<path d="M0 0 C8.80171974 0.61358142 17.35954742 2.29549385 26 4 C25.67 5.32 25.34 6.64 25 8 C16.75 6.35 8.5 4.7 0 3 C0 2.01 0 1.02 0 0 Z " fill="#77A095" transform="translate(222,232)"/>
<path d="M0 0 C1.32 0 2.64 0 4 0 C4.53093324 1.93475671 5.04942317 3.87293155 5.5625 5.8125 C5.85253906 6.89144531 6.14257812 7.97039062 6.44140625 9.08203125 C7 12 7 12 6 15 C5.34 15 4.68 15 4 15 C3.67 15.66 3.34 16.32 3 17 C-0.44419134 5.47835991 -0.44419134 5.47835991 0 0 Z " fill="#EBE9D8" transform="translate(245,220)"/>
<path d="M0 0 C-1 3 -1 3 -3.3125 4.1875 C-10.32638164 5.73293155 -17.39364118 6.05468335 -24 3 C-24 2.34 -24 1.68 -24 1 C-23.40461426 1.00523682 -22.80922852 1.01047363 -22.19580078 1.01586914 C-19.50554453 1.03661999 -16.81530511 1.04965407 -14.125 1.0625 C-13.18785156 1.07087891 -12.25070313 1.07925781 -11.28515625 1.08789062 C-10.38925781 1.09111328 -9.49335938 1.09433594 -8.5703125 1.09765625 C-7.74289551 1.10289307 -6.91547852 1.10812988 -6.06298828 1.11352539 C-3.7438908 0.98590642 -2.32182533 0 0 0 Z " fill="#D4D1CA" transform="translate(216,445)"/>
<path d="M0 0 C1.13973277 3.36529203 0.84992251 5.33920646 -0.25 8.6875 C-0.52972656 9.55503906 -0.80945313 10.42257813 -1.09765625 11.31640625 C-1.39542969 12.20199219 -1.69320312 13.08757812 -2 14 C-2.28746094 14.87527344 -2.57492188 15.75054687 -2.87109375 16.65234375 C-3.57086206 18.77173773 -4.28044314 20.88725858 -5 23 C-5.33 23 -5.66 23 -6 23 C-7.64608247 15.97302609 -7.2865696 11.60154123 -3.5625 5.3125 C-2.40138902 3.52425275 -1.2224955 1.74685766 0 0 Z " fill="#759E94" transform="translate(232,162)"/>
<path d="M0 0 C3.8373228 2.49872182 7.45960866 5.0843836 11 8 C9.58456585 8.19658808 8.16755969 8.38187546 6.75 8.5625 C5.96109375 8.66691406 5.1721875 8.77132813 4.359375 8.87890625 C1.99467126 9.00027349 0.2488963 8.69633257 -2 8 C-2 7.34 -2 6.68 -2 6 C-1.34 6 -0.68 6 0 6 C0 5.34 0 4.68 0 4 C-1.65 4.66 -3.3 5.32 -5 6 C-4.34 4.68 -3.68 3.36 -3 2 C-2.01 2 -1.02 2 0 2 C0 1.34 0 0.68 0 0 Z " fill="#F9DFD1" transform="translate(282,421)"/>
<path d="M0 0 C2.97 0.495 2.97 0.495 6 1 C4.68 1.33 3.36 1.66 2 2 C1.95875 2.680625 1.9175 3.36125 1.875 4.0625 C0.62367313 8.26338305 -1.53932051 11.28964482 -5 14 C-8.875 14.4375 -8.875 14.4375 -12 14 C-11.01 15.485 -11.01 15.485 -10 17 C-9.74239721 19.69452521 -9.91099947 22.28548375 -10 25 C-10.33 25 -10.66 25 -11 25 C-12.13764351 20.73383684 -13 17.43513689 -13 13 C-12.13375 12.814375 -11.2675 12.62875 -10.375 12.4375 C-6.42130173 10.7535174 -4.84363416 8.81553961 -2.296875 5.4609375 C-1.86890625 4.97882813 -1.4409375 4.49671875 -1 4 C-0.34 4 0.32 4 1 4 C0.67 2.68 0.34 1.36 0 0 Z " fill="#9EB4A4" transform="translate(262,207)"/>
<path d="M0 0 C0.2475 0.639375 0.495 1.27875 0.75 1.9375 C1.81562433 4.18741541 1.81562433 4.18741541 4.125 4.75 C4.74375 4.8325 5.3625 4.915 6 5 C4.68 5.33 3.36 5.66 2 6 C4.76276177 5.47731534 7.3260876 4.89130413 10 4 C9.61402985 6.79828356 9.19863427 7.8205884 7.0625 9.75 C5 11 5 11 3 11 C3 11.66 3 12.32 3 13 C1.35 13 -0.3 13 -2 13 C-0.68 12.67 0.64 12.34 2 12 C1.2660481 9.02252712 1.2660481 9.02252712 -0.5625 7.5 C-2 6 -2 6 -2 3 C-1.34 3 -0.68 3 0 3 C0 2.01 0 1.02 0 0 Z " fill="#F3E9D3" transform="translate(288,200)"/>
<path d="M0 0 C0.33 0 0.66 0 1 0 C1.08302368 0.84594727 1.08302368 0.84594727 1.16772461 1.70898438 C1.423235 4.30609726 1.680358 6.90304817 1.9375 9.5 C2.02451172 10.386875 2.11152344 11.27375 2.20117188 12.1875 C2.72553092 17.46993182 3.31735538 22.73564146 4 28 C-0.54805635 28.17835515 -3.8794254 27.99785435 -8 26 C-8 25.67 -8 25.34 -8 25 C-6.576875 25.061875 -6.576875 25.061875 -5.125 25.125 C-1.89755144 25.34973818 -1.89755144 25.34973818 0 23 C0.27787668 20.57402049 0.27787668 20.57402049 0.1953125 17.7734375 C0.18886719 16.7421875 0.18242187 15.7109375 0.17578125 14.6484375 C0.15902344 13.56820312 0.14226562 12.48796875 0.125 11.375 C0.11597656 10.28703125 0.10695313 9.1990625 0.09765625 8.078125 C0.07403409 5.38519848 0.04109556 2.69270745 0 0 Z " fill="#9CB2A3" transform="translate(283,180)"/>
<path d="M0 0 C3.71599191 -0.20086443 4.77208445 -0.1519437 8 2 C9.65549531 2.38499891 11.3222433 2.72793135 13 3 C13 3.66 13 4.32 13 5 C14.17755859 5.18175781 14.17755859 5.18175781 15.37890625 5.3671875 C21.05051213 6.27186083 26.52492254 7.2579299 32 9 C32 9.66 32 10.32 32 11 C27.08331393 10.29540404 22.43849104 9.09255897 17.6875 7.6875 C16.93927979 7.46747314 16.19105957 7.24744629 15.42016602 7.02075195 C10.05913797 5.40644739 5.03341235 3.47094788 0 1 C0 0.67 0 0.34 0 0 Z " fill="#F0CDC2" transform="translate(191,202)"/>
<path d="M0 0 C0.66 0.33 1.32 0.66 2 1 C1.01950158 4.43174448 0.17394544 6.79024226 -2.125 9.5625 C-5.00519788 14.84286279 -4.31472313 20.10768354 -4 26 C-7 24 -7 24 -7.5390625 22.109375 C-7.85073277 13.55260946 -4.09147534 7.24358134 0 0 Z " fill="#F0CCC1" transform="translate(195,176)"/>
<path d="M0 0 C3.7602899 1.88014495 4.9686299 2.54667082 7 6 C7 7.32 7 8.64 7 10 C1.25 10.125 1.25 10.125 -1 9 C-0.67 6.03 -0.34 3.06 0 0 Z " fill="#F3C8B9" transform="translate(260,425)"/>
<path d="M0 0 C2.375 0.1875 2.375 0.1875 5 1 C6.3125 3.5625 6.3125 3.5625 7 6 C6.01 6 5.02 6 4 6 C4 7.32 4 8.64 4 10 C3.34 10 2.68 10 2 10 C2 10.66 2 11.32 2 12 C1.34 12 0.68 12 0 12 C0 15.3 0 18.6 0 22 C-0.33 22 -0.66 22 -1 22 C-1.51819247 11.38665045 -1.51819247 11.38665045 0.625 7.0625 C2.35232697 4.14013353 2.35232697 4.14013353 1.1875 1.5625 C0.795625 1.046875 0.40375 0.53125 0 0 Z " fill="#604640" transform="translate(232,77)"/>
<path d="M0 0 C0.99 0.33 1.98 0.66 3 1 C2.67 2.32 2.34 3.64 2 5 C1.34 5 0.68 5 0 5 C-0.226875 5.556875 -0.45375 6.11375 -0.6875 6.6875 C-2.40622159 9.71572375 -4.32788397 11.77323664 -7 14 C-9.3125 13.8125 -9.3125 13.8125 -11 13 C-9.576875 12.1028125 -9.576875 12.1028125 -8.125 11.1875 C-4.86035803 9.18437474 -4.86035803 9.18437474 -3 6 C-5.64 6 -8.28 6 -11 6 C-11.33 5.34 -11.66 4.68 -12 4 C-10.39125 4.061875 -10.39125 4.061875 -8.75 4.125 C-5.34287835 4.01142928 -3.73773233 3.89535315 -1 2 C-0.67 1.34 -0.34 0.68 0 0 Z " fill="#DDBDA9" transform="translate(261,206)"/>
<path d="M0 0 C4.4560939 3.84146026 6.75096899 7.90045333 7.21875 13.72265625 C7.26808982 18.30509182 7.00284618 22.51954207 6 27 C5.01 27 4.02 27 3 27 C3.165 26.21625 3.33 25.4325 3.5 24.625 C4.61107108 16.5697347 4.27726574 10.4721659 1 3 C0.67 2.01 0.34 1.02 0 0 Z " fill="#7AA39A" transform="translate(282,152)"/>
<path d="M0 0 C0.70962891 0.48919922 0.70962891 0.48919922 1.43359375 0.98828125 C7.74806172 5.16099985 15.18847068 9.27164431 23 8 C25.29215045 6.20808968 25.29215045 6.20808968 27 4 C27.66 3.34 28.32 2.68 29 2 C29.25 4.3125 29.25 4.3125 29 7 C26.08155431 9.81757775 23.88319794 10.45325717 19.875 10.5 C12.25421312 10.30616472 5.7572122 6.89166321 0 2 C0 1.34 0 0.68 0 0 Z " fill="#A1AE9E" transform="translate(239,130)"/>
<path d="M0 0 C0.33 0.99 0.66 1.98 1 3 C3.97 3.495 3.97 3.495 7 4 C6.38125 4.061875 5.7625 4.12375 5.125 4.1875 C4.42375 4.455625 3.7225 4.72375 3 5 C2.28272222 6.64551962 1.61674772 8.31422289 1 10 C-3.36547384 12.91031589 -6.98525061 11.8703944 -12 11 C-15.125 9.9375 -15.125 9.9375 -17 9 C-17 8.67 -17 8.34 -17 8 C-15.33388095 7.957279 -13.66617115 7.95936168 -12 8 C-11.67 8.33 -11.34 8.66 -11 9 C-9.31391034 9.07205511 -7.62499341 9.08386068 -5.9375 9.0625 C-5.01839844 9.05347656 -4.09929687 9.04445312 -3.15234375 9.03515625 C-2.44207031 9.02355469 -1.73179687 9.01195312 -1 9 C-0.06576355 5.98968256 0.04449911 5.13349732 -1 2 C-0.67 1.34 -0.34 0.68 0 0 Z " fill="#DBBBAB" transform="translate(264,127)"/>
<path d="M0 0 C0.66 0 1.32 0 2 0 C3.83069903 3.12929178 4.23931181 5.37643146 4.1953125 8.984375 C4.18886719 9.91894531 4.18242187 10.85351562 4.17578125 11.81640625 C4.15902344 12.78449219 4.14226562 13.75257813 4.125 14.75 C4.11597656 15.73355469 4.10695313 16.71710938 4.09765625 17.73046875 C4.07412785 20.15389407 4.04125368 22.57682222 4 25 C3.67 25 3.34 25 3 25 C2.49389097 21.77176021 1.99620093 18.54227635 1.5 15.3125 C1.35691406 14.40048828 1.21382813 13.48847656 1.06640625 12.54882812 C0.93105469 11.66259766 0.79570312 10.77636719 0.65625 9.86328125 C0.53056641 9.05157471 0.40488281 8.23986816 0.27539062 7.40356445 C-0.00977723 4.91466595 -0.04674739 2.50293311 0 0 Z " fill="#99B1AB" transform="translate(257,378)"/>
<path d="M0 0 C0 0.99 0 1.98 0 3 C-2.31 3.66 -4.62 4.32 -7 5 C-7.33 10.61 -7.66 16.22 -8 22 C-8.33 22 -8.66 22 -9 22 C-10.32594359 16.03325384 -10.0884587 10.07416385 -10 4 C-3.375 0 -3.375 0 0 0 Z " fill="#C0A094" transform="translate(294,176)"/>
<path d="M0 0 C0.66 0.33 1.32 0.66 2 1 C1.67 1.99 1.34 2.98 1 4 C1.87483915 6.16715557 1.87483915 6.16715557 3 8 C5.64 8 8.28 8 11 8 C11 6.02 11 4.04 11 2 C11.33 2 11.66 2 12 2 C12 4.31 12 6.62 12 9 C9.22578757 10.88646445 7.86760546 10.99303187 4.4375 10.8125 C1 10 1 10 -0.9375 8.75 C-2.39100294 6.35599515 -2.35256314 4.7499925 -2 2 C-1.34 1.34 -0.68 0.68 0 0 Z " fill="#F9E7D2" transform="translate(248,200)"/>
<path d="M0 0 C3.2826932 1.49076434 5.93077441 3.38620321 8.75 5.625 C9.94882813 6.57246094 9.94882813 6.57246094 11.171875 7.5390625 C11.77515625 8.02117187 12.3784375 8.50328125 13 9 C12.67 10.32 12.34 11.64 12 13 C10.82780457 12.21654285 9.66236332 11.42297164 8.5 10.625 C7.8503125 10.18414062 7.200625 9.74328125 6.53125 9.2890625 C6.0259375 8.86367187 5.520625 8.43828125 5 8 C5 7.34 5 6.68 5 6 C4.360625 5.7525 3.72125 5.505 3.0625 5.25 C1 4 1 4 0.25 1.875 C0.1675 1.25625 0.085 0.6375 0 0 Z " fill="#D99989" transform="translate(201,170)"/>
<path d="M0 0 C0.56203125 0.29648438 1.1240625 0.59296875 1.703125 0.8984375 C4.01967305 2.00943503 6.30709092 2.83464706 8.75 3.625 C9.54921875 3.88539062 10.3484375 4.14578125 11.171875 4.4140625 C11.77515625 4.60742188 12.3784375 4.80078125 13 5 C13 6.32 13 7.64 13 9 C8.47328804 8.46744565 5.5799445 6.78440128 2 4 C0.625 1.75 0.625 1.75 0 0 Z " fill="#E49785" transform="translate(250,116)"/>
<path d="M0 0 C0.66 0.33 1.32 0.66 2 1 C2 2.98 2 4.96 2 7 C4.475 7.99 4.475 7.99 7 9 C7 9.33 7 9.66 7 10 C4 11 1 12 -2 13 C-1.85915204 11.20793453 -1.71216299 9.41635083 -1.5625 7.625 C-1.48128906 6.62726563 -1.40007812 5.62953125 -1.31640625 4.6015625 C-1 2 -1 2 0 0 Z " fill="#F3B29C" transform="translate(288,185)"/>
<path d="M0 0 C3.3 0.33 6.6 0.66 10 1 C10.33 2.65 10.66 4.3 11 6 C4.6 5.63076923 4.6 5.63076923 1.5625 2.4375 C1.046875 1.633125 0.53125 0.82875 0 0 Z " fill="#725D5A" transform="translate(235,106)"/>
<path d="M0 0 C2 2 2 2 2.3125 5.6875 C2.22482384 10.04739633 0.93666181 13.12667637 -1 17 C-1.66 16.67 -2.32 16.34 -3 16 C-2.57910004 10.39538469 -2.08386889 5.27913453 0 0 Z " fill="#F1C9BF" transform="translate(304,200)"/>
<path d="M0 0 C2.9375 0.4375 2.9375 0.4375 4.875 1.625 C5.9375 3.4375 5.9375 3.4375 5.625 6.125 C5.398125 6.888125 5.17125 7.65125 4.9375 8.4375 C2.9375 5.4375 2.9375 5.4375 2.9375 3.4375 C-0.3625 3.7675 -3.6625 4.0975 -7.0625 4.4375 C-4.76482915 1.60959742 -3.67301925 0.52471704 0 0 Z " fill="#F0D7BF" transform="translate(293.0625,194.5625)"/>
<path d="M0 0 C2.31 0.66 4.62 1.32 7 2 C5.68 2.33 4.36 2.66 3 3 C3 5.31 3 7.62 3 10 C2.01 10.33 1.02 10.66 0 11 C-0.33 11.99 -0.66 12.98 -1 14 C-1 12.68 -1 11.36 -1 10 C-0.34 10 0.32 10 1 10 C0.67 6.7 0.34 3.4 0 0 Z " fill="#EBC8BD" transform="translate(261,408)"/>
<path d="M0 0 C0.33 0.99 0.66 1.98 1 3 C-2 5 -2 5 -4.69921875 4.7578125 C-5.68535156 4.54898437 -6.67148438 4.34015625 -7.6875 4.125 C-8.68136719 3.92132813 -9.67523438 3.71765625 -10.69921875 3.5078125 C-11.45847656 3.34023438 -12.21773437 3.17265625 -13 3 C-13 5.31 -13 7.62 -13 10 C-13.33 10 -13.66 10 -14 10 C-14 7.03 -14 4.06 -14 1 C-7.07 1.495 -7.07 1.495 0 2 C0 1.34 0 0.68 0 0 Z " fill="#D7B9AE" transform="translate(214,406)"/>
<path d="M0 0 C4.70588235 0.70588235 4.70588235 0.70588235 6 2 C6.04080783 3.99958364 6.04254356 6.00045254 6 8 C5.34 7.67 4.68 7.34 4 7 C4 5.68 4 4.36 4 3 C3.67 3 3.34 3 3 3 C3.33 3.99 3.66 4.98 4 6 C2.125 6.625 2.125 6.625 0 7 C-0.66 6.34 -1.32 5.68 -2 5 C-1.46428571 1.46428571 -1.46428571 1.46428571 0 0 Z " fill="#E0D6C0" transform="translate(253,200)"/>
<path d="M0 0 C0.33 0 0.66 0 1 0 C1.05398987 2.27057377 1.09278742 4.54151288 1.125 6.8125 C1.14820313 8.07707031 1.17140625 9.34164062 1.1953125 10.64453125 C1 14 1 14 -1 17 C-1 16.34 -1 15.68 -1 15 C-1.66 15 -2.32 15 -3 15 C-3.33 15.99 -3.66 16.98 -4 18 C-5.32 17.01 -6.64 16.02 -8 15 C-6.02 14.34 -4.04 13.68 -2 13 C-1.34 8.71 -0.68 4.42 0 0 Z " fill="#EBD0C4" transform="translate(245,114)"/>
<path d="M0 0 C0.99 0.66 1.98 1.32 3 2 C2.60140439 3.92050612 2.18034074 5.83635712 1.75 7.75 C1.51796875 8.81734375 1.2859375 9.8846875 1.046875 10.984375 C-0.09308628 14.26814405 -1.38117228 15.77074995 -4 18 C-3.67 16.35 -3.34 14.7 -3 13 C-2.34 13 -1.68 13 -1 13 C-1.01160156 12.39671875 -1.02320313 11.7934375 -1.03515625 11.171875 C-1.04869141 9.97304687 -1.04869141 9.97304687 -1.0625 8.75 C-1.07410156 7.96109375 -1.08570313 7.1721875 -1.09765625 6.359375 C-1.00385306 4.09308998 -0.63241063 2.1711105 0 0 Z " fill="#F0CAC0" transform="translate(273,100)"/>
<path d="M0 0 C0.99 0 1.98 0 3 0 C2.34 2.97 1.68 5.94 1 9 C1.99 8.67 2.98 8.34 4 8 C4.33 9.32 4.66 10.64 5 12 C2.625 11.75 2.625 11.75 0 11 C-2.15275035 8.1296662 -2.37047658 5.51952747 -2 2 C-1.34 1.34 -0.68 0.68 0 0 Z " fill="#D39D8F" transform="translate(240,95)"/>
<path d="M0 0 C0.928125 0.2784375 0.928125 0.2784375 1.875 0.5625 C4.04160178 1.23686176 4.04160178 1.23686176 6 0 C6.66 2.31 7.32 4.62 8 7 C5.6875 7.3125 5.6875 7.3125 3 7 C1.18116991 4.6167054 0 3.04181663 0 0 Z " fill="#63433D" transform="translate(232,99)"/>
<path d="M0 0 C2.64978792 4.50463947 1.93597257 8.02818241 1 13 C0.3974699 15.02024799 -0.24320565 17.03233469 -1 19 C-1.33 19 -1.66 19 -2 19 C-2.02698189 17.37509046 -2.04638757 15.75005367 -2.0625 14.125 C-2.07410156 13.22007813 -2.08570313 12.31515625 -2.09765625 11.3828125 C-2 9 -2 9 -1 7 C-0.34 7 0.32 7 1 7 C0.67 4.69 0.34 2.38 0 0 Z " fill="#837068" transform="translate(278,82)"/>
<path d="M0 0 C0.33 0 0.66 0 1 0 C1 3.3 1 6.6 1 10 C1.99 10.33 2.98 10.66 4 11 C4.33 12.98 4.66 14.96 5 17 C4.01 17 3.02 17 2 17 C1.87625 16.195625 1.7525 15.39125 1.625 14.5625 C1.315625 13.2940625 1.315625 13.2940625 1 12 C0.34 11.67 -0.32 11.34 -1 11 C-0.67 7.37 -0.34 3.74 0 0 Z " fill="#ECCCC2" transform="translate(277,406)"/>
<path d="M0 0 C0.33 0 0.66 0 1 0 C1.33 4.29 1.66 8.58 2 13 C1.01 13.33 0.02 13.66 -1 14 C-2.13732426 10.59598052 -1.83989957 8.22543336 -1.0625 4.75 C-0.86785156 3.85796875 -0.67320312 2.9659375 -0.47265625 2.046875 C-0.31667969 1.37140625 -0.16070312 0.6959375 0 0 Z " fill="#EDB6A9" transform="translate(294,176)"/>
<path d="M0 0 C0.33 0 0.66 0 1 0 C1.43177893 6.26079448 0.92739438 9.09075703 -3 14 C-4.37095624 10.30962722 -3.60010967 8.29116165 -2.0625 4.75 C-1.68222656 3.85796875 -1.30195313 2.9659375 -0.91015625 2.046875 C-0.60980469 1.37140625 -0.30945313 0.6959375 0 0 Z " fill="#A4BFB8" transform="translate(221,232)"/>
<path d="M0 0 C4.75 0.75 4.75 0.75 7 3 C6.401875 3.268125 5.80375 3.53625 5.1875 3.8125 C3.02775192 4.98493467 1.64209744 6.19369282 0 8 C-0.98120464 4.94736336 -0.98120464 3.05263664 0 0 Z " fill="#AAB9AB" transform="translate(223,212)"/>
<path d="M0 0 C0.52078125 0.15339844 1.0415625 0.30679688 1.578125 0.46484375 C4.63278515 1.13982511 7.63015971 1.34411118 10.75 1.5625 C11.92046875 1.64628906 13.0909375 1.73007813 14.296875 1.81640625 C15.18890625 1.87699219 16.0809375 1.93757812 17 2 C17 3.65 17 5.3 17 7 C16.38125 6.525625 15.7625 6.05125 15.125 5.5625 C11.39612446 3.69806223 8.32314453 3.47012304 4.20703125 3.2109375 C2 3 2 3 0 2 C0 1.34 0 0.68 0 0 Z " fill="#A3BBAE" transform="translate(273,211)"/>
<path d="M0 0 C0.66 0.33 1.32 0.66 2 1 C0.77472971 5.05281712 -0.69880494 8.44360764 -3 12 C-3.88336837 9.5332355 -4.1312406 8.36140628 -3.22265625 5.859375 C-2.83980469 5.16328125 -2.45695313 4.4671875 -2.0625 3.75 C-1.68222656 3.04359375 -1.30195313 2.3371875 -0.91015625 1.609375 C-0.60980469 1.07828125 -0.30945313 0.5471875 0 0 Z " fill="#EDC4B7" transform="translate(195,176)"/>
<path d="M0 0 C2.9375 0.25 2.9375 0.25 4.9375 1.25 C4.9375 1.91 4.9375 2.57 4.9375 3.25 C1.3075 3.25 -2.3225 3.25 -6.0625 3.25 C-3.0625 0.25 -3.0625 0.25 0 0 Z " fill="#FBE4D3" transform="translate(205.0625,428.75)"/>
<path d="M0 0 C0.33 0 0.66 0 1 0 C1.09038099 5.15171623 0.84681133 9.91913204 0 15 C-0.66 15 -1.32 15 -2 15 C-2.19392201 9.47322267 -1.7479503 5.24385089 0 0 Z " fill="#A6BDB6" transform="translate(290,290)"/>
<path d="M0 0 C0.33 0.66 0.66 1.32 1 2 C-0.25 4.5625 -0.25 4.5625 -2 7 C-2.99 7.33 -3.98 7.66 -5 8 C-5 8.66 -5 9.32 -5 10 C-5.66 10 -6.32 10 -7 10 C-5.6062718 5.56541027 -3.39417765 3.12621626 0 0 Z " fill="#B3CAC4" transform="translate(218,136)"/>
<path d="M0 0 C3.3 0 6.6 0 10 0 C10.33 0.99 10.66 1.98 11 3 C7.04 3 3.08 3 -1 3 C-0.67 2.01 -0.34 1.02 0 0 Z " fill="#FEE4D2" transform="translate(200,423)"/>
<path d="M0 0 C0.33 0 0.66 0 1 0 C0.03644647 10.55808656 0.03644647 10.55808656 -1 15 C-1.33 15 -1.66 15 -2 15 C-2.05406122 13.06280622 -2.09282025 11.12518079 -2.125 9.1875 C-2.14820313 8.10855469 -2.17140625 7.02960938 -2.1953125 5.91796875 C-2 3 -2 3 0 0 Z " fill="#A9BEB7" transform="translate(286,317)"/>
<path d="M0 0 C0.33 0 0.66 0 1 0 C1.18451025 9.41002278 1.18451025 9.41002278 0 14 C-0.99 14 -1.98 14 -3 14 C-2.01 9.38 -1.02 4.76 0 0 Z " fill="#799B90" transform="translate(288,165)"/>
<path d="M0 0 C1.98 0.495 1.98 0.495 4 1 C4 1.99 4 2.98 4 4 C2.68 4.33 1.36 4.66 0 5 C0 6.98 0 8.96 0 11 C-0.33 11 -0.66 11 -1 11 C-1.0270043 9.54176788 -1.04639787 8.08339325 -1.0625 6.625 C-1.07410156 5.81289062 -1.08570313 5.00078125 -1.09765625 4.1640625 C-1 2 -1 2 0 0 Z " fill="#86ACA4" transform="translate(290,161)"/>
<path d="M0 0 C3.36720387 1.39332574 4.9859524 2.9789286 7 6 C6.67 6.66 6.34 7.32 6 8 C5.01 7.67 4.02 7.34 3 7 C2.3125 4.9375 2.3125 4.9375 2 3 C1.34 3 0.68 3 0 3 C0 2.01 0 1.02 0 0 Z " fill="#816965" transform="translate(271,73)"/>
<path d="M0 0 C0.33 1.32 0.66 2.64 1 4 C0.01 4.33 -0.98 4.66 -2 5 C-2 5.66 -2 6.32 -2 7 C-3.32 6.67 -4.64 6.34 -6 6 C-6 4.68 -6 3.36 -6 2 C-4.35 2.33 -2.7 2.66 -1 3 C-0.67 2.01 -0.34 1.02 0 0 Z " fill="#B1C6B4" transform="translate(252,254)"/>
<path d="M0 0 C2.64 0.33 5.28 0.66 8 1 C7.01 1.495 7.01 1.495 6 2 C6 2.66 6 3.32 6 4 C6.99 4.33 7.98 4.66 9 5 C8.34 5.66 7.68 6.32 7 7 C6.34 8.32 5.68 9.64 5 11 C5 8.03 5 5.06 5 2 C3.35 1.67 1.7 1.34 0 1 C0 0.67 0 0.34 0 0 Z " fill="#F2E3CF" transform="translate(292,213)"/>
<path d="M0 0 C2.0625 0.4375 2.0625 0.4375 4 1 C2.4375 2.5625 2.4375 2.5625 0 4 C-3.6875 3.8125 -3.6875 3.8125 -7 3 C-7.33 2.34 -7.66 1.68 -8 1 C-6.865625 1.020625 -5.73125 1.04125 -4.5625 1.0625 C-1.18424326 1.41577477 -1.18424326 1.41577477 0 0 Z " fill="#A4B09F" transform="translate(238,201)"/>
<path d="M0 0 C0 3.18470342 -0.46025618 6.05023907 -1 9.1875 C-1.185625 10.27417969 -1.37125 11.36085937 -1.5625 12.48046875 C-1.706875 13.31191406 -1.85125 14.14335937 -2 15 C-2.33 15 -2.66 15 -3 15 C-3.08078641 12.87561661 -3.13909141 10.7503677 -3.1875 8.625 C-3.22230469 7.44164062 -3.25710938 6.25828125 -3.29296875 5.0390625 C-3.19628906 4.03617188 -3.09960938 3.03328125 -3 2 C-2.01 1.34 -1.02 0.68 0 0 Z " fill="#E49989" transform="translate(289,179)"/>
<path d="M0 0 C0.33 0.66 0.66 1.32 1 2 C0.67 2.66 0.34 3.32 0 4 C0.66 4.33 1.32 4.66 2 5 C1.34 5 0.68 5 0 5 C0 5.66 0 6.32 0 7 C-0.66 7 -1.32 7 -2 7 C-2 10.3 -2 13.6 -2 17 C-2.33 17 -2.66 17 -3 17 C-3.55353075 5.47835991 -3.55353075 5.47835991 0 0 Z " fill="#8C7B74" transform="translate(234,82)"/>
<path d="M0 0 C2 2 2 2 2.125 5.625 C2.08375 6.73875 2.0425 7.8525 2 9 C1.67 8.34 1.34 7.68 1 7 C-0.32 7 -1.64 7 -3 7 C-2.690625 6.401875 -2.38125 5.80375 -2.0625 5.1875 C-0.89790296 2.91043228 -0.89790296 2.91043228 0 0 Z " fill="#F9F3E6" transform="translate(215,438)"/>
<path d="M0 0 C1 3 1 3 -0.1875 6 C-1.91646162 8.86172959 -3.19955455 10.26179248 -6 12 C-4.68139111 7.38486888 -2.78644563 3.90102388 0 0 Z " fill="#AEC8C2" transform="translate(207,151)"/>
<path d="M0 0 C3.37503669 1.1858237 5.64722731 2.27573689 8 5 C6.3125 5.8125 6.3125 5.8125 4 6 C1.25 3.5625 1.25 3.5625 -1 1 C-0.67 0.67 -0.34 0.34 0 0 Z " fill="#86716F" transform="translate(263,68)"/>
<path d="M0 0 C0.93065133 2.60582371 1.14917407 3.64198224 0.0625 6.25 C-0.4634375 7.11625 -0.4634375 7.11625 -1 8 C-1.99 8 -2.98 8 -4 8 C-4.25 5.6875 -4.25 5.6875 -4 3 C-2 1.1875 -2 1.1875 0 0 Z " fill="#55332E" transform="translate(236,69)"/>
<path d="M0 0 C5.75 1.875 5.75 1.875 8 3 C8 3.99 8 4.98 8 6 C5.6875 5.8125 5.6875 5.8125 3 5 C1.1875 2.4375 1.1875 2.4375 0 0 Z " fill="#796361" transform="translate(246,58)"/>
<path d="M0 0 C0.66 0 1.32 0 2 0 C1.67 2.97 1.34 5.94 1 9 C0.34 8.67 -0.32 8.34 -1 8 C-1.04241723 5.66705225 -1.04092937 3.33297433 -1 1 C-0.67 0.67 -0.34 0.34 0 0 Z " fill="#E3BCAE" transform="translate(197,421)"/>
<path d="M0 0 C0.99 0.33 1.98 0.66 3 1 C2.34 2.65 1.68 4.3 1 6 C0.01 6 -0.98 6 -2 6 C-2 5.34 -2 4.68 -2 4 C-3.32 3.34 -4.64 2.68 -6 2 C-4.02 2 -2.04 2 0 2 C0 1.34 0 0.68 0 0 Z " fill="#E8C3AE" transform="translate(300,211)"/>
<path d="M0 0 C-0.66 1.65 -1.32 3.3 -2 5 C-3.98 4.34 -5.96 3.68 -8 3 C-5.45189726 -0.82215411 -4.39145359 -1.46381786 0 0 Z " fill="#E3BCAF" transform="translate(248,201)"/>
<path d="M0 0 C7.38461538 0.49230769 7.38461538 0.49230769 10.5 3.0625 C10.995 3.701875 11.49 4.34125 12 5 C10.37276701 4.54965877 8.74826336 4.08944646 7.125 3.625 C5.76761719 3.24214844 5.76761719 3.24214844 4.3828125 2.8515625 C2 2 2 2 0 0 Z " fill="#D0B9A5" transform="translate(230,214)"/>
<path d="M0 0 C4.56454251 0.54339792 7.9728176 1.79463821 12 4 C8.64474971 5.11841676 8.02910146 4.91538821 4.875 3.6875 C4.17117188 3.42324219 3.46734375 3.15898437 2.7421875 2.88671875 C1 2 1 2 0 0 Z " fill="#EBEEDB" transform="translate(258,198)"/>
<path d="M0 0 C5.75 1.75 5.75 1.75 8 4 C7.01 5.485 7.01 5.485 6 7 C5.34 7 4.68 7 4 7 C4 5.68 4 4.36 4 3 C2.68 2.34 1.36 1.68 0 1 C0 0.67 0 0.34 0 0 Z " fill="#AFACA1" transform="translate(210,176)"/>
<path d="M0 0 C0.33 0.99 0.66 1.98 1 3 C3.97 3.495 3.97 3.495 7 4 C6.360625 4.103125 5.72125 4.20625 5.0625 4.3125 C4.381875 4.539375 3.70125 4.76625 3 5 C2.67 5.99 2.34 6.98 2 8 C0.4375 6.25 0.4375 6.25 -1 4 C-0.6875 1.75 -0.6875 1.75 0 0 Z " fill="#ECCEC5" transform="translate(264,127)"/>
<path d="M0 0 C0.33 1.32 0.66 2.64 1 4 C-3.625 8 -3.625 8 -7 8 C-7 7.34 -7 6.68 -7 6 C-5.01310269 4.64721885 -3.01254782 3.31431695 -1 2 C-0.67 1.34 -0.34 0.68 0 0 Z " fill="#EDC1AB" transform="translate(298,205)"/>
<path d="M0 0 C3.36720387 1.39332574 4.9859524 2.9789286 7 6 C4.625 5.8125 4.625 5.8125 2 5 C0.6875 2.4375 0.6875 2.4375 0 0 Z " fill="#CD9B8D" transform="translate(201,170)"/>
<path d="M0 0 C2.475 0.495 2.475 0.495 5 1 C5.33 2.65 5.66 4.3 6 6 C4.125 5.8125 4.125 5.8125 2 5 C0.75 2.4375 0.75 2.4375 0 0 Z " fill="#5D362E" transform="translate(240,106)"/>
<path d="M0 0 C0.33 0 0.66 0 1 0 C1 2.31 1 4.62 1 7 C0.01 7 -0.98 7 -2 7 C-2 5.35 -2 3.7 -2 2 C-1.34 2 -0.68 2 0 2 C0 1.34 0 0.68 0 0 Z " fill="#FAF5E0" transform="translate(251,233)"/>
<path d="M0 0 C0.33 0.99 0.66 1.98 1 3 C-0.65 4.32 -2.3 5.64 -4 7 C-4 4 -4 4 -2 1.8125 C-1.34 1.214375 -0.68 0.61625 0 0 Z " fill="#FBE7CB" transform="translate(297,204)"/>
<path d="M0 0 C1.74627478 2.61941217 2.38722388 4.03824877 3 7 C1.35 6.67 -0.3 6.34 -2 6 C-1.125 1.125 -1.125 1.125 0 0 Z " fill="#ABC4BD" transform="translate(200,163)"/>
<path d="M0 0 C-5.29230769 4.06153846 -5.29230769 4.06153846 -8.875 3.75 C-9.57625 3.5025 -10.2775 3.255 -11 3 C-3.71428571 -1.85714286 -3.71428571 -1.85714286 0 0 Z " fill="#BCCDC9" transform="translate(235,131)"/>
<path d="M0 0 C2.97 1.98 2.97 1.98 6 4 C3 6 3 6 1 6 C0.67 4.02 0.34 2.04 0 0 Z " fill="#FBEEE4" transform="translate(282,421)"/>
</svg>
