<?xml version="1.0" encoding="UTF-8"?>
<svg version="1.1" xmlns="http://www.w3.org/2000/svg" width="500" height="500">
<path d="M0 0 C0 0.66 0 1.32 0 2 C0.60199219 2.2475 1.20398438 2.495 1.82421875 2.75 C4.34993292 4.20103866 5.25785924 5.56275339 6.8125 8 C9.77311207 12.15080787 12.03046082 12.77941143 17 14 C22.30755285 17.14075808 24.64223146 20.69764472 26.42431641 26.48266602 C27.39471803 30.72601256 27.39794112 34.8528675 27.3125 39.1875 C27.30629639 40.09935059 27.30009277 41.01120117 27.29370117 41.95068359 C27.18908119 48.5867465 26.4790354 54.87417824 25.14453125 61.3828125 C25.07298828 62.67832031 25.07298828 62.67832031 25 64 C25.46792969 64.45761719 25.93585938 64.91523437 26.41796875 65.38671875 C28.98460289 68.00405184 28.52968975 71.21854989 28.5 74.6875 C28.49718018 75.40703857 28.49436035 76.12657715 28.49145508 76.86791992 C28.31101009 82.7904061 27.0266092 86.70116933 23 91 C22.525625 91.53625 22.05125 92.0725 21.5625 92.625 C19.08161013 94.80818308 16.15303735 95.22661348 13 96 C9.69051108 106.34215287 10.76973842 116.86500863 12.015625 127.4765625 C12.15701904 128.71273315 12.15701904 128.71273315 12.30126953 129.97387695 C12.53145477 131.98289872 12.76534044 133.99149593 13 136 C14.01610352 135.97905273 15.03220703 135.95810547 16.07910156 135.93652344 C70.51301008 134.91325812 70.51301008 134.91325812 88 149 C88 149.66 88 150.32 88 151 C88.66 151 89.32 151 90 151 C90 151.66 90 152.32 90 153 C90.66 153 91.32 153 92 153 C92 153.66 92 154.32 92 155 C92.66 155 93.32 155 94 155 C95.59220427 156.98719341 97.05474599 158.97141191 98.5 161.0625 C98.94214844 161.6930127 99.38429688 162.32352539 99.83984375 162.97314453 C111.36587331 179.49079384 122.15487435 196.42721475 132 214 C132.52980469 214.92425781 133.05960937 215.84851563 133.60546875 216.80078125 C134.06566406 217.60902344 134.52585937 218.41726563 135 219.25 C135.391875 219.93578125 135.78375 220.6215625 136.1875 221.328125 C137 223 137 223 137 225 C136.34 225 135.68 225 135 225 C135.44484741 225.92727905 135.44484741 225.92727905 135.89868164 226.87329102 C138.31087741 231.90356185 140.7176425 236.9363372 143.1171875 241.97265625 C144.72546114 245.34607015 146.34385877 248.71231455 148.0078125 252.05859375 C164.63294422 286.12078223 164.63294422 286.12078223 161 303 C156.88611435 311.2751936 147.57929159 316.15415171 140 321 C138.95585937 321.680625 137.91171875 322.36125 136.8359375 323.0625 C123.24133646 331.69827634 108.50041726 338.24860761 93.94433594 345.07373047 C92.60772685 345.71048272 91.29323983 346.39515731 90.00097656 347.11767578 C88 348 88 348 84 348 C84.14165893 350.39614575 84.28818841 352.79182897 84.4375 355.1875 C84.47681641 355.86103516 84.51613281 356.53457031 84.55664062 357.22851562 C84.79000291 360.90845939 85.26947753 364.39340479 86 368 C86.29496412 371.53956944 86.50480948 375.07970001 86.71875 378.625 C86.92359353 381.86214118 86.92359353 381.86214118 87.4921875 384.453125 C88.17248325 387.86506985 88.39801665 391.28516593 88.625 394.75 C88.70234375 395.77673828 88.70234375 395.77673828 88.78125 396.82421875 C88.89724724 398.54711892 88.95368787 400.27382054 89 402 C88 403 88 403 85.12829494 403.12304783 C83.83133222 403.12212604 82.53436949 403.12120424 81.19810486 403.12025452 C80.1187654 403.12153615 80.1187654 403.12153615 79.0176211 403.12284368 C76.5884642 403.1245006 74.15937523 403.11897368 71.73022461 403.11352539 C69.99610903 403.11324354 68.26199332 403.11340121 66.52787781 403.1139679 C61.80493679 403.11425595 57.08202094 403.10835799 52.3590858 403.10139394 C47.4289721 403.09516166 42.49885788 403.0945567 37.56874084 403.09336853 C28.22603638 403.09025484 18.88334356 403.08204095 9.54064423 403.07201904 C-1.09279055 403.06085907 -11.72622587 403.05534775 -22.35966504 403.05032361 C-44.2397832 403.03985836 -66.11989087 403.02225819 -88 403 C-88.01470485 399.83464042 -88.02346752 396.66928982 -88.03125 393.50390625 C-88.03543945 392.61755493 -88.03962891 391.73120361 -88.04394531 390.81799316 C-88.05372634 385.4983346 -87.88822786 380.24311218 -87.5 374.9375 C-86.89878943 365.7761961 -86.88564705 356.61440823 -86.875 347.4375 C-86.87250244 346.70304657 -86.87000488 345.96859314 -86.86743164 345.21188354 C-86.84466686 337.05583294 -86.98207799 328.92926267 -87.4453125 320.78515625 C-87.48405487 320.09199814 -87.52279724 319.39884003 -87.56271362 318.68467712 C-87.8109951 314.73470336 -88.27960102 310.89113718 -89 307 C-89.9132605 307.50599731 -89.9132605 307.50599731 -90.8449707 308.0222168 C-93.66514829 309.58157145 -96.4887905 311.13455081 -99.3125 312.6875 C-100.26962891 313.21794922 -101.22675781 313.74839844 -102.21289062 314.29492188 C-117.62225328 322.75191215 -137.09357028 333.01218104 -155.3515625 329.5546875 C-160.33433 327.71000336 -162.9049161 324.33878633 -165.09375 319.6640625 C-174.1085051 298.22182358 -165.51904972 273.93165559 -157.25 253.4375 C-156.79125488 252.34912842 -156.79125488 252.34912842 -156.32324219 251.23876953 C-154.62845407 247.11402427 -153.79038687 243.58486015 -153.35888672 239.10571289 C-152.62933686 234.82519077 -150.69932641 230.94145424 -148.9375 227 C-148.53265381 226.07719238 -148.12780762 225.15438477 -147.71069336 224.20361328 C-144.38963017 216.70770312 -140.85284329 209.34298105 -137.06982422 202.0703125 C-135.90494493 199.81605044 -134.76698537 197.54915132 -133.62890625 195.28125 C-128.50654004 185.18548795 -122.82161163 176.02551693 -116 167 C-115.34 166.01 -114.68 165.02 -114 164 C-113.34 164 -112.68 164 -112 164 C-112 163.34 -112 162.68 -112 162 C-94.24191477 147.67539071 -64.46815917 141 -42 141 C-41.77426506 136.0880077 -41.5982246 131.6815415 -44.859375 127.76953125 C-46.43720503 126.44320097 -48.03724066 125.14292587 -49.65625 123.8671875 C-60.16608582 115.49435163 -63.90097614 101.77418398 -65.625 89 C-65.71160889 88.21133545 -65.79821777 87.4226709 -65.88745117 86.61010742 C-66.54977629 81.10865841 -68.09247643 77.71277514 -71 73 C-72.01171875 70.1640625 -72.01171875 70.1640625 -72.6875 67.625 C-73.34639621 64.53576282 -73.34639621 64.53576282 -75 62 C-76.48963018 56.23932079 -77.24527678 50.4523396 -77.55859375 44.51953125 C-77.92127234 41.80064622 -77.92127234 41.80064622 -79.515625 38.7734375 C-81.45131159 34.47429789 -81.4083595 30.46360313 -81.3125 25.8125 C-81.31572266 25.01908203 -81.31894531 24.22566406 -81.32226562 23.40820312 C-81.25694689 16.33596532 -81.25694689 16.33596532 -79 13 C-78.34 13 -77.68 13 -77 13 C-77 12.34 -77 11.68 -77 11 C-74.03 11 -71.06 11 -68 11 C-68 8.69 -68 6.38 -68 4 C-67.2471875 4.11859375 -66.494375 4.2371875 -65.71875 4.359375 C-56.06637367 5.53077989 -48.13430851 3.70910223 -39 1 C-37.68278144 0.62328323 -36.36507997 0.24825046 -35.046875 -0.125 C-32.69094467 -0.79530654 -30.33765388 -1.47502806 -27.98828125 -2.16796875 C-18.10396809 -4.92007163 -9.29824847 -4.64912423 0 0 Z M77 243 C76.70435539 256.69820033 77.21866107 270.32398447 77.9375 284 C77.98106628 284.85031799 78.02463257 285.70063599 78.06951904 286.57672119 C78.19657913 289.03059505 78.32949512 291.48407064 78.46484375 293.9375 C78.50344009 294.67636444 78.54203644 295.41522888 78.58180237 296.17648315 C78.794425 299.8657471 79.15832387 303.39898272 80 307 C81.83863505 305.88368586 83.67079723 304.75670373 85.5 303.625 C86.5209375 302.99851562 87.541875 302.37203125 88.59375 301.7265625 C89.3878125 301.15679687 90.181875 300.58703125 91 300 C91 299.34 91 298.68 91 298 C91.68449219 297.77570313 92.36898438 297.55140625 93.07421875 297.3203125 C96.76952662 295.65273699 99.65484933 293.38844769 102.8125 290.875 C103.40998047 290.40707031 104.00746094 289.93914062 104.62304688 289.45703125 C106.08616792 288.30994435 107.54366297 287.15568766 109 286 C105.46968402 279.31438329 101.72924748 272.85365074 97.59375 266.5234375 C96.2193681 264.34733283 95.03560006 262.1681211 93.875 259.875 C92.27694221 256.77898972 92.27694221 256.77898972 89.25 256.0625 C88.13625 256.0315625 88.13625 256.0315625 87 256 C87 255.34 87 254.68 87 254 C86.34 254 85.68 254 85 254 C84.773125 253.29875 84.54625 252.5975 84.3125 251.875 C82.6731919 248.28413464 80.65036303 245.92219514 78 243 C77.67 243 77.34 243 77 243 Z M-93 250 C-93.67154933 251.28913487 -94.33708859 252.58140204 -95 253.875 C-95.37125 254.59429687 -95.7425 255.31359375 -96.125 256.0546875 C-97.13673746 257.94848977 -97.13673746 257.94848977 -97 260 C-95.02 259.67 -93.04 259.34 -91 259 C-91.33 256.03 -91.66 253.06 -92 250 C-92.33 250 -92.66 250 -93 250 Z " fill="#6B857C" transform="translate(265,50)"/>
<path d="M0 0 C0 0.66 0 1.32 0 2 C0.60199219 2.2475 1.20398438 2.495 1.82421875 2.75 C4.34993292 4.20103866 5.25785924 5.56275339 6.8125 8 C9.77311207 12.15080787 12.03046082 12.77941143 17 14 C22.30755285 17.14075808 24.64223146 20.69764472 26.42431641 26.48266602 C27.39471803 30.72601256 27.39794112 34.8528675 27.3125 39.1875 C27.30629639 40.09935059 27.30009277 41.01120117 27.29370117 41.95068359 C27.18908119 48.5867465 26.4790354 54.87417824 25.14453125 61.3828125 C25.07298828 62.67832031 25.07298828 62.67832031 25 64 C25.46792969 64.45761719 25.93585938 64.91523437 26.41796875 65.38671875 C28.98460289 68.00405184 28.52968975 71.21854989 28.5 74.6875 C28.49718018 75.40703857 28.49436035 76.12657715 28.49145508 76.86791992 C28.31101009 82.7904061 27.0266092 86.70116933 23 91 C22.525625 91.53625 22.05125 92.0725 21.5625 92.625 C19.08161013 94.80818308 16.15303735 95.22661348 13 96 C8.85699336 108.94689576 11.3228332 122.79231145 13 136 C14.32 136 15.64 136 17 136 C18.14513695 145.58522038 14.96846563 152.76923376 9.20703125 160.36328125 C3.08272903 167.06844513 -5.40815593 171.26289284 -14.4453125 172.2734375 C-23.92623965 172.63277293 -30.44366008 169.65604429 -37.375 163.25 C-43.19690442 156.99292293 -45.38880359 150.40395061 -46 142 C-44.68 141.67 -43.36 141.34 -42 141 C-41.77426506 136.0880077 -41.5982246 131.6815415 -44.859375 127.76953125 C-46.43720503 126.44320097 -48.03724066 125.14292587 -49.65625 123.8671875 C-60.16608582 115.49435163 -63.90097614 101.77418398 -65.625 89 C-65.71160889 88.21133545 -65.79821777 87.4226709 -65.88745117 86.61010742 C-66.54977629 81.10865841 -68.09247643 77.71277514 -71 73 C-72.01171875 70.1640625 -72.01171875 70.1640625 -72.6875 67.625 C-73.34639621 64.53576282 -73.34639621 64.53576282 -75 62 C-76.48963018 56.23932079 -77.24527678 50.4523396 -77.55859375 44.51953125 C-77.92127234 41.80064622 -77.92127234 41.80064622 -79.515625 38.7734375 C-81.45131159 34.47429789 -81.4083595 30.46360313 -81.3125 25.8125 C-81.31572266 25.01908203 -81.31894531 24.22566406 -81.32226562 23.40820312 C-81.25694689 16.33596532 -81.25694689 16.33596532 -79 13 C-78.34 13 -77.68 13 -77 13 C-77 12.34 -77 11.68 -77 11 C-74.03 11 -71.06 11 -68 11 C-68 8.69 -68 6.38 -68 4 C-67.2471875 4.11859375 -66.494375 4.2371875 -65.71875 4.359375 C-56.06637367 5.53077989 -48.13430851 3.70910223 -39 1 C-37.68278144 0.62328323 -36.36507997 0.24825046 -35.046875 -0.125 C-32.69094467 -0.79530654 -30.33765388 -1.47502806 -27.98828125 -2.16796875 C-18.10396809 -4.92007163 -9.29824847 -4.64912423 0 0 Z " fill="#F4B28B" transform="translate(265,50)"/>
<path d="M0 0 C8.45510736 16.70783184 16.59178336 33.38196274 23 51 C23.27739014 51.73669922 23.55478027 52.47339844 23.84057617 53.23242188 C26.61224765 60.93768517 27.57174037 68.88832672 26 77 C22.02345546 85.27865414 12.52491031 90.18892059 5 95 C3.95585937 95.680625 2.91171875 96.36125 1.8359375 97.0625 C-11.75866354 105.69827634 -26.49958274 112.24860761 -41.05566406 119.07373047 C-42.39227315 119.71048272 -43.70676017 120.39515731 -44.99902344 121.11767578 C-47 122 -47 122 -51 122 C-51 123.98 -51 125.96 -51 128 C-51.33 128 -51.66 128 -52 128 C-52 126.35 -52 124.7 -52 123 C-74.16491597 131.71479257 -74.16491597 131.71479257 -94.9921875 143.12890625 C-106.24460592 150.12878732 -117.31430272 152.14175928 -130.3125 152.25 C-131.18519531 152.25942627 -132.05789063 152.26885254 -132.95703125 152.27856445 C-141.21186866 152.23636669 -141.21186866 152.23636669 -145 150 C-145.8125 147.375 -145.8125 147.375 -146 145 C-147.03125 145.0825 -148.0625 145.165 -149.125 145.25 C-153.64643516 144.95829451 -155.61875696 143.96889633 -159 141 C-159 139.68 -159 138.36 -159 137 C-160.423125 137.0309375 -160.423125 137.0309375 -161.875 137.0625 C-165 137 -165 137 -167 136 C-166.67 134.35 -166.34 132.7 -166 131 C-159.38662851 128.56197916 -153.04751938 128.77175355 -146.0625 128.875 C-144.90169922 128.88402344 -143.74089844 128.89304687 -142.54492188 128.90234375 C-139.69639892 128.92578838 -136.84830922 128.95860478 -134 129 C-134 128.34 -134 127.68 -134 127 C-135.74023438 127.05220703 -135.74023438 127.05220703 -137.515625 127.10546875 C-147.26529095 127.30719318 -157.03878131 127.48060935 -166 123 C-164.41987986 119.50116255 -163.39126684 118.69563342 -160 117 C-160.33 114.36 -160.66 111.72 -161 109 C-162.485 109.495 -162.485 109.495 -164 110 C-165.21319104 106.36042687 -164.73983613 104.20652972 -164.125 100.4375 C-163.94195312 99.28121094 -163.75890625 98.12492187 -163.5703125 96.93359375 C-163 94 -163 94 -162 92 C-160.68 92 -159.36 92 -158 92 C-156.25 94.5 -156.25 94.5 -155 97 C-155.20625 95.906875 -155.4125 94.81375 -155.625 93.6875 C-156.28899103 88.38505738 -155.67460842 83.07508877 -154 78 C-152.515 77.01 -152.515 77.01 -151 76 C-147 80.625 -147 80.625 -147 84 C-145.68 84 -144.36 84 -143 84 C-143.061875 82.7625 -143.12375 81.525 -143.1875 80.25 C-143.20078062 76.47830471 -142.54852586 74.85434896 -140 72 C-139.65772583 70.66893378 -139.32248257 69.33599921 -139 68 C-138.01 67.505 -138.01 67.505 -137 67 C-136.87625 66.195625 -136.7525 65.39125 -136.625 64.5625 C-136 62 -136 62 -133.9375 60.6875 C-133.298125 60.460625 -132.65875 60.23375 -132 60 C-126.8656172 64.27865233 -126.14897645 69.68062955 -125 76 C-124.505 74.515 -124.505 74.515 -124 73 C-124 77.67325155 -125.07242637 79.82359047 -127 84 C-126.34 84 -125.68 84 -125 84 C-124.67 82.02 -124.34 80.04 -124 78 C-123.34 78 -122.68 78 -122 78 C-121.505 76.515 -121.505 76.515 -121 75 C-117.62465725 76.37278091 -116.3367265 77.5776937 -114.8125 80.875 C-114.48894531 81.55304688 -114.16539062 82.23109375 -113.83203125 82.9296875 C-113 85 -113 85 -112.51171875 87.1328125 C-112.10356633 89.2264757 -112.10356633 89.2264757 -110 91 C-109.01 91.495 -109.01 91.495 -108 92 C-107.505 90.515 -107.505 90.515 -107 89 C-105.98805294 90.07218201 -104.99081943 91.15826378 -104 92.25 C-103.443125 92.85328125 -102.88625 93.4565625 -102.3125 94.078125 C-101 96 -101 96 -101 100 C-99.515 100.495 -99.515 100.495 -98 101 C-97.67 101.66 -97.34 102.32 -97 103 C-93.98264906 104.18588909 -91.20862962 104.32371931 -88 104 C-84.60465009 102.50300867 -81.71006018 100.45633111 -78.7265625 98.26269531 C-76.71223528 96.78954764 -74.67048602 95.35924323 -72.625 93.9296875 C-68.9785973 91.37774457 -65.34763343 88.8052725 -61.7265625 86.2175293 C-60.16896587 85.11915057 -58.58582393 84.05721595 -57 83 C-56.26393501 79.43230448 -56.26393501 79.43230448 -56 76 C-55.34 77.32 -54.68 78.64 -54 80 C-53.16855469 79.3503125 -53.16855469 79.3503125 -52.3203125 78.6875 C-51.59585938 78.130625 -50.87140625 77.57375 -50.125 77 C-49.40570313 76.443125 -48.68640625 75.88625 -47.9453125 75.3125 C-46 74 -46 74 -44 74 C-44 73.34 -44 72.68 -44 72 C-42.70668816 71.09118628 -41.4030197 70.19540039 -40.06640625 69.3515625 C-35.58471831 66.42025054 -31.31798178 63.16549554 -27 60 C-30.01020433 54.29935664 -33.11618534 48.72350143 -36.625 43.3125 C-39.42420892 38.99265653 -41.8048888 34.65363575 -44 30 C-43.17757812 29.57589844 -42.35515625 29.15179688 -41.5078125 28.71484375 C-35.0740343 25.33450994 -29.05540834 21.84796823 -23.21875 17.48046875 C-20.89250133 15.92827113 -18.62421528 14.94711995 -16 14 C-16 13.34 -16 12.68 -16 12 C-14.46729429 10.64864497 -12.87223227 9.36746113 -11.25 8.125 C-8.60372307 6.08999756 -6.12976762 4.1329888 -3.796875 1.7421875 C-2 0 -2 0 0 0 Z M-128 84 C-127 86 -127 86 -127 86 Z " fill="#F4B38C" transform="translate(400,276)"/>
<path d="M0 0 C2.1875 0.3125 2.1875 0.3125 4 1 C4.23723421 6.93085536 3.67528032 11.3865627 0.4375 16.4375 C-1.33903054 19.60435879 -1.64846898 22.41438358 -2 26 C-1.40832031 25.73445313 -0.81664062 25.46890625 -0.20703125 25.1953125 C3.8349177 23.38863385 7.8699437 21.59873147 12 20 C12 19.01 12 18.02 12 17 C15.37097383 15.50178941 17.20442119 15 21 15 C21 14.34 21 13.68 21 13 C22.98 12.34 24.96 11.68 27 11 C27 10.34 27 9.68 27 9 C29.01171875 7.4921875 29.01171875 7.4921875 31.6875 5.875 C32.55761719 5.33617187 33.42773438 4.79734375 34.32421875 4.2421875 C37.15423253 2.92840008 38.9233227 2.74499612 42 3 C42.25299097 5.89461498 42.36835849 7.47435344 40.6706543 9.89697266 C40.06133057 10.4801123 39.45200684 11.06325195 38.82421875 11.6640625 C38.16099609 12.31117188 37.49777344 12.95828125 36.81445312 13.625 C36.11255859 14.285 35.41066406 14.945 34.6875 15.625 C33.99720703 16.29273438 33.30691406 16.96046875 32.59570312 17.6484375 C31.30857028 18.89204411 30.01636708 20.13043963 28.7175293 21.36181641 C27.58047621 22.44634039 26.47381186 23.56372134 25.40161133 24.71240234 C24 26 24 26 22 26 C22 26.66 22 27.32 22 28 C22.54527344 27.62488281 23.09054687 27.24976563 23.65234375 26.86328125 C28.23591882 23.75271834 32.85309757 20.8581277 37.734375 18.23828125 C39.30803448 17.37819495 40.85926825 16.47629566 42.390625 15.54296875 C43.16921875 15.07503906 43.9478125 14.60710937 44.75 14.125 C45.44609375 13.69445312 46.1421875 13.26390625 46.859375 12.8203125 C49.58669825 11.77517038 51.23401057 12.21662537 54 13 C53.84846454 18.00067019 51.12318531 20.21804473 47.69140625 23.44921875 C47.13324219 23.96097656 46.57507813 24.47273438 46 25 C45.34 25.66 44.68 26.32 44 27 C44.721875 26.505 45.44375 26.01 46.1875 25.5 C49.14848659 23.92080715 50.71253029 23.71821688 54 24 C54.2734375 26.2265625 54.2734375 26.2265625 54 29 C47.76566519 36.50773085 38.18813102 43.63372899 29 47 C29 47.66 29 48.32 29 49 C35.58265805 46.55223063 35.58265805 46.55223063 41.75 43.25 C44.62155267 41.65469296 46.76831619 41.77453369 50 42 C50 44.125 50 44.125 49 47 C43.49066365 52.24442878 36.49109775 55.63950435 29.75 59 C28.70094482 59.52400391 27.65188965 60.04800781 26.57104492 60.58789062 C16.9881236 65.23924586 7.28979338 68.35532816 -3 71 C-12.02757226 73.34012937 -18.7261817 76.36254015 -26.31005859 81.81542969 C-29.49119634 84.04525926 -32.78797459 86.09852033 -36.0625 88.1875 C-42.57213127 92.38252951 -49.02544874 96.65729533 -55.4375 101 C-56.26064697 101.55196045 -57.08379395 102.1039209 -57.93188477 102.67260742 C-58.69557373 103.19314697 -59.4592627 103.71368652 -60.24609375 104.25 C-61.26207642 104.93835938 -61.26207642 104.93835938 -62.29858398 105.640625 C-66.2574207 108.80360432 -66.45963454 112.22677179 -67 117 C-67.33 117 -67.66 117 -68 117 C-68.33 115.02 -68.66 113.04 -69 111 C-69.60884033 111.33733154 -70.21768066 111.67466309 -70.8449707 112.0222168 C-73.66514829 113.58157145 -76.4887905 115.13455081 -79.3125 116.6875 C-80.26962891 117.21794922 -81.22675781 117.74839844 -82.21289062 118.29492188 C-97.62225328 126.75191215 -117.09357028 137.01218104 -135.3515625 133.5546875 C-140.33433 131.71000336 -142.9049161 128.33878633 -145.09375 123.6640625 C-154.13827033 102.15102486 -145.4579424 77.80879475 -137.1875 57.25 C-136.87329102 56.49928223 -136.55908203 55.74856445 -136.23535156 54.97509766 C-134.67706651 51.17277835 -133.57878095 48.1956721 -134 44 C-133.34 44 -132.68 44 -132 44 C-131.2575 44.763125 -130.515 45.52625 -129.75 46.3125 C-126.97304795 49.02633951 -124.52594801 50.44202297 -121 52 C-121 52.66 -121 53.32 -121 54 C-120.49339844 54.09667969 -119.98679687 54.19335938 -119.46484375 54.29296875 C-116.00988503 55.28401079 -112.82473071 56.82523256 -109.5625 58.3125 C-99.58935784 62.74462852 -90.09230076 66.75202039 -79 66 C-78.67 65.34 -78.34 64.68 -78 64 C-75.67843403 63.59270772 -73.3431213 63.25561323 -71 63 C-71 61.35 -71 59.7 -71 58 C-70.01 59.98 -70.01 59.98 -69 62 C-68.44650879 61.7733667 -67.89301758 61.5467334 -67.32275391 61.31323242 C-64.75875314 60.26655448 -62.19191494 59.22700953 -59.625 58.1875 C-58.75488281 57.83107422 -57.88476562 57.47464844 -56.98828125 57.10742188 C-51.80852752 55.01633611 -46.63293349 53.23942844 -41.27246094 51.67358398 C-31.7381381 48.86666613 -31.7381381 48.86666613 -24.85400391 42.09228516 C-22.78518376 37.5682068 -21.3173262 32.8428449 -19.76953125 28.12207031 C-18.00339815 23.25175658 -15.03145461 19.15421557 -12 15 C-11.22914063 13.93523437 -10.45828125 12.87046875 -9.6640625 11.7734375 C-2.60861643 2.16269909 -2.60861643 2.16269909 0 0 Z " fill="#F3B28C" transform="translate(245,246)"/>
<path d="M0 0 C0 0.66 0 1.32 0 2 C0.60199219 2.2475 1.20398438 2.495 1.82421875 2.75 C4.34993292 4.20103866 5.25785924 5.56275339 6.8125 8 C9.77311207 12.15080787 12.03046082 12.77941143 17 14 C22.30293739 17.13802687 24.64294307 20.69351422 26.42431641 26.47387695 C27.40085342 30.75896112 27.39923543 34.9359748 27.3125 39.3125 C27.29993164 40.68474731 27.29993164 40.68474731 27.28710938 42.0847168 C27.1668736 48.87863899 26.5382902 55.36612351 25 62 C24.34 62 23.68 62 23 62 C23 62.66 23 63.32 23 64 C21.906875 64.12375 20.81375 64.2475 19.6875 64.375 C17.70464115 64.80238587 17.70464115 64.80238587 16 66 C14.45276506 69.22251691 13.67793523 72.5005629 13 76 C11.68 76 10.36 76 9 76 C8.83564453 74.69675781 8.83564453 74.69675781 8.66796875 73.3671875 C7.82387747 67.23208501 6.82043913 62.52335996 4 57 C3.64789579 55.00659114 3.339838 53.00517827 3.0625 51 C2.30300284 45.89871076 1.37808677 42.8899181 -2 39 C-5.82122708 36.45251528 -8.5838396 36.43451605 -13 37 C-16.53116916 37.89976906 -20.00860118 38.93358107 -23.5 39.9765625 C-32.37890887 42.57285059 -48.21878096 46.39060952 -57 42 C-59.3329866 41.95977609 -61.66706666 41.95679753 -64 42 C-66.40184127 49.48920586 -66.22820296 56.68832984 -66.125 64.5 C-66.11597656 65.799375 -66.10695312 67.09875 -66.09765625 68.4375 C-66.07421733 71.62519299 -66.0414044 74.8124982 -66 78 C-69 77 -69 77 -70.09765625 75.14453125 C-74.26660161 65.06817344 -76.98110605 55.45454028 -77.55859375 44.51953125 C-77.92127234 41.80064622 -77.92127234 41.80064622 -79.515625 38.7734375 C-81.45131159 34.47429789 -81.4083595 30.46360313 -81.3125 25.8125 C-81.31572266 25.01908203 -81.31894531 24.22566406 -81.32226562 23.40820312 C-81.25694689 16.33596532 -81.25694689 16.33596532 -79 13 C-78.34 13 -77.68 13 -77 13 C-77 12.34 -77 11.68 -77 11 C-74.03 11 -71.06 11 -68 11 C-68 8.69 -68 6.38 -68 4 C-67.2471875 4.11859375 -66.494375 4.2371875 -65.71875 4.359375 C-56.06637367 5.53077989 -48.13430851 3.70910223 -39 1 C-37.68278144 0.62328323 -36.36507997 0.24825046 -35.046875 -0.125 C-32.69094467 -0.79530654 -30.33765388 -1.47502806 -27.98828125 -2.16796875 C-18.10396809 -4.92007163 -9.29824847 -4.64912423 0 0 Z " fill="#714C3D" transform="translate(265,50)"/>
<path d="M0 0 C2.69048356 1.13283518 4.59503175 2.01528772 5.7421875 4.8046875 C6.24704242 6.86294219 6.6503239 8.91007541 7 11 C7.20625 11.99 7.4125 12.98 7.625 14 C7.74875 14.66 7.8725 15.32 8 16 C8.33 15.01 8.66 14.02 9 13 C9 17.67325155 7.92757363 19.82359047 6 24 C6.66 24 7.32 24 8 24 C8.33 22.02 8.66 20.04 9 18 C9.66 18 10.32 18 11 18 C11.495 16.515 11.495 16.515 12 15 C15.37534275 16.37278091 16.6632735 17.5776937 18.1875 20.875 C18.67283203 21.89207031 18.67283203 21.89207031 19.16796875 22.9296875 C20 25 20 25 20.48828125 27.1328125 C20.89643367 29.2264757 20.89643367 29.2264757 23 31 C23.66 31.33 24.32 31.66 25 32 C25.495 30.515 25.495 30.515 26 29 C27.01194706 30.07218201 28.00918057 31.15826378 29 32.25 C29.556875 32.85328125 30.11375 33.4565625 30.6875 34.078125 C32 36 32 36 32 40 C33.485 40.495 33.485 40.495 35 41 C34.01 41.495 34.01 41.495 33 42 C31.9275 41.566875 30.855 41.13375 29.75 40.6875 C19.26717744 36.55103488 7.14994476 36.59341443 -4 36 C-3.06483981 40.18881289 -3.06483981 40.18881289 -0.265625 43.171875 C0.39953125 43.36265625 1.0646875 43.5534375 1.75 43.75 C2.81347656 44.08064453 2.81347656 44.08064453 3.8984375 44.41796875 C4.59195313 44.61003906 5.28546875 44.80210937 6 45 C11.83783784 46.83783784 11.83783784 46.83783784 14 49 C13.83203125 51.0234375 13.83203125 51.0234375 13 53 C2.81767189 57.99510436 -9.10379349 58.30090714 -20.23339844 59.30297852 C-21.06516602 59.37959717 -21.89693359 59.45621582 -22.75390625 59.53515625 C-23.49970947 59.600979 -24.2455127 59.66680176 -25.01391602 59.73461914 C-27.2055849 59.96419747 -27.2055849 59.96419747 -30 61 C-30.33 61.99 -30.66 62.98 -31 64 C-31.66 63.67 -32.32 63.34 -33 63 C-31.41987986 59.50116255 -30.39126684 58.69563342 -27 57 C-27.33 54.36 -27.66 51.72 -28 49 C-29.485 49.495 -29.485 49.495 -31 50 C-32.21319104 46.36042687 -31.73983613 44.20652972 -31.125 40.4375 C-30.94195312 39.28121094 -30.75890625 38.12492187 -30.5703125 36.93359375 C-30 34 -30 34 -29 32 C-27.68 32 -26.36 32 -25 32 C-23.25 34.5 -23.25 34.5 -22 37 C-22.20625 35.906875 -22.4125 34.81375 -22.625 33.6875 C-23.28899103 28.38505738 -22.67460842 23.07508877 -21 18 C-20.01 17.34 -19.02 16.68 -18 16 C-14 20.625 -14 20.625 -14 24 C-12.68 24 -11.36 24 -10 24 C-10.061875 22.7625 -10.12375 21.525 -10.1875 20.25 C-10.20078062 16.47830471 -9.54852586 14.85434896 -7 12 C-6.65772583 10.66893378 -6.32248257 9.33599921 -6 8 C-5.34 7.67 -4.68 7.34 -4 7 C-3.855625 6.195625 -3.71125 5.39125 -3.5625 4.5625 C-3 2 -3 2 0 0 Z M5 24 C6 26 6 26 6 26 Z " fill="#F19553" transform="translate(267,336)"/>
<path d="M0 0 C0.66 0.66 1.32 1.32 2 2 C1.47792969 2.32871094 0.95585937 2.65742188 0.41796875 2.99609375 C-5.27338681 6.67404507 -10.4560414 10.75535145 -15.6171875 15.14453125 C-18 17 -18 17 -21 18 C-21.13792969 18.59425781 -21.27585938 19.18851562 -21.41796875 19.80078125 C-22.2364942 22.8935989 -23.92468439 24.10451191 -26.3125 26.1875 C-27.09238281 26.88230469 -27.87226563 27.57710938 -28.67578125 28.29296875 C-30.89285641 29.92130798 -32.31613331 30.58851472 -35 31 C-35 31.66 -35 32.32 -35 33 C-35.99 33 -36.98 33 -38 33 C-38.33 33.99 -38.66 34.98 -39 36 C-40.485 36.495 -40.485 36.495 -42 37 C-43.58558381 38.63502936 -43.58558381 38.63502936 -45.0625 40.5625 C-46.59765625 42.50390625 -46.59765625 42.50390625 -48 44 C-48.66 44 -49.32 44 -50 44 C-50 44.66 -50 45.32 -50 46 C-50.66 46 -51.32 46 -52 46 C-52.22245975 43.75135275 -52.42746557 41.50097377 -52.625 39.25 C-52.74101562 37.99703125 -52.85703125 36.7440625 -52.9765625 35.453125 C-52.99945793 32.07986457 -52.99446418 30.64936287 -51 28 C-48.99609375 26.46484375 -48.99609375 26.46484375 -46.4375 24.9375 C-44.97183594 24.04224609 -44.97183594 24.04224609 -43.4765625 23.12890625 C-42.9290332 22.79648926 -42.38150391 22.46407227 -41.81738281 22.12158203 C-38.2755707 19.93578342 -34.79995867 17.64610766 -31.3125 15.375 C-28.54605278 13.57644316 -25.77517949 11.78505161 -23 10 C-22.27530518 9.53005615 -21.55061035 9.0601123 -20.80395508 8.57592773 C-20.09779053 8.12419189 -19.39162598 7.67245605 -18.6640625 7.20703125 C-18.03064941 6.7994458 -17.39723633 6.39186035 -16.74462891 5.97192383 C-14.5651547 4.75774991 -12.45088032 4.3713455 -10 4 C-9.67 3.34 -9.34 2.68 -9 2 C-7.00390625 1.296875 -7.00390625 1.296875 -4.5625 0.75 C-3.75941406 0.55921875 -2.95632812 0.3684375 -2.12890625 0.171875 C-1.07509766 0.08679688 -1.07509766 0.08679688 0 0 Z " fill="#50746D" transform="translate(231,324)"/>
<path d="M0 0 C2.69048356 1.13283518 4.59503175 2.01528772 5.7421875 4.8046875 C6.24704242 6.86294219 6.6503239 8.91007541 7 11 C7.20625 11.99 7.4125 12.98 7.625 14 C7.74875 14.66 7.8725 15.32 8 16 C8.33 15.01 8.66 14.02 9 13 C9 17.67325155 7.92757363 19.82359047 6 24 C6.66 24 7.32 24 8 24 C8.33 22.02 8.66 20.04 9 18 C9.66 18 10.32 18 11 18 C11.495 16.515 11.495 16.515 12 15 C15.37534275 16.37278091 16.6632735 17.5776937 18.1875 20.875 C18.67283203 21.89207031 18.67283203 21.89207031 19.16796875 22.9296875 C20 25 20 25 20.48828125 27.1328125 C20.89643367 29.2264757 20.89643367 29.2264757 23 31 C23.66 31.33 24.32 31.66 25 32 C25.495 30.515 25.495 30.515 26 29 C27.01194706 30.07218201 28.00918057 31.15826378 29 32.25 C29.556875 32.85328125 30.11375 33.4565625 30.6875 34.078125 C32 36 32 36 32 40 C33.485 40.495 33.485 40.495 35 41 C34.01 41.495 34.01 41.495 33 42 C31.9275 41.566875 30.855 41.13375 29.75 40.6875 C23.7559041 38.26766128 17.37517055 37.76108075 11 37 C12.98 36.505 12.98 36.505 15 36 C15.05389087 34.04196493 15.09274217 32.08351091 15.125 30.125 C15.14820313 29.03445313 15.17140625 27.94390625 15.1953125 26.8203125 C15.30060534 23.8628949 15.30060534 23.8628949 13 22 C12.67 23.32 12.34 24.64 12 26 C11.34 26 10.68 26 10 26 C10 26.66 10 27.32 10 28 C8.00045254 28.04254356 5.99958364 28.04080783 4 28 C3 27 3 27 2.875 23.5 C3 20 3 20 4 19 C4.84139502 12.34100372 4.84139502 12.34100372 2.8828125 6.16015625 C1.39197709 4.64219754 1.39197709 4.64219754 -1 3 C-0.938125 3.886875 -0.87625 4.77375 -0.8125 5.6875 C-1.02302941 9.40685284 -1.7867648 11.04901974 -4 14 C-4.99 14.66 -5.98 15.32 -7 16 C-7.58189266 18.42521494 -7.58189266 18.42521494 -7.6875 21.125 C-7.75324219 22.03507812 -7.81898438 22.94515625 -7.88671875 23.8828125 C-7.92410156 24.58148438 -7.96148437 25.28015625 -8 26 C-11.3125 25.8125 -11.3125 25.8125 -15 25 C-16.9375 22.4375 -16.9375 22.4375 -18 20 C-20.08150964 26.24452893 -19.37681259 33.63224179 -18 40 C-19.75 40.75 -19.75 40.75 -22 41 C-24.25 39.0625 -24.25 39.0625 -26 37 C-28.13586678 40.20380017 -28.23132175 41.01939967 -28.125 44.6875 C-28.10695312 45.49574219 -28.08890625 46.30398438 -28.0703125 47.13671875 C-28.04710937 47.75160156 -28.02390625 48.36648438 -28 49 C-29.485 49.495 -29.485 49.495 -31 50 C-32.21319104 46.36042687 -31.73983613 44.20652972 -31.125 40.4375 C-30.94195312 39.28121094 -30.75890625 38.12492187 -30.5703125 36.93359375 C-30 34 -30 34 -29 32 C-27.68 32 -26.36 32 -25 32 C-23.25 34.5 -23.25 34.5 -22 37 C-22.20625 35.906875 -22.4125 34.81375 -22.625 33.6875 C-23.28899103 28.38505738 -22.67460842 23.07508877 -21 18 C-20.01 17.34 -19.02 16.68 -18 16 C-14 20.625 -14 20.625 -14 24 C-12.68 24 -11.36 24 -10 24 C-10.061875 22.7625 -10.12375 21.525 -10.1875 20.25 C-10.20078062 16.47830471 -9.54852586 14.85434896 -7 12 C-6.65772583 10.66893378 -6.32248257 9.33599921 -6 8 C-5.34 7.67 -4.68 7.34 -4 7 C-3.855625 6.195625 -3.71125 5.39125 -3.5625 4.5625 C-3 2 -3 2 0 0 Z M5 24 C6 26 6 26 6 26 Z " fill="#B18367" transform="translate(267,336)"/>
<path d="M0 0 C0.85298376 3.67387495 1.10789471 7.0447393 1.0625 10.8125 C1.05347656 11.78832031 1.04445313 12.76414062 1.03515625 13.76953125 C1.02355469 14.50558594 1.01195312 15.24164063 1 16 C0.04867187 16.03867187 0.04867187 16.03867187 -0.921875 16.078125 C-7.78160271 16.49501453 -14.44875594 17.51379663 -21.1875 18.8125 C-22.01797852 18.96557617 -22.84845703 19.11865234 -23.70410156 19.27636719 C-28.80893486 20.29814318 -33.28727905 21.81963965 -37.97949219 24.07983398 C-40.91331524 25.41593586 -43.88086816 26.20362591 -47 27 C-46.505 25.515 -46.505 25.515 -46 24 C-45.34 24 -44.68 24 -44 24 C-44 23.34 -44 22.68 -44 22 C-41.69 21.34 -39.38 20.68 -37 20 C-37 19.01 -37 18.02 -37 17 C-36.01 17 -35.02 17 -34 17 C-33.92523438 16.38576172 -33.85046875 15.77152344 -33.7734375 15.13867188 C-33 13 -33 13 -31.1015625 11.78320312 C-30.28429687 11.45255859 -29.46703125 11.12191406 -28.625 10.78125 C-27.72136719 10.40613281 -26.81773437 10.03101563 -25.88671875 9.64453125 C-24.93410156 9.26683594 -23.98148437 8.88914062 -23 8.5 C-21.14562368 7.74009474 -19.29145515 6.97968222 -17.4375 6.21875 C-16.52871094 5.85265625 -15.61992187 5.4865625 -14.68359375 5.109375 C-11.36901027 3.73915417 -8.1187775 2.24626182 -4.875 0.71679688 C-3 0 -3 0 0 0 Z " fill="#50726C" transform="translate(348,399)"/>
<path d="M0 0 C1 3 1 3 -0.4375 6.1875 C-1.2109375 7.5796875 -1.2109375 7.5796875 -2 9 C-2.66 9 -3.32 9 -4 9 C-4.38285156 9.85271484 -4.38285156 9.85271484 -4.7734375 10.72265625 C-10.02015356 20.46417047 -18.93580751 26.20219151 -29 30 C-35.06191163 31.70976995 -40.8968672 31.22062656 -47 30 C-47 26.37 -47 22.74 -47 19 C-46.2575 19.33 -45.515 19.66 -44.75 20 C-35.66589934 22.42242684 -28.16077886 21.43188365 -20 17 C-19.31164062 16.68804687 -18.62328125 16.37609375 -17.9140625 16.0546875 C-9.93940575 12.41873289 -4.78930803 7.25652731 0 0 Z " fill="#EC926F" transform="translate(271,161)"/>
<path d="M0 0 C4.12751449 0.60698743 7.3321148 2.03810791 11 4 C11 4.66 11 5.32 11 6 C11.50660156 6.09667969 12.01320313 6.19335938 12.53515625 6.29296875 C15.99001452 7.28398198 19.1756016 8.82464369 22.4375 10.3125 C31.58978021 14.39761101 40.94453054 18.06460749 51 19 C46.80716051 21.18475204 42.47510298 22.6309161 38 24.125 C36.78957031 24.54072266 36.78957031 24.54072266 35.5546875 24.96484375 C34.38292969 25.35736328 34.38292969 25.35736328 33.1875 25.7578125 C32.47980469 25.9964502 31.77210938 26.23508789 31.04296875 26.48095703 C29 27 29 27 25 27 C25 27.66 25 28.32 25 29 C23.0848421 29.81604999 21.16781166 30.62770632 19.25 31.4375 C18.18265625 31.88996094 17.1153125 32.34242188 16.015625 32.80859375 C13.6586159 33.73979553 11.47007165 34.4784072 9 35 C9 35.66 9 36.32 9 37 C7.35 37.66 5.7 38.32 4 39 C4 39.66 4 40.32 4 41 C3.34 41 2.68 41 2 41 C5.03149823 33.49662317 14.00737237 28.49631382 21 25 C21.66 25 22.32 25 23 25 C23.33 24.01 23.66 23.02 24 22 C27.0625 20.8125 27.0625 20.8125 30 20 C30 19.34 30 18.68 30 18 C28.88625 17.7525 27.7725 17.505 26.625 17.25 C22.42410838 15.80141668 22.79378315 15.5875663 21 12 C17.45411499 10.70079254 17.45411499 10.70079254 14 10 C14 9.34 14 8.68 14 8 C11.69 7.34 9.38 6.68 7 6 C7 5.34 7 4.68 7 4 C5.02 3.34 3.04 2.68 1 2 C0.34 3.32 -0.32 4.64 -1 6 C-0.67 4.02 -0.34 2.04 0 0 Z " fill="#E69B7F" transform="translate(113,294)"/>
<path d="M0 0 C2.4375 1.0625 2.4375 1.0625 5 3 C5.8125 6.6875 5.8125 6.6875 6 10 C5.401875 9.21625 4.80375 8.4325 4.1875 7.625 C2.08914751 4.85425677 2.08914751 4.85425677 -1 3 C-0.938125 3.886875 -0.87625 4.77375 -0.8125 5.6875 C-1.02302941 9.40685284 -1.7867648 11.04901974 -4 14 C-4.99 14.66 -5.98 15.32 -7 16 C-7.58189266 18.42521494 -7.58189266 18.42521494 -7.6875 21.125 C-7.75324219 22.03507812 -7.81898438 22.94515625 -7.88671875 23.8828125 C-7.92410156 24.58148438 -7.96148437 25.28015625 -8 26 C-11.3125 25.8125 -11.3125 25.8125 -15 25 C-16.9375 22.4375 -16.9375 22.4375 -18 20 C-20.08150964 26.24452893 -19.37681259 33.63224179 -18 40 C-19.75 40.75 -19.75 40.75 -22 41 C-24.25 39.0625 -24.25 39.0625 -26 37 C-28.13586678 40.20380017 -28.23132175 41.01939967 -28.125 44.6875 C-28.10695312 45.49574219 -28.08890625 46.30398438 -28.0703125 47.13671875 C-28.04710937 47.75160156 -28.02390625 48.36648438 -28 49 C-29.485 49.495 -29.485 49.495 -31 50 C-32.21319104 46.36042687 -31.73983613 44.20652972 -31.125 40.4375 C-30.94195312 39.28121094 -30.75890625 38.12492187 -30.5703125 36.93359375 C-30 34 -30 34 -29 32 C-27.68 32 -26.36 32 -25 32 C-23.25 34.5 -23.25 34.5 -22 37 C-22.20625 35.906875 -22.4125 34.81375 -22.625 33.6875 C-23.28899103 28.38505738 -22.67460842 23.07508877 -21 18 C-20.01 17.34 -19.02 16.68 -18 16 C-14 20.625 -14 20.625 -14 24 C-12.68 24 -11.36 24 -10 24 C-10.061875 22.7625 -10.12375 21.525 -10.1875 20.25 C-10.20078062 16.47830471 -9.54852586 14.85434896 -7 12 C-6.65772583 10.66893378 -6.32248257 9.33599921 -6 8 C-5.34 7.67 -4.68 7.34 -4 7 C-3.855625 6.195625 -3.71125 5.39125 -3.5625 4.5625 C-3 2 -3 2 0 0 Z " fill="#B38663" transform="translate(267,336)"/>
<path d="M0 0 C0.99 0.495 0.99 0.495 2 1 C1.52492969 5.27563279 -0.95302534 7.16560497 -4 10 C-4.61875 10.721875 -5.2375 11.44375 -5.875 12.1875 C-8.68883265 14.58753373 -11.45119287 14.99450465 -15 16 C-18.66566814 17.96872231 -22.05239582 20.05239582 -25 23 C-27.26898513 23.91271206 -29.56535741 24.75820658 -31.875 25.5625 C-33.10992187 25.99691406 -34.34484375 26.43132812 -35.6171875 26.87890625 C-39.60904556 28.20184305 -43.49744746 29.1086466 -47.625 29.875 C-51.30672739 30.61353373 -54.94046708 31.44494865 -58.5625 32.4375 C-59.38878906 32.66308594 -60.21507812 32.88867188 -61.06640625 33.12109375 C-61.70449219 33.41113281 -62.34257812 33.70117188 -63 34 C-63.33 34.99 -63.66 35.98 -64 37 C-68.455 37.495 -68.455 37.495 -73 38 C-73.33 38.99 -73.66 39.98 -74 41 C-75.32 40.67 -76.64 40.34 -78 40 C-66.92945469 31.26634976 -55.19876402 28.23502936 -41.70849609 24.73486328 C-36.53465956 23.33110918 -31.80631684 21.34557959 -27 19 C-26.23284668 18.63471191 -25.46569336 18.26942383 -24.67529297 17.89306641 C-21.98486037 16.60935001 -19.3035941 15.30822872 -16.625 14 C-15.76737061 13.58451904 -14.90974121 13.16903809 -14.02612305 12.7409668 C-5.58095994 8.77512082 -5.58095994 8.77512082 -0.125 1.6875 C-0.08375 1.130625 -0.0425 0.57375 0 0 Z " fill="#B27E63" transform="translate(295,288)"/>
<path d="M0 0 C6.4 -0.36923077 6.4 -0.36923077 9.4375 1.5 C9.953125 1.995 10.46875 2.49 11 3 C10.45276317 6.37462715 9.9451 8.08235 8 11 C8.66 11.33 9.32 11.66 10 12 C10 12.66 10 13.32 10 14 C10.33 14.99 10.66 15.98 11 17 C8.92197192 22.26433781 4.7179664 24.36645581 0 27 C0.33 27.99 0.66 28.98 1 30 C1.66 30.33 2.32 30.66 3 31 C2.071875 31.226875 1.14375 31.45375 0.1875 31.6875 C-4.28922065 32.94171417 -8.37101513 34.95861904 -12.546875 36.9765625 C-15 38 -15 38 -18 38 C-18 37.34 -18 36.68 -18 36 C-16.44101062 34.91142134 -14.82399356 33.90566332 -13.1875 32.9375 C-1.07614968 25.9957606 -1.07614968 25.9957606 6.625 15.375 C6.74875 14.59125 6.8725 13.8075 7 13 C2.89100419 14.12795963 -1.07561214 15.33510818 -5 17 C-4.29875 16.29875 -3.5975 15.5975 -2.875 14.875 C-2.42511719 14.41996094 -1.97523438 13.96492188 -1.51171875 13.49609375 C-0.47217831 12.46729791 0.58931662 11.46036815 1.66796875 10.47265625 C3.18519024 9.0563426 4.5989762 7.5313516 6 6 C6 4.68 6 3.36 6 2 C3.69 2 1.38 2 -1 2 C-0.67 1.34 -0.34 0.68 0 0 Z " fill="#9C8471" transform="translate(292,257)"/>
<path d="M0 0 C0.66 1.32 1.32 2.64 2 4 C1.01 4.495 1.01 4.495 0 5 C-0.16868683 9.38585753 -0.05053352 12.15524966 2 16 C2.35095988 18.87787098 2.37481269 20.37531218 0.875 22.875 C-1.92151052 24.55290631 -3.93690532 23.74875648 -7 23 C-7 22.01 -7 21.02 -7 20 C-7.66 20 -8.32 20 -9 20 C-8.835 20.86625 -8.67 21.7325 -8.5 22.625 C-8.02781452 25.81225199 -7.92344882 28.78485027 -8 32 C-7.34 32 -6.68 32 -6 32 C-5.67 33.98 -5.34 35.96 -5 38 C-3.68 38 -2.36 38 -1 38 C-1 37.34 -1 36.68 -1 36 C0.8125 35.375 0.8125 35.375 3 35 C3.99 35.66 4.98 36.32 6 37 C8.7809725 36.87280375 11.38122606 36.63576786 14.125 36.25 C14.86621094 36.16234375 15.60742188 36.0746875 16.37109375 35.984375 C18.25958136 35.73579893 20.13269602 35.37596724 22 35 C22.495 34.01 22.495 34.01 23 33 C25.97 33.495 25.97 33.495 29 34 C21.4471483 38.40583016 12.17421919 38.67089915 3.6875 39.5625 C1.35776024 39.81088669 -0.97168495 40.06205668 -3.30078125 40.31640625 C-4.32341064 40.42412354 -5.34604004 40.53184082 -6.3996582 40.64282227 C-9.10713295 40.93338372 -9.10713295 40.93338372 -12 42 C-12.33 42.99 -12.66 43.98 -13 45 C-13.66 44.67 -14.32 44.34 -15 44 C-13.41987986 40.50116255 -12.39126684 39.69563342 -9 38 C-9.144375 37.443125 -9.28875 36.88625 -9.4375 36.3125 C-12.53846154 23.56410256 -12.53846154 23.56410256 -9.5 18.5 C-9.005 18.005 -8.51 17.51 -8 17 C-7.34 18.32 -6.68 19.64 -6 21 C-4.35 21 -2.7 21 -1 21 C-1.165 20.236875 -1.33 19.47375 -1.5 18.6875 C-3.28410145 5.52975184 -3.28410145 5.52975184 0 0 Z " fill="#E39E62" transform="translate(249,355)"/>
<path d="M0 0 C1.96484375 1.01953125 1.96484375 1.01953125 4 3 C4.44108977 5.73475656 4.61825603 7.95794651 4.5625 10.6875 C4.55516846 11.40703857 4.54783691 12.12657715 4.5402832 12.86791992 C4.32765104 18.64431788 3.01711004 22.71131069 -1 27 C-1.474375 27.53625 -1.94875 28.0725 -2.4375 28.625 C-4.91838987 30.80818308 -7.84696265 31.22661348 -11 32 C-15.14300664 44.94689576 -12.6771668 58.79231145 -11 72 C-9.68 72 -8.36 72 -7 72 C-7 72.66 -7 73.32 -7 74 C-8.98 73.34 -10.96 72.68 -13 72 C-13 68.7 -13 65.4 -13 62 C-13.66 62 -14.32 62 -15 62 C-17.00666018 51.46503408 -17.53713861 38.93129229 -13 29 C-10 27.3125 -10 27.3125 -7 27 C-6.01 26.67 -5.02 26.34 -4 26 C-3.67 25.34 -3.34 24.68 -3 24 C-2.01 24 -1.02 24 0 24 C1.03339394 15.86202273 1.66135509 8.09910608 0 0 Z " fill="#EFC6AC" transform="translate(289,114)"/>
<path d="M0 0 C0.99 0 1.98 0 3 0 C2.41196203 3.02419525 1.77321882 6.01758453 1 9 C3.64 9.33 6.28 9.66 9 10 C9.2475 10.78375 9.495 11.5675 9.75 12.375 C10.76109893 15.02757679 10.76109893 15.02757679 12.6875 16.25 C15.75598875 17.24518554 18.80192035 17.63099081 22 18 C22.2475 18.804375 22.495 19.60875 22.75 20.4375 C23.693184 23.12545918 23.693184 23.12545918 25.80224609 23.65185547 C28.04461692 24.00706773 30.14420983 24.12941379 32.4140625 24.1328125 C33.25356445 24.13474609 34.09306641 24.13667969 34.95800781 24.13867188 C35.83811523 24.13416016 36.71822266 24.12964844 37.625 24.125 C38.96836426 24.12209961 38.96836426 24.12209961 40.33886719 24.11914062 C46.28575941 24.08020135 52.09947071 23.78673724 58 23 C53.1241937 27.8758063 44.87116968 27.18047635 38.375 27.1875 C37.65884521 27.18830566 36.94269043 27.18911133 36.20483398 27.18994141 C24.20486078 27.06550338 24.20486078 27.06550338 21.37890625 24.56640625 C20.92386719 24.04949219 20.46882813 23.53257812 20 23 C17.57655 21.85826935 17.57655 21.85826935 14.9375 20.9375 C10.20833333 19.20833333 10.20833333 19.20833333 8 17 C7.375 14.875 7.375 14.875 7 13 C4.03 12.505 4.03 12.505 1 12 C-0.80619523 7.53763531 -1.11658501 4.68965706 0 0 Z " fill="#8E836C" transform="translate(232,403)"/>
<path d="M0 0 C0 0.99 0 1.98 0 3 C-2.24732102 3.84124316 -4.49738785 4.67314832 -6.75 5.5 C-7.38421875 5.73847656 -8.0184375 5.97695313 -8.671875 6.22265625 C-12.03286607 7.44801758 -14.36871587 8 -18 8 C-18 8.66 -18 9.32 -18 10 C-19.9151579 10.81604999 -21.83218834 11.62770632 -23.75 12.4375 C-24.81734375 12.88996094 -25.8846875 13.34242188 -26.984375 13.80859375 C-29.3413841 14.73979553 -31.52992835 15.4784072 -34 16 C-34 16.66 -34 17.32 -34 18 C-35.65 18.66 -37.3 19.32 -39 20 C-39 20.66 -39 21.32 -39 22 C-39.66 22 -40.32 22 -41 22 C-37.45158842 13.3687286 -26.21420817 7.5029387 -18 4 C-15.23526476 3.3404818 -12.85505362 3.10773787 -10 3 C-10 2.34 -10 1.68 -10 1 C-6.61981469 -0.04005702 -3.5219721 -0.08004482 0 0 Z " fill="#EE9473" transform="translate(156,313)"/>
<path d="M0 0 C0.495 0.99 0.495 0.99 1 2 C0.0919838 3.13199353 -0.82683826 4.25532363 -1.75 5.375 C-2.51570313 6.31472656 -2.51570313 6.31472656 -3.296875 7.2734375 C-5.09766352 9.09900751 -6.70011019 9.91471063 -9 11 C-10.68873879 12.64429829 -12.35305515 14.31384218 -14 16 C-19.50271739 21 -19.50271739 21 -22 21 C-22 21.99 -22 22.98 -22 24 C-22.66 24 -23.32 24 -24 24 C-24.33 24.66 -24.66 25.32 -25 26 C-27.54391072 27.13062699 -30.09740736 28.03099325 -32.75 28.875 C-35.18940766 29.77795791 -35.18940766 29.77795791 -35.8125 32.125 C-35.874375 32.74375 -35.93625 33.3625 -36 34 C-36.99 33.67 -37.98 33.34 -39 33 C-39 32.01 -39 31.02 -39 30 C-39.66 29.67 -40.32 29.34 -41 29 C-40.24976563 28.64808594 -39.49953125 28.29617188 -38.7265625 27.93359375 C-32.47756754 24.91928006 -26.80365986 21.68498304 -21.25390625 17.515625 C-18.9137266 15.941986 -16.64687069 14.95231326 -14 14 C-14 13.34 -14 12.68 -14 12 C-12.46729429 10.64864497 -10.87223227 9.36746113 -9.25 8.125 C-5.94152325 5.58076203 -2.89153346 3.01314001 0 0 Z " fill="#D69A7F" transform="translate(398,276)"/>
<path d="M0 0 C0 0.66 0 1.32 0 2 C-0.99 2 -1.98 2 -3 2 C-3 2.99 -3 3.98 -3 5 C-5.64738916 6.4606285 -6.89448334 7 -10 7 C-10 7.66 -10 8.32 -10 9 C-10.66 9.33 -11.32 9.66 -12 10 C-12.33 10.99 -12.66 11.98 -13 13 C-20.53439991 17.00264995 -29.23502047 17.28385141 -37.5625 17.125 C-38.47580078 17.11597656 -39.38910156 17.10695313 -40.33007812 17.09765625 C-42.55367319 17.07437253 -44.77668677 17.0416771 -47 17 C-47 16.67 -47 16.34 -47 16 C-46.23816406 15.95101563 -45.47632813 15.90203125 -44.69140625 15.8515625 C-38.26376675 15.38614041 -32.25980313 14.5144685 -26 13 C-25.34 13 -24.68 13 -24 13 C-24 12.34 -24 11.68 -24 11 C-23.24976563 10.70867187 -22.49953125 10.41734375 -21.7265625 10.1171875 C-15.42842371 7.59475912 -9.6716707 4.80526419 -3.9609375 1.13671875 C-2 0 -2 0 0 0 Z " fill="#6B786B" transform="translate(314,414)"/>
<path d="M0 0 C0 3.76625234 -1.17901532 5.14774482 -3.1875 8.3125 C-6.68697206 14.08170996 -8.69569648 19.50497461 -10.56640625 25.96875 C-12.37552612 29.79402797 -14.34487209 30.96271559 -18 33 C-18.70125 33.39445312 -19.4025 33.78890625 -20.125 34.1953125 C-30.87077213 39.52342452 -30.87077213 39.52342452 -36 38 C-35.09636719 37.60167969 -34.19273437 37.20335937 -33.26171875 36.79296875 C-32.08222656 36.26316406 -30.90273437 35.73335938 -29.6875 35.1875 C-27.92986328 34.40439453 -27.92986328 34.40439453 -26.13671875 33.60546875 C-23.41870353 32.21430529 -22.0192619 31.16701277 -20 29 C-16.8125 27.8125 -16.8125 27.8125 -14 27 C-14.061875 26.2575 -14.12375 25.515 -14.1875 24.75 C-13.96760006 21.52480092 -13.21747812 20.30276574 -11 18 C-10.34 18 -9.68 18 -9 18 C-9.04125 17.113125 -9.0825 16.22625 -9.125 15.3125 C-9.00102754 12.02722987 -8.38612096 9.94550705 -7 7 C-6.34 7 -5.68 7 -5 7 C-5 6.34 -5 5.68 -5 5 C-4.34 5 -3.68 5 -3 5 C-2.814375 4.0409375 -2.814375 4.0409375 -2.625 3.0625 C-2.41875 2.381875 -2.2125 1.70125 -2 1 C-1.34 0.67 -0.68 0.34 0 0 Z " fill="#A8836C" transform="translate(232,261)"/>
<path d="M0 0 C3.16115776 1.36983503 3.9927092 1.9890638 6 5 C6.23046875 7.6640625 6.23046875 7.6640625 6.1875 10.625 C6.17783203 12.09839844 6.17783203 12.09839844 6.16796875 13.6015625 C6 16 6 16 5 17 C4.95907063 19.33297433 4.95758277 21.66705225 5 24 C6.98 24.33 8.96 24.66 11 25 C11.33 24.34 11.66 23.68 12 23 C12 23.99 12 24.98 12 26 C5.9453125 26.1953125 5.9453125 26.1953125 4 26 C3.34 25.34 2.68 24.68 2 24 C2.05859375 21.65234375 2.05859375 21.65234375 2.4375 18.9375 C2.66120714 17.29619603 2.85737905 15.65032811 3 14 C1.81575674 12.58422523 1.81575674 12.58422523 -1.5625 12.9375 C-3.2640625 12.9684375 -3.2640625 12.9684375 -5 13 C-5.33 14.65 -5.66 16.3 -6 18 C-6.33 18 -6.66 18 -7 18 C-7.3125 15.8125 -7.3125 15.8125 -7 13 C-6.21625 12.236875 -5.4325 11.47375 -4.625 10.6875 C-1.20388422 7.18492908 -0.88521059 4.74794772 0 0 Z " fill="#E49F5B" transform="translate(266,339)"/>
<path d="M0 0 C2 2 2 2 2.125 4.9375 C2.08375 5.948125 2.0425 6.95875 2 8 C2 8.99 2 9.98 2 11 C2.66 11.33 3.32 11.66 4 12 C-15.40163934 24.46721311 -15.40163934 24.46721311 -20 26 C-20 25.34 -20 24.68 -20 24 C-19.34 24 -18.68 24 -18 24 C-17.67 23.01 -17.34 22.02 -17 21 C-15.43359375 19.45703125 -15.43359375 19.45703125 -13.4375 17.8125 C-5.08768961 11.31533997 -5.08768961 11.31533997 0 2.5 C0 1.675 0 0.85 0 0 Z " fill="#AA856F" transform="translate(287,248)"/>
<path d="M0 0 C0.33 0 0.66 0 1 0 C1.05423638 1.91635217 1.09289963 3.83314925 1.125 5.75 C1.14820312 6.81734375 1.17140625 7.8846875 1.1953125 8.984375 C0.99767128 12.03595547 0.40957849 13.36740489 -1 16 C-2.81797464 24.07988729 -3.89250542 32.73119975 -3 41 C-2.34 41.99 -1.68 42.98 -1 44 C-0.60986284 45.9896995 -0.26797351 47.99019869 0 50 C-0.99 50.495 -0.99 50.495 -2 51 C-8.83365463 33.7673057 -5.15428405 17.25405725 0 0 Z " fill="#EEC3A5" transform="translate(102,319)"/>
<path d="M0 0 C0.66 0.66 1.32 1.32 2 2 C1.38511719 2.39832031 0.77023438 2.79664063 0.13671875 3.20703125 C-0.67152344 3.73683594 -1.47976562 4.26664062 -2.3125 4.8125 C-3.11300781 5.33457031 -3.91351563 5.85664063 -4.73828125 6.39453125 C-6.99636578 7.85977669 -6.99636578 7.85977669 -8.421875 9.66015625 C-10.78449216 11.66604161 -12.89000958 11.48185459 -15.9375 11.625 C-19.4303051 11.80678168 -22.63681947 12.01130596 -26 13 C-21.5795218 8.30495794 -16.41794013 4.97241517 -10 4 C-9.67 3.34 -9.34 2.68 -9 2 C-7.00390625 1.296875 -7.00390625 1.296875 -4.5625 0.75 C-3.75941406 0.55921875 -2.95632812 0.3684375 -2.12890625 0.171875 C-1.42636719 0.11515625 -0.72382813 0.0584375 0 0 Z " fill="#65766A" transform="translate(231,324)"/>
<path d="M0 0 C0.33 0 0.66 0 1 0 C2.08834175 7.31658317 2.32457962 14.61276728 2.5625 22 C2.60568359 23.25167969 2.64886719 24.50335938 2.69335938 25.79296875 C2.79878017 28.86188523 2.90090342 31.93087389 3 35 C2.34 35 1.68 35 1 35 C0.67 35.99 0.34 36.98 0 38 C-0.66 37.67 -1.32 37.34 -2 37 C-1.88155392 32.37336673 -1.75729228 27.74693958 -1.62768555 23.12060547 C-1.58442662 21.54740626 -1.54274526 19.97416283 -1.50268555 18.40087891 C-1.44476338 16.13690885 -1.38113286 13.87315949 -1.31640625 11.609375 C-1.29969376 10.90818542 -1.28298126 10.20699585 -1.26576233 9.48455811 C-1.16648978 6.19766179 -0.99187328 3.14857995 0 0 Z " fill="#4C746E" transform="translate(171,264)"/>
<path d="M0 0 C2.2477975 2.05233685 3.0022242 3.00667261 4 6 C5.65 6.33 7.3 6.66 9 7 C9 6.34 9 5.68 9 5 C10.8125 4.375 10.8125 4.375 13 4 C13.99 4.66 14.98 5.32 16 6 C18.7809725 5.87280375 21.38122606 5.63576786 24.125 5.25 C24.86621094 5.16234375 25.60742188 5.0746875 26.37109375 4.984375 C28.25958136 4.73579893 30.13269602 4.37596724 32 4 C32.33 3.34 32.66 2.68 33 2 C34.98 2.33 36.96 2.66 39 3 C31.4471483 7.40583016 22.17421919 7.67089915 13.6875 8.5625 C11.35776024 8.81088669 9.02831505 9.06205668 6.69921875 9.31640625 C5.16527466 9.47798218 5.16527466 9.47798218 3.6003418 9.64282227 C0.89286705 9.93338372 0.89286705 9.93338372 -2 11 C-2.33 11.99 -2.66 12.98 -3 14 C-3.66 13.67 -4.32 13.34 -5 13 C-3.41987986 9.50116255 -2.39126684 8.69563342 1 7 C0.67 4.69 0.34 2.38 0 0 Z " fill="#ED9F65" transform="translate(239,386)"/>
<path d="M0 0 C1.8125 1.5 1.8125 1.5 2.5625 4.3125 C2.68625 5.8903125 2.68625 5.8903125 2.8125 7.5 C2.93625 8.86125 2.93625 8.86125 3.0625 10.25 C2.98 10.9925 2.8975 11.735 2.8125 12.5 C1.8225 13.16 0.8325 13.82 -0.1875 14.5 C-0.1875 11.2 -0.1875 7.9 -0.1875 4.5 C-1.8375 4.5 -3.4875 4.5 -5.1875 4.5 C-5.44273437 5.22574219 -5.69796875 5.95148438 -5.9609375 6.69921875 C-7.25551074 9.6552984 -8.79205104 11.80564666 -10.8125 14.3125 C-11.44414062 15.10269531 -12.07578125 15.89289063 -12.7265625 16.70703125 C-13.20867187 17.29871094 -13.69078125 17.89039063 -14.1875 18.5 C-14.7409764 16.42446352 -15.1875 14.65634036 -15.1875 12.5 C-14.5275 12.5 -13.8675 12.5 -13.1875 12.5 C-13.08050781 11.91476563 -12.97351563 11.32953125 -12.86328125 10.7265625 C-12.09820743 8.20579904 -11.09669655 6.85386135 -9.375 4.875 C-8.87355469 4.28460938 -8.37210938 3.69421875 -7.85546875 3.0859375 C-5.38357002 0.73560756 -3.43240089 -0.78454878 0 0 Z " fill="#A4826C" transform="translate(248.1875,242.5)"/>
<path d="M0 0 C0.33 0 0.66 0 1 0 C1 4.29 1 8.58 1 13 C4.465 12.505 4.465 12.505 8 12 C8.33 9.69 8.66 7.38 9 5 C11.90802461 7.21928194 13.95312762 8.92969143 16 12 C16 13.32 16 14.64 16 16 C16.99 16.33 17.98 16.66 19 17 C18.34 17.33 17.68 17.66 17 18 C15.9275 17.566875 14.855 17.13375 13.75 16.6875 C7.7559041 14.26766128 1.37517055 13.76108075 -5 13 C-3.68 12.67 -2.36 12.34 -1 12 C-0.67 8.04 -0.34 4.08 0 0 Z " fill="#DD9C63" transform="translate(283,360)"/>
<path d="M0 0 C2.35188905 2.35188905 2.56392522 3.62762907 3.2890625 6.83203125 C3.50820313 7.79560547 3.72734375 8.75917969 3.953125 9.75195312 C4.17484375 10.76193359 4.3965625 11.77191406 4.625 12.8125 C4.85445313 13.81087891 5.08390625 14.80925781 5.3203125 15.83789062 C6.32471089 20.3248013 7.13591439 24.38254198 7 29 C4.25952763 27.99516013 3.20395624 27.41470502 1.89306641 24.74926758 C0.9801178 21.93879347 0.68927609 19.64436846 0.5859375 16.69921875 C0.54726563 15.72275391 0.50859375 14.74628906 0.46875 13.74023438 C0.4378125 12.73283203 0.406875 11.72542969 0.375 10.6875 C0.33632813 9.66076172 0.29765625 8.63402344 0.2578125 7.57617188 C0.16385103 5.05095735 0.0781846 2.52574408 0 0 Z " fill="#4D756F" transform="translate(338,264)"/>
<path d="M0 0 C0.33 0 0.66 0 1 0 C1.66 4.29 2.32 8.58 3 13 C1.68 13.33 0.36 13.66 -1 14 C-3.25 12.0625 -3.25 12.0625 -5 10 C-7.13586678 13.20380017 -7.23132175 14.01939967 -7.125 17.6875 C-7.10695312 18.49574219 -7.08890625 19.30398438 -7.0703125 20.13671875 C-7.04710937 20.75160156 -7.02390625 21.36648438 -7 22 C-7.99 22.33 -8.98 22.66 -10 23 C-11.21319104 19.36042687 -10.73983613 17.20652972 -10.125 13.4375 C-9.94195312 12.28121094 -9.75890625 11.12492187 -9.5703125 9.93359375 C-9 7 -9 7 -8 5 C-6.68 5 -5.36 5 -4 5 C-2.25 7.5 -2.25 7.5 -1 10 C-0.67 6.7 -0.34 3.4 0 0 Z " fill="#C08962" transform="translate(246,363)"/>
<path d="M0 0 C0.66 0.33 1.32 0.66 2 1 C2.625 3.5625 2.625 3.5625 3 6 C3.33 5.01 3.66 4.02 4 3 C4 6.87950965 3.59216239 8.36665493 2 11.75 C1.62875 12.54921875 1.2575 13.3484375 0.875 14.171875 C0.58625 14.77515625 0.2975 15.3784375 0 16 C1.95702552 15.77193712 1.95702552 15.77193712 4 15 C5.79271391 11.51202512 5.79271391 11.51202512 7 8 C7.99 8.33 8.98 8.66 10 9 C10.33 10.65 10.66 12.3 11 14 C10.01 13.34 9.02 12.68 8 12 C7.67 13.32 7.34 14.64 7 16 C6.34 16 5.68 16 5 16 C5 16.66 5 17.32 5 18 C3.00045254 18.04254356 0.99958364 18.04080783 -1 18 C-2 17 -2 17 -2.125 13.5 C-2 10 -2 10 -1 9 C-0.76807135 7.48530552 -0.58784762 5.96245438 -0.4375 4.4375 C-0.35371094 3.61121094 -0.26992188 2.78492188 -0.18359375 1.93359375 C-0.12300781 1.29550781 -0.06242187 0.65742188 0 0 Z " fill="#B68665" transform="translate(272,346)"/>
<path d="M0 0 C-2.85939265 2.85939265 -6.1535921 2.92703576 -10 3.5625 C-15.14730606 4.29072725 -15.14730606 4.29072725 -20 6 C-20.33 6.99 -20.66 7.98 -21 9 C-25.455 9.495 -25.455 9.495 -30 10 C-30.33 10.99 -30.66 11.98 -31 13 C-32.32 12.67 -33.64 12.34 -35 12 C-32.79686886 10.5332579 -30.58806075 9.07662536 -28.375 7.625 C-27.75753906 7.2125 -27.14007813 6.8 -26.50390625 6.375 C-18.17392636 0.93859207 -9.82181297 -0.25184136 0 0 Z " fill="#8A7964" transform="translate(252,316)"/>
<path d="M0 0 C1.32 0.99 2.64 1.98 4 3 C-4.08243192 7.08900958 -12.18010373 11.14019477 -20.375 15 C-21.01058838 15.30236572 -21.64617676 15.60473145 -22.30102539 15.91625977 C-26.76199899 18 -26.76199899 18 -29 18 C-29 17.34 -29 16.68 -29 16 C-26.02588876 14.76078698 -23.14737182 13.69941596 -20 13 C-20 12.34 -20 11.68 -20 11 C-16.535 10.505 -16.535 10.505 -13 10 C-13 9.34 -13 8.68 -13 8 C-11.02 7.67 -9.04 7.34 -7 7 C-7 6.34 -7 5.68 -7 5 C-4.4385343 2.70351351 -3.52032428 2 0 2 C0 1.34 0 0.68 0 0 Z " fill="#F1C7AB" transform="translate(384,378)"/>
<path d="M0 0 C0.58523437 0.13277344 1.17046875 0.26554687 1.7734375 0.40234375 C10.79617983 2.25837333 19.82225696 2.61633197 29 3 C29 3.66 29 4.32 29 5 C19.43 5.33 9.86 5.66 0 6 C0.99 4.68 1.98 3.36 3 2 C2.01 1.67 1.02 1.34 0 1 C0 0.67 0 0.34 0 0 Z " fill="#C48E6E" transform="translate(237,400)"/>
<path d="M0 0 C7.26 0.33 14.52 0.66 22 1 C22 1.33 22 1.66 22 2 C16.06 2.495 16.06 2.495 10 3 C10 3.99 10 4.98 10 6 C13.63 6 17.26 6 21 6 C21 6.33 21 6.66 21 7 C18.60385874 7.05425226 16.20896147 7.09379027 13.8125 7.125 C12.80219727 7.15013672 12.80219727 7.15013672 11.77148438 7.17578125 C7.76921305 7.2148278 4.43808789 7.16256375 1 5 C0.67 3.35 0.34 1.7 0 0 Z " fill="#E6AA89" transform="translate(254,421)"/>
<path d="M0 0 C0.66 0.33 1.32 0.66 2 1 C1.34 1.66 0.68 2.32 0 3 C0.66 3.66 1.32 4.32 2 5 C0.41800369 5.64910154 -1.16565724 6.29414694 -2.75 6.9375 C-3.63171875 7.29714844 -4.5134375 7.65679687 -5.421875 8.02734375 C-7.61186104 8.85356576 -9.71898271 9.49369943 -12 10 C-12 10.66 -12 11.32 -12 12 C-13.65 12.66 -15.3 13.32 -17 14 C-17 14.66 -17 15.32 -17 16 C-17.66 16 -18.32 16 -19 16 C-16.00151145 8.57832669 -6.99640521 3.35244416 0 0 Z " fill="#EA9C78" transform="translate(134,319)"/>
<path d="M0 0 C5.16504854 1.29126214 5.16504854 1.29126214 7 4 C7.93858437 6.73852783 8.3926991 9.11646662 8 12 C6.22848446 14.3886887 4.58680326 15.37690776 2 17 C1.34 17 0.68 17 0 17 C-0.33 17.66 -0.66 18.32 -1 19 C-1 18.34 -1 17.68 -1 17 C-1.66 16.67 -2.32 16.34 -3 16 C-0.36 14.02 2.28 12.04 5 10 C3.35 6.7 1.7 3.4 0 0 Z " fill="#F1C1A1" transform="translate(368,326)"/>
<path d="M0 0 C0.83402344 0.2165625 1.66804687 0.433125 2.52734375 0.65625 C13.2601175 3.31178165 21.27144328 3.50855606 32 1 C26.11129691 5.64228213 20.23280133 6.49415888 12.8671875 6.40234375 C8.0449336 5.72565145 4.11960915 3.50214873 0 1 C0 0.67 0 0.34 0 0 Z " fill="#D7B190" transform="translate(232,216)"/>
<path d="M0 0 C1.32 0.33 2.64 0.66 4 1 C4.04898438 1.70125 4.09796875 2.4025 4.1484375 3.125 C4.55129428 8.23711357 5.14834488 13.00543947 6.5234375 17.94140625 C7.43962144 21.89902046 7.68518211 25.95707552 8 30 C3.48901919 25.48901919 3.3138165 18.37252998 2.4375 12.3125 C2.18852541 10.62074958 1.93731689 8.92932602 1.68359375 7.23828125 C1.57587646 6.49618408 1.46815918 5.75408691 1.35717773 4.98950195 C1.01340011 2.80084467 1.01340011 2.80084467 0 0 Z " fill="#EDC5AE" transform="translate(197,127)"/>
<path d="M0 0 C0.66 0.33 1.32 0.66 2 1 C2.625 3.0625 2.625 3.0625 3 5 C1.68 4.34 0.36 3.68 -1 3 C-0.67 3.99 -0.34 4.98 0 6 C-4.75 8.875 -4.75 8.875 -7 10 C-7.66 9.67 -8.32 9.34 -9 9 C-9 9.66 -9 10.32 -9 11 C-12.47307692 13.10865385 -12.47307692 13.10865385 -15.140625 12.55859375 C-16.06101562 12.28208984 -16.06101562 12.28208984 -17 12 C-16.19175781 11.46890625 -15.38351562 10.9378125 -14.55078125 10.390625 C-13.48214844 9.68421875 -12.41351563 8.9778125 -11.3125 8.25 C-10.25675781 7.55390625 -9.20101563 6.8578125 -8.11328125 6.140625 C-5.29705372 4.20424772 -2.6367115 2.17198499 0 0 Z " fill="#E0B492" transform="translate(341,360)"/>
<path d="M0 0 C1.09828769 3.54188278 1.11445011 6.8209762 1.09765625 10.515625 C1.09282227 12.39121094 1.09282227 12.39121094 1.08789062 14.3046875 C1.07951172 15.60664062 1.07113281 16.90859375 1.0625 18.25 C1.05798828 19.56742188 1.05347656 20.88484375 1.04882812 22.2421875 C1.03704316 25.49483741 1.02059011 28.74739584 1 32 C-2 31 -2 31 -3.25 29.1875 C-4.11637742 26.66056586 -3.88492145 25.47778006 -3 23 C-2.34 23 -1.68 23 -1 23 C-1.33 16.07 -1.66 9.14 -2 2 C-1.34 2 -0.68 2 0 2 C0 1.34 0 0.68 0 0 Z " fill="#8D6753" transform="translate(198,96)"/>
<path d="M0 0 C0 0.66 0 1.32 0 2 C-0.99 2.33 -1.98 2.66 -3 3 C-4.22969878 6.51190809 -4.22969878 6.51190809 -5 10 C-7.97 9.505 -7.97 9.505 -11 9 C-11.268125 9.598125 -11.53625 10.19625 -11.8125 10.8125 C-12.98493467 12.97224808 -14.19369282 14.35790256 -16 16 C-16.66 15.67 -17.32 15.34 -18 15 C-17.21654285 13.82780457 -16.42297164 12.66236332 -15.625 11.5 C-15.18414062 10.8503125 -14.74328125 10.200625 -14.2890625 9.53125 C-13.65097656 8.77328125 -13.65097656 8.77328125 -13 8 C-12.34 8 -11.68 8 -11 8 C-11 7.34 -11 6.68 -11 6 C-9.1015625 4.4921875 -9.1015625 4.4921875 -6.625 2.875 C-5.81289062 2.33617187 -5.00078125 1.79734375 -4.1640625 1.2421875 C-2 0 -2 0 0 0 Z " fill="#789991" transform="translate(164,206)"/>
<path d="M0 0 C2.4375 1.0625 2.4375 1.0625 5 3 C5.8125 6.6875 5.8125 6.6875 6 10 C5.401875 9.21625 4.80375 8.4325 4.1875 7.625 C2.08914751 4.85425677 2.08914751 4.85425677 -1 3 C-0.9175 3.9075 -0.835 4.815 -0.75 5.75 C-1 9 -1 9 -3 11.375 C-3.66 11.91125 -4.32 12.4475 -5 13 C-5.66 12.67 -6.32 12.34 -7 12 C-6.625 10.0625 -6.625 10.0625 -6 8 C-5.34 7.67 -4.68 7.34 -4 7 C-3.855625 6.195625 -3.71125 5.39125 -3.5625 4.5625 C-3 2 -3 2 0 0 Z " fill="#9F856A" transform="translate(267,336)"/>
<path d="M0 0 C0.33 0.66 0.66 1.32 1 2 C0.34 2 -0.32 2 -1 2 C-0.67 3.32 -0.34 4.64 0 6 C-1.93370231 7.00732399 -3.87210306 8.00563288 -5.8125 9 C-7.43091797 9.8353125 -7.43091797 9.8353125 -9.08203125 10.6875 C-12 12 -12 12 -15 12 C-15 11.34 -15 10.68 -15 10 C-12.734375 8.37890625 -12.734375 8.37890625 -9.75 6.5625 C-6.37970314 4.49841608 -3.11980613 2.42899191 0 0 Z " fill="#BF8566" transform="translate(289,283)"/>
<path d="M0 0 C0.33 0 0.66 0 1 0 C1.9023438 7.82031289 -0.8593183 13.43419019 -5 20 C-7.16104847 22.56651465 -9.43258107 24.84276042 -12 27 C-12.33 26.34 -12.66 25.68 -13 25 C-12.525625 24.38125 -12.05125 23.7625 -11.5625 23.125 C-9.97582559 21.09294454 -9.97582559 21.09294454 -9 19 C-8.01 19 -7.02 19 -6 19 C-6 18.01 -6 17.02 -6 16 C-5.34 16 -4.68 16 -4 16 C-3.34 12.7 -2.68 9.4 -2 6 C-1.34 6 -0.68 6 0 6 C0 4.02 0 2.04 0 0 Z " fill="#DBB495" transform="translate(281,188)"/>
<path d="M0 0 C0.66 0.33 1.32 0.66 2 1 C0.16430768 5.7931966 -3.01581078 6.81537852 -7.4609375 8.890625 C-15.3880276 12.3541536 -15.3880276 12.3541536 -20 11 C-19.09636719 10.60167969 -18.19273437 10.20335937 -17.26171875 9.79296875 C-16.08222656 9.26316406 -14.90273437 8.73335938 -13.6875 8.1875 C-12.51574219 7.66542969 -11.34398437 7.14335937 -10.13671875 6.60546875 C-7.44301225 5.22674724 -5.94824452 4.21848489 -4 2 C-1.9375 0.75 -1.9375 0.75 0 0 Z " fill="#908471" transform="translate(216,288)"/>
<path d="M0 0 C-0.6796875 1.921875 -0.6796875 1.921875 -2 4 C-4.3828125 4.828125 -4.3828125 4.828125 -7.125 5.25 C-8.03507813 5.39953125 -8.94515625 5.5490625 -9.8828125 5.703125 C-10.58148438 5.80109375 -11.28015625 5.8990625 -12 6 C-12 6.66 -12 7.32 -12 8 C-13.28745036 8.38922918 -14.58019597 8.76098036 -15.875 9.125 C-16.95394531 9.43824219 -16.95394531 9.43824219 -18.0546875 9.7578125 C-18.69664062 9.83773438 -19.33859375 9.91765625 -20 10 C-20.66 9.34 -21.32 8.68 -22 8 C-21.2265625 7.75765625 -20.453125 7.5153125 -19.65625 7.265625 C-14.00391274 5.4468036 -5.68196888 0 0 0 Z " fill="#E0B093" transform="translate(216,293)"/>
<path d="M0 0 C0.33 0 0.66 0 1 0 C1.625 2.625 1.625 2.625 1 6 C-2.91492266 9.13626401 -7.25003801 11.41667934 -12 13 C-12 12.34 -12 11.68 -12 11 C-11.34 11 -10.68 11 -10 11 C-9.67 10.01 -9.34 9.02 -9 8 C-7.1875 6.2109375 -7.1875 6.2109375 -5 4.375 C-4.278125 3.76398438 -3.55625 3.15296875 -2.8125 2.5234375 C-2.214375 2.02070313 -1.61625 1.51796875 -1 1 C-0.67 0.67 -0.34 0.34 0 0 Z " fill="#C18769" transform="translate(279,261)"/>
<path d="M0 0 C0.99 0.33 1.98 0.66 3 1 C3 5.29 3 9.58 3 14 C2.01 14 1.02 14 0 14 C0.86686502 18.49749967 1.7662402 22.7600819 3.6875 26.9375 C4.120625 27.948125 4.55375 28.95875 5 30 C4.67 30.66 4.34 31.32 4 32 C0.63438409 25.9394075 -1.61330541 20.96050253 -2 14 C-0.68 13.67 0.64 13.34 2 13 C1.85915204 11.20793453 1.71216299 9.41635083 1.5625 7.625 C1.44068359 6.12839844 1.44068359 6.12839844 1.31640625 4.6015625 C1.15034374 2.02072387 1.15034374 2.02072387 0 0 Z " fill="#E1BBA1" transform="translate(221,178)"/>
<path d="M0 0 C0.99 0 1.98 0 3 0 C3.33 0.99 3.66 1.98 4 3 C4.99 3.33 5.98 3.66 7 4 C8.12373635 6.33737161 9.08494661 8.5871218 10 11 C10.4125 11.9075 10.825 12.815 11.25 13.75 C12 16 12 16 11 19 C6.95230446 12.81475738 3.15538024 6.6894061 0 0 Z " fill="#EBBEA4" transform="translate(356,306)"/>
<path d="M0 0 C6.4 -0.36923077 6.4 -0.36923077 9.4375 1.5 C9.953125 1.995 10.46875 2.49 11 3 C10.46930939 6.82097239 9.50298434 9.06171403 7 12 C5.68 11.67 4.36 11.34 3 11 C3.495 10.62875 3.99 10.2575 4.5 9.875 C6.59755514 7.25305607 6.21743835 5.26157528 6 2 C3.69 2 1.38 2 -1 2 C-0.67 1.34 -0.34 0.68 0 0 Z " fill="#96826F" transform="translate(292,257)"/>
<path d="M0 0 C-3.34977909 3.77367089 -7.13923877 4.42118134 -12 5 C-25.87535145 5.56232427 -25.87535145 5.56232427 -29 4 C-29 3.34 -29 2.68 -29 2 C-28.44699219 2.15984375 -27.89398438 2.3196875 -27.32421875 2.484375 C-20.24124432 4.05572395 -13.64672465 3.22913349 -6.94921875 0.66796875 C-4.57220184 -0.14660017 -2.4932078 -0.24127817 0 0 Z " fill="#7D8271" transform="translate(267,218)"/>
<path d="M0 0 C1.32 0.33 2.64 0.66 4 1 C2.43902526 2.1063219 0.87614673 3.20995785 -0.6875 4.3125 C-1.55761719 4.92738281 -2.42773438 5.54226563 -3.32421875 6.17578125 C-10.48445172 11.05728314 -10.48445172 11.05728314 -13.8125 10.6875 C-14.534375 10.460625 -15.25625 10.23375 -16 10 C-8.5 5 -8.5 5 -4 5 C-4 4.34 -4 3.68 -4 3 C-3.01 2.67 -2.02 2.34 -1 2 C-0.67 1.34 -0.34 0.68 0 0 Z " fill="#84826C" transform="translate(323,370)"/>
<path d="M0 0 C0.33 0 0.66 0 1 0 C1.04898438 0.81984375 1.09796875 1.6396875 1.1484375 2.484375 C1.22320312 3.56203125 1.29796875 4.6396875 1.375 5.75 C1.44460937 6.81734375 1.51421875 7.8846875 1.5859375 8.984375 C1.9728223 11.80206432 2.55686166 13.5830366 4 16 C5.65 16 7.3 16 9 16 C8.34 16.99 7.68 17.98 7 19 C4.69 19 2.38 19 0 19 C0 12.73 0 6.46 0 0 Z " fill="#809A95" transform="translate(177,433)"/>
<path d="M0 0 C0.66 1.32 1.32 2.64 2 4 C3.65 3.67 5.3 3.34 7 3 C7 3.66 7 4.32 7 5 C4.05350463 6.33931608 1.67665677 7.03970882 -1.5625 7.4375 C-5.14594908 8.02388258 -6.2229622 8.87093768 -9 11 C-11.75 11.1875 -11.75 11.1875 -14 11 C-12.68 10.67 -11.36 10.34 -10 10 C-10 9.34 -10 8.68 -10 8 C-9.34 8 -8.68 8 -8 8 C-7.67 7.34 -7.34 6.68 -7 6 C-4.67843403 5.59270772 -2.3431213 5.25561323 0 5 C0 3.35 0 1.7 0 0 Z " fill="#DDB9A2" transform="translate(174,304)"/>
<path d="M0 0 C0.66 0.66 1.32 1.32 2 2 C1.360625 2.12375 0.72125 2.2475 0.0625 2.375 C-0.618125 2.58125 -1.29875 2.7875 -2 3 C-2.33 3.66 -2.66 4.32 -3 5 C-4.98 5 -6.96 5 -9 5 C-9 3.35 -9 1.7 -9 0 C-5.88135455 -1.55932272 -3.33704665 -0.65549131 0 0 Z " fill="#5B857D" transform="translate(166,306)"/>
<path d="M0 0 C-0.66 0 -1.32 0 -2 0 C-2 0.99 -2 1.98 -2 3 C-3.97746603 3.73080266 -5.98072489 4.39421747 -8 5 C-8.66 4.67 -9.32 4.34 -10 4 C-10.33 4.99 -10.66 5.98 -11 7 C-11.33 6.34 -11.66 5.68 -12 5 C-12.99 4.34 -13.98 3.68 -15 3 C-13.06643218 2.30151736 -11.12797702 1.61655186 -9.1875 0.9375 C-8.10855469 0.55464844 -7.02960938 0.17179688 -5.91796875 -0.22265625 C-3 -1 -3 -1 0 0 Z " fill="#7B9B93" transform="translate(186,199)"/>
<path d="M0 0 C0.33 0.99 0.66 1.98 1 3 C-1.33333333 5.33333333 -3.66666667 7.66666667 -6 10 C-5.16666667 12.16666667 -5.16666667 12.16666667 -3 13 C-5.31 13 -7.62 13 -10 13 C-10 12.01 -10 11.02 -10 10 C-9.34 10 -8.68 10 -8 10 C-7.90847656 9.40703125 -7.81695312 8.8140625 -7.72265625 8.203125 C-6.82767887 5.47465343 -5.66093699 4.52874959 -3.4375 2.75 C-2.79683594 2.22921875 -2.15617187 1.7084375 -1.49609375 1.171875 C-1.00238281 0.78515625 -0.50867188 0.3984375 0 0 Z " fill="#B08269" transform="translate(298,275)"/>
<path d="M0 0 C3.0916909 2.52956528 3.90931332 5.22454612 5 9 C3.865625 9.268125 2.73125 9.53625 1.5625 9.8125 C0.386875 10.204375 -0.78875 10.59625 -2 11 C-2.33 11.99 -2.66 12.98 -3 14 C-3.66 13.67 -4.32 13.34 -5 13 C-3.41987986 9.50116255 -2.39126684 8.69563342 1 7 C0.67 4.69 0.34 2.38 0 0 Z " fill="#B48566" transform="translate(239,386)"/>
<path d="M0 0 C-2.22687976 1.29574871 -4.45633175 2.58667308 -6.6875 3.875 C-7.31333984 4.23980469 -7.93917969 4.60460937 -8.58398438 4.98046875 C-11.98194942 6.93741197 -15.30067619 8.65607739 -19 10 C-19 9.01 -19 8.02 -19 7 C-17.68 7 -16.36 7 -15 7 C-15 6.34 -15 5.68 -15 5 C-13.68 5 -12.36 5 -11 5 C-11 4.34 -11 3.68 -11 3 C-10.01 3 -9.02 3 -8 3 C-8 2.34 -8 1.68 -8 1 C-3.375 -1.125 -3.375 -1.125 0 0 Z " fill="#EBC6A9" transform="translate(170,360)"/>
<path d="M0 0 C1.32 0.33 2.64 0.66 4 1 C3.01 1.495 3.01 1.495 2 2 C0.75975379 6.96098482 0.89848824 11.92441192 1 17 C0.01 17.33 -0.98 17.66 -2 18 C-3.21319104 14.36042687 -2.73983613 12.20652972 -2.125 8.4375 C-1.94195312 7.28121094 -1.75890625 6.12492187 -1.5703125 4.93359375 C-1 2 -1 2 0 0 Z " fill="#AD8363" transform="translate(238,368)"/>
<path d="M0 0 C1.32 1.32 2.64 2.64 4 4 C3.01 4 2.02 4 1 4 C0.01 8.62 -0.98 13.24 -2 18 C-2.66 17.34 -3.32 16.68 -4 16 C-3.828125 12.8125 -3.828125 12.8125 -3.25 9 C-3.06953125 7.741875 -2.8890625 6.48375 -2.703125 5.1875 C-2 2 -2 2 0 0 Z " fill="#A88267" transform="translate(248,352)"/>
<path d="M0 0 C0.66 0.66 1.32 1.32 2 2 C-0.2176277 3.90447566 -2.39879043 5.65102562 -5 7 C-7.9375 6.3125 -7.9375 6.3125 -10 5 C-9.67 4.01 -9.34 3.02 -9 2 C-7.00390625 1.19921875 -7.00390625 1.19921875 -4.5625 0.6875 C-3.75941406 0.50574219 -2.95632812 0.32398438 -2.12890625 0.13671875 C-1.07509766 0.06904297 -1.07509766 0.06904297 0 0 Z " fill="#74776B" transform="translate(231,324)"/>
<path d="M0 0 C1.67542976 0.28604898 3.34385343 0.61781233 5 1 C5 1.66 5 2.32 5 3 C4.34 3 3.68 3 3 3 C3.33 4.32 3.66 5.64 4 7 C1.03 6.505 1.03 6.505 -2 6 C-1.125 1.125 -1.125 1.125 0 0 Z " fill="#DBAF91" transform="translate(235,406)"/>
<path d="M0 0 C2.90802461 2.21928194 4.95312762 3.92969143 7 7 C7 8.32 7 9.64 7 11 C7.99 11.33 8.98 11.66 10 12 C8 13 8 13 5.5 12.5625 C2.60455313 10.75284571 2.52044831 10.23768092 1.75 7.0625 C1.49698928 5.70889262 1.24680637 4.35475237 1 3 C0.67 2.01 0.34 1.02 0 0 Z " fill="#AB8369" transform="translate(292,365)"/>
<path d="M0 0 C0.99 0.33 1.98 0.66 3 1 C0.66666667 3.33333333 -1.66666667 5.66666667 -4 8 C-4.40047444 10.32275177 -4.7397104 12.65739357 -5 15 C-5.33 15 -5.66 15 -6 15 C-6 11.04 -6 7.08 -6 3 C-4.68 3 -3.36 3 -2 3 C-2 2.34 -2 1.68 -2 1 C-1.34 0.67 -0.68 0.34 0 0 Z " fill="#BBA792" transform="translate(183,348)"/>
<path d="M0 0 C-3.89638658 3.89638658 -11.00137345 3.84033935 -16.34765625 4.125 C-17.89899715 4.125 -19.45025924 4.07044276 -21 4 C-17.80734232 1.87156155 -15.92624957 1.46755654 -12.1875 0.875 C-11.17042969 0.70742188 -10.15335938 0.53984375 -9.10546875 0.3671875 C-6.03757182 0.00444245 -3.0859734 -0.06457941 0 0 Z " fill="#9E7960" transform="translate(252,316)"/>
<path d="M0 0 C0.66 0 1.32 0 2 0 C2.66 1.32 3.32 2.64 4 4 C3.34 4 2.68 4 2 4 C1.67 7.3 1.34 10.6 1 14 C-0.32 14 -1.64 14 -3 14 C-2.7834375 13.40832031 -2.566875 12.81664062 -2.34375 12.20703125 C-0.22239206 6.26339098 -0.22239206 6.26339098 0 0 Z " fill="#DEB3A1" transform="translate(111,290)"/>
<path d="M0 0 C-0.57492187 0.27457031 -1.14984375 0.54914063 -1.7421875 0.83203125 C-4.70839671 2.36645435 -7.42307579 4.21734322 -10.1953125 6.07421875 C-10.79085938 6.37972656 -11.38640625 6.68523437 -12 7 C-12.66 6.67 -13.32 6.34 -14 6 C-14 4.68 -14 3.36 -14 2 C-13.29875 1.87625 -12.5975 1.7525 -11.875 1.625 C-8.92045079 1.04850236 -8.92045079 1.04850236 -5.875 -0.125 C-3 -1 -3 -1 0 0 Z " fill="#A38169" transform="translate(286,248)"/>
<path d="M0 0 C1.32 0.66 2.64 1.32 4 2 C-3.24119883 4.74454913 -9.23248766 6.51783416 -17 6 C-13.4602993 3.64019954 -11.00893712 3.41399192 -6.8125 2.875 C-5.54019531 2.70742188 -4.26789063 2.53984375 -2.95703125 2.3671875 C-1.98121094 2.24601562 -1.00539063 2.12484375 0 2 C0 1.34 0 0.68 0 0 Z " fill="#E2B292" transform="translate(294,421)"/>
<path d="M0 0 C0 0.66 0 1.32 0 2 C-4.9221313 4.63365987 -9.57903298 6.64475824 -15 8 C-15.66 7.34 -16.32 6.68 -17 6 C-14.5433053 4.99580363 -12.08481647 3.99649499 -9.625 3 C-8.92632812 2.71382813 -8.22765625 2.42765625 -7.5078125 2.1328125 C-2.2265625 0 -2.2265625 0 0 0 Z " fill="#6A7868" transform="translate(338,403)"/>
<path d="M0 0 C4.95 0 9.9 0 15 0 C15 0.33 15 0.66 15 1 C11.7 1.33 8.4 1.66 5 2 C4.34 3.65 3.68 5.3 3 7 C2.01 6.34 1.02 5.68 0 5 C0 3.35 0 1.7 0 0 Z " fill="#F9B081" transform="translate(263,372)"/>
<path d="M0 0 C5.28 0 10.56 0 16 0 C12.36280395 2.42479736 10.14296518 2.38662577 5.8125 2.625 C4.54019531 2.69976562 3.26789063 2.77453125 1.95703125 2.8515625 C0.98121094 2.90054687 0.00539063 2.94953125 -1 3 C-0.67 2.01 -0.34 1.02 0 0 Z " fill="#EB9D76" transform="translate(376,333)"/>
<path d="M0 0 C1.984375 1.08203125 1.984375 1.08203125 4 3 C4.390625 6.13671875 4.390625 6.13671875 4.25 9.6875 C4.21390625 10.86699219 4.1778125 12.04648438 4.140625 13.26171875 C4.09421875 14.16535156 4.0478125 15.06898438 4 16 C1.18515955 13.18515955 1.37242958 10.7833753 0.875 6.875 C0.70742188 5.59367187 0.53984375 4.31234375 0.3671875 2.9921875 C0.24601562 2.00476563 0.12484375 1.01734375 0 0 Z " fill="#E9BEA4" transform="translate(289,114)"/>
<path d="M0 0 C0.25 2.3125 0.25 2.3125 0 5 C-2 6.8125 -2 6.8125 -4 8 C-4.185625 6.824375 -4.185625 6.824375 -4.375 5.625 C-4.79117993 2.85942178 -4.79117993 2.85942178 -7 1 C-4.53721199 -0.231394 -2.7204945 -0.07159196 0 0 Z " fill="#E1B091" transform="translate(287,249)"/>
<path d="M0 0 C0.66 1.32 1.32 2.64 2 4 C2.99 5.485 2.99 5.485 4 7 C4.125 9.6875 4.125 9.6875 4 12 C2.68 12 1.36 12 0 12 C0 8.04 0 4.08 0 0 Z " fill="#7D4E38" transform="translate(274,114)"/>
<path d="M0 0 C0 0.66 0 1.32 0 2 C-0.99 2 -1.98 2 -3 2 C-3 2.99 -3 3.98 -3 5 C-4.26607607 5.53229326 -5.53810412 6.05044544 -6.8125 6.5625 C-7.52019531 6.85253906 -8.22789062 7.14257812 -8.95703125 7.44140625 C-11 8 -11 8 -14 7 C-12.04480616 5.82807953 -10.0857461 4.6626071 -8.125 3.5 C-7.03445313 2.8503125 -5.94390625 2.200625 -4.8203125 1.53125 C-2 0 -2 0 0 0 Z " fill="#757864" transform="translate(314,414)"/>
<path d="M0 0 C-2.79196011 3.28465896 -6.23196817 5.01321958 -10 7 C-10.66 7 -11.32 7 -12 7 C-12 6.01 -12 5.02 -12 4 C-10.68 4 -9.36 4 -8 4 C-8 3.34 -8 2.68 -8 2 C-4.77208445 -0.1519437 -3.71599191 -0.20086443 0 0 Z " fill="#EEC5A9" transform="translate(408,368)"/>
<path d="M0 0 C-0.33 0.99 -0.66 1.98 -1 3 C-1.66 3 -2.32 3 -3 3 C-3 3.66 -3 4.32 -3 5 C-4.093125 5.309375 -5.18625 5.61875 -6.3125 5.9375 C-8.55407994 6.58337897 -10.7869351 7.2623117 -13 8 C-13 7.01 -13 6.02 -13 5 C-9.62902617 3.50178941 -7.79557881 3 -4 3 C-4 2.34 -4 1.68 -4 1 C-2 0 -2 0 0 0 Z " fill="#D99979" transform="translate(270,258)"/>
<path d="M0 0 C0.33 0 0.66 0 1 0 C1.10812003 2.75105422 1.18734945 5.49785087 1.25 8.25 C1.28351563 9.02730469 1.31703125 9.80460937 1.3515625 10.60546875 C1.45112665 16.42997175 1.45112665 16.42997175 -1.015625 19.546875 C-1.67046875 20.02640625 -2.3253125 20.5059375 -3 21 C-2.67 19.35 -2.34 17.7 -2 16 C-1.34 16 -0.68 16 0 16 C-0.08378906 15.43152344 -0.16757812 14.86304688 -0.25390625 14.27734375 C-0.91910197 9.23364455 -0.9568837 4.99705931 0 0 Z " fill="#F2CBB6" transform="translate(425,336)"/>
<path d="M0 0 C3 3.75 3 3.75 3 6 C0.09451118 8.04169485 -1.40142046 9 -5 9 C-4.34 7.35 -3.68 5.7 -3 4 C-2.01 4 -1.02 4 0 4 C0 2.68 0 1.36 0 0 Z " fill="#7D9891" transform="translate(399,269)"/>
<path d="M0 0 C0.33 0 0.66 0 1 0 C1.33 4.95 1.66 9.9 2 15 C1.01 15.33 0.02 15.66 -1 16 C-1.02712153 14.083412 -1.04645097 12.1667127 -1.0625 10.25 C-1.07410156 9.18265625 -1.08570313 8.1153125 -1.09765625 7.015625 C-1.01510087 4.46631499 -0.74617558 2.42066409 0 0 Z " fill="#527D76" transform="translate(171,264)"/>
<path d="M0 0 C0.33 0 0.66 0 1 0 C1 5.61 1 11.22 1 17 C1.99 17.33 2.98 17.66 4 18 C3.67 19.98 3.34 21.96 3 24 C-0.125 17.75 -0.125 17.75 -0.09765625 13.8671875 C-0.09443359 13.06152344 -0.09121094 12.25585938 -0.08789062 11.42578125 C-0.07951172 10.58402344 -0.07113281 9.74226563 -0.0625 8.875 C-0.05798828 8.02550781 -0.05347656 7.17601563 -0.04882812 6.30078125 C-0.03702874 4.20049091 -0.01909306 2.1002367 0 0 Z " fill="#A08A80" transform="translate(184,67)"/>
<path d="M0 0 C0.66 0.33 1.32 0.66 2 1 C0.02 1.99 0.02 1.99 -2 3 C-2 2.34 -2 1.68 -2 1 C-1.34 0.67 -0.68 0.34 0 0 Z M-10 3 C-7.36 3 -4.72 3 -2 3 C-2.99 3.495 -2.99 3.495 -4 4 C-4.65213292 6.02463255 -4.65213292 6.02463255 -5 8 C-5.99 7.67 -6.98 7.34 -8 7 C-8 6.01 -8 5.02 -8 4 C-8.66 3.67 -9.32 3.34 -10 3 Z " fill="#EA9B7F" transform="translate(367,302)"/>
<path d="M0 0 C0 0.99 0 1.98 0 3 C-0.66 3.66 -1.32 4.32 -2 5 C-1.34 5.66 -0.68 6.32 0 7 C-7.42857143 10.28571429 -7.42857143 10.28571429 -11 11 C-7.33333333 7.33333333 -3.66666667 3.66666667 0 0 Z " fill="#BB8E71" transform="translate(298,263)"/>
<path d="M0 0 C0.99 0 1.98 0 3 0 C3.33 1.32 3.66 2.64 4 4 C4.66 4 5.32 4 6 4 C6 4.99 6 5.98 6 7 C6.99 7 7.98 7 9 7 C9.33 8.65 9.66 10.3 10 12 C5.25892502 8.74897716 2.79129597 4.89367634 0 0 Z " fill="#EEC7AF" transform="translate(208,164)"/>
<path d="M0 0 C1.43861294 0.08746284 2.87597508 0.19565348 4.3125 0.3125 C5.11300781 0.37050781 5.91351563 0.42851562 6.73828125 0.48828125 C9.39104956 1.08847581 10.3867554 1.83485593 12 4 C11.6875 6.1875 11.6875 6.1875 11 8 C10.34 8 9.68 8 9 8 C9 6.68 9 5.36 9 4 C6.03 3.01 3.06 2.02 0 1 C0 0.67 0 0.34 0 0 Z " fill="#F29D69" transform="translate(269,381)"/>
<path d="M0 0 C0.99 0.33 1.98 0.66 3 1 C-0.96 3.64 -4.92 6.28 -9 9 C-9.33 8.34 -9.66 7.68 -10 7 C-9.34 7 -8.68 7 -8 7 C-7.67 5.68 -7.34 4.36 -7 3 C-6.401875 2.87625 -5.80375 2.7525 -5.1875 2.625 C-2.73768652 2.04524015 -2.73768652 2.04524015 0 0 Z " fill="#DDB495" transform="translate(203,335)"/>
<path d="M0 0 C1.875 0.25 1.875 0.25 4 1 C5.3125 2.9375 5.3125 2.9375 6 5 C5.67 5.66 5.34 6.32 5 7 C4.34 7 3.68 7 3 7 C3 6.34 3 5.68 3 5 C2.01 5 1.02 5 0 5 C0 3.35 0 1.7 0 0 Z " fill="#5A847B" transform="translate(114,285)"/>
<path d="M0 0 C0.99 0.99 1.98 1.98 3 3 C2.67 3.99 2.34 4.98 2 6 C-1.5625 7.1875 -1.5625 7.1875 -5 8 C-4.34 6.35 -3.68 4.7 -3 3 C-2.34 3 -1.68 3 -1 3 C-0.67 2.01 -0.34 1.02 0 0 Z " fill="#5A847D" transform="translate(149,219)"/>
<path d="M0 0 C2.625 -0.1875 2.625 -0.1875 5 0 C2.373409 2.91843445 -0.66976339 4.94517315 -4 7 C-4.66 7 -5.32 7 -6 7 C-6.33 6.01 -6.66 5.02 -7 4 C-5.824375 3.8453125 -5.824375 3.8453125 -4.625 3.6875 C-1.66954819 3.22404978 -1.66954819 3.22404978 0 0 Z " fill="#E1B394" transform="translate(310,412)"/>
<path d="M0 0 C2.97 0.495 2.97 0.495 6 1 C0.0428783 4.47498766 -6.2606305 5.28080706 -13 5 C-13 4.67 -13 4.34 -13 4 C-11.71802734 3.81824219 -11.71802734 3.81824219 -10.41015625 3.6328125 C-9.30542969 3.46523438 -8.20070313 3.29765625 -7.0625 3.125 C-5.96035156 2.96257812 -4.85820312 2.80015625 -3.72265625 2.6328125 C-2.37494141 2.31957031 -2.37494141 2.31957031 -1 2 C-0.67 1.34 -0.34 0.68 0 0 Z " fill="#EC955F" transform="translate(272,388)"/>
<path d="M0 0 C-0.99 1.485 -0.99 1.485 -2 3 C-5.2578125 3.51171875 -5.2578125 3.51171875 -9.125 3.6875 C-11.04699219 3.78611328 -11.04699219 3.78611328 -13.0078125 3.88671875 C-13.99523437 3.92410156 -14.98265625 3.96148437 -16 4 C-13.03476487 2.02317658 -10.84158175 1.24171007 -7.4375 0.3125 C-6.46683594 0.04050781 -5.49617187 -0.23148437 -4.49609375 -0.51171875 C-2 -1 -2 -1 0 0 Z " fill="#B48266" transform="translate(258,313)"/>
<path d="M0 0 C0 0.99 0 1.98 0 3 C-2.31 3.66 -4.62 4.32 -7 5 C-7 5.66 -7 6.32 -7 7 C-8.65 7 -10.3 7 -12 7 C-9.20232475 3.70861735 -4.40323273 0 0 0 Z " fill="#D39C85" transform="translate(372,298)"/>
<path d="M0 0 C1.32 0.33 2.64 0.66 4 1 C4 1.66 4 2.32 4 3 C4.639375 3.28875 5.27875 3.5775 5.9375 3.875 C8 5 8 5 9 7 C7.68 7.33 6.36 7.66 5 8 C4.34 7.01 3.68 6.02 3 5 C2.01 4.34 1.02 3.68 0 3 C0 2.01 0 1.02 0 0 Z " fill="#887368" transform="translate(261,49)"/>
<path d="M0 0 C1.65 0 3.3 0 5 0 C5.12375 0.804375 5.2475 1.60875 5.375 2.4375 C5.684375 3.7059375 5.684375 3.7059375 6 5 C6.66 5.33 7.32 5.66 8 6 C7.34 6 6.68 6 6 6 C5.67 6.66 5.34 7.32 5 8 C2.525 4.04 2.525 4.04 0 0 Z " fill="#7C9690" transform="translate(343,293)"/>
<path d="M0 0 C7.26153846 -0.61538462 7.26153846 -0.61538462 11 2.5 C11.66 3.325 12.32 4.15 13 5 C12.01 5.33 11.02 5.66 10 6 C9.34 5.67 8.68 5.34 8 5 C8 4.34 8 3.68 8 3 C5.36 2.34 2.72 1.68 0 1 C0 0.67 0 0.34 0 0 Z " fill="#D7A082" transform="translate(252,86)"/>
<path d="M0 0 C2.64 0.33 5.28 0.66 8 1 C8 1.33 8 1.66 8 2 C6.824375 2.0928125 6.824375 2.0928125 5.625 2.1875 C4.75875 2.455625 3.8925 2.72375 3 3 C1.62533375 5.47636012 1.62533375 5.47636012 1 8 C-0.65 8 -2.3 8 -4 8 C-2.68 7.67 -1.36 7.34 0 7 C0 4.69 0 2.38 0 0 Z " fill="#A39287" transform="translate(197,54)"/>
<path d="M0 0 C0.625 2.875 0.625 2.875 1 6 C0.34 6.66 -0.32 7.32 -1 8 C-1.33 6.35 -1.66 4.7 -2 3 C-2.61875 3.20625 -3.2375 3.4125 -3.875 3.625 C-4.57625 3.74875 -5.2775 3.8725 -6 4 C-6.66 3.34 -7.32 2.68 -8 2 C-5.09399739 0.74335022 -3.20395416 0 0 0 Z " fill="#65766B" transform="translate(348,399)"/>
<path d="M0 0 C-2 2 -2 2 -4.8203125 2.1953125 C-5.91085937 2.17210937 -7.00140625 2.14890625 -8.125 2.125 C-9.22070312 2.10695313 -10.31640625 2.08890625 -11.4453125 2.0703125 C-12.28835938 2.04710937 -13.13140625 2.02390625 -14 2 C-9.39809749 -0.42988387 -5.08896931 -1.7615663 0 0 Z " fill="#FAAF81" transform="translate(270,393)"/>
<path d="M0 0 C0.99 0.33 1.98 0.66 3 1 C3 2.32 3 3.64 3 5 C0.36 5.99 -2.28 6.98 -5 8 C-3.62845496 5.04590299 -2.01136276 2.55991624 0 0 Z " fill="#5D847E" transform="translate(125,265)"/>
<path d="M0 0 C0.99 0.33 1.98 0.66 3 1 C2.01 1.66 1.02 2.32 0 3 C-0.495 3.845625 -0.99 4.69125 -1.5 5.5625 C-3 8 -3 8 -6 9 C-4.68775452 5.06326356 -3.08089673 2.77280706 0 0 Z " fill="#E0AC8E" transform="translate(245,246)"/>
<path d="M0 0 C4.29425875 1.07356469 4.74740471 1.5084773 7 5 C6.34 6.32 5.68 7.64 5 9 C3.35 6.03 1.7 3.06 0 0 Z " fill="#EFC9AF" transform="translate(368,326)"/>
<path d="M0 0 C2.96052484 3.36423277 3.92289822 6.69159287 5 11 C3.046875 10.2890625 3.046875 10.2890625 1 9 C0.390625 6.8359375 0.390625 6.8359375 0.25 4.375 C0.19328125 3.55773437 0.1365625 2.74046875 0.078125 1.8984375 C0.05234375 1.27195312 0.0265625 0.64546875 0 0 Z " fill="#EECAB4" transform="translate(410,298)"/>
<path d="M0 0 C0.33 0 0.66 0 1 0 C1 1.65 1 3.3 1 5 C1.99 5 2.98 5 4 5 C4 5.66 4 6.32 4 7 C4.66 7 5.32 7 6 7 C6 7.66 6 8.32 6 9 C4.02 8.34 2.04 7.68 0 7 C-1.125 2.25 -1.125 2.25 0 0 Z " fill="#7A9492" transform="translate(113,285)"/>
<path d="M0 0 C0.66 0.33 1.32 0.66 2 1 C-2.14285714 7.42857143 -2.14285714 7.42857143 -5 10 C-5.66 9.67 -6.32 9.34 -7 9 C-6.21654285 7.82780457 -5.42297164 6.66236332 -4.625 5.5 C-4.18414062 4.8503125 -3.74328125 4.200625 -3.2890625 3.53125 C-2.65097656 2.77328125 -2.65097656 2.77328125 -2 2 C-1.34 2 -0.68 2 0 2 C0 1.34 0 0.68 0 0 Z " fill="#96A9A3" transform="translate(153,212)"/>
<path d="M0 0 C3.02990095 1.71967351 5.76327296 3.29238306 8 6 C8 6.66 8 7.32 8 8 C7.01 8 6.02 8 5 8 C4.731875 7.195625 4.46375 6.39125 4.1875 5.5625 C3.795625 4.716875 3.40375 3.87125 3 3 C2.01 2.67 1.02 2.34 0 2 C0 1.34 0 0.68 0 0 Z " fill="#8E786C" transform="translate(281,64)"/>
<path d="M0 0 C-0.33 0.66 -0.66 1.32 -1 2 C-2.32 2 -3.64 2 -5 2 C-5 3.98 -5 5.96 -5 8 C-5.33 8 -5.66 8 -6 8 C-6 6.02 -6 4.04 -6 2 C-6.99 1.67 -7.98 1.34 -9 1 C-6.04335481 -0.4783226 -3.25770263 -0.06032783 0 0 Z " fill="#E0C2AD" transform="translate(354,396)"/>
<path d="M0 0 C0.66 1.32 1.32 2.64 2 4 C3.65 3.67 5.3 3.34 7 3 C7 3.66 7 4.32 7 5 C5.68 5 4.36 5 3 5 C2.67 5.99 2.34 6.98 2 8 C1.01 7.67 0.02 7.34 -1 7 C-0.67 4.69 -0.34 2.38 0 0 Z " fill="#D5B6A1" transform="translate(344,352)"/>
<path d="M0 0 C0.66 0.33 1.32 0.66 2 1 C1.375 2.9375 1.375 2.9375 0 5 C-3.125 5.75 -3.125 5.75 -6 6 C-6 5.34 -6 4.68 -6 4 C-4.03852126 2.61061923 -2.03833424 1.2739589 0 0 Z " fill="#D18D69" transform="translate(280,289)"/>
<path d="M0 0 C3.63 0.33 7.26 0.66 11 1 C10.67 1.99 10.34 2.98 10 4 C6.7 3.01 3.4 2.02 0 1 C0 0.67 0 0.34 0 0 Z " fill="#8E7A60" transform="translate(243,420)"/>
<path d="M0 0 C2.97 0.33 5.94 0.66 9 1 C5.99382731 4.00617269 3.17618402 3.59585316 -1 4 C-0.67 2.68 -0.34 1.36 0 0 Z " fill="#F1C7A7" transform="translate(128,374)"/>
<path d="M0 0 C0.66 0 1.32 0 2 0 C2.69685498 1.6210103 3.38222861 3.24696066 4.0625 4.875 C4.63677734 6.23238281 4.63677734 6.23238281 5.22265625 7.6171875 C6 10 6 10 5 12 C4.16180842 10.37750059 3.3295884 8.75191503 2.5 7.125 C2.0359375 6.22007812 1.571875 5.31515625 1.09375 4.3828125 C0 2 0 2 0 0 Z " fill="#DAB496" transform="translate(220,198)"/>
<path d="M0 0 C0.99 0 1.98 0 3 0 C3.33 1.32 3.66 2.64 4 4 C5.32 4.33 6.64 4.66 8 5 C7.67 5.66 7.34 6.32 7 7 C3.17053157 5.54744301 1.87949705 3.57104439 0 0 Z " fill="#EFCDBA" transform="translate(101,371)"/>
<path d="M0 0 C1.98 0 3.96 0 6 0 C5.6875 2.375 5.6875 2.375 5 5 C4.01 5.66 3.02 6.32 2 7 C2.50603992 4.83125748 2.99983813 3.00032373 4 1 C2.68 0.67 1.36 0.34 0 0 Z " fill="#E2AB8D" transform="translate(289,288)"/>
<path d="M0 0 C0.66 0.66 1.32 1.32 2 2 C1.875 3.9375 1.875 3.9375 1 6 C-1.0625 7.75 -1.0625 7.75 -3 9 C-2.01 6.03 -1.02 3.06 0 0 Z " fill="#889F9A" transform="translate(123,262)"/>
<path d="M0 0 C0.33 0 0.66 0 1 0 C0.75 3.375 0.75 3.375 0 7 C-2.0625 8.4375 -2.0625 8.4375 -4 9 C-2.94124926 5.59687262 -1.99097846 2.98646769 0 0 Z " fill="#92AAA3" transform="translate(141,228)"/>
<path d="M0 0 C-0.33 0.99 -0.66 1.98 -1 3 C-5.455 3.495 -5.455 3.495 -10 4 C-6.86268382 1.90845588 -3.85464592 0 0 0 Z " fill="#797A62" transform="translate(300,422)"/>
<path d="M0 0 C-5.625 3 -5.625 3 -9 3 C-9 2.34 -9 1.68 -9 1 C-5.57367167 -0.61798838 -3.61944899 -1.34053666 0 0 Z " fill="#DBB594" transform="translate(340,402)"/>
<path d="M0 0 C0 0.99 0 1.98 0 3 C-2.35438733 4.42944945 -3.48032433 5.08661261 -6.25 4.625 C-6.8275 4.41875 -7.405 4.2125 -8 4 C-2.25 0 -2.25 0 0 0 Z " fill="#DAAE93" transform="translate(332,368)"/>
<path d="M0 0 C2.31 0.66 4.62 1.32 7 2 C7 2.66 7 3.32 7 4 C4.69 4 2.38 4 0 4 C0 2.68 0 1.36 0 0 Z " fill="#DD9965" transform="translate(251,360)"/>
<path d="M0 0 C0.99 0.33 1.98 0.66 3 1 C3.33 2.65 3.66 4.3 4 6 C3.01 5.34 2.02 4.68 1 4 C0.34 5.32 -0.32 6.64 -1 8 C-1.125 2.25 -1.125 2.25 0 0 Z " fill="#D09362" transform="translate(279,354)"/>
<path d="M0 0 C0.66 0.33 1.32 0.66 2 1 C2.33 1.99 2.66 2.98 3 4 C0.36 4.33 -2.28 4.66 -5 5 C-3.35 3.35 -1.7 1.7 0 0 Z " fill="#617669" transform="translate(192,344)"/>
<path d="M0 0 C1.9375 0.8125 1.9375 0.8125 4 2 C4.33 2.99 4.66 3.98 5 5 C3.68 4.67 2.36 4.34 1 4 C0.67 4.66 0.34 5.32 0 6 C0 4.02 0 2.04 0 0 Z " fill="#D59F65" transform="translate(266,339)"/>
<path d="M0 0 C2.64 0.33 5.28 0.66 8 1 C4.5647952 3.29013653 3.014669 3.17842973 -1 3 C-0.67 2.01 -0.34 1.02 0 0 Z " fill="#EAB694" transform="translate(232,315)"/>
<path d="M0 0 C1.4606285 2.64738916 2 3.89448334 2 7 C0.68 7.33 -0.64 7.66 -2 8 C-1.47731534 5.23723823 -0.89130413 2.6739124 0 0 Z " fill="#8CA49E" transform="translate(117,275)"/>
</svg>
