<?xml version="1.0" encoding="UTF-8"?>
<svg version="1.1" xmlns="http://www.w3.org/2000/svg" width="500" height="500">
<path d="M0 0 C6.11987083 1.19997467 8.4549418 2.84355171 12 8 C12 8.66 12 9.32 12 10 C12.66 9.67 13.32 9.34 14 9 C21.15348642 8.18891697 25.84651037 9.35348762 32 13 C32 13.66 32 14.32 32 15 C32.66 15 33.32 15 34 15 C34 15.66 34 16.32 34 17 C34.66 17 35.32 17 36 17 C44.71197454 27.62809798 47.40144313 42.03401775 48.28027344 55.35327148 C48.67339169 60.7644628 49.97886042 64.96327717 52 70 C52.57711484 75.482591 51.60356947 79.15197408 49 84 C46.3125 86.9375 46.3125 86.9375 44 89 C47.87005341 96.31498732 52.02766567 103.36566822 56.4609375 110.34765625 C58 113 58 113 58 115 C58.98846924 114.83991455 59.97693848 114.6798291 60.99536133 114.51489258 C65.01643754 113.94354978 69.01705426 113.80494927 73.07421875 113.76171875 C73.83219757 113.75206085 74.59017639 113.74240295 75.37112427 113.73245239 C77.8099663 113.70773577 80.24854644 113.69507504 82.6875 113.6875 C83.93096695 113.68307388 83.93096695 113.68307388 85.19955444 113.67855835 C115.16003524 113.65424832 134.82354924 121.22737127 156.3125 142.0625 C159 145 159 145 159 147 C159.66 147 160.32 147 161 147 C162.39599396 148.52837269 163.71587649 150.12650099 165 151.75 C165.80179688 152.75289062 166.60359375 153.75578125 167.4296875 154.7890625 C168.06148926 155.58231934 168.06148926 155.58231934 168.70605469 156.39160156 C170.80657977 159.00259387 172.96870284 161.55986362 175.125 164.125 C187 178.375 187 178.375 187 181 C187.66 181 188.32 181 189 181 C189.66 181.99 190.32 182.98 191 184 C190.71125 185.11375 190.4225 186.2275 190.125 187.375 C189.15618734 193.6209922 193.53765463 198.33807919 196.85058594 203.26464844 C202.03110533 211.08604433 206.2887776 219.22258705 209.875 227.875 C210.30437866 228.90898926 210.30437866 228.90898926 210.74243164 229.96386719 C213.82266098 237.65564518 216.83214071 246.05321925 214.30078125 254.26953125 C210.69528815 262.56618638 204.24445555 268.64684019 198 275 C197.10539062 275.93328125 196.21078125 276.8665625 195.2890625 277.828125 C190.86083951 282.38532535 190.86083951 282.38532535 189 284 C188.34 284 187.68 284 187 284 C187 284.66 187 285.32 187 286 C185.07654592 287.64910561 183.15311697 289.17661902 181.125 290.6875 C180.54016846 291.13013184 179.95533691 291.57276367 179.3527832 292.02880859 C174.32420971 295.81272633 169.19987429 299.45516471 164 303 C164.69125752 310.94605063 165.8203752 318.80129225 167 326.6875 C168.43456027 336.45836416 169.66414085 346.12574089 170 356 C165.19643528 359.36966481 159.87108454 360.78443162 154.3125 362.4375 C153.29099854 362.74389404 152.26949707 363.05028809 151.21704102 363.3659668 C144.99726433 365.19964911 138.76506359 366.89320062 132.4375 368.3125 C131.78628174 368.45937256 131.13506348 368.60624512 130.46411133 368.75756836 C118.51577267 371.29664591 106.57132216 372.38295732 94.375 372.6875 C93.67656982 372.70646332 92.97813965 372.72542664 92.25854492 372.7449646 C31.52118716 374.34745811 31.52118716 374.34745811 10 360 C9.70703125 356.95898438 9.70703125 356.95898438 9.8125 353.09375 C9.82385986 352.41324585 9.83521973 351.7327417 9.84692383 351.03161621 C9.8960725 348.11562871 9.98052646 345.20089289 10.06152344 342.28564453 C10.1156208 340.15923851 10.15199694 338.03303435 10.1875 335.90625 C10.22230469 334.63072266 10.25710937 333.35519531 10.29296875 332.04101562 C10.19628906 331.03748047 10.09960938 330.03394531 10 329 C9.01 328.34 8.02 327.68 7 327 C7 326.34 7 325.68 7 325 C6.42378906 324.72671875 5.84757812 324.4534375 5.25390625 324.171875 C3.00948907 323.00493366 1.01324214 321.69331977 -1.0625 320.25 C-4.36768967 318.00700016 -7.69845549 316.07502725 -11.25 314.25 C-25.37069604 306.67545297 -40.27754504 295.14695828 -45.11328125 279.3671875 C-46.26777843 274.47604916 -46.29844623 269.69257298 -46.25 264.6875 C-46.24830811 263.73705811 -46.24661621 262.78661621 -46.24487305 261.80737305 C-46.16957408 254.4348082 -45.55031808 247.1928798 -44.44824219 239.90307617 C-44.07641569 237.44266108 -44.07641569 237.44266108 -44 234 C-44.99741937 232.99742601 -45.99737189 231.99736497 -47 231 C-46.85635979 228.18964799 -46.53714124 225.74182545 -46 223 C-45.85143555 222.19240234 -45.70287109 221.38480469 -45.54980469 220.55273438 C-33.81978248 158.96433375 -33.81978248 158.96433375 -12.453125 140.1640625 C-10.56095987 138.4948595 -8.75311879 136.81155609 -7 135 C-8.21236328 134.12988281 -8.21236328 134.12988281 -9.44921875 133.2421875 C-20.3904754 125.28537531 -20.3904754 125.28537531 -24 120 C-24 119.34 -24 118.68 -24 118 C-24.66 118 -25.32 118 -26 118 C-27.14160156 116.61401367 -27.14160156 116.61401367 -28.390625 114.66796875 C-28.84961182 113.95680908 -29.30859863 113.24564941 -29.78149414 112.51293945 C-30.26610107 111.74554443 -30.75070801 110.97814941 -31.25 110.1875 C-31.74943115 109.41301514 -32.2488623 108.63853027 -32.76342773 107.84057617 C-35.47027404 103.59792429 -37.88006312 99.35347818 -40.0625 94.8125 C-42.64674999 89.8468336 -45.7904218 87.82926968 -50.6640625 85.24609375 C-55.64751467 82.58769702 -57.99406726 79.53423806 -59.8125 74.3125 C-60.48953044 72.08690268 -61 70.32479856 -61 68 C-61.763125 67.71125 -62.52625 67.4225 -63.3125 67.125 C-66 66 -66 66 -69 64 C-69 63.34 -69 62.68 -69 62 C-69.66 62 -70.32 62 -71 62 C-74.16726074 56.01896744 -76.19615045 50.81443287 -75 44 C-73.24228063 38.6986432 -70.79456466 35.0105406 -66 32 C-63.69293903 30.88972691 -61.38743924 29.93625068 -59 29 C-59.33 28.01 -59.66 27.02 -60 26 C-59.38253906 25.99742188 -58.76507813 25.99484375 -58.12890625 25.9921875 C-51.71232645 25.69919299 -47.92142414 24.15465225 -42.8125 20.27734375 C-41 19 -41 19 -39 19 C-39 18.34 -39 17.68 -39 17 C-38.34 17 -37.68 17 -37 17 C-37 16.34 -37 15.68 -37 15 C-36.34 15 -35.68 15 -35 15 C-35 14.34 -35 13.68 -35 13 C-27.21870629 6.1470602 -17.55017591 1.23393962 -7.015625 1.7265625 C-4.18675338 2.11032415 -1.63463498 2.91912411 1 4 C0.505 3.505 0.505 3.505 0 3 C0 2.01 0 1.02 0 0 Z M146 225 C146.95098463 229.23800105 147.91147385 233.4736993 148.88085938 237.70751953 C149.20933409 239.14832909 149.53519682 240.58973671 149.85839844 242.03173828 C150.32322922 244.10351473 150.79738938 246.17296373 151.2734375 248.2421875 C151.69761963 250.11173096 151.69761963 250.11173096 152.13037109 252.01904297 C152.7660658 255.08658779 152.7660658 255.08658779 155 257 C156.48448016 255.23361856 157.96241965 253.46173862 159.4375 251.6875 C160.26121094 250.70136719 161.08492187 249.71523438 161.93359375 248.69921875 C164.14121576 246.11899855 164.14121576 246.11899855 165 243 C163.49534919 240.56234722 161.9698117 238.33913598 160.25 236.0625 C159.79367187 235.44181641 159.33734375 234.82113281 158.8671875 234.18164062 C157.98054557 232.97852391 157.08432208 231.78239756 156.17773438 230.59423828 C155 229 155 229 153.546875 226.55859375 C152.00205737 224.64500415 152.00205737 224.64500415 148.90332031 224.90258789 C147.94522461 224.93473389 146.98712891 224.96687988 146 225 Z M4 242 C3.67 243.65 3.34 245.3 3 247 C1.68 247.33 0.36 247.66 -1 248 C-1.67617524 250.37265061 -2.34108226 252.74755355 -3 255.125 C-3.19078125 255.79015625 -3.3815625 256.4553125 -3.578125 257.140625 C-5.00900473 262.35311543 -6.16925186 266.66149627 -3.6796875 271.640625 C-3.08414063 272.50171875 -2.48859375 273.3628125 -1.875 274.25 C1.20499641 278.81365322 4.0680676 283.44055472 6.8359375 288.19921875 C7.22007812 288.79347656 7.60421875 289.38773437 8 290 C8.33 290 8.66 290 9 290 C9.20496094 288.94039063 9.40992188 287.88078125 9.62109375 286.7890625 C9.89307666 285.40101178 10.16522044 284.01299256 10.4375 282.625 C10.63956055 281.57699219 10.63956055 281.57699219 10.84570312 280.5078125 C11.88671875 275.2265625 11.88671875 275.2265625 13 273 C14.6563259 262.29034728 10.64355148 253.39216068 6 244 C5.34 243.34 4.68 242.68 4 242 Z " fill="#759D95" transform="translate(190,63)"/>
<path d="M0 0 C6.11987083 1.19997467 8.4549418 2.84355171 12 8 C12 8.66 12 9.32 12 10 C12.66 9.67 13.32 9.34 14 9 C21.15348642 8.18891697 25.84651037 9.35348762 32 13 C32 13.66 32 14.32 32 15 C32.66 15 33.32 15 34 15 C34 15.66 34 16.32 34 17 C34.66 17 35.32 17 36 17 C44.71197454 27.62809798 47.40144313 42.03401775 48.28027344 55.35327148 C48.67339169 60.7644628 49.97886042 64.96327717 52 70 C52.57711484 75.482591 51.60356947 79.15197408 49 84 C46.3125 86.9375 46.3125 86.9375 44 89 C47.87005341 96.31498732 52.02766567 103.36566822 56.4609375 110.34765625 C58 113 58 113 58 115 C60.31 115 62.62 115 65 115 C65 115.33 65 115.66 65 116 C62.03 116.495 62.03 116.495 59 117 C59.495 117.804375 59.99 118.60875 60.5 119.4375 C62.72303368 124.71720499 63.01294837 129.0174298 61.15625 134.484375 C57.06379134 143.38823776 50.97198063 150.85908586 42 155 C39.03459063 155.89084314 36.2172236 156.24976976 33.125 156.375 C32.30257812 156.42398438 31.48015625 156.47296875 30.6328125 156.5234375 C26.84249563 155.76987302 24.38002159 153.95346721 22 151 C20.79693853 148.29535749 20.18951981 145.58519571 19.625 142.6875 C19.46128906 141.94693359 19.29757813 141.20636719 19.12890625 140.44335938 C18.7318677 138.6333307 18.36300495 136.81716009 18 135 C16.82824219 135.15210938 15.65648437 135.30421875 14.44921875 135.4609375 C3.52405346 136.80106549 -4.67238824 137.51835444 -13.68896484 130.70922852 C-17.66856256 127.49474461 -21.0307767 124.15691262 -24 120 C-24 119.34 -24 118.68 -24 118 C-24.66 118 -25.32 118 -26 118 C-27.14160156 116.61401367 -27.14160156 116.61401367 -28.390625 114.66796875 C-28.84961182 113.95680908 -29.30859863 113.24564941 -29.78149414 112.51293945 C-30.26610107 111.74554443 -30.75070801 110.97814941 -31.25 110.1875 C-31.74943115 109.41301514 -32.2488623 108.63853027 -32.76342773 107.84057617 C-35.47027404 103.59792429 -37.88006312 99.35347818 -40.0625 94.8125 C-42.64674999 89.8468336 -45.7904218 87.82926968 -50.6640625 85.24609375 C-55.64751467 82.58769702 -57.99406726 79.53423806 -59.8125 74.3125 C-60.48953044 72.08690268 -61 70.32479856 -61 68 C-61.763125 67.71125 -62.52625 67.4225 -63.3125 67.125 C-66 66 -66 66 -69 64 C-69 63.34 -69 62.68 -69 62 C-69.66 62 -70.32 62 -71 62 C-74.16726074 56.01896744 -76.19615045 50.81443287 -75 44 C-73.24228063 38.6986432 -70.79456466 35.0105406 -66 32 C-63.69293903 30.88972691 -61.38743924 29.93625068 -59 29 C-59.33 28.01 -59.66 27.02 -60 26 C-59.38253906 25.99742188 -58.76507813 25.99484375 -58.12890625 25.9921875 C-51.71232645 25.69919299 -47.92142414 24.15465225 -42.8125 20.27734375 C-41 19 -41 19 -39 19 C-39 18.34 -39 17.68 -39 17 C-38.34 17 -37.68 17 -37 17 C-37 16.34 -37 15.68 -37 15 C-36.34 15 -35.68 15 -35 15 C-35 14.34 -35 13.68 -35 13 C-27.21870629 6.1470602 -17.55017591 1.23393962 -7.015625 1.7265625 C-4.18675338 2.11032415 -1.63463498 2.91912411 1 4 C0.505 3.505 0.505 3.505 0 3 C0 2.01 0 1.02 0 0 Z " fill="#FAB086" transform="translate(190,63)"/>
<path d="M0 0 C13.07519018 12.16561173 24.46789977 38.42996937 26.4375 55.875 C25.97208897 67.28865136 16.46942886 75.4005424 9 83 C8.10539063 83.93328125 7.21078125 84.8665625 6.2890625 85.828125 C1.86083951 90.38532535 1.86083951 90.38532535 0 92 C-0.66 92 -1.32 92 -2 92 C-2 92.66 -2 93.32 -2 94 C-3.92352155 95.64916346 -5.84651375 97.17696704 -7.875 98.6875 C-8.75986084 99.35471069 -8.75986084 99.35471069 -9.66259766 100.03540039 C-11.43544651 101.36563613 -13.21622418 102.68446533 -15 104 C-15.9384375 104.69609375 -16.876875 105.3921875 -17.84375 106.109375 C-21.85993142 109.00995047 -25.54357743 111.25549626 -30.13916016 113.15356445 C-33.45087328 114.65995508 -36.44829235 116.65611952 -39.5 118.625 C-40.90804519 119.52080408 -42.31691988 120.4153055 -43.7265625 121.30859375 C-44.79052246 121.98317627 -44.79052246 121.98317627 -45.87597656 122.67138672 C-49.17472661 124.73481175 -52.5252682 126.70836644 -55.875 128.6875 C-60.12886901 131.21101888 -64.28026866 133.81901718 -68.3125 136.6875 C-81.04625146 145.72909288 -92.04720179 150.23812762 -108 149 C-108.66 148.67 -109.32 148.34 -110 148 C-110 147.01 -110 146.02 -110 145 C-110.825 145.12375 -111.65 145.2475 -112.5 145.375 C-116.78706181 144.91567195 -119.08156798 143.64794243 -122.4296875 141 C-124.93839525 137.80482993 -124.6046546 134.89206824 -124.28125 130.9765625 C-124.1884375 130.32429687 -124.095625 129.67203125 -124 129 C-119.74641166 126.1964986 -116.11127074 124.67197712 -111.125 123.5625 C-106.07970725 122.42160465 -102.12492393 120.70943079 -97.7421875 117.98828125 C-96 117 -96 117 -94 117 C-93.67 115.35 -93.34 113.7 -93 112 C-93.56847656 111.97421875 -94.13695312 111.9484375 -94.72265625 111.921875 C-100.52502403 111.49565767 -104.1456851 110.20178217 -109 107 C-108.34 105.68 -107.68 104.36 -107 103 C-102.87501532 102.97061977 -98.75005809 102.95307465 -94.625 102.9375 C-93.46871094 102.92912109 -92.31242187 102.92074219 -91.12109375 102.91210938 C-85.02375972 102.89488527 -79.13323878 103.06063589 -73.09912109 103.97875977 C-70.50229717 104.00503607 -69.14175669 103.45055605 -67 102 C-66.505 100.515 -66.505 100.515 -66 99 C-64.5390625 97.59765625 -64.5390625 97.59765625 -62.625 96.0625 C-58.81383637 92.83926542 -55.42349198 89.36588845 -52.0625 85.6875 C-51.57797363 85.15970947 -51.09344727 84.63191895 -50.59423828 84.08813477 C-48.00417428 81.2528429 -48.00417428 81.2528429 -46 78 C-45.34 78 -44.68 78 -44 78 C-43.773125 77.46375 -43.54625 76.9275 -43.3125 76.375 C-41.54429911 73.17539839 -39.46329797 70.70962777 -37 68 C-36.34 68 -35.68 68 -35 68 C-35.33 66.35 -35.66 64.7 -36 63 C-35.41734375 62.75507813 -34.8346875 62.51015625 -34.234375 62.2578125 C-31.63697764 60.79564126 -30.16024169 59.15259586 -28.25 56.875 C-27.63640625 56.15054688 -27.0228125 55.42609375 -26.390625 54.6796875 C-25.93171875 54.12539063 -25.4728125 53.57109375 -25 53 C-26.56547568 48.33025719 -29.12424069 44.74407379 -32 40.8125 C-32.45117188 40.18408203 -32.90234375 39.55566406 -33.3671875 38.90820312 C-35.13703023 36.46026976 -36.86064331 34.13935669 -39 32 C-38.36191406 31.89042969 -37.72382813 31.78085937 -37.06640625 31.66796875 C-36.24011719 31.50941406 -35.41382813 31.35085938 -34.5625 31.1875 C-33.73878906 31.03667969 -32.91507812 30.88585937 -32.06640625 30.73046875 C-31.38449219 30.48941406 -30.70257813 30.24835938 -30 30 C-29.505 28.515 -29.505 28.515 -29 27 C-27.30339084 25.47988374 -25.54321964 24.02984854 -23.75 22.625 C-19.91302496 19.60727098 -16.40560103 16.49827044 -13 13 C-12.175 12.21625 -11.35 11.4325 -10.5 10.625 C-8.04355383 8.04573152 -6.14021086 5.43119797 -4.2109375 2.453125 C-3 1 -3 1 0 0 Z " fill="#F9B388" transform="translate(379,255)"/>
<path d="M0 0 C6.11987083 1.19997467 8.4549418 2.84355171 12 8 C12 8.66 12 9.32 12 10 C12.66 9.67 13.32 9.34 14 9 C21.15348642 8.18891697 25.84651037 9.35348762 32 13 C32 13.66 32 14.32 32 15 C32.66 15 33.32 15 34 15 C34 15.66 34 16.32 34 17 C34.66 17 35.32 17 36 17 C44.56529628 27.44915909 48.2106196 43.25485531 48.0625 56.4375 C48.05347656 57.48808594 48.04445313 58.53867188 48.03515625 59.62109375 C48.02355469 60.40613281 48.01195312 61.19117188 48 62 C47.25878906 61.67902344 46.51757812 61.35804687 45.75390625 61.02734375 C41.75794072 59.53665023 39.26540349 59.52606628 35 60 C31.66214907 62.73874948 30.80193544 65.16930465 30.25 69.3125 C30.1675 70.529375 30.085 71.74625 30 73 C28.515 73.495 28.515 73.495 27 74 C23.47377959 70.80436275 20.84117584 67.4157321 18.125 63.5 C14.7874673 58.85129374 12.05465332 55.71453604 7 53 C2.15121498 52.49978146 -0.71001062 53.55293619 -4.9375 55.875 C-13.23587381 60.20281119 -21.026501 62.48859585 -30.37890625 60.4921875 C-33.5663482 59.89365146 -36.57165872 59.90476423 -39.8125 59.9375 C-41.55466797 59.95103516 -41.55466797 59.95103516 -43.33203125 59.96484375 C-44.65267578 59.98224609 -44.65267578 59.98224609 -46 60 C-48.62253507 67.8676052 -46.70998126 74.88348741 -43.875 82.43359375 C-43 85 -43 85 -43 88 C-48.77764773 88 -51.9794871 85.09299519 -56.0078125 81.3359375 C-59.26638605 77.51510028 -61 73.04893969 -61 68 C-61.763125 67.71125 -62.52625 67.4225 -63.3125 67.125 C-66 66 -66 66 -69 64 C-69 63.34 -69 62.68 -69 62 C-69.66 62 -70.32 62 -71 62 C-74.16726074 56.01896744 -76.19615045 50.81443287 -75 44 C-73.24228063 38.6986432 -70.79456466 35.0105406 -66 32 C-63.69293903 30.88972691 -61.38743924 29.93625068 -59 29 C-59.33 28.01 -59.66 27.02 -60 26 C-59.38253906 25.99742188 -58.76507813 25.99484375 -58.12890625 25.9921875 C-51.71232645 25.69919299 -47.92142414 24.15465225 -42.8125 20.27734375 C-41 19 -41 19 -39 19 C-39 18.34 -39 17.68 -39 17 C-38.34 17 -37.68 17 -37 17 C-37 16.34 -37 15.68 -37 15 C-36.34 15 -35.68 15 -35 15 C-35 14.34 -35 13.68 -35 13 C-27.21870629 6.1470602 -17.55017591 1.23393962 -7.015625 1.7265625 C-4.18675338 2.11032415 -1.63463498 2.91912411 1 4 C0.505 3.505 0.505 3.505 0 3 C0 2.01 0 1.02 0 0 Z " fill="#A6694F" transform="translate(190,63)"/>
<path d="M0 0 C1.8920793 3.28879041 2.50127458 6.24597337 3.03515625 9.98828125 C3.2043457 11.16358398 3.37353516 12.33888672 3.54785156 13.54980469 C3.71768555 14.79149414 3.88751953 16.03318359 4.0625 17.3125 C4.2387793 18.57094727 4.41505859 19.82939453 4.59667969 21.12597656 C5.77323576 29.74441658 6.70424656 38.30484876 7 47 C2.19643528 50.36966481 -3.12891546 51.78443162 -8.6875 53.4375 C-9.70900146 53.74389404 -10.73050293 54.05028809 -11.78295898 54.3659668 C-18.00273567 56.19964911 -24.23493641 57.89320062 -30.5625 59.3125 C-31.53932739 59.53280884 -31.53932739 59.53280884 -32.53588867 59.75756836 C-44.48422733 62.29664591 -56.42867784 63.38295732 -68.625 63.6875 C-69.32343018 63.70646332 -70.02186035 63.72542664 -70.74145508 63.7449646 C-131.47881284 65.34745811 -131.47881284 65.34745811 -153 51 C-153.328125 48.1640625 -153.328125 48.1640625 -153.25 44.625 C-153.22421875 43.3771875 -153.1984375 42.129375 -153.171875 40.84375 C-152.93496245 35.54552388 -152.54107986 30.27552868 -152 25 C-151.67 26.32 -151.34 27.64 -151 29 C-149.700625 29.185625 -149.700625 29.185625 -148.375 29.375 C-145 30 -145 30 -142.42578125 31.01953125 C-137.84034226 32.33189748 -133.557238 32.32967863 -128.8125 32.3125 C-127.45995117 32.33666992 -127.45995117 32.33666992 -126.08007812 32.36132812 C-125.21447266 32.36197266 -124.34886719 32.36261719 -123.45703125 32.36328125 C-122.67303955 32.36626221 -121.88904785 32.36924316 -121.08129883 32.37231445 C-118.48769535 31.90835606 -117.6957872 30.95821944 -116 29 C-114.0625 27.83203125 -114.0625 27.83203125 -112 26.8125 C-111.319375 26.46832031 -110.63875 26.12414062 -109.9375 25.76953125 C-108 25 -108 25 -105 25 C-104.67 23.35 -104.34 21.7 -104 20 C-103.01 19.67 -102.02 19.34 -101 19 C-100.71125 20.134375 -100.4225 21.26875 -100.125 22.4375 C-99.75375 23.613125 -99.3825 24.78875 -99 26 C-98.34 26.33 -97.68 26.66 -97 27 C-97 26.34 -97 25.68 -97 25 C-94 26 -94 26 -93 28 C-91.12007519 29.08701174 -89.19514855 30.09704212 -87.25 31.0625 C-85.67992187 31.85333984 -85.67992187 31.85333984 -84.078125 32.66015625 C-73.91324915 37.08471516 -61.26757167 35.35670612 -51 32 C-50.0925 31.62875 -49.185 31.2575 -48.25 30.875 C-46 30 -46 30 -43 30 C-43 29.34 -43 28.68 -43 28 C-40.09399739 26.74335022 -38.20395416 26 -35 26 C-35 25.34 -35 24.68 -35 24 C-34.410979 23.83395264 -33.82195801 23.66790527 -33.21508789 23.49682617 C-30.49693883 22.72922663 -27.77972006 21.95838135 -25.0625 21.1875 C-24.13630859 20.92646484 -23.21011719 20.66542969 -22.25585938 20.39648438 C-10.41798643 17.65135883 -10.41798643 17.65135883 0 12 C0.43514747 8.51882027 0.10886989 6.32660966 -1 3 C-0.67 2.01 -0.34 1.02 0 0 Z " fill="#749C96" transform="translate(353,372)"/>
<path d="M0 0 C4.84659077 0.59104765 8.60748167 1.97944157 13 4 C13 4.66 13 5.32 13 6 C13.78375 6.0825 14.5675 6.165 15.375 6.25 C18.47119458 6.89059198 20.81347955 7.7044673 23.6875 8.9375 C29.00982311 11.16526082 34.30926043 12.17776386 40 13 C41.01909709 18.80885342 40.79636714 22.29389261 39 28 C38.57195234 32.7993223 39.32821831 35.19484565 42.0625 39.125 C44.80881135 43.21083873 47.44083595 47.31817111 49.9375 51.5625 C50.81728516 53.04943359 50.81728516 53.04943359 51.71484375 54.56640625 C53 57 53 57 53 59 C54.0725 58.83628906 55.145 58.67257812 56.25 58.50390625 C61.82884555 57.80655056 67.38649965 57.89183323 73 57.9375 C74.59134766 57.94426758 74.59134766 57.94426758 76.21484375 57.95117188 C78.80995598 57.96286157 81.40494709 57.97924724 84 58 C83.67 59.98 83.34 61.96 83 64 C81.0429132 64.67031719 79.08428887 65.33614683 77.125 66 C76.03445312 66.37125 74.94390625 66.7425 73.8203125 67.125 C71 68 71 68 69 68 C69 69.32 69 70.64 69 72 C69.99 72.37125 69.99 72.37125 71 72.75 C73.36212505 73.73421877 75.59768881 74.78112214 77.875 75.9375 C82.7254757 78.38548867 87.50825103 80.57733779 92.75 82.0625 C96 83 96 83 99 85 C98.67 86.98 98.34 88.96 98 91 C98.66 91 99.32 91 100 91 C99.67 92.65 99.34 94.3 99 96 C97.35 96 95.7 96 94 96 C93.505 97.98 93.505 97.98 93 100 C91.02 100.33 89.04 100.66 87 101 C87 101.99 87 102.98 87 104 C82.5238763 106.23806185 76.93459772 105.47416611 72.2109375 104.31640625 C65.79817008 102.13967815 60.42802748 99.0207611 55 95 C54.505 96.98 54.505 96.98 54 99 C53.71125 98.030625 53.4225 97.06125 53.125 96.0625 C52.35785318 92.89335797 52.35785318 92.89335797 50 92 C50 91.34 50 90.68 50 90 C49.42378906 89.72671875 48.84757812 89.4534375 48.25390625 89.171875 C46.00948907 88.00493366 44.01324214 86.69331977 41.9375 85.25 C38.63231033 83.00700016 35.30154451 81.07502725 31.75 79.25 C17.62933004 71.67546696 2.73601686 60.15188642 -2.11328125 44.37890625 C-3.28298039 39.42681549 -3.30020946 34.56715643 -3.25 29.5 C-3.24540771 28.54254883 -3.24081543 27.58509766 -3.23608398 26.59863281 C-2.97602099 5.95204197 -2.97602099 5.95204197 0 0 Z " fill="#F9B78B" transform="translate(147,298)"/>
<path d="M0 0 C3.8704007 3.15032615 7.66400825 6.27153863 11 10 C11 10.99 11 11.98 11 13 C11.99 13.33 12.98 13.66 14 14 C14 14.99 14 15.98 14 17 C14.66 17 15.32 17 16 17 C16 17.66 16 18.32 16 19 C16.5878125 19.25007813 17.175625 19.50015625 17.78125 19.7578125 C20.29341102 21.16426885 21.66645352 22.66640992 23.5 24.875 C24.10714844 25.5865625 24.71429688 26.298125 25.33984375 27.03125 C25.88769531 27.6809375 26.43554688 28.330625 27 29 C30.06581134 32.5303282 32.47542705 33.76602556 37 35 C36.505 35.61875 36.01 36.2375 35.5 36.875 C33.80777227 38.83880904 33.80777227 38.83880904 34 41 C34.31686577 42.36523879 34.66255522 43.72385588 35.0234375 45.078125 C37.09382186 52.98217625 39.15529316 60.89683641 40.625 68.9375 C40.92277344 70.52884766 40.92277344 70.52884766 41.2265625 72.15234375 C40.90555221 76.18711096 38.98806132 77.41999992 36 80 C35.278125 80.928125 34.55625 81.85625 33.8125 82.8125 C33.214375 83.534375 32.61625 84.25625 32 85 C31.34 85 30.68 85 30 85 C29.74186523 85.57886963 29.48373047 86.15773926 29.21777344 86.75415039 C27.89688406 89.19016912 26.41467589 90.91911325 24.515625 92.93359375 C23.82726562 93.66513672 23.13890625 94.39667969 22.4296875 95.15039062 C21.71039063 95.90513672 20.99109375 96.65988281 20.25 97.4375 C19.54617188 98.18837891 18.84234375 98.93925781 18.1171875 99.71289062 C7.57350985 110.85430464 7.57350985 110.85430464 2.625 111.3125 C1.75875 111.209375 0.8925 111.10625 0 111 C1.5925771 109.93828193 3.18728111 108.87948868 4.796875 107.84375 C10.69966521 103.78263033 14.19960156 99.00761675 18 93 C18.67289062 91.98421875 19.34578125 90.9684375 20.0390625 89.921875 C28.10764785 77.98566792 28.10764785 77.98566792 30.74609375 64.3125 C30.04012846 61.765067 30.04012846 61.765067 28 59 C28 58.01 28 57.02 28 56 C26.515 55.505 26.515 55.505 25 55 C23.96708324 53.01679982 22.9662501 51.01652194 22 49 C21.34 48.67 20.68 48.34 20 48 C20 47.01 20 46.02 20 45 C19.34 45 18.68 45 18 45 C15.64071621 40.3459721 13.31001111 35.67861763 11 31 C10.68514648 30.36449219 10.37029297 29.72898437 10.04589844 29.07421875 C0 8.66551656 0 8.66551656 0 0 Z " fill="#59847E" transform="translate(303,248)"/>
<path d="M0 0 C0 3.63 0 7.26 0 11 C0.33 11 0.66 11 1 11 C1.36886319 17.51658302 1.36886319 17.51658302 -0.2578125 19.6484375 C-2.21897344 21.16987626 -3.66460077 21.69082242 -6.0625 22.3125 C-9.5786247 23.27995443 -13.03751122 24.3356085 -16.484375 25.5234375 C-17.27835693 25.79631592 -18.07233887 26.06919434 -18.89038086 26.3503418 C-20.48417785 26.90120662 -22.07620466 27.45722455 -23.66625977 28.01879883 C-27.56090452 29.35320385 -30.81917317 30.37552337 -35 30 C-35 30.66 -35 31.32 -35 32 C-38.08809695 33.76462683 -39.23312136 34 -43 34 C-43 34.66 -43 35.32 -43 36 C-50.9541044 39.07000521 -58.46313477 41.39638327 -67 42 C-67.74507813 42.05414063 -68.49015625 42.10828125 -69.2578125 42.1640625 C-78.38324684 42.51381782 -86.50089403 39.07193998 -94 34 C-94.33 33.34 -94.66 32.68 -95 32 C-95.99 31.67 -96.98 31.34 -98 31 C-98 30.34 -98 29.68 -98 29 C-95.0280615 30.12451727 -92.66559313 31.22293791 -90 33 C-88.0103005 33.39013716 -86.00980131 33.73202649 -84 34 C-84 34.99 -84 35.98 -84 37 C-65.39079322 37.68640517 -54.05281965 32.85184368 -38.86083984 22.54931641 C-32.53373476 18.28633386 -26.02793632 14.37958084 -19.4609375 10.5 C-14.476016 7.53682685 -9.64480967 4.4527691 -4.91015625 1.1015625 C-3 0 -3 0 0 0 Z " fill="#5A847F" transform="translate(353,366)"/>
<path d="M0 0 C0.66 0.33 1.32 0.66 2 1 C2.58370443 3.22975091 3.06786457 5.48598609 3.5 7.75 C4.33296498 12.07779629 5.29187856 15.94403595 7 20 C7.57752067 21.89131176 8.13865944 23.78766729 8.6875 25.6875 C9.90680716 29.76426744 11.24686018 33.6993077 12.8515625 37.640625 C13.17423096 38.43509033 13.49689941 39.22955566 13.8293457 40.0480957 C14.47386093 41.61449016 15.13085427 43.17582101 15.80151367 44.73120117 C17.63644796 49.19411361 18.52685597 52.20234355 17 57 C14.92195123 59.07804877 13.75672886 60.03141959 11 61 C7.3125 60.75 7.3125 60.75 4 60 C-2.06645154 47.86709691 -0.30555785 28.01144355 -0.75 14.375 C-0.79447266 13.05918945 -0.83894531 11.74337891 -0.88476562 10.38769531 C-1.07122134 3.50528585 -1.07122134 3.50528585 -1 1 C-0.67 0.67 -0.34 0.34 0 0 Z " fill="#56827E" transform="translate(177,249)"/>
<path d="M0 0 C1.43739513 -0.02712066 2.87493863 -0.04645067 4.3125 -0.0625 C5.51326172 -0.07990234 5.51326172 -0.07990234 6.73828125 -0.09765625 C9 0 9 0 12 1 C17.14943278 1.4017339 17.14943278 1.4017339 22 0 C23.70702735 -0.06996014 25.41668003 -0.08440154 27.125 -0.0625 C28.03507812 -0.05347656 28.94515625 -0.04445313 29.8828125 -0.03515625 C30.93082031 -0.01775391 30.93082031 -0.01775391 32 0 C32 0.66 32 1.32 32 2 C32.99 2.33 33.98 2.66 35 3 C34.875 4.8125 34.875 4.8125 34 7 C32.01753602 8.03432904 30.01586684 9.03238392 28 10 C24.33442725 13.41277463 24.39760364 17.22875637 24 22 C23.01 22.33 22.02 22.66 21 23 C17.49249499 19.82132359 14.8814514 16.46261899 12.1875 12.5625 C9.0554281 8.14180423 5.96847658 5.01748634 1.46875 2.0234375 C0.9840625 1.68570313 0.499375 1.34796875 0 1 C0 0.67 0 0.34 0 0 Z " fill="#9A553C" transform="translate(196,114)"/>
<path d="M0 0 C0.99 0.66 1.98 1.32 3 2 C2 3 2 3 -0.109375 3.1328125 C-0.98078125 3.13023438 -1.8521875 3.12765625 -2.75 3.125 C-3.61109375 3.12757812 -4.4721875 3.13015625 -5.359375 3.1328125 C-8 3 -8 3 -10.40234375 2.49609375 C-13.58161352 1.88892494 -16.57824214 1.90483073 -19.8125 1.9375 C-21.55466797 1.95103516 -21.55466797 1.95103516 -23.33203125 1.96484375 C-24.21246094 1.97644531 -25.09289062 1.98804687 -26 2 C-28.62253507 9.8676052 -26.70998126 16.88348741 -23.875 24.43359375 C-23 27 -23 27 -23 30 C-28.95107013 30 -31.97491553 26.79329277 -36.14453125 23.0078125 C-38.99067025 19.92799051 -39.1207536 17.33199855 -39.0625 13.3125 C-39.05347656 12.50425781 -39.04445312 11.69601563 -39.03515625 10.86328125 C-39.02355469 10.24839844 -39.01195312 9.63351563 -39 9 C-36.36 9.33 -33.72 9.66 -31 10 C-31 8.35 -31 6.7 -31 5 C-30.34 5 -29.68 5 -29 5 C-28.95875 4.401875 -28.9175 3.80375 -28.875 3.1875 C-28 1 -28 1 -25.6875 -0.75 C-17.56282816 -3.50412605 -8.13869506 -2.50183795 0 0 Z " fill="#995841" transform="translate(170,121)"/>
<path d="M0 0 C0.495 0.99 0.495 0.99 1 2 C0.67 2.66 0.34 3.32 0 4 C-0.66 4 -1.32 4 -2 4 C-2.165 4.845625 -2.33 5.69125 -2.5 6.5625 C-4.59764125 11.36959454 -8.0133541 13.72910327 -12 17 C-13.68615782 18.64694485 -15.35570171 20.31126121 -17 22 C-18.6454378 23.68762851 -20.31288577 25.3540349 -22 27 C-23.299375 28.423125 -23.299375 28.423125 -24.625 29.875 C-28.93616788 32.58943904 -31.21466377 32.10127895 -36.11328125 31.40625 C-38.91688025 31.0116975 -41.60820353 30.84593334 -44.4375 30.8125 C-45.21996094 30.79832031 -46.00242187 30.78414063 -46.80859375 30.76953125 C-49.260053 31.0273496 -50.87784222 31.77697969 -53 33 C-52.360625 33.20625 -51.72125 33.4125 -51.0625 33.625 C-49 35 -49 35 -48 37.8125 C-48 41 -48 41 -49.6875 43.8125 C-52.94965449 46.89832182 -52.94965449 46.89832182 -56 47 C-56.66 46.34 -57.32 45.68 -58 45 C-53.25 42 -53.25 42 -51 42 C-50.67 40.35 -50.34 38.7 -50 37 C-50.85271484 36.96132813 -50.85271484 36.96132813 -51.72265625 36.921875 C-57.52502403 36.49565767 -61.1456851 35.20178217 -66 32 C-65.34 30.68 -64.68 29.36 -64 28 C-59.87501532 27.97061977 -55.75005809 27.95307465 -51.625 27.9375 C-50.46871094 27.92912109 -49.31242187 27.92074219 -48.12109375 27.91210938 C-42.02375972 27.89488527 -36.13323878 28.06063589 -30.09912109 28.97875977 C-27.50229717 29.00503607 -26.14175669 28.45055605 -24 27 C-23.505 25.515 -23.505 25.515 -23 24 C-21.5390625 22.59765625 -21.5390625 22.59765625 -19.625 21.0625 C-15.81383637 17.83926542 -12.42349198 14.36588845 -9.0625 10.6875 C-8.57797363 10.15970947 -8.09344727 9.63191895 -7.59423828 9.08813477 C-5.00417428 6.2528429 -5.00417428 6.2528429 -3 3 C-2.34 3 -1.68 3 -1 3 C-0.67 2.01 -0.34 1.02 0 0 Z " fill="#EDBD98" transform="translate(336,330)"/>
<path d="M0 0 C0.99 0 1.98 0 3 0 C1.43358249 4.30764815 -0.68336156 8.06171464 -3 12 C-3.66 12 -4.32 12 -5 12 C-5.27457031 12.58007812 -5.54914063 13.16015625 -5.83203125 13.7578125 C-9.17179365 20.16926272 -14.00308477 25.91962469 -20 30 C-20.66 30 -21.32 30 -22 30 C-22 30.66 -22 31.32 -22 32 C-23.8125 34.125 -23.8125 34.125 -26 36 C-26.99 36 -27.98 36 -29 36 C-32 32.66666667 -32 32.66666667 -32 30 C-30.35 29.67 -28.7 29.34 -27 29 C-26.67 28.01 -26.34 27.02 -26 26 C-24.30339084 24.47988374 -22.54321964 23.02984854 -20.75 21.625 C-16.91302496 18.60727098 -13.40560103 15.49827044 -10 12 C-8.7625 10.824375 -8.7625 10.824375 -7.5 9.625 C-5.48573036 7.51001688 -3.98712568 5.58638162 -2.375 3.1875 C-1.59125 2.135625 -0.8075 1.08375 0 0 Z " fill="#EC8964" transform="translate(376,256)"/>
<path d="M0 0 C4.84659077 0.59104765 8.60748167 1.97944157 13 4 C13 4.66 13 5.32 13 6 C13.78375 6.0825 14.5675 6.165 15.375 6.25 C18.47119458 6.89059198 20.81347955 7.7044673 23.6875 8.9375 C29.00982311 11.16526082 34.30926043 12.17776386 40 13 C39.67 14.98 39.34 16.96 39 19 C34.2473692 20.5535679 30.7655564 19.20903284 26.3125 17.4375 C25.60931641 17.16518555 24.90613281 16.89287109 24.18164062 16.61230469 C18.50923694 14.34802256 12.80302056 11.83317987 8 8 C8 7.34 8 6.68 8 6 C6.68 5.34 5.36 4.68 4 4 C4 3.34 4 2.68 4 2 C2.68 1.34 1.36 0.68 0 0 Z " fill="#ED8860" transform="translate(147,298)"/>
<path d="M0 0 C0.66 0.99 1.32 1.98 2 3 C2.99 3.33 3.98 3.66 5 4 C5.36637589 10.35051546 5.36637589 10.35051546 3.625 13.4375 C2 15 2 15 0 15 C-0.25813477 15.57886963 -0.51626953 16.15773926 -0.78222656 16.75415039 C-2.10311594 19.19016912 -3.58532411 20.91911325 -5.484375 22.93359375 C-6.17273438 23.66513672 -6.86109375 24.39667969 -7.5703125 25.15039062 C-8.28960937 25.90513672 -9.00890625 26.65988281 -9.75 27.4375 C-10.45382812 28.18837891 -11.15765625 28.93925781 -11.8828125 29.71289062 C-22.42649015 40.85430464 -22.42649015 40.85430464 -27.375 41.3125 C-28.24125 41.209375 -29.1075 41.10625 -30 41 C-28.4074229 39.93828193 -26.81271889 38.87948868 -25.203125 37.84375 C-19.30250809 33.78412557 -15.79419283 29.00953854 -12 23 C-11.31550781 21.94941406 -10.63101562 20.89882813 -9.92578125 19.81640625 C-5.85459112 13.42742211 -2.46134104 7.17351368 0 0 Z " fill="#5A8581" transform="translate(333,318)"/>
<path d="M0 0 C0.33 0 0.66 0 1 0 C2.00040651 9.8039838 -1.64654525 20.45980958 -7.5625 28.25 C-9.79580954 30.91140351 -12.06775613 33.11871878 -15 35 C-15.99 35 -16.98 35 -18 35 C-18.28875 34.38125 -18.5775 33.7625 -18.875 33.125 C-19.93720042 30.86674235 -19.93720042 30.86674235 -22 29 C-16.25 25 -16.25 25 -14 25 C-14 24.34 -14 23.68 -14 23 C-12.83375433 21.86805567 -11.66731757 20.73630765 -10.5 19.60546875 C-5.16744366 13.89796704 -2.01699583 7.48411609 0 0 Z " fill="#EA815E" transform="translate(228,167)"/>
<path d="M0 0 C0.64324219 0.20496094 1.28648437 0.40992188 1.94921875 0.62109375 C9.29976664 2.81262657 16.35057967 3.64732402 24 4 C23.67 5.65 23.34 7.3 23 9 C21.02 9.33 19.04 9.66 17 10 C16.67 10.99 16.34 11.98 16 13 C16 12.34 16 11.68 16 11 C10.72 11 5.44 11 0 11 C-1 6 -1 6 0 4 C0 2.68 0 1.36 0 0 Z " fill="#F4AC81" transform="translate(217,389)"/>
<path d="M0 0 C1.59811523 0.00676758 1.59811523 0.00676758 3.22851562 0.01367188 C5.83990291 0.02538213 8.45117124 0.04178276 11.0625 0.0625 C10.7325 2.0425 10.4025 4.0225 10.0625 6.0625 C8.1054132 6.73281719 6.14678887 7.39864683 4.1875 8.0625 C3.09695312 8.43375 2.00640625 8.805 0.8828125 9.1875 C-1.9375 10.0625 -1.9375 10.0625 -3.9375 10.0625 C-3.9375 11.3825 -3.9375 12.7025 -3.9375 14.0625 C-3.2775 14.31 -2.6175 14.5575 -1.9375 14.8125 C0.42462505 15.79671877 2.66018881 16.84362214 4.9375 18 C9.7879757 20.44798867 14.57075103 22.63983779 19.8125 24.125 C23.0625 25.0625 23.0625 25.0625 26.0625 27.0625 C26.0625 28.0525 26.0625 29.0425 26.0625 30.0625 C25.0725 30.0625 24.0825 30.0625 23.0625 30.0625 C21.72916667 28.72916667 20.39583333 27.39583333 19.0625 26.0625 C18.0725 26.0625 17.0825 26.0625 16.0625 26.0625 C9.27526596 23.48803191 9.27526596 23.48803191 8.0625 21.0625 C6.4125 21.0625 4.7625 21.0625 3.0625 21.0625 C3.0625 20.4025 3.0625 19.7425 3.0625 19.0625 C1.0825 19.0625 -0.8975 19.0625 -2.9375 19.0625 C-5.9375 12.5625 -5.9375 12.5625 -5.9375 8.0625 C-1.9775 7.4025 1.9825 6.7425 6.0625 6.0625 C5.7325 5.0725 5.4025 4.0825 5.0625 3.0625 C2.33326612 3.0354183 -0.39569637 3.01562153 -3.125 3 C-3.89392578 2.99162109 -4.66285156 2.98324219 -5.45507812 2.97460938 C-9.42276789 2.95758066 -13.06321234 3.07645885 -16.9375 4.0625 C-16.9375 3.4025 -16.9375 2.7425 -16.9375 2.0625 C-17.5975 1.7325 -18.2575 1.4025 -18.9375 1.0625 C-12.61160373 -0.07705862 -6.41471662 -0.0517637 0 0 Z " fill="#E2BC98" transform="translate(219.9375,355.9375)"/>
<path d="M0 0 C2.29894595 1.14394666 4.58950305 2.30196012 6.875 3.47265625 C7.90625 3.99730469 8.9375 4.52195312 10 5.0625 C11.546875 5.85333984 11.546875 5.85333984 13.125 6.66015625 C17.71304943 8.7983369 21.18396607 9.11756559 26.25 9.0625 C27.86648437 9.04896484 27.86648437 9.04896484 29.515625 9.03515625 C30.74539062 9.01775391 30.74539062 9.01775391 32 9 C32 8.01 32 7.02 32 6 C33.4540625 5.5978125 33.4540625 5.5978125 34.9375 5.1875 C35.948125 4.795625 36.95875 4.40375 38 4 C38.33 3.01 38.66 2.02 39 1 C42.465 0.505 42.465 0.505 46 0 C46 1.32 46 2.64 46 4 C44.96875 4.4125 43.9375 4.825 42.875 5.25 C38.94953881 6.92550173 35.04603082 8.95396918 32 12 C20.92310785 13.11460747 10.20680251 12.64699952 0 8 C0 5.36 0 2.72 0 0 Z " fill="#678379" transform="translate(202,393)"/>
<path d="M0 0 C1.33332095 2.6666419 0.67102033 4.16680303 0 7 C-8.99249012 8.14190351 -17.28938925 8.95274941 -26 6 C-28.23046875 3.921875 -28.23046875 3.921875 -30 2 C-29.44538086 1.94465088 -28.89076172 1.88930176 -28.31933594 1.83227539 C-25.7959083 1.57871893 -23.27296117 1.32065495 -20.75 1.0625 C-19.44095703 0.93198242 -19.44095703 0.93198242 -18.10546875 0.79882812 C-17.26113281 0.71181641 -16.41679687 0.62480469 -15.546875 0.53515625 C-14.77182617 0.456604 -13.99677734 0.37805176 -13.19824219 0.29711914 C-11.00570899 0.04864268 -11.00570899 0.04864268 -8.94628906 -0.55297852 C-5.82437763 -1.27001562 -3.09589102 -0.64254342 0 0 Z " fill="#F0A980" transform="translate(287,393)"/>
<path d="M0 0 C0.66 0 1.32 0 2 0 C2 1.65 2 3.3 2 5 C1.34 5 0.68 5 0 5 C-0.09982927 9.6589553 -0.17191433 14.31727078 -0.21972656 18.97705078 C-0.23968422 20.55789045 -0.2668606 22.13865783 -0.30175781 23.71923828 C-0.63907142 35.69808765 -0.63907142 35.69808765 3.13378906 46.94384766 C4.17327133 49.41129964 4.14699215 51.34893301 4 54 C-0.90342689 49.5869158 -2.15150634 45.41403681 -3 39 C-3.16856543 35.54090467 -3.19018411 32.08780475 -3.1875 28.625 C-3.18741943 27.65925049 -3.18733887 26.69350098 -3.18725586 25.69848633 C-3.00901224 3.00901224 -3.00901224 3.00901224 0 0 Z " fill="#ECC3A0" transform="translate(147,299)"/>
<path d="M0 0 C0.804375 0.45375 1.60875 0.9075 2.4375 1.375 C6.56672383 3.2585056 10.56172434 4.16165904 15 5 C14.79296875 7.30859375 14.79296875 7.30859375 14 10 C7.83148424 15.09052271 -0.23378185 17.18431406 -7.8359375 19.140625 C-10.67338885 19.9112908 -13.29937144 20.84692264 -16 22 C-15 19 -15 19 -13.125 17.8125 C-11 17 -11 17 -8 17 C-7.67 16.34 -7.34 15.68 -7 15 C-4.27734375 14.1484375 -4.27734375 14.1484375 -0.9375 13.375 C0.16722656 13.11460937 1.27195312 12.85421875 2.41015625 12.5859375 C3.69212891 12.29589844 3.69212891 12.29589844 5 12 C5 11.34 5 10.68 5 10 C6.65 10 8.3 10 10 10 C10 9.34 10 8.68 10 8 C9.37351562 7.82984375 8.74703125 7.6596875 8.1015625 7.484375 C7.28429687 7.24203125 6.46703125 6.9996875 5.625 6.75 C4.81289063 6.51796875 4.00078125 6.2859375 3.1640625 6.046875 C0.54214546 4.7785108 0.00617682 3.67576692 -1 1 C-0.67 0.67 -0.34 0.34 0 0 Z " fill="#B3AC8F" transform="translate(271,362)"/>
<path d="M0 0 C0 1.32 0 2.64 0 4 C-0.886875 4.268125 -1.77375 4.53625 -2.6875 4.8125 C-5.94954228 5.85359626 -5.94954228 5.85359626 -8.4375 7.5 C-13.82133976 10.65151596 -19.85579302 11.52817523 -26 12 C-26.92039062 12.08894531 -27.84078125 12.17789062 -28.7890625 12.26953125 C-36.84700375 12.71719465 -42.45647819 10.73883568 -49 6 C-49.33 5.34 -49.66 4.68 -50 4 C-50.99 3.67 -51.98 3.34 -53 3 C-53 2.34 -53 1.68 -53 1 C-50.0280615 2.12451727 -47.66559313 3.22293791 -45 5 C-43.0103005 5.39013716 -41.00980131 5.73202649 -39 6 C-39 6.99 -39 7.98 -39 9 C-25.90998477 9.48282843 -15.18344024 8.67054035 -3.9609375 1.20703125 C-2 0 -2 0 0 0 Z " fill="#808875" transform="translate(308,394)"/>
<path d="M0 0 C0.33 0.66 0.66 1.32 1 2 C1.804375 2.12375 2.60875 2.2475 3.4375 2.375 C4.7059375 2.684375 4.7059375 2.684375 6 3 C6.6837045 4.32467746 7.34964186 5.65863633 8 7 C10.53770003 8.28254644 10.53770003 8.28254644 13 9 C13 8.34 13 7.68 13 7 C13.66 7 14.32 7 15 7 C15.16986545 8.56215548 15.33573964 10.1247452 15.5 11.6875 C15.5928125 12.55761719 15.685625 13.42773438 15.78125 14.32421875 C15.99159864 16.89723339 16.03719144 19.41984364 16 22 C15.01 21.67 14.02 21.34 13 21 C12.67 18.69 12.34 16.38 12 14 C10.35 14.66 8.7 15.32 7 16 C7 14.68 7 13.36 7 12 C6.34 12 5.68 12 5 12 C5.33 10.02 5.66 8.04 6 6 C5.28972656 5.80664062 4.57945312 5.61328125 3.84765625 5.4140625 C2.46900391 5.02347656 2.46900391 5.02347656 1.0625 4.625 C0.14597656 4.36976563 -0.77054688 4.11453125 -1.71484375 3.8515625 C-4 3 -4 3 -5 1 C-3.35 0.67 -1.7 0.34 0 0 Z " fill="#A3A690" transform="translate(240,377)"/>
<path d="M0 0 C0.50588147 1.91512272 1.00448391 3.83216922 1.5 5.75 C1.7784375 6.81734375 2.056875 7.8846875 2.34375 8.984375 C3 12 3 12 3 16 C2.34 16 1.68 16 1 16 C0.01 8.575 0.01 8.575 -1 1 C-2.98 1.66 -4.96 2.32 -7 3 C-9.1940918 3.30297852 -9.1940918 3.30297852 -11.19921875 3.37890625 C-12.30040039 3.43014648 -12.30040039 3.43014648 -13.42382812 3.48242188 C-14.17083984 3.50884766 -14.91785156 3.53527344 -15.6875 3.5625 C-21.42559083 3.73311844 -21.42559083 3.73311844 -27 5 C-27 5.66 -27 6.32 -27 7 C-29.30368736 8.06652192 -31.64018187 9.06421005 -34 10 C-34.66 9.67 -35.32 9.34 -36 9 C-27.6057219 1.58533585 -22.40575727 -0.21652302 -11.33203125 0.0625 C-9.02986496 0.0966171 -9.02986496 0.0966171 -7.01171875 -0.5625 C-4.44585824 -1.12051238 -2.52207021 -0.63051755 0 0 Z " fill="#919583" transform="translate(209,198)"/>
<path d="M0 0 C2.64 0 5.28 0 8 0 C8 0.33 8 0.66 8 1 C6.02 1.33 4.04 1.66 2 2 C2.495 2.804375 2.99 3.60875 3.5 4.4375 C5.72303368 9.71720499 6.01294837 14.0174298 4.15625 19.484375 C1.01557204 26.31747163 -3.70832728 34.04923967 -10.75 37.25 C-11.4925 37.4975 -12.235 37.745 -13 38 C-12.34 36.68 -11.68 35.36 -11 34 C-10.01 34 -9.02 34 -8 34 C-8 33.34 -8 32.68 -8 32 C-8.66 31.67 -9.32 31.34 -10 31 C-9.071875 30.773125 -8.14375 30.54625 -7.1875 30.3125 C-3.27655694 28.70211168 -2.67913335 27.83801909 -1 24 C1.12171272 18.04485463 2.41768042 12.28905146 3 6 C2.34 6 1.68 6 1 6 C0.67 4.02 0.34 2.04 0 0 Z " fill="#D3B397" transform="translate(247,178)"/>
<path d="M0 0 C0.33 0 0.66 0 1 0 C1.3125 2.6875 1.3125 2.6875 1 6 C-1.3125 8.625 -1.3125 8.625 -4 11 C-6.40577002 13.66872375 -6.40577002 13.66872375 -7 17 C-9.9719385 15.87548273 -12.33440687 14.77706209 -15 13 C-15 11.68 -15 10.36 -15 9 C-13.0429132 8.32968281 -11.08428887 7.66385317 -9.125 7 C-8.03445312 6.62875 -6.94390625 6.2575 -5.8203125 5.875 C-3 5 -3 5 -1 5 C-0.67 3.35 -0.34 1.7 0 0 Z " fill="#A7A992" transform="translate(231,357)"/>
<path d="M0 0 C2.76276177 0.52268466 5.3260876 1.10869587 8 2 C8 2.66 8 3.32 8 4 C8.886875 4.103125 9.77375 4.20625 10.6875 4.3125 C16.53602255 5.13419325 22.26151376 6.62794088 28 8 C28 8.66 28 9.32 28 10 C29.27875 10.020625 30.5575 10.04125 31.875 10.0625 C32.59429687 10.07410156 33.31359375 10.08570313 34.0546875 10.09765625 C36.08185404 10.12649242 36.08185404 10.12649242 38 9 C38.33 8.01 38.66 7.02 39 6 C39.66 6.33 40.32 6.66 41 7 C40.6875 8.9375 40.6875 8.9375 40 11 C39.01 11.33 38.02 11.66 37 12 C36.67 13.65 36.34 15.3 36 17 C35.34 17 34.68 17 34 17 C34 15.35 34 13.7 34 12 C32.39125 12.12375 32.39125 12.12375 30.75 12.25 C22.48734839 12.26467611 14.41427206 8.37012366 7 5 C7 4.34 7 3.68 7 3 C6.401875 2.87625 5.80375 2.7525 5.1875 2.625 C3 2 3 2 0 0 Z " fill="#AB9381" transform="translate(153,299)"/>
<path d="M0 0 C0 1.32 0 2.64 0 4 C-1.62760417 4.65104167 -3.25520833 5.30208333 -4.8828125 5.953125 C-7.19555921 7.00827333 -7.19555921 7.00827333 -9.671875 9.08203125 C-14.00065249 11.5766671 -17.22896876 11.56129851 -22.125 11.4375 C-23.32189453 11.44813477 -23.32189453 11.44813477 -24.54296875 11.45898438 C-28.91677218 11.4115224 -31.77287219 11.28818158 -35 8 C-32 7 -32 7 -29.5625 7.9375 C-24.39160785 9.4796959 -19.35807777 9.15606052 -14 9 C-14 8.01 -14 7.02 -14 6 C-12.5459375 5.5978125 -12.5459375 5.5978125 -11.0625 5.1875 C-10.051875 4.795625 -9.04125 4.40375 -8 4 C-7.67 3.01 -7.34 2.02 -7 1 C-2.25 0 -2.25 0 0 0 Z " fill="#7E8671" transform="translate(248,393)"/>
<path d="M0 0 C0 2.97 0 5.94 0 9 C-0.9075 8.62875 -1.815 8.2575 -2.75 7.875 C-6.53911041 6.85485489 -6.77209054 7.15968003 -10 9 C-11.84769831 9.90909975 -13.70231619 10.80422905 -15.5625 11.6875 C-16.51253906 12.14511719 -17.46257812 12.60273438 -18.44140625 13.07421875 C-21 14 -21 14 -24 13 C-22.98679687 12.39671875 -21.97359375 11.7934375 -20.9296875 11.171875 C-19.57807723 10.36466331 -18.22651741 9.55736714 -16.875 8.75 C-16.20984375 8.35425781 -15.5446875 7.95851563 -14.859375 7.55078125 C-11.7364842 5.68317008 -8.67500591 3.79278012 -5.6953125 1.703125 C-3 0 -3 0 0 0 Z " fill="#687F74" transform="translate(353,366)"/>
<path d="M0 0 C0.66 0.33 1.32 0.66 2 1 C0.78574116 2.80180343 -0.44704536 4.59112993 -1.6875 6.375 C-2.37199219 7.37273437 -3.05648438 8.37046875 -3.76171875 9.3984375 C-6.15329772 12.1781785 -7.66705289 12.72872664 -11 14 C-12.05585064 15.871684 -12.05585064 15.871684 -13 18 C-14.54883956 19.55706349 -16.16014189 21.05325767 -17.8125 22.5 C-18.66457031 23.2528125 -19.51664062 24.005625 -20.39453125 24.78125 C-21.25433594 25.5134375 -22.11414063 26.245625 -23 27 C-24.32644531 28.13695312 -24.32644531 28.13695312 -25.6796875 29.296875 C-28 31 -28 31 -30.3125 30.75 C-30.869375 30.5025 -31.42625 30.255 -32 30 C-31.38125 29.7525 -30.7625 29.505 -30.125 29.25 C-27.8637196 28.19483268 -27.8637196 28.19483268 -27.125 26.0625 C-25.47843406 23.04379578 -23.06239659 22.47230605 -20 21 C-15.94547265 17.97897962 -13.52391515 15.32671168 -11 11 C-10.01 10.67 -9.02 10.34 -8 10 C-4.62690682 6.96421614 -2.16385252 3.98604411 0 0 Z " fill="#A59080" transform="translate(375,255)"/>
<path d="M0 0 C0.99 0 1.98 0 3 0 C1.43358249 4.30764815 -0.68336156 8.06171464 -3 12 C-3.66 12 -4.32 12 -5 12 C-5.33 12.66 -5.66 13.32 -6 14 C-6.66 14 -7.32 14 -8 14 C-10.09586725 15.62560341 -12.1148709 17.27436713 -14.125 19 C-14.68832031 19.47695313 -15.25164062 19.95390625 -15.83203125 20.4453125 C-17.22506197 21.62584701 -18.61301538 22.81236791 -20 24 C-20.66 23.67 -21.32 23.34 -22 23 C-21.39671875 22.46890625 -20.7934375 21.9378125 -20.171875 21.390625 C-19.37265625 20.68421875 -18.5734375 19.9778125 -17.75 19.25 C-16.56664062 18.20585937 -16.56664062 18.20585937 -15.359375 17.140625 C-13.16917924 15.15349375 -11.07750938 13.10369647 -9 11 C-8.175 10.21625 -7.35 9.4325 -6.5 8.625 C-3.87386454 6.03354751 -3.87386454 6.03354751 -1.875 2.6875 C-1.25625 1.800625 -0.6375 0.91375 0 0 Z " fill="#D59172" transform="translate(376,256)"/>
<path d="M0 0 C4.84659077 0.59104765 8.60748167 1.97944157 13 4 C13 4.66 13 5.32 13 6 C13.969375 6.12375 14.93875 6.2475 15.9375 6.375 C17.4534375 6.684375 17.4534375 6.684375 19 7 C19.33 7.66 19.66 8.32 20 9 C19.01 9.99 18.02 10.98 17 12 C13.59687262 10.94124926 10.98646769 9.99097846 8 8 C8 7.34 8 6.68 8 6 C6.68 5.34 5.36 4.68 4 4 C4 3.34 4 2.68 4 2 C2.68 1.34 1.36 0.68 0 0 Z " fill="#E28C6A" transform="translate(147,298)"/>
<path d="M0 0 C1.65 0 3.3 0 5 0 C5 0.99 5 1.98 5 3 C5.58458984 3.1227832 6.16917969 3.24556641 6.77148438 3.37207031 C9.01595209 4.00449483 10.65210183 4.87337959 12.65625 6.046875 C17.31584337 8.43718589 21.35096827 8.46803717 26.5 8.25 C27.32242188 8.23195312 28.14484375 8.21390625 28.9921875 8.1953125 C30.99530804 8.1487283 32.99781821 8.07700699 35 8 C31.08183959 11.91816041 25.3989905 11.53700284 20.08154297 11.67724609 C12.19233912 11.47349403 6.69467268 7.10493311 1 2 C0.67 1.34 0.34 0.68 0 0 Z " fill="#E4B692" transform="translate(171,188)"/>
<path d="M0 0 C-2 2 -2 2 -5.0625 2.875 C-6.031875 3.24625 -7.00125 3.6175 -8 4 C-8.59070014 5.94603274 -8.59070014 5.94603274 -9 8 C-13.17857143 11 -13.17857143 11 -16 11 C-15.34 13.31 -14.68 15.62 -14 18 C-15.32 19.32 -16.64 20.64 -18 22 C-18.55063852 15.39233779 -17.84763983 10.50912066 -14 5 C-9.98250852 1.08552113 -5.65439984 -2.09422216 0 0 Z " fill="#AA836F" transform="translate(133,94)"/>
<path d="M0 0 C1.051875 0.185625 2.10375 0.37125 3.1875 0.5625 C6.74140916 0.97032564 8.59371696 0.71294296 12 0 C15.33495585 -0.09263766 18.66456775 -0.05828911 22 0 C22 0.66 22 1.32 22 2 C24.01822917 1.90234375 26.03645833 1.8046875 28.0546875 1.70703125 C28.69664062 1.80371094 29.33859375 1.90039062 30 2 C30.66 2.99 31.32 3.98 32 5 C31.16299561 4.8928064 31.16299561 4.8928064 30.30908203 4.78344727 C22.81936668 3.92052474 15.40716659 3.88508128 7.875 3.9375 C6.63234375 3.94201172 5.3896875 3.94652344 4.109375 3.95117188 C1.07286498 3.96285076 -1.96354088 3.9792286 -5 4 C-5 3.34 -5 2.68 -5 2 C-3.35 2 -1.7 2 0 2 C0 1.34 0 0.68 0 0 Z " fill="#A6A58C" transform="translate(276,355)"/>
<path d="M0 0 C0.33 0.66 0.66 1.32 1 2 C0.67 2.66 0.34 3.32 0 4 C-0.66 4 -1.32 4 -2 4 C-2.165 4.845625 -2.33 5.69125 -2.5 6.5625 C-4.59764125 11.36959454 -8.0133541 13.72910327 -12 17 C-13.68615782 18.64694485 -15.35570171 20.31126121 -17 22 C-19.33333333 24.33333333 -21.66666667 26.66666667 -24 29 C-24.99 28.67 -25.98 28.34 -27 28 C-26.01 27.67 -25.02 27.34 -24 27 C-23.67 26.01 -23.34 25.02 -23 24 C-21.5390625 22.59765625 -21.5390625 22.59765625 -19.625 21.0625 C-15.81383637 17.83926542 -12.42349198 14.36588845 -9.0625 10.6875 C-8.57797363 10.15970947 -8.09344727 9.63191895 -7.59423828 9.08813477 C-5.00417428 6.2528429 -5.00417428 6.2528429 -3 3 C-2.34 3 -1.68 3 -1 3 C-0.67 2.01 -0.34 1.02 0 0 Z " fill="#DBB595" transform="translate(336,330)"/>
<path d="M0 0 C0.99 0.33 1.98 0.66 3 1 C-0.07778545 6.04756814 -3.69363214 9.96571202 -8 14 C-8.51949219 14.51304687 -9.03898437 15.02609375 -9.57421875 15.5546875 C-12.24240362 18.0337884 -13.70100063 18.97231487 -17.375 19.3125 C-18.24125 19.209375 -19.1075 19.10625 -20 19 C-18.40204256 17.93469504 -16.80375403 16.86988039 -15.203125 15.80859375 C-10.3040943 12.3694742 -6.9071271 8.63655587 -3.4453125 3.7578125 C-2.96835937 3.17773438 -2.49140625 2.59765625 -2 2 C-1.34 2 -0.68 2 0 2 C0 1.34 0 0.68 0 0 Z " fill="#7F8775" transform="translate(323,340)"/>
<path d="M0 0 C1.98 0 3.96 0 6 0 C6 0.66 6 1.32 6 2 C5.34 2 4.68 2 4 2 C4.32613281 2.56976563 4.65226563 3.13953125 4.98828125 3.7265625 C7.33043396 8.98962381 6.12432778 15.51890209 5 21 C4.34 21 3.68 21 3 21 C2.938125 21.763125 2.87625 22.52625 2.8125 23.3125 C2 26 2 26 -0.5625 27.8125 C-1.366875 28.204375 -2.17125 28.59625 -3 29 C-1.99099787 26.97745069 -0.97864413 24.95923679 0.0703125 22.95703125 C3.04018272 16.91829514 4.4348524 11.452142 2.31640625 4.87890625 C1.61853676 3.21937929 0.81873171 1.6033496 0 0 Z " fill="#839788" transform="translate(248,179)"/>
<path d="M0 0 C10.03531568 1.69113653 19.92616744 6.46308372 29 11 C29 11.99 29 12.98 29 14 C28.01 14 27.02 14 26 14 C24.66666667 12.66666667 23.33333333 11.33333333 22 10 C21.01 10 20.02 10 19 10 C12.21276596 7.42553191 12.21276596 7.42553191 11 5 C9.35 5 7.7 5 6 5 C6 4.34 6 3.68 6 3 C4.02 3 2.04 3 0 3 C0 2.01 0 1.02 0 0 Z " fill="#EBC29D" transform="translate(217,372)"/>
<path d="M0 0 C6.15234375 0.5859375 6.15234375 0.5859375 8 1 C8.33 1.66 8.66 2.32 9 3 C11.71446979 3.31241455 14.33909361 3.51336592 17.0625 3.625 C18.20041992 3.68300781 18.20041992 3.68300781 19.36132812 3.7421875 C21.24047195 3.83673562 23.12020336 3.91946756 25 4 C24.67 4.99 24.34 5.98 24 7 C16.33464166 7.59859631 9.92076596 6.44310985 3 3 C1.18359375 1.36328125 1.18359375 1.36328125 0 0 Z " fill="#E1B694" transform="translate(208,396)"/>
<path d="M0 0 C0.99 0.33 1.98 0.66 3 1 C-0.78868789 3.5665305 -4.5311759 4.88085232 -8.84765625 6.23828125 C-11.46065662 7.1630273 -13.66802169 8.51601381 -16 10 C-16.66 10 -17.32 10 -18 10 C-18 10.66 -18 11.32 -18 12 C-18.66 12 -19.32 12 -20 12 C-19.875 9.6875 -19.875 9.6875 -19 7 C-14.41807528 3.78026912 -8.89404546 2.87981852 -3.51171875 1.6484375 C-1.07749454 1.24679587 -1.07749454 1.24679587 0 0 Z " fill="#E7BD98" transform="translate(275,376)"/>
<path d="M0 0 C2.92908678 1.07493729 5.29813463 2.39889459 8 4 C7.67 4.66 7.34 5.32 7 6 C6.45859375 5.68289062 5.9171875 5.36578125 5.359375 5.0390625 C2.5842851 3.81692026 0.26791902 3.59056564 -2.75 3.375 C-4.22726563 3.26285156 -4.22726563 3.26285156 -5.734375 3.1484375 C-6.48203125 3.09945312 -7.2296875 3.05046875 -8 3 C-8 3.66 -8 4.32 -8 5 C-8.99 4.67 -9.98 4.34 -11 4 C-11.33 3.01 -11.66 2.02 -12 1 C-8.28350139 -0.85824931 -4.05491447 -0.45382037 0 0 Z " fill="#B69482" transform="translate(214,72)"/>
<path d="M0 0 C1.2065625 0.680625 1.2065625 0.680625 2.4375 1.375 C6.56672383 3.2585056 10.56172434 4.16165904 15 5 C14.67 6.32 14.34 7.64 14 9 C9.23163636 8.41849224 5.27228927 7.21830405 1 5 C-0.4375 2.8125 -0.4375 2.8125 -1 1 C-0.67 0.67 -0.34 0.34 0 0 Z " fill="#A5997D" transform="translate(271,362)"/>
<path d="M0 0 C1.18851563 0.10183594 2.37703125 0.20367187 3.6015625 0.30859375 C4.51679688 0.39238281 5.43203125 0.47617187 6.375 0.5625 C5.375 3.5625 5.375 3.5625 3.375 4.5625 C-4.83088235 4.82720588 -4.83088235 4.82720588 -8.625 3.5625 C-8.625 2.5725 -8.625 1.5825 -8.625 0.5625 C-5.68113377 -0.90943312 -3.25109964 -0.28686173 0 0 Z " fill="#FBB286" transform="translate(234.625,394.4375)"/>
<path d="M0 0 C4.65125384 6.97688076 6.65202691 15.68665692 6 24 C5.67 23.01 5.34 22.02 5 21 C4.34 21 3.68 21 3 21 C2.49078672 18.81462633 1.99305563 16.62657569 1.5 14.4375 C1.2215625 13.21933594 0.943125 12.00117188 0.65625 10.74609375 C0.01362446 7.07777293 -0.11474823 3.71497397 0 0 Z " fill="#ECC09F" transform="translate(399,291)"/>
<path d="M0 0 C2 1 2 1 2.78125 2.9609375 C3.0184375 3.75757813 3.255625 4.55421875 3.5 5.375 C4.41441035 8.42634757 5.19642993 10.2946449 7 13 C9.95064148 13.2208564 12.68368231 13.28060989 15.625 13.1875 C16.42679688 13.17396484 17.22859375 13.16042969 18.0546875 13.14648438 C20.03674378 13.11109051 22.01845551 13.05728234 24 13 C20.86126497 16.13873503 17.44521029 16.20003821 13.125 16.375 C9.06905143 16.29723107 6.17116012 15.81145221 3.1171875 12.84375 C0.77469038 8.97781069 0.44948663 4.42511839 0 0 Z " fill="#DFB597" transform="translate(210,203)"/>
<path d="M0 0 C0.66 0.66 1.32 1.32 2 2 C1.01 2.99 0.02 3.98 -1 5 C-0.566875 5.75925781 -0.13375 6.51851562 0.3125 7.30078125 C0.869375 8.29464844 1.42625 9.28851563 2 10.3125 C2.556875 11.29863281 3.11375 12.28476563 3.6875 13.30078125 C5 16 5 16 5 19 C4.34 19 3.68 19 3 19 C1 16 1 16 1 13 C0.34 13 -0.32 13 -1 13 C-3.60018816 9.09971775 -3.15085514 5.52565431 -3 1 C-2.01 0.67 -1.02 0.34 0 0 Z " fill="#EEBEA3" transform="translate(235,147)"/>
<path d="M0 0 C1.34173403 0.92543709 2.67320159 1.86577405 4 2.8125 C5.11375 3.59560547 5.11375 3.59560547 6.25 4.39453125 C6.8275 4.92433594 7.405 5.45414062 8 6 C8 6.99 8 7.98 8 9 C8.78375 9.0825 9.5675 9.165 10.375 9.25 C13 10 13 10 14.1875 12 C14.455625 12.66 14.72375 13.32 15 14 C15.66 14.33 16.32 14.66 17 15 C16.67 15.66 16.34 16.32 16 17 C3.73142593 7.84725427 3.73142593 7.84725427 0 3 C0 2.01 0 1.02 0 0 Z " fill="#EBBF9B" transform="translate(152,353)"/>
<path d="M0 0 C3.8704007 3.15032615 7.66400825 6.27153863 11 10 C11 10.99 11 11.98 11 13 C11.99 13.33 12.98 13.66 14 14 C13.67 14.99 13.34 15.98 13 17 C10.35247996 14.42215154 8.05567935 12.08351902 6 9 C5.34 8.87625 4.68 8.7525 4 8.625 C2 8 2 8 0.75 5.625 C0 3 0 3 0 0 Z " fill="#4F7E79" transform="translate(303,248)"/>
<path d="M0 0 C0 0.33 0 0.66 0 1 C7.425 1.99 7.425 1.99 15 3 C15 3.33 15 3.66 15 4 C13.45892578 3.98259766 13.45892578 3.98259766 11.88671875 3.96484375 C3.86178243 3.90275527 -4.01672842 4.05283219 -12 5 C-12.33 4.34 -12.66 3.68 -13 3 C-4.57142857 -0.42857143 -4.57142857 -0.42857143 0 0 Z " fill="#7D9382" transform="translate(248,319)"/>
<path d="M0 0 C1.79093191 -0.08086147 3.58289628 -0.13912702 5.375 -0.1875 C6.87160156 -0.23970703 6.87160156 -0.23970703 8.3984375 -0.29296875 C9.25695312 -0.19628906 10.11546875 -0.09960938 11 0 C13 3 13 3 12.8125 5.4375 C11.9255172 8.2349073 11.03544239 9.88917085 9 12 C6.9375 12.875 6.9375 12.875 5 13 C4.34 12.34 3.68 11.68 3 11 C7.75 8 7.75 8 10 8 C10.33 6.35 10.66 4.7 11 3 C10.37351562 2.95101563 9.74703125 2.90203125 9.1015625 2.8515625 C8.28429687 2.77679688 7.46703125 2.70203125 6.625 2.625 C5.40683594 2.52058594 5.40683594 2.52058594 4.1640625 2.4140625 C2 2 2 2 0 0 Z " fill="#E2B895" transform="translate(275,364)"/>
<path d="M0 0 C2.875 -0.1875 2.875 -0.1875 6 0 C6.66 0.99 7.32 1.98 8 3 C9.7634375 3.7115625 9.7634375 3.7115625 11.5625 4.4375 C15 6 15 6 15.9375 8.1875 C15.958125 8.785625 15.97875 9.38375 16 10 C10.14620083 7.75811947 5.00563344 4.79111467 0 1 C0 0.67 0 0.34 0 0 Z " fill="#EEC3A3" transform="translate(169,370)"/>
<path d="M0 0 C0 0.66 0 1.32 0 2 C-1.7015625 2.680625 -1.7015625 2.680625 -3.4375 3.375 C-7.04721692 4.57095806 -7.04721692 4.57095806 -8 7 C-9.32 6.67 -10.64 6.34 -12 6 C-12 4.68 -12 3.36 -12 2 C-7.8794254 0.00214565 -4.54805635 -0.17835515 0 0 Z " fill="#9C947C" transform="translate(228,364)"/>
<path d="M0 0 C0.433125 0.9590625 0.433125 0.9590625 0.875 1.9375 C1.82823451 4.15206079 1.82823451 4.15206079 4 5 C3.34 5.66 2.68 6.32 2 7 C1.54188325 8.97235333 1.54188325 8.97235333 1.375 11.125 C1.25125 12.40375 1.1275 13.6825 1 15 C2.65 15 4.3 15 6 15 C5.67 15.99 5.34 16.98 5 18 C2.79091886 17.61912394 1.12625153 17.07400952 -0.8125 15.9375 C-2.76961448 12.74431322 -1.66502938 9.49634258 -1 6 C-0.814375 4.845 -0.62875 3.69 -0.4375 2.5 C-0.293125 1.675 -0.14875 0.85 0 0 Z " fill="#90ACA6" transform="translate(145,280)"/>
<path d="M0 0 C0 0.99 0 1.98 0 3 C-5.58947972 6.72631981 -11.42300616 6.73077709 -18 6 C-18.99 5.34 -19.98 4.68 -21 4 C-20.67 3.34 -20.34 2.68 -20 2 C-19.34 2.33 -18.68 2.66 -18 3 C-11.27709833 3.64979719 -6.14041609 2.72907382 0 0 Z " fill="#889985" transform="translate(236,215)"/>
<path d="M0 0 C4.48875434 7.80816932 4.356999 18.21385784 4 27 C3.67 27 3.34 27 3 27 C2.67 24.69 2.34 22.38 2 20 C1.67 20 1.34 20 1 20 C1 18.02 1 16.04 1 14 C0.34 13.67 -0.32 13.34 -1 13 C-0.67 12.67 -0.34 12.34 0 12 C0.14636054 8.63370749 0.07193479 6.21580438 -1 3 C-0.67 2.01 -0.34 1.02 0 0 Z " fill="#9AB1A7" transform="translate(353,372)"/>
<path d="M0 0 C3.04408304 3.56687122 5.21082201 7.09510916 7.25 11.3125 C7.77078125 12.38113281 8.2915625 13.44976562 8.828125 14.55078125 C9.21484375 15.35902344 9.6015625 16.16726563 10 17 C9.34 17.33 8.68 17.66 8 18 C0.14806378 6.66287016 0.14806378 6.66287016 0 0 Z " fill="#E9C19F" transform="translate(384,263)"/>
<path d="M0 0 C0.33 0 0.66 0 1 0 C1.50512244 1.60256108 2.00391627 3.20711792 2.5 4.8125 C2.7784375 5.70582031 3.056875 6.59914062 3.34375 7.51953125 C4 10 4 10 4 13 C-1.53846154 12.38461538 -1.53846154 12.38461538 -3.875 10.4375 C-4.24625 9.963125 -4.6175 9.48875 -5 9 C-3.02 8.67 -1.04 8.34 1 8 C1 7.34 1 6.68 1 6 C0.01 6.33 -0.98 6.66 -2 7 C-2 6.01 -2 5.02 -2 4 C-1.34 4 -0.68 4 0 4 C0 2.68 0 1.36 0 0 Z " fill="#A36854" transform="translate(143,138)"/>
<path d="M0 0 C2.35050868 3.67266981 2.36348132 6.7109204 2 11 C1.21801105 13.54777044 0.24233768 15.61088908 -1 18 C-1.66 18.33 -2.32 18.66 -3 19 C-3.33 18.01 -3.66 17.02 -4 16 C-3.67 15.34 -3.34 14.68 -3 14 C-2.34 14 -1.68 14 -1 14 C-1.0309375 12.205625 -1.0309375 12.205625 -1.0625 10.375 C-1.06882571 6.81995131 -0.69888875 3.49444376 0 0 Z " fill="#EEC3A4" transform="translate(240,129)"/>
<path d="M0 0 C0.33 0 0.66 0 1 0 C1.07347656 1.17369141 1.07347656 1.17369141 1.1484375 2.37109375 C1.22320312 3.38300781 1.29796875 4.39492188 1.375 5.4375 C1.44460937 6.44683594 1.51421875 7.45617187 1.5859375 8.49609375 C1.72257813 9.32238281 1.85921875 10.14867187 2 11 C2.66 11.33 3.32 11.66 4 12 C3.67 13.32 3.34 14.64 3 16 C1.68 15.67 0.36 15.34 -1 15 C-1.02685412 12.68756208 -1.04632841 10.3750373 -1.0625 8.0625 C-1.07410156 6.77472656 -1.08570313 5.48695313 -1.09765625 4.16015625 C-1 1 -1 1 0 0 Z " fill="#8CA59D" transform="translate(201,408)"/>
<path d="M0 0 C-6.86148571 2.67481646 -12.36983601 4.13767842 -19.8125 4.0625 C-20.97394531 4.05347656 -22.13539063 4.04445313 -23.33203125 4.03515625 C-24.21246094 4.02355469 -25.09289062 4.01195312 -26 4 C-26 3.67 -26 3.34 -26 3 C-25.26136719 2.87882812 -24.52273438 2.75765625 -23.76171875 2.6328125 C-22.74722656 2.46523438 -21.73273438 2.29765625 -20.6875 2.125 C-19.59953125 1.94582031 -18.5115625 1.76664062 -17.390625 1.58203125 C-13.33735722 0.88625141 -9.30668752 0.09196706 -5.27734375 -0.73046875 C-3 -1 -3 -1 0 0 Z " fill="#E1B694" transform="translate(297,400)"/>
<path d="M0 0 C1.47968324 0.14049518 2.95874516 0.28754826 4.4375 0.4375 C5.67306641 0.55931641 5.67306641 0.55931641 6.93359375 0.68359375 C9 1 9 1 10 2 C12.85877909 2.23701239 15.69883297 2.42219182 18.5625 2.5625 C19.36880859 2.60568359 20.17511719 2.64886719 21.00585938 2.69335938 C23.00368805 2.79975262 25.0018207 2.90040888 27 3 C27 3.33 27 3.66 27 4 C23.81267746 4.08797281 20.62567212 4.14071341 17.4375 4.1875 C16.09461914 4.22520508 16.09461914 4.22520508 14.72460938 4.26367188 C9.00215108 4.32655603 5.08575141 3.65798531 0 1 C0 0.67 0 0.34 0 0 Z " fill="#64897D" transform="translate(207,401)"/>
<path d="M0 0 C1.32 0.66 2.64 1.32 4 2 C3.34 2 2.68 2 2 2 C2 2.66 2 3.32 2 4 C0.38542921 5.43581474 -1.29219075 6.80144783 -3 8.125 C-3.928125 8.84945313 -4.85625 9.57390625 -5.8125 10.3203125 C-6.534375 10.87460937 -7.25625 11.42890625 -8 12 C-8.33 11.01 -8.66 10.02 -9 9 C-8.34 9 -7.68 9 -7 9 C-6.67 7.68 -6.34 6.36 -6 5 C-4.68 4.67 -3.36 4.34 -2 4 C-2 3.34 -2 2.68 -2 2 C-1.34 2 -0.68 2 0 2 C0 1.34 0 0.68 0 0 Z " fill="#EFC1A7" transform="translate(375,345)"/>
<path d="M0 0 C0.66 0.33 1.32 0.66 2 1 C0.625 3 0.625 3 -1 5 C-1.66 5 -2.32 5 -3 5 C-3.226875 5.5775 -3.45375 6.155 -3.6875 6.75 C-5.33038023 9.5663661 -7.39533227 11.08077114 -10 13 C-10 11.02 -10 9.04 -10 7 C-8.68 7 -7.36 7 -6 7 C-6 6.01 -6 5.02 -6 4 C-5.01 4 -4.02 4 -3 4 C-3 3.34 -3 2.68 -3 2 C-2.01 1.34 -1.02 0.68 0 0 Z " fill="#6F8174" transform="translate(336,328)"/>
<path d="M0 0 C0.66 0.33 1.32 0.66 2 1 C0.78574116 2.80180343 -0.44704536 4.59112993 -1.6875 6.375 C-2.37199219 7.37273437 -3.05648438 8.37046875 -3.76171875 9.3984375 C-6.1362691 12.15838608 -7.66548839 12.78435181 -11 14 C-11.33 14.99 -11.66 15.98 -12 17 C-12.66 16.67 -13.32 16.34 -14 16 C-11.375 11.125 -11.375 11.125 -8 10 C-4.62690682 6.96421614 -2.16385252 3.98604411 0 0 Z " fill="#889083" transform="translate(375,255)"/>
<path d="M0 0 C1.65 0 3.3 0 5 0 C5 0.99 5 1.98 5 3 C5.598125 3.12375 6.19625 3.2475 6.8125 3.375 C9 4 9 4 12 6 C12 6.66 12 7.32 12 8 C12.99 8 13.98 8 15 8 C14.67 8.99 14.34 9.98 14 11 C11.85038384 9.54699102 9.70532871 8.0879574 7.5625 6.625 C6.95083984 6.2125 6.33917969 5.8 5.70898438 5.375 C1.11328125 2.2265625 1.11328125 2.2265625 0 0 Z " fill="#EDC4A3" transform="translate(171,188)"/>
<path d="M0 0 C0.66 0 1.32 0 2 0 C2.33 1.32 2.66 2.64 3 4 C3.66 4 4.32 4 5 4 C6.5078125 5.96875 6.5078125 5.96875 8.125 8.5 C8.66382813 9.3353125 9.20265625 10.170625 9.7578125 11.03125 C10.37269531 12.00578125 10.37269531 12.00578125 11 13 C10.01 14.485 10.01 14.485 9 16 C7.49445366 13.71180854 5.99542957 11.41978831 4.5 9.125 C4.07074219 8.47402344 3.64148438 7.82304687 3.19921875 7.15234375 C0 2.2265625 0 2.2265625 0 0 Z " fill="#F0C29F" transform="translate(155,165)"/>
<path d="M0 0 C0.66 1.32 1.32 2.64 2 4 C0.28842506 5.39683699 -1.44501347 6.76691935 -3.1875 8.125 C-4.63189453 9.27355469 -4.63189453 9.27355469 -6.10546875 10.4453125 C-9 12 -9 12 -11.86328125 11.2421875 C-12.92095703 10.62730469 -12.92095703 10.62730469 -14 10 C-14 9.67 -14 9.34 -14 9 C-13.36191406 8.80664062 -12.72382813 8.61328125 -12.06640625 8.4140625 C-11.24011719 8.15367187 -10.41382813 7.89328125 -9.5625 7.625 C-8.73878906 7.36976563 -7.91507812 7.11453125 -7.06640625 6.8515625 C-4.82201984 6.19117773 -4.82201984 6.19117773 -4 4 C-2.68 4 -1.36 4 0 4 C0 2.68 0 1.36 0 0 Z " fill="#EDC3A4" transform="translate(363,354)"/>
<path d="M0 0 C0.33 0 0.66 0 1 0 C1.04898438 0.60328125 1.09796875 1.2065625 1.1484375 1.828125 C1.22320312 2.62734375 1.29796875 3.4265625 1.375 4.25 C1.44460937 5.03890625 1.51421875 5.8278125 1.5859375 6.640625 C2.01507113 9.085877 2.78600638 10.84836903 4 13 C2.71034824 14.37562854 1.37310707 15.70766393 0 17 C-0.66 17 -1.32 17 -2 17 C-1.34 11.39 -0.68 5.78 0 0 Z " fill="#A2B5AA" transform="translate(203,325)"/>
<path d="M0 0 C-0.66 1.32 -1.32 2.64 -2 4 C-2.66 4 -3.32 4 -4 4 C-4 4.66 -4 5.32 -4 6 C-6.30368736 7.06652192 -8.64018187 8.06421005 -11 9 C-11.66 8.67 -12.32 8.34 -13 8 C-11.40320196 6.6578508 -9.79729803 5.32652885 -8.1875 4 C-6.84751953 2.88625 -6.84751953 2.88625 -5.48046875 1.75 C-3 0 -3 0 0 0 Z " fill="#97AEAA" transform="translate(186,199)"/>
<path d="M0 0 C2.31 0.66 4.62 1.32 7 2 C8.125 6.75 8.125 6.75 7 9 C6.01 8.67 5.02 8.34 4 8 C4 7.34 4 6.68 4 6 C3.34 5.67 2.68 5.34 2 5 C2 4.34 2 3.68 2 3 C1.34 3 0.68 3 0 3 C0 2.01 0 1.02 0 0 Z " fill="#946250" transform="translate(190,63)"/>
<path d="M0 0 C0.33 0.99 0.66 1.98 1 3 C0.57847656 3.39832031 0.15695312 3.79664063 -0.27734375 4.20703125 C-0.82519531 4.73683594 -1.37304688 5.26664062 -1.9375 5.8125 C-2.75541016 6.59560547 -2.75541016 6.59560547 -3.58984375 7.39453125 C-5.23519092 9.05812198 -5.23519092 9.05812198 -6 12 C-7.98 12.33 -9.96 12.66 -12 13 C-12 12.34 -12 11.68 -12 11 C-8.53846154 8 -8.53846154 8 -6 8 C-5.67 7.01 -5.34 6.02 -5 5 C-4.34 5 -3.68 5 -3 5 C-2.690625 4.360625 -2.38125 3.72125 -2.0625 3.0625 C-1 1 -1 1 0 0 Z " fill="#FBA680" transform="translate(366,275)"/>
<path d="M0 0 C0.66 0.33 1.32 0.66 2 1 C-0.14800843 3.36280927 -2.16680467 4.58340234 -5 6 C-5.33 6.66 -5.66 7.32 -6 8 C-12.23076923 11 -12.23076923 11 -16 11 C-4.57780533 2.1599504 -4.57780533 2.1599504 0 0 Z " fill="#7C8576" transform="translate(327,380)"/>
<path d="M0 0 C0.33 0.66 0.66 1.32 1 2 C0.67 2.66 0.34 3.32 0 4 C-0.66 4 -1.32 4 -2 4 C-2.3403125 5.36125 -2.3403125 5.36125 -2.6875 6.75 C-4.19657566 10.48675877 -5.58439134 11.91731179 -9 14 C-9.99 13.67 -10.98 13.34 -12 13 C-11.43410156 12.44570313 -10.86820312 11.89140625 -10.28515625 11.3203125 C-9.55167969 10.59585937 -8.81820313 9.87140625 -8.0625 9.125 C-7.33160156 8.40570313 -6.60070312 7.68640625 -5.84765625 6.9453125 C-3.94332001 5.12972808 -3.94332001 5.12972808 -3 3 C-2.34 3 -1.68 3 -1 3 C-0.67 2.01 -0.34 1.02 0 0 Z " fill="#D3AE91" transform="translate(336,330)"/>
<path d="M0 0 C0.33 0.66 0.66 1.32 1 2 C1.99 2.33 2.98 2.66 4 3 C2.5484451 4.67257355 1.08855591 6.33791758 -0.375 8 C-1.18710937 8.928125 -1.99921875 9.85625 -2.8359375 10.8125 C-3.55007813 11.534375 -4.26421875 12.25625 -5 13 C-5.66 13 -6.32 13 -7 13 C-6.34 11.68 -5.68 10.36 -5 9 C-4.34 9 -3.68 9 -3 9 C-2.01 6.03 -1.02 3.06 0 0 Z " fill="#EEBEA3" transform="translate(395,323)"/>
<path d="M0 0 C3.40458262 3.89095157 6.24177968 8.11365765 8 13 C7.67 13.66 7.34 14.32 7 15 C6.34 13.68 5.68 12.36 5 11 C4.34 11 3.68 11 3 11 C3 9.68 3 8.36 3 7 C2.34 7 1.68 7 1 7 C0.67 4.69 0.34 2.38 0 0 Z " fill="#B28977" transform="translate(225,80)"/>
<path d="M0 0 C4.60139641 1.48868707 7.50227094 3.74629855 11 7 C11 7.66 11 8.32 11 9 C9 8 7 7 5 6 C4.67 7.32 4.34 8.64 4 10 C3.71125 9.030625 3.4225 8.06125 3.125 7.0625 C2.35785318 3.89335797 2.35785318 3.89335797 0 3 C0 2.01 0 1.02 0 0 Z " fill="#E2C4A7" transform="translate(197,387)"/>
<path d="M0 0 C1.65 0.33 3.3 0.66 5 1 C1.75359085 3.560881 -1.66940716 5.62476717 -5.25 7.6875 C-6.32765625 8.31011719 -7.4053125 8.93273437 -8.515625 9.57421875 C-9.33546875 10.04472656 -10.1553125 10.51523437 -11 11 C-11.33 10.34 -11.66 9.68 -12 9 C-11.21753906 8.51789063 -10.43507813 8.03578125 -9.62890625 7.5390625 C-8.61699219 6.90742188 -7.60507812 6.27578125 -6.5625 5.625 C-5.55316406 4.99851562 -4.54382813 4.37203125 -3.50390625 3.7265625 C-0.91988937 2.24183698 -0.91988937 2.24183698 0 0 Z " fill="#D8B194" transform="translate(348,364)"/>
<path d="M0 0 C0 0.99 0 1.98 0 3 C-2.1236964 5.01576128 -4.22718966 6.85649375 -6.5 8.6875 C-7.12003906 9.19861328 -7.74007813 9.70972656 -8.37890625 10.23632812 C-9.91277456 11.49881973 -11.45556832 12.75045294 -13 14 C-13.66 13.67 -14.32 13.34 -15 13 C-14.39671875 12.46890625 -13.7934375 11.9378125 -13.171875 11.390625 C-12.37265625 10.68421875 -11.5734375 9.9778125 -10.75 9.25 C-9.96109375 8.55390625 -9.1721875 7.8578125 -8.359375 7.140625 C-6.80978807 5.73470838 -5.29701643 4.28690156 -3.828125 2.796875 C-2 1 -2 1 0 0 Z " fill="#C89077" transform="translate(369,266)"/>
<path d="M0 0 C1.07765625 0.00902344 2.1553125 0.01804687 3.265625 0.02734375 C4.08546875 0.03894531 4.9053125 0.05054688 5.75 0.0625 C5.75 0.3925 5.75 0.7225 5.75 1.0625 C-1.675 2.5475 -1.675 2.5475 -9.25 4.0625 C-9.58 3.0725 -9.91 2.0825 -10.25 1.0625 C-6.78777385 -0.00473961 -3.60960734 -0.03923486 0 0 Z " fill="#8FA597" transform="translate(250.25,315.9375)"/>
<path d="M0 0 C0.66 0.33 1.32 0.66 2 1 C1.875 2.875 1.875 2.875 1 5 C-2.6068725 6.64661571 -4.1851221 7.27162597 -8 6 C-5.38485683 3.87961365 -2.80362384 1.86908256 0 0 Z " fill="#B18A76" transform="translate(165,69)"/>
<path d="M0 0 C0.33 0.66 0.66 1.32 1 2 C1.556875 1.67 2.11375 1.34 2.6875 1 C5.30284522 -0.1309601 7.1806646 -0.15662974 10 0 C6.46588679 2.12046792 3.05606165 2.53199289 -1 3 C-1 3.66 -1 4.32 -1 5 C-2.98 5.66 -4.96 6.32 -7 7 C-5.54744301 3.17053157 -3.57104439 1.87949705 0 0 Z " fill="#5C8C88" transform="translate(319,393)"/>
<path d="M0 0 C0.33 0.66 0.66 1.32 1 2 C2.65821773 2.37309899 4.32577014 2.70700977 6 3 C7 4 7 4 7.0625 7.0625 C7.041875 8.031875 7.02125 9.00125 7 10 C6.34 9.67 5.68 9.34 5 9 C5.33 8.01 5.66 7.02 6 6 C5.28972656 5.80664062 4.57945312 5.61328125 3.84765625 5.4140625 C2.46900391 5.02347656 2.46900391 5.02347656 1.0625 4.625 C0.14597656 4.36976563 -0.77054688 4.11453125 -1.71484375 3.8515625 C-4 3 -4 3 -5 1 C-3.35 0.67 -1.7 0.34 0 0 Z " fill="#BEAF92" transform="translate(240,377)"/>
<path d="M0 0 C3.96 0 7.92 0 12 0 C12 0.99 12 1.98 12 3 C7.71 2.67 3.42 2.34 -1 2 C-0.67 1.34 -0.34 0.68 0 0 Z " fill="#975337" transform="translate(148,119)"/>
<path d="M0 0 C2.08368538 0.31014392 4.16693668 0.6232052 6.25 0.9375 C7.41015625 1.11152344 8.5703125 1.28554688 9.765625 1.46484375 C12.23106961 1.8727736 14.59424562 2.33901303 17 3 C16.67 3.99 16.34 4.98 16 6 C16 5.34 16 4.68 16 4 C15.34773437 4.03480469 14.69546875 4.06960938 14.0234375 4.10546875 C8.51434628 4.27610432 4.80761576 4.0363889 0 1 C0 0.67 0 0.34 0 0 Z " fill="#E59D74" transform="translate(217,396)"/>
<path d="M0 0 C1.32 0 2.64 0 4 0 C4.9765625 1.7578125 5.953125 3.515625 6.9296875 5.2734375 C8.00897274 7.1612614 8.00897274 7.1612614 10 9 C9.01 9.66 8.02 10.32 7 11 C4.69 7.37 2.38 3.74 0 0 Z " fill="#EEC2A1" transform="translate(347,295)"/>
<path d="M0 0 C5 2 5 2 6.3125 4.375 C7 7 7 7 7 11 C7.66 11.33 8.32 11.66 9 12 C8.01 12 7.02 12 6 12 C4.02 8.04 2.04 4.08 0 0 Z " fill="#EEC2A5" transform="translate(147,152)"/>
<path d="M0 0 C3.17218843 3.62535821 4.42902597 7.51150278 6 12 C5.34 12 4.68 12 4 12 C4 11.34 4 10.68 4 10 C3.34 10 2.68 10 2 10 C-1.07692308 4.58461538 -1.07692308 4.58461538 -0.6875 1.625 C-0.460625 1.08875 -0.23375 0.5525 0 0 Z " fill="#B3907F" transform="translate(117,115)"/>
<path d="M0 0 C0.66 0.99 1.32 1.98 2 3 C1.01 3.33 0.02 3.66 -1 4 C-0.34 6.31 0.32 8.62 1 11 C-0.32 12.32 -1.64 13.64 -3 15 C-3.35050464 9.158256 -3.16727335 5.1468192 0 0 Z " fill="#C4A290" transform="translate(118,101)"/>
<path d="M0 0 C1.98 0 3.96 0 6 0 C6 0.66 6 1.32 6 2 C5.34 2 4.68 2 4 2 C4.32742187 2.56203125 4.65484375 3.1240625 4.9921875 3.703125 C6.11785494 6.26859964 6.2068111 7.96842277 6.125 10.75 C6.10695312 11.54921875 6.08890625 12.3484375 6.0703125 13.171875 C6.03550781 14.07679688 6.03550781 14.07679688 6 15 C5.67 15 5.34 15 5 15 C5 12.36 5 9.72 5 7 C4.34 7 3.68 7 3 7 C2.01 4.69 1.02 2.38 0 0 Z " fill="#799385" transform="translate(248,179)"/>
<path d="M0 0 C1.98 0.66 3.96 1.32 6 2 C6 2.66 6 3.32 6 4 C4.04072937 5.7143618 2.04119788 7.38405168 0 9 C0 6.03 0 3.06 0 0 Z " fill="#6B8277" transform="translate(338,319)"/>
<path d="M0 0 C1.32 0.33 2.64 0.66 4 1 C3.38348417 2.6490302 2.75652258 4.29415841 2.125 5.9375 C1.77695313 6.85402344 1.42890625 7.77054688 1.0703125 8.71484375 C0 11 0 11 -2 12 C-1.44687265 7.97007218 -0.8441938 3.97977076 0 0 Z " fill="#86A39B" transform="translate(153,246)"/>
<path d="M0 0 C0.66 0.33 1.32 0.66 2 1 C1.690625 1.598125 1.38125 2.19625 1.0625 2.8125 C-0.10209704 5.08956772 -0.10209704 5.08956772 -1 8 C-0.01 8.33 0.98 8.66 2 9 C0.68 9.33 -0.64 9.66 -2 10 C-2.28875 9.38125 -2.5775 8.7625 -2.875 8.125 C-3.93720042 5.86674235 -3.93720042 5.86674235 -6 4 C-4.02 2.68 -2.04 1.36 0 0 Z " fill="#E5815E" transform="translate(212,192)"/>
<path d="M0 0 C0 1.32 0 2.64 0 4 C-2.64 4.33 -5.28 4.66 -8 5 C-7.67 3.68 -7.34 2.36 -7 1 C-2.25 0 -2.25 0 0 0 Z " fill="#8F927B" transform="translate(248,393)"/>
<path d="M0 0 C2.97 0.495 2.97 0.495 6 1 C6.33 2.32 6.66 3.64 7 5 C7.66 5 8.32 5 9 5 C9 5.66 9 6.32 9 7 C9.99 7 10.98 7 12 7 C12.33 7.99 12.66 8.98 13 10 C10.525 9.01 10.525 9.01 8 8 C8 7.34 8 6.68 8 6 C6.68 5.34 5.36 4.68 4 4 C4 3.34 4 2.68 4 2 C2.68 1.34 1.36 0.68 0 0 Z " fill="#E59771" transform="translate(147,298)"/>
<path d="M0 0 C0.66 0.33 1.32 0.66 2 1 C2 1.66 2 2.32 2 3 C2.66 3 3.32 3 4 3 C4 4.65 4 6.3 4 8 C3.01 8.33 2.02 8.66 1 9 C1 8.01 1 7.02 1 6 C0.34 6 -0.32 6 -1 6 C-0.67 4.02 -0.34 2.04 0 0 Z " fill="#86A49E" transform="translate(347,207)"/>
<path d="M0 0 C0.66 0.33 1.32 0.66 2 1 C1.125 5.75 1.125 5.75 0 8 C-0.66 7.67 -1.32 7.34 -2 7 C-1.67 6.01 -1.34 5.02 -1 4 C-2.299375 3.87625 -3.59875 3.7525 -4.9375 3.625 C-7.15234375 3.4140625 -7.15234375 3.4140625 -9 3 C-9.33 2.34 -9.66 1.68 -10 1 C-7.03 1.33 -4.06 1.66 -1 2 C-0.67 1.34 -0.34 0.68 0 0 Z " fill="#E8A480" transform="translate(186,315)"/>
<path d="M0 0 C3.465 1.98 3.465 1.98 7 4 C7 4.66 7 5.32 7 6 C4.69 6 2.38 6 0 6 C-1.125 2.25 -1.125 2.25 0 0 Z " fill="#808472" transform="translate(200,351)"/>
<path d="M0 0 C2 1 2 1 2.8515625 3.06640625 C3.10679687 3.89011719 3.36203125 4.71382813 3.625 5.5625 C3.88539063 6.38878906 4.14578125 7.21507812 4.4140625 8.06640625 C4.60742188 8.70449219 4.80078125 9.34257812 5 10 C4.01 10.33 3.02 10.66 2 11 C0.80712589 7.12315913 0 4.08378077 0 0 Z " fill="#ECC2A3" transform="translate(394,281)"/>
<path d="M0 0 C0.99 0.33 1.98 0.66 3 1 C1.25 4 1.25 4 -1 7 C-2.32 7 -3.64 7 -5 7 C-4.1875 5.0625 -4.1875 5.0625 -3 3 C-2.01 2.67 -1.02 2.34 0 2 C0 1.34 0 0.68 0 0 Z " fill="#6E867B" transform="translate(323,340)"/>
<path d="M0 0 C-1.15173355 2.46800047 -2.04783565 4.04783565 -4 6 C-4.99 5.67 -5.98 5.34 -7 5 C-6.625 3.0625 -6.625 3.0625 -6 1 C-4 0 -4 0 0 0 Z " fill="#EEB596" transform="translate(384,340)"/>
<path d="M0 0 C3.48331435 3.01887244 4.79157144 5.56909529 6 10 C3.54896452 9.01958581 2.23241214 8.3486182 0.75 6.125 C0 4 0 4 0 0 Z " fill="#E0BE9A" transform="translate(194,347)"/>
<path d="M0 0 C1.5625 1.1875 1.5625 1.1875 3 3 C2.6875 5.6875 2.6875 5.6875 2 8 C1.34 8 0.68 8 0 8 C-0.33 8.66 -0.66 9.32 -1 10 C-1.125 3.375 -1.125 3.375 0 0 Z " fill="#A1AFA5" transform="translate(200,343)"/>
<path d="M0 0 C1.9375 0.75 1.9375 0.75 4 2 C4.75 4.125 4.75 4.125 5 6 C2.36 5.67 -0.28 5.34 -3 5 C-2.34 4.67 -1.68 4.34 -1 4 C-0.34786708 1.97536745 -0.34786708 1.97536745 0 0 Z " fill="#A46044" transform="translate(231,117)"/>
<path d="M0 0 C0.33 0.99 0.66 1.98 1 3 C-6.625 4.25 -6.625 4.25 -10 2 C-7.39583333 1.47916667 -4.79166667 0.95833333 -2.1875 0.4375 C-1.465625 0.293125 -0.74375 0.14875 0 0 Z " fill="#87A29E" transform="translate(219,424)"/>
<path d="M0 0 C0.144375 0.598125 0.28875 1.19625 0.4375 1.8125 C0.8872439 3.56150404 1.42892341 5.28677023 2 7 C1.40206327 9.35188447 0.74118205 11.68925595 0 14 C-0.33 14 -0.66 14 -1 14 C-1.02694851 12.04174127 -1.04637218 10.08337774 -1.0625 8.125 C-1.07410156 7.03445313 -1.08570313 5.94390625 -1.09765625 4.8203125 C-1 2 -1 2 0 0 Z " fill="#839C91" transform="translate(205,321)"/>
<path d="M0 0 C2.79872437 2.52788007 4.45773019 4.20411134 5 8 C3.35 8 1.7 8 0 8 C0 5.36 0 2.72 0 0 Z " fill="#EEC29F" transform="translate(379,255)"/>
<path d="M0 0 C4 2 8 4 12 6 C12 6.33 12 6.66 12 7 C7.7361901 7.36546942 5.41369468 6.58333652 2 4 C0.6875 1.8125 0.6875 1.8125 0 0 Z " fill="#878A74" transform="translate(202,393)"/>
<path d="M0 0 C2.64 0 5.28 0 8 0 C8.33 1.32 8.66 2.64 9 4 C6.03 3.01 3.06 2.02 0 1 C0 0.67 0 0.34 0 0 Z " fill="#919883" transform="translate(275,367)"/>
<path d="M0 0 C0 3.11227195 -0.45627049 5.94152152 -1 9 C-1.99 8.67 -2.98 8.34 -4 8 C-4 8.66 -4 9.32 -4 10 C-4.66 9.67 -5.32 9.34 -6 9 C-4.02 6.03 -2.04 3.06 0 0 Z " fill="#608C86" transform="translate(327,332)"/>
<path d="M0 0 C0.66 1.32 1.32 2.64 2 4 C0.35 4.33 -1.3 4.66 -3 5 C-3 5.66 -3 6.32 -3 7 C-3.99 7 -4.98 7 -6 7 C-4.77065985 3.31197956 -3.06140622 2.27643027 0 0 Z " fill="#ECCCAF" transform="translate(349,314)"/>
<path d="M0 0 C0.66 0 1.32 0 2 0 C2.33 1.65 2.66 3.3 3 5 C4.65 5 6.3 5 8 5 C7.67 5.99 7.34 6.98 7 8 C3.76912579 7.44295272 1.97638863 6.66812465 0 4 C0 2.68 0 1.36 0 0 Z " fill="#A8B2A9" transform="translate(143,290)"/>
<path d="M0 0 C0.66 0.33 1.32 0.66 2 1 C-0.31 3.64 -2.62 6.28 -5 9 C-5.99 7.68 -6.98 6.36 -8 5 C-6.20963542 3.99088542 -4.41927083 2.98177083 -2.62890625 1.97265625 C-1.02121854 1.1027487 -1.02121854 1.1027487 0 0 Z " fill="#F8A67F" transform="translate(218,197)"/>
<path d="M0 0 C1.42020201 0.22906484 2.83845901 0.47251758 4.25 0.75 C4.25 1.08 4.25 1.41 4.25 1.75 C0.95 2.08 -2.35 2.41 -5.75 2.75 C-6.08 3.74 -6.41 4.73 -6.75 5.75 C-7.41 5.09 -8.07 4.43 -8.75 3.75 C-6.12072175 -0.02244271 -4.38091087 -0.51743042 0 0 Z " fill="#A55F40" transform="translate(149.75,120.25)"/>
<path d="M0 0 C-3.26545761 1.88391785 -6.28111761 2.49287967 -10 3 C-10 2.01 -10 1.02 -10 0 C-6.42355152 -1.2380014 -3.66305234 -0.74926071 0 0 Z " fill="#92ACA7" transform="translate(355,421)"/>
<path d="M0 0 C2.18975773 3.28463659 2.99806563 6.20696275 4 10 C3.01 10.33 2.02 10.66 1 11 C-0.17571451 7.32589215 -0.07366746 3.83070817 0 0 Z " fill="#EEC4AB" transform="translate(399,291)"/>
<path d="M0 0 C2.29013653 3.4352048 2.17842973 4.985331 2 9 C1.01 8.67 0.02 8.34 -1 8 C-1.33 8.99 -1.66 9.98 -2 11 C-1 3.57142857 -1 3.57142857 0 0 Z " fill="#A3B8B2" transform="translate(156,234)"/>
<path d="M0 0 C0.33 0.66 0.66 1.32 1 2 C-0.125 4 -0.125 4 -2 6 C-5.1875 6.25 -5.1875 6.25 -8 6 C-5.38485683 3.87961365 -2.80362384 1.86908256 0 0 Z " fill="#B59683" transform="translate(148,83)"/>
<path d="M0 0 C1.65 0 3.3 0 5 0 C4.67 0.99 4.34 1.98 4 3 C2.02 3.33 0.04 3.66 -2 4 C-1.34 2.68 -0.68 1.36 0 0 Z " fill="#E8B898" transform="translate(236,395)"/>
<path d="M0 0 C-0.33 1.65 -0.66 3.3 -1 5 C-2.65 5 -4.3 5 -6 5 C-6 4.34 -6 3.68 -6 3 C-2.53846154 0 -2.53846154 0 0 0 Z " fill="#E6BA9E" transform="translate(247,389)"/>
<path d="M0 0 C0.33 0.66 0.66 1.32 1 2 C0.34 2 -0.32 2 -1 2 C-1.33 2.99 -1.66 3.98 -2 5 C-4.375 6.25 -4.375 6.25 -7 7 C-7.99 6.67 -8.98 6.34 -10 6 C-6.7 4.02 -3.4 2.04 0 0 Z " fill="#7E8472" transform="translate(339,373)"/>
<path d="M0 0 C0.66 0.33 1.32 0.66 2 1 C0.48890239 3.3422013 -0.46097908 4.77132446 -3.0625 5.875 C-3.701875 5.91625 -4.34125 5.9575 -5 6 C-5.66 5.34 -6.32 4.68 -7 4 C-1.7265625 0.77734375 -1.7265625 0.77734375 0 0 Z " fill="#EFC09D" transform="translate(285,371)"/>
<path d="M0 0 C2 1.8125 2 1.8125 4 4 C4 4.99 4 5.98 4 7 C0.63279613 5.60667426 -0.9859524 4.0210714 -3 1 C-2.01 0.67 -1.02 0.34 0 0 Z " fill="#DCA690" transform="translate(343,286)"/>
<path d="M0 0 C0.33 0 0.66 0 1 0 C1 3.96 1 7.92 1 12 C0.01 11.67 -0.98 11.34 -2 11 C-2 9.35 -2 7.7 -2 6 C-1.67 6 -1.34 6 -1 6 C-0.67 4.02 -0.34 2.04 0 0 Z " fill="#B88670" transform="translate(237,113)"/>
<path d="M0 0 C-3.00617269 3.00617269 -5.82381598 2.59585316 -10 3 C-9 1 -9 1 -6.6875 -0.1875 C-3.88010429 -1.03624754 -2.698065 -0.99928333 0 0 Z " fill="#B4917C" transform="translate(133,94)"/>
<path d="M0 0 C-0.66 1.32 -1.32 2.64 -2 4 C-4.97 3.505 -4.97 3.505 -8 3 C-7 1 -7 1 -5.125 0.375 C-3 0 -3 0 0 0 Z " fill="#A77A69" transform="translate(176,66)"/>
<path d="M0 0 C-4.95 2.475 -4.95 2.475 -10 5 C-9 2 -9 2 -6.6875 0.25 C-4 -1 -4 -1 0 0 Z " fill="#DEB492" transform="translate(336,376)"/>
<path d="M0 0 C1.98 0.66 3.96 1.32 6 2 C6 2.66 6 3.32 6 4 C2.37 3.67 -1.26 3.34 -5 3 C-5 2.67 -5 2.34 -5 2 C-3.35 2 -1.7 2 0 2 C0 1.34 0 0.68 0 0 Z " fill="#899F8F" transform="translate(263,321)"/>
<path d="M0 0 C0.33 0 0.66 0 1 0 C1.33 2.97 1.66 5.94 2 9 C1.34 9 0.68 9 0 9 C-1.125 6.75 -1.125 6.75 -2 4 C-1.125 1.6875 -1.125 1.6875 0 0 Z " fill="#88A59A" transform="translate(341,309)"/>
<path d="M0 0 C0.99 0 1.98 0 3 0 C3 1.65 3 3.3 3 5 C1.35 5.33 -0.3 5.66 -2 6 C-1.34 5.67 -0.68 5.34 0 5 C-0.2784375 4.0409375 -0.2784375 4.0409375 -0.5625 3.0625 C-0.7790625 2.0415625 -0.7790625 2.0415625 -1 1 C-0.67 0.67 -0.34 0.34 0 0 Z " fill="#EBA786" transform="translate(147,146)"/>
<path d="M0 0 C6.0546875 -0.1953125 6.0546875 -0.1953125 8 0 C8.66 0.66 9.32 1.32 10 2 C5.94568308 3.15837626 3.78187881 2.83691257 0 1 C0 0.67 0 0.34 0 0 Z " fill="#F1A885" transform="translate(225,122)"/>
<path d="M0 0 C2.35171131 0.59861742 4.6859378 1.26924352 7 2 C7.33 2.66 7.66 3.32 8 4 C6.35 3.67 4.7 3.34 3 3 C2.67 3.66 2.34 4.32 2 5 C2 4.34 2 3.68 2 3 C1.34 3 0.68 3 0 3 C0 2.01 0 1.02 0 0 Z " fill="#B7A195" transform="translate(190,63)"/>
<path d="M0 0 C1.32 0 2.64 0 4 0 C4 1.65 4 3.3 4 5 C2.68 4.67 1.36 4.34 0 4 C0 2.68 0 1.36 0 0 Z " fill="#9F8D71" transform="translate(216,366)"/>
<path d="M0 0 C0.33 0 0.66 0 1 0 C1 1.98 1 3.96 1 6 C-0.98 6.99 -0.98 6.99 -3 8 C-3.99 7.34 -4.98 6.68 -6 6 C-4.35 5.67 -2.7 5.34 -1 5 C-0.67 3.35 -0.34 1.7 0 0 Z " fill="#B4A284" transform="translate(231,357)"/>
<path d="M0 0 C0.66 0.99 1.32 1.98 2 3 C1.67 3.66 1.34 4.32 1 5 C-2.0625 5.625 -2.0625 5.625 -5 6 C-2.25 1.125 -2.25 1.125 0 0 Z " fill="#6B948B" transform="translate(172,210)"/>
<path d="M0 0 C2.64 1.98 5.28 3.96 8 6 C6.68 6.33 5.36 6.66 4 7 C0 2.25 0 2.25 0 0 Z " fill="#A1B8B1" transform="translate(331,192)"/>
<path d="M0 0 C0.33 0 0.66 0 1 0 C0.91253716 1.43861294 0.80434652 2.87597508 0.6875 4.3125 C0.62949219 5.11300781 0.57148438 5.91351563 0.51171875 6.73828125 C-0.08206694 9.36272334 -0.95780294 10.30820672 -3 12 C-2.25749403 7.91621717 -1.17076699 3.98060777 0 0 Z " fill="#EDB691" transform="translate(250,189)"/>
<path d="M0 0 C0.66 1.32 1.32 2.64 2 4 C0.68 5.65 -0.64 7.3 -2 9 C-1.125 1.125 -1.125 1.125 0 0 Z " fill="#EBC2A7" transform="translate(401,316)"/>
<path d="M0 0 C2.38564077 0.57584432 4.66682784 1.22227595 7 2 C7 2.66 7 3.32 7 4 C5.68 4.33 4.36 4.66 3 5 C3 4.34 3 3.68 3 3 C2.34 3 1.68 3 1 3 C0.67 2.01 0.34 1.02 0 0 Z " fill="#CE8C6E" transform="translate(153,300)"/>
<path d="M0 0 C2 3 2 3 2 7 C1.01 7.33 0.02 7.66 -1 8 C-1.125 2.25 -1.125 2.25 0 0 Z " fill="#8BA7A5" transform="translate(162,220)"/>
<path d="M0 0 C0.33 0.66 0.66 1.32 1 2 C0 5 0 5 -1.875 6.25 C-4 7 -4 7 -7 6 C-4.69 4.02 -2.38 2.04 0 0 Z " fill="#899583" transform="translate(244,208)"/>
<path d="M0 0 C0.66 0.33 1.32 0.66 2 1 C1.67 1.66 1.34 2.32 1 3 C0.34 3 -0.32 3 -1 3 C-1.66 4.65 -2.32 6.3 -3 8 C-3.99 7.34 -4.98 6.68 -6 6 C-5.34 6 -4.68 6 -4 6 C-4 5.34 -4 4.68 -4 4 C-3.34 4 -2.68 4 -2 4 C-2 3.34 -2 2.68 -2 2 C-1.34 2 -0.68 2 0 2 C0 1.34 0 0.68 0 0 Z " fill="#B99784" transform="translate(155,76)"/>
</svg>
