<?xml version="1.0" encoding="UTF-8"?>
<svg version="1.1" xmlns="http://www.w3.org/2000/svg" width="500" height="500">
<path d="M0 0 C0.66 0 1.32 0 2 0 C2.33 0.99 2.66 1.98 3 3 C3.5671875 2.6803125 4.134375 2.360625 4.71875 2.03125 C9.7498806 -0.24309671 14.86414953 0.21029739 19.96875 2.09765625 C25.97342251 4.99939877 31.41900153 8.48229557 36.74609375 12.484375 C42.30398787 16.22174574 47.29823112 16.29271155 53.84375 16.4609375 C57.65775169 17.11233878 59.27903785 18.2886187 62 21 C64.00885851 23.98662149 64.13302809 25.96814326 63.8125 29.5 C63.68315204 31.85423654 63.68315204 31.85423654 64 34 C66.40144575 36.15449966 66.40144575 36.15449966 69 38 C70.16864117 41.94416395 70.28815643 44.16943146 68.9375 48.0625 C65.90034748 52.66721511 63.13869294 56.34194063 57.75 58 C56.38875 58.495 56.38875 58.495 55 59 C53.89797113 61.63178728 53.89797113 61.63178728 53 65 C49.81965075 71.19966816 46.28343908 76.43702988 41 81 C40.34 81 39.68 81 39 81 C38.85691406 81.81984375 38.85691406 81.81984375 38.7109375 82.65625 C37.80513405 85.64241521 36.32633603 87.88697757 34.625 90.5 C34.01914062 91.4384375 33.41328125 92.376875 32.7890625 93.34375 C29.51202079 98.20922677 29.51202079 98.20922677 28 100 C27.34 100 26.68 100 26 100 C26 100.66 26 101.32 26 102 C23.98828125 103.4375 23.98828125 103.4375 21.3125 105 C20.44238281 105.515625 19.57226562 106.03125 18.67578125 106.5625 C13.97132865 109.08985556 10.56902141 110.25467521 5.1875 110.125 C4.21167969 110.10695313 3.23585938 110.08890625 2.23046875 110.0703125 C1.49441406 110.04710937 0.75835937 110.02390625 0 110 C-0.66 111.98 -1.32 113.96 -2 116 C-1.34 116 -0.68 116 0 116 C0 116.66 0 117.32 0 118 C1.11181641 118.37125 1.11181641 118.37125 2.24609375 118.75 C9.41826621 122.00545417 13.59909989 129.2397912 16.30859375 136.34765625 C18.38775849 144.32366108 18.15482797 152.43256475 18.13037109 160.61621094 C18.12504734 162.73119392 18.13032166 164.84596127 18.13671875 166.9609375 C18.14025466 175.01574351 17.83685584 182.98219664 17 191 C16.01 191 15.02 191 14 191 C12.08889639 206.98203481 10.36597269 222.96187362 9 239 C9.94875 238.96519531 10.8975 238.93039062 11.875 238.89453125 C27.18271754 238.91374274 49.47564518 243.43600808 61 254 C67.04643312 261.21054525 67.33885174 271.16245132 67.23828125 280.140625 C67.22937614 281.56704315 67.22937614 281.56704315 67.22029114 283.02227783 C67.08407718 293.64380741 66.1834908 304.18036722 65.1875 314.75 C65.00293509 316.77690033 64.81877596 318.80383765 64.63500977 320.83081055 C62.78694771 341.00622288 60.80838932 361.08625342 57 381 C56.66080087 382.99901352 56.32536659 384.99868851 56 387 C56.82951172 387.40605469 56.82951172 387.40605469 57.67578125 387.8203125 C59.2594212 388.62410959 60.81950245 389.47566477 62.35546875 390.3671875 C70.98056305 394.95930667 79.44885914 396.34398204 89.06518555 397.61865234 C95.13414804 398.43828532 100.36198097 399.58564927 106 402 C105.67 403.65 105.34 405.3 105 407 C98.75056941 409.31742661 92.73022346 410.72753232 86.125 411.5625 C84.69244873 411.74800415 84.69244873 411.74800415 83.23095703 411.93725586 C71.87807023 413.34423756 60.50125519 414.20196457 49.0836792 414.87567139 C46.90982893 415.00538031 44.73642958 415.14145257 42.56298828 415.27783203 C-130.84429957 425.96486198 -130.84429957 425.96486198 -174 406 C-173.67 404.35 -173.34 402.7 -173 401 C-164.49763266 398.63500704 -156.14505431 397.22750567 -147.375 396.3125 C-146.20582031 396.18294922 -145.03664062 396.05339844 -143.83203125 395.91992188 C-135.43105159 395 -135.43105159 395 -133 395 C-132.95174072 394.30269775 -132.90348145 393.60539551 -132.85375977 392.88696289 C-132.13844021 383.41693976 -130.78678731 374.07688532 -129.37304688 364.68945312 C-126.81639322 352.43055241 -126.81639322 352.43055241 -129.43041992 340.91064453 C-130.59541295 339.6806489 -131.7842559 338.47306414 -132.98828125 337.28125 C-140.07055261 329.2500918 -145 316.63587403 -145 306 C-146.11375 305.71125 -147.2275 305.4225 -148.375 305.125 C-152 304 -152 304 -154 302 C-154.4140625 299.1796875 -154.4140625 299.1796875 -154.625 295.875 C-154.69976562 294.77929688 -154.77453125 293.68359375 -154.8515625 292.5546875 C-154.90054688 291.71164062 -154.94953125 290.86859375 -155 290 C-155.73114014 289.96559814 -156.46228027 289.93119629 -157.21557617 289.89575195 C-160.54130412 289.72557389 -163.86386455 289.51942606 -167.1875 289.3125 C-168.33798828 289.25900391 -169.48847656 289.20550781 -170.67382812 289.15039062 C-171.78564453 289.07626953 -172.89746094 289.00214844 -174.04296875 288.92578125 C-175.06414795 288.86817627 -176.08532715 288.81057129 -177.13745117 288.7512207 C-181.00618778 287.73594543 -182.54908235 286.12371857 -185 283 C-185.87304688 280.26220703 -185.87304688 280.26220703 -186.21875 277.1328125 C-186.42564453 275.2751123 -186.42564453 275.2751123 -186.63671875 273.37988281 C-187.34356865 265.27137198 -187.85186759 257.15000026 -188.31863403 249.0246582 C-188.50271149 245.82791138 -188.69442011 242.63170554 -188.88842773 239.43554688 C-189.14454667 235.21591688 -189.39910396 230.99620023 -189.65185547 226.77636719 C-190.09821685 219.34919407 -190.56163238 211.92372032 -191.0625 204.5 C-191.12953125 203.41831543 -191.1965625 202.33663086 -191.265625 201.22216797 C-191.73167139 194.4611978 -192.85134546 188.44596361 -195 182 C-195.37288316 176.96607729 -195.03052983 174.07955939 -192 170 C-188.4315474 166.4315474 -182.80166269 167.00142161 -177.95513916 166.9989624 C-176.43367318 167.01672238 -174.9122527 167.03875053 -173.39089966 167.06442261 C-170.05897134 167.12061414 -166.72710208 167.13838194 -163.39477539 167.15649414 C-161.6675402 167.17723337 -159.94043377 167.21773513 -158.21411133 167.27758789 C-149.98400267 167.65631925 -149.98400267 167.65631925 -142 166 C-138.39558442 162.41820767 -136.78741582 158.69319064 -135 154 C-131.65729809 148.70591825 -127.12533842 145.44796647 -121.23046875 143.37890625 C-119 143 -119 143 -115.6796875 143.140625 C-107.76487951 143.39869512 -107.76487951 143.39869512 -101.109375 139.39453125 C-98.91313601 136.62777501 -97.00240404 133.67603247 -95.11328125 130.69384766 C-88.486297 120.61094925 -77.72362414 110.29468192 -65.734375 107.48828125 C-64.83203125 107.32714844 -63.9296875 107.16601562 -63 107 C-61.33710938 106.68095703 -61.33710938 106.68095703 -59.640625 106.35546875 C-49.91735804 104.76569409 -40.76813905 105.11524812 -31 106 C-30.71640625 105.08476562 -30.4328125 104.16953125 -30.140625 103.2265625 C-29.19889482 100.56262713 -28.26013574 98.70401216 -26.75 96.375 C-24.31394354 91.69096496 -25.32722503 87.97102701 -26.43359375 82.9765625 C-26.97397879 80.13674593 -27.00404027 77.8059323 -26.8125 74.9375 C-26.874375 73.638125 -26.93625 72.33875 -27 71 C-29.30305165 69.10141725 -29.30305165 69.10141725 -32 68 C-33.96172241 64.99069113 -34.27165945 62.55214926 -34.25 59 C-34.25773437 57.7315625 -34.25773437 57.7315625 -34.265625 56.4375 C-34 54 -34 54 -33.02783203 52.15087891 C-31.87528563 49.73901814 -31.5734366 47.80072376 -31.2890625 45.1484375 C-31.17820312 44.21386719 -31.06734375 43.27929688 -30.953125 42.31640625 C-30.73705267 40.37947217 -30.52598481 38.44197224 -30.3203125 36.50390625 C-29.37351199 28.63900655 -27.42759332 21.64138998 -23 15 C-22.34 15 -21.68 15 -21 15 C-21 14.34 -21 13.68 -21 13 C-18.03 11.35 -15.06 9.7 -12 8 C-12.33 7.01 -12.66 6.02 -13 5 C-6.25 4.875 -6.25 4.875 -4 6 C-3.71125 5.38125 -3.4225 4.7625 -3.125 4.125 C-2 2 -2 2 0 0 Z M-7 330 C-7.33 330.99 -7.66 331.98 -8 333 C-9.30847103 333.71423091 -10.64719446 334.37378966 -12 335 C-13.48183248 336.09386179 -14.93922819 337.22134476 -16.375 338.375 C-19.79883814 341.12132953 -23.3264002 343.59680936 -27 346 C-25.89095814 355.79167219 -24.49281036 365.51946653 -22.9375 375.25 C-22.7631543 376.34497803 -22.58880859 377.43995605 -22.40917969 378.56811523 C-21.41130032 384.82638516 -21.41130032 384.82638516 -20 391 C-16.00204108 391.95619733 -12.29196078 392.1039592 -8.1875 392.0625 C-6.44533203 392.04896484 -6.44533203 392.04896484 -4.66796875 392.03515625 C-3.34732422 392.01775391 -3.34732422 392.01775391 -2 392 C-1.67 389.69 -1.34 387.38 -1 385 C-1.66 385 -2.32 385 -3 385 C-2.9836853 384.03888306 -2.9836853 384.03888306 -2.96704102 383.05834961 C-2.88593883 374.06218606 -3.31508902 365.11353648 -3.79956055 356.1340332 C-3.93852609 353.54337106 -4.07011732 350.95240121 -4.20117188 348.36132812 C-4.28862295 346.70049763 -4.37649816 345.0396894 -4.46484375 343.37890625 C-4.50343002 342.61115372 -4.5420163 341.84340118 -4.58177185 341.05238342 C-4.79038286 337.28542636 -5.13236252 333.67531418 -6 330 C-6.33 330 -6.66 330 -7 330 Z M28 360 C27.88406494 360.74161377 27.76812988 361.48322754 27.64868164 362.24731445 C27.12260449 365.60279804 26.59259938 368.95764959 26.0625 372.3125 C25.88009766 373.47974609 25.69769531 374.64699219 25.50976562 375.84960938 C25.33251953 376.96787109 25.15527344 378.08613281 24.97265625 379.23828125 C24.72914429 380.7857605 24.72914429 380.7857605 24.48071289 382.36450195 C24 385 24 385 23 388 C25.36292656 390.52588702 26.66462511 391.88820837 30 393 C33.15432576 386.69134848 30.70644107 376.67210869 30 369.875 C29.90460938 368.91851562 29.80921875 367.96203125 29.7109375 366.9765625 C29.4783375 364.65056246 29.24130321 362.32511041 29 360 C28.67 360 28.34 360 28 360 Z " fill="#60927E" transform="translate(297,46)"/>
<path d="M0 0 C0.495 0.99 0.495 0.99 1 2 C0.34 2 -0.32 2 -1 2 C-1.28875 2.763125 -1.5775 3.52625 -1.875 4.3125 C-3 7 -3 7 -5 10 C-4.74276031 12.02919843 -4.74276031 12.02919843 -4 14 C-3.505 15.485 -3.505 15.485 -3 17 C-2.34 17 -1.68 17 -1 17 C0.02649277 18.12525155 0.99587696 19.30282645 1.9375 20.5 C7.19526911 26.70770219 13.74729204 31.37364602 21 35 C18.36 39.95 15.72 44.9 13 50 C14.98 50.33 16.96 50.66 19 51 C19 51.66 19 52.32 19 53 C20.0832959 53.17462769 20.0832959 53.17462769 21.18847656 53.3527832 C24.08929717 54.02055634 26.33638638 55.00831345 28.984375 56.35546875 C29.92023438 56.81244141 30.85609375 57.26941406 31.8203125 57.74023438 C33.76559378 58.70120333 35.70328278 59.67770435 37.6328125 60.66992188 C43.2822541 63.3901667 46.93913929 64.63250675 53.0300293 62.71655273 C53.68011963 62.48009033 54.33020996 62.24362793 55 62 C60.5225153 60.42489885 65.23486764 59.79410242 71 60 C70.67 61.65 70.34 63.3 70 65 C69.030625 65.28875 68.06125 65.5775 67.0625 65.875 C63.89335797 66.64214682 63.89335797 66.64214682 63 69 C64.01707031 69.07347656 64.01707031 69.07347656 65.0546875 69.1484375 C71.49299341 69.66564213 77.69732977 70.59181121 84 72 C84.33 72.99 84.66 73.98 85 75 C82.03 75.99 82.03 75.99 79 77 C79 77.66 79 78.32 79 79 C79.94875 78.979375 80.8975 78.95875 81.875 78.9375 C85 79 85 79 87 80 C87 80.99 87 81.98 87 83 C83.535 83.495 83.535 83.495 80 84 C80.99 84.33 81.98 84.66 83 85 C83 85.99 83 86.98 83 88 C79.37 88.33 75.74 88.66 72 89 C73.65 89.66 75.3 90.32 77 91 C77 91.66 77 92.32 77 93 C66.93615265 93.75321934 56.43921417 92.11348121 47.6015625 87.0546875 C41.02930151 83.64737821 33.29648632 83.03655004 26.0625 81.875 C23.78765836 81.49823767 21.51345207 81.11782788 19.23934937 80.7366333 C17.78566884 80.49298125 16.33175417 80.25072157 14.87759399 80.00994873 C9.87065553 79.17350881 4.93642152 78.17934985 0 77 C-1.45998281 88.3254977 -2.4575198 99.5936399 -3 111 C-2.34 111 -1.68 111 -1 111 C-0.90203125 111.83402344 -0.8040625 112.66804688 -0.703125 113.52734375 C0.63603324 123.60566395 2.79502632 131.61929525 10 139 C19.70697701 145.9691117 33.27289698 146.23008804 44.8125 147.0625 C46.48276245 147.1860083 46.48276245 147.1860083 48.18676758 147.31201172 C65.09900415 148.45972111 82.05769907 148.64331998 99 149 C99 163.52 99 178.04 99 193 C98.34 191.68 97.68 190.36 97 189 C96.360625 189.680625 95.72125 190.36125 95.0625 191.0625 C89.98455088 196.14044912 84.19826194 200.39889711 78 204 C79.23611878 214.91362761 80.87091088 225.7348654 82.67871094 236.56811523 C82.84918945 237.60266846 83.01966797 238.63722168 83.1953125 239.703125 C83.35016113 240.62770508 83.50500977 241.55228516 83.66455078 242.50488281 C84 245 84 245 84 249 C89.94 249.33 95.88 249.66 102 250 C102.33 248.02 102.66 246.04 103 244 C111.25 244 119.5 244 128 244 C128 245.32 128 246.64 128 248 C129.65 248.66 131.3 249.32 133 250 C134.92091092 248.28373595 134.92091092 248.28373595 135 241 C143.25 241 151.5 241 160 241 C160 242.32 160 243.64 160 245 C160.55300781 245.27070313 161.10601562 245.54140625 161.67578125 245.8203125 C163.2594212 246.62410959 164.81950245 247.47566477 166.35546875 248.3671875 C174.98056305 252.95930667 183.44885914 254.34398204 193.06518555 255.61865234 C199.13414804 256.43828532 204.36198097 257.58564927 210 260 C209.67 261.65 209.34 263.3 209 265 C202.75056941 267.31742661 196.73022346 268.72753232 190.125 269.5625 C188.69244873 269.74800415 188.69244873 269.74800415 187.23095703 269.93725586 C175.87807023 271.34423756 164.50125519 272.20196457 153.0836792 272.87567139 C150.90982893 273.00538031 148.73642958 273.14145257 146.56298828 273.27783203 C-26.84429957 283.96486198 -26.84429957 283.96486198 -70 264 C-69.67 262.35 -69.34 260.7 -69 259 C-60.49763266 256.63500704 -52.14505431 255.22750567 -43.375 254.3125 C-42.20582031 254.18294922 -41.03664062 254.05339844 -39.83203125 253.91992188 C-31.43105159 253 -31.43105159 253 -29 253 C-28.95174072 252.30269775 -28.90348145 251.60539551 -28.85375977 250.88696289 C-28.13844021 241.41693976 -26.78678731 232.07688532 -25.37304688 222.68945312 C-22.81639322 210.43055241 -22.81639322 210.43055241 -25.43041992 198.91064453 C-26.59541295 197.6806489 -27.7842559 196.47306414 -28.98828125 195.28125 C-36.07055261 187.2500918 -41 174.63587403 -41 164 C-42.11375 163.71125 -43.2275 163.4225 -44.375 163.125 C-48 162 -48 162 -50 160 C-50.4140625 157.1796875 -50.4140625 157.1796875 -50.625 153.875 C-50.69976562 152.77929688 -50.77453125 151.68359375 -50.8515625 150.5546875 C-50.90054688 149.71164062 -50.94953125 148.86859375 -51 148 C-51.73114014 147.96559814 -52.46228027 147.93119629 -53.21557617 147.89575195 C-56.54130412 147.72557389 -59.86386455 147.51942606 -63.1875 147.3125 C-64.33798828 147.25900391 -65.48847656 147.20550781 -66.67382812 147.15039062 C-67.78564453 147.07626953 -68.89746094 147.00214844 -70.04296875 146.92578125 C-71.06414795 146.86817627 -72.08532715 146.81057129 -73.13745117 146.7512207 C-77.00618778 145.73594543 -78.54908235 144.12371857 -81 141 C-81.87304688 138.26220703 -81.87304688 138.26220703 -82.21875 135.1328125 C-82.42564453 133.2751123 -82.42564453 133.2751123 -82.63671875 131.37988281 C-83.34356865 123.27137198 -83.85186759 115.15000026 -84.31863403 107.0246582 C-84.50271149 103.82791138 -84.69442011 100.63170554 -84.88842773 97.43554688 C-85.14454667 93.21591688 -85.39910396 88.99620023 -85.65185547 84.77636719 C-86.09821685 77.34919407 -86.56163238 69.92372032 -87.0625 62.5 C-87.12953125 61.41831543 -87.1965625 60.33663086 -87.265625 59.22216797 C-87.73167139 52.4611978 -88.85134546 46.44596361 -91 40 C-91.37288316 34.96607729 -91.03052983 32.07955939 -88 28 C-84.4315474 24.4315474 -78.80166269 25.00142161 -73.95513916 24.9989624 C-72.43367318 25.01672238 -70.9122527 25.03875053 -69.39089966 25.06442261 C-66.05897134 25.12061414 -62.72710208 25.13838194 -59.39477539 25.15649414 C-57.6675402 25.17723337 -55.94043377 25.21773513 -54.21411133 25.27758789 C-45.98400267 25.65631925 -45.98400267 25.65631925 -38 24 C-34.39558442 20.41820767 -32.78741582 16.69319064 -31 12 C-27.69600365 6.76721907 -23.15856418 3.3705426 -17.26953125 1.4296875 C-13.95196489 0.80157683 -10.61472951 0.63149669 -7.25 0.4375 C-6.55261719 0.39431641 -5.85523438 0.35113281 -5.13671875 0.30664062 C-3.42468078 0.20110404 -1.71236439 0.1001009 0 0 Z " fill="#E7E7E7" transform="translate(193,188)"/>
<path d="M0 0 C18.75 1.875 18.75 1.875 23 4 C23 4.66 23 5.32 23 6 C24.134375 5.95875 25.26875 5.9175 26.4375 5.875 C31.14383562 5.85816159 35.46316004 6.82378223 40 8 C40 9.65 40 11.3 40 13 C40.66 13 41.32 13 42 13 C42.66 13.99 43.32 14.98 44 16 C46.30144109 17.07136051 48.6340213 18.07989717 51 19 C51 19.66 51 20.32 51 21 C59.89117569 22.03068098 67.87372345 22.10998354 76.6875 20.5625 C84.06747922 19.27214219 91.19239465 18.71858608 98.6875 18.75 C99.60297607 18.75330322 100.51845215 18.75660645 101.46166992 18.76000977 C107.85239847 18.85239847 107.85239847 18.85239847 109 20 C110.48232494 20.16783877 111.97145807 20.27625993 113.4609375 20.359375 C153.91876352 22.98817745 153.91876352 22.98817745 165.2109375 35.4375 C166.75864359 37.65430173 167.80463228 39.46877232 168.6875 42 C169.03361328 42.9590625 169.03361328 42.9590625 169.38671875 43.9375 C171.07534706 49.6164538 171.18567575 55.0051039 171.17578125 60.890625 C171.17435623 61.85961731 171.17293121 62.82860962 171.17146301 63.82696533 C171.08504343 74.5205942 170.19015105 85.10968747 169.1875 95.75 C169.00293509 97.77690033 168.81877596 99.80383765 168.63500977 101.83081055 C163.5998134 156.80037319 163.5998134 156.80037319 160 164 C152.18443179 166.19335662 142.91090838 165.49262422 135 164 C133.53430585 161.0686117 133.37913782 158.11367734 132.9375 154.875 C132.67259766 152.95300781 132.67259766 152.95300781 132.40234375 150.9921875 C132.26957031 150.00476563 132.13679687 149.01734375 132 148 C131.84144531 149.27617187 131.68289063 150.55234375 131.51953125 151.8671875 C131.28505927 153.53662803 131.04931601 155.20589036 130.8125 156.875 C130.66071289 158.13763672 130.66071289 158.13763672 130.50585938 159.42578125 C130.16586142 161.72306474 129.78538526 163.81417916 129 166 C125.32111692 168.65252802 121.11485964 168.26808931 116.6875 168.25 C115.43324219 168.25515625 114.17898438 168.2603125 112.88671875 168.265625 C108.66016172 167.97677487 105.09012277 167.07057083 101 166 C99.24861801 145.57863877 98.73442242 125.35998058 98.8626709 104.87719727 C98.88366831 101.14797379 98.89237589 97.4187195 98.90234375 93.68945312 C98.92336652 86.45955665 98.95718361 79.22980393 99 72 C97.95996826 72.01047363 96.91993652 72.02094727 95.84838867 72.03173828 C60.90146975 72.3519571 60.90146975 72.3519571 44.8125 71.125 C43.77826904 71.04652832 42.74403809 70.96805664 41.6784668 70.88720703 C14.30772413 68.54390625 14.30772413 68.54390625 5 58 C0.13562489 50.53622444 -1.35864299 42.78675318 -1 34 C-1.66 34 -2.32 34 -3 34 C-3.39624358 22.27412521 -2.4139065 11.48042438 0 0 Z " fill="#5B8C77" transform="translate(193,265)"/>
<path d="M0 0 C0.66 0 1.32 0 2 0 C2.495 1.485 2.495 1.485 3 3 C3.5671875 2.6803125 4.134375 2.360625 4.71875 2.03125 C9.7498806 -0.24309671 14.86414953 0.21029739 19.96875 2.09765625 C25.97342251 4.99939877 31.41900153 8.48229557 36.74609375 12.484375 C42.30398787 16.22174574 47.29823112 16.29271155 53.84375 16.4609375 C57.65775169 17.11233878 59.27903785 18.2886187 62 21 C64.00885851 23.98662149 64.13302809 25.96814326 63.8125 29.5 C63.68315204 31.85423654 63.68315204 31.85423654 64 34 C66.40144575 36.15449966 66.40144575 36.15449966 69 38 C70.16864117 41.94416395 70.28815643 44.16943146 68.9375 48.0625 C65.90034748 52.66721511 63.13869294 56.34194063 57.75 58 C56.38875 58.495 56.38875 58.495 55 59 C53.89797113 61.63178728 53.89797113 61.63178728 53 65 C49.81965075 71.19966816 46.28343908 76.43702988 41 81 C40.34 81 39.68 81 39 81 C38.90460938 81.5465625 38.80921875 82.093125 38.7109375 82.65625 C37.80513405 85.64241521 36.32633603 87.88697757 34.625 90.5 C34.01914062 91.4384375 33.41328125 92.376875 32.7890625 93.34375 C29.51202079 98.20922677 29.51202079 98.20922677 28 100 C27.34 100 26.68 100 26 100 C26 100.66 26 101.32 26 102 C23.98828125 103.4375 23.98828125 103.4375 21.3125 105 C20.44238281 105.515625 19.57226562 106.03125 18.67578125 106.5625 C13.97132865 109.08985556 10.56902141 110.25467521 5.1875 110.125 C4.21167969 110.10695313 3.23585938 110.08890625 2.23046875 110.0703125 C1.49441406 110.04710937 0.75835937 110.02390625 0 110 C-0.66 111.98 -1.32 113.96 -2 116 C-1.01 116.495 -1.01 116.495 0 117 C-0.66 117 -1.32 117 -2 117 C-2.226875 118.0725 -2.45375 119.145 -2.6875 120.25 C-4.34461626 124.9846179 -6.59750075 126.79875037 -11 129 C-15.4881019 129.37400849 -18.00170761 129.48895954 -22.0625 127.5 C-27.46188406 122.90477952 -32.56214557 118.18927217 -34 111 C-34.125 108.125 -34.125 108.125 -34 106 C-33.01 106 -32.02 106 -31 106 C-30.7525 105.175 -30.505 104.35 -30.25 103.5 C-29 100 -29 100 -27.90625 98.2421875 C-24.53124383 92.79200862 -25.07133611 89.12618269 -26.43359375 82.9765625 C-26.97397879 80.13674593 -27.00404027 77.8059323 -26.8125 74.9375 C-26.9053125 72.9884375 -26.9053125 72.9884375 -27 71 C-29.30305165 69.10141725 -29.30305165 69.10141725 -32 68 C-33.96172241 64.99069113 -34.27165945 62.55214926 -34.25 59 C-34.25515625 58.154375 -34.2603125 57.30875 -34.265625 56.4375 C-34 54 -34 54 -33.02783203 52.15087891 C-31.87528563 49.73901814 -31.5734366 47.80072376 -31.2890625 45.1484375 C-31.17820312 44.21386719 -31.06734375 43.27929688 -30.953125 42.31640625 C-30.73705267 40.37947217 -30.52598481 38.44197224 -30.3203125 36.50390625 C-29.37351199 28.63900655 -27.42759332 21.64138998 -23 15 C-22.34 15 -21.68 15 -21 15 C-21 14.34 -21 13.68 -21 13 C-18.03 11.35 -15.06 9.7 -12 8 C-12.33 7.01 -12.66 6.02 -13 5 C-6.25 4.875 -6.25 4.875 -4 6 C-3.566875 5.071875 -3.566875 5.071875 -3.125 4.125 C-2 2 -2 2 0 0 Z " fill="#F6AF88" transform="translate(297,46)"/>
<path d="M0 0 C8.25 0 16.5 0 25 0 C25 1.32 25 2.64 25 4 C25.82951172 4.40605469 25.82951172 4.40605469 26.67578125 4.8203125 C28.2594212 5.62410959 29.81950245 6.47566477 31.35546875 7.3671875 C39.98056305 11.95930667 48.44885914 13.34398204 58.06518555 14.61865234 C64.13414804 15.43828532 69.36198097 16.58564927 75 19 C74.67 20.65 74.34 22.3 74 24 C67.75056941 26.31742661 61.73022346 27.72753232 55.125 28.5625 C54.16996582 28.68616943 53.21493164 28.80983887 52.23095703 28.93725586 C40.87807023 30.34423756 29.50125519 31.20196457 18.0836792 31.87567139 C15.90982893 32.00538031 13.73642958 32.14145257 11.56298828 32.27783203 C-161.84429957 42.96486198 -161.84429957 42.96486198 -205 23 C-204.67 21.35 -204.34 19.7 -204 18 C-195.51811425 15.64311732 -187.18563274 14.22887567 -178.4375 13.3125 C-176.69629883 13.11817383 -176.69629883 13.11817383 -174.91992188 12.91992188 C-166.54327877 12 -166.54327877 12 -163 12 C-162.9175 12.94875 -162.835 13.8975 -162.75 14.875 C-162.36320156 18.04203245 -162.36320156 18.04203245 -160.25585938 19.16943359 C-157.7661454 20.08610101 -155.80666807 20.31654712 -153.15625 20.4140625 C-152.1235498 20.45297607 -151.09084961 20.49188965 -150.02685547 20.53198242 C-148.86299316 20.56267822 -147.69913086 20.59337402 -146.5 20.625 C-144.63239014 20.67974487 -144.63239014 20.67974487 -142.72705078 20.7355957 C-128.12492825 21.11610598 -113.51423325 21.14103814 -98.90792847 21.1807785 C-96.88578256 21.18746435 -94.8636795 21.19757515 -92.84155273 21.20855713 C-88.97503394 21.22657551 -85.1087437 21.23045299 -81.2421875 21.23046875 C-79.50900772 21.24117149 -79.50900772 21.24117149 -77.74081421 21.25209045 C-68.90347185 21.22787514 -60.57197282 20.1429932 -52 18 C-51.67 14.7 -51.34 11.4 -51 8 C-45.06 8.33 -39.12 8.66 -33 9 C-32.67 7.02 -32.34 5.04 -32 3 C-23.75 3 -15.5 3 -7 3 C-7 4.32 -7 5.64 -7 7 C-5.35 7.66 -3.7 8.32 -2 9 C-0.07908908 7.28373595 -0.07908908 7.28373595 0 0 Z " fill="#E2D6C8" transform="translate(328,429)"/>
<path d="M0 0 C0.66 0 1.32 0 2 0 C2.495 1.485 2.495 1.485 3 3 C3.5671875 2.6803125 4.134375 2.360625 4.71875 2.03125 C9.7498806 -0.24309671 14.86414953 0.21029739 19.96875 2.09765625 C25.97342251 4.99939877 31.41900153 8.48229557 36.74609375 12.484375 C42.30398787 16.22174574 47.29823112 16.29271155 53.84375 16.4609375 C57.65775169 17.11233878 59.27903785 18.2886187 62 21 C64.00885851 23.98662149 64.13302809 25.96814326 63.8125 29.5 C63.68315204 31.85423654 63.68315204 31.85423654 64 34 C66.40144575 36.15449966 66.40144575 36.15449966 69 38 C70.16864117 41.94416395 70.28815643 44.16943146 68.9375 48.0625 C65.90034748 52.66721511 63.13869294 56.34194063 57.75 58 C56.38875 58.495 56.38875 58.495 55 59 C53.89797113 61.63178728 53.89797113 61.63178728 53 65 C50.02682273 70.7176486 46.84372906 75.72612142 42 80 C40.515 79.505 40.515 79.505 39 79 C39.40992188 78.03320312 39.81984375 77.06640625 40.2421875 76.0703125 C43.27151461 68.79637232 45.92666778 61.86493437 47 54 C45.80375 54.103125 44.6075 54.20625 43.375 54.3125 C32.80268763 54.2626306 23.55860721 49.33925642 15.5 42.8671875 C11.86366777 40.15130187 8.43438106 38.23418466 3.9375 37.5 C-0.12398481 38.19131656 -1.40335977 39.85669867 -4 43 C-4.721875 44.093125 -5.44375 45.18625 -6.1875 46.3125 C-6.785625 47.199375 -7.38375 48.08625 -8 49 C-8.66 49 -9.32 49 -10 49 C-10.17015625 49.62648437 -10.3403125 50.25296875 -10.515625 50.8984375 C-10.75796875 51.71570313 -11.0003125 52.53296875 -11.25 53.375 C-11.48203125 54.18710938 -11.7140625 54.99921875 -11.953125 55.8359375 C-13 58 -13 58 -17 60 C-17.33 56.37 -17.66 52.74 -18 49 C-20.1346875 48.7215625 -20.1346875 48.7215625 -22.3125 48.4375 C-23.11300781 48.33308594 -23.91351563 48.22867188 -24.73828125 48.12109375 C-27.16817116 47.85244822 -27.16817116 47.85244822 -30 49 C-30.30837276 36.9563304 -29.89808395 25.34712592 -23 15 C-22.34 15 -21.68 15 -21 15 C-21 14.34 -21 13.68 -21 13 C-18.03 11.35 -15.06 9.7 -12 8 C-12.33 7.01 -12.66 6.02 -13 5 C-6.25 4.875 -6.25 4.875 -4 6 C-3.566875 5.071875 -3.566875 5.071875 -3.125 4.125 C-2 2 -2 2 0 0 Z " fill="#835944" transform="translate(297,46)"/>
<path d="M0 0 C0.66 0.33 1.32 0.66 2 1 C2 1.66 2 2.32 2 3 C2.66 3 3.32 3 4 3 C5.02649277 4.12525155 5.99587696 5.30282645 6.9375 6.5 C12.19526911 12.70770219 18.74729204 17.37364602 26 21 C23.36 25.95 20.72 30.9 18 36 C20.97 36.495 20.97 36.495 24 37 C24 37.66 24 38.32 24 39 C25.0832959 39.17462769 25.0832959 39.17462769 26.18847656 39.3527832 C29.08929717 40.02055634 31.33638638 41.00831345 33.984375 42.35546875 C34.92023438 42.81244141 35.85609375 43.26941406 36.8203125 43.74023438 C38.76559378 44.70120333 40.70328278 45.67770435 42.6328125 46.66992188 C48.2822541 49.3901667 51.93913929 50.63250675 58.0300293 48.71655273 C58.68011963 48.48009033 59.33020996 48.24362793 60 48 C65.5225153 46.42489885 70.23486764 45.79410242 76 46 C75.67 47.65 75.34 49.3 75 51 C74.030625 51.28875 73.06125 51.5775 72.0625 51.875 C68.89335797 52.64214682 68.89335797 52.64214682 68 55 C68.67804688 55.04898438 69.35609375 55.09796875 70.0546875 55.1484375 C76.49299341 55.66564213 82.69732977 56.59181121 89 58 C89.33 58.99 89.66 59.98 90 61 C88.02 61.66 86.04 62.32 84 63 C84 63.66 84 64.32 84 65 C84.94875 64.979375 85.8975 64.95875 86.875 64.9375 C90 65 90 65 92 66 C92 66.99 92 67.98 92 69 C88.535 69.495 88.535 69.495 85 70 C86.485 70.495 86.485 70.495 88 71 C88 71.99 88 72.98 88 74 C84.37 74.33 80.74 74.66 77 75 C78.65 75.66 80.3 76.32 82 77 C82 77.66 82 78.32 82 79 C71.91637062 79.75469991 61.43487464 78.09856023 52.57421875 73.046875 C46.12966428 69.70830798 38.59375002 69.11812039 31.5 68 C22.70748087 66.58712508 13.94922186 65.1222861 5.28125 63.0625 C4.02376953 62.76472656 2.76628906 62.46695313 1.47070312 62.16015625 C-2.21217898 60.92907467 -4.87270083 59.27647307 -8 57 C-9.051875 56.38125 -9.051875 56.38125 -10.125 55.75 C-14.82259066 51.36558205 -16.28784135 46.32499633 -16.5625 40 C-16.38568514 34.58820218 -15.36165653 29.71721552 -13.8125 24.5625 C-13.61664307 23.90056641 -13.42078613 23.23863281 -13.21899414 22.55664062 C-11.60863759 17.68298202 -9.29756426 14.79140239 -6 11 C-4.93478813 8.85377196 -4.93478813 8.85377196 -4.375 6.8125 C-3.44906395 3.76412611 -2.38784569 2.13059159 0 0 Z " fill="#F5AF8A" transform="translate(188,202)"/>
<path d="M0 0 C0 10.56 0 21.12 0 32 C-0.33 32 -0.66 32 -1 32 C-2.04527849 22.46384389 -1.81307161 13.51896062 -1 4 C-1.59698196 4.02996567 -2.19396393 4.05993134 -2.80903625 4.09080505 C-24.34253618 5.12666048 -45.84974737 5.12159503 -67.40246582 5.06866455 C-72.11010272 5.0582444 -76.8177454 5.05382784 -81.52539062 5.04882812 C-90.6836084 5.03825602 -99.8418013 5.02129915 -109 5 C-108.53886559 6.59482721 -108.07312614 8.18832334 -107.60546875 9.78125 C-107.34660889 10.66876953 -107.08774902 11.55628906 -106.82104492 12.47070312 C-105.84288175 15.48401578 -104.47039158 18.19925414 -103 21 C-103 21.66 -103 22.32 -103 23 C-102.34 23 -101.68 23 -101 23 C-100.525625 23.99 -100.05125 24.98 -99.5625 26 C-94.7094194 34.41200637 -86.68843278 39.22715236 -78 43 C-77.33465962 58.42603993 -79.31393877 73.69391223 -81 89 C-85.29160791 89.05871491 -89.58311058 89.09383483 -93.875 89.125 C-95.07898438 89.14175781 -96.28296875 89.15851563 -97.5234375 89.17578125 C-104.60751691 89.21428168 -111.12667175 88.76050885 -118 87 C-117.2694117 71.84990579 -117.2694117 71.84990579 -115.9375 64.8125 C-114.83411782 58.65545897 -113.98232673 52.20953182 -115 46 C-116.98390154 43.57385374 -118.63867677 42.19967863 -121.375 40.6875 C-131.53678152 34.15492616 -136.69948836 20.63492248 -139.58984375 9.40234375 C-140.01902324 6.88857819 -140.02776502 4.54512654 -140 2 C-139.02569298 1.99365209 -139.02569298 1.99365209 -138.031703 1.98717594 C-122.18861271 1.88363453 -106.34556703 1.77496294 -90.50255108 1.66066074 C-82.84082681 1.60550616 -75.1790979 1.55205451 -67.51733398 1.50268555 C-60.83525946 1.45962486 -54.15321675 1.41329387 -47.4711917 1.36312145 C-43.93684126 1.33669549 -40.40249641 1.31184904 -36.86810875 1.29092598 C-32.91162285 1.26744264 -28.95521118 1.23665434 -24.9987793 1.20532227 C-23.8414328 1.1995668 -22.6840863 1.19381134 -21.4916687 1.18788147 C-14.3138201 1.12354622 -7.13746346 0 0 0 Z " fill="#D9D9D8" transform="translate(292,349)"/>
<path d="M0 0 C1.05592141 3.16776424 0.96226969 4.53029418 0.51171875 7.76953125 C0.38321533 8.73117188 0.25471191 9.6928125 0.12231445 10.68359375 C-0.02117432 11.71613281 -0.16466309 12.74867188 -0.3125 13.8125 C-1.8660258 25.5197134 -3.01553574 37.23275662 -4 49 C-1.69 49 0.62 49 3 49 C3 49.33 3 49.66 3 50 C1.18757948 50.02687279 -0.62495233 50.04633715 -2.4375 50.0625 C-3.44683594 50.07410156 -4.45617187 50.08570313 -5.49609375 50.09765625 C-8 50 -8 50 -9 49 C-12.11690901 48.84125439 -15.19382115 48.76125282 -18.3125 48.75 C-19.72535278 48.74407837 -19.72535278 48.74407837 -21.16674805 48.73803711 C-27.68794692 48.7907985 -33.89504015 49.4433875 -40.3125 50.5625 C-48.86418698 52.02833509 -57.43536251 52.92074591 -66 51 C-68.265625 49.04296875 -68.265625 49.04296875 -70 47 C-70.9075 46.46375 -71.815 45.9275 -72.75 45.375 C-73.4925 44.92125 -74.235 44.4675 -75 44 C-75 43.34 -75 42.68 -75 42 C-75.66 42 -76.32 42 -77 42 C-77.33 41.01 -77.66 40.02 -78 39 C-77.67 38.34 -77.34 37.68 -77 37 C-77.8353125 36.90912109 -77.8353125 36.90912109 -78.6875 36.81640625 C-83.79793457 36.25529435 -88.89999553 35.64909148 -94 35 C-94 34.34 -94 33.68 -94 33 C-73.96587589 35.34168874 -73.96587589 35.34168874 -66.34375 39.796875 C-58.43844 43.85493413 -48.74581225 44.49172634 -40 45 C-40 44.34 -40 43.68 -40 43 C-41.98 42.34 -43.96 41.68 -46 41 C-46 40.67 -46 40.34 -46 40 C-42.04 40 -38.08 40 -34 40 C-34 39.01 -34 38.02 -34 37 C-36.97 36.67 -39.94 36.34 -43 36 C-43 35.67 -43 35.34 -43 35 C-38.71 35 -34.42 35 -30 35 C-30 34.01 -30 33.02 -30 32 C-32.64 31.67 -35.28 31.34 -38 31 C-38 30.34 -38 29.68 -38 29 C-38.99 28.67 -39.98 28.34 -41 28 C-38.03 27.67 -35.06 27.34 -32 27 C-32.495 26.01 -32.495 26.01 -33 25 C-35.12338449 24.34297795 -35.12338449 24.34297795 -37.69140625 23.9296875 C-39.10776367 23.66865234 -39.10776367 23.66865234 -40.55273438 23.40234375 C-42.04256836 23.14130859 -42.04256836 23.14130859 -43.5625 22.875 C-44.55958984 22.69324219 -45.55667969 22.51148438 -46.58398438 22.32421875 C-49.05468861 21.8749998 -51.52658084 21.43397751 -54 21 C-53.505 19.515 -53.505 19.515 -53 18 C-51.02 17.67 -49.04 17.34 -47 17 C-46.67 15.35 -46.34 13.7 -46 12 C-47.74465077 12.32110137 -49.48922009 12.64265092 -51.23339844 12.96630859 C-52.70634378 13.23942673 -54.1796554 13.51057665 -55.65332031 13.77978516 C-59.56943126 14.50483009 -63.40173981 15.34017373 -67.25 16.375 C-71 17 -71 17 -73.234375 15.5390625 C-73.81703125 15.03117188 -74.3996875 14.52328125 -75 14 C-64.99150062 9.17383749 -54.12943641 5.29018786 -43 9 C-43 9.66 -43 10.32 -43 11 C-41.783125 11.103125 -40.56625 11.20625 -39.3125 11.3125 C-35.59890387 11.78082207 -32.96650544 12.58971433 -30 15 C-30 15.99 -30 16.98 -30 18 C-29.34 18 -28.68 18 -28 18 C-28 18.66 -28 19.32 -28 20 C-27.34 20 -26.68 20 -26 20 C-25.01 20.99 -25.01 20.99 -24 22 C-22.41744803 17.67435795 -21.54855348 13.571279 -21 9 C-20.34 9 -19.68 9 -19 9 C-19.020625 7.865625 -19.04125 6.73125 -19.0625 5.5625 C-19 2 -19 2 -18 1 C-16.10985552 0.76189471 -14.21188854 0.58468509 -12.3125 0.4375 C-11.27738281 0.35371094 -10.24226563 0.26992187 -9.17578125 0.18359375 C-6.10862687 0.00627978 -3.07144125 -0.03223402 0 0 Z " fill="#7B967D" transform="translate(310,236)"/>
<path d="M0 0 C8.25 0 16.5 0 25 0 C25 1.32 25 2.64 25 4 C25.49628906 4.2475 25.99257813 4.495 26.50390625 4.75 C28.57622871 5.78778277 30.6459024 6.83050588 32.71484375 7.875 C34.12236834 8.58338796 35.52992123 9.29171971 36.9375 10 C37.99227539 10.53367187 37.99227539 10.53367187 39.06835938 11.078125 C41.98430775 12.54293131 44.81373808 13.93125747 47.87890625 15.0625 C50 16 50 16 52 19 C52 20.32 52 21.64 52 23 C49.18649204 24.40675398 46.78032755 24.16385356 43.63671875 24.2109375 C41.71762695 24.25347656 41.71762695 24.25347656 39.75976562 24.296875 C37.72567223 24.33805197 35.69181221 24.37494399 33.6574707 24.40136719 C31.69199451 24.42910046 29.7268196 24.47606189 27.76171875 24.5234375 C25.997677 24.5531665 25.997677 24.5531665 24.19799805 24.58349609 C20.70297338 25.03868443 18.95222532 26.16358111 16 28 C13.51489258 28.35644531 13.51489258 28.35644531 10.89453125 28.328125 C9.91911377 28.32377441 8.94369629 28.31942383 7.9387207 28.31494141 C6.39124146 28.28279541 6.39124146 28.28279541 4.8125 28.25 C3.7505542 28.23759277 2.6886084 28.22518555 1.59448242 28.21240234 C-5.00197596 28.11431006 -11.59742329 27.93329144 -18.1875 27.625 C-18.91026123 27.59438477 -19.63302246 27.56376953 -20.37768555 27.53222656 C-24.28014565 27.30621356 -27.4995825 26.77633127 -31 25 C-33.80366726 21.52879292 -33.27691725 17.24078985 -33 13 C-32.69350684 10.66298962 -32.36526253 8.32854865 -32 6 C-32 5.01 -32 4.02 -32 3 C-23.75 3 -15.5 3 -7 3 C-7 4.32 -7 5.64 -7 7 C-5.35 7.66 -3.7 8.32 -2 9 C-0.07908908 7.28373595 -0.07908908 7.28373595 0 0 Z " fill="#F6AF8B" transform="translate(328,429)"/>
<path d="M0 0 C-0.08040527 0.67240723 -0.16081055 1.34481445 -0.24365234 2.03759766 C-2.06472652 17.34137511 -3.69210106 32.64372776 -5 48 C-2.69 48 -0.38 48 2 48 C2 48.33 2 48.66 2 49 C0.18757948 49.02687279 -1.62495233 49.04633715 -3.4375 49.0625 C-4.44683594 49.07410156 -5.45617187 49.08570313 -6.49609375 49.09765625 C-9 49 -9 49 -10 48 C-11.68183948 47.76712992 -13.3712416 47.58735834 -15.0625 47.4375 C-15.98160156 47.35371094 -16.90070313 47.26992188 -17.84765625 47.18359375 C-18.91306641 47.09271484 -18.91306641 47.09271484 -20 47 C-24.62878955 31.46049221 -22.88461663 18.81096973 -18.265625 3.578125 C-16.19952374 1.00187528 -13.80654105 1.13607464 -10.625 0.75 C-9.48289062 0.60046875 -8.34078125 0.4509375 -7.1640625 0.296875 C-4 0 -4 0 0 0 Z " fill="#F2AF8A" transform="translate(311,237)"/>
<path d="M0 0 C1.59244651 0.00502605 3.18489455 0.009587 4.77734375 0.01367188 C8.64326779 0.02458763 12.50911653 0.04179105 16.375 0.0625 C16.87 1.5475 16.87 1.5475 17.375 3.0625 C16.385 3.0625 15.395 3.0625 14.375 3.0625 C14.375 3.7225 14.375 4.3825 14.375 5.0625 C13.715 5.0625 13.055 5.0625 12.375 5.0625 C12.28412109 6.34447266 12.28412109 6.34447266 12.19140625 7.65234375 C12.10761719 8.75707031 12.02382812 9.86179688 11.9375 11 C11.85628906 12.10214844 11.77507812 13.20429688 11.69140625 14.33984375 C11.375 17.0625 11.375 17.0625 10.375 18.0625 C7.51582196 18.21042467 4.67776004 18.2975972 1.81640625 18.34375 C0.52717506 18.37136414 0.52717506 18.37136414 -0.7881012 18.39953613 C-3.5461624 18.45847689 -6.30428662 18.51120447 -9.0625 18.5625 C-12.68633321 18.63002288 -16.30996239 18.70372148 -19.93359375 18.78125 C-20.77321152 18.79482544 -21.61282928 18.80840088 -22.47789001 18.8223877 C-26.68607227 18.80268669 -26.68607227 18.80268669 -30.625 20.0625 C-32.62941422 15.92839566 -33.03348636 12.63754719 -32.625 8.0625 C-31.22039303 5.18944028 -29.87989001 3.31739001 -27.625 1.0625 C-18.84205183 -0.9891247 -8.97108045 -0.04951752 0 0 Z " fill="#EBEBEA" transform="translate(134.625,212.9375)"/>
<path d="M0 0 C8.25 0 16.5 0 25 0 C25 1.32 25 2.64 25 4 C27.55457959 5.29387797 30.12922621 6.53935545 32.71484375 7.76953125 C34.12253003 8.45024339 35.53007822 9.13124115 36.9375 9.8125 C37.64068359 10.14314453 38.34386719 10.47378906 39.06835938 10.81445312 C43.44389919 12.95096319 46.95023163 15.07534859 50 19 C49.62084961 21.15551758 49.62084961 21.15551758 49 23 C45.04900072 23.0246985 41.09803126 23.04285923 37.14697266 23.05493164 C35.14093449 23.06244036 33.13491798 23.0751447 31.12890625 23.08789062 C29.24365234 23.09272461 29.24365234 23.09272461 27.3203125 23.09765625 C25.57645264 23.10551147 25.57645264 23.10551147 23.79736328 23.11352539 C21 23 21 23 19 22 C19 21.34 19 20.68 19 20 C18.05125 19.7525 17.1025 19.505 16.125 19.25 C10.5979189 17.67890742 5.14053534 15.57026767 0 13 C-1.58542804 8.24371589 -0.67442893 5.39543147 0 0 Z " fill="#F09D77" transform="translate(328,429)"/>
<path d="M0 0 C0 0.66 0 1.32 0 2 C1.216875 2.103125 2.43375 2.20625 3.6875 2.3125 C7.4573452 2.63197841 10.0000771 3.65773305 13 6 C15.51044353 12.79656663 15.17186345 19.96881931 14 27 C13.34 27 12.68 27 12 27 C11.6596875 28.1446875 11.6596875 28.1446875 11.3125 29.3125 C9.72223546 32.56875596 8.1316406 33.31373199 5 35 C4.505 35.99 4.505 35.99 4 37 C-4.83881304 39.94627101 -14.76147949 37.8159631 -22.984375 34.03515625 C-25 33 -25 33 -28 31 C-28 30.34 -28 29.68 -28 29 C-27.32195312 29.28746094 -26.64390625 29.57492187 -25.9453125 29.87109375 C-16.63410002 33.43998023 -6.96029789 35.5858504 3 36 C3 35.34 3 34.68 3 34 C1.02 33.34 -0.96 32.68 -3 32 C-3 31.67 -3 31.34 -3 31 C0.96 31 4.92 31 9 31 C9 30.01 9 29.02 9 28 C6.03 27.67 3.06 27.34 0 27 C0 26.67 0 26.34 0 26 C4.29 26 8.58 26 13 26 C13 25.01 13 24.02 13 23 C10.36 22.67 7.72 22.34 5 22 C5 21.34 5 20.68 5 20 C4.01 19.67 3.02 19.34 2 19 C4.97 18.67 7.94 18.34 11 18 C10.505 17.01 10.505 17.01 10 16 C7.87661551 15.34297795 7.87661551 15.34297795 5.30859375 14.9296875 C4.36435547 14.75566406 3.42011719 14.58164062 2.44726562 14.40234375 C1.45404297 14.22832031 0.46082031 14.05429687 -0.5625 13.875 C-1.55958984 13.69324219 -2.55667969 13.51148438 -3.58398438 13.32421875 C-6.05468861 12.8749998 -8.52658084 12.43397751 -11 12 C-10.67 11.01 -10.34 10.02 -10 9 C-8.02 8.67 -6.04 8.34 -4 8 C-3.67 6.35 -3.34 4.7 -3 3 C-4.74465077 3.32110137 -6.48922009 3.64265092 -8.23339844 3.96630859 C-9.70634378 4.23942673 -11.1796554 4.51057665 -12.65332031 4.77978516 C-16.56943126 5.50483009 -20.40173981 6.34017373 -24.25 7.375 C-28 8 -28 8 -30.234375 6.5390625 C-30.81703125 6.03117188 -31.3996875 5.52328125 -32 5 C-21.99150062 0.17383749 -11.12943641 -3.70981214 0 0 Z " fill="#88977C" transform="translate(267,245)"/>
<path d="M0 0 C0.66 0 1.32 0 2 0 C1.25870313 3.99699257 -0.56600159 7.46319117 -2.375 11.0625 C-2.67921875 11.68705078 -2.9834375 12.31160156 -3.296875 12.95507812 C-4.87384375 16.11238523 -6.36655785 18.64376229 -9 21 C-9.33 21.680625 -9.66 22.36125 -10 23.0625 C-11 25 -11 25 -14 27 C-14.33 27.99 -14.66 28.98 -15 30 C-15.66 30 -16.32 30 -17 30 C-17 31.32 -17 32.64 -17 34 C-17 34.66 -17 35.32 -17 36 C-16.2575 36.268125 -15.515 36.53625 -14.75 36.8125 C-12 38 -12 38 -10 39.5625 C-7.67537209 41.23332631 -5.80890941 41.60987369 -3 42 C-3 42.66 -3 43.32 -3 44 C-0.03 44.33 2.94 44.66 6 45 C5.34 45.66 4.68 46.32 4 47 C-1.375978 46.73549924 -5.52943758 45.02967839 -10.1875 42.5 C-15.36779031 39.66758241 -15.36779031 39.66758241 -21 38 C-21 37.34 -21 36.68 -21 36 C-22.98 35.67 -24.96 35.34 -27 35 C-25.56985228 29.79946285 -23.39536622 25.19825909 -20 21 C-17.25 19.625 -17.25 19.625 -15 19 C-14.67 18.34 -14.34 17.68 -14 17 C-13.34 17 -12.68 17 -12 17 C-11.73316406 16.42507812 -11.46632812 15.85015625 -11.19140625 15.2578125 C-9.95935505 12.92297449 -8.55161725 10.96105816 -6.9375 8.875 C-4.76773805 6.06372737 -4.76773805 6.06372737 -3 3 C-2.34 3 -1.68 3 -1 3 C-0.67 2.01 -0.34 1.02 0 0 Z " fill="#50816D" transform="translate(233,203)"/>
<path d="M0 0 C-6.75 4 -6.75 4 -9 4 C-9 4.66 -9 5.32 -9 6 C-13.24942257 6.34096946 -17.4996092 6.67133864 -21.75 7 C-22.93722656 7.09539062 -24.12445313 7.19078125 -25.34765625 7.2890625 C-32.916468 7.86809728 -40.40974703 8.12563177 -48 8 C-48 7.67 -48 7.34 -48 7 C-48.77085937 6.93941406 -49.54171875 6.87882812 -50.3359375 6.81640625 C-51.84027344 6.69072266 -51.84027344 6.69072266 -53.375 6.5625 C-54.37273437 6.48128906 -55.37046875 6.40007812 -56.3984375 6.31640625 C-59 6 -59 6 -61 5 C-62.3389535 4.87311796 -63.68312475 4.79830001 -65.02734375 4.75390625 C-65.81947266 4.72103516 -66.61160156 4.68816406 -67.42773438 4.65429688 C-69.09687197 4.59324671 -70.76615069 4.53593653 -72.43554688 4.48242188 C-73.22896484 4.44826172 -74.02238281 4.41410156 -74.83984375 4.37890625 C-75.92833618 4.34132202 -75.92833618 4.34132202 -77.03881836 4.30297852 C-79 4 -79 4 -82 2 C-80.03546875 2.10828125 -80.03546875 2.10828125 -78.03125 2.21875 C-67.67090188 2.75974031 -57.311869 3.14153489 -46.9375 3.25 C-45.41382813 3.2819043 -45.41382813 3.2819043 -43.859375 3.31445312 C-42.90417969 3.31896484 -41.94898438 3.32347656 -40.96484375 3.328125 C-40.1255835 3.3374707 -39.28632324 3.34681641 -38.42163086 3.35644531 C-35.88257734 3.14732955 -35.88257734 3.14732955 -33.61230469 1.51367188 C-30.33454579 -0.38559029 -28.0103363 -0.44247613 -24.23828125 -0.546875 C-22.95501953 -0.58683594 -21.67175781 -0.62679688 -20.34960938 -0.66796875 C-19.68727295 -0.68134277 -19.02493652 -0.6947168 -18.3425293 -0.70849609 C-16.3077199 -0.75009773 -14.27437885 -0.81272731 -12.24023438 -0.87890625 C-2.29871148 -1.14935574 -2.29871148 -1.14935574 0 0 Z " fill="#E3D4C7" transform="translate(380,453)"/>
<path d="M0 0 C-0.25 1.8125 -0.25 1.8125 -1 4 C-1.680625 4.474375 -2.36125 4.94875 -3.0625 5.4375 C-3.701875 5.953125 -4.34125 6.46875 -5 7 C-5.33425735 9.62625139 -5.33425735 9.62625139 -5 12 C-3.68 12.66 -2.36 13.32 -1 14 C-1.94875 14.20625 -2.8975 14.4125 -3.875 14.625 C-7.19943116 15.65241189 -7.19943116 15.65241189 -8 18.5 C-8.33 19.655 -8.66 20.81 -9 22 C-11.97317727 27.7176486 -15.15627094 32.72612142 -20 37 C-20.99 36.67 -21.98 36.34 -23 36 C-22.59007812 35.03320312 -22.18015625 34.06640625 -21.7578125 33.0703125 C-18.70850018 25.74838436 -16.21364061 18.88866398 -15 11 C-17.97 11 -20.94 11 -24 11 C-23.01 10.67 -22.02 10.34 -21 10 C-21 9.34 -21 8.68 -21 8 C-16.05 7.34 -11.1 6.68 -6 6 C-6 5.34 -6 4.68 -6 4 C-2.47058824 0 -2.47058824 0 0 0 Z " fill="#8A604B" transform="translate(359,89)"/>
<path d="M0 0 C1.21055134 3.49353743 0.76265054 5.62948688 -0.3125 9.125 C-1.85285998 14.3749425 -3.00840516 19.6220562 -4 25 C-5.32 25.33 -6.64 25.66 -8 26 C-8 24.02 -8 22.04 -8 20 C-21.53 20 -35.06 20 -49 20 C-48.505 18.515 -48.505 18.515 -48 17 C-35.13 16.67 -22.26 16.34 -9 16 C-8.67 12.7 -8.34 9.4 -8 6 C-7.67 5.34 -7.34 4.68 -7 4 C-6.34 4 -5.68 4 -5 4 C-5 3.34 -5 2.68 -5 2 C-3.35 1.34 -1.7 0.68 0 0 Z " fill="#D9D9D9" transform="translate(154,214)"/>
<path d="M0 0 C-0.96486328 0.34611328 -0.96486328 0.34611328 -1.94921875 0.69921875 C-4.9698821 1.78941537 -7.9848384 2.89468234 -11 4 C-12.010625 4.36222656 -13.02125 4.72445313 -14.0625 5.09765625 C-21.09357612 7.69036557 -27.73702756 10.73906206 -34.35620117 14.23339844 C-38.51007567 16.39364591 -42.45584022 17.85515354 -47 19 C-47 15.7 -47 12.4 -47 9 C-41.91054057 6.61202297 -37.22165312 5.27769782 -31.6875 4.375 C-26.7007887 3.66595012 -26.7007887 3.66595012 -22 2 C-19.90135192 1.63352394 -17.79586876 1.3056299 -15.6875 1 C-10.98470837 0.32076807 -10.98470837 0.32076807 -6.33203125 -0.625 C-3.87053205 -1.02081897 -2.34448168 -0.78149389 0 0 Z " fill="#517E6A" transform="translate(240,290)"/>
<path d="M0 0 C18.75 1.875 18.75 1.875 23 4 C23 4.66 23 5.32 23 6 C24.7634375 5.938125 24.7634375 5.938125 26.5625 5.875 C30.72409674 5.86016365 34.06487667 6.68829222 38 8 C37.67 8.99 37.34 9.98 37 11 C18.685 10.505 18.685 10.505 0 10 C0 6.7 0 3.4 0 0 Z " fill="#59806B" transform="translate(193,265)"/>
<path d="M0 0 C0 0.66 0 1.32 0 2 C-1.66666667 2.66666667 -3.33333333 3.33333333 -5 4 C-5.845625 4.37125 -6.69125 4.7425 -7.5625 5.125 C-10 6 -10 6 -14 6 C-14.12117188 6.56847656 -14.24234375 7.13695312 -14.3671875 7.72265625 C-14.61855469 8.88087891 -14.61855469 8.88087891 -14.875 10.0625 C-15.03742188 10.81660156 -15.19984375 11.57070312 -15.3671875 12.34765625 C-16 15 -16 15 -17.05859375 18.28125 C-18.11925233 22.47107145 -18.26090184 26.14542401 -18.1875 30.4375 C-18.18685547 31.14970703 -18.18621094 31.86191406 -18.18554688 32.59570312 C-18.14571719 37.46820092 -17.67986084 42.17570746 -17 47 C-17.99 47 -18.98 47 -20 47 C-24.62878955 31.46049221 -22.88461663 18.81096973 -18.265625 3.578125 C-16.19952374 1.00187528 -13.80654105 1.13607464 -10.625 0.75 C-9.48289062 0.60046875 -8.34078125 0.4509375 -7.1640625 0.296875 C-4 0 -4 0 0 0 Z " fill="#E49A78" transform="translate(311,237)"/>
<path d="M0 0 C0.33 0.66 0.66 1.32 1 2 C0.34 2 -0.32 2 -1 2 C-1.433125 3.1446875 -1.433125 3.1446875 -1.875 4.3125 C-3 7 -3 7 -5 10 C-5.16699232 13.12521833 -5.16699232 13.12521833 -5 16 C-5.99 16.33 -6.98 16.66 -8 17 C-8.84542959 18.86673363 -8.84542959 18.86673363 -9.375 21.125 C-10.33818541 24.34738469 -11.28324525 26.61161741 -13.4375 29.1875 C-19.41925652 37.03628962 -20.44564339 47.60478947 -20.43359375 57.16015625 C-19.94047276 60.38987659 -18.73660776 62.26841273 -17 65 C-17 65.99 -17 66.98 -17 68 C-16.38125 68.268125 -15.7625 68.53625 -15.125 68.8125 C-13 70 -13 70 -11 73 C-12.485 73.495 -12.485 73.495 -14 74 C-14.0825 73.38125 -14.165 72.7625 -14.25 72.125 C-14.4975 71.42375 -14.745 70.7225 -15 70 C-15.598125 69.731875 -16.19625 69.46375 -16.8125 69.1875 C-20.1706996 67.36447736 -21.62239244 64.44503035 -23 61 C-23.44609833 57.99383243 -23.38502114 55.09268602 -23.25 52.0625 C-23.23195312 51.28326172 -23.21390625 50.50402344 -23.1953125 49.70117188 C-23.14866383 47.80023869 -23.07693829 45.89994831 -23 44 C-22.34 44 -21.68 44 -21 44 C-21 41.36 -21 38.72 -21 36 C-20.01 35.505 -20.01 35.505 -19 35 C-18.31375576 33.38732603 -17.63508429 31.77106427 -16.9921875 30.140625 C-15.84867339 27.67351581 -14.39448385 25.56627987 -12.875 23.3125 C-9.79885833 18.38006594 -9.29202435 14.21757471 -9.203125 8.46875 C-9 6 -9 6 -7 4 C-5.68 4 -4.36 4 -3 4 C-2.67 3.01 -2.34 2.02 -2 1 C-1.34 0.67 -0.68 0.34 0 0 Z " fill="#E0D1C4" transform="translate(193,188)"/>
<path d="M0 0 C0.5983667 0.05534912 1.1967334 0.11069824 1.81323242 0.16772461 C12.87013567 1.18814946 23.92410605 2.2058793 35 3 C35 3.33 35 3.66 35 4 C6.95 4 -21.1 4 -50 4 C-50.33 3.34 -50.66 2.68 -51 2 C-34.17 2 -17.34 2 0 2 C0 1.34 0 0.68 0 0 Z " fill="#D9DCDB" transform="translate(218,333)"/>
<path d="M0 0 C0.99 0.33 1.98 0.66 3 1 C2.979375 1.804375 2.95875 2.60875 2.9375 3.4375 C2.70366379 5.93354885 2.70366379 5.93354885 4 7 C4.04063832 8.66617115 4.042721 10.33388095 4 12 C3.34 12 2.68 12 2 12 C1.773125 12.763125 1.54625 13.52625 1.3125 14.3125 C-0.27776454 17.56875596 -1.8683594 18.31373199 -5 20 C-5.33 20.66 -5.66 21.32 -6 22 C-14.83881304 24.94627101 -24.76147949 22.8159631 -32.984375 19.03515625 C-35 18 -35 18 -38 16 C-38 15.34 -38 14.68 -38 14 C-37.32195312 14.28746094 -36.64390625 14.57492187 -35.9453125 14.87109375 C-26.63410002 18.43998023 -16.96029789 20.5858504 -7 21 C-7 20.34 -7 19.68 -7 19 C-8.98 18.34 -10.96 17.68 -13 17 C-13 16.67 -13 16.34 -13 16 C-9.04 16 -5.08 16 -1 16 C-1 15.01 -1 14.02 -1 13 C-3.97 12.67 -6.94 12.34 -10 12 C-10 11.67 -10 11.34 -10 11 C-5.71 11 -1.42 11 3 11 C3 10.01 3 9.02 3 8 C0.36 7.67 -2.28 7.34 -5 7 C-5 6.34 -5 5.68 -5 5 C-5.99 4.67 -6.98 4.34 -8 4 C-3.545 3.505 -3.545 3.505 1 3 C0.505 1.515 0.505 1.515 0 0 Z " fill="#AB9877" transform="translate(277,260)"/>
<path d="M0 0 C4 4.625 4 4.625 4 8 C4.66 8 5.32 8 6 8 C7.66666667 9.66666667 9.33333333 11.33333333 11 13 C14.0108157 15.05616682 16.49311253 16.15350992 20 17 C20.66 17.66 21.32 18.32 22 19 C21.625 22.625 21.625 22.625 21 26 C19.02 25.67 17.04 25.34 15 25 C15 24.34 15 23.68 15 23 C14.01 23 13.02 23 12 23 C12 22.34 12 21.68 12 21 C11.01 20.67 10.02 20.34 9 20 C6.45456448 17.85818852 5.00426463 15.47501231 3.4375 12.5625 C3.02371094 11.80066406 2.60992187 11.03882813 2.18359375 10.25390625 C1.79300781 9.51011719 1.40242188 8.76632813 1 8 C0.61199219 7.29230469 0.22398437 6.58460938 -0.17578125 5.85546875 C-1.21514592 3.51566676 -0.84405067 2.36334188 0 0 Z " fill="#ED946E" transform="translate(274,136)"/>
<path d="M0 0 C1.4221582 0.0009668 1.4221582 0.0009668 2.87304688 0.00195312 C9.79662135 0.04662135 9.79662135 0.04662135 10.9375 1.1875 C12.78641946 1.42113881 14.64238031 1.60053635 16.5 1.75 C18.01787109 1.87568359 18.01787109 1.87568359 19.56640625 2.00390625 C20.74009766 2.09478516 20.74009766 2.09478516 21.9375 2.1875 C21.9375 2.8475 21.9375 3.5075 21.9375 4.1875 C20.80570312 4.16429687 19.67390625 4.14109375 18.5078125 4.1171875 C17.02604825 4.09843099 15.54427688 4.08023066 14.0625 4.0625 C12.94294922 4.03736328 12.94294922 4.03736328 11.80078125 4.01171875 C9.84555539 3.9941041 7.89007979 4.08429811 5.9375 4.1875 C5.2775 4.8475 4.6175 5.5075 3.9375 6.1875 C-1.22335898 6.48611574 -6.26196804 5.94748265 -11.375 5.3125 C-12.08978516 5.23386719 -12.80457031 5.15523438 -13.54101562 5.07421875 C-18.82295583 4.42704417 -18.82295583 4.42704417 -21.0625 2.1875 C-13.96045243 0.48597781 -7.29071931 -0.09775841 0 0 Z " fill="#54806A" transform="translate(291.0625,283.8125)"/>
<path d="M0 0 C0.33 0 0.66 0 1 0 C1.02703381 1.93742341 1.04641125 3.87495479 1.0625 5.8125 C1.07410156 6.89144531 1.08570313 7.97039062 1.09765625 9.08203125 C1 12 1 12 0 15 C-0.27059842 18.25577149 -0.44486289 21.51129183 -0.62109375 24.7734375 C-0.98464985 27.86928633 -1.69840153 30.18601789 -3 33 C-5.31 33 -7.62 33 -10 33 C-9.66226562 31.85402344 -9.32453125 30.70804688 -8.9765625 29.52734375 C-8.52602697 27.99740016 -8.07550696 26.467452 -7.625 24.9375 C-7.40328125 24.18533203 -7.1815625 23.43316406 -6.953125 22.65820312 C-5.6146171 18.11121305 -4.29575475 13.55936135 -3 9 C-2.34 9 -1.68 9 -1 9 C-1.020625 7.88625 -1.04125 6.7725 -1.0625 5.625 C-1 2 -1 2 0 0 Z " fill="#52806C" transform="translate(305,204)"/>
<path d="M0 0 C-1.68558692 1.68558692 -3.82593897 1.18861937 -6.13671875 1.24609375 C-7.18923828 1.27896484 -8.24175781 1.31183594 -9.32617188 1.34570312 C-11.54743656 1.40636521 -13.76879438 1.46371707 -15.99023438 1.51757812 C-22.83833273 1.73848452 -28.16716481 2.11144321 -34 6 C-36.60375977 6.24291992 -36.60375977 6.24291992 -39.69140625 6.23046875 C-40.80064453 6.22853516 -41.90988281 6.22660156 -43.05273438 6.22460938 C-44.79006836 6.20624023 -44.79006836 6.20624023 -46.5625 6.1875 C-48.30563477 6.1865332 -48.30563477 6.1865332 -50.08398438 6.18554688 C-58.7193287 6.14033565 -58.7193287 6.14033565 -61 5 C-62.3389535 4.87311796 -63.68312475 4.79830001 -65.02734375 4.75390625 C-65.81947266 4.72103516 -66.61160156 4.68816406 -67.42773438 4.65429688 C-69.09687197 4.59324671 -70.76615069 4.53593653 -72.43554688 4.48242188 C-73.22896484 4.44826172 -74.02238281 4.41410156 -74.83984375 4.37890625 C-75.92833618 4.34132202 -75.92833618 4.34132202 -77.03881836 4.30297852 C-79 4 -79 4 -82 2 C-80.03546875 2.10828125 -80.03546875 2.10828125 -78.03125 2.21875 C-67.67090188 2.75974031 -57.311869 3.14153489 -46.9375 3.25 C-45.41382813 3.2819043 -45.41382813 3.2819043 -43.859375 3.31445312 C-42.90417969 3.31896484 -41.94898438 3.32347656 -40.96484375 3.328125 C-40.1255835 3.3374707 -39.28632324 3.34681641 -38.42163086 3.35644531 C-35.88257734 3.14732955 -35.88257734 3.14732955 -33.61230469 1.51367188 C-30.33454579 -0.38559029 -28.0103363 -0.44247613 -24.23828125 -0.546875 C-22.95501953 -0.58683594 -21.67175781 -0.62679688 -20.34960938 -0.66796875 C-19.68727295 -0.68134277 -19.02493652 -0.6947168 -18.3425293 -0.70849609 C-16.3077199 -0.75009773 -14.27437885 -0.81272731 -12.24023438 -0.87890625 C-2.29871148 -1.14935574 -2.29871148 -1.14935574 0 0 Z " fill="#EECEB6" transform="translate(380,453)"/>
<path d="M0 0 C0.99 0.495 0.99 0.495 2 1 C2 1.66 2 2.32 2 3 C2.66 3 3.32 3 4 3 C5.02649277 4.12525155 5.99587696 5.30282645 6.9375 6.5 C12.11029229 12.60737241 18.72443967 17.62632097 26 21 C25.01 22.98 24.02 24.96 23 27 C19.63983107 25.87994369 18.30935087 24.62788203 16 22 C16 21.34 16 20.68 16 20 C15.34 20 14.68 20 14 20 C10.48976005 16.59351099 7.38174916 12.74603357 4.75 8.625 C3.10416667 5.79166667 3.10416667 5.79166667 0 4 C0 2.68 0 1.36 0 0 Z " fill="#DF9775" transform="translate(188,202)"/>
<path d="M0 0 C0.515625 0.268125 1.03125 0.53625 1.5625 0.8125 C2.366875 1.204375 3.17125 1.59625 4 2 C5.5778125 2.7734375 5.5778125 2.7734375 7.1875 3.5625 C11.33917993 5.34952745 15.52546187 5.705756 20 6 C20 6.66 20 7.32 20 8 C22.97 8 25.94 8 29 8 C29 8.66 29 9.32 29 10 C30.0621875 9.95875 31.124375 9.9175 32.21875 9.875 C38.07803527 9.875 43.74677747 10.98148692 49.5 12 C50.60859375 12.19078125 51.7171875 12.3815625 52.859375 12.578125 C55.57400201 13.04616414 58.28742095 13.52025883 61 14 C61 14.66 61 15.32 61 16 C62.65 16.33 64.3 16.66 66 17 C66.495 18.485 66.495 18.485 67 20 C62 18 62 18 59.78442383 17.01513672 C56.4243483 15.79013067 53.16536954 15.21920317 49.63671875 14.6328125 C48.92707474 14.51195282 48.21743073 14.39109314 47.48628235 14.26657104 C44.4785059 13.75433153 41.46870655 13.25455929 38.45874023 12.75537109 C30.34672947 11.40262275 22.27384696 9.95368828 14.26953125 8.0546875 C12.38584839 7.60971924 12.38584839 7.60971924 10.46411133 7.15576172 C6.29339742 5.76425001 2.04896609 4.09793218 0 0 Z " fill="#E1BA9D" transform="translate(179,257)"/>
<path d="M0 0 C15.18 0 30.36 0 46 0 C45.67 2.31 45.34 4.62 45 7 C43.68 7.33 42.36 7.66 41 8 C41 6.02 41 4.04 41 2 C27.47 2 13.94 2 0 2 C0 1.34 0 0.68 0 0 Z " fill="#C5C5C4" transform="translate(105,232)"/>
<path d="M0 0 C0.33 0 0.66 0 1 0 C1 2.31 1 4.62 1 7 C1.99 6.34 2.98 5.68 4 5 C6.6875 4.875 6.6875 4.875 9 5 C6.98928293 6.57984913 5.11803264 7.94266986 2.8125 9.0625 C0.82107843 9.86702161 0.82107843 9.86702161 0 12 C-0.07033769 13.87379605 -0.0843022 15.75001102 -0.0625 17.625 C-0.05347656 18.62789062 -0.04445313 19.63078125 -0.03515625 20.6640625 C-0.02355469 21.43492188 -0.01195312 22.20578125 0 23 C1.32 23.66 2.64 24.32 4 25 C4 25.66 4 26.32 4 27 C4.66 27 5.32 27 6 27 C6.36482375 30.10301129 6.71500944 33.20750373 7.0625 36.3125 C7.16626953 37.19357422 7.27003906 38.07464844 7.37695312 38.98242188 C7.47041016 39.82998047 7.56386719 40.67753906 7.66015625 41.55078125 C7.74918213 42.33106689 7.83820801 43.11135254 7.92993164 43.9152832 C8 46 8 46 7 49 C5.3050612 43.60242705 3.76820169 38.69938359 4.125 33 C4.2758668 30.86291123 4.2758668 30.86291123 4 29 C1.69694835 27.10141725 1.69694835 27.10141725 -1 26 C-2.96172241 22.99069113 -3.27165945 20.55214926 -3.25 17 C-3.25515625 16.154375 -3.2603125 15.30875 -3.265625 14.4375 C-2.98155541 11.83074373 -2.20540691 10.30039487 -1 8 C-0.55499715 5.87406942 -0.55499715 5.87406942 -0.375 3.75 C-0.25125 2.5125 -0.1275 1.275 0 0 Z " fill="#EAC0A7" transform="translate(266,88)"/>
<path d="M0 0 C2 3 2 3 2 6 C2.66 6 3.32 6 4 6 C4.33 8.64 4.66 11.28 5 14 C-4.405 14.99 -4.405 14.99 -14 16 C-9 12 -9 12 -6.9375 11.1875 C-3.0485798 8.80396826 -1.40120077 4.20360232 0 0 Z " fill="#648C76" transform="translate(286,270)"/>
<path d="M0 0 C2.87677997 1.19459507 5.37745392 2.66309428 7.96875 4.390625 C7.96875 5.050625 7.96875 5.710625 7.96875 6.390625 C8.84273438 6.82181641 8.84273438 6.82181641 9.734375 7.26171875 C11.11203477 7.95777412 12.47951861 8.67498147 13.828125 9.42578125 C21.37986462 13.52930918 27.59187519 13.73690845 35.96875 12.390625 C35.96875 13.050625 35.96875 13.710625 35.96875 14.390625 C29.57874228 16.52062757 22.21930363 16.19322927 16.02734375 13.515625 C11.77105454 11.18960737 7.66605372 8.53484845 3.96875 5.390625 C3.96875 4.730625 3.96875 4.070625 3.96875 3.390625 C1.97008314 3.04938919 -0.03027542 2.7180572 -2.03125 2.390625 C-3.206875 2.143125 -4.3825 1.895625 -5.59375 1.640625 C-9.59157772 1.34987389 -10.88219993 2.02883745 -14.03125 4.390625 C-15.02125 5.050625 -16.01125 5.710625 -17.03125 6.390625 C-16.73613433 3.53784017 -16.21892059 2.55483677 -14.03125 0.640625 C-9.3867219 -1.29459504 -4.84306837 -1.45292051 0 0 Z " fill="#8C614C" transform="translate(308.03125,72.609375)"/>
<path d="M0 0 C2 2 2 2 2 6 C2.7425 6.268125 3.485 6.53625 4.25 6.8125 C7 8 7 8 9 9.5625 C11.32462791 11.23332631 13.19109059 11.60987369 16 12 C16 12.66 16 13.32 16 14 C18.97 14.33 21.94 14.66 25 15 C24.34 15.66 23.68 16.32 23 17 C17.624022 16.73549924 13.47056242 15.02967839 8.8125 12.5 C3.63220969 9.66758241 3.63220969 9.66758241 -2 8 C-2 7.34 -2 6.68 -2 6 C-4.97 5.505 -4.97 5.505 -8 5 C-7.34 3.68 -6.68 2.36 -6 1 C-6 1.66 -6 2.32 -6 3 C-5.01 3 -4.02 3 -3 3 C-3 2.34 -3 1.68 -3 1 C-2.01 0.67 -1.02 0.34 0 0 Z " fill="#668068" transform="translate(214,233)"/>
<path d="M0 0 C2.31 0.33 4.62 0.66 7 1 C6.01 1.495 6.01 1.495 5 2 C4.731875 3.093125 4.46375 4.18625 4.1875 5.3125 C2.84390094 9.48472866 1.60768179 10.65500684 -2 13 C-4.22890995 14.11445498 -5.53055106 14.16480286 -8 14.1875 C-9.051875 14.20876953 -9.051875 14.20876953 -10.125 14.23046875 C-12 14 -12 14 -14 12 C-8.555 11.505 -8.555 11.505 -3 11 C-3 10.34 -3 9.68 -3 9 C-3.99 8.67 -4.98 8.34 -6 8 C-4.7260411 5.96166576 -3.38938077 3.96147874 -2 2 C-1.34 2 -0.68 2 0 2 C0 1.34 0 0.68 0 0 Z " fill="#E5B190" transform="translate(290,161)"/>
<path d="M0 0 C-5.14086661 3.42724441 -10.00797796 3.1015597 -16 3 C-16.12246094 3.50015625 -16.24492187 4.0003125 -16.37109375 4.515625 C-16.88155567 6.5321081 -17.42254474 8.54084589 -17.97265625 10.546875 C-20.61337045 20.55499011 -21.5004654 29.67095029 -21 40 C-25.40173642 33.39739538 -23.75590502 26.49208105 -22.5625 19.0625 C-22.34110352 17.6074707 -22.34110352 17.6074707 -22.11523438 16.12304688 C-21.75241534 13.74716737 -21.38047493 11.37310477 -21 9 C-20.34 9 -19.68 9 -19 9 C-19.020625 7.865625 -19.04125 6.73125 -19.0625 5.5625 C-19 2 -19 2 -18 1 C-16.10985552 0.76189471 -14.21188854 0.58468509 -12.3125 0.4375 C-11.27738281 0.35371094 -10.24226563 0.26992187 -9.17578125 0.18359375 C-6.10862687 0.00627978 -3.07144125 -0.03223402 0 0 Z " fill="#7E8A70" transform="translate(310,236)"/>
<path d="M0 0 C0.495 1.485 0.495 1.485 1 3 C-1.76276177 2.47731534 -4.3260876 1.89130413 -7 1 C-9.57409789 0.90264813 -12.1141811 0.85854956 -14.6875 0.875 C-15.76354492 0.87790039 -15.76354492 0.87790039 -16.86132812 0.88085938 C-21.66180917 0.92010036 -26.26955992 1.21159332 -31 2 C-31.33 1.01 -31.66 0.02 -32 -1 C-9.07659083 -5.02417214 -9.07659083 -5.02417214 0 0 Z " fill="#588571" transform="translate(279,243)"/>
<path d="M0 0 C0.78375 0.04125 1.5675 0.0825 2.375 0.125 C-0.15229347 6.94869237 -4.14499251 13.27730106 -9.625 18.125 C-10.615 17.795 -11.605 17.465 -12.625 17.125 C-10.975 12.835 -9.325 8.545 -7.625 4.125 C-6.635 5.61 -6.635 5.61 -5.625 7.125 C-5.439375 5.949375 -5.439375 5.949375 -5.25 4.75 C-4.40872422 1.21664174 -3.69833563 0.17611122 0 0 Z " fill="#8A614A" transform="translate(348.625,107.875)"/>
<path d="M0 0 C-0.33 1.65 -0.66 3.3 -1 5 C-3.31 5.66 -5.62 6.32 -8 7 C-8 6.01 -8 5.02 -8 4 C-12.4025657 3.71898517 -15.24607171 4.00621136 -19.3125 5.75 C-23.37470778 7.26982601 -25.56575869 6.80764796 -29.5625 5.1875 C-31.05481485 4.48563502 -32.53927118 3.7654341 -34 3 C-34 2.34 -34 1.68 -34 1 C-31.44687978 1.42552004 -29.35673005 1.79678083 -27.09375 3.0859375 C-24.52382961 4.20788035 -23.42869667 3.96303436 -20.75 3.25 C-19.96238281 3.05148438 -19.17476562 2.85296875 -18.36328125 2.6484375 C-16.88025571 2.24152471 -15.39830114 1.83066636 -13.91796875 1.4140625 C-9.12981449 0.11077791 -4.96919645 -0.1774713 0 0 Z " fill="#DCAE8F" transform="translate(264,248)"/>
<path d="M0 0 C10.89 0.99 10.89 0.99 22 2 C22 2.33 22 2.66 22 3 C-2.09 3 -26.18 3 -51 3 C-51 2.67 -51 2.34 -51 2 C-34.17 2 -17.34 2 0 2 C0 1.34 0 0.68 0 0 Z " fill="#BFBFBF" transform="translate(218,333)"/>
<path d="M0 0 C0 3.10242392 -0.399264 4.06930855 -1.75 6.75 C-6.0834679 16.23719937 -8.88696686 26.52886349 -8 37 C-7.01 37.33 -6.02 37.66 -5 38 C-5 39.32 -5 40.64 -5 42 C-4.34 42 -3.68 42 -3 42 C-3.33 42.66 -3.66 43.32 -4 44 C-6.86003411 42.56998295 -7.83609811 40.36487043 -9.16015625 37.546875 C-11.806916 29.52042219 -10.1784674 21.43509948 -7.8125 13.5625 C-7.61664307 12.90056641 -7.42078613 12.23863281 -7.21899414 11.55664062 C-5.62262582 6.72531666 -3.38205145 3.6776257 0 0 Z " fill="#EAB79D" transform="translate(182,213)"/>
<path d="M0 0 C0.33 0 0.66 0 1 0 C1.45787917 5.20938307 1.90290084 10.41965737 2.33666992 15.63110352 C2.48558923 17.39929891 2.6378576 19.16721588 2.79370117 20.93481445 C4.449906 39.77081595 4.449906 39.77081595 3 49 C2.67 49 2.34 49 2 49 C0.71924776 32.64315894 -0.3439433 16.4137384 0 0 Z " fill="#8CA698" transform="translate(292,382)"/>
<path d="M0 0 C2.625 -0.1875 2.625 -0.1875 5 0 C5 0.66 5 1.32 5 2 C2.98828125 3.4375 2.98828125 3.4375 0.3125 5 C-0.55761719 5.515625 -1.42773438 6.03125 -2.32421875 6.5625 C-7.02867135 9.08985556 -10.43097859 10.25467521 -15.8125 10.125 C-17.27623047 10.09792969 -17.27623047 10.09792969 -18.76953125 10.0703125 C-19.50558594 10.04710937 -20.24164063 10.02390625 -21 10 C-21.33 10.66 -21.66 11.32 -22 12 C-22.66 11.67 -23.32 11.34 -24 11 C-24 10.01 -24 9.02 -24 8 C-22.99839844 7.89042969 -21.99679687 7.78085938 -20.96484375 7.66796875 C-11.10135533 6.65672766 -11.10135533 6.65672766 -2 3 C-1.34 2.01 -0.68 1.02 0 0 Z " fill="#ECB89C" transform="translate(318,146)"/>
<path d="M0 0 C-0.93851807 0.12846313 -0.93851807 0.12846313 -1.89599609 0.25952148 C-4.72284647 0.64853518 -7.54891732 1.0429495 -10.375 1.4375 C-11.35984375 1.57220703 -12.3446875 1.70691406 -13.359375 1.84570312 C-14.77089844 2.04389648 -14.77089844 2.04389648 -16.2109375 2.24609375 C-17.08024902 2.36654053 -17.94956055 2.4869873 -18.84521484 2.61108398 C-21.04034561 2.90299163 -21.04034561 2.90299163 -23 4 C-25.3329866 4.04022391 -27.66706666 4.04320247 -30 4 C-23.44406329 -2.55593671 -7.69846124 -5.13230749 0 0 Z " fill="#7B967D" transform="translate(267,246)"/>
<path d="M0 0 C8.25 0 16.5 0 25 0 C25 1.32 25 2.64 25 4 C25.86625 4.433125 25.86625 4.433125 26.75 4.875 C28.83333333 5.91666667 30.91666667 6.95833333 33 8 C32.67 8.66 32.34 9.32 32 10 C28.33535945 9.5047783 26.29167646 8.9791794 24 6 C23.67 5.01 23.34 4.02 23 3 C16.4 2.67 9.8 2.34 3 2 C2.67 3.98 2.34 5.96 2 8 C1.34 7.67 0.68 7.34 0 7 C0 4.69 0 2.38 0 0 Z " fill="#D7AA8C" transform="translate(328,429)"/>
<path d="M0 0 C1.41377341 2.63904371 2.37240135 5.07120629 3 8 C4.670625 7.9690625 4.670625 7.9690625 6.375 7.9375 C10 8 10 8 12 9 C12 9.66 12 10.32 12 11 C5.4 10.01 -1.2 9.02 -8 8 C-7.67 7.01 -7.34 6.02 -7 5 C-5.02 4.67 -3.04 4.34 -1 4 C-0.67 2.68 -0.34 1.36 0 0 Z " fill="#B79878" transform="translate(264,249)"/>
<path d="M0 0 C0.66 0 1.32 0 2 0 C2.19148936 21.53191489 2.19148936 21.53191489 1 32 C-1.51245229 28.19656432 -1.26461961 24.32512383 -1.1875 19.9375 C-1.18105469 19.1854126 -1.17460937 18.4333252 -1.16796875 17.65844727 C-1.08698091 11.74064057 -0.71087278 5.87739457 0 0 Z " fill="#819E8E" transform="translate(313,205)"/>
<path d="M0 0 C-3.00617269 3.00617269 -5.82381598 2.59585316 -10 3 C-10.13277344 3.60328125 -10.26554687 4.2065625 -10.40234375 4.828125 C-10.57894531 5.62734375 -10.75554687 6.4265625 -10.9375 7.25 C-11.11152344 8.03890625 -11.28554688 8.8278125 -11.46484375 9.640625 C-11.947556 11.76878703 -12.46163178 13.88532842 -13 16 C-13.99 15.67 -14.98 15.34 -16 15 C-15.16246851 5.28463476 -15.16246851 5.28463476 -12 1 C-7.85597 -0.91330747 -4.3685388 -1.33890339 0 0 Z " fill="#EB9975" transform="translate(307,240)"/>
<path d="M0 0 C0.66 0 1.32 0 2 0 C1.84015625 0.85464844 1.6803125 1.70929688 1.515625 2.58984375 C1.00669411 5.95572759 0.79819977 9.16039985 0.75 12.5625 C0.72421875 13.65691406 0.6984375 14.75132812 0.671875 15.87890625 C1.03753275 19.35700799 2.11980985 21.10549674 4 24 C4 24.99 4 25.98 4 27 C4.61875 27.268125 5.2375 27.53625 5.875 27.8125 C8 29 8 29 10 32 C8.515 32.495 8.515 32.495 7 33 C6.9175 32.38125 6.835 31.7625 6.75 31.125 C6.5025 30.42375 6.255 29.7225 6 29 C5.401875 28.731875 4.80375 28.46375 4.1875 28.1875 C0.8293004 26.36447736 -0.62239244 23.44503035 -2 20 C-2.44609833 16.99383243 -2.38502114 14.09268602 -2.25 11.0625 C-2.23195312 10.28326172 -2.21390625 9.50402344 -2.1953125 8.70117188 C-2.14866383 6.80023869 -2.07693829 4.89994831 -2 3 C-1.34 3 -0.68 3 0 3 C0 2.01 0 1.02 0 0 Z " fill="#E3D0C6" transform="translate(172,229)"/>
<path d="M0 0 C4.35535069 1.16142685 6.64619703 2.07699505 9 6 C8.34 6.66 7.68 7.32 7 8 C5.88625 7.79375 4.7725 7.5875 3.625 7.375 C-0.04072057 6.56865461 -0.04072057 6.56865461 -2.4375 8.9375 C-3.2109375 9.9584375 -3.2109375 9.9584375 -4 11 C-4.99 10.67 -5.98 10.34 -7 10 C-6.21625 9.278125 -5.4325 8.55625 -4.625 7.8125 C-2.15587562 5.16700959 -1.06739722 3.39626389 0 0 Z " fill="#739179" transform="translate(295,163)"/>
<path d="M0 0 C0.33 1.32 0.66 2.64 1 4 C-7.21274976 5.89178514 -15.72860508 5.27252229 -24 4 C-23.67 3.01 -23.34 2.02 -23 1 C-21.515 1.2475 -21.515 1.2475 -20 1.5 C-13.56444152 2.40824414 -7.40267002 2.17600062 -1 1 C-0.67 0.67 -0.34 0.34 0 0 Z " fill="#6E7D66" transform="translate(352,425)"/>
<path d="M0 0 C0.67546875 0.28875 1.3509375 0.5775 2.046875 0.875 C5.40618292 2.15473635 8.77375655 3.08444617 12.25 4 C12.9087915 4.17370117 13.56758301 4.34740234 14.24633789 4.52636719 C19.14174062 5.8055679 24.04935671 6.95775931 29 8 C29 8.33 29 8.66 29 9 C18.0695043 9.19793654 9.26614304 8.17742869 0 2 C0 1.34 0 0.68 0 0 Z " fill="#9E9474" transform="translate(239,274)"/>
<path d="M0 0 C0.33 0 0.66 0 1 0 C1.06058594 0.77085937 1.12117188 1.54171875 1.18359375 2.3359375 C1.26738281 3.33882813 1.35117187 4.34171875 1.4375 5.375 C1.55931641 6.87160156 1.55931641 6.87160156 1.68359375 8.3984375 C1.84965626 10.97927613 1.84965626 10.97927613 3 13 C5.52733235 13.65555119 5.52733235 13.65555119 8 14 C8 14.66 8 15.32 8 16 C12.95 16 17.9 16 23 16 C23 16.33 23 16.66 23 17 C20.27056463 17.05416741 17.54221436 17.09375225 14.8125 17.125 C13.65911133 17.15013672 13.65911133 17.15013672 12.48242188 17.17578125 C8.21407859 17.21241939 4.85442218 17.0754581 1 15 C-1.84169974 11.48170509 -1.20454956 7.29554071 -1 3 C-0.67 2.01 -0.34 1.02 0 0 Z " fill="#ECB797" transform="translate(296,439)"/>
<path d="M0 0 C0.33 0 0.66 0 1 0 C1.50045898 6.13062246 0.38442544 9.06840864 -3 14 C-3.99 14.66 -4.98 15.32 -6 16 C-6.72965366 18.56282742 -6.72965366 18.56282742 -7 21 C-9 19 -9 19 -9.125 16.375 C-9.08375 15.59125 -9.0425 14.8075 -9 14 C-8.01 14 -7.02 14 -6 14 C-5.7525 13.175 -5.505 12.35 -5.25 11.5 C-3.81295189 7.47626529 -1.97645485 3.78020976 0 0 Z " fill="#EAB99B" transform="translate(272,138)"/>
<path d="M0 0 C2.64 0 5.28 0 8 0 C8.25523437 1.08667969 8.25523437 1.08667969 8.515625 2.1953125 C9.94675545 7.90460951 11.35804077 12.35336236 15 17 C13.68 16.67 12.36 16.34 11 16 C11 15.01 11 14.02 11 13 C10.34 13 9.68 13 9 13 C8.7525 12.05125 8.505 11.1025 8.25 10.125 C7.3142923 6.91306809 7.3142923 6.91306809 4.875 5.625 C4.25625 5.41875 3.6375 5.2125 3 5 C3 4.34 3 3.68 3 3 C2.34 2.67 1.68 2.34 1 2 C0.67 1.34 0.34 0.68 0 0 Z " fill="#7A9176" transform="translate(255,152)"/>
<path d="M0 0 C8.25 0 16.5 0 25 0 C24.67 0.66 24.34 1.32 24 2 C21.53783652 2.26136355 19.15650535 2.42147223 16.6875 2.5 C12.32118308 2.64125098 8.90950794 2.92447176 5 5 C4.01 4.67 3.02 4.34 2 4 C1.67 4.66 1.34 5.32 1 6 C0.67 4.02 0.34 2.04 0 0 Z " fill="#E5B594" transform="translate(296,432)"/>
<path d="M0 0 C0.33 0 0.66 0 1 0 C1.20638953 23.78877436 1.20638953 23.78877436 0 34 C-4.02723486 26.88369295 -1.80477669 17.75144661 -1 9.9375 C-0.90460938 8.97650391 -0.80921875 8.01550781 -0.7109375 7.02539062 C-0.4778808 4.68317077 -0.24083651 2.34143045 0 0 Z " fill="#8FA898" transform="translate(363,316)"/>
<path d="M0 0 C0.33 0.66 0.66 1.32 1 2 C0.34 2 -0.32 2 -1 2 C-1.28875 2.763125 -1.5775 3.52625 -1.875 4.3125 C-3 7 -3 7 -5 10 C-5.70164642 11.98799818 -6.37372872 13.98698517 -7 16 C-7.66 16 -8.32 16 -9 16 C-9.05395478 14.37536158 -9.09277195 12.75021459 -9.125 11.125 C-9.14820313 10.22007812 -9.17140625 9.31515625 -9.1953125 8.3828125 C-9 6 -9 6 -7 4 C-5.68 4 -4.36 4 -3 4 C-2.67 3.01 -2.34 2.02 -2 1 C-1.34 0.67 -0.68 0.34 0 0 Z " fill="#D0D5D2" transform="translate(193,188)"/>
<path d="M0 0 C0 0.33 0 0.66 0 1 C-1.05058594 1.19335938 -2.10117187 1.38671875 -3.18359375 1.5859375 C-4.19824707 1.77422119 -4.19824707 1.77422119 -5.23339844 1.96630859 C-6.70634378 2.23942673 -8.1796554 2.51057665 -9.65332031 2.77978516 C-13.56943126 3.50483009 -17.40173981 4.34017373 -21.25 5.375 C-25 6 -25 6 -27.5625 4.625 C-28.036875 4.08875 -28.51125 3.5525 -29 3 C-27.0509375 2.814375 -27.0509375 2.814375 -25.0625 2.625 C-21.82880139 2.27691076 -18.77460497 1.74056383 -15.625 0.9375 C-10.42568038 -0.30481531 -5.31570007 -0.17884598 0 0 Z " fill="#949574" transform="translate(264,247)"/>
<path d="M0 0 C0 0.66 0 1.32 0 2 C-5.28 2.66 -10.56 3.32 -16 4 C-16.33 5.65 -16.66 7.3 -17 9 C-17.91157699 11.70639177 -18.96214971 14.33768839 -20 17 C-21.43410153 13.21180727 -20.51009497 10.93478721 -19.0625 7.25 C-18.49208984 5.77273437 -18.49208984 5.77273437 -17.91015625 4.265625 C-17.60980469 3.51796875 -17.30945313 2.7703125 -17 2 C-14.91727106 1.66291092 -12.83378963 1.33046884 -10.75 1 C-9.58984375 0.814375 -8.4296875 0.62875 -7.234375 0.4375 C-4 0 -4 0 0 0 Z " fill="#CC9E82" transform="translate(311,237)"/>
<path d="M0 0 C0.78375 0.04125 1.5675 0.0825 2.375 0.125 C1.06052225 3.68925699 -0.50905795 6.72224634 -2.625 9.875 C-3.140625 10.65359375 -3.65625 11.4321875 -4.1875 12.234375 C-5.625 14.125 -5.625 14.125 -7.625 15.125 C-7.375 12.75 -7.375 12.75 -6.625 10.125 C-4.5625 8.8125 -4.5625 8.8125 -2.625 8.125 C-3.285 6.145 -3.945 4.165 -4.625 2.125 C-2.625 0.125 -2.625 0.125 0 0 Z " fill="#977D6E" transform="translate(348.625,107.875)"/>
<path d="M0 0 C4.67109635 1.64119601 4.67109635 1.64119601 6.375 3.5 C8.99813304 5.92135357 11.52640797 6.32769187 15 7 C18.04033293 6.87432646 21.00052944 6.50331252 24 6 C24 6.66 24 7.32 24 8 C20.01094893 9.99452554 15.05689185 9.49775319 10.8046875 8.46875 C6.596645 6.99673513 3.24063538 5.13936552 0 2 C0 1.34 0 0.68 0 0 Z " fill="#8C624C" transform="translate(320,65)"/>
<path d="M0 0 C3.27148931 0.47475674 6.54206119 0.95556419 9.8125 1.4375 C10.74126953 1.57220703 11.67003906 1.70691406 12.62695312 1.84570312 C13.51962891 1.97783203 14.41230469 2.10996094 15.33203125 2.24609375 C16.15421143 2.36654053 16.9763916 2.4869873 17.82348633 2.61108398 C20 3 20 3 23 4 C23 4.99 23 5.98 23 7 C20.69 7 18.38 7 16 7 C16.33 6.01 16.66 5.02 17 4 C16.443125 3.93941406 15.88625 3.87882812 15.3125 3.81640625 C10.20206543 3.25529435 5.10000447 2.64909148 0 2 C0 1.34 0 0.68 0 0 Z " fill="#7D8469" transform="translate(216,269)"/>
<path d="M0 0 C1.32 0.33 2.64 0.66 4 1 C4 1.99 4 2.98 4 4 C4.66 3.67 5.32 3.34 6 3 C5.979375 4.051875 5.95875 5.10375 5.9375 6.1875 C5.98896802 9.32704904 6.26517187 11.96883396 7 15 C2.97487148 11.66885915 1.33870186 7.93899852 0 3 C0 2.01 0 1.02 0 0 Z " fill="#6E9082" transform="translate(193,309)"/>
<path d="M0 0 C-3.33968874 3.86979806 -7.11504456 4.27722598 -12 5 C-15.5625 5.125 -15.5625 5.125 -18 5 C-17 3 -17 3 -14.9609375 2.1484375 C-9.7816702 0.59935151 -5.40543358 -0.35252828 0 0 Z " fill="#84A191" transform="translate(241,153)"/>
<path d="M0 0 C1.32 0 2.64 0 4 0 C5.90919353 2.61630224 6.97544426 4.92633278 8 8 C8.825 8.33 9.65 8.66 10.5 9 C11.325 9.33 12.15 9.66 13 10 C13.33 10.99 13.66 11.98 14 13 C9.53073178 11.63439027 7.76650165 9.68866887 5 6 C4.01 5.34 3.02 4.68 2 4 C2 3.34 2 2.68 2 2 C1.34 2 0.68 2 0 2 C0 1.34 0 0.68 0 0 Z " fill="#7B8E75" transform="translate(190,203)"/>
<path d="M0 0 C8.6274658 -0.20705918 16.59628191 -0.21462689 25 2 C25 2.33 25 2.66 25 3 C16.41922945 3.24911914 8.41826913 2.69882188 0 1 C0 0.67 0 0.34 0 0 Z " fill="#709385" transform="translate(214,332)"/>
<path d="M0 0 C10.55808656 -0.18451025 10.55808656 -0.18451025 15 1 C15 1.66 15 2.32 15 3 C17.475 3.495 17.475 3.495 20 4 C20.33 4.99 20.66 5.98 21 7 C16 5 16 5 13.6875 4 C10.85183256 2.94486793 8.16815446 2.37776099 5.1875 1.875 C4.21167969 1.70742188 3.23585937 1.53984375 2.23046875 1.3671875 C1.49441406 1.24601562 0.75835937 1.12484375 0 1 C0 0.67 0 0.34 0 0 Z " fill="#D8B08D" transform="translate(225,270)"/>
<path d="M0 0 C0.99 0.33 1.98 0.66 3 1 C3 1.99 3 2.98 3 4 C4.32 4.33 5.64 4.66 7 5 C6.67 5.66 6.34 6.32 6 7 C3.4375 7.625 3.4375 7.625 1 8 C0.67 9.65 0.34 11.3 0 13 C-0.33 13 -0.66 13 -1 13 C-0.67 8.71 -0.34 4.42 0 0 Z " fill="#80563D" transform="translate(343,103)"/>
<path d="M0 0 C7.06608191 -0.13794954 13.97360585 0.25194283 21 1 C21 1.66 21 2.32 21 3 C14.93107371 3.25287193 9.83799592 2.69832609 4 1 C4 1.66 4 2.32 4 3 C2.68 2.34 1.36 1.68 0 1 C0 0.67 0 0.34 0 0 Z " fill="#55755D" transform="translate(292,285)"/>
<path d="M0 0 C0.46148437 0.3609375 0.92296875 0.721875 1.3984375 1.09375 C6.99216343 5.07347596 11.23116284 5.62417556 18 5 C17.67 5.66 17.34 6.32 17 7 C11.39011697 8.16066546 7.44212373 8.17684949 2 6 C0 3 0 3 0 0 Z " fill="#789174" transform="translate(270,169)"/>
<path d="M0 0 C1.2518241 2.95885695 1.00203521 3.99475129 -0.1875 7.0625 C-1.9183668 9.86769792 -3.23492634 11.28374738 -6 13 C-6.6875 11.1875 -6.6875 11.1875 -7 9 C-5.8125 7.625 -5.8125 7.625 -4 6 C-2.63988391 4.01811655 -1.30208796 2.02048131 0 0 Z " fill="#957767" transform="translate(366,87)"/>
<path d="M0 0 C7.26 0.66 14.52 1.32 22 2 C22 2.33 22 2.66 22 3 C14.74 3 7.48 3 0 3 C0 2.01 0 1.02 0 0 Z " fill="#B5C4BD" transform="translate(218,333)"/>
<path d="M0 0 C4.455 0.99 4.455 0.99 9 2 C9 2.66 9 3.32 9 4 C11.97 4.33 14.94 4.66 18 5 C17.34 5.66 16.68 6.32 16 7 C10.0520662 6.75722719 5.30068219 4.58423281 0 2 C0 1.34 0 0.68 0 0 Z " fill="#738568" transform="translate(221,243)"/>
<path d="M0 0 C5.15171623 -0.09038099 9.91913204 0.15318867 15 1 C14.67 1.99 14.34 2.98 14 4 C9.38 3.34 4.76 2.68 0 2 C0 1.34 0 0.68 0 0 Z " fill="#E99F7A" transform="translate(192,234)"/>
<path d="M0 0 C3.63 0 7.26 0 11 0 C9.515 1.485 9.515 1.485 8 3 C7.67 3.99 7.34 4.98 7 6 C4.69 6 2.38 6 0 6 C0 5.67 0 5.34 0 5 C1.98 5 3.96 5 6 5 C6 4.34 6 3.68 6 3 C4.02 2.34 2.04 1.68 0 1 C0 0.67 0 0.34 0 0 Z " fill="#B09B7B" transform="translate(264,276)"/>
<path d="M0 0 C-3 2 -3 2 -5.0625 2.9375 C-7.32261104 3.98251298 -7.32261104 3.98251298 -9 7 C-9.66 7 -10.32 7 -11 7 C-11.33 8.32 -11.66 9.64 -12 11 C-12.66 11 -13.32 11 -14 11 C-11.31912447 3.18077969 -8.24100366 -0.17915225 0 0 Z " fill="#E2A483" transform="translate(304,83)"/>
<path d="M0 0 C5.77807024 -0.2358396 10.51324804 0.13216954 16 2 C16 1.34 16 0.68 16 0 C17.32 0.33 18.64 0.66 20 1 C20 1.66 20 2.32 20 3 C12.96517526 3.23668569 6.8165735 2.7879537 0 1 C0 0.67 0 0.34 0 0 Z " fill="#DDB28E" transform="translate(250,278)"/>
<path d="M0 0 C2.1875 -0.3125 2.1875 -0.3125 5 0 C7.8125 2.1875 7.8125 2.1875 10 5 C10.3125 7.8125 10.3125 7.8125 10 10 C9.34 10 8.68 10 8 10 C7.34 7.69 6.68 5.38 6 3 C5.195625 2.87625 4.39125 2.7525 3.5625 2.625 C2.716875 2.41875 1.87125 2.2125 1 2 C0.67 1.34 0.34 0.68 0 0 Z " fill="#ECCEB9" transform="translate(372,442)"/>
<path d="M0 0 C0.66 0 1.32 0 2 0 C1.01 3.96 0.02 7.92 -1 12 C-1.99 12 -2.98 12 -4 12 C-3.53680089 7.27536912 -2.90108294 3.82942948 0 0 Z " fill="#4F816E" transform="translate(294,324)"/>
<path d="M0 0 C-0.66 1.98 -1.32 3.96 -2 6 C-2.33 5.34 -2.66 4.68 -3 4 C-3.556875 4.309375 -4.11375 4.61875 -4.6875 4.9375 C-7.12540433 6.05761821 -9.36224186 6.56037364 -12 7 C-12 6.34 -12 5.68 -12 5 C-10.37750059 4.16180842 -8.75191503 3.3295884 -7.125 2.5 C-6.22007812 2.0359375 -5.31515625 1.571875 -4.3828125 1.09375 C-2 0 -2 0 0 0 Z " fill="#9F8576" transform="translate(288,54)"/>
<path d="M0 0 C3.39417765 3.12621626 5.6062718 5.56541027 7 10 C6.01 10.33 5.02 10.66 4 11 C1.29816264 8.29816264 0.91538654 5.66154617 0 2 C0 1.34 0 0.68 0 0 Z " fill="#88AC97" transform="translate(304,169)"/>
<path d="M0 0 C2.9375 1.25 2.9375 1.25 6 3 C6.875 5.1875 6.875 5.1875 7 7 C5.68 7.33 4.36 7.66 3 8 C0 2.25 0 2.25 0 0 Z " fill="#8E705F" transform="translate(359,80)"/>
<path d="M0 0 C10.55808656 -0.3690205 10.55808656 -0.3690205 15 2 C14.67 2.99 14.34 3.98 14 5 C12.35 5.33 10.7 5.66 9 6 C9 4.35 9 2.7 9 1 C6.03 1 3.06 1 0 1 C0 0.67 0 0.34 0 0 Z " fill="#9A8174" transform="translate(304,47)"/>
<path d="M0 0 C0.33 0 0.66 0 1 0 C1 4.62 1 9.24 1 14 C-2 11 -2 11 -2.36328125 9.0625 C-2.34652344 8.381875 -2.32976562 7.70125 -2.3125 7 C-2.30863281 6.319375 -2.30476563 5.63875 -2.30078125 4.9375 C-2 3 -2 3 0 0 Z " fill="#73927F" transform="translate(356,396)"/>
<path d="M0 0 C0.66 0 1.32 0 2 0 C2.37125 0.886875 2.7425 1.77375 3.125 2.6875 C4.78333696 5.61722863 5.67496841 6.76017002 8.1875 8.75 C9.5796875 9.86375 9.5796875 9.86375 11 11 C11 11.66 11 12.32 11 13 C7.64138305 11.56590028 5.64125061 9.80630679 3.25 7.0625 C2.63640625 6.37285156 2.0228125 5.68320313 1.390625 4.97265625 C0 3 0 3 0 0 Z " fill="#D7B491" transform="translate(265,160)"/>
<path d="M0 0 C0.33 0.66 0.66 1.32 1 2 C2.84971696 3.05021103 2.84971696 3.05021103 5 4 C7 5 7 5 9 6 C8.67 6.66 8.34 7.32 8 8 C5.2980567 7.63487253 3.41609148 7.30130763 1.1875 5.6875 C0 4 0 4 0 0 Z " fill="#E7B59A" transform="translate(352,431)"/>
<path d="M0 0 C0.99 0.33 1.98 0.66 3 1 C2.34 3.97 1.68 6.94 1 10 C0.34 10 -0.32 10 -1 10 C-1 1 -1 1 0 0 Z " fill="#60917C" transform="translate(324,392)"/>
<path d="M0 0 C6.93 0.495 6.93 0.495 14 1 C14 1.66 14 2.32 14 3 C14.66 3.33 15.32 3.66 16 4 C10.49191603 3.40984815 5.35121931 2.43336231 0 1 C0 0.67 0 0.34 0 0 Z " fill="#D1AE8F" transform="translate(194,264)"/>
<path d="M0 0 C4.29 0 8.58 0 13 0 C13 0.99 13 1.98 13 3 C13.66 3.33 14.32 3.66 15 4 C13.68 4 12.36 4 11 4 C11 3.34 11 2.68 11 2 C7.37 1.67 3.74 1.34 0 1 C0 0.67 0 0.34 0 0 Z " fill="#6B907A" transform="translate(256,243)"/>
<path d="M0 0 C0.99 0.495 0.99 0.495 2 1 C2 1.66 2 2.32 2 3 C2.66 3 3.32 3 4 3 C5.37310707 4.29233607 6.71034824 5.62437146 8 7 C7.34 8.32 6.68 9.64 6 11 C5.566875 10.21625 5.13375 9.4325 4.6875 8.625 C3.10779753 5.78301625 3.10779753 5.78301625 0 4 C0 2.68 0 1.36 0 0 Z " fill="#D19E7F" transform="translate(188,202)"/>
<path d="M0 0 C1.53271136 3.06542271 0.53183532 5.69080243 0 9 C0 9.66 0 10.32 0 11 C-1.32 10.34 -2.64 9.68 -4 9 C-3.46930939 5.17902761 -2.50298434 2.93828597 0 0 Z " fill="#799786" transform="translate(191,192)"/>
<path d="M0 0 C0.66 0 1.32 0 2 0 C2.33 1.65 2.66 3.3 3 5 C0 6 0 6 -4 6 C-2.84826645 3.53199953 -1.95216435 1.95216435 0 0 Z " fill="#A58C84" transform="translate(297,46)"/>
<path d="M0 0 C1.98362069 2.91708924 1.9876191 4.12380904 1.625 7.75 C1.41875 8.8225 1.2125 9.895 1 11 C0.34 11 -0.32 11 -1 11 C-1.0270043 9.54176788 -1.04639787 8.08339325 -1.0625 6.625 C-1.07410156 5.81289063 -1.08570313 5.00078125 -1.09765625 4.1640625 C-1 2 -1 2 0 0 Z " fill="#6E8979" transform="translate(328,416)"/>
<path d="M0 0 C1.8125 0.1875 1.8125 0.1875 4 1 C5.75 3.5625 5.75 3.5625 7 6 C5.35 5.67 3.7 5.34 2 5 C2 4.34 2 3.68 2 3 C1.34 3 0.68 3 0 3 C0 2.01 0 1.02 0 0 Z " fill="#7D9B8D" transform="translate(353,298)"/>
<path d="M0 0 C0 0.99 0 1.98 0 3 C-3.3 3 -6.6 3 -10 3 C-5.78492722 -0.16130459 -4.93928888 -0.3367697 0 0 Z " fill="#E6B594" transform="translate(276,273)"/>
<path d="M0 0 C1.65 0 3.3 0 5 0 C4.67 1.65 4.34 3.3 4 5 C2.68 5.33 1.36 5.66 0 6 C0 4.02 0 2.04 0 0 Z " fill="#D7D7D7" transform="translate(146,234)"/>
<path d="M0 0 C0.66 0 1.32 0 2 0 C2 2.97 2 5.94 2 9 C2.99 9.33 3.98 9.66 5 10 C5 10.66 5 11.32 5 12 C4.01 12 3.02 12 2 12 C0.86235649 7.73383684 0 4.43513689 0 0 Z " fill="#D49D7F" transform="translate(289,272)"/>
<path d="M0 0 C1.32 1.32 2.64 2.64 4 4 C3.34 4.66 2.68 5.32 2 6 C-0.625 5.625 -0.625 5.625 -3 5 C-3 3 -3 3 -1.5 1.375 C-1.005 0.92125 -0.51 0.4675 0 0 Z " fill="#7AA090" transform="translate(300,165)"/>
<path d="M0 0 C1.20628008 2.33214148 2.1654738 4.49642139 3 7 C1.02 7 -0.96 7 -3 7 C-3 6.34 -3 5.68 -3 5 C-2.34 5 -1.68 5 -1 5 C-0.67 3.35 -0.34 1.7 0 0 Z " fill="#A4967B" transform="translate(264,249)"/>
<path d="M0 0 C0.33 0.66 0.66 1.32 1 2 C-0.87799375 4.81699062 -2.78578579 7.43981482 -5 10 C-5.66 10 -6.32 10 -7 10 C-5.33248852 6.05860922 -2.77289351 3.2107188 0 0 Z " fill="#9DB9AB" transform="translate(208,169)"/>
<path d="M0 0 C0.99 0.33 1.98 0.66 3 1 C2.34 1 1.68 1 1 1 C0.896875 1.556875 0.79375 2.11375 0.6875 2.6875 C-0.13133577 5.44176578 -1.45853781 7.58727657 -3 10 C-3.33 8.68 -3.66 7.36 -4 6 C-3.34 6 -2.68 6 -2 6 C-2 4.68 -2 3.36 -2 2 C-1.34 2 -0.68 2 0 2 C0 1.34 0 0.68 0 0 Z " fill="#EABDA9" transform="translate(335,126)"/>
<path d="M0 0 C0 0.66 0 1.32 0 2 C-4.61073111 3.29676812 -8.33840089 2.71109139 -13 2 C-13 1.67 -13 1.34 -13 1 C-8.62426048 0.40667939 -4.42471556 -0.13827236 0 0 Z " fill="#97B4A8" transform="translate(254,151)"/>
<path d="M0 0 C0 0.66 0 1.32 0 2 C-4.95 3.485 -4.95 3.485 -10 5 C-10 4.34 -10 3.68 -10 3 C-3.375 0 -3.375 0 0 0 Z " fill="#8B604A" transform="translate(290,64)"/>
<path d="M0 0 C1.65 0.33 3.3 0.66 5 1 C4.34 1.66 3.68 2.32 3 3 C2.01 3 1.02 3 0 3 C0 3.66 0 4.32 0 5 C-0.99 4.67 -1.98 4.34 -3 4 C-2.67 3.01 -2.34 2.02 -2 1 C-1.34 1.33 -0.68 1.66 0 2 C0 1.34 0 0.68 0 0 Z " fill="#8C6857" transform="translate(318,50)"/>
<path d="M0 0 C0.33 0 0.66 0 1 0 C1.25 2.25 1.25 2.25 1 5 C-1 7.3125 -1 7.3125 -3 9 C-3.66 8.67 -4.32 8.34 -5 8 C-4.19185349 6.66402348 -3.37836819 5.331275 -2.5625 4 C-2.11003906 3.2575 -1.65757812 2.515 -1.19140625 1.75 C-0.79824219 1.1725 -0.40507812 0.595 0 0 Z " fill="#6F7D63" transform="translate(213,224)"/>
<path d="M0 0 C5.66153846 1.47692308 5.66153846 1.47692308 7.375 4.125 C7.684375 5.053125 7.684375 5.053125 8 6 C4.08597051 4.73058503 2.20927127 3.48832306 0 0 Z " fill="#968E74" transform="translate(196,210)"/>
<path d="M0 0 C0.78375 0.04125 1.5675 0.0825 2.375 0.125 C2.375 0.785 2.375 1.445 2.375 2.125 C-0.125 3.75 -0.125 3.75 -2.625 5.125 C-2.625 4.465 -2.625 3.805 -2.625 3.125 C-3.285 2.795 -3.945 2.465 -4.625 2.125 C-2.625 0.125 -2.625 0.125 0 0 Z " fill="#F5C0A7" transform="translate(320.625,145.875)"/>
<path d="M0 0 C1.65 0 3.3 0 5 0 C5 1.65 5 3.3 5 5 C3.35 5 1.7 5 0 5 C0.99 4.67 1.98 4.34 3 4 C3 3.34 3 2.68 3 2 C2.01 2 1.02 2 0 2 C0 1.34 0 0.68 0 0 Z " fill="#755545" transform="translate(285,52)"/>
<path d="M0 0 C2.97 0 5.94 0 9 0 C8.01 1.485 8.01 1.485 7 3 C2.25 2.25 2.25 2.25 0 0 Z " fill="#8E8D6D" transform="translate(235,250)"/>
<path d="M0 0 C0.66 0.33 1.32 0.66 2 1 C1.01 3.31 0.02 5.62 -1 8 C-2.32 7.01 -3.64 6.02 -5 5 C-3.35 3.35 -1.7 1.7 0 0 Z " fill="#99B2A4" transform="translate(214,163)"/>
<path d="M0 0 C0.33 0.66 0.66 1.32 1 2 C1.66 2.33 2.32 2.66 3 3 C1.35 4.65 -0.3 6.3 -2 8 C-1.125 1.125 -1.125 1.125 0 0 Z " fill="#F3BEA0" transform="translate(326,138)"/>
<path d="M0 0 C0.33 0 0.66 0 1 0 C0.67 2.31 0.34 4.62 0 7 C-0.99 7 -1.98 7 -3 7 C-2.67 5.35 -2.34 3.7 -2 2 C-1.34 2 -0.68 2 0 2 C0 1.34 0 0.68 0 0 Z " fill="#DF9A80" transform="translate(295,155)"/>
<path d="M0 0 C2.64 0 5.28 0 8 0 C7.01 0.33 6.02 0.66 5 1 C4.26676204 3.01508358 4.26676204 3.01508358 4 5 C3.67 4.34 3.34 3.68 3 3 C2.34 2.67 1.68 2.34 1 2 C0.67 1.34 0.34 0.68 0 0 Z " fill="#789D8D" transform="translate(255,152)"/>
<path d="M0 0 C0.99 1.32 1.98 2.64 3 4 C2.34 5.32 1.68 6.64 1 8 C-0.42944945 5.64561267 -1.08661261 4.51967567 -0.625 1.75 C-0.41875 1.1725 -0.2125 0.595 0 0 Z " fill="#E79C7B" transform="translate(274,136)"/>
</svg>
