<?xml version="1.0" encoding="UTF-8"?>
<svg version="1.1" xmlns="http://www.w3.org/2000/svg" width="500" height="500">
<path d="M0 0 C0 0.66 0 1.32 0 2 C1.175625 1.9175 2.35125 1.835 3.5625 1.75 C8.48242019 1.76744653 11.05522215 3.06075376 15 6 C18.3004016 10.68444098 18.61578345 14.45794899 18 20 C16.23391635 22.96449755 15.2166928 24.64254099 11.859375 25.62890625 C11.24578125 25.75136719 10.6321875 25.87382813 10 26 C10.01047363 26.9065332 10.02094727 27.81306641 10.03173828 28.74707031 C10.06619281 32.16897212 10.09107754 35.59068478 10.10986328 39.01269531 C10.11980927 40.48277733 10.13337091 41.95284016 10.15087891 43.42285156 C10.40333333 65.19333333 10.40333333 65.19333333 7 72 C6.84442096 73.87271065 6.72476393 75.74848803 6.625 77.625 C6.06521708 84.92841778 4.24585499 90.90812111 0 97 C-0.99 97.495 -0.99 97.495 -2 98 C-1.01 103.445 -1.01 103.445 0 109 C0.9075 109.04125 1.815 109.0825 2.75 109.125 C9.66410724 110.12684003 17.50195874 113.75150618 22.125 119.0625 C25.48190739 124.32165491 26.70479652 129.65361215 27.9375 135.6875 C28.19853516 136.94771973 28.19853516 136.94771973 28.46484375 138.23339844 C30.04194654 145.97105899 31.34047334 153.74346839 32.59814453 161.53808594 C34.70405741 174.43968101 37.010377 187.29341062 39.6315918 200.10009766 C40.9726202 206.706129 42.07382156 213.32176599 43 220 C43.66 220 44.32 220 45 220 C45.19532961 221.7699868 45.38098882 223.54104279 45.5625 225.3125 C45.66691406 226.29863281 45.77132812 227.28476563 45.87890625 228.30078125 C46 231 46 231 45 234 C44.34 234 43.68 234 43 234 C43.433125 235.57587891 43.433125 235.57587891 43.875 237.18359375 C46.95976597 248.6979493 49.0108691 257.07513572 43 268 C42.34 268.99 41.68 269.98 41 271 C37.5625 271.4375 37.5625 271.4375 34 271 C32 269.4375 32 269.4375 31 267 C31.25 263.6875 31.25 263.6875 32 260 C32.94307522 255.02742158 32.95330408 252.5960096 31 248 C30.80698118 244.2683029 30.81670052 241.54989845 32 238 C29.69 238 27.38 238 25 238 C25.00444122 238.71661804 25.00888245 239.43323608 25.01345825 240.17156982 C25.37942683 302.17361237 25.37942683 302.17361237 23.85205078 329.99121094 C23.75765919 331.72328126 23.66375755 333.45537835 23.5703125 335.1875 C23.52278839 336.06835266 23.47526428 336.94920532 23.42630005 337.85675049 C22.97989036 346.56727104 22.73190378 355.28195082 22.4921875 364 C22.45030854 365.498373 22.40840789 366.9967454 22.3664856 368.49511719 C22.18020478 375.20520253 22.00077978 381.91534554 21.83897591 388.62606812 C21.78673791 390.73323926 21.7303305 392.84025082 21.67214966 394.94726562 C21.60059392 397.55123327 21.53635209 400.15541516 21.48043823 402.75976562 C21.44693268 403.92056641 21.41342712 405.08136719 21.37890625 406.27734375 C21.34132202 407.79702759 21.34132202 407.79702759 21.30297852 409.34741211 C20.99788579 412.01850998 20.36363637 413.70613107 19 416 C19.99 416 20.98 416 22 416 C22 416.66 22 417.32 22 418 C22.70511719 418.27070313 23.41023438 418.54140625 24.13671875 418.8203125 C27.10790765 420.04445854 29.9453351 421.42450767 32.8125 422.875 C33.85535156 423.4009375 34.89820313 423.926875 35.97265625 424.46875 C37.47119141 425.22671875 37.47119141 425.22671875 39 426 C40.58284973 426.79263314 42.1661024 427.58446287 43.75 428.375 C45.35875 429.179375 45.35875 429.179375 47 430 C47 431.65 47 433.3 47 435 C37.25671051 439.54686843 24.20535749 436.92084171 13.75 436.1875 C12.64237305 436.11756836 11.53474609 436.04763672 10.39355469 435.97558594 C9.35102539 435.89469727 8.30849609 435.81380859 7.234375 435.73046875 C6.29819336 435.66239014 5.36201172 435.59431152 4.39746094 435.52416992 C1.65327893 434.92419449 0.6605053 434.23641697 -1 432 C-1.14453125 429.80078125 -1.14453125 429.80078125 -0.8125 427.3125 C-0.69648438 426.43464844 -0.58046875 425.55679687 -0.4609375 424.65234375 C0.16818484 421.03222451 1.01659946 417.54024194 2 414 C1.01 413.34 0.02 412.68 -1 412 C-1.77058282 408.99038326 -2.34615693 406.12177388 -2.82421875 403.0625 C-2.97548218 402.13572449 -3.12674561 401.20894897 -3.28259277 400.25408936 C-3.77233039 397.17227774 -4.23331485 394.08724307 -4.6875 391 C-4.84707184 389.93978638 -5.00664368 388.87957275 -5.17105103 387.78723145 C-7.95266354 368.90116531 -8.41502308 350.46670787 -8.07495117 331.41308594 C-7.8326817 316.61795249 -8.8682312 302.86286973 -11.625 288.31445312 C-12.07772159 285.52031207 -12.15371542 282.82452092 -12 280 C-12.66 280 -13.32 280 -14 280 C-14.09506836 280.71293213 -14.19013672 281.42586426 -14.28808594 282.16040039 C-15.61845557 291.47517115 -17.60611357 300.58374785 -19.65496826 309.76156616 C-23.3840133 326.5315587 -26.54725364 343.30592309 -29.05957031 360.30053711 C-29.27648442 361.76679515 -29.49360219 363.23302308 -29.7109375 364.69921875 C-29.81516022 365.40306702 -29.91938293 366.10691528 -30.02676392 366.83209229 C-30.92379036 372.76262117 -32.07855014 378.61814295 -33.29052734 384.49291992 C-34.5587552 390.76205038 -35.58466574 397.07255676 -36.63671875 403.38085938 C-36.80042969 404.34443359 -36.96414062 405.30800781 -37.1328125 406.30078125 C-37.27605957 407.15841064 -37.41930664 408.01604004 -37.56689453 408.8996582 C-38 411 -38 411 -39 413 C-39.66 413 -40.32 413 -41 413 C-40.61651023 417.83197107 -40.10164757 422.06429368 -38.4375 426.625 C-37.04906556 430.55660644 -36.41130104 433.7950074 -37 438 C-39.4390337 440.60976606 -40.91263626 440.99004346 -44.49609375 441.3984375 C-45.79675781 441.39070313 -47.09742188 441.38296875 -48.4375 441.375 C-50.38462891 441.38660156 -50.38462891 441.38660156 -52.37109375 441.3984375 C-56.41565944 440.95436247 -59.1031665 439.8968335 -62 437 C-62.31881601 432.39412619 -61.5085092 428.79611136 -60.0625 424.4375 C-58.13065068 418.8125387 -58.13065068 418.8125387 -57 413 C-57.66 412.34 -58.32 411.68 -59 411 C-59.4074707 408.12768555 -59.4074707 408.12768555 -59.61328125 404.44921875 C-59.65060867 403.78508469 -59.6879361 403.12095062 -59.72639465 402.43669128 C-60.13236594 394.56584638 -60.19909026 386.69226572 -60.1875 378.8125 C-60.18659363 377.66405106 -60.18659363 377.66405106 -60.18566895 376.49240112 C-60.14689153 358.3296768 -58.4189141 341.17069847 -54.44897461 323.42675781 C-53.32966929 317.37678777 -52.85415981 311.38301561 -52.65527344 305.23876953 C-52.63080139 304.50929611 -52.60632935 303.77982269 -52.58111572 303.02824402 C-52.50273395 300.64655118 -52.43036839 298.26473643 -52.359375 295.8828125 C-52.3344825 295.06520321 -52.30959 294.24759392 -52.28394318 293.40520859 C-52.15312871 289.09122621 -52.02726295 284.77713115 -51.90527344 280.46289062 C-51.77811595 276.0034857 -51.63303302 271.54484551 -51.48409653 267.08612251 C-51.37280175 263.65497972 -51.27494411 260.22354889 -51.18079376 256.79189682 C-51.13325283 255.14665084 -51.08054875 253.5015458 -51.02263641 251.85663223 C-50.94320195 249.5661845 -50.88279761 247.27599473 -50.82714844 244.98486328 C-50.78797302 243.6810672 -50.74879761 242.37727112 -50.70843506 241.03396606 C-50.80465149 240.03275726 -50.90086792 239.03154846 -51 238 C-51.99 237.34 -52.98 236.68 -54 236 C-53.67 231.05 -53.34 226.1 -53 221 C-58.52643763 218.58986795 -58.52643763 218.58986795 -62.4375 219.75 C-66.40271348 220.0282606 -66.92608914 219.75101407 -69.875 217.375 C-72.62107153 214.73313208 -73.78923449 212.89916186 -74 209 C-74.33 208.01 -74.66 207.02 -75 206 C-75.66 206 -76.32 206 -77 206 C-77 205.34 -77 204.68 -77 204 C-77.66 204 -78.32 204 -79 204 C-79 203.34 -79 202.68 -79 202 C-79.66 202 -80.32 202 -81 202 C-82.40454102 200.28759766 -82.40454102 200.28759766 -84.00390625 197.9140625 C-84.86725586 196.64175781 -84.86725586 196.64175781 -85.74804688 195.34375 C-86.34681641 194.4465625 -86.94558594 193.549375 -87.5625 192.625 C-88.16513672 191.73554688 -88.76777344 190.84609375 -89.38867188 189.9296875 C-93.5552867 183.7569248 -96.22178001 179.73430384 -95 172 C-90.17079013 158.17261393 -80.20878569 145.94177359 -72 134 C-71.46810059 133.21834473 -70.93620117 132.43668945 -70.38818359 131.63134766 C-60.87728059 117.67320192 -50.76943187 110.34301478 -34 107 C-32.68 107 -31.36 107 -30 107 C-29.7834375 105.329375 -29.7834375 105.329375 -29.5625 103.625 C-29 100 -29 100 -28 98 C-27.58741596 93.11615638 -27.43265249 88.3239537 -30 84 C-31.485 83.505 -31.485 83.505 -33 83 C-35.7555903 78.76063031 -36.43184454 74.97528599 -36.7890625 70.05078125 C-36.94527006 67.80168749 -36.94527006 67.80168749 -38 65 C-38.09267588 63.29367352 -38.12998202 61.58383413 -38.125 59.875 C-38.12757813 58.98554687 -38.13015625 58.09609375 -38.1328125 57.1796875 C-38 55 -38 55 -37 54 C-36.91251793 52.07332493 -36.89302666 50.14348139 -36.90234375 48.21484375 C-36.90556641 47.04501953 -36.90878906 45.87519531 -36.91210938 44.66992188 C-36.92048828 43.43822266 -36.92886719 42.20652344 -36.9375 40.9375 C-36.94201172 39.70193359 -36.94652344 38.46636719 -36.95117188 37.19335938 C-36.96300392 34.12885883 -36.97948827 31.06445279 -37 28 C-38.11632812 27.70609375 -39.23265625 27.4121875 -40.3828125 27.109375 C-44 26 -44 26 -45.875 24.25 C-48.03975604 19.92048791 -48.33048315 17.10809055 -46.9375 12.4375 C-44.36192332 7.86792848 -41.7811475 4.89761903 -36.78515625 3.28515625 C-34.52906047 2.77087152 -32.28675467 2.35148266 -30 2 C-26.21556597 1.42656121 -26.21556597 1.42656121 -23 -0.5 C-16.48811772 -5.38391171 -6.74248865 -3.37124432 0 0 Z M-55.5625 162.375 C-58.22681703 164.64723409 -58.22681703 164.64723409 -58 167 C-58.66 167 -59.32 167 -60 167 C-60 167.66 -60 168.32 -60 169 C-60.66 169 -61.32 169 -62 169 C-63.35712166 170.55855981 -63.35712166 170.55855981 -64.625 172.5 C-65.07101563 173.1496875 -65.51703125 173.799375 -65.9765625 174.46875 C-66.31429687 174.9740625 -66.65203125 175.479375 -67 176 C-65.55729027 178.41938952 -64.10968633 180.83547767 -62.65234375 183.24609375 C-61.62608963 184.95651729 -60.61521382 186.67639053 -59.62890625 188.41015625 C-59.21511719 189.12042969 -58.80132812 189.83070313 -58.375 190.5625 C-57.82972656 191.52349609 -57.82972656 191.52349609 -57.2734375 192.50390625 C-55.65674319 194.4032741 -54.36609421 194.41571959 -52 195 C-51.67 195.99 -51.34 196.98 -51 198 C-44.85136172 188.02989729 -50.03822335 170.84815778 -52 160 C-53.46007099 159.88670589 -53.46007099 159.88670589 -55.5625 162.375 Z " fill="#67AF92" transform="translate(265,20)"/>
<path d="M0 0 C6.23177309 22.67363869 6.23177309 22.67363869 0 34 C-0.66 34.99 -1.32 35.98 -2 37 C-5.4375 37.4375 -5.4375 37.4375 -9 37 C-11 35.4375 -11 35.4375 -12 33 C-11.75 29.6875 -11.75 29.6875 -11 26 C-10.05692478 21.02742158 -10.04669592 18.5960096 -12 14 C-12.19301882 10.2683029 -12.18329948 7.54989845 -11 4 C-13.31 4 -15.62 4 -18 4 C-17.99555878 4.71661804 -17.99111755 5.43323608 -17.98654175 6.17156982 C-17.62057317 68.17361237 -17.62057317 68.17361237 -19.14794922 95.99121094 C-19.24234081 97.72328126 -19.33624245 99.45537835 -19.4296875 101.1875 C-19.47721161 102.06835266 -19.52473572 102.94920532 -19.57369995 103.85675049 C-20.02010964 112.56727104 -20.26809622 121.28195082 -20.5078125 130 C-20.54969146 131.498373 -20.59159211 132.9967454 -20.6335144 134.49511719 C-20.81979522 141.20520253 -20.99922022 147.91534554 -21.16102409 154.62606812 C-21.21326209 156.73323926 -21.2696695 158.84025082 -21.32785034 160.94726562 C-21.39940608 163.55123327 -21.46364791 166.15541516 -21.51956177 168.75976562 C-21.55306732 169.92056641 -21.58657288 171.08136719 -21.62109375 172.27734375 C-21.65867798 173.79702759 -21.65867798 173.79702759 -21.69702148 175.34741211 C-22.00211421 178.01850998 -22.63636363 179.70613107 -24 182 C-23.01 182 -22.02 182 -21 182 C-21 182.66 -21 183.32 -21 184 C-20.29488281 184.27070313 -19.58976562 184.54140625 -18.86328125 184.8203125 C-15.89209235 186.04445854 -13.0546649 187.42450767 -10.1875 188.875 C-9.14464844 189.4009375 -8.10179687 189.926875 -7.02734375 190.46875 C-5.52880859 191.22671875 -5.52880859 191.22671875 -4 192 C-2.41715027 192.79263314 -0.8338976 193.58446287 0.75 194.375 C1.8225 194.91125 2.895 195.4475 4 196 C4 197.65 4 199.3 4 201 C-5.74328949 205.54686843 -18.79464251 202.92084171 -29.25 202.1875 C-30.35762695 202.11756836 -31.46525391 202.04763672 -32.60644531 201.97558594 C-33.64897461 201.89469727 -34.69150391 201.81380859 -35.765625 201.73046875 C-36.70180664 201.66239014 -37.63798828 201.59431152 -38.60253906 201.52416992 C-41.34672107 200.92419449 -42.3394947 200.23641697 -44 198 C-44.14453125 195.80078125 -44.14453125 195.80078125 -43.8125 193.3125 C-43.69648438 192.43464844 -43.58046875 191.55679688 -43.4609375 190.65234375 C-42.83181516 187.03222451 -41.98340054 183.54024194 -41 180 C-41.99 179.34 -42.98 178.68 -44 178 C-44.77058282 174.99038326 -45.34615693 172.12177388 -45.82421875 169.0625 C-45.97548218 168.13572449 -46.12674561 167.20894897 -46.28259277 166.25408936 C-46.77233039 163.17227774 -47.23331485 160.08724307 -47.6875 157 C-47.84707184 155.93978638 -48.00664368 154.87957275 -48.17105103 153.78723145 C-50.95266354 134.90116531 -51.41502308 116.46670787 -51.07495117 97.41308594 C-50.8326817 82.61795249 -51.8682312 68.86286973 -54.625 54.31445312 C-55.07772159 51.52031207 -55.15371542 48.82452092 -55 46 C-55.66 46 -56.32 46 -57 46 C-57.09506836 46.71293213 -57.19013672 47.42586426 -57.28808594 48.16040039 C-58.61845557 57.47517115 -60.60611357 66.58374785 -62.65496826 75.76156616 C-66.3840133 92.5315587 -69.54725364 109.30592309 -72.05957031 126.30053711 C-72.27648442 127.76679515 -72.49360219 129.23302308 -72.7109375 130.69921875 C-72.81516022 131.40306702 -72.91938293 132.10691528 -73.02676392 132.83209229 C-73.92379036 138.76262117 -75.07855014 144.61814295 -76.29052734 150.49291992 C-77.5587552 156.76205038 -78.58466574 163.07255676 -79.63671875 169.38085938 C-79.80042969 170.34443359 -79.96414062 171.30800781 -80.1328125 172.30078125 C-80.27605957 173.15841064 -80.41930664 174.01604004 -80.56689453 174.8996582 C-81 177 -81 177 -82 179 C-82.66 179 -83.32 179 -84 179 C-83.61651023 183.83197107 -83.10164757 188.06429368 -81.4375 192.625 C-80.04906556 196.55660644 -79.41130104 199.7950074 -80 204 C-82.4390337 206.60976606 -83.91263626 206.99004346 -87.49609375 207.3984375 C-88.79675781 207.39070312 -90.09742188 207.38296875 -91.4375 207.375 C-92.73558594 207.38273438 -94.03367188 207.39046875 -95.37109375 207.3984375 C-99.41565944 206.95436247 -102.1031665 205.8968335 -105 203 C-105.31881601 198.39412619 -104.5085092 194.79611136 -103.0625 190.4375 C-101.13065068 184.8125387 -101.13065068 184.8125387 -100 179 C-100.66 178.34 -101.32 177.68 -102 177 C-102.4074707 174.12768555 -102.4074707 174.12768555 -102.61328125 170.44921875 C-102.65060867 169.78508469 -102.6879361 169.12095062 -102.72639465 168.43669128 C-103.13236594 160.56584638 -103.19909026 152.69226572 -103.1875 144.8125 C-103.18659363 143.66405106 -103.18659363 143.66405106 -103.18566895 142.49240112 C-103.14689153 124.3296768 -101.4189141 107.17069847 -97.44897461 89.42675781 C-96.32915866 83.37402776 -95.85596835 77.38639692 -95.67114258 71.23876953 C-95.64827682 70.50929611 -95.62541107 69.77982269 -95.60185242 69.02824402 C-95.52851803 66.64653813 -95.46104752 64.26471794 -95.39453125 61.8828125 C-95.34637278 60.21751785 -95.29816955 58.55222449 -95.24992371 56.88693237 C-95.15041941 53.41232713 -95.05436279 49.93764461 -94.96020508 46.46289062 C-94.83867379 42.00364311 -94.70398564 37.54489417 -94.56622791 33.08612251 C-94.4624134 29.65489423 -94.36775366 26.22345815 -94.27567101 22.79189682 C-94.22998161 21.14671032 -94.18089041 19.50161471 -94.12836647 17.85663223 C-94.05615219 15.56618522 -93.99678243 13.2757534 -93.94067383 10.98486328 C-93.90371902 9.6810672 -93.86676422 8.37727112 -93.82868958 7.03396606 C-93.66844929 3.88747101 -93.66844929 3.88747101 -96 2 C-94.68 2 -93.36 2 -92 2 C-90.875 5.75 -90.875 5.75 -92 8 C-91.01 7.67 -90.02 7.34 -89 7 C-86.93930694 6.90415381 -84.87541516 6.87016315 -82.8125 6.875 C-81.72582031 6.87242187 -80.63914063 6.86984375 -79.51953125 6.8671875 C-76.38381612 6.98551637 -73.36304278 7.34927149 -70.2565918 7.76416016 C-56.04135441 9.24981625 -38.86824765 9.59552447 -25.46875 3.9296875 C-22.47842753 2.80358505 -19.87436779 2.65266433 -16.6875 2.5 C-11.11755157 2.15266762 -5.43068509 0 0 0 Z " fill="#B3A9A2" transform="translate(308,254)"/>
<path d="M0 0 C0.495 1.485 0.495 1.485 1 3 C2.84725052 3.69159401 2.84725052 3.69159401 5 4 C6.33333333 4.33333333 7.66666667 4.66666667 9 5 C9 5.66 9 6.32 9 7 C10.423125 6.9690625 10.423125 6.9690625 11.875 6.9375 C15 7 15 7 17 8 C16 11 16 11 14.2578125 11.94921875 C13.20207031 12.31466797 13.20207031 12.31466797 12.125 12.6875 C11.07699219 13.06455078 11.07699219 13.06455078 10.0078125 13.44921875 C8 14 8 14 5 14 C5.10546143 14.65033203 5.21092285 15.30066406 5.31958008 15.97070312 C11.43773663 54.18677379 14.77541115 93.27252073 14 132 C9.56204588 131.88874588 5.12483765 131.75845376 0.6875 131.625 C-0.55580078 131.5940625 -1.79910156 131.563125 -3.08007812 131.53125 C-10.59355079 131.29460519 -17.64087144 130.54334666 -25 129 C-24.67 124.05 -24.34 119.1 -24 114 C-29.52643763 111.58986795 -29.52643763 111.58986795 -33.4375 112.75 C-37.40271348 113.0282606 -37.92608914 112.75101407 -40.875 110.375 C-43.62107153 107.73313208 -44.78923449 105.89916186 -45 102 C-45.33 101.01 -45.66 100.02 -46 99 C-46.66 99 -47.32 99 -48 99 C-48 98.34 -48 97.68 -48 97 C-48.66 97 -49.32 97 -50 97 C-50 96.34 -50 95.68 -50 95 C-50.66 95 -51.32 95 -52 95 C-53.40454102 93.28759766 -53.40454102 93.28759766 -55.00390625 90.9140625 C-55.86725586 89.64175781 -55.86725586 89.64175781 -56.74804688 88.34375 C-57.34681641 87.4465625 -57.94558594 86.549375 -58.5625 85.625 C-59.46645508 84.29082031 -59.46645508 84.29082031 -60.38867188 82.9296875 C-64.5552867 76.7569248 -67.22178001 72.73430384 -66 65 C-61.17079013 51.17261393 -51.20878569 38.94177359 -43 27 C-42.46810059 26.21834473 -41.93620117 25.43668945 -41.38818359 24.63134766 C-31.67714351 10.3794819 -18.33309046 -0.62424502 0 0 Z M-26.5625 55.375 C-29.22681703 57.64723409 -29.22681703 57.64723409 -29 60 C-29.66 60 -30.32 60 -31 60 C-31 60.66 -31 61.32 -31 62 C-31.66 62 -32.32 62 -33 62 C-34.35712166 63.55855981 -34.35712166 63.55855981 -35.625 65.5 C-36.07101563 66.1496875 -36.51703125 66.799375 -36.9765625 67.46875 C-37.31429687 67.9740625 -37.65203125 68.479375 -38 69 C-36.55729027 71.41938952 -35.10968633 73.83547767 -33.65234375 76.24609375 C-32.62608963 77.95651729 -31.61521382 79.67639053 -30.62890625 81.41015625 C-30.21511719 82.12042969 -29.80132812 82.83070313 -29.375 83.5625 C-28.82972656 84.52349609 -28.82972656 84.52349609 -28.2734375 85.50390625 C-26.65674319 87.4032741 -25.36609421 87.41571959 -23 88 C-22.67 88.99 -22.34 89.98 -22 91 C-15.85136172 81.02989729 -21.03822335 63.84815778 -23 53 C-24.46007099 52.88670589 -24.46007099 52.88670589 -26.5625 55.375 Z " fill="#6AB195" transform="translate(236,127)"/>
<path d="M0 0 C0 0.66 0 1.32 0 2 C1.175625 1.9175 2.35125 1.835 3.5625 1.75 C8.48242019 1.76744653 11.05522215 3.06075376 15 6 C18.3004016 10.68444098 18.61578345 14.45794899 18 20 C16.23391635 22.96449755 15.2166928 24.64254099 11.859375 25.62890625 C11.24578125 25.75136719 10.6321875 25.87382813 10 26 C10.01571045 27.3597998 10.01571045 27.3597998 10.03173828 28.74707031 C10.06619281 32.16897212 10.09107754 35.59068478 10.10986328 39.01269531 C10.11980927 40.48277733 10.13337091 41.95284016 10.15087891 43.42285156 C10.40333333 65.19333333 10.40333333 65.19333333 7 72 C6.34 72 5.68 72 5 72 C4.505 64.575 4.505 64.575 4 57 C-0.1044136 57.14050068 -4.20844525 57.2871601 -8.3125 57.4375 C-9.47974609 57.47681641 -10.64699219 57.51613281 -11.84960938 57.55664062 C-12.96787109 57.59853516 -14.08613281 57.64042969 -15.23828125 57.68359375 C-16.7857605 57.73858032 -16.7857605 57.73858032 -18.36450195 57.79467773 C-21.10748258 57.90161242 -21.10748258 57.90161242 -24 59 C-25.18695553 62.56086658 -25.35095418 65.97331024 -25.5625 69.6875 C-25.60568359 70.38939453 -25.64886719 71.09128906 -25.69335938 71.81445312 C-25.7991736 73.54275206 -25.90006581 75.2713511 -26 77 C-27.32 75.35 -28.64 73.7 -30 72 C-32.97 72.495 -32.97 72.495 -36 73 C-37.79636549 66.93726645 -38.53082683 61.33288752 -38 55 C-37.505 54.505 -37.505 54.505 -37 54 C-36.91251793 52.07332493 -36.89302666 50.14348139 -36.90234375 48.21484375 C-36.90556641 47.04501953 -36.90878906 45.87519531 -36.91210938 44.66992188 C-36.92467773 42.82237305 -36.92467773 42.82237305 -36.9375 40.9375 C-36.94201172 39.70193359 -36.94652344 38.46636719 -36.95117188 37.19335938 C-36.96300392 34.12885883 -36.97948827 31.06445279 -37 28 C-38.11632812 27.70609375 -39.23265625 27.4121875 -40.3828125 27.109375 C-44 26 -44 26 -45.875 24.25 C-48.03975604 19.92048791 -48.33048315 17.10809055 -46.9375 12.4375 C-44.36192332 7.86792848 -41.7811475 4.89761903 -36.78515625 3.28515625 C-34.52906047 2.77087152 -32.28675467 2.35148266 -30 2 C-26.21556597 1.42656121 -26.21556597 1.42656121 -23 -0.5 C-16.48811772 -5.38391171 -6.74248865 -3.37124432 0 0 Z " fill="#6CAE95" transform="translate(265,20)"/>
<path d="M0 0 C1.16982422 0.02255859 2.33964844 0.04511719 3.54492188 0.06835938 C6.42708769 0.12717909 9.30663681 0.20932859 12.1875 0.3125 C15.79961615 7.5367323 15.50639696 21.83680365 13.62109375 29.6640625 C10.16626283 39.32311859 10.16626283 39.32311859 6.1875 41.3125 C6.1875 42.6325 6.1875 43.9525 6.1875 45.3125 C5.5275 45.3125 4.8675 45.3125 4.1875 45.3125 C3.878125 45.951875 3.56875 46.59125 3.25 47.25 C2.1875 49.3125 2.1875 49.3125 1.1875 50.3125 C0.95674918 51.65997084 0.77596937 53.01627565 0.625 54.375 C0.480625 55.674375 0.33625 56.97375 0.1875 58.3125 C-0.8025 58.3125 -1.7925 58.3125 -2.8125 58.3125 C-3.1425 55.3425 -3.4725 52.3725 -3.8125 49.3125 C-5.8234375 48.69375 -5.8234375 48.69375 -7.875 48.0625 C-12.24255464 46.61816627 -15.90444317 44.72385421 -19.8125 42.3125 C-19.77769531 41.31669922 -19.77769531 41.31669922 -19.7421875 40.30078125 C-19.47284203 33.53246327 -19.47284203 33.53246327 -21.8125 27.3125 C-22.8025 26.9825 -23.7925 26.6525 -24.8125 26.3125 C-27.89911417 21.35187008 -27.89911417 21.35187008 -27.625 18.0625 C-26.8125 16.3125 -26.8125 16.3125 -24.8125 14.3125 C-22.8125 14.5 -22.8125 14.5 -20.8125 15.3125 C-19.8225 16.7975 -19.8225 16.7975 -18.8125 18.3125 C-18.79123047 16.99185547 -18.79123047 16.99185547 -18.76953125 15.64453125 C-18.72183594 14.48308594 -18.67414063 13.32164063 -18.625 12.125 C-18.59019531 10.97644531 -18.55539063 9.82789062 -18.51953125 8.64453125 C-17.8125 5.3125 -17.8125 5.3125 -16.0625 2.40625 C-10.95014499 -0.8872864 -5.93572544 -0.21614686 0 0 Z " fill="#F7B097" transform="translate(256.8125,76.6875)"/>
<path d="M0 0 C0.99261337 0.00222061 1.98522675 0.00444122 3.00791931 0.00672913 C4.12900589 0.00680466 5.25009247 0.00688019 6.40515137 0.00695801 C8.2348069 0.01469994 8.2348069 0.01469994 10.10142517 0.02259827 C11.96377052 0.02472069 11.96377052 0.02472069 13.86373901 0.02688599 C17.16982383 0.03154861 20.47584039 0.04053955 23.78190613 0.05158997 C27.15338042 0.06180625 30.52486175 0.06638407 33.89634705 0.07142639 C40.51550667 0.08248056 47.13463385 0.09923715 53.75376892 0.12025452 C53.82499454 10.31293772 51.54977165 15.86900149 44.69126892 23.46791077 C42.75376892 25.12025452 42.75376892 25.12025452 39.75376892 25.12025452 C39.75376892 25.78025452 39.75376892 26.44025452 39.75376892 27.12025452 C44.37376892 27.12025452 48.99376892 27.12025452 53.75376892 27.12025452 C53.75376892 28.11025452 53.75376892 29.10025452 53.75376892 30.12025452 C34.94376892 30.12025452 16.13376892 30.12025452 -3.24623108 30.12025452 C-3.24623108 29.13025452 -3.24623108 28.14025452 -3.24623108 27.12025452 C1.37376892 26.79025452 5.99376892 26.46025452 10.75376892 26.12025452 C9.53689392 25.33650452 8.32001892 24.55275452 7.06626892 23.74525452 C1.51713469 19.56372606 -1.35642254 14.27684268 -2.80482483 7.51087952 C-3.12123108 5.05775452 -3.12123108 5.05775452 -3.24623108 1.12025452 C-2.24623108 0.12025452 -2.24623108 0.12025452 0 0 Z " fill="#C2E6CC" transform="translate(130.24623107910156,310.87974548339844)"/>
<path d="M0 0 C0.33 0 0.66 0 1 0 C1 2.97 1 5.94 1 9 C4.465 8.505 4.465 8.505 8 8 C8.33 5.69 8.66 3.38 9 1 C9.33 1 9.66 1 10 1 C10 3.31 10 5.62 10 8 C12.64 8 15.28 8 18 8 C18 6.35 18 4.7 18 3 C18.66 2.67 19.32 2.34 20 2 C20.495 4.97 20.495 4.97 21 8 C22.98 8.33 24.96 8.66 27 9 C27 6.03 27 3.06 27 0 C28.64350079 3.28700157 29.41321669 5.47930015 30 9 C30.99 9.33 31.98 9.66 33 10 C33.33 9.34 33.66 8.68 34 8 C35.75311728 11.50623456 35.1906493 15.51255264 35.1875 19.375 C35.18741943 20.27589355 35.18733887 21.17678711 35.18725586 22.10498047 C35.05277499 37.89445002 35.05277499 37.89445002 32 44 C31.34 44 30.68 44 30 44 C29.505 36.575 29.505 36.575 29 29 C24.8955864 29.14050068 20.79155475 29.2871601 16.6875 29.4375 C15.52025391 29.47681641 14.35300781 29.51613281 13.15039062 29.55664062 C12.03212891 29.59853516 10.91386719 29.64042969 9.76171875 29.68359375 C8.73006592 29.72025146 7.69841309 29.75690918 6.63549805 29.79467773 C3.89251742 29.90161242 3.89251742 29.90161242 1 31 C-0.18695553 34.56086658 -0.35095418 37.97331024 -0.5625 41.6875 C-0.60568359 42.38939453 -0.64886719 43.09128906 -0.69335938 43.81445312 C-0.7991736 45.54275206 -0.90006581 47.2713511 -1 49 C-2.32 47.35 -3.64 45.7 -5 44 C-7.97 44.495 -7.97 44.495 -11 45 C-12.76918884 39.02898766 -13.78911594 33.24329961 -13 27 C-12.34 26.34 -11.68 25.68 -11 25 C-10.61356948 21.62312416 -10.49249299 18.26615241 -10.34375 14.87109375 C-10.2303125 13.92363281 -10.116875 12.97617187 -10 12 C-9.34 11.67 -8.68 11.34 -8 11 C-7.53248212 8.64400765 -7.53248212 8.64400765 -7.375 5.9375 C-7.26285156 4.55884766 -7.26285156 4.55884766 -7.1484375 3.15234375 C-7.09945312 2.44207031 -7.05046875 1.73179688 -7 1 C-6.67 1 -6.34 1 -6 1 C-5.67 3.97 -5.34 6.94 -5 10 C-3.35 10 -1.7 10 0 10 C0 6.7 0 3.4 0 0 Z " fill="#67A990" transform="translate(240,48)"/>
<path d="M0 0 C2.47797988 3.71696982 2.85680993 7.2404041 3.5 11.5625 C4.37141986 17.21715305 5.34643169 22.82436861 6.49121094 28.43041992 C7.37546381 32.89623639 8.11470973 37.38673503 8.875 41.875 C10.31971719 50.31461329 11.91400895 58.71017874 13.63134766 67.09814453 C14.97210386 73.70490601 16.07372918 80.32109987 17 87 C17.66 87 18.32 87 19 87 C19.19532961 88.7699868 19.38098882 90.54104279 19.5625 92.3125 C19.66691406 93.29863281 19.77132813 94.28476563 19.87890625 95.30078125 C20 98 20 98 19 101 C16.3828125 101.94921875 16.3828125 101.94921875 13.125 102.6875 C12.05507813 102.93886719 10.98515625 103.19023437 9.8828125 103.44921875 C7 104 7 104 4 104 C3.09663406 101.28990218 2.83041674 99.46217395 2.71875 96.65625 C2.66267578 95.40521484 2.66267578 95.40521484 2.60546875 94.12890625 C2.53515625 92.37630208 2.46484375 90.62369792 2.39453125 88.87109375 C2.33845703 87.62005859 2.33845703 87.62005859 2.28125 86.34375 C2.25095703 85.58255859 2.22066406 84.82136719 2.18945312 84.03710938 C2.0590232 81.79870351 2.0590232 81.79870351 1 79 C0.385601 74.4531114 -0.00905241 69.88026821 -0.4375 65.3125 C-0.50280914 64.62679932 -0.56811829 63.94109863 -0.63540649 63.23461914 C-2.39552545 44.52955782 -3.19346862 25.76597239 -4 7 C-3.01 6.67 -2.02 6.34 -1 6 C-0.67 4.02 -0.34 2.04 0 0 Z " fill="#70B399" transform="translate(291,153)"/>
<path d="M0 0 C0.66 0.66 1.32 1.32 2 2 C4.06043854 2.56883273 6.12186341 2.94855684 8.22265625 3.33984375 C9.10244141 3.66662109 9.10244141 3.66662109 10 4 C10.495 5.485 10.495 5.485 11 7 C12.24716797 6.94779297 12.24716797 6.94779297 13.51953125 6.89453125 C15.14955078 6.85392578 15.14955078 6.85392578 16.8125 6.8125 C17.89144531 6.77769531 18.97039062 6.74289063 20.08203125 6.70703125 C23 7 23 7 24.65039062 8.13867188 C26.57258773 10.78969046 26.43405681 12.81934692 26.51171875 16.07421875 C26.5473291 17.29197998 26.58293945 18.50974121 26.61962891 19.7644043 C26.64202637 21.05902588 26.66442383 22.35364746 26.6875 23.6875 C26.72020996 25.00210205 26.75291992 26.3167041 26.78662109 27.67114258 C26.8747595 31.44733704 26.94171019 35.22324055 27 39 C27.01659668 39.91394531 27.03319336 40.82789063 27.05029297 41.76953125 C27.12441478 46.18389697 27.11332791 50.58560808 27 55 C26.98324219 56.01320312 26.96648437 57.02640625 26.94921875 58.0703125 C26.90410156 58.97523438 26.85898437 59.88015625 26.8125 60.8125 C26.77769531 61.56144531 26.74289062 62.31039062 26.70703125 63.08203125 C25.62663736 66.01282353 23.73199961 66.62363703 21 68 C18.45152283 68.3742218 18.45152283 68.3742218 15.72241211 68.37231445 C14.18072609 68.38165764 14.18072609 68.38165764 12.6078949 68.39118958 C11.50881302 68.38197983 10.40973114 68.37277008 9.27734375 68.36328125 C7.57089439 68.36402901 7.57089439 68.36402901 5.82997131 68.36479187 C3.42854055 68.36245438 1.0271072 68.35274506 -1.37426758 68.33618164 C-5.05246849 68.31256441 -8.72994552 68.31562661 -12.40820312 68.32226562 C-14.74219183 68.31668951 -17.07617747 68.30958006 -19.41015625 68.30078125 C-20.51126236 68.30169266 -21.61236847 68.30260406 -22.74684143 68.30354309 C-23.77147995 68.29401108 -24.79611847 68.28447906 -25.85180664 68.2746582 C-26.75161758 68.27005081 -27.65142853 68.26544342 -28.57850647 68.26069641 C-31.18018308 67.98060161 -32.80001959 67.40010324 -35 66 C-36.5787713 62.84245741 -36.10183671 59.46163053 -36.0625 56 C-36.05798828 55.26265625 -36.05347656 54.5253125 -36.04882812 53.765625 C-36.03655319 51.84372028 -36.01863867 49.92185354 -36 48 C-36 46.19725786 -36.00747537 44.39451947 -36.01586914 42.59179688 C-36.03382825 38.72966296 -36.04540766 34.86753435 -36.05493164 31.00537109 C-36.05997723 29.33511733 -36.06681319 27.66486802 -36.07543945 25.99462891 C-36.08753533 23.59015824 -36.09323368 21.18574548 -36.09765625 18.78125 C-36.10281754 18.0322644 -36.10797882 17.28327881 -36.11329651 16.51159668 C-36.11387147 11.22774295 -36.11387147 11.22774295 -35 9 C-34.34 9 -33.68 9 -33 9 C-33 8.34 -33 7.68 -33 7 C-32.16855469 6.96261719 -31.33710938 6.92523438 -30.48046875 6.88671875 C-28.85044922 6.78810547 -28.85044922 6.78810547 -27.1875 6.6875 C-26.10855469 6.62949219 -25.02960938 6.57148438 -23.91796875 6.51171875 C-20.70346271 5.94799681 -20.09450871 5.3333562 -18 3 C-16.2365625 2.7525 -16.2365625 2.7525 -14.4375 2.5 C-13.303125 2.335 -12.16875 2.17 -11 2 C-10.34 1.01 -9.68 0.02 -9 -1 C-5.50081292 -2.5686011 -3.32651219 -1.66325609 0 0 Z M-6 3 C-6 3.99 -6 4.98 -6 6 C-5.01 5.67 -4.02 5.34 -3 5 C-3.99 4.34 -4.98 3.68 -6 3 Z M-31 10 C-33.14792111 13.22188166 -33.25188243 14.0808428 -33.25878906 17.79101562 C-33.26509338 18.7621228 -33.27139771 19.73322998 -33.27789307 20.73376465 C-33.2738446 21.78068481 -33.26979614 22.82760498 -33.265625 23.90625 C-33.26753845 24.98249634 -33.2694519 26.05874268 -33.27142334 27.16760254 C-33.27278483 29.44393141 -33.26909092 31.72026806 -33.26074219 33.99658203 C-33.25004238 37.48617957 -33.26063892 40.97526227 -33.2734375 44.46484375 C-33.2721159 46.67448031 -33.26955349 48.88411654 -33.265625 51.09375 C-33.26967346 52.14067017 -33.27372192 53.18759033 -33.27789307 54.26623535 C-33.27158875 55.23734253 -33.26528442 56.20844971 -33.25878906 57.20898438 C-33.25719788 58.06375366 -33.25560669 58.91852295 -33.25396729 59.79919434 C-33.13592674 62.28974141 -33.13592674 62.28974141 -31 65 C-28.71621586 65.45178842 -28.71621586 65.45178842 -26.03125 65.37231445 C-24.99677734 65.37854324 -23.96230469 65.38477203 -22.89648438 65.39118958 C-21.77564453 65.38197983 -20.65480469 65.37277008 -19.5 65.36328125 C-18.35337891 65.36377975 -17.20675781 65.36427826 -16.02539062 65.36479187 C-13.59763865 65.36244812 -11.1698844 65.35270204 -8.7421875 65.33618164 C-5.01540514 65.31259749 -1.28933794 65.31561759 2.4375 65.32226562 C4.79167095 65.31668897 7.14583888 65.30957917 9.5 65.30078125 C11.18125977 65.30214836 11.18125977 65.30214836 12.89648438 65.30354309 C14.44819336 65.28924507 14.44819336 65.28924507 16.03125 65.2746582 C16.94455078 65.27005081 17.85785156 65.26544342 18.79882812 65.26069641 C21.2069091 65.20578019 21.2069091 65.20578019 23 63 C23.29243253 60.69503976 23.29243253 60.69503976 23.22705078 57.99951172 C23.22682419 56.43811966 23.22682419 56.43811966 23.22659302 54.84518433 C23.21627045 53.71807037 23.20594788 52.59095642 23.1953125 51.4296875 C23.1924826 50.27832306 23.18965271 49.12695862 23.18673706 47.94070435 C23.17551408 44.25203188 23.15040556 40.56359947 23.125 36.875 C23.11497294 34.37890975 23.10584662 31.8828157 23.09765625 29.38671875 C23.07556784 23.25773016 23.04206947 17.12888223 23 11 C20.59454362 9.79727181 19.05003047 9.89928528 16.375 9.9375 C15.55773437 9.94652344 14.74046875 9.95554688 13.8984375 9.96484375 C13.27195312 9.97644531 12.64546875 9.98804688 12 10 C11.34 11.32 10.68 12.64 10 14 C0.1 14.33 -9.8 14.66 -20 15 C-20.33 13.35 -20.66 11.7 -21 10 C-22.62418745 9.91909029 -24.24951745 9.86085005 -25.875 9.8125 C-26.77992188 9.77769531 -27.68484375 9.74289063 -28.6171875 9.70703125 C-29.40351563 9.80371094 -30.18984375 9.90039062 -31 10 Z " fill="#87BEA9" transform="translate(359,155)"/>
<path d="M0 0 C0.495 0.144375 0.99 0.28875 1.5 0.4375 C5.02808429 1.23131897 8.38512503 1.71310516 12 2 C12.99 1.34 13.98 0.68 15 0 C21.34152313 0 25.00545965 1.97864036 30.26171875 5.37109375 C34.20494729 7.71678034 38.36768255 9.34218332 42.62890625 11.01953125 C45 12 45 12 46 13 C46.04063832 14.66617115 46.042721 16.33388095 46 18 C36.25671051 22.54686843 23.20535749 19.92084171 12.75 19.1875 C11.64237305 19.11756836 10.53474609 19.04763672 9.39355469 18.97558594 C8.35102539 18.89469727 7.30849609 18.81380859 6.234375 18.73046875 C5.29819336 18.66239014 4.36201172 18.59431152 3.39746094 18.52416992 C0.65193828 17.92390137 -0.34440531 17.24320746 -2 15 C-2.109375 12.6953125 -2.109375 12.6953125 -1.75 10.125 C-1.57404297 8.80242187 -1.57404297 8.80242187 -1.39453125 7.453125 C-0.9923204 4.9522496 -0.57573491 2.46743534 0 0 Z " fill="#4C4C4C" transform="translate(266,437)"/>
<path d="M0 0 C-0.58564295 3.60210524 -1.94265533 5.32217993 -4.4375 7.9375 C-12.31466942 16.53591833 -19.40508313 25.74533968 -25 36 C-25.47824219 36.84046875 -25.95648438 37.6809375 -26.44921875 38.546875 C-36.51209623 57.24639535 -41.3780856 78.77906299 -42.64306641 99.86083984 C-42.76085449 100.5667627 -42.87864258 101.27268555 -43 102 C-43.99 102.495 -43.99 102.495 -45 103 C-50.96616956 81.12404495 -41.22675245 50.81756746 -31.1171875 31.51953125 C-25.61303885 22.01360028 -18.47271531 12.07378922 -10 5 C-9.34 5 -8.68 5 -8 5 C-8 4.34 -8 3.68 -8 3 C-5.09451118 0.95830515 -3.59857954 0 0 0 Z " fill="#D2EDDB" transform="translate(174,118)"/>
<path d="M0 0 C0.66 0.33 1.32 0.66 2 1 C2.4964603 3.5252055 2.85406023 5.94769717 3.125 8.5 C3.2077417 9.26465576 3.2904834 10.02931152 3.37573242 10.81713867 C6.32831858 40.42493221 1.0301146 73.33310621 -18 97 C-18.99 96.67 -19.98 96.34 -21 96 C-18.49808297 88.81529137 -15.9118286 81.71813279 -13 74.6875 C-8.45064075 63.5642435 -4.88812528 51.87869105 -3 40 C-2.81566406 38.9790625 -2.63132812 37.958125 -2.44140625 36.90625 C-0.93580779 27.51962238 -0.84528821 18.35162437 -0.98583984 8.86083984 C-0.99953613 7.85746582 -1.01323242 6.8540918 -1.02734375 5.8203125 C-1.05429321 4.46317139 -1.05429321 4.46317139 -1.08178711 3.07861328 C-1 1 -1 1 0 0 Z " fill="#D3EBDA" transform="translate(369,250)"/>
<path d="M0 0 C0.99 0.33 1.98 0.66 3 1 C3.98523383 28.09393021 -4.90095177 57.17478064 -23.1328125 77.63671875 C-24.18203974 78.74715757 -25.24164126 79.84790662 -26.3125 80.9375 C-26.80387451 81.43991211 -27.29524902 81.94232422 -27.80151367 82.45996094 C-30.73005754 85.27255736 -32.92776108 86.65137481 -37 87 C-35.74658107 82.58745376 -34.20636918 79.61993255 -31.25 76.125 C-30.53585937 75.26003906 -29.82171875 74.39507812 -29.0859375 73.50390625 C-28.39757812 72.67761719 -27.70921875 71.85132813 -27 71 C-22.1854038 65.05591323 -18.45794506 58.82166818 -15 52 C-14.57847656 51.16984375 -14.15695312 50.3396875 -13.72265625 49.484375 C-6.11860545 33.64462702 -2.57573068 17.29022803 0 0 Z " fill="#D1ECD9" transform="translate(350,285)"/>
<path d="M0 0 C4.51205649 2.20100317 5.70390859 5.28692064 7.3125 9.8125 C8.68539863 14.40750766 9.80941892 18.24466387 9 23 C6.55029072 25.59632529 5.08774779 25.98999969 1.50390625 26.3984375 C0.20324219 26.39070313 -1.09742188 26.38296875 -2.4375 26.375 C-3.73558594 26.38273437 -5.03367188 26.39046875 -6.37109375 26.3984375 C-10.41565944 25.95436247 -13.1031665 24.8968335 -16 22 C-16.39203572 17.22556501 -15.43117397 13.97014144 -13.5 9.625 C-13.0359375 8.56539063 -12.571875 7.50578125 -12.09375 6.4140625 C-11.55234375 5.21910156 -11.55234375 5.21910156 -11 4 C-10.01 4 -9.02 4 -8 4 C-7.67 3.01 -7.34 2.02 -7 1 C-4.39120333 -0.30439833 -2.90289827 -0.33754631 0 0 Z " fill="#464647" transform="translate(219,435)"/>
<path d="M0 0 C-0.1875 1.875 -0.1875 1.875 -1 4 C-3.5625 5.25 -3.5625 5.25 -6 6 C-6 6.66 -6 7.32 -6 8 C-7.58066374 9.22606617 -9.21763517 10.37978665 -10.875 11.5 C-20.77407926 18.49175905 -20.77407926 18.49175905 -28 28 C-28.66 28 -29.32 28 -30 28 C-30.28875 28.763125 -30.5775 29.52625 -30.875 30.3125 C-32 33 -32 33 -34 36 C-34.66 36 -35.32 36 -36 36 C-36.2475 36.845625 -36.495 37.69125 -36.75 38.5625 C-38 42 -38 42 -39.8125 45 C-42.54809029 49.56271962 -44.06211478 54.57775041 -45.75390625 59.59765625 C-46.96627026 62.90790406 -48.22162332 65.9545865 -50 69 C-51.485 69.495 -51.485 69.495 -53 70 C-52.93047988 54.21893206 -46.26855706 38.56816337 -37 26 C-36.34 26 -35.68 26 -35 26 C-34.7628125 25.43796875 -34.525625 24.8759375 -34.28125 24.296875 C-32.71052303 21.48105958 -30.78528536 19.52044584 -28.5 17.25 C-27.7059375 16.45078125 -26.911875 15.6515625 -26.09375 14.828125 C-24 13 -24 13 -22 13 C-22 12.34 -22 11.68 -22 11 C-19.79973441 9.40413754 -17.61245584 7.93833402 -15.3125 6.5 C-14.68666016 6.09652344 -14.06082031 5.69304687 -13.41601562 5.27734375 C-5.09940955 0 -5.09940955 0 0 0 Z " fill="#CEEBD8" transform="translate(178,93)"/>
<path d="M0 0 C6.23177309 22.67363869 6.23177309 22.67363869 0 34 C-0.66 34.99 -1.32 35.98 -2 37 C-5.4375 37.4375 -5.4375 37.4375 -9 37 C-11 35.4375 -11 35.4375 -12 33 C-11.75 29.6875 -11.75 29.6875 -11 26 C-10.05692478 21.02742158 -10.04669592 18.5960096 -12 14 C-12.31368709 9.60838074 -12.54483968 5.71122453 -10 2 C-6.77141207 0.6866761 -3.48493417 0 0 0 Z " fill="#EFB29C" transform="translate(308,254)"/>
<path d="M0 0 C0 0.66 0 1.32 0 2 C0.65226562 1.89300781 1.30453125 1.78601563 1.9765625 1.67578125 C7.60497371 0.90374254 11.05074022 0.74390804 16 4 C16 4.66 16 5.32 16 6 C12.7 5.67 9.4 5.34 6 5 C6 5.66 6 6.32 6 7 C6.886875 7.103125 7.77375 7.20625 8.6875 7.3125 C12.0573702 8.01190702 14.17271538 9.08742511 17 11 C16.67 12.65 16.34 14.3 16 16 C14.33388095 16.042721 12.66617115 16.04063832 11 16 C10.67 15.67 10.34 15.34 10 15 C8.33382885 14.95936168 6.66611905 14.957279 5 15 C6.98 15.99 8.96 16.98 11 18 C11 18.66 11 19.32 11 20 C10.08476562 19.91621094 9.16953125 19.83242187 8.2265625 19.74609375 C7.03804687 19.64425781 5.84953125 19.54242188 4.625 19.4375 C3.44164062 19.33308594 2.25828125 19.22867188 1.0390625 19.12109375 C-1.91898631 18.75846404 -1.91898631 18.75846404 -4 20 C-6.3329866 20.04022391 -8.66706666 20.04320247 -11 20 C-10.97679687 20.83144531 -10.95359375 21.66289062 -10.9296875 22.51953125 C-10.90261719 24.14955078 -10.90261719 24.14955078 -10.875 25.8125 C-10.85179687 26.89144531 -10.82859375 27.97039062 -10.8046875 29.08203125 C-11 32 -11 32 -13 35 C-12.67 30.05 -12.34 25.1 -12 20 C-13.32 19.34 -14.64 18.68 -16 18 C-16.66 17.34 -17.32 16.68 -18 16 C-17.34 16 -16.68 16 -16 16 C-15.60941406 15.15115234 -15.60941406 15.15115234 -15.2109375 14.28515625 C-13.88698788 11.7867352 -12.35655073 9.67188096 -10.625 7.4375 C-10.03976563 6.67308594 -9.45453125 5.90867188 -8.8515625 5.12109375 C-6.06256583 1.92610389 -4.34500069 0 0 0 Z " fill="#F2B298" transform="translate(224,221)"/>
<path d="M0 0 C1.68778564 -0.00773437 1.68778564 -0.00773437 3.40966797 -0.015625 C9.16879676 0.03247511 14.13138882 0.35104834 19.5625 2.3125 C19.9315205 14.98220387 19.9315205 14.98220387 17.5625 20.3125 C16.9025 20.3125 16.2425 20.3125 15.5625 20.3125 C15.0675 12.8875 15.0675 12.8875 14.5625 5.3125 C10.4580864 5.45300068 6.35405475 5.5996601 2.25 5.75 C1.08275391 5.78931641 -0.08449219 5.82863281 -1.28710938 5.86914062 C-2.40537109 5.91103516 -3.52363281 5.95292969 -4.67578125 5.99609375 C-5.70743408 6.03275146 -6.73908691 6.06940918 -7.80200195 6.10717773 C-10.54498258 6.21411242 -10.54498258 6.21411242 -13.4375 7.3125 C-14.62445553 10.87336658 -14.78845418 14.28581024 -15 18 C-15.04318359 18.70189453 -15.08636719 19.40378906 -15.13085938 20.12695312 C-15.2366736 21.85525206 -15.33756581 23.5838511 -15.4375 25.3125 C-16.7575 23.6625 -18.0775 22.0125 -19.4375 20.3125 C-21.4175 20.6425 -23.3975 20.9725 -25.4375 21.3125 C-27.260821 15.15879161 -27.6736959 9.71603322 -27.4375 3.3125 C-18.2736712 0.51336684 -9.5248324 0.01064376 0 0 Z " fill="#404342" transform="translate(254.4375,71.6875)"/>
<path d="M0 0 C5.88664939 0.99418967 10.33746235 2.17432808 15 6 C15 6.66 15 7.32 15 8 C15.66 8 16.32 8 17 8 C19.18714826 11.2807224 19.22647784 12.21149381 19.125 16 C19.10695312 16.86625 19.08890625 17.7325 19.0703125 18.625 C19.04710937 19.40875 19.02390625 20.1925 19 21 C19 21.99 19 22.98 19 24 C19 25.32 19 26.64 19 28 C18.01 27.67 17.02 27.34 16 27 C15.67 26.34 15.34 25.68 15 25 C13.7625 24.87625 12.525 24.7525 11.25 24.625 C7.04302125 24.15839413 4.87336302 23.28384345 2 20 C-1.11965295 13.60974315 -2.28265667 6.84797001 0 0 Z " fill="#6DB498" transform="translate(131,279)"/>
<path d="M0 0 C9.4449956 0 16.92473199 4.55191039 25 9 C26.47726562 9.80824219 26.47726562 9.80824219 27.984375 10.6328125 C28.64953125 11.08398438 29.3146875 11.53515625 30 12 C30 12.66 30 13.32 30 14 C31.32 14.66 32.64 15.32 34 16 C34 16.66 34 17.32 34 18 C34.66 18 35.32 18 36 18 C36 18.66 36 19.32 36 20 C36.66 20 37.32 20 38 20 C38 20.66 38 21.32 38 22 C38.66 22 39.32 22 40 22 C41.65625 24.23046875 41.65625 24.23046875 43.5 27.1875 C44.1084375 28.15042969 44.716875 29.11335938 45.34375 30.10546875 C47.87923457 34.53658684 49.29367616 37.86066728 49 43 C45.76840351 41.62575763 44.11935346 40.21007725 42.08203125 37.3671875 C41.29070801 36.28691284 41.29070801 36.28691284 40.48339844 35.18481445 C39.93200195 34.42257568 39.38060547 33.66033691 38.8125 32.875 C34.0658326 26.50206113 29.42513372 20.77398204 23 16 C22.29746094 15.47535156 21.59492188 14.95070313 20.87109375 14.41015625 C15.70948656 10.78133402 10.2465999 8.08850111 4.50390625 5.4921875 C1.81748853 3.89123341 1.03831374 2.89733057 0 0 Z " fill="#D2EDDA" transform="translate(300,90)"/>
<path d="M0 0 C1.9375 0.375 1.9375 0.375 4 1 C4.33 1.66 4.66 2.32 5 3 C5.33 2.01 5.66 1.02 6 0 C6.66 0 7.32 0 8 0 C8 2.64 8 5.28 8 8 C8.33 7.67 8.66 7.34 9 7 C10 6 10 6 12.5625 5.9375 C13.7690625 5.9684375 13.7690625 5.9684375 15 6 C14.278125 6.556875 13.55625 7.11375 12.8125 7.6875 C7.83781213 11.77779891 4.01084425 16.17449409 0.33203125 21.42578125 C-0.10753906 21.94527344 -0.54710937 22.46476562 -1 23 C-1.66 23 -2.32 23 -3 23 C-3 23.66 -3 24.32 -3 25 C-6.34730901 25.956374 -8.82637225 26.64561055 -11.98828125 24.90625 C-14.82924309 22.60054184 -16.69434115 20.85584479 -17.9375 17.375 C-17.99340439 15.25063333 -18 13.12510212 -18 11 C-17.34 10.67 -16.68 10.34 -16 10 C-16.33 11.32 -16.66 12.64 -17 14 C-14.61435923 13.42415568 -12.33317216 12.77772405 -10 12 C-9.30062468 10.68352881 -8.63270867 9.34977849 -8 8 C-5.18185434 6.59092717 -3.82722796 7.49127309 -0.875 8.4375 C0.03507812 8.72496094 0.94515625 9.01242188 1.8828125 9.30859375 C2.58148438 9.53675781 3.28015625 9.76492187 4 10 C2.13433512 6.37206002 2.13433512 6.37206002 -1 4 C-0.67 2.68 -0.34 1.36 0 0 Z " fill="#6FAE92" transform="translate(209,214)"/>
<path d="M0 0 C2.05716042 3.08574063 2.28245413 3.98893732 2.47070312 7.52124023 C2.52415894 8.43747665 2.57761475 9.35371307 2.63269043 10.29771423 C2.68171509 11.29130447 2.73073975 12.28489471 2.78125 13.30859375 C2.84026489 14.34452164 2.89927979 15.38044952 2.96008301 16.44776917 C3.14861909 19.77726834 3.32509189 23.1072593 3.5 26.4375 C4.49099939 44.94363603 4.49099939 44.94363603 6.03125 63.41015625 C6.11242065 64.24034775 6.19359131 65.07053925 6.27722168 65.92588806 C6.60844035 69.10200851 6.98685806 71.96057418 8 75 C8.14777936 76.69867188 8.24747066 78.40177489 8.31640625 80.10546875 C8.37924805 81.57983398 8.37924805 81.57983398 8.44335938 83.08398438 C8.48267578 84.10814453 8.52199219 85.13230469 8.5625 86.1875 C8.60568359 87.22326172 8.64886719 88.25902344 8.69335938 89.32617188 C8.79944366 91.8839819 8.90150146 94.44188845 9 97 C7.35 96.67 5.7 96.34 4 96 C3.98541748 95.40912598 3.97083496 94.81825195 3.95581055 94.20947266 C3.67484648 83.85847834 3.30961219 73.60325717 1.85595703 63.34277344 C-1.10234078 42.36198689 -0.26409895 21.13604232 0 0 Z " fill="#559C80" transform="translate(286,160)"/>
<path d="M0 0 C0 3 0 3 -1 5 C-3.58317727 5.39465208 -6.14188281 5.50806152 -8.75 5.65625 C-9.4925 5.7696875 -10.235 5.883125 -11 6 C-12.21430225 8.4286045 -12.12688439 9.97998824 -12.12939453 12.69335938 C-12.13254669 13.66776978 -12.13569885 14.64218018 -12.13894653 15.64611816 C-12.1369223 16.70133667 -12.13489807 17.75655518 -12.1328125 18.84375 C-12.13376923 19.92378296 -12.13472595 21.00381592 -12.13571167 22.11657715 C-12.13639304 24.40307676 -12.13454178 26.68957831 -12.13037109 28.97607422 C-12.12502226 32.48539556 -12.13031758 35.99458891 -12.13671875 39.50390625 C-12.13605796 41.72135445 -12.13477678 43.93880257 -12.1328125 46.15625 C-12.13483673 47.21146851 -12.13686096 48.26668701 -12.13894653 49.35388184 C-12.13579437 50.32829224 -12.13264221 51.30270264 -12.12939453 52.30664062 C-12.12859894 53.16664673 -12.12780334 54.02665283 -12.12698364 54.91271973 C-12.13323359 57.06026159 -12.13323359 57.06026159 -11 59 C-8.49419602 59.28696929 -6.07644381 59.46732761 -3.5625 59.5625 C3.76449644 59.88224822 3.76449644 59.88224822 6 61 C8.62380313 61.15660883 11.22524852 61.2582908 13.8515625 61.31640625 C15.01261002 61.3475779 15.01261002 61.3475779 16.19711304 61.37937927 C18.67298392 61.44483448 21.14896202 61.50374087 23.625 61.5625 C25.30209448 61.60568907 26.97917807 61.64930348 28.65625 61.69335938 C32.77072308 61.80051171 36.88530414 61.90179045 41 62 C41 62.33 41 62.66 41 63 C33.66767322 63.05067793 26.33539156 63.08572428 19.00292969 63.10986328 C16.50812085 63.11992561 14.01332382 63.13357679 11.51855469 63.15087891 C7.93421516 63.17511668 4.35003147 63.18648082 0.765625 63.1953125 C-0.35116638 63.20563507 -1.46795776 63.21595764 -2.61859131 63.22659302 C-3.65936829 63.22674408 -4.70014526 63.22689514 -5.77246094 63.22705078 C-6.68735291 63.231492 -7.60224487 63.23593323 -8.54486084 63.24050903 C-11.17647521 62.98271223 -12.78120631 62.41991405 -15 61 C-16.5787713 57.84245741 -16.10183671 54.46163053 -16.0625 51 C-16.05798828 50.26265625 -16.05347656 49.5253125 -16.04882812 48.765625 C-16.03655319 46.84372028 -16.01863867 44.92185354 -16 43 C-16 41.19725786 -16.00747537 39.39451947 -16.01586914 37.59179688 C-16.03382825 33.72966296 -16.04540766 29.86753435 -16.05493164 26.00537109 C-16.05997723 24.33511733 -16.06681319 22.66486802 -16.07543945 20.99462891 C-16.08753533 18.59015824 -16.09323368 16.18574548 -16.09765625 13.78125 C-16.10281754 13.0322644 -16.10797882 12.28327881 -16.11329651 11.51159668 C-16.11387147 6.22774295 -16.11387147 6.22774295 -15 4 C-14.34 4 -13.68 4 -13 4 C-13 3.34 -13 2.68 -13 2 C-11.71802734 1.90912109 -11.71802734 1.90912109 -10.41015625 1.81640625 C-8.75306641 1.69072266 -8.75306641 1.69072266 -7.0625 1.5625 C-5.96035156 1.48128906 -4.85820312 1.40007812 -3.72265625 1.31640625 C-1.08890097 1.29581916 -1.08890097 1.29581916 0 0 Z " fill="#9FC8B9" transform="translate(339,160)"/>
<path d="M0 0 C2 0.25 2 0.25 4 1 C4.495 2.485 4.495 2.485 5 4 C-1.89053878 6.13278581 -8.93242821 7.57999419 -16 9 C-17.33224609 9.28810547 -17.33224609 9.28810547 -18.69140625 9.58203125 C-23.74873106 10.22091408 -28.78308541 10.14360627 -33.875 10.125 C-35.45087891 10.13080078 -35.45087891 10.13080078 -37.05859375 10.13671875 C-41.48677828 10.13117659 -45.8355753 10.10355324 -50.2265625 9.49609375 C-54.36207152 8.95239846 -58.33848907 8.88740774 -62.5 8.9375 C-63.59054688 8.94426758 -63.59054688 8.94426758 -64.703125 8.95117188 C-66.46878681 8.96278807 -68.2344053 8.98071559 -70 9 C-70 7.35 -70 5.7 -70 4 C-66.22897636 4.14114675 -62.4582328 4.2888013 -58.6875 4.4375 C-57.63498047 4.47681641 -56.58246094 4.51613281 -55.49804688 4.55664062 C-50.33503656 4.76316104 -45.22137913 5.05506792 -40.08203125 5.59765625 C-36.14695832 5.98124617 -32.89109598 5.80728132 -29 5 C-26.99534987 4.89207267 -24.99046711 4.78556703 -22.984375 4.70898438 C-10.6555068 4.73708834 -10.6555068 4.73708834 0 0 Z " fill="#899F8E" transform="translate(286,253)"/>
<path d="M0 0 C0.33 0 0.66 0 1 0 C1.02716824 2.54173977 1.04691969 5.08318415 1.0625 7.625 C1.07087891 8.33785156 1.07925781 9.05070312 1.08789062 9.78515625 C1.10304276 13.0883218 0.99766558 16.01215057 0.37109375 19.2734375 C-0.05746065 22.42218454 0.48006233 23.30507505 2 26 C2.4140625 28.578125 2.4140625 28.578125 2.625 31.25 C2.69976562 32.14203125 2.77453125 33.0340625 2.8515625 33.953125 C2.90054688 34.62859375 2.94953125 35.3040625 3 36 C4.32 35.34 5.64 34.68 7 34 C7.66 34.61875 8.32 35.2375 9 35.875 C12.78376831 38.55516922 15.43675909 39.20324365 20 40 C22.18102104 39.59492849 22.18102104 39.59492849 24 39 C23.01 39.495 23.01 39.495 22 40 C21.30062468 41.31647119 20.63270867 42.65022151 20 44 C19.67 44.33 19.34 44.66 19 45 C18.76924918 46.34747084 18.58846937 47.70377565 18.4375 49.0625 C18.293125 50.361875 18.14875 51.66125 18 53 C17.01 53 16.02 53 15 53 C14.67 50.03 14.34 47.06 14 44 C11.9890625 43.38125 11.9890625 43.38125 9.9375 42.75 C5.56994536 41.30566627 1.90805683 39.41135421 -2 37 C-1.96519531 36.00419922 -1.96519531 36.00419922 -1.9296875 34.98828125 C-1.66034203 28.21996327 -1.66034203 28.21996327 -4 22 C-4.99 21.67 -5.98 21.34 -7 21 C-10.08661417 16.03937008 -10.08661417 16.03937008 -9.8125 12.75 C-9 11 -9 11 -7 9 C-5 9.1875 -5 9.1875 -3 10 C-2.01 11.485 -2.01 11.485 -1 13 C-0.67 8.71 -0.34 4.42 0 0 Z " fill="#ECB198" transform="translate(239,82)"/>
<path d="M0 0 C1.32 0 2.64 0 4 0 C4.33 2.64 4.66 5.28 5 8 C5.4125 7.505 5.825 7.01 6.25 6.5 C8 5 8 5 12 5 C13.35224822 14.77638915 12.92140278 22.27569506 8 31 C6.33388095 31.042721 4.66617115 31.04063832 3 31 C2 30 2 30 1.875 27 C2 24 2 24 3 23 C3.43588002 17.52615787 3.25460006 13.03969425 1 8 C0.54355755 5.33658308 0.27367263 2.69111418 0 0 Z " fill="#F7B39C" transform="translate(297,258)"/>
<path d="M0 0 C0.33 0.99 0.66 1.98 1 3 C1.66 3 2.32 3 3 3 C3 5.64 3 8.28 3 11 C2.34 11 1.68 11 1 11 C1 11.99 1 12.98 1 14 C-0.43429001 14.67354499 -1.87257057 15.33859701 -3.3125 16 C-4.51326172 16.556875 -4.51326172 16.556875 -5.73828125 17.125 C-8 18 -8 18 -11 18 C-12.63356321 13.09931037 -12.05529694 8.14261524 -12 3 C-8.04 2.01 -4.08 1.02 0 0 Z " fill="#69AE93" transform="translate(306,239)"/>
<path d="M0 0 C2.54218672 2.54218672 2.29538266 3.56977223 2.4140625 7.1015625 C2.47231201 8.66185181 2.47231201 8.66185181 2.53173828 10.25366211 C2.57790283 11.92247437 2.57790283 11.92247437 2.625 13.625 C2.66222168 14.75623291 2.69944336 15.88746582 2.73779297 17.05297852 C3.62782619 45.84370751 3.62782619 45.84370751 2 53 C-0.60305892 55.60305892 -2.42278539 55.24824978 -5.96899414 55.27789307 C-6.78360107 55.2738446 -7.59820801 55.26979614 -8.4375 55.265625 C-9.27337646 55.26753845 -10.10925293 55.2694519 -10.97045898 55.27142334 C-12.73909811 55.27278536 -14.50774723 55.26908776 -16.27636719 55.26074219 C-18.98915994 55.25004275 -21.70129044 55.26063676 -24.4140625 55.2734375 C-26.1302098 55.27211591 -27.84635669 55.26955352 -29.5625 55.265625 C-30.37710693 55.26967346 -31.19171387 55.27372192 -32.03100586 55.27789307 C-37.77008072 55.22991928 -37.77008072 55.22991928 -40 53 C-38.89487061 52.97494385 -37.78974121 52.9498877 -36.65112305 52.92407227 C-32.55285956 52.82993491 -28.45476306 52.72972959 -24.35668945 52.62768555 C-22.58264063 52.58436066 -20.80855077 52.54268381 -19.03442383 52.50268555 C-16.48506295 52.4449238 -13.9359082 52.38124638 -11.38671875 52.31640625 C-10.59287277 52.29969376 -9.79902679 52.28298126 -8.98112488 52.26576233 C-5.75316923 52.17882282 -3.08248901 52.02749634 0 51 C0 34.17 0 17.34 0 0 Z " fill="#80B29F" transform="translate(383,167)"/>
<path d="M0 0 C5.72407551 0.95844985 11.30496136 3.67492132 16 7 C18.10168009 10.92893699 18 14.63840957 18 19 C17.01 18.67 16.02 18.34 15 18 C15.33 17.34 15.66 16.68 16 16 C13.36 15.67 10.72 15.34 8 15 C8 14.34 8 13.68 8 13 C7.236875 12.855625 6.47375 12.71125 5.6875 12.5625 C0.28828829 11.43243243 0.28828829 11.43243243 -2 8 C-1.43396226 1.43396226 -1.43396226 1.43396226 0 0 Z " fill="#4D8C72" transform="translate(237,119)"/>
<path d="M0 0 C1.32 0.33 2.64 0.66 4 1 C4.33 2.32 4.66 3.64 5 5 C6.32 5 7.64 5 9 5 C9.33 6.65 9.66 8.3 10 10 C8.35 10.33 6.7 10.66 5 11 C5 12.65 5 14.3 5 16 C2.38930678 17.70699172 1.04682188 18.00187288 -2.125 17.875 C-5 17 -5 17 -6.4375 15.3125 C-7.18468581 12.24073613 -6.79336059 10.0412156 -6 7 C-5.34 6.34 -4.68 5.68 -4 5 C-2.68 5 -1.36 5 0 5 C0 3.35 0 1.7 0 0 Z " fill="#B9E4C8" transform="translate(176,274)"/>
<path d="M0 0 C0.99 0.33 1.98 0.66 3 1 C3.34342449 2.33076989 3.67619874 3.66431979 4 5 C4.99 5.66 5.98 6.32 7 7 C7.1875 9.625 7.1875 9.625 7 12 C8.32 12.66 9.64 13.32 11 14 C10.67 15.32 10.34 16.64 10 18 C7.6875 18.625 7.6875 18.625 5 19 C4.01 18.34 3.02 17.68 2 17 C2 17.66 2 18.32 2 19 C0.02 19 -1.96 19 -4 19 C-4.33 18.34 -4.66 17.68 -5 17 C-4.67 16.34 -4.34 15.68 -4 15 C-4.99 14.34 -5.98 13.68 -7 13 C-7.1875 10.375 -7.1875 10.375 -7 8 C-5.68 7.67 -4.36 7.34 -3 7 C-2.34 8.98 -1.68 10.96 -1 13 C-0.34 13 0.32 13 1 13 C1 11.35 1 9.7 1 8 C0.34 8 -0.32 8 -1 8 C-1.93065133 5.39417629 -2.14917407 4.35801776 -1.0625 1.75 C-0.711875 1.1725 -0.36125 0.595 0 0 Z M3 14 C4 16 4 16 4 16 Z " fill="#D0ECD5" transform="translate(163,289)"/>
<path d="M0 0 C0.66 0.66 1.32 1.32 2 2 C1.68289062 2.66386719 1.36578125 3.32773438 1.0390625 4.01171875 C-0.21184151 7.60924343 -0.45190052 11.0439801 -0.625 14.8125 C-0.68300781 15.85180664 -0.68300781 15.85180664 -0.7421875 16.91210938 C-0.83573568 18.60767015 -0.91892364 20.30379712 -1 22 C-2.32 20.35 -3.64 18.7 -5 17 C-6.98 17.33 -8.96 17.66 -11 18 C-11.33 15.36 -11.66 12.72 -12 10 C-11.34 9.67 -10.68 9.34 -10 9 C-10.226875 8.236875 -10.45375 7.47375 -10.6875 6.6875 C-11 4 -11 4 -9.6875 2.25 C-6.40085265 -0.18455359 -4.05881935 -0.25367621 0 0 Z " fill="#3F3E41" transform="translate(240,75)"/>
<path d="M0 0 C1.93166016 0.01740234 1.93166016 0.01740234 3.90234375 0.03515625 C5.19269531 0.04417969 6.48304688 0.05320313 7.8125 0.0625 C8.81152344 0.07410156 9.81054688 0.08570313 10.83984375 0.09765625 C10.17984375 4.38765625 9.51984375 8.67765625 8.83984375 13.09765625 C-0.4375 13.1953125 -0.4375 13.1953125 -3.16015625 13.09765625 C-4.16015625 12.09765625 -4.16015625 12.09765625 -4.29296875 9.62890625 C-4.29039062 8.62859375 -4.2878125 7.62828125 -4.28515625 6.59765625 C-4.28773438 5.59734375 -4.2903125 4.59703125 -4.29296875 3.56640625 C-4.09311822 -0.14846237 -3.80556366 0.11760085 0 0 Z M-1.16015625 3.09765625 C-0.50015625 3.75765625 0.15984375 4.41765625 0.83984375 5.09765625 C2.94805172 4.77913855 2.94805172 4.77913855 4.83984375 4.09765625 C4.83984375 3.76765625 4.83984375 3.43765625 4.83984375 3.09765625 C2.85984375 3.09765625 0.87984375 3.09765625 -1.16015625 3.09765625 Z M-1.16015625 8.09765625 C-1.16015625 8.75765625 -1.16015625 9.41765625 -1.16015625 10.09765625 C-0.50015625 9.76765625 0.15984375 9.43765625 0.83984375 9.09765625 C0.17984375 8.76765625 -0.48015625 8.43765625 -1.16015625 8.09765625 Z M4.83984375 8.09765625 C4.50984375 8.75765625 4.17984375 9.41765625 3.83984375 10.09765625 C4.49984375 10.09765625 5.15984375 10.09765625 5.83984375 10.09765625 C5.50984375 9.43765625 5.17984375 8.77765625 4.83984375 8.09765625 Z " fill="#A5D1BF" transform="translate(335.16015625,195.90234375)"/>
<path d="M0 0 C4.62 0 9.24 0 14 0 C14 2.59577667 13.83531288 5.04796754 13.5625 7.625 C13.48128906 8.42164063 13.40007812 9.21828125 13.31640625 10.0390625 C13 12 13 12 12 13 C10.14712498 13.07226502 8.29166122 13.0838122 6.4375 13.0625 C5.42558594 13.05347656 4.41367187 13.04445312 3.37109375 13.03515625 C2.58863281 13.02355469 1.80617188 13.01195312 1 13 C-0.92572521 9.14854957 -0.04883218 4.19956748 0 0 Z M5 3 C5.66 3.66 6.32 4.32 7 5 C7.33 4.34 7.66 3.68 8 3 C7.01 3 6.02 3 5 3 Z M3 7 C3 7.99 3 8.98 3 10 C5.31 10 7.62 10 10 10 C9.67 9.01 9.34 8.02 9 7 C9 7.66 9 8.32 9 9 C7.35 9 5.7 9 4 9 C3.67 8.34 3.34 7.68 3 7 Z " fill="#A2CCBB" transform="translate(331,178)"/>
<path d="M0 0 C2.31 0.66 4.62 1.32 7 2 C8.41755436 9.99295713 8.41755436 9.99295713 6.9375 13.5625 C5 15 5 15 2.0625 15.5 C-1 15 -1 15 -3.4375 13.375 C-5 11 -5 11 -4.75 7.75 C-4.37875 6.38875 -4.37875 6.38875 -4 5 C-3.01 4.67 -2.02 4.34 -1 4 C-0.26676204 1.98491642 -0.26676204 1.98491642 0 0 Z " fill="#72B499" transform="translate(165,262)"/>
<path d="M0 0 C0.33 0 0.66 0 1 0 C1.13277344 1.05960938 1.26554687 2.11921875 1.40234375 3.2109375 C1.58053875 4.59898279 1.7589346 5.98700231 1.9375 7.375 C2.06801758 8.42300781 2.06801758 8.42300781 2.20117188 9.4921875 C2.66318128 13.36783575 2.66318128 13.36783575 4 17 C6.50580398 17.28696929 8.92355619 17.46732761 11.4375 17.5625 C18.76449644 17.88224822 18.76449644 17.88224822 21 19 C23.62380313 19.15660883 26.22524852 19.2582908 28.8515625 19.31640625 C29.62559418 19.33718735 30.39962585 19.35796844 31.19711304 19.37937927 C33.67298392 19.44483448 36.14896202 19.50374087 38.625 19.5625 C40.30209448 19.60568907 41.97917807 19.64930348 43.65625 19.69335938 C47.77072308 19.80051171 51.88530414 19.90179045 56 20 C56 20.33 56 20.66 56 21 C48.66767322 21.05067793 41.33539156 21.08572428 34.00292969 21.10986328 C31.50812085 21.11992561 29.01332382 21.13357679 26.51855469 21.15087891 C22.93421516 21.17511668 19.35003147 21.18648082 15.765625 21.1953125 C14.64883362 21.20563507 13.53204224 21.21595764 12.38140869 21.22659302 C11.34063171 21.22674408 10.29985474 21.22689514 9.22753906 21.22705078 C8.31264709 21.231492 7.39775513 21.23593323 6.45513916 21.24050903 C3.82352479 20.98271223 2.21879369 20.41991405 0 19 C-1.58696844 15.82606311 -1.1431447 12.41825795 -1.125 8.9375 C-1.12886719 8.19177734 -1.13273437 7.44605469 -1.13671875 6.67773438 C-1.12663501 1.12663501 -1.12663501 1.12663501 0 0 Z " fill="#9AC1B6" transform="translate(324,202)"/>
<path d="M0 0 C0.33 0 0.66 0 1 0 C1 2.97 1 5.94 1 9 C4.465 8.505 4.465 8.505 8 8 C8.33 5.69 8.66 3.38 9 1 C9.33 1 9.66 1 10 1 C10 3.31 10 5.62 10 8 C12.64 8 15.28 8 18 8 C18 6.35 18 4.7 18 3 C18.66 2.67 19.32 2.34 20 2 C20.33 3.98 20.66 5.96 21 8 C22.98 8.33 24.96 8.66 27 9 C27 6.03 27 3.06 27 0 C28.83836919 3.67673838 29.93651813 7.04992447 31 11 C29.89712646 10.98428955 29.89712646 10.98428955 28.77197266 10.96826172 C25.38968424 10.92628202 22.00745093 10.9005417 18.625 10.875 C16.89056641 10.84986328 16.89056641 10.84986328 15.12109375 10.82421875 C8.1294696 10.78471805 1.78839267 11.35986156 -5 13 C-6.66548578 13.33918433 -8.33188267 13.67400389 -10 14 C-10 13.34 -10 12.68 -10 12 C-9.34 11.67 -8.68 11.34 -8 11 C-7.53248212 8.64400765 -7.53248212 8.64400765 -7.375 5.9375 C-7.30023438 5.01839844 -7.22546875 4.09929688 -7.1484375 3.15234375 C-7.09945312 2.44207031 -7.05046875 1.73179688 -7 1 C-6.67 1 -6.34 1 -6 1 C-5.67 3.97 -5.34 6.94 -5 10 C-3.35 10 -1.7 10 0 10 C0 6.7 0 3.4 0 0 Z " fill="#579C82" transform="translate(240,48)"/>
<path d="M0 0 C0.33 0 0.66 0 1 0 C0.96953778 6.47322088 -0.4968082 11.98336729 -2.875 17.9375 C-3.13168457 18.5879126 -3.38836914 19.2383252 -3.65283203 19.90844727 C-5.00390195 23.15874274 -6.23667185 25.75789842 -9 28 C-9.07347656 26.82630859 -9.07347656 26.82630859 -9.1484375 25.62890625 C-9.22320312 24.61699219 -9.29796875 23.60507813 -9.375 22.5625 C-9.44460937 21.55316406 -9.51421875 20.54382813 -9.5859375 19.50390625 C-9.72257813 18.67761719 -9.85921875 17.85132813 -10 17 C-10.66 16.67 -11.32 16.34 -12 16 C-11.34 16 -10.68 16 -10 16 C-9.731875 15.236875 -9.46375 14.47375 -9.1875 13.6875 C-8 11 -8 11 -6.58984375 9.59375 C-4.81027123 7.80980507 -3.65960281 5.97583419 -2.375 3.8125 C-1.60979307 2.52556107 -0.82503714 1.24942675 0 0 Z " fill="#559A7F" transform="translate(224,162)"/>
<path d="M0 0 C6.09781001 -0.22084624 11.21642935 -0.01167675 17 2 C17.3690205 14.66970387 17.3690205 14.66970387 15 20 C14.34 20 13.68 20 13 20 C12.67 15.05 12.34 10.1 12 5 C6.76133996 4.12007454 6.76133996 4.12007454 1.625 3.9375 C-0.169375 3.9684375 -0.169375 3.9684375 -2 4 C-1.34 2.68 -0.68 1.36 0 0 Z " fill="#3B4546" transform="translate(257,72)"/>
<path d="M0 0 C9.57 0 19.14 0 29 0 C29.33 1.32 29.66 2.64 30 4 C20.43 4 10.86 4 1 4 C0.67 2.68 0.34 1.36 0 0 Z " fill="#9CCBB8" transform="translate(348,199)"/>
<path d="M0 0 C-0.33 1.32 -0.66 2.64 -1 4 C-0.01 4 0.98 4 2 4 C1.67 4.66 1.34 5.32 1 6 C0.236875 5.95875 -0.52625 5.9175 -1.3125 5.875 C-4.22718416 5.77919176 -4.22718416 5.77919176 -7 8 C-10.63746203 8.15400545 -13.98385875 7.69859711 -17 5.625 C-18 4 -18 4 -18 1 C-16.12528812 0.83012319 -14.25021305 0.66425224 -12.375 0.5 C-11.33085937 0.4071875 -10.28671875 0.314375 -9.2109375 0.21875 C-6.12853212 0.00875645 -3.08834771 -0.03709727 0 0 Z " fill="#DFB2A1" transform="translate(285,432)"/>
<path d="M0 0 C2 1 2 1 3.4375 3.5625 C3.953125 4.366875 4.46875 5.17125 5 6 C5.99 6 6.98 6 8 6 C8 6.99 8 7.98 8 9 C8.99 9.33 9.98 9.66 11 10 C9.35 11.65 7.7 13.3 6 15 C1.34352424 12.24844614 -1.2725704 9.82545236 -4 5 C-4 4.34 -4 3.68 -4 3 C-3.01 2.67 -2.02 2.34 -1 2 C-0.67 1.34 -0.34 0.68 0 0 Z " fill="#C2EBCD" transform="translate(134,321)"/>
<path d="M0 0 C26.235 0.99 26.235 0.99 53 2 C53 2.33 53 2.66 53 3 C47.06494939 4.29379996 41.16573433 4.14707333 35.125 4.125 C33.54912109 4.13080078 33.54912109 4.13080078 31.94140625 4.13671875 C27.51322172 4.13117659 23.1644247 4.10355324 18.7734375 3.49609375 C14.63792848 2.95239846 10.66151093 2.88740774 6.5 2.9375 C5.40945312 2.94426758 5.40945312 2.94426758 4.296875 2.95117188 C2.53121319 2.96278807 0.7655947 2.98071559 -1 3 C-0.67 2.01 -0.34 1.02 0 0 Z " fill="#A0968E" transform="translate(217,259)"/>
<path d="M0 0 C0.33 0.66 0.66 1.32 1 2 C0.67 2.66 0.34 3.32 0 4 C0.66 4 1.32 4 2 4 C3 5 4 6 5 7 C7.09989652 8.17574711 7.09989652 8.17574711 9 9 C9 9.66 9 10.32 9 11 C9.78375 10.814375 10.5675 10.62875 11.375 10.4375 C14 10 14 10 16 11 C16 11.66 16 12.32 16 13 C15.34 13 14.68 13 14 13 C14 13.66 14 14.32 14 15 C10.65269099 15.956374 8.17362775 16.64561055 5.01171875 14.90625 C2.17075691 12.60054184 0.30565885 10.85584479 -0.9375 7.375 C-0.99340439 5.25063333 -1 3.12510212 -1 1 C-0.67 0.67 -0.34 0.34 0 0 Z " fill="#7BB39C" transform="translate(192,224)"/>
<path d="M0 0 C0.99 0.33 1.98 0.66 3 1 C3.33 1.99 3.66 2.98 4 4 C4.66 4.66 5.32 5.32 6 6 C6.625 8.625 6.625 8.625 7 11 C2.25 12 2.25 12 0 12 C-0.33 12.66 -0.66 13.32 -1 14 C-0.34 14.33 0.32 14.66 1 15 C0.67 15.99 0.34 16.98 0 18 C-3.52760833 13.73747327 -3.35559924 9.70202723 -3.3984375 4.42578125 C-3.26695312 3.62527344 -3.13546875 2.82476562 -3 2 C-2.01 1.34 -1.02 0.68 0 0 Z " fill="#7FBDA5" transform="translate(134,282)"/>
<path d="M0 0 C0.33 0 0.66 0 1 0 C1.13277344 0.62648438 1.26554687 1.25296875 1.40234375 1.8984375 C1.57894531 2.71570313 1.75554687 3.53296875 1.9375 4.375 C2.11152344 5.18710937 2.28554688 5.99921875 2.46484375 6.8359375 C2.92330693 9.029463 2.92330693 9.029463 4 11 C4.09534254 12.6853196 4.12985758 14.37449266 4.125 16.0625 C4.12757813 16.96097656 4.13015625 17.85945313 4.1328125 18.78515625 C4 21 4 21 3 22 C2.95919217 23.99958364 2.95745644 26.00045254 3 28 C4.98 28 6.96 28 9 28 C9 28.99 9 29.98 9 31 C2.6166552 31.48176187 2.6166552 31.48176187 0 29.4375 C-1.42032862 25.97544899 -0.73958963 23.63631567 0 20 C0.94307522 15.02742158 0.95330408 12.5960096 -1 8 C-1.1875 4.25 -1.1875 4.25 -1 1 C-0.67 0.67 -0.34 0.34 0 0 Z " fill="#E6AEA3" transform="translate(297,260)"/>
<path d="M0 0 C9.9 0 19.8 0 30 0 C30 0.99 30 1.98 30 3 C20.1 3 10.2 3 0 3 C0 2.01 0 1.02 0 0 Z " fill="#97C0B2" transform="translate(348,181)"/>
<path d="M0 0 C1.52519276 0.08937803 3.04681929 0.24537146 4.5625 0.4375 C5.38878906 0.53933594 6.21507812 0.64117187 7.06640625 0.74609375 C7.70449219 0.82988281 8.34257812 0.91367188 9 1 C8.67 1.99 8.34 2.98 8 4 C10.64 4.33 13.28 4.66 16 5 C16 5.33 16 5.66 16 6 C13.94921875 6.22786458 11.8984375 6.45572917 9.84765625 6.68359375 C7.98859771 6.81886614 7.98859771 6.81886614 7 8 C5 8 3 8 1 8 C0.01 8.495 0.01 8.495 -1 9 C-1.66 8.67 -2.32 8.34 -3 8 C-1.125 1.125 -1.125 1.125 0 0 Z " fill="#F6B399" transform="translate(220,224)"/>
<path d="M0 0 C0 0.66 0 1.32 0 2 C0.99 2.33 1.98 2.66 3 3 C3 3.99 3 4.98 3 6 C0 7 0 7 -3 7 C-3.33 8.32 -3.66 9.64 -4 11 C-3.34 11 -2.68 11 -2 11 C-2 10.34 -2 9.68 -2 9 C1.465 8.505 1.465 8.505 5 8 C4.67 9.32 4.34 10.64 4 12 C-2.625 13.25 -2.625 13.25 -6 11 C-6.95678053 7.3095608 -7.51092853 5.04874803 -5.8125 1.5625 C-4 0 -4 0 0 0 Z " fill="#D9EFE0" transform="translate(176,279)"/>
<path d="M0 0 C0.33 0 0.66 0 1 0 C2.99180882 10.95494853 2.71227047 20.02093152 -2.5625 29.9375 C-4 32 -4 32 -6 33 C-6.66 33.99 -7.32 34.98 -8 36 C-8.33 34.35 -8.66 32.7 -9 31 C-8.34 31 -7.68 31 -7 31 C-7.33 30.01 -7.66 29.02 -8 28 C-6.35 27.67 -4.7 27.34 -3 27 C-2.93941406 26.28972656 -2.87882812 25.57945313 -2.81640625 24.84765625 C-2.73261719 23.92855469 -2.64882813 23.00945312 -2.5625 22.0625 C-2.48128906 21.14597656 -2.40007812 20.22945312 -2.31640625 19.28515625 C-2 17 -2 17 -1 16 C-0.76321284 13.30764224 -0.57801975 10.63501844 -0.4375 7.9375 C-0.39431641 7.17888672 -0.35113281 6.42027344 -0.30664062 5.63867188 C-0.20026367 3.75934562 -0.09960066 1.87969756 0 0 Z " fill="#EDBBAA" transform="translate(269,85)"/>
<path d="M0 0 C0.66 0.33 1.32 0.66 2 1 C-0.50335194 3.64640063 -2.51779917 5.76425737 -5.8125 7.375 C-6.8953125 8.179375 -6.8953125 8.179375 -8 9 C-8.41725678 12.62599422 -8.41725678 12.62599422 -8 16 C-8.33 16 -8.66 16 -9 16 C-9 14.35 -9 12.7 -9 11 C-9.8971875 11.3403125 -9.8971875 11.3403125 -10.8125 11.6875 C-11.534375 11.790625 -12.25625 11.89375 -13 12 C-14.75 10.5625 -14.75 10.5625 -16 9 C-15.34 9 -14.68 9 -14 9 C-14.33 8.01 -14.66 7.02 -15 6 C-14.34 5.01 -13.68 4.02 -13 3 C-12.67 3.33 -12.34 3.66 -12 4 C-9.96014353 4.01273699 -9.96014353 4.01273699 -7.625 3.75 C-6.83351562 3.68296875 -6.04203125 3.6159375 -5.2265625 3.546875 C-2.64866439 2.91370704 -1.67632496 2.01158996 0 0 Z " fill="#6DAB93" transform="translate(239,36)"/>
<path d="M0 0 C5.88664939 0.99418967 10.33746235 2.17432808 15 6 C15 6.66 15 7.32 15 8 C15.66 8 16.32 8 17 8 C16.67 8.66 16.34 9.32 16 10 C14.53984709 9.71758359 13.08190207 9.42373386 11.625 9.125 C10.81289062 8.96257812 10.00078125 8.80015625 9.1640625 8.6328125 C7 8 7 8 5 6 C5 5.34 5 4.68 5 4 C4.34 4 3.68 4 3 4 C2.01 6.31 1.02 8.62 0 11 C-0.33 11 -0.66 11 -1 11 C-1.125 3.375 -1.125 3.375 0 0 Z " fill="#7CB9A3" transform="translate(131,279)"/>
<path d="M0 0 C2.64 0 5.28 0 8 0 C6.02 0.99 6.02 0.99 4 2 C4.825 2.433125 5.65 2.86625 6.5 3.3125 C7.325 3.869375 8.15 4.42625 9 5 C9 5.99 9 6.98 9 8 C8.34 8 7.68 8 7 8 C7 8.66 7 9.32 7 10 C8.65 10 10.3 10 12 10 C12 10.33 12 10.66 12 11 C8.04 11 4.08 11 0 11 C0 7.37 0 3.74 0 0 Z M3 7 C3 7.66 3 8.32 3 9 C3.66 8.67 4.32 8.34 5 8 C4.34 7.67 3.68 7.34 3 7 Z " fill="#8CC0AC" transform="translate(331,197)"/>
<path d="M0 0 C0.33 0.66 0.66 1.32 1 2 C0.67 2.66 0.34 3.32 0 4 C2.475 4.99 2.475 4.99 5 6 C5 7.32 5 8.64 5 10 C4.26394531 9.79761719 3.52789062 9.59523437 2.76953125 9.38671875 C-0.19877438 8.68483406 -2.95064646 8.1376295 -6 8 C-9.10614087 10.02208359 -9.10614087 10.02208359 -11 13 C-12 14 -13 15 -14 16 C-13.49396008 13.83125748 -13.00016187 12.00032373 -12 10 C-11.34 10 -10.68 10 -10 10 C-10 9.34 -10 8.68 -10 8 C-8.38542921 6.56418526 -6.70780925 5.19855217 -5 3.875 C-4.071875 3.15054688 -3.14375 2.42609375 -2.1875 1.6796875 C-1.465625 1.12539062 -0.74375 0.57109375 0 0 Z " fill="#62AA8F" transform="translate(208,214)"/>
<path d="M0 0 C1.8871875 0.061875 1.8871875 0.061875 3.8125 0.125 C3.8125 2.75334278 3.61460238 5.20686701 3.3125 7.8125 C3.2196875 8.62074219 3.126875 9.42898437 3.03125 10.26171875 C2.9590625 10.87660156 2.886875 11.49148437 2.8125 12.125 C2.4825 11.465 2.1525 10.805 1.8125 10.125 C-0.08283342 9.65976937 -0.08283342 9.65976937 -2.25 9.5 C-3.549375 9.37625 -4.84875 9.2525 -6.1875 9.125 C-6.5175 8.135 -6.8475 7.145 -7.1875 6.125 C-5.8675 5.465 -4.5475 4.805 -3.1875 4.125 C-4.5075 4.125 -5.8275 4.125 -7.1875 4.125 C-7.1875 3.465 -7.1875 2.805 -7.1875 2.125 C-4.09861478 0.06574319 -3.47814073 -0.1140374 0 0 Z " fill="#99C8B6" transform="translate(341.1875,177.875)"/>
<path d="M0 0 C2.125 0.375 2.125 0.375 4 1 C4.66 3.31 5.32 5.62 6 8 C5.34 8.66 4.68 9.32 4 10 C4.33 10.66 4.66 11.32 5 12 C3.68 12.33 2.36 12.66 1 13 C-3.03471698 6.64226415 -3.03471698 6.64226415 -2.875 3.6875 C-2 2 -2 2 0 0 Z " fill="#EBB5A3" transform="translate(232,91)"/>
<path d="M0 0 C0 0.66 0 1.32 0 2 C0.65226563 1.89300781 1.30453125 1.78601563 1.9765625 1.67578125 C7.60497371 0.90374254 11.05074022 0.74390804 16 4 C16 4.66 16 5.32 16 6 C12.7 5.67 9.4 5.34 6 5 C6 5.66 6 6.32 6 7 C5.34 7 4.68 7 4 7 C4 6.34 4 5.68 4 5 C-2.28851034 3.70383728 -2.28851034 3.70383728 -8 6 C-6.56530686 1.69592058 -4.58010985 0 0 0 Z " fill="#D1B59B" transform="translate(224,221)"/>
<path d="M0 0 C5.95507399 0.3916035 10.62819824 1.37124595 16 4 C15.34 5.65 14.68 7.3 14 9 C10.78539715 8.33795365 8.18997833 7.19453363 5.3125 5.625 C4.52488281 5.20476562 3.73726563 4.78453125 2.92578125 4.3515625 C1 3 1 3 0 0 Z " fill="#DBEEE1" transform="translate(300,90)"/>
<path d="M0 0 C0.54527344 0.19335938 1.09054688 0.38671875 1.65234375 0.5859375 C7.0438052 2.44760453 12.40921726 3.87655666 18 5 C17.625 6.9375 17.625 6.9375 17 9 C14.39878813 10.30060593 13.50020019 9.82318917 10.75 9 C5.66730248 7.25102654 3.02421369 4.32877645 0 0 Z " fill="#ED9A85" transform="translate(243,113)"/>
<path d="M0 0 C5.61 0.66 11.22 1.32 17 2 C17 3.98 17 5.96 17 8 C16.319375 7.484375 15.63875 6.96875 14.9375 6.4375 C11.16667491 4.59220261 9.0150735 4.99623162 5 6 C4.67 6.66 4.34 7.32 4 8 C1.9375 8.625 1.9375 8.625 0 9 C0.185625 7.88625 0.37125 6.7725 0.5625 5.625 C1.31680657 2.17431139 1.31680657 2.17431139 0 0 Z " fill="#E2BCB2" transform="translate(207,431)"/>
<path d="M0 0 C3.95700733 5.935511 5.01162002 13.96683228 4 21 C2.96292513 24.16992697 1.74255768 27.1508546 0 30 C-0.66 30.33 -1.32 30.66 -2 31 C-2.20086443 27.28400809 -2.1519437 26.22791555 0 23 C1.39758522 15.24975472 0.72185768 7.80716841 0 0 Z " fill="#F0C4B8" transform="translate(308,258)"/>
<path d="M0 0 C0.72933428 3.04331303 1.23051503 5.86709114 1 9 C-0.75250237 11.42910139 -2.39366191 12.38407038 -5 14 C-5.33 14 -5.66 14 -6 14 C-6.62572422 6.02201622 -6.62572422 6.02201622 -4.125 1.9375 C-2 0 -2 0 0 0 Z " fill="#4D886D" transform="translate(263,122)"/>
<path d="M0 0 C0.66 0.33 1.32 0.66 2 1 C1.46148032 6.27749285 0.22656164 10.25645564 -2 15 C-3.32 14.67 -4.64 14.34 -6 14 C-6 12.02 -6 10.04 -6 8 C-5.38125 7.79375 -4.7625 7.5875 -4.125 7.375 C-1.15346355 5.45224112 -0.86975341 3.33405473 0 0 Z " fill="#ED9A84" transform="translate(305,274)"/>
<path d="M0 0 C0.33 0 0.66 0 1 0 C1 5.66666667 1 11.33333333 1 17 C0.01 16.67 -0.98 16.34 -2 16 C-2.33 15.34 -2.66 14.68 -3 14 C-4.89533342 13.53476937 -4.89533342 13.53476937 -7.0625 13.375 C-8.361875 13.25125 -9.66125 13.1275 -11 13 C-10.67 12.34 -10.34 11.68 -10 11 C-7.0170339 10.40227901 -4.03669195 10.25662185 -1 10 C-0.67 6.7 -0.34 3.4 0 0 Z " fill="#9AC5B2" transform="translate(149,290)"/>
<path d="M0 0 C0 0.66 0 1.32 0 2 C-4.455 2.495 -4.455 2.495 -9 3 C-10.15811388 5.94729537 -10.15811388 5.94729537 -10 9 C-11 11.1875 -11 11.1875 -12 13 C-12.66 12.67 -13.32 12.34 -14 12 C-14 8.7 -14 5.4 -14 2 C-9.126739 0.4087311 -5.19209404 -0.21192221 0 0 Z " fill="#48504F" transform="translate(241,73)"/>
<path d="M0 0 C5.94 0 11.88 0 18 0 C18 0.99 18 1.98 18 3 C12.06 3 6.12 3 0 3 C0 2.01 0 1.02 0 0 Z " fill="#8BBEAD" transform="translate(348,186)"/>
<path d="M0 0 C0.14179688 0.60714844 0.28359375 1.21429687 0.4296875 1.83984375 C0.96937848 4.11002554 0.96937848 4.11002554 2.125 6.5625 C3 9 3 9 2 12 C3.32 12.33 4.64 12.66 6 13 C5.67 14.32 5.34 15.64 5 17 C2.06845375 15.98912198 0.98027436 14.97304162 -0.875 12.4375 C-2.39142178 7.80398901 -1.40838543 4.55952119 0 0 Z " fill="#8ABAAA" transform="translate(219,30)"/>
<path d="M0 0 C5.94 0 11.88 0 18 0 C17.67 0.99 17.34 1.98 17 3 C11.39 3 5.78 3 0 3 C0 2.01 0 1.02 0 0 Z " fill="#B0C8C0" transform="translate(348,205)"/>
<path d="M0 0 C0.33 0 0.66 0 1 0 C1 2.31 1 4.62 1 7 C1.66 7 2.32 7 3 7 C2.39147692 10.54971796 1.61653196 13.76693609 0 17 C-0.99 17.33 -1.98 17.66 -3 18 C-2.57045059 11.74892565 -1.98598493 5.95795479 0 0 Z " fill="#D7EBDE" transform="translate(128,145)"/>
<path d="M0 0 C0.33 0.99 0.66 1.98 1 3 C-4.61 3.99 -10.22 4.98 -16 6 C-16 4.68 -16 3.36 -16 2 C-10.54538831 0.61470179 -5.63281599 -0.2396943 0 0 Z " fill="#6D977A" transform="translate(229,239)"/>
<path d="M0 0 C2.875 0.3125 2.875 0.3125 6 1 C8 4 8 4 7.625 6.1875 C7.41875 6.785625 7.2125 7.38375 7 8 C1.57842646 9.99159844 -1.42806631 10.22877348 -7 8 C-7.33 7.34 -7.66 6.68 -8 6 C-3.53160785 5.78721942 -0.17737474 6.40861915 4 8 C4.33 6.35 4.66 4.7 5 3 C2.525 2.01 2.525 2.01 0 1 C0 0.67 0 0.34 0 0 Z " fill="#80AC90" transform="translate(236,229)"/>
<path d="M0 0 C-0.1875 1.875 -0.1875 1.875 -1 4 C-3.5625 5.25 -3.5625 5.25 -6 6 C-6 6.66 -6 7.32 -6 8 C-6.99 8.33 -7.98 8.66 -9 9 C-9.33 8.01 -9.66 7.02 -10 6 C-11.32 6.33 -12.64 6.66 -14 7 C-11.86099367 4.66714622 -9.83344647 3.2131241 -7 1.8125 C-6.319375 1.46832031 -5.63875 1.12414062 -4.9375 0.76953125 C-3 0 -3 0 0 0 Z " fill="#D8EEDF" transform="translate(178,93)"/>
<path d="M0 0 C1.32 0 2.64 0 4 0 C4.1799928 5.21979128 3.97094808 9.07262981 2 14 C1.34 14 0.68 14 0 14 C0 9.38 0 4.76 0 0 Z " fill="#675957" transform="translate(270,78)"/>
<path d="M0 0 C0.33 0 0.66 0 1 0 C1.02690844 2.62506802 1.04679404 5.24986173 1.0625 7.875 C1.07087891 8.62136719 1.07925781 9.36773437 1.08789062 10.13671875 C1.11328125 15.7734375 1.11328125 15.7734375 0 18 C-0.0689472 19.37342831 -0.08467708 20.75002102 -0.0625 22.125 C-0.041875 23.40375 -0.02125 24.6825 0 26 C-1.9375 25.1875 -1.9375 25.1875 -4 24 C-4.33 23.01 -4.66 22.02 -5 21 C-4.34 20.67 -3.68 20.34 -3 20 C-3.33 19.34 -3.66 18.68 -4 18 C-3.34 17.67 -2.68 17.34 -2 17 C-2.33 16.34 -2.66 15.68 -3 15 C-2.34 14.34 -1.68 13.68 -1 13 C-0.53513282 9.87803664 -0.53513282 9.87803664 -0.375 6.375 C-0.30023438 5.18648438 -0.22546875 3.99796875 -0.1484375 2.7734375 C-0.09945312 1.85820313 -0.05046875 0.94296875 0 0 Z " fill="#9E786C" transform="translate(239,82)"/>
<path d="M0 0 C0.99 0.33 1.98 0.66 3 1 C3.12036664 6.77759884 2.8320582 12.27959989 2 18 C1.67 18 1.34 18 1 18 C0.67 16.02 0.34 14.04 0 12 C-0.33 12 -0.66 12 -1 12 C-0.67 8.04 -0.34 4.08 0 0 Z " fill="#E0EFE6" transform="translate(350,285)"/>
<path d="M0 0 C0.99 0.33 1.98 0.66 3 1 C3 1.99 3 2.98 3 4 C4.32 4 5.64 4 7 4 C7.33 5.65 7.66 7.3 8 9 C6.35 9 4.7 9 3 9 C2.896875 8.360625 2.79375 7.72125 2.6875 7.0625 C2.460625 6.381875 2.23375 5.70125 2 5 C1.01 4.67 0.02 4.34 -1 4 C-0.67 2.68 -0.34 1.36 0 0 Z " fill="#88BFA5" transform="translate(178,275)"/>
<path d="M0 0 C0.33 0.99 0.66 1.98 1 3 C1.66 3 2.32 3 3 3 C3.19532961 4.7699868 3.38098882 6.54104279 3.5625 8.3125 C3.66691406 9.29863281 3.77132813 10.28476563 3.87890625 11.30078125 C4 14 4 14 3 17 C-0.3 17.66 -3.6 18.32 -7 19 C-6.67 18.34 -6.34 17.68 -6 17 C-2.9375 16.375 -2.9375 16.375 0 16 C0 15.01 0 14.02 0 13 C0.66 13 1.32 13 2 13 C2 10.36 2 7.72 2 5 C1.34 5 0.68 5 0 5 C0 3.35 0 1.7 0 0 Z " fill="#95BAA8" transform="translate(307,237)"/>
<path d="M0 0 C0.33 0 0.66 0 1 0 C1.8320582 5.72040011 2.12036664 11.22240116 2 17 C1.01 17 0.02 17 -1 17 C-1.02684679 14.35409986 -1.04676357 11.70846904 -1.0625 9.0625 C-1.07087891 8.30775391 -1.07925781 7.55300781 -1.08789062 6.77539062 C-1.09652441 4.85005687 -1.05224333 2.92464419 -1 1 C-0.67 0.67 -0.34 0.34 0 0 Z " fill="#91BCAD" transform="translate(324,202)"/>
<path d="M0 0 C0.33 0.66 0.66 1.32 1 2 C0.67 2.66 0.34 3.32 0 4 C0.66 4 1.32 4 2 4 C2.45375 4.94875 2.9075 5.8975 3.375 6.875 C4.80238254 10.00313679 4.80238254 10.00313679 7 12 C6.01 13.485 6.01 13.485 5 15 C1.45287459 11.81668232 -0.62770638 9.8398171 -1 5 C-1 1 -1 1 0 0 Z " fill="#7CB29C" transform="translate(192,224)"/>
<path d="M0 0 C8.25 0 16.5 0 25 0 C26.35439668 2.70879335 26.06501451 5.00933268 26 8 C25.67 8 25.34 8 25 8 C25 6.35 25 4.7 25 3 C23.68 3.33 22.36 3.66 21 4 C20.67 3.34 20.34 2.68 20 2 C13.4 1.67 6.8 1.34 0 1 C0 0.67 0 0.34 0 0 Z " fill="#C69C8C" transform="translate(244,77)"/>
<path d="M0 0 C0 0.33 0 0.66 0 1 C-0.96099609 1.14695312 -0.96099609 1.14695312 -1.94140625 1.296875 C-6.28200304 2.04726133 -9.99625061 2.74621949 -13.75 5.125 C-17.23217622 7.13394782 -19.05980419 7.38440935 -23 7 C-22.67 6.34 -22.34 5.68 -22 5 C-21.236875 4.855625 -20.47375 4.71125 -19.6875 4.5625 C-16.95826862 4.18921389 -16.95826862 4.18921389 -15 2.5 C-10.61716491 -0.78712632 -5.23543505 -0.08873619 0 0 Z " fill="#9DC4B4" transform="translate(257,17)"/>
<path d="M0 0 C2.02558881 3.34939881 2.21738987 5.86962551 2.125 9.75 C2.10695312 10.73484375 2.08890625 11.7196875 2.0703125 12.734375 C2.03550781 13.85585937 2.03550781 13.85585937 2 15 C0.68 14.67 -0.64 14.34 -2 14 C-2 10.7 -2 7.4 -2 4 C-1.34 4 -0.68 4 0 4 C-0.33 3.01 -0.66 2.02 -1 1 C-0.67 0.67 -0.34 0.34 0 0 Z " fill="#E4BDB0" transform="translate(239,104)"/>
<path d="M0 0 C0.99 0.33 1.98 0.66 3 1 C3.33 2.65 3.66 4.3 4 6 C-0.75 9 -0.75 9 -3 9 C-3.1875 5.625 -3.1875 5.625 -3 2 C-2.01 1.34 -1.02 0.68 0 0 Z " fill="#6DAD95" transform="translate(134,282)"/>
<path d="M0 0 C0.66 0.33 1.32 0.66 2 1 C2 1.99 2 2.98 2 4 C4.97 4 7.94 4 11 4 C11 4.33 11 4.66 11 5 C8.69 5 6.38 5 4 5 C4.02320313 5.83144531 4.04640625 6.66289062 4.0703125 7.51953125 C4.09738281 9.14955078 4.09738281 9.14955078 4.125 10.8125 C4.14820313 11.89144531 4.17140625 12.97039062 4.1953125 14.08203125 C4 17 4 17 2 20 C2.33 15.05 2.66 10.1 3 5 C1.68 4.34 0.36 3.68 -1 3 C-1.66 2.34 -2.32 1.68 -3 1 C-2.01 0.67 -1.02 0.34 0 0 Z " fill="#CBC4B5" transform="translate(209,236)"/>
<path d="M0 0 C2 2 2 2 2.08203125 4.3125 C1.99308594 5.199375 1.90414063 6.08625 1.8125 7 C1.73644531 7.886875 1.66039062 8.77375 1.58203125 9.6875 C1 12 1 12 -2 14 C-4.73990408 13.96856707 -7.28417854 13.44521663 -10 13 C-10 12.67 -10 12.34 -10 12 C-7.03 11.34 -4.06 10.68 -1 10 C-1.020625 8.72125 -1.04125 7.4425 -1.0625 6.125 C-1.125 2.25 -1.125 2.25 0 0 Z " fill="#8AB4A6" transform="translate(384,208)"/>
<path d="M0 0 C2.59213877 3.81196878 1.74410672 6.60977034 1 11 C0.96296763 13.33303944 0.95239087 15.66715242 1 18 C-0.95849665 16.12310738 -1.92102043 14.61352249 -2.26953125 11.90625 C-2.35016412 7.50809362 -2.05627015 3.98402342 0 0 Z " fill="#93C1B0" transform="translate(172,187)"/>
<path d="M0 0 C1 3 1 3 -0.1875 6.4375 C-1.86744743 9.73946563 -3.29610251 11.55777001 -6 14 C-6.66 14.99 -7.32 15.98 -8 17 C-8.33 15.35 -8.66 13.7 -9 12 C-8.34 12 -7.68 12 -7 12 C-7.33 11.01 -7.66 10.02 -8 9 C-6.35 8.67 -4.7 8.34 -3 8 C-3 7.34 -3 6.68 -3 6 C-2.34 6 -1.68 6 -1 6 C-1.020625 5.195625 -1.04125 4.39125 -1.0625 3.5625 C-1 1 -1 1 0 0 Z " fill="#F4C9B8" transform="translate(269,104)"/>
<path d="M0 0 C1.9375 0.375 1.9375 0.375 4 1 C4.33 1.66 4.66 2.32 5 3 C5.66 2.01 6.32 1.02 7 0 C7 2.31 7 4.62 7 7 C5.25 7.75 5.25 7.75 3 8 C0.6875 6.3125 0.6875 6.3125 -1 4 C-0.75 1.75 -0.75 1.75 0 0 Z " fill="#7EBAA6" transform="translate(209,214)"/>
<path d="M0 0 C0 3 0 3 -1 5 C-3.21484375 5.34375 -3.21484375 5.34375 -5.9375 5.5 C-9.94706229 5.59786386 -9.94706229 5.59786386 -13 8 C-13 7.34 -13 6.68 -13 6 C-13.66 6 -14.32 6 -15 6 C-15 5.34 -15 4.68 -15 4 C-14.34 4 -13.68 4 -13 4 C-13 3.34 -13 2.68 -13 2 C-11.71802734 1.90912109 -11.71802734 1.90912109 -10.41015625 1.81640625 C-8.75306641 1.69072266 -8.75306641 1.69072266 -7.0625 1.5625 C-5.96035156 1.48128906 -4.85820312 1.40007812 -3.72265625 1.31640625 C-1.08890097 1.29581916 -1.08890097 1.29581916 0 0 Z " fill="#A9CBC0" transform="translate(339,160)"/>
<path d="M0 0 C2.10827055 3.16240582 2.33817465 4.50657469 2.625 8.1875 C2.69976562 9.08855469 2.77453125 9.98960937 2.8515625 10.91796875 C2.90054687 11.60503906 2.94953125 12.29210937 3 13 C2.34 13 1.68 13 1 13 C0.67 12.01 0.34 11.02 0 10 C-0.99 10.99 -1.98 11.98 -3 13 C-3.33 11.02 -3.66 9.04 -4 7 C-3.01 6.67 -2.02 6.34 -1 6 C-0.67 4.02 -0.34 2.04 0 0 Z " fill="#81BBA6" transform="translate(291,153)"/>
<path d="M0 0 C0 3.4875513 -0.26792727 6.5836606 -1 10 C-3.0625 11.9375 -3.0625 11.9375 -5 13 C-5.99 12.34 -6.98 11.68 -8 11 C-5.36 7.37 -2.72 3.74 0 0 Z " fill="#93C6B3" transform="translate(203,140)"/>
<path d="M0 0 C0.33 0 0.66 0 1 0 C1.33 2.31 1.66 4.62 2 7 C3.98 7 5.96 7 8 7 C8 7.99 8 8.98 8 10 C1.57472739 10.48492623 1.57472739 10.48492623 -1 8.3125 C-2.25076218 5.42011247 -1.95997193 3.95991344 -1 1 C-0.67 0.67 -0.34 0.34 0 0 Z " fill="#E1A299" transform="translate(298,281)"/>
<path d="M0 0 C1.485 0.99 1.485 0.99 3 2 C2.34 3.98 1.68 5.96 1 8 C0.67 8 0.34 8 0 8 C0 5.36 0 2.72 0 0 Z M-1 8 C-0.67 8 -0.34 8 0 8 C1.11658501 12.68965706 0.80619523 15.53763531 -1 20 C-1.33 20 -1.66 20 -2 20 C-2.02698189 18.37509046 -2.04638757 16.75005367 -2.0625 15.125 C-2.07410156 14.22007812 -2.08570313 13.31515625 -2.09765625 12.3828125 C-2 10 -2 10 -1 8 Z " fill="#CBE8D7" transform="translate(132,184)"/>
<path d="M0 0 C0.103125 0.598125 0.20625 1.19625 0.3125 1.8125 C1.08876455 4.28243264 2.07088921 5.32251235 4 7 C2.03617993 8.50559539 0.21736634 9.89131683 -2 11 C-4 8 -4 8 -4 5 C-2 2.3125 -2 2.3125 0 0 Z " fill="#EDAD94" transform="translate(213,229)"/>
<path d="M0 0 C2.0625 1.25 2.0625 1.25 3 3 C2.6875 5.1875 2.6875 5.1875 2 7 C2 6.34 2 5.68 2 5 C-1.15506142 4.06380187 -3.96586502 3.8942877 -7.25 3.9375 C-8.58804687 3.95103516 -8.58804687 3.95103516 -9.953125 3.96484375 C-10.62859375 3.97644531 -11.3040625 3.98804688 -12 4 C-12 3.34 -12 2.68 -12 2 C-8.06393081 -0.62404613 -4.57409061 -0.36302306 0 0 Z " fill="#A6CEC0" transform="translate(382,162)"/>
<path d="M0 0 C0.99 0.33 1.98 0.66 3 1 C2.34 1.66 1.68 2.32 1 3 C0.54188325 4.97235333 0.54188325 4.97235333 0.375 7.125 C0.189375 9.043125 0.189375 9.043125 0 11 C-0.99 11 -1.98 11 -3 11 C-3.33 8.03 -3.66 5.06 -4 2 C-2.68 1.34 -1.36 0.68 0 0 Z " fill="#CCB099" transform="translate(257,124)"/>
<path d="M0 0 C-0.33 0.99 -0.66 1.98 -1 3 C-1.66 3 -2.32 3 -3 3 C-3 3.66 -3 4.32 -3 5 C-5.45840605 5.02691685 -7.91651882 5.04679802 -10.375 5.0625 C-11.07367188 5.07087891 -11.77234375 5.07925781 -12.4921875 5.08789062 C-17.7734375 5.11328125 -17.7734375 5.11328125 -20 4 C-20 3.34 -20 2.68 -20 2 C-19.505 2.165 -19.01 2.33 -18.5 2.5 C-10.68486758 4.06302648 -6.86754859 0 0 0 Z " fill="#599E85" transform="translate(264,34)"/>
<path d="M0 0 C1.32 0 2.64 0 4 0 C4 0.66 4 1.32 4 2 C4.99 2.33 5.98 2.66 7 3 C7 3.99 7 4.98 7 6 C4.35118859 6.88293714 2.74807818 7 0 7 C0 4.69 0 2.38 0 0 Z " fill="#CCEDD6" transform="translate(172,279)"/>
<path d="M0 0 C6.44807122 0.60830861 6.44807122 0.60830861 8.9375 2.375 C10 4 10 4 10 7 C5.71 6.67 1.42 6.34 -3 6 C-3 5.67 -3 5.34 -3 5 C1.455 4.505 1.455 4.505 6 4 C4.02 3.01 2.04 2.02 0 1 C0 0.67 0 0.34 0 0 Z " fill="#579D82" transform="translate(187,189)"/>
<path d="M0 0 C2.69082872 0.17635452 5.32851446 0.61835921 8 1 C8 1.33 8 1.66 8 2 C5.69 2 3.38 2 1 2 C1 2.66 1 3.32 1 4 C1.99 4 2.98 4 4 4 C4 4.66 4 5.32 4 6 C3.01 6 2.02 6 1 6 C1 7.32 1 8.64 1 10 C0.34 10 -0.32 10 -1 10 C-1.02689216 8.52093108 -1.04634621 7.04172517 -1.0625 5.5625 C-1.07410156 4.73878906 -1.08570313 3.91507813 -1.09765625 3.06640625 C-1 1 -1 1 0 0 Z " fill="#7BB49D" transform="translate(333,178)"/>
<path d="M0 0 C4.455 0.99 4.455 0.99 9 2 C6 4 6 4 3 4 C2.01 6.31 1.02 8.62 0 11 C-0.33 11 -0.66 11 -1 11 C-1.125 3.375 -1.125 3.375 0 0 Z " fill="#ACD2C2" transform="translate(131,279)"/>
<path d="M0 0 C0.66 0.33 1.32 0.66 2 1 C2.33 1.99 2.66 2.98 3 4 C2.34 4 1.68 4 1 4 C0.79859524 7.62528568 1.14223235 9.86501708 3 13 C-0.39417765 9.87378374 -2.6062718 7.43458973 -4 3 C-3.01 2.67 -2.02 2.34 -1 2 C-0.67 1.34 -0.34 0.68 0 0 Z " fill="#DCF2E1" transform="translate(134,321)"/>
<path d="M0 0 C3.01217112 0.64449607 5.51655836 1.65022182 8.25 3.0625 C8.95640625 3.42472656 9.6628125 3.78695312 10.390625 4.16015625 C10.92171875 4.43730469 11.4528125 4.71445313 12 5 C12 5.33 12 5.66 12 6 C10.02 6 8.04 6 6 6 C6 5.34 6 4.68 6 4 C1.87026372 4.56739868 1.87026372 4.56739868 -2 6 C-1.34 4.02 -0.68 2.04 0 0 Z " fill="#6F9379" transform="translate(237,119)"/>
<path d="M0 0 C-0.34879632 3.25543229 -1.02133261 4.01873107 -3.5625 6.25 C-4.366875 6.8275 -5.17125 7.405 -6 8 C-6.66 6.35 -7.32 4.7 -8 3 C-3.375 0 -3.375 0 0 0 Z " fill="#DCF1E4" transform="translate(174,118)"/>
<path d="M0 0 C0.33 0 0.66 0 1 0 C1 6.6 1 13.2 1 20 C0.34 18.68 -0.32 17.36 -1 16 C-3.53770003 14.71745356 -3.53770003 14.71745356 -6 14 C-5.360625 13.87625 -4.72125 13.7525 -4.0625 13.625 C-3.381875 13.41875 -2.70125 13.2125 -2 13 C-0.71553081 10.43106162 -0.67022856 8.23423663 -0.4375 5.375 C-0.35371094 4.37210938 -0.26992188 3.36921875 -0.18359375 2.3359375 C-0.12300781 1.56507812 -0.06242187 0.79421875 0 0 Z " fill="#9DBDB3" transform="translate(274,58)"/>
<path d="M0 0 C2.31 0.66 4.62 1.32 7 2 C7.22174933 3.45635371 7.42698698 4.91522956 7.625 6.375 C7.74101562 7.18710937 7.85703125 7.99921875 7.9765625 8.8359375 C7.98429688 9.55007813 7.99203125 10.26421875 8 11 C7.34 11.66 6.68 12.32 6 13 C6 9.7 6 6.4 6 3 C3.69 3.33 1.38 3.66 -1 4 C-0.67 2.68 -0.34 1.36 0 0 Z " fill="#B3D0C4" transform="translate(165,262)"/>
<path d="M0 0 C0 1.65 0 3.3 0 5 C-0.66 5 -1.32 5 -2 5 C-2.66 7.31 -3.32 9.62 -4 12 C-4.66 12 -5.32 12 -6 12 C-6.32644414 7.83783725 -6.40650982 5.63686538 -4.125 2.0625 C-2 0 -2 0 0 0 Z " fill="#677F68" transform="translate(263,122)"/>
<path d="M0 0 C0.33 0.66 0.66 1.32 1 2 C-1.35264864 6.99937836 -5.32444324 10.94178253 -9 15 C-9 10.9255567 -6.90830751 8.88254967 -4.5 5.8125 C-3.85611328 4.97428711 -3.85611328 4.97428711 -3.19921875 4.11914062 C-2.13921945 2.74114153 -1.07043812 1.36990593 0 0 Z " fill="#DFF1E4" transform="translate(329,348)"/>
<path d="M0 0 C0.66 0 1.32 0 2 0 C2 0.99 2 1.98 2 3 C2.99 3.33 3.98 3.66 5 4 C3.35 5.65 1.7 7.3 0 9 C-0.99 8.01 -1.98 7.02 -3 6 C-2.34 5.67 -1.68 5.34 -1 5 C-0.34444881 2.47266765 -0.34444881 2.47266765 0 0 Z " fill="#CFEDD6" transform="translate(140,327)"/>
<path d="M0 0 C0.99 0.33 1.98 0.66 3 1 C3.6875 3.0625 3.6875 3.0625 4 5 C3.01 5.33 2.02 5.66 1 6 C1 6.66 1 7.32 1 8 C0.34 8 -0.32 8 -1 8 C-1.93065133 5.39417629 -2.14917407 4.35801776 -1.0625 1.75 C-0.711875 1.1725 -0.36125 0.595 0 0 Z " fill="#D8F2E1" transform="translate(163,289)"/>
<path d="M0 0 C0.99 0.33 1.98 0.66 3 1 C2.34 1 1.68 1 1 1 C1 2.32 1 3.64 1 5 C2.32 5 3.64 5 5 5 C4.67 3.68 4.34 2.36 4 1 C5.32 0.67 6.64 0.34 8 0 C8 0.99 8 1.98 8 3 C7.34 3 6.68 3 6 3 C6 3.66 6 4.32 6 5 C7.65 5 9.3 5 11 5 C11 5.33 11 5.66 11 6 C7.37 6 3.74 6 0 6 C0 4.02 0 2.04 0 0 Z " fill="#71AF96" transform="translate(332,202)"/>
<path d="M0 0 C1.8871875 0.061875 1.8871875 0.061875 3.8125 0.125 C3.8125 1.115 3.8125 2.105 3.8125 3.125 C2.8225 3.125 1.8325 3.125 0.8125 3.125 C-0.87548827 4.56250191 -0.87548827 4.56250191 -2.1875 6.125 C-4.1875 5.125 -4.1875 5.125 -5.1875 4.125 C-5.8475 4.125 -6.5075 4.125 -7.1875 4.125 C-7.1875 3.465 -7.1875 2.805 -7.1875 2.125 C-4.09861478 0.06574319 -3.47814073 -0.1140374 0 0 Z " fill="#BBDACF" transform="translate(341.1875,177.875)"/>
<path d="M0 0 C0.66 0 1.32 0 2 0 C2 2.31 2 4.62 2 7 C0.35 7.33 -1.3 7.66 -3 8 C-2.01 5.36 -1.02 2.72 0 0 Z " fill="#C8E8D4" transform="translate(331,346)"/>
<path d="M0 0 C0.33 0 0.66 0 1 0 C1.33 2.64 1.66 5.28 2 8 C2.33 6.35 2.66 4.7 3 3 C3.33 3 3.66 3 4 3 C4.28571429 10.42857143 4.28571429 10.42857143 2 14 C1.34 13.67 0.68 13.34 0 13 C0 8.71 0 4.42 0 0 Z " fill="#E0F2E7" transform="translate(129,195)"/>
<path d="M0 0 C0.66 0.33 1.32 0.66 2 1 C-1.85623679 5.82029598 -1.85623679 5.82029598 -5.11328125 6.33203125 C-7.07856214 6.3145776 -9.04166127 6.16596091 -11 6 C-11.33 5.34 -11.66 4.68 -12 4 C-11.38511719 3.96261719 -10.77023438 3.92523438 -10.13671875 3.88671875 C-9.32847656 3.82097656 -8.52023438 3.75523438 -7.6875 3.6875 C-6.88699219 3.62949219 -6.08648437 3.57148437 -5.26171875 3.51171875 C-2.63727666 2.91793306 -1.69179328 2.04219706 0 0 Z " fill="#589B83" transform="translate(239,36)"/>
<path d="M0 0 C2.31 0.33 4.62 0.66 7 1 C7.625 2.875 7.625 2.875 8 5 C7.34 5.66 6.68 6.32 6 7 C3.875 6.625 3.875 6.625 2 6 C2.99 6 3.98 6 5 6 C3.27773504 2.75150023 3.27773504 2.75150023 0 2 C0 1.34 0 0.68 0 0 Z " fill="#E0F2E0" transform="translate(166,301)"/>
<path d="M0 0 C0.33 0 0.66 0 1 0 C1.38885039 1.78871178 1.76069196 3.58112874 2.125 5.375 C2.33382813 6.37273437 2.54265625 7.37046875 2.7578125 8.3984375 C2.83773438 9.25695312 2.91765625 10.11546875 3 11 C2.34 11.66 1.68 12.32 1 13 C-0.99544337 8.88439805 -1.26247139 5.54950416 -1 1 C-0.67 0.67 -0.34 0.34 0 0 Z " fill="#E7B9AF" transform="translate(297,260)"/>
<path d="M0 0 C0 0.33 0 0.66 0 1 C-1.66487412 1.47567832 -3.3299554 1.95064395 -4.99609375 2.421875 C-6.87958385 2.96526006 -8.7527814 3.54396664 -10.625 4.125 C-13.61460882 4.90008377 -15.94088456 5.18540094 -19 5 C-17.67741528 4.31225595 -16.34013497 3.65288627 -15 3 C-13.9275 2.46375 -12.855 1.9275 -11.75 1.375 C-7.41373067 -0.21496542 -4.56527834 -0.24027781 0 0 Z " fill="#9F9A90" transform="translate(291,256)"/>
<path d="M0 0 C0.33 0.66 0.66 1.32 1 2 C2.11375 1.95875 3.2275 1.9175 4.375 1.875 C8 2 8 2 10 4 C10.125 6.625 10.125 6.625 10 9 C8.68 7.35 7.36 5.7 6 4 C4.02 4.33 2.04 4.66 0 5 C0 3.35 0 1.7 0 0 Z " fill="#5A4A46" transform="translate(229,88)"/>
<path d="M0 0 C2.0625 0.4375 2.0625 0.4375 4 1 C4 1.66 4 2.32 4 3 C-1.38027025 4.19088986 -6.45291384 5.2919519 -12 5 C-12 4.67 -12 4.34 -12 4 C-11.21753906 3.79503906 -10.43507813 3.59007812 -9.62890625 3.37890625 C-8.61699219 3.10949219 -7.60507812 2.84007812 -6.5625 2.5625 C-5.55316406 2.29566406 -4.54382813 2.02882812 -3.50390625 1.75390625 C-1.08247999 1.24021923 -1.08247999 1.24021923 0 0 Z " fill="#84A593" transform="translate(286,253)"/>
<path d="M0 0 C0.33 0 0.66 0 1 0 C1 1.65 1 3.3 1 5 C1.66 5 2.32 5 3 5 C2.67 6.65 2.34 8.3 2 10 C1.01 10.33 0.02 10.66 -1 11 C-0.67 7.37 -0.34 3.74 0 0 Z " fill="#E3F0EA" transform="translate(126,152)"/>
<path d="M0 0 C0.66 0.33 1.32 0.66 2 1 C-1.5 10 -1.5 10 -6 13 C-4.31326082 8.50202887 -2.18326108 4.27113698 0 0 Z " fill="#DAEFE1" transform="translate(338,331)"/>
<path d="M0 0 C2.18742014 3.2811302 2.54442806 5.33084356 3.125 9.1875 C3.37636719 10.81751953 3.37636719 10.81751953 3.6328125 12.48046875 C3.75398438 13.31191406 3.87515625 14.14335937 4 15 C3.01 15.495 3.01 15.495 2 16 C0.5192152 13.0384304 0.64685963 10.16493705 0.4375 6.875 C0.35371094 5.59367187 0.26992188 4.31234375 0.18359375 2.9921875 C0.12300781 2.00476563 0.06242187 1.01734375 0 0 Z " fill="#F2CCC0" transform="translate(308,258)"/>
<path d="M0 0 C0.33 0.66 0.66 1.32 1 2 C-0.7902061 2.67057887 -2.58221489 3.3363469 -4.375 4 C-5.37273437 4.37125 -6.37046875 4.7425 -7.3984375 5.125 C-10 6 -10 6 -12 6 C-12 5.01 -12 4.02 -12 3 C-8.04 2.01 -4.08 1.02 0 0 Z " fill="#5EA389" transform="translate(306,239)"/>
<path d="M0 0 C-1.3921875 0.433125 -1.3921875 0.433125 -2.8125 0.875 C-6.09791667 1.8875 -6.09791667 1.8875 -9 4 C-11.04296875 4.1953125 -11.04296875 4.1953125 -13.1875 4.125 C-15.0746875 4.063125 -15.0746875 4.063125 -17 4 C-17 3.67 -17 3.34 -17 3 C-15.88625 2.896875 -14.7725 2.79375 -13.625 2.6875 C-12.42875 2.460625 -11.2325 2.23375 -10 2 C-9.34 1.01 -8.68 0.02 -8 -1 C-4.6857174 -2.43618913 -3.01782854 -1.83225304 0 0 Z " fill="#BCD9CC" transform="translate(358,155)"/>
<path d="M0 0 C0.33 0 0.66 0 1 0 C3.27678571 8.03571429 3.27678571 8.03571429 2 12 C1.34 12 0.68 12 0 12 C-0.76173392 7.6835078 -1.16063604 4.25566547 0 0 Z " fill="#8A8989" transform="translate(265,442)"/>
<path d="M0 0 C3.3 0 6.6 0 10 0 C9.34 1.32 8.68 2.64 8 4 C5.36 3.34 2.72 2.68 0 2 C0 1.34 0 0.68 0 0 Z " fill="#599E83" transform="translate(267,38)"/>
<path d="M0 0 C2.97 0.495 2.97 0.495 6 1 C5.01 1.495 5.01 1.495 4 2 C4 3.98 4 5.96 4 8 C2.68 8.33 1.36 8.66 0 9 C0.185625 7.88625 0.37125 6.7725 0.5625 5.625 C1.31680657 2.17431139 1.31680657 2.17431139 0 0 Z " fill="#CFBAAE" transform="translate(207,431)"/>
<path d="M0 0 C0.66 0.66 1.32 1.32 2 2 C1.625 5.625 1.625 5.625 1 9 C0.34 7.68 -0.32 6.36 -1 5 C-1.99 5.33 -2.98 5.66 -4 6 C-3.67 4.35 -3.34 2.7 -3 1 C-2.34 1.33 -1.68 1.66 -1 2 C-0.67 1.34 -0.34 0.68 0 0 Z " fill="#DAEFE1" transform="translate(347,314)"/>
<path d="M0 0 C0.33 0.99 0.66 1.98 1 3 C2.6476038 3.71247732 4.31763529 4.37400383 6 5 C7.36365283 5.95824253 8.70794169 6.94721175 10 8 C6.38102827 8.32899743 4.60496861 8.44576634 1.625 6.25 C0 4 0 4 0 0 Z " fill="#A4CCBB" transform="translate(160,269)"/>
<path d="M0 0 C0.33 0.99 0.66 1.98 1 3 C-4.94 2.01 -4.94 2.01 -11 1 C-11 0.67 -11 0.34 -11 0 C-6.98195309 -0.84098656 -3.98196457 -1.05404945 0 0 Z " fill="#D2B89E" transform="translate(234,238)"/>
<path d="M0 0 C4.46839215 -0.21278058 7.82262526 0.40861915 12 2 C10.4375 3.125 10.4375 3.125 8 4 C4.3125 3.25 4.3125 3.25 1 2 C0.67 1.34 0.34 0.68 0 0 Z " fill="#999B81" transform="translate(228,235)"/>
<path d="M0 0 C2.72426311 2.35277269 3.8141763 4.62496331 5 8 C4.01 8 3.02 8 2 8 C2 7.34 2 6.68 2 6 C1.01 5.67 0.02 5.34 -1 5 C-0.67 3.35 -0.34 1.7 0 0 Z " fill="#94C2B1" transform="translate(204,206)"/>
<path d="M0 0 C0.185625 0.9590625 0.185625 0.9590625 0.375 1.9375 C0.684375 2.9584375 0.684375 2.9584375 1 4 C1.66 4.33 2.32 4.66 3 5 C0 7 0 7 -3 7 C-1.125 1.125 -1.125 1.125 0 0 Z " fill="#E0F0E4" transform="translate(316,365)"/>
<path d="M0 0 C1.98 0.495 1.98 0.495 4 1 C3.67 2.32 3.34 3.64 3 5 C1.68 5 0.36 5 -1 5 C-0.67 3.35 -0.34 1.7 0 0 Z " fill="#549C7F" transform="translate(270,182)"/>
<path d="M0 0 C5.57142857 5.14285714 5.57142857 5.14285714 6 9 C5.01 8.34 4.02 7.68 3 7 C3 6.34 3 5.68 3 5 C1.68 5.33 0.36 5.66 -1 6 C-0.67 4.02 -0.34 2.04 0 0 Z " fill="#98C9B6" transform="translate(284,137)"/>
<path d="M0 0 C0.66 0 1.32 0 2 0 C2.33 1.32 2.66 2.64 3 4 C4.32 4.33 5.64 4.66 7 5 C6.01 6.485 6.01 6.485 5 8 C2.5 5.6875 2.5 5.6875 0 3 C0 2.01 0 1.02 0 0 Z " fill="#93BDAD" transform="translate(192,231)"/>
<path d="M0 0 C0.33 0 0.66 0 1 0 C1.25 3.3125 1.25 3.3125 1 7 C-0.75 9 -0.75 9 -3 10 C-5.25 9.6875 -5.25 9.6875 -7 9 C-6.21625 8.62875 -5.4325 8.2575 -4.625 7.875 C-1.39371171 5.56693694 -0.92493788 3.78383679 0 0 Z " fill="#828282" transform="translate(227,451)"/>
<path d="M0 0 C1.98 0.99 1.98 0.99 4 2 C4 3.32 4 4.64 4 6 C2.68 6 1.36 6 0 6 C0 4.02 0 2.04 0 0 Z " fill="#9C928B" transform="translate(265,426)"/>
<path d="M0 0 C1.37432457 3.81756824 0.67975039 7.07255329 0 11 C-0.33 11 -0.66 11 -1 11 C-1 9.35 -1 7.7 -1 6 C-1.66 5.67 -2.32 5.34 -3 5 C-2.01 3.35 -1.02 1.7 0 0 Z " fill="#CCC7C5" transform="translate(236,370)"/>
<path d="M0 0 C3.3 0.33 6.6 0.66 10 1 C5.64467851 3.17766075 4.53374042 3.03039555 0 2 C0 1.34 0 0.68 0 0 Z " fill="#96A688" transform="translate(230,226)"/>
<path d="M0 0 C-0.66 1.32 -1.32 2.64 -2 4 C-4.97 3.67 -7.94 3.34 -11 3 C-11 2.67 -11 2.34 -11 2 C-7.12315913 0.80712589 -4.08378077 0 0 0 Z " fill="#99C5B6" transform="translate(385,218)"/>
<path d="M0 0 C1.98 0.66 3.96 1.32 6 2 C5.67 2.99 5.34 3.98 5 5 C4.01 5 3.02 5 2 5 C2 4.34 2 3.68 2 3 C0.68 2.67 -0.64 2.34 -2 2 C-1.34 2 -0.68 2 0 2 C0 1.34 0 0.68 0 0 Z " fill="#524648" transform="translate(267,74)"/>
<path d="M0 0 C0 0.99 0 1.98 0 3 C-2.9375 2.625 -2.9375 2.625 -6 2 C-6.33 1.34 -6.66 0.68 -7 0 C-3.98968256 -0.93423645 -3.13349732 -1.04449911 0 0 Z " fill="#777777" transform="translate(212,458)"/>
<path d="M0 0 C0.33 0 0.66 0 1 0 C1 2.31 1 4.62 1 7 C-0.32 7.33 -1.64 7.66 -3 8 C-3.33 7.01 -3.66 6.02 -4 5 C-2.68 4.67 -1.36 4.34 0 4 C0 2.68 0 1.36 0 0 Z " fill="#88C4B1" transform="translate(215,214)"/>
<path d="M0 0 C1.98 0.495 1.98 0.495 4 1 C4 1.99 4 2.98 4 4 C2.35 4 0.7 4 -1 4 C-0.67 2.68 -0.34 1.36 0 0 Z " fill="#549D80" transform="translate(247,144)"/>
<path d="M0 0 C1.32 0.33 2.64 0.66 4 1 C4.33 3.31 4.66 5.62 5 8 C2.74754119 5.31158141 1.11786042 3.35358125 0 0 Z " fill="#6C8A6B" transform="translate(249,125)"/>
<path d="M0 0 C3.96 1.98 3.96 1.98 8 4 C5.66682784 4.77772405 3.38564077 5.42415568 1 6 C0.67 4.02 0.34 2.04 0 0 Z " fill="#696969" transform="translate(289,439)"/>
<path d="M0 0 C0 0.99 0 1.98 0 3 C-1.65 3.66 -3.3 4.32 -5 5 C-5 3.68 -5 2.36 -5 1 C-3 0 -3 0 0 0 Z " fill="#413E3C" transform="translate(272,439)"/>
<path d="M0 0 C2.0625 0.4375 2.0625 0.4375 4 1 C3.67 1.66 3.34 2.32 3 3 C2.01 3 1.02 3 0 3 C0 3.66 0 4.32 0 5 C-0.66 5 -1.32 5 -2 5 C-1.125 1.125 -1.125 1.125 0 0 Z " fill="#D8ECDC" transform="translate(170,333)"/>
<path d="M0 0 C0.99 0.66 1.98 1.32 3 2 C3 3.32 3 4.64 3 6 C0 5 0 5 -1.1875 2.9375 C-1.5896875 1.9784375 -1.5896875 1.9784375 -2 1 C-1.34 0.67 -0.68 0.34 0 0 Z " fill="#ADC8BF" transform="translate(147,301)"/>
<path d="M0 0 C0 0.99 0 1.98 0 3 C-2.31 3 -4.62 3 -7 3 C-7.33 2.34 -7.66 1.68 -8 1 C-5.23735711 0.40267181 -2.83967231 0 0 0 Z " fill="#DFAFA1" transform="translate(306,288)"/>
<path d="M0 0 C0.33 0.99 0.66 1.98 1 3 C0.67 3.66 0.34 4.32 0 5 C-1.9375 4.6875 -1.9375 4.6875 -4 4 C-4.33 3.01 -4.66 2.02 -5 1 C-2.525 1.495 -2.525 1.495 0 2 C0 1.34 0 0.68 0 0 Z " fill="#7CA78C" transform="translate(235,239)"/>
<path d="M0 0 C2.475 0.495 2.475 0.495 5 1 C4.67 1.99 4.34 2.98 4 4 C1.9375 4.6875 1.9375 4.6875 0 5 C0 3.35 0 1.7 0 0 Z " fill="#64AA91" transform="translate(248,134)"/>
<path d="M0 0 C3.96 0 7.92 0 12 0 C12 0.33 12 0.66 12 1 C11.31292969 1.06058594 10.62585938 1.12117188 9.91796875 1.18359375 C8.56638672 1.30927734 8.56638672 1.30927734 7.1875 1.4375 C5.84751953 1.55931641 5.84751953 1.55931641 4.48046875 1.68359375 C1.87256441 1.93489767 1.87256441 1.93489767 -1 3 C-0.67 2.01 -0.34 1.02 0 0 Z " fill="#5B4644" transform="translate(242,76)"/>
</svg>
