<?xml version="1.0" encoding="UTF-8"?>
<svg version="1.1" xmlns="http://www.w3.org/2000/svg" width="500" height="500">
<path d="M0 0 C33.74715196 -0.68618563 65.89845342 8.84195715 90.68359375 32.37109375 C95.3343477 37.15125999 98.78206738 42.33203874 102.05859375 48.12109375 C102.86296875 49.52681641 102.86296875 49.52681641 103.68359375 50.9609375 C114.30361181 70.74072113 115.02889044 93.76327146 108.69580078 115.11425781 C106.84388054 120.94674226 104.57838777 126.55053 102.05859375 132.12109375 C101.71634766 132.88631348 101.37410156 133.6515332 101.02148438 134.43994141 C97.17033111 142.99256894 93.22364045 151.24852369 88.01171875 159.06640625 C80.57684326 170.69455152 73.88340535 182.80876246 70.05859375 196.12109375 C69.69765625 197.29027344 69.33671875 198.45945313 68.96484375 199.6640625 C64.63330708 217.49530753 67.06082833 237.44437055 76.43359375 253.05859375 C79.23842468 257.18878435 82.34407609 260.93717508 85.7734375 264.5625 C87.05859375 266.12109375 87.05859375 266.12109375 87.05859375 268.12109375 C87.71859375 268.12109375 88.37859375 268.12109375 89.05859375 268.12109375 C89.05859375 268.78109375 89.05859375 269.44109375 89.05859375 270.12109375 C89.89390625 270.46140625 89.89390625 270.46140625 90.74609375 270.80859375 C93.72018963 272.49659411 95.7786824 274.58785892 98.05859375 277.12109375 C98.05859375 277.78109375 98.05859375 278.44109375 98.05859375 279.12109375 C98.71859375 279.12109375 99.37859375 279.12109375 100.05859375 279.12109375 C102.64190752 281.55778701 104.82042 284.36945661 107.05859375 287.12109375 C107.71601563 287.91902344 108.3734375 288.71695312 109.05078125 289.5390625 C123.11008427 307.61921677 128.09965564 330.17715173 125.59765625 352.71875 C123.16967102 371.41539064 116.49457672 387.4671193 106.05859375 403.12109375 C105.39859375 403.12109375 104.73859375 403.12109375 104.05859375 403.12109375 C103.39859375 404.77109375 102.73859375 406.42109375 102.05859375 408.12109375 C101.39859375 408.12109375 100.73859375 408.12109375 100.05859375 408.12109375 C99.71828125 409.26578125 99.71828125 409.26578125 99.37109375 410.43359375 C97.72284216 413.80858509 96.38671435 414.42982811 93.05859375 416.12109375 C90.64513384 416.89981391 88.33273163 417.55482513 85.87109375 418.12109375 C85.1447876 418.28915527 84.41848145 418.4572168 83.67016602 418.63037109 C72.60641174 421.03122287 61.31096838 422.02647845 50.05859375 423.12109375 C49.10162598 423.21632324 48.1446582 423.31155273 47.15869141 423.40966797 C40.13282201 424.09502796 33.09976598 424.62072718 26.05859375 425.12109375 C24.2861454 425.2492321 24.2861454 425.2492321 22.47789001 425.37995911 C-7.81715684 427.48125534 -38.12679441 427.43059048 -68.47836268 427.37823147 C-73.35319765 427.37069882 -78.22795123 427.37340562 -83.1027832 427.38183594 C-181.21016137 427.54708055 -181.21016137 427.54708055 -229.00390625 420.18359375 C-230.44733398 419.96533936 -230.44733398 419.96533936 -231.91992188 419.74267578 C-248.02846758 417.03403242 -248.02846758 417.03403242 -252.94140625 412.12109375 C-252.56640625 409.99609375 -252.56640625 409.99609375 -251.94140625 408.12109375 C-251.28140625 408.12109375 -250.62140625 408.12109375 -249.94140625 408.12109375 C-250.54275391 407.46367188 -250.54275391 407.46367188 -251.15625 406.79296875 C-264.25385433 392.18067549 -273.8767787 376.7183012 -279.94140625 358.12109375 C-280.28300781 357.13496094 -280.62460937 356.14882813 -280.9765625 355.1328125 C-287.01230593 334.38669902 -283.78024349 310.53894699 -273.625 291.75390625 C-267.15412782 280.32623783 -260.04157249 268.86695509 -252.15234375 258.36328125 C-249.71015286 254.78197658 -248.19461774 251.36913828 -246.75390625 247.30859375 C-246.37274658 246.25647705 -246.37274658 246.25647705 -245.98388672 245.18310547 C-240.05791262 228.41665237 -241.03132748 212.69784773 -248.3046875 196.31640625 C-253.45805595 186.25565352 -259.85910207 177.06880592 -266.71484375 168.10546875 C-277.65262605 153.44500265 -286.81224653 136.76933769 -287.94140625 118.12109375 C-287.99425781 117.26386719 -288.04710937 116.40664062 -288.1015625 115.5234375 C-288.90828832 89.46268589 -277.28988884 66.86365084 -259.94140625 48.12109375 C-253.83231534 42.12109375 -253.83231534 42.12109375 -250.94140625 42.12109375 C-250.94140625 41.46109375 -250.94140625 40.80109375 -250.94140625 40.12109375 C-243.58187124 34.8208245 -235.41118136 30.34603522 -226.94140625 27.12109375 C-225.92820313 26.72792969 -224.915 26.33476563 -223.87109375 25.9296875 C-206.02400255 20.09584334 -185.67696659 21.66399826 -167.94140625 27.12109375 C-164.36118999 28.17353131 -160.77656439 29.21062784 -157.19140625 30.24609375 C-156.29075439 30.50680664 -155.39010254 30.76751953 -154.4621582 31.03613281 C-120.66655502 40.68935034 -94.25139406 30.92120843 -63.87695312 16.11474609 C-43.56120699 6.21615807 -22.61593179 0.69484032 0 0 Z " fill="#EDF1FB" transform="translate(330.94140625,35.87890625)"/>
<path d="M0 0 C2.11742755 1.00085646 4.17189252 2.07710611 6.22802734 3.19824219 C12.77863513 6.54914393 18.35690417 8.51978748 25.85302734 8.26074219 C25.97802734 16.01074219 25.97802734 16.01074219 24.85302734 18.26074219 C26.50302734 18.26074219 28.15302734 18.26074219 29.85302734 18.26074219 C30.56610628 25.03499211 30.56610628 25.03499211 28.65771484 28.31542969 C25.94845645 31.59649136 24.15411761 33.52207668 19.85302734 34.26074219 C19.77052734 34.94136719 19.68802734 35.62199219 19.60302734 36.32324219 C18.61772959 40.18232506 16.99006101 42.8932952 14.85302734 46.26074219 C13.86302734 46.75574219 13.86302734 46.75574219 12.85302734 47.26074219 C11.76132098 49.00260977 11.76132098 49.00260977 10.79052734 51.07324219 C10.44892578 51.7603125 10.10732422 52.44738281 9.75537109 53.15527344 C8.8876674 55.17991538 8.32133663 57.112313 7.85302734 59.26074219 C7.19302734 59.26074219 6.53302734 59.26074219 5.85302734 59.26074219 C5.52302734 60.58074219 5.19302734 61.90074219 4.85302734 63.26074219 C4.19302734 63.26074219 3.53302734 63.26074219 2.85302734 63.26074219 C2.35802734 64.74574219 2.35802734 64.74574219 1.85302734 66.26074219 C-3.51840123 70.26074219 -3.51840123 70.26074219 -6.14697266 70.26074219 C-5.32197266 71.04449219 -4.49697266 71.82824219 -3.64697266 72.63574219 C-1.14697266 75.26074219 -1.14697266 75.26074219 -1.14697266 77.26074219 C-0.48697266 77.26074219 0.17302734 77.26074219 0.85302734 77.26074219 C5.47918831 85.89624267 7.16581457 93.27443702 7.04833984 103.01074219 C7.04550995 103.90946045 7.04268005 104.80817871 7.0397644 105.73413086 C7.02865859 108.57647584 7.00357239 111.41849405 6.97802734 114.26074219 C6.96798512 116.19953969 6.95886145 118.13834218 6.95068359 120.07714844 C6.9287508 124.80513701 6.89428819 129.53288439 6.85302734 134.26074219 C2.77514839 135.15519923 -0.9669527 135.34270336 -5.14697266 135.26074219 C-5.14697266 135.92074219 -5.14697266 136.58074219 -5.14697266 137.26074219 C-9.43697266 137.26074219 -13.72697266 137.26074219 -18.14697266 137.26074219 C-18.85600713 139.52965251 -19.55423898 141.80218769 -20.21728516 144.08496094 C-20.84326105 146.22327354 -21.50560058 148.35123672 -22.20166016 150.46777344 C-27.11721613 167.02637987 -29.78475583 187.18253826 -21.70410156 202.90429688 C-16.13456962 215.10476169 -18.63456723 231.1814528 -19.14697266 244.26074219 C-16.02706368 241.4754079 -15.60881083 239.41728578 -15.14697266 235.26074219 C-12.74669271 235.62731214 -11.49810005 235.82125921 -9.95166016 237.75683594 C-7.37630489 243.1347837 -6.06329691 248.3769759 -5.14697266 254.26074219 C-4.48697266 254.26074219 -3.82697266 254.26074219 -3.14697266 254.26074219 C-2.12982464 258.456604 -2.00150148 262.514879 -2.01416016 266.80761719 C-2.01320343 267.53708557 -2.0122467 268.26655396 -2.01126099 269.01812744 C-2.01058187 270.56465745 -2.01241742 272.11119035 -2.01660156 273.65771484 C-2.02186062 275.96165861 -2.01669641 278.26539896 -2.01025391 280.56933594 C-2.00632682 288.27593609 -2.15830458 295.95613794 -2.59228516 303.65136719 C-2.63102753 304.35807556 -2.6697699 305.06478394 -2.70968628 305.79290771 C-2.91453637 309.06342293 -3.26809456 312.10544037 -4.14697266 315.26074219 C-4.3265671 317.61257422 -4.46704441 319.96748782 -4.58447266 322.32324219 C-4.93976257 328.65198229 -5.44408677 334.95440091 -6.08447266 341.26074219 C-6.15915771 342.03683838 -6.23384277 342.81293457 -6.31079102 343.61254883 C-6.83942536 348.65053693 -7.62354961 353.41976024 -9.14697266 358.26074219 C-12.67225165 360.61092818 -14.22561527 360.53014385 -18.39697266 360.51074219 C-19.49525391 360.51589844 -20.59353516 360.52105469 -21.72509766 360.52636719 C-25.41848294 360.23966605 -28.60676205 359.3201752 -32.14697266 358.26074219 C-32.80302349 349.53232073 -33.44721818 340.80305547 -34.08447266 332.07324219 C-34.17823181 330.79109833 -34.27199097 329.50895447 -34.36859131 328.18795776 C-35.49824065 312.63968146 -36.59825461 297.11538536 -36.81860352 281.52368164 C-36.99193307 272.02907405 -38.37857982 264.71973075 -43.33447266 256.57324219 C-44.14973657 255.18162855 -44.96219157 253.78836591 -45.77197266 252.39355469 C-46.37525391 251.35763184 -46.37525391 251.35763184 -46.99072266 250.30078125 C-49.29350175 246.23785428 -51.30672783 242.03509652 -53.34619141 237.83496094 C-55.7826991 232.89156088 -58.48831269 228.08692367 -61.14697266 223.26074219 C-61.13809021 223.86334869 -61.12920776 224.4659552 -61.12005615 225.08682251 C-61.03008585 231.48079728 -60.97063364 237.87458656 -60.92724609 244.26904297 C-60.90739287 246.64086229 -60.88030126 249.01263446 -60.84521484 251.38427734 C-60.61751209 267.19622464 -61.72717989 281.82306565 -65.14697266 297.26074219 C-65.64509508 299.71371975 -66.14259015 302.16682489 -66.63916016 304.62011719 C-67.09599623 306.75120886 -67.55689672 308.88143355 -68.02197266 311.01074219 C-68.27172852 312.16614502 -68.52148438 313.32154785 -68.77880859 314.51196289 C-71.04305513 324.92226744 -73.42781467 335.30418491 -75.85009766 345.67871094 C-76.98310462 350.53220046 -78.07543371 355.39332705 -79.14697266 360.26074219 C-86.92692847 362.31456857 -94.89463717 361.88690993 -102.14697266 358.26074219 C-102.35014224 344.0638771 -102.36051913 330.03680394 -101.14697266 315.88574219 C-97.99061777 280.20492502 -97.99061777 280.20492502 -104.44140625 245.43359375 C-105.80846915 241.22360766 -106.6964142 236.89258586 -107.64697266 232.57324219 C-107.84991943 231.66300293 -108.05286621 230.75276367 -108.26196289 229.81494141 C-108.67869911 227.93872496 -109.09279675 226.0619207 -109.50439453 224.18457031 C-109.94387415 222.18487127 -110.38810982 220.18621313 -110.83642578 218.18847656 C-113.52001898 206.20574704 -115.92993381 194.57276374 -116.14697266 182.26074219 C-116.80697266 182.26074219 -117.46697266 182.26074219 -118.14697266 182.26074219 C-118.52954737 175.06266981 -117.82363085 168.98514423 -115.70556641 162.08496094 C-114.93314086 158.17962061 -115.68206454 155.01334543 -116.68994141 151.21386719 C-119.51866951 139.12528554 -115.33940697 125.19000152 -109.9387207 114.41064453 C-109.06161899 112.02897395 -109.1328114 110.62927433 -109.38525391 108.12792969 C-109.49646096 102.15757714 -106.75504383 98.20331559 -103.58447266 93.32324219 C-103.03307617 92.44514893 -102.48167969 91.56705566 -101.91357422 90.66235352 C-100.34532384 88.18113433 -98.75018334 85.7194588 -97.14697266 83.26074219 C-96.46248047 82.18050781 -95.77798828 81.10027344 -95.07275391 79.98730469 C-88.89226772 70.62293169 -78.96072495 61.40044445 -67.78369141 58.68701172 C-65.14782872 58.26088058 -62.6902289 58.13141435 -60.02197266 58.12792969 C-59.06806641 58.12664062 -58.11416016 58.12535156 -57.13134766 58.12402344 C-56.14650391 58.12789062 -55.16166016 58.13175781 -54.14697266 58.13574219 C-53.16212891 58.131875 -52.17728516 58.12800781 -51.16259766 58.12402344 C-49.73173828 58.12595703 -49.73173828 58.12595703 -48.27197266 58.12792969 C-47.40830078 58.12905762 -46.54462891 58.13018555 -45.65478516 58.13134766 C-43.06719096 58.26485865 -40.67151185 58.69125048 -38.14697266 59.26074219 C-38.04384766 58.72449219 -37.94072266 58.18824219 -37.83447266 57.63574219 C-37.14697266 55.26074219 -37.14697266 55.26074219 -35.45947266 52.57324219 C-33.85867196 48.53312614 -34.48767628 46.99261583 -35.58837891 42.95214844 C-38.15157773 30.60219047 -35.6467712 18.88649981 -29.14697266 8.26074219 C-25.54537219 4.4695838 -22.13190807 3.5725673 -17.14697266 2.26074219 C-16.19822266 1.72449219 -15.24947266 1.18824219 -14.27197266 0.63574219 C-9.5997187 -1.42004955 -4.88187524 -1.680955 0 0 Z " fill="#6DA4A1" transform="translate(299.14697265625,62.7392578125)"/>
<path d="M0 0 C2.00257445 0.65889303 4.00215086 1.32691511 6 2 C6.7734375 2.25136719 7.546875 2.50273437 8.34375 2.76171875 C13.68377357 5.05444626 16.01803978 8.00290656 18.4375 13.25 C21.94953702 22.25802607 22.09472866 31.92390267 22.578125 41.47265625 C22.82829241 45.60797848 23.18292744 49.2102836 25 53 C25.99 53.66 26.98 54.32 28 55 C28 55.99 28 56.98 28 58 C29.98 58.33 31.96 58.66 34 59 C34.33 58.01 34.66 57.02 35 56 C36.32 56 37.64 56 39 56 C38.89171875 54.96552734 38.89171875 54.96552734 38.78125 53.91015625 C38.18806058 47.90411341 37.90107705 42.0343 38 36 C40 37 40 37 41.125 40.0625 C41.41375 41.031875 41.7025 42.00125 42 43 C42.66 43 43.32 43 44 43 C41.97334644 34.11722055 39.86824519 26.98302076 33.98828125 19.90625 C32.61364138 17.25477073 32.93684821 14.94541954 33 12 C33.84481934 11.9906543 34.68963867 11.98130859 35.56005859 11.97167969 C51.50350651 11.75039357 66.53378762 11.22285662 82 7 C83.99538432 6.64006596 85.99423709 6.2966922 88 6 C97.67437829 23.57799983 96.88110666 40.54109829 96 60 C99.11990898 57.21466571 99.53816182 55.15654359 100 51 C102.40027994 51.36656995 103.6488726 51.56051702 105.1953125 53.49609375 C107.77066777 58.87404151 109.08367574 64.11623371 110 70 C110.66 70 111.32 70 112 70 C113.01714801 74.19586181 113.14547117 78.25413682 113.1328125 82.546875 C113.13376923 83.27634338 113.13472595 84.00581177 113.13571167 84.75738525 C113.13639078 86.30391526 113.13455524 87.85044816 113.13037109 89.39697266 C113.12511204 91.70091643 113.13027625 94.00465677 113.13671875 96.30859375 C113.14064584 104.0151939 112.98866808 111.69539575 112.5546875 119.390625 C112.51594513 120.09733337 112.47720276 120.80404175 112.43728638 121.53216553 C112.23243629 124.80268075 111.8788781 127.84469819 111 131 C110.82040555 133.35183203 110.67992824 135.70674563 110.5625 138.0625 C110.20721009 144.3912401 109.70288588 150.69365872 109.0625 157 C108.98781494 157.77609619 108.91312988 158.55219238 108.83618164 159.35180664 C108.3075473 164.38979474 107.52342305 169.15901806 106 174 C102.47472101 176.35018599 100.92135738 176.26940166 96.75 176.25 C95.10257813 176.25773437 95.10257813 176.25773437 93.421875 176.265625 C89.72848971 175.97892386 86.54021061 175.05943301 83 174 C82.34394917 165.27157855 81.69975447 156.54231329 81.0625 147.8125 C80.96874084 146.53035614 80.87498169 145.24821228 80.77838135 143.92721558 C79.648732 128.37893927 78.54871804 112.85464317 78.32836914 97.26293945 C78.15503959 87.76833186 76.76839284 80.45898857 71.8125 72.3125 C70.99723608 70.92088637 70.18478109 69.52762372 69.375 68.1328125 C68.77171875 67.09688965 68.77171875 67.09688965 68.15625 66.04003906 C65.8534709 61.97711209 63.84024483 57.77435433 61.80078125 53.57421875 C59.36427356 48.63081869 56.65865997 43.82618148 54 39 C54.00888245 39.60260651 54.01776489 40.20521301 54.0269165 40.82608032 C54.11688681 47.22005509 54.17633902 53.61384438 54.21972656 60.00830078 C54.23957978 62.3801201 54.2666714 64.75189227 54.30175781 67.12353516 C54.52946057 82.93548245 53.41979277 97.56232346 50 113 C49.50187758 115.45297756 49.00438251 117.9060827 48.5078125 120.359375 C48.05097643 122.49046667 47.59007594 124.62069136 47.125 126.75 C46.87524414 127.90540283 46.62548828 129.06080566 46.36816406 130.2512207 C44.10391752 140.66152526 41.71915799 151.04344272 39.296875 161.41796875 C38.16386803 166.27145827 37.07153895 171.13258486 36 176 C28.22004419 178.05382639 20.25233549 177.62616774 13 174 C12.79683042 159.80313491 12.78645353 145.77606175 14 131.625 C17.15635489 95.94418283 17.15635489 95.94418283 10.70556641 61.17285156 C9.33851111 56.96288889 8.45035221 52.6318697 7.5 48.3125 C7.29777832 47.40371094 7.09555664 46.49492187 6.88720703 45.55859375 C6.4714245 43.6837925 6.05805757 41.80845408 5.64697266 39.93261719 C5.20269605 37.91878678 4.75147277 35.90648017 4.29443359 33.89550781 C-0.95070423 10.81690141 -0.95070423 10.81690141 0 0 Z " fill="#373A47" transform="translate(184,247)"/>
<path d="M0 0 C0.495 0.165 0.99 0.33 1.5 0.5 C5.0629869 1.21259738 8.36534196 1.11916912 12 1 C12.33 0.67 12.66 0.34 13 0 C15.375 -0.25 15.375 -0.25 18 0 C18.44934402 0.49123856 18.89868805 0.98247711 19.36164856 1.48860168 C21.56158905 3.51807245 22.87636175 3.39429771 25.83862305 3.43237305 C27.30980843 3.46206429 27.30980843 3.46206429 28.81071472 3.49235535 C29.86704605 3.49874527 30.92337738 3.50513519 32.01171875 3.51171875 C33.09508011 3.52966995 34.17844147 3.54762115 35.29463196 3.56611633 C38.75888157 3.62034985 42.22299238 3.65415744 45.6875 3.6875 C48.03452458 3.72066149 50.38153081 3.75515004 52.72851562 3.79101562 C58.48555262 3.87608374 64.2426073 3.94437832 70 4 C70.33 2.68 70.66 1.36 71 0 C74.43734063 -0.08703823 77.87439837 -0.14040272 81.3125 -0.1875 C82.28896484 -0.21263672 83.26542969 -0.23777344 84.27148438 -0.26367188 C85.20927734 -0.27333984 86.14707031 -0.28300781 87.11328125 -0.29296875 C87.97735596 -0.3086792 88.84143066 -0.32438965 89.73168945 -0.34057617 C92 0 92 0 93.39001465 1.47999573 C95.35615992 3.33625437 96.36478999 3.45624294 99.02807617 3.66064453 C99.82756683 3.7251178 100.6270575 3.78959106 101.45077515 3.85601807 C105.81686573 4.1026178 110.17980152 4.29357429 114.55078125 4.4296875 C116.61525115 4.50147219 118.67970368 4.57375793 120.74414062 4.64648438 C122.35252808 4.70195435 122.35252808 4.70195435 123.9934082 4.75854492 C146.0709552 5.5331672 168.01541628 6.84950022 190 9 C190.99338379 9.0928125 191.98676758 9.185625 193.01025391 9.28125 C220.64818082 11.87341314 220.64818082 11.87341314 231 18 C230.8046875 20.36352539 230.8046875 20.36352539 230 23 C223.62197468 26.88844786 215.29432905 27.96369624 208 29.0625 C206.9380542 29.2260498 205.8761084 29.38959961 204.78198242 29.55810547 C189.59151604 31.77687683 174.3021986 32.89034039 159 34 C157.97520003 34.07512786 157.97520003 34.07512786 156.92969704 34.15177345 C126.13751563 36.38738256 95.31799018 36.31035923 64.46303827 36.25713813 C59.58820506 36.2496045 54.71345325 36.25231187 49.83862305 36.26074219 C-48.26875512 36.4259868 -48.26875512 36.4259868 -96.0625 29.0625 C-97.02478516 28.91699707 -97.98707031 28.77149414 -98.97851562 28.62158203 C-115.08706133 25.91293867 -115.08706133 25.91293867 -120 21 C-119.625 18.875 -119.625 18.875 -119 17 C-118.34 17 -117.68 17 -117 17 C-117 16.34 -117 15.68 -117 15 C-102.46706346 11.4741521 -87.94208261 9.71721004 -73.06347656 8.32543945 C-71.03315382 8.10975407 -69.00795951 7.83794873 -66.99291992 7.50878906 C-61.03115037 6.63765896 -54.98411729 6.52606696 -48.97265625 6.24609375 C-47.61501195 6.18054919 -46.25738171 6.11471305 -44.89976501 6.04859924 C-41.34733301 5.87637875 -37.79472551 5.70808995 -34.24206543 5.54064941 C-30.60852713 5.36868975 -26.9751708 5.19297068 -23.34179688 5.01757812 C-16.22803718 4.67472835 -9.11408507 4.33603634 -2 4 C-1.34 2.68 -0.68 1.36 0 0 Z " fill="#DADEED" transform="translate(198,427)"/>
<path d="M0 0 C0.33 0.99 0.66 1.98 1 3 C2.32728114 3.35667026 3.66210453 3.6854772 5 4 C6.5750965 5.07769761 8.11429394 6.20875461 9.625 7.375 C14.51381772 10.91793784 19.14098404 12.6910709 25 14 C23.61290554 18.64007742 21.65322297 22.58210616 19.3125 26.8125 C16.26267666 32.64644527 15.1689903 36.62713505 17 43 C17.35912782 44.6030633 17.71330467 46.20724384 18.0625 47.8125 C18.23910156 48.52019531 18.41570312 49.22789062 18.59765625 49.95703125 C19 52 19 52 19 56 C19.99 56 20.98 56 22 56 C21.9685791 55.13217896 21.9685791 55.13217896 21.93652344 54.24682617 C21.20740443 31.0557657 21.20740443 31.0557657 26 24 C28.140625 22.73046875 28.140625 22.73046875 30 22 C30 21.34 30 20.68 30 20 C30.66 20 31.32 20 32 20 C32.20496094 19.37351563 32.40992188 18.74703125 32.62109375 18.1015625 C32.89050781 17.28429687 33.15992188 16.46703125 33.4375 15.625 C33.70433594 14.81289062 33.97117188 14.00078125 34.24609375 13.1640625 C35 11 35 11 36 9 C40.06301833 9.6079699 43.13317475 10.95176752 46.75 12.875 C51.75864084 15.45370617 56.61000286 17.38300086 62 19 C62 19.66 62 20.32 62 21 C62.86109375 21.12503906 63.7221875 21.25007813 64.609375 21.37890625 C67.95247997 21.99129529 71.02144601 22.8838463 74.25 23.9375 C79.79266477 25.68748027 85.28327292 26.98561314 91 28 C90.59007812 29.18335938 90.18015625 30.36671875 89.7578125 31.5859375 C89.21321234 33.18217935 88.66896023 34.77853997 88.125 36.375 C87.85558594 37.14972656 87.58617187 37.92445313 87.30859375 38.72265625 C83.81208539 49.04161995 82.66607766 58.74597257 82.375 69.625 C82.33632813 70.81996094 82.29765625 72.01492187 82.2578125 73.24609375 C82.16444214 76.16391736 82.07866422 79.08174921 82 82 C63.88700336 90.14618019 45.44279228 89.48208335 26 89 C26.28101563 90.26199219 26.56203125 91.52398437 26.8515625 92.82421875 C27.00963379 93.53408936 27.16770508 94.24395996 27.33056641 94.9753418 C28.19734339 97.5968522 29.84194125 99.23515151 31.69140625 101.23828125 C35.53781358 106.41657888 37.69226369 113.59656084 37 120 C36.34 120 35.68 120 35 120 C34.01 118.02 33.02 116.04 32 114 C32 120.27 32 126.54 32 133 C30.68 133 29.36 133 28 133 C27.67 134.32 27.34 135.64 27 137 C24.0625 136.1875 24.0625 136.1875 21 135 C20.67 134.01 20.34 133.02 20 132 C18.515 131.01 18.515 131.01 17 130 C14.73465588 125.27536107 14.67918732 120.484173 14.42089844 115.34326172 C13.79173315 98.75928118 13.79173315 98.75928118 7 84 C2.78663205 80.71087884 -1.9947414 78.76212529 -7 77 C-7.33 77.99 -7.66 78.98 -8 80 C-8 78.35 -8 76.7 -8 75 C-8.66 75 -9.32 75 -10 75 C-10.38257471 67.80192762 -9.6766582 61.72440204 -7.55859375 54.82421875 C-6.78616821 50.91887842 -7.53509189 47.75260324 -8.54296875 43.953125 C-11.37892416 31.83365742 -7.12733913 17.64522951 -1.81640625 6.7734375 C-0.80086122 4.56742102 -0.31009603 2.40324422 0 0 Z " fill="#6EA4A1" transform="translate(191,170)"/>
<path d="M0 0 C2.00257445 0.65889303 4.00215086 1.32691511 6 2 C6.7734375 2.25136719 7.546875 2.50273437 8.34375 2.76171875 C13.68377357 5.05444626 16.01803978 8.00290656 18.4375 13.25 C21.94953702 22.25802607 22.09472866 31.92390267 22.578125 41.47265625 C22.82829241 45.60797848 23.18292744 49.2102836 25 53 C25.99 53.66 26.98 54.32 28 55 C28 55.99 28 56.98 28 58 C29.98 58.33 31.96 58.66 34 59 C34.33 58.01 34.66 57.02 35 56 C36.32 56 37.64 56 39 56 C38.89171875 54.96552734 38.89171875 54.96552734 38.78125 53.91015625 C38.18806058 47.90411341 37.90107705 42.0343 38 36 C40 37 40 37 41.125 40.0625 C41.41375 41.031875 41.7025 42.00125 42 43 C42.66 43 43.32 43 44 43 C41.97334644 34.11722055 39.86824519 26.98302076 33.98828125 19.90625 C33 18 33 18 33 12 C39.6 12 46.2 12 53 12 C53.40766715 24.33193144 53.74515731 36.66392776 54 49 C54.01887268 49.9109845 54.03774536 50.82196899 54.05718994 51.76055908 C54.87806629 93.2271965 54.87806629 93.2271965 50.65039062 110.30566406 C49.90404025 113.39752694 49.25308912 116.50235596 48.609375 119.6171875 C45.71194114 133.59764368 42.54302439 147.514861 39.296875 161.41796875 C38.16386803 166.27145827 37.07153895 171.13258486 36 176 C28.22004419 178.05382639 20.25233549 177.62616774 13 174 C12.79683042 159.80313491 12.78645353 145.77606175 14 131.625 C17.15635489 95.94418283 17.15635489 95.94418283 10.70556641 61.17285156 C9.33851111 56.96288889 8.45035221 52.6318697 7.5 48.3125 C7.29777832 47.40371094 7.09555664 46.49492187 6.88720703 45.55859375 C6.4714245 43.6837925 6.05805757 41.80845408 5.64697266 39.93261719 C5.20269605 37.91878678 4.75147277 35.90648017 4.29443359 33.89550781 C-0.95070423 10.81690141 -0.95070423 10.81690141 0 0 Z " fill="#41465C" transform="translate(184,247)"/>
<path d="M0 0 C2.11742755 1.00085646 4.17189252 2.07710611 6.22802734 3.19824219 C12.77863513 6.54914393 18.35690417 8.51978748 25.85302734 8.26074219 C25.97802734 16.01074219 25.97802734 16.01074219 24.85302734 18.26074219 C26.50302734 18.26074219 28.15302734 18.26074219 29.85302734 18.26074219 C30.56610628 25.03499211 30.56610628 25.03499211 28.65771484 28.31542969 C25.94845645 31.59649136 24.15411761 33.52207668 19.85302734 34.26074219 C19.77052734 34.94136719 19.68802734 35.62199219 19.60302734 36.32324219 C18.61772959 40.18232506 16.99006101 42.8932952 14.85302734 46.26074219 C13.86302734 46.75574219 13.86302734 46.75574219 12.85302734 47.26074219 C11.76132098 49.00260977 11.76132098 49.00260977 10.79052734 51.07324219 C10.44892578 51.7603125 10.10732422 52.44738281 9.75537109 53.15527344 C8.8876674 55.17991538 8.32133663 57.112313 7.85302734 59.26074219 C7.19302734 59.26074219 6.53302734 59.26074219 5.85302734 59.26074219 C5.52302734 60.58074219 5.19302734 61.90074219 4.85302734 63.26074219 C4.19302734 63.26074219 3.53302734 63.26074219 2.85302734 63.26074219 C2.35802734 64.74574219 2.35802734 64.74574219 1.85302734 66.26074219 C-2.76573837 70.44355298 -7.1198984 71.8124912 -13.26416016 71.53417969 C-15.14697266 71.26074219 -15.14697266 71.26074219 -17.14697266 70.26074219 C-17.22947266 70.94136719 -17.31197266 71.62199219 -17.39697266 72.32324219 C-18.58758502 76.98647395 -20.7320055 80.75144389 -24.02197266 84.26074219 C-27.25416233 85.78177262 -28.79135345 85.4687651 -32.14697266 84.26074219 C-36.24742663 80.53924012 -39.6823319 76.2272947 -40.55322266 70.66699219 C-40.75238151 64.49306787 -40.06693273 60.50272579 -37.02197266 55.07324219 C-34.27047916 50.21406277 -34.27047916 50.21406277 -34.77197266 44.88574219 C-35.00658203 44.17804688 -35.24119141 43.47035156 -35.48291016 42.74121094 C-38.4577165 31.62943431 -35.69541004 20.34990012 -30.49462891 10.46386719 C-27.14761462 4.99222644 -23.11030198 3.83003938 -17.14697266 2.26074219 C-16.19822266 1.72449219 -15.24947266 1.18824219 -14.27197266 0.63574219 C-9.5997187 -1.42004955 -4.88187524 -1.680955 0 0 Z " fill="#F7B19E" transform="translate(299.14697265625,62.7392578125)"/>
<path d="M0 0 C0.33 0.99 0.66 1.98 1 3 C2.32728114 3.35667026 3.66210453 3.6854772 5 4 C6.5750965 5.07769761 8.11429394 6.20875461 9.625 7.375 C14.51381772 10.91793784 19.14098404 12.6910709 25 14 C23.23693757 19.89775706 20.37521457 24.92772566 17.36328125 30.26953125 C16.08652078 33.76324544 15.8627918 34.7591319 16.31958008 38.20532227 C16.42382797 38.99696274 16.52807587 39.78860321 16.63548279 40.60423279 C17.18782692 44.23448103 17.82571513 47.84035443 18.5234375 51.4453125 C18.67027985 52.21825653 18.81712219 52.99120056 18.96841431 53.78756714 C19.43407753 56.23400119 19.90452264 58.67948777 20.375 61.125 C20.68259064 62.7395264 20.98988427 64.35410942 21.296875 65.96875 C21.89910896 69.13220028 22.50867952 72.29410566 23.1237793 75.45507812 C23.70091673 78.42427495 24.25589708 81.39622284 24.79223633 84.37304688 C25.04242443 85.72006249 25.29266566 87.06706824 25.54296875 88.4140625 C25.7546167 89.58662598 25.96626465 90.75918945 26.18432617 91.96728516 C27.21375048 95.79473466 28.9335362 98.10332813 31.50390625 101.0390625 C35.48811805 106.26118867 37.70643642 113.46546311 37 120 C36.34 120 35.68 120 35 120 C34.01 118.02 33.02 116.04 32 114 C32 120.27 32 126.54 32 133 C30.68 133 29.36 133 28 133 C27.67 134.32 27.34 135.64 27 137 C24.0625 136.1875 24.0625 136.1875 21 135 C20.67 134.01 20.34 133.02 20 132 C18.515 131.01 18.515 131.01 17 130 C14.73465588 125.27536107 14.67918732 120.484173 14.42089844 115.34326172 C13.79173315 98.75928118 13.79173315 98.75928118 7 84 C2.78663205 80.71087884 -1.9947414 78.76212529 -7 77 C-7.33 77.99 -7.66 78.98 -8 80 C-8 78.35 -8 76.7 -8 75 C-8.66 75 -9.32 75 -10 75 C-10.38257471 67.80192762 -9.6766582 61.72440204 -7.55859375 54.82421875 C-6.78616821 50.91887842 -7.53509189 47.75260324 -8.54296875 43.953125 C-11.37892416 31.83365742 -7.12733913 17.64522951 -1.81640625 6.7734375 C-0.80086122 4.56742102 -0.31009603 2.40324422 0 0 Z " fill="#F5B09D" transform="translate(191,170)"/>
<path d="M0 0 C-1.83885425 25.64717767 -4.13200479 51.36549795 -7.66796875 76.8359375 C-8.36420966 83.4707038 -7.73672135 88.55604271 -5.5 94.8125 C-1.95436177 105.48980338 -2.88345418 114.0015208 -5 125 C-5.33 125 -5.66 125 -6 125 C-6 123.35 -6 121.7 -6 120 C-6.66 120 -7.32 120 -8 120 C-9.53600055 117.18931019 -10.36531037 114.70681823 -10.9375 111.5625 C-11.71526098 107.87421161 -12.6387965 105.02234047 -15 102 C-15.99 101.67 -16.98 101.34 -18 101 C-17.95875 101.928125 -17.9175 102.85625 -17.875 103.8125 C-18 107 -18 107 -20 110 C-20.66 110 -21.32 110 -22 110 C-23.14345944 106.56962169 -23.00536995 104.16809116 -22.8515625 100.55859375 C-21.85154073 83.23910568 -21.85154073 83.23910568 -26.5625 66.875 C-34.38786215 51.09933133 -30.32608231 29.19523548 -25 13 C-24.41468376 11.00057941 -23.83110154 9.00064959 -23.25 7 C-22.83733469 5.66542283 -22.42249459 4.33149811 -22 3 C-18.52739321 2.16731454 -15.72306709 1.96257308 -12.1875 2.4375 C-11.39730469 2.53933594 -10.60710937 2.64117187 -9.79296875 2.74609375 C-9.20128906 2.82988281 -8.60960937 2.91367188 -8 3 C-8 2.34 -8 1.68 -8 1 C-1.125 0 -1.125 0 0 0 Z " fill="#F3AD9C" transform="translate(302,197)"/>
<path d="M0 0 C3.30725508 2.29670491 4.71137758 4.84831959 5.62890625 8.75390625 C7.22812379 18.43338084 7.14313347 28.33977301 7.25 38.125 C7.282146 39.75078979 7.282146 39.75078979 7.31494141 41.40942383 C7.35343323 50.82067449 6.36749292 60.03107361 1 68 C-2.62419576 71.09122579 -6.08424805 71.65778918 -10.72265625 71.46484375 C-14.93499691 70.60503494 -17.44020151 68.37095541 -20 65 C-26.99432582 51.67038819 -26.49417211 36.57379591 -22.26171875 22.48046875 C-18.64751729 12.51064368 -12.39157723 -1.23915772 0 0 Z " fill="#EFF1FB" transform="translate(442,212)"/>
<path d="M0 0 C2.11742755 1.00085646 4.17189252 2.07710611 6.22802734 3.19824219 C12.77863513 6.54914393 18.35690417 8.51978748 25.85302734 8.26074219 C25.97802734 16.01074219 25.97802734 16.01074219 24.85302734 18.26074219 C26.50302734 18.26074219 28.15302734 18.26074219 29.85302734 18.26074219 C30.56610628 25.03499211 30.56610628 25.03499211 28.65771484 28.31542969 C25.94845645 31.59649136 24.15411761 33.52207668 19.85302734 34.26074219 C19.77052734 34.96199219 19.68802734 35.66324219 19.60302734 36.38574219 C18.68275009 39.91347166 16.97175757 42.32185833 14.85302734 45.26074219 C13.71658769 41.85142322 13.9855497 41.25738763 15.29052734 38.07324219 C15.72171875 37.00009766 15.72171875 37.00009766 16.16162109 35.90527344 C16.38978516 35.36257812 16.61794922 34.81988281 16.85302734 34.26074219 C15.41636719 34.40189453 15.41636719 34.40189453 13.95068359 34.54589844 C7.94430729 34.54740948 2.9597832 31.11530609 -2.20751953 28.37207031 C-7.13204671 25.85931495 -7.13204671 25.85931495 -12.56884766 25.35058594 C-16.67594739 26.8005166 -19.12337021 29.28314225 -21.12353516 33.14746094 C-21.85341368 34.82891006 -22.50704583 36.54304388 -23.14697266 38.26074219 C-24.13697266 38.26074219 -25.12697266 38.26074219 -26.14697266 38.26074219 C-26.47697266 35.62074219 -26.80697266 32.98074219 -27.14697266 30.26074219 C-29.54416698 29.58115616 -29.54416698 29.58115616 -32.14697266 29.26074219 C-34.5109865 31.18946295 -34.5109865 31.18946295 -34.39697266 34.63574219 C-34.16188501 38.04451299 -33.68703592 39.37312357 -32.14697266 42.26074219 C-32.02197266 45.01074219 -32.02197266 45.01074219 -32.14697266 47.26074219 C-34.14697266 46.26074219 -34.14697266 46.26074219 -35.25634766 43.62792969 C-38.31204762 32.07523946 -35.93823058 20.81147153 -30.49462891 10.46386719 C-27.14761462 4.99222644 -23.11030198 3.83003938 -17.14697266 2.26074219 C-16.19822266 1.72449219 -15.24947266 1.18824219 -14.27197266 0.63574219 C-9.5997187 -1.42004955 -4.88187524 -1.680955 0 0 Z " fill="#3D4358" transform="translate(299.14697265625,62.7392578125)"/>
<path d="M0 0 C0.33 0.99 0.66 1.98 1 3 C2.32728114 3.35667026 3.66210453 3.6854772 5 4 C6.5750965 5.07769761 8.11429394 6.20875461 9.625 7.375 C14.51381772 10.91793784 19.14098404 12.6910709 25 14 C23.61290554 18.64007742 21.65322297 22.58210616 19.3125 26.8125 C16.20650303 32.81659378 15.29925375 36.48544566 17 43 C17.40624187 45.03972819 17.78352273 47.08373309 18.15869141 49.12939453 C18.42341794 50.56058236 18.69751226 51.99007609 18.98193359 53.41748047 C19.63308012 56.71165717 20 59.62289289 20 63 C19.34 63 18.68 63 18 63 C18 62.34 18 61.68 18 61 C16.9275 60.87625 15.855 60.7525 14.75 60.625 C11.62136385 60.10356064 9.66519576 59.59911746 7 58 C7 57.34 7 56.68 7 56 C4.03 55.34 1.06 54.68 -2 54 C-2.33 54.99 -2.66 55.98 -3 57 C-3.81674796 55.25197854 -4.62823451 53.50149811 -5.4375 51.75 C-5.88996094 50.77546875 -6.34242188 49.8009375 -6.80859375 48.796875 C-11.91556373 36.80805368 -8.48276733 22.83433664 -3.87890625 11.15625 C-3.21021855 9.68660671 -2.52511463 8.22420525 -1.81640625 6.7734375 C-0.80086122 4.56742102 -0.31009603 2.40324422 0 0 Z " fill="#F4B19F" transform="translate(191,170)"/>
<path d="M0 0 C4.44189827 0.37015819 5.71323294 1.11158337 8.75 4.3125 C16.25239835 15.07114764 16.93492768 28.23311518 15.44140625 40.9375 C14.25102116 47.00530363 12.07081641 52.75960195 7.875 57.375 C4.6970034 58.77705732 3.00412581 58.46500289 -0.25 57.3125 C-3.57893738 53.00446339 -5.54870411 48.5635468 -7.375 43.5 C-7.63361816 42.79004883 -7.89223633 42.08009766 -8.15869141 41.34863281 C-11.76097261 31.27699566 -14.56777498 20.43065762 -11.0625 9.875 C-9.20825728 6.23045397 -7.32139497 3.97976405 -4.25 1.3125 C-3.25 0.3125 -3.25 0.3125 0 0 Z " fill="#EFF1FB" transform="translate(60.25,226.6875)"/>
<path d="M0 0 C2.75047933 0.60204936 5.50047094 1.20613479 8.25 1.8125 C9.48157837 2.08380737 9.48157837 2.08380737 10.73803711 2.3605957 C15.37003196 3.3891717 19.97191859 4.48477958 24.5625 5.6875 C29.37958384 6.9236833 34.04607736 7.58717311 39 8 C39 8.66 39 9.32 39 10 C39.59425781 9.97679687 40.18851563 9.95359375 40.80078125 9.9296875 C47.4225223 9.78551273 53.53082341 10.62253274 60 12 C60 14.64 60 17.28 60 20 C58.06530224 20.63362121 56.12703261 21.25633651 54.1875 21.875 C53.10855469 22.22304687 52.02960938 22.57109375 50.91796875 22.9296875 C40.54879444 25.8969884 30.51075322 26.25602425 19.8125 26.125 C18.36914689 26.11494179 16.92578694 26.105821 15.48242188 26.09765625 C11.98813606 26.07588691 8.49411363 26.04151675 5 26 C4.67 26.66 4.34 27.32 4 28 C3.79503906 26.81921875 3.59007812 25.6384375 3.37890625 24.421875 C3.10684695 22.86457003 2.83470732 21.3072791 2.5625 19.75 C2.42779297 18.97269531 2.29308594 18.19539063 2.15429688 17.39453125 C1.95610352 16.26337891 1.95610352 16.26337891 1.75390625 15.109375 C1.63345947 14.41811523 1.5130127 13.72685547 1.38891602 13.01464844 C1.0225513 10.98757204 1.0225513 10.98757204 0.45678711 8.97753906 C-0.23327786 5.99008517 -0.05868376 3.05155531 0 0 Z " fill="#6FA29F" transform="translate(212,233)"/>
<path d="M0 0 C-0.25623935 3.57386456 -0.53329251 7.14576562 -0.8203125 10.71728516 C-0.94961007 12.35985617 -1.0740221 14.00281442 -1.1953125 15.64599609 C-1.41037071 18.53584085 -1.64174291 21.42407212 -1.875 24.3125 C-1.94122559 25.24271973 -2.00745117 26.17293945 -2.07568359 27.13134766 C-2.15125488 28.03288574 -2.22682617 28.93442383 -2.3046875 29.86328125 C-2.36640137 30.66032471 -2.42811523 31.45736816 -2.49169922 32.27856445 C-3.18209282 35.97492249 -4.67967753 39.47914007 -6 43 C-11.94 43 -17.88 43 -24 43 C-24.06923015 38.44619427 -24.12885053 33.89424657 -24.16479492 29.34033203 C-24.1797933 27.79437032 -24.20019887 26.24845052 -24.22631836 24.70263672 C-24.48676127 8.8820065 -24.48676127 8.8820065 -21 2 C-16.71 2.33 -12.42 2.66 -8 3 C-8 2.34 -8 1.68 -8 1 C-1.125 0 -1.125 0 0 0 Z " fill="#F5AD9C" transform="translate(302,197)"/>
<path d="M0 0 C1.34532269 3.4594012 0.8998497 5.72707914 -0.125 9.25 C-6.41838812 14.78055319 -15.60193384 14.62668769 -23.515625 14.5078125 C-32.08428239 13.89576554 -41.25777641 12.01806401 -47.5625 5.875 C-49.125 3.25 -49.125 3.25 -49.1875 0.625 C-47.72346927 -2.64753929 -46.41747641 -3.34894621 -43.125 -4.75 C-30.61924318 -7.08158178 -10.29655139 -8.47951291 0 0 Z " fill="#F0F1FB" transform="translate(222.125,45.75)"/>
<path d="M0 0 C0.495 0.165 0.99 0.33 1.5 0.5 C5.0629869 1.21259738 8.36534196 1.11916912 12 1 C12.33 0.67 12.66 0.34 13 0 C16.20648519 -0.41391805 17.61580443 -0.26021985 20.32421875 1.57421875 C21.10410156 2.27160156 21.88398438 2.96898437 22.6875 3.6875 C26.8321895 7.19406839 30.83586694 9.66699534 35.7734375 11.89453125 C38.08218498 13.04080412 39.98790497 14.39675533 42 16 C41.625 17.9375 41.625 17.9375 41 20 C32.45583774 24.27208113 16.93668416 21.15195023 7.8125 19.625 C7.05324219 19.49899414 6.29398438 19.37298828 5.51171875 19.24316406 C0.27446546 18.27446546 0.27446546 18.27446546 -2 16 C-2.265625 13.3203125 -2.265625 13.3203125 -2.25 10.125 C-2.25515625 9.07570313 -2.2603125 8.02640625 -2.265625 6.9453125 C-2.0075764 4.08400889 -1.4774449 2.42723091 0 0 Z " fill="#404559" transform="translate(198,427)"/>
<path d="M0 0 C20.87052166 -1.29887667 20.87052166 -1.29887667 26.0625 3.125 C26.68253906 3.76308594 27.30257813 4.40117187 27.94140625 5.05859375 C31.28476795 8.21163125 35.42192304 9.71516073 39.59375 11.54296875 C42 13 42 13 42.84375 15.17578125 C42.8953125 15.77777344 42.946875 16.37976563 43 17 C39.5647443 19.29017046 38.26567254 19.25684742 34.22265625 19.265625 C32.49112305 19.26949219 32.49112305 19.26949219 30.72460938 19.2734375 C28.91186523 19.26183594 28.91186523 19.26183594 27.0625 19.25 C25.30196289 19.26160156 25.30196289 19.26160156 23.50585938 19.2734375 C5.46710161 19.23355081 5.46710161 19.23355081 -1 16 C-1.02692484 13.70839681 -1.04636124 11.41670454 -1.0625 9.125 C-1.07410156 7.84882813 -1.08570313 6.57265625 -1.09765625 5.2578125 C-1 2 -1 2 0 0 Z " fill="#3E4355" transform="translate(269,427)"/>
<path d="M0 0 C1.65 0 3.3 0 5 0 C5 11.88 5 23.76 5 36 C7.64 33.69 10.28 31.38 13 29 C14.65 29.33 16.3 29.66 18 30 C18 30.99 18 31.98 18 33 C17.34 33 16.68 33 16 33 C15.79375 33.556875 15.5875 34.11375 15.375 34.6875 C13.83330565 37.28034959 11.94684568 38.83674003 9.59765625 40.6953125 C7.2224266 42.63498659 5.13554138 44.80164858 3 47 C-1.49487261 45.58732575 -3.84674098 43.46089404 -7 40 C-7.55558594 39.43667969 -8.11117187 38.87335938 -8.68359375 38.29296875 C-10.29363726 36.58624826 -11.73782701 34.97890694 -13 33 C-12.875 30.0625 -12.875 30.0625 -12 28 C-11.01 28 -10.02 28 -9 28 C-9 28.66 -9 29.32 -9 30 C-8.4225 30.2475 -7.845 30.495 -7.25 30.75 C-4.69890938 32.16727257 -3.02026893 33.91182287 -1 36 C-1.00523682 34.94498291 -1.01047363 33.88996582 -1.01586914 32.80297852 C-1.03391901 28.9024337 -1.04543195 25.0018926 -1.05493164 21.10131836 C-1.0599719 19.41055684 -1.06680405 17.71979971 -1.07543945 16.02905273 C-1.08751857 13.60399293 -1.09323123 11.17899056 -1.09765625 8.75390625 C-1.10281754 7.99348526 -1.10797882 7.23306427 -1.11329651 6.44960022 C-1.11349238 4.6326743 -1.06197277 2.81586873 -1 1 C-0.67 0.67 -0.34 0.34 0 0 Z " fill="#C3C7DC" transform="translate(137,90)"/>
<path d="M0 0 C1.98 0 3.96 0 6 0 C6.33 11.55 6.66 23.1 7 35 C8.65 33.35 10.3 31.7 12 30 C12.66 30 13.32 30 14 30 C14 29.34 14 28.68 14 28 C15.32 28.33 16.64 28.66 18 29 C17.75 31.375 17.75 31.375 17 34 C15.0625 35.0625 15.0625 35.0625 13 36 C12.29848848 37.3153341 11.63474075 38.65117592 11 40 C9 42.25 9 42.25 7 44 C6.34 44 5.68 44 5 44 C5 44.66 5 45.32 5 46 C2.875 46.4375 2.875 46.4375 0 46 C-1.67313716 44.41208967 -3.02911401 42.69477837 -4.4453125 40.875 C-5.94827277 39.0623846 -7.44925065 37.73891098 -9.3125 36.3125 C-12 34 -12 34 -12.875 31.6875 C-12.936875 30.8521875 -12.936875 30.8521875 -13 30 C-10.9375 29.0625 -10.9375 29.0625 -8 29 C-5.69 31.31 -3.38 33.62 -1 36 C-0.67 24.12 -0.34 12.24 0 0 Z " fill="#C2C7DB" transform="translate(380,90)"/>
<path d="M0 0 C0.71671875 0.73347656 1.4334375 1.46695313 2.171875 2.22265625 C9.45401374 9.37403835 17.81616933 16.40808466 27 21 C27 22.65 27 24.3 27 26 C22.00088076 25.52389341 19.02167317 23.96837781 15 21 C15 21.99 15 22.98 15 24 C14.34 24 13.68 24 13 24 C13 24.66 13 25.32 13 26 C15.46326712 27.6446674 15.46326712 27.6446674 18 29 C15.75900036 29.75856846 14.43526174 30.13259024 12.140625 29.43359375 C7.6741319 27.08037941 3.7041738 24.42829341 -0.23828125 21.26953125 C-2.08424775 19.80631706 -2.08424775 19.80631706 -5 19 C-5 18.01 -5 17.02 -5 16 C-5.66 16 -6.32 16 -7 16 C-6.40165275 11.85701333 -4.99335715 8.81805623 -2.9375 5.1875 C-2.11572266 3.72376953 -2.11572266 3.72376953 -1.27734375 2.23046875 C-0.85582031 1.49441406 -0.43429688 0.75835937 0 0 Z " fill="#74A39F" transform="translate(197,154)"/>
<path d="M0 0 C5.94 0.99 5.94 0.99 12 2 C12 2.66 12 3.32 12 4 C12.969375 4.09796875 13.93875 4.1959375 14.9375 4.296875 C22.0749761 5.07413481 28.94341123 6.10639057 35.875 8 C44.47785734 10.34073729 53.13730544 11.22041113 62 12 C62 8.7 62 5.4 62 2 C62.33 2 62.66 2 63 2 C63 9.59 63 17.18 63 25 C62.67 25 62.34 25 62 25 C62 22.69 62 20.38 62 18 C60.4221875 18.061875 60.4221875 18.061875 58.8125 18.125 C52.79541411 18.14668319 46.9143257 17.00976292 41 16 C41 15.34 41 14.68 41 14 C39.11474609 14.07154297 39.11474609 14.07154297 37.19140625 14.14453125 C31.56568375 14.14122912 26.38685907 12.99459712 20.9375 11.6875 C19.99583984 11.47416016 19.05417969 11.26082031 18.08398438 11.04101562 C12.52496973 9.74507275 7.29680498 8.12745642 2 6 C1.67 6.66 1.34 7.32 1 8 C0.67 5.36 0.34 2.72 0 0 Z " fill="#93BBBA" transform="translate(210,227)"/>
<path d="M0 0 C4.06301833 0.6079699 7.13317475 1.95176752 10.75 3.875 C15.75864084 6.45370617 20.61000286 8.38300086 26 10 C26 10.66 26 11.32 26 12 C26.86109375 12.12503906 27.7221875 12.25007812 28.609375 12.37890625 C31.95247997 12.99129529 35.02144601 13.8838463 38.25 14.9375 C43.80464298 16.69126213 49.26912276 17.97357423 55 19 C53.68 22.96 52.36 26.92 51 31 C50.67 31 50.34 31 50 31 C49.957279 29.33388095 49.95936168 27.66617115 50 26 C50.495 25.505 50.495 25.505 51 25 C50.44650879 24.83918945 49.89301758 24.67837891 49.32275391 24.51269531 C37.47190383 21.05486143 25.96303517 17.62989367 14.9609375 11.94921875 C11.72772934 10.3841399 8.3809623 9.20748653 5 8 C5 7.34 5 6.68 5 6 C3.35 5.67 1.7 5.34 0 5 C-0.33 4.01 -0.66 3.02 -1 2 C-0.67 1.34 -0.34 0.68 0 0 Z " fill="#90B9B7" transform="translate(227,179)"/>
<path d="M0 0 C0.66 0 1.32 0 2 0 C5.09791203 24.37976058 5.09791203 24.37976058 6.35302734 36.28857422 C6.77493628 40.2336598 7.3462229 44.07733741 8 48 C9.32 36.12 10.64 24.24 12 12 C12.99 11.67 13.98 11.34 15 11 C16.32 17.27 17.64 23.54 19 30 C22.96 30.33 26.92 30.66 31 31 C31 31.66 31 32.32 31 33 C26.38 33 21.76 33 17 33 C15.66416101 28.15758367 14.74671881 24.06562383 15 19 C14.34 19 13.68 19 13 19 C13.02320312 19.76658936 13.04640625 20.53317871 13.0703125 21.32299805 C13.2162383 29.99841714 12.33180938 38.2502255 11 46.8125 C10.80921875 48.08931641 10.6184375 49.36613281 10.421875 50.68164062 C9.95633251 53.78913675 9.48227035 56.89506397 9 60 C8.01 60 7.02 60 6 60 C5.53688473 56.27141165 5.07979117 52.54211264 4.625 48.8125 C4.48779541 47.69093506 4.35059082 46.56937012 4.20922852 45.41381836 C3.20699827 37.08149356 2.36616416 28.74514066 1.73486328 20.3762207 C1.52948664 15.71055678 1.52948664 15.71055678 -1 12 C-1.20225023 7.82016197 -1.33650858 4.00952575 0 0 Z " fill="#CCD0DE" transform="translate(109,352)"/>
<path d="M0 0 C-0.99 2.31 -1.98 4.62 -3 7 C-3.66 7 -4.32 7 -5 7 C-5 7.66 -5 8.32 -5 9 C-5.598125 9.515625 -6.19625 10.03125 -6.8125 10.5625 C-12.35430482 16.73765394 -12.49447444 25.13742206 -12.6875 33.0625 C-12.72166016 34.02349609 -12.75582031 34.98449219 -12.79101562 35.97460938 C-12.87256667 38.31628927 -12.94200966 40.65763863 -13 43 C-13.99 43 -14.98 43 -16 43 C-16.70149608 40.12777999 -17.38645333 37.25321849 -18.0625 34.375 C-18.26166016 33.56675781 -18.46082031 32.75851563 -18.66601562 31.92578125 C-20.59562696 23.59798495 -18.96941728 18.20154336 -15.25 10.6875 C-14.74726563 9.59598633 -14.74726563 9.59598633 -14.234375 8.48242188 C-11.64998511 3.23043257 -11.64998511 3.23043257 -8.234375 2.01953125 C-7.49703125 2.01308594 -6.7596875 2.00664062 -6 2 C-6 1.34 -6 0.68 -6 0 C-3.50907189 -1.24546405 -2.58919267 -0.7767578 0 0 Z " fill="#5B8C85" transform="translate(226,183)"/>
<path d="M0 0 C2.14201702 2.14201702 2.62785414 3.36363707 3.5859375 6.18359375 C4.01990845 7.44478027 4.01990845 7.44478027 4.46264648 8.73144531 C4.91426147 10.07094238 4.91426147 10.07094238 5.375 11.4375 C5.99821004 13.2540737 6.62190493 15.07048113 7.24609375 16.88671875 C7.54628418 17.76505371 7.84647461 18.64338867 8.15576172 19.54833984 C9.70769079 24.05512749 11.34889694 28.52868985 13 33 C7.70139194 31.7023817 3.65474354 29.84984298 -1 27 C-1.33 27.99 -1.66 28.98 -2 30 C-2 28.35 -2 26.7 -2 25 C-2.66 25 -3.32 25 -4 25 C-4.65895285 16.03091948 -2.77900436 8.49829459 0 0 Z " fill="#7BA3A0" transform="translate(185,220)"/>
<path d="M0 0 C0.33 0 0.66 0 1 0 C1.01030746 0.56154282 1.02061493 1.12308563 1.03123474 1.7016449 C1.13907685 7.52493466 1.25369208 13.34806264 1.37231445 19.17114258 C1.41573507 21.34688953 1.45740471 23.52267214 1.49731445 25.69848633 C1.55484502 28.81863168 1.61858823 31.93859633 1.68359375 35.05859375 C1.70030624 36.03775253 1.71701874 37.01691132 1.73423767 38.02574158 C1.75418289 38.92659988 1.77412811 39.82745819 1.79467773 40.75561523 C1.81022202 41.55281479 1.8257663 42.35001434 1.84178162 43.17137146 C1.80400665 45.01851382 1.80400665 45.01851382 3 46 C3.07319621 48.69654854 3.09242537 51.36691458 3.0625 54.0625 C3.05798828 54.82111328 3.05347656 55.57972656 3.04882812 56.36132812 C3.0370068 58.24091871 3.01907078 60.12046899 3 62 C-3.37114465 55.62885535 -5.14696952 46.79770663 -5.30859375 38.1171875 C-5.14797127 25.04866937 -4.20930057 12.43212029 0 0 Z " fill="#EBEAF3" transform="translate(277,210)"/>
<path d="M0 0 C0.71671875 0.73347656 1.4334375 1.46695313 2.171875 2.22265625 C9.45401374 9.37403835 17.81616933 16.40808466 27 21 C27 22.65 27 24.3 27 26 C22.20522953 25.50786813 19.44901968 24.2794607 15.625 21.375 C14.67625 20.65441406 13.7275 19.93382812 12.75 19.19140625 C7.18973426 14.76056949 1.94896034 10.10361535 -3 5 C-2.01 3.35 -1.02 1.7 0 0 Z " fill="#8EB9B7" transform="translate(197,154)"/>
<path d="M0 0 C0.33 0 0.66 0 1 0 C1.04898438 0.74765625 1.09796875 1.4953125 1.1484375 2.265625 C1.22320312 3.25046875 1.29796875 4.2353125 1.375 5.25 C1.44460937 6.22453125 1.51421875 7.1990625 1.5859375 8.203125 C2.01091677 11.07373971 2.28572639 12.66858789 4 15 C6.95980628 16.8830811 6.95980628 16.8830811 10.5 18.5 C11.12277832 18.80043213 11.74555664 19.10086426 12.38720703 19.41040039 C17.49618337 21.84421441 22.69375156 24.031553 28 26 C28.33 28.31 28.66 30.62 29 33 C28.34 33 27.68 33 27 33 C27 32.34 27 31.68 27 31 C25.39125 30.814375 25.39125 30.814375 23.75 30.625 C20.62136385 30.10356064 18.66519576 29.59911746 16 28 C16 27.34 16 26.68 16 26 C11.545 25.01 11.545 25.01 7 24 C6.67 24.99 6.34 25.98 6 27 C5.18325204 25.25197854 4.37176549 23.50149811 3.5625 21.75 C3.11003906 20.77546875 2.65757812 19.8009375 2.19140625 18.796875 C0.25104045 14.24178676 -0.11647071 10.71530534 -0.0625 5.75 C-0.04896484 4.13351563 -0.04896484 4.13351563 -0.03515625 2.484375 C-0.02355469 1.66453125 -0.01195312 0.8446875 0 0 Z " fill="#F2C2B5" transform="translate(182,200)"/>
<path d="M0 0 C0.33 0 0.66 0 1 0 C1.2713982 7.8620666 0.2207019 15.30526934 -1 23.0625 C-1.19078125 24.30966797 -1.3815625 25.55683594 -1.578125 26.84179688 C-2.04612582 29.89550224 -2.52022391 32.94812644 -3 36 C-4.485 35.505 -4.485 35.505 -6 35 C-6.79956055 32.68334961 -6.79956055 32.68334961 -7.38671875 29.65234375 C-7.60263672 28.57275391 -7.81855469 27.49316406 -8.04101562 26.38085938 C-8.25435547 25.24455078 -8.46769531 24.10824219 -8.6875 22.9375 C-8.91244141 21.79732422 -9.13738281 20.65714844 -9.36914062 19.48242188 C-9.92475578 16.6570597 -10.46776574 13.82984377 -11 11 C-12.32 13.97 -13.64 16.94 -15 20 C-19.62 20 -24.24 20 -29 20 C-29 19.34 -29 18.68 -29 18 C-22.565 17.505 -22.565 17.505 -16 17 C-15.2884375 14.586875 -15.2884375 14.586875 -14.5625 12.125 C-13.125 7.25 -13.125 7.25 -12 5 C-11.34 5 -10.68 5 -10 5 C-7.5 15 -7.5 15 -5 25 C-3.52637569 19.36178526 -2.35055267 13.74381521 -1.375 8 C-1.2409375 7.22527344 -1.106875 6.45054687 -0.96875 5.65234375 C-0.64317951 3.76868593 -0.32120574 1.88440702 0 0 Z " fill="#CDD0DD" transform="translate(107,365)"/>
<path d="M0 0 C0.33 0 0.66 0 1 0 C-2 30 -2 30 -6 34 C-8.33297433 34.04092937 -10.66705225 34.04241723 -13 34 C-11.99050997 30.42089898 -10.69908929 27.44608407 -8.75 24.3125 C-4.43050555 16.85976031 -2.41875979 8.21576667 0 0 Z " fill="#568E8B" transform="translate(295,165)"/>
<path d="M0 0 C0.33 0 0.66 0 1 0 C0.67 5.28 0.34 10.56 0 16 C-0.33 16 -0.66 16 -1 16 C-1 14.35 -1 12.7 -1 11 C-6.61 11 -12.22 11 -18 11 C-18 14.3 -18 17.6 -18 21 C-18.33 21 -18.66 21 -19 21 C-19 16.05 -19 11.1 -19 6 C-13.06 5.67 -7.12 5.34 -1 5 C-0.67 3.35 -0.34 1.7 0 0 Z " fill="#F3BFB5" transform="translate(297,234)"/>
<path d="M0 0 C0.66 0.66 1.32 1.32 2 2 C1.72285156 2.55042969 1.44570312 3.10085937 1.16015625 3.66796875 C-3.07644728 13.39255693 -2.83143124 23.5647218 -3 34 C-3.66 34 -4.32 34 -5 34 C-5.22786458 31.94921875 -5.45572917 29.8984375 -5.68359375 27.84765625 C-5.81886614 25.98859771 -5.81886614 25.98859771 -7 25 C-7.28898486 23.07051526 -7.50662879 21.13010372 -7.6875 19.1875 C-7.79449219 18.12917969 -7.90148437 17.07085937 -8.01171875 15.98046875 C-7.99985952 12.96427127 -7.58867798 11.51388507 -6 9 C-5.34 9 -4.68 9 -4 9 C-3.566875 7.329375 -3.566875 7.329375 -3.125 5.625 C-2 2 -2 2 0 0 Z " fill="#58908B" transform="translate(216,192)"/>
<path d="M0 0 C0.33 0.99 0.66 1.98 1 3 C2.32728114 3.35667026 3.66210453 3.6854772 5 4 C6.5750965 5.07769761 8.11429394 6.20875461 9.625 7.375 C14.51381772 10.91793784 19.14098404 12.6910709 25 14 C24.34 15.98 23.68 17.96 23 20 C22.67 19.01 22.34 18.02 22 17 C20.845 16.938125 19.69 16.87625 18.5 16.8125 C13.4459033 16.17850554 10.0505293 13.95871996 6 11 C5.39414063 10.59394531 4.78828125 10.18789062 4.1640625 9.76953125 C2.5 8.5625 2.5 8.5625 0 6 C-0.375 2.6875 -0.375 2.6875 0 0 Z " fill="#E49384" transform="translate(191,170)"/>
<path d="M0 0 C0.27070313 0.58652344 0.54140625 1.17304688 0.8203125 1.77734375 C1.98657347 3.974703 3.2861781 5.65673694 4.875 7.5625 C9.51649381 13.64877252 12.8406817 21.22369431 12 29 C11.34 29 10.68 29 10 29 C9.73445312 28.44570313 9.46890625 27.89140625 9.1953125 27.3203125 C8.84210938 26.59585937 8.48890625 25.87140625 8.125 25.125 C7.77695313 24.40570313 7.42890625 23.68640625 7.0703125 22.9453125 C5.419013 19.94404553 4.27778029 19.09259343 1 18 C1.165 17.0925 1.33 16.185 1.5 15.25 C2.10137146 11.88912497 2.10137146 11.88912497 2 8 C1.34 8 0.68 8 0 8 C0 5.36 0 2.72 0 0 Z " fill="#E7AB9B" transform="translate(216,261)"/>
<path d="M0 0 C0.66 0.165 1.32 0.33 2 0.5 C5.75634115 1.12605686 9.19113754 1.12696208 13 1 C13.33 0.67 13.66 0.34 14 0 C20.52542373 -0.23728814 20.52542373 -0.23728814 23 1 C26.54171978 1.16669318 26.54171978 1.16669318 30 1 C30.33 0.67 30.66 0.34 31 0 C38.45864662 -0.36090226 38.45864662 -0.36090226 42 2 C42 2.66 42 3.32 42 4 C41.28972656 3.91621094 40.57945312 3.83242187 39.84765625 3.74609375 C38.46900391 3.59333984 38.46900391 3.59333984 37.0625 3.4375 C35.68771484 3.28087891 35.68771484 3.28087891 34.28515625 3.12109375 C33.53105469 3.08113281 32.77695312 3.04117188 32 3 C31.67 3.33 31.34 3.66 31 4 C29.50261876 4.0979057 28.00057108 4.12974864 26.5 4.125 C25.6853125 4.12757813 24.870625 4.13015625 24.03125 4.1328125 C22 4 22 4 21 3 C18 2.83333333 18 2.83333333 15 3 C14.67 3.33 14.34 3.66 14 4 C8.98237317 4.4457809 4.55377389 4.35033491 0 2 C0 1.34 0 0.68 0 0 Z " fill="#D5D8E6" transform="translate(359,175)"/>
<path d="M0 0 C0.71027344 0.08378906 1.42054687 0.16757812 2.15234375 0.25390625 C3.53099609 0.40666016 3.53099609 0.40666016 4.9375 0.5625 C5.85402344 0.66691406 6.77054687 0.77132813 7.71484375 0.87890625 C8.84599609 0.93884766 8.84599609 0.93884766 10 1 C10.33 0.67 10.66 0.34 11 0 C14.73424758 -0.1493699 18.17256164 0.02504927 21.875 0.5625 C22.90625 0.706875 23.9375 0.85125 25 1 C25.33 0.67 25.66 0.34 26 0 C28.70108504 0.090916 31.36930311 0.23740766 34.0625 0.4375 C35.20041992 0.51581055 35.20041992 0.51581055 36.36132812 0.59570312 C38.24121722 0.72575835 40.12065685 0.86228038 42 1 C42 1.66 42 2.32 42 3 C38.35935879 4.8203206 34.54181428 4.09030238 30.625 3.4375 C27.09781613 3.0118054 24.44973918 3.27435966 20.9921875 3.8125 C17.92937295 4.1007649 15.02172174 3.48347548 12 3 C11.01 3.495 11.01 3.495 10 4 C3.52941176 4.35294118 3.52941176 4.35294118 0 2 C0 1.34 0 0.68 0 0 Z " fill="#D7DAE7" transform="translate(112,333)"/>
<path d="M0 0 C2.76223278 2.76223278 2.57856291 5.20706617 3 9 C3.66 9 4.32 9 5 9 C5.33 11.31 5.66 13.62 6 16 C4.576875 16.4640625 4.576875 16.4640625 3.125 16.9375 C0.13919592 17.87394742 0.13919592 17.87394742 -2 19 C-3.69843394 12.20626425 -1.92258516 6.61499641 0 0 Z " fill="#75A7A5" transform="translate(184,222)"/>
<path d="M0 0 C0.33 0 0.66 0 1 0 C0.93941406 0.77601563 0.87882812 1.55203125 0.81640625 2.3515625 C0.17928286 10.56555329 -0.42090107 18.78172371 -1 27 C-1.33 27 -1.66 27 -2 27 C-2 21.06 -2 15.12 -2 9 C-5.96 8.67 -9.92 8.34 -14 8 C-13.67 7.01 -13.34 6.02 -13 5 C-9.04 4.34 -5.08 3.68 -1 3 C-0.67 2.01 -0.34 1.02 0 0 Z " fill="#EEBDB3" transform="translate(301,197)"/>
<path d="M0 0 C0.66 0.33 1.32 0.66 2 1 C1.67 1.66 1.34 2.32 1 3 C0.34 3 -0.32 3 -1 3 C-0.67 3.99 -0.34 4.98 0 6 C-5.89510757 7.17902151 -12.70858159 8.52761227 -18 5 C-17.67 3.68 -17.34 2.36 -17 1 C-15.85660156 1.01160156 -14.71320313 1.02320313 -13.53515625 1.03515625 C-12.04427246 1.04453288 -10.55338691 1.05363321 -9.0625 1.0625 C-8.30775391 1.07087891 -7.55300781 1.07925781 -6.77539062 1.08789062 C-4.85005687 1.09652441 -2.92464419 1.05224333 -1 1 C-0.67 0.67 -0.34 0.34 0 0 Z " fill="#D8ABA2" transform="translate(288,421)"/>
<path d="M0 0 C3.5 0.3125 3.5 0.3125 7 1 C7.495 1.99 7.495 1.99 8 3 C5.03 3 2.06 3 -1 3 C-1 3.66 -1 4.32 -1 5 C-6.75 5.125 -6.75 5.125 -9 4 C-12.25522556 3.8520352 -14.94633544 3.98712051 -18.125 4.75 C-21 5 -21 5 -23.375 3.0625 C-24.179375 2.0415625 -24.179375 2.0415625 -25 1 C-22.94921875 1.29296875 -20.8984375 1.5859375 -18.84765625 1.87890625 C-18.23792969 1.91886719 -17.62820313 1.95882812 -17 2 C-16.67 1.67 -16.34 1.34 -16 1 C-12.7848773 0.93990425 -9.58547814 0.98008297 -6.37109375 1.0390625 C-4.58080145 1.05975952 -2.79009925 1.0334598 -1 1 C-0.67 0.67 -0.34 0.34 0 0 Z " fill="#D6D9E6" transform="translate(401,158)"/>
<path d="M0 0 C4.95 0.33 9.9 0.66 15 1 C15 1.99 15 2.98 15 4 C10.46705387 6.26647307 6.9747534 6.3948217 2 6 C-0.5 4.5 -0.5 4.5 -2 3 C-1.34 3 -0.68 3 0 3 C0 2.01 0 1.02 0 0 Z " fill="#E7B2A6" transform="translate(200,423)"/>
<path d="M0 0 C4 1 4 1 5.1953125 2.49609375 C7.77066777 7.87404151 9.08367574 13.11623371 10 19 C8 19 8 19 5.8125 16.875 C4 14 4 14 4.25 10.8125 C4.4975 9.884375 4.745 8.95625 5 8 C5 7.34 5 6.68 5 6 C3.68 6.33 2.36 6.66 1 7 C0.87625 7.78375 0.7525 8.5675 0.625 9.375 C0 12 0 12 -2 14 C-2 12.68 -2 11.36 -2 10 C-1.34 10 -0.68 10 0 10 C0 6.7 0 3.4 0 0 Z " fill="#37373F" transform="translate(284,298)"/>
<path d="M0 0 C3 2 3 2 4.25 4.3125 C5.99311694 6.98942959 7.07316483 7.83250654 9.6875 9.5 C11.546875 10.73046875 11.546875 10.73046875 13 12 C13.4375 14.8125 13.4375 14.8125 13 17 C7.25056746 14.01471772 3.61786156 11.39750927 0.75 5.375 C0 3 0 3 0 0 Z " fill="#EB9583" transform="translate(269,120)"/>
<path d="M0 0 C0.33 0 0.66 0 1 0 C0.855625 1.27875 0.71125 2.5575 0.5625 3.875 C0.06374253 8.99459875 -0.34165078 14.11807744 -0.6875 19.25 C-0.74800537 20.01812012 -0.80851074 20.78624023 -0.87084961 21.57763672 C-1.16272649 26.24058486 -0.69683035 29.56827838 1 34 C0.625 36.375 0.625 36.375 0 38 C-0.33 36.68 -0.66 35.36 -1 34 C-1.66 34 -2.32 34 -3 34 C-4.71589253 28.85232241 -3.61265327 23.47556838 -3.1875 18.125 C-3.10435547 16.94035156 -3.02121094 15.75570313 -2.93554688 14.53515625 C-2.84724609 13.39175781 -2.75894531 12.24835938 -2.66796875 11.0703125 C-2.58828857 10.02633301 -2.5086084 8.98235352 -2.42651367 7.90673828 C-1.99970301 4.997976 -1.20658284 2.67016014 0 0 Z " fill="#EDB9B0" transform="translate(295,256)"/>
<path d="M0 0 C1.52292739 4.56878217 -0.48492033 7.7720826 -2.1875 12.125 C-2.64479492 13.37990234 -2.64479492 13.37990234 -3.11132812 14.66015625 C-3.41876953 15.45550781 -3.72621094 16.25085938 -4.04296875 17.0703125 C-4.32164795 17.80008301 -4.60032715 18.52985352 -4.88745117 19.28173828 C-6 21 -6 21 -8.12231445 21.74560547 C-8.74195068 21.82955566 -9.36158691 21.91350586 -10 22 C-9.46116729 17.5382023 -8.35160755 14.33129379 -6.125 10.4375 C-5.61195313 9.52871094 -5.09890625 8.61992187 -4.5703125 7.68359375 C-3.06502093 5.11111786 -1.5409164 2.55127776 0 0 Z " fill="#5A928F" transform="translate(236,155)"/>
<path d="M0 0 C0.99 0 1.98 0 3 0 C5.09350689 3.4019487 5.17942163 6.05272412 5 10 C3.34385343 10.38218767 1.67542976 10.71395102 0 11 C-1.89885096 9.10114904 -1.12367506 6.42752097 -1.1328125 3.91015625 C-1 2 -1 2 0 0 Z " fill="#C6CBDE" transform="translate(344,224)"/>
<path d="M0 0 C3 1 3 1 5 4 C5.125 7.1875 5.125 7.1875 5 10 C3.34385343 10.38218767 1.67542976 10.71395102 0 11 C-1 10 -1 10 -1.1328125 7.96875 C-1.13023437 7.1540625 -1.12765625 6.339375 -1.125 5.5 C-1.12757813 4.6853125 -1.13015625 3.870625 -1.1328125 3.03125 C-1 1 -1 1 0 0 Z " fill="#C8CCDC" transform="translate(373,296)"/>
<path d="M0 0 C0.66 0 1.32 0 2 0 C4.09350689 3.4019487 4.17942163 6.05272412 4 10 C2.34385343 10.38218767 0.67542976 10.71395102 -1 11 C-2 10 -2 10 -2.1875 6.625 C-2 3 -2 3 0 0 Z " fill="#C7CADB" transform="translate(148,266)"/>
<path d="M0 0 C0.66 0 1.32 0 2 0 C4.67927341 4.01891012 4.15601248 6.24161923 4 11 C-0.875 10.125 -0.875 10.125 -2 9 C-2.26293056 4.96839809 -2.29404844 3.44107266 0 0 Z " fill="#C3C9D9" transform="translate(134,253)"/>
<path d="M0 0 C0.33 0 0.66 0 1 0 C1.25243961 5.55367141 1.25243961 5.55367141 -0.02734375 7.81640625 C-1.34922159 10.78399545 -1.01204532 12.97723849 -0.6875 16.1875 C-0.58824219 17.25355469 -0.48898438 18.31960937 -0.38671875 19.41796875 C-0.2727769 21.92541294 -0.2727769 21.92541294 1 23 C1.14115161 25.67058851 1.04247107 28.32432238 1 31 C-0.98666174 27.51249773 -1.82644381 24.03125489 -2.6875 20.125 C-2.95949219 18.93132812 -3.23148438 17.73765625 -3.51171875 16.5078125 C-4.3925981 10.17957524 -2.58848034 5.62713117 0 0 Z " fill="#728D81" transform="translate(210,195)"/>
<path d="M0 0 C0.99 0.33 1.98 0.66 3 1 C4.125 8.75 4.125 8.75 3 11 C1.35 10.67 -0.3 10.34 -2 10 C-2.25 3.375 -2.25 3.375 0 0 Z " fill="#C7CBDC" transform="translate(213,81)"/>
<path d="M0 0 C3.09729397 3.09729397 3.1520646 6.24775204 3.1875 10.5 C3.1431254 16.44619636 2.12107346 22.17442186 1 28 C0.67 28 0.34 28 0 28 C0 26.35 0 24.7 0 23 C-0.66 23 -1.32 23 -2 23 C-2.33 21.68 -2.66 20.36 -3 19 C-1.68 19.33 -0.36 19.66 1 20 C0.67 13.4 0.34 6.8 0 0 Z " fill="#ECBCB3" transform="translate(296,294)"/>
<path d="M0 0 C4.29 0.33 8.58 0.66 13 1 C13.33 2.65 13.66 4.3 14 6 C14.33 6.66 14.66 7.32 15 8 C10.10668277 6.53200483 5.36956975 4.66971326 1 2 C0.67 1.34 0.34 0.68 0 0 Z " fill="#D2D7E5" transform="translate(295,431)"/>
<path d="M0 0 C4.95 0 9.9 0 15 0 C15 1.32 15 2.64 15 4 C9.36718401 4.2396943 4.45461169 3.38529821 -1 2 C-0.67 1.34 -0.34 0.68 0 0 Z " fill="#DFE2EF" transform="translate(395,364)"/>
<path d="M0 0 C0.99 0 1.98 0 3 0 C3.33 2.97 3.66 5.94 4 9 C2.34385343 9.38218767 0.67542976 9.71395102 -1 10 C-2 9 -2 9 -2.1875 6.125 C-2 3 -2 3 0 0 Z " fill="#C6C8DB" transform="translate(395,294)"/>
<path d="M0 0 C0.33 0 0.66 0 1 0 C1 3.63 1 7.26 1 11 C-4.53846154 11.36923077 -4.53846154 11.36923077 -6.875 9.5 C-7.24625 9.005 -7.6175 8.51 -8 8 C-7.67 7.01 -7.34 6.02 -7 5 C-5.0625 4.1875 -5.0625 4.1875 -3 4 C-2.34 4.66 -1.68 5.32 -1 6 C-0.67 4.02 -0.34 2.04 0 0 Z " fill="#E2A899" transform="translate(222,292)"/>
<path d="M0 0 C0.99 0.33 1.98 0.66 3 1 C1.47874942 3.53541764 -0.04141577 6.06530948 -1.625 8.5625 C-2.86975452 10.76911028 -3.54223078 12.52804624 -4 15 C-4.66 15 -5.32 15 -6 15 C-6.33 16.32 -6.66 17.64 -7 19 C-7.66 19 -8.32 19 -9 19 C-9.33 19.99 -9.66 20.98 -10 22 C-10.66 22 -11.32 22 -12 22 C-11.65930765 18.84859577 -11.41923159 17.39218439 -9.0625 15.1875 C-7 14 -7 14 -5 14 C-4.8453125 12.4221875 -4.8453125 12.4221875 -4.6875 10.8125 C-4.01671795 7.09270865 -3.10544241 5.07043685 -1 2 C-0.67 1.34 -0.34 0.68 0 0 Z " fill="#EFBAAF" transform="translate(311,107)"/>
<path d="M0 0 C0.66 0 1.32 0 2 0 C4.09350689 3.4019487 4.17942163 6.05272412 4 10 C2.35 10.33 0.7 10.66 -1 11 C-2.23076923 4.6 -2.23076923 4.6 -1.0625 1.5625 C-0.711875 1.046875 -0.36125 0.53125 0 0 Z " fill="#C5C7DA" transform="translate(386,308)"/>
<path d="M0 0 C1.9375 0.5625 1.9375 0.5625 4 2 C4.8125 5.5625 4.8125 5.5625 5 9 C4 10 4 10 1.4375 10.0625 C0.633125 10.041875 -0.17125 10.02125 -1 10 C-1.02689216 8.52093108 -1.04634621 7.04172517 -1.0625 5.5625 C-1.07410156 4.73878906 -1.08570313 3.91507812 -1.09765625 3.06640625 C-1 1 -1 1 0 0 Z " fill="#C4CADB" transform="translate(140,282)"/>
<path d="M0 0 C1.32 0 2.64 0 4 0 C4.33 2.97 4.66 5.94 5 9 C3.68 9.33 2.36 9.66 1 10 C0.34 9.34 -0.32 8.68 -1 8 C-0.96712417 5.27130593 -0.43602229 2.7033382 0 0 Z " fill="#C9CCDE" transform="translate(87,162)"/>
<path d="M0 0 C5.94 0.99 5.94 0.99 12 2 C11.01 2.66 10.02 3.32 9 4 C8.67 4.99 8.34 5.98 8 7 C5.03 6.505 5.03 6.505 2 6 C1.67 6.66 1.34 7.32 1 8 C0.67 5.36 0.34 2.72 0 0 Z " fill="#8FB4B2" transform="translate(210,227)"/>
<path d="M0 0 C0.99 0.33 1.98 0.66 3 1 C3.33 3.64 3.66 6.28 4 9 C2.34385343 9.38218767 0.67542976 9.71395102 -1 10 C-2 9 -2 9 -2.1875 6.125 C-2 3 -2 3 0 0 Z " fill="#C9CDDD" transform="translate(101,156)"/>
<path d="M0 0 C2 1 2 1 3.875 4.375 C5.54330492 7.35586835 6.81044067 9.4990309 10 11 C13.80572745 10.92071401 15.48470906 10.4474895 18.375 7.9375 C18.91125 7.298125 19.4475 6.65875 20 6 C20 7.32 20 8.64 20 10 C17.08531777 12.47306371 15.19786353 12.9829428 11.375 13.3125 C8 13 8 13 5 11 C5 10.34 5 9.68 5 9 C4.34 9 3.68 9 3 9 C1.375 7.875 1.375 7.875 0 6 C-0.1875 2.8125 -0.1875 2.8125 0 0 Z " fill="#84A095" transform="translate(259,136)"/>
<path d="M0 0 C1.98 0.495 1.98 0.495 4 1 C4.33 3.31 4.66 5.62 5 8 C3.02 8.99 3.02 8.99 1 10 C-1 8 -1 8 -1.1875 5 C-1 2 -1 2 0 0 Z " fill="#C5C9DA" transform="translate(126,272)"/>
<path d="M0 0 C0.33 0 0.66 0 1 0 C1.67753232 2.83111718 2.34218727 5.66429376 3 8.5 C3.19078125 9.29148438 3.3815625 10.08296875 3.578125 10.8984375 C4.76334941 16.06262957 5.19441282 20.70225061 5 26 C2.54023511 22.31035266 1.87534693 20.72571521 1.9375 16.375 C1.94652344 15.55773437 1.95554688 14.74046875 1.96484375 13.8984375 C1.97644531 13.27195313 1.98804688 12.64546875 2 12 C1.34 12 0.68 12 0 12 C0 8.04 0 4.08 0 0 Z " fill="#D8B0A5" transform="translate(211,235)"/>
<path d="M0 0 C0.33 0 0.66 0 1 0 C0.85786703 1.89611434 0.71113093 3.79188394 0.5625 5.6875 C0.48128906 6.74324219 0.40007812 7.79898438 0.31640625 8.88671875 C0.0350857 11.65477402 -0.42060149 14.2823451 -1 17 C-1.144375 18.0725 -1.28875 19.145 -1.4375 20.25 C-1.623125 21.1575 -1.80875 22.065 -2 23 C-2.66 23.33 -3.32 23.66 -4 24 C-4.21221057 18.1111566 -3.55320433 13.16709687 -2 7.5 C-1.80921875 6.77296875 -1.6184375 6.0459375 -1.421875 5.296875 C-0.95662755 3.52893469 -0.47956407 1.76411067 0 0 Z " fill="#D4E2E5" transform="translate(277,210)"/>
<path d="M0 0 C2.31 0 4.62 0 7 0 C6.67 0.99 6.34 1.98 6 3 C3.77156512 3.19600577 1.54220107 3.38146569 -0.6875 3.5625 C-2.54955078 3.71912109 -2.54955078 3.71912109 -4.44921875 3.87890625 C-7.55835533 3.98493841 -10.00810972 3.77228525 -13 3 C-13.33 3.66 -13.66 4.32 -14 5 C-13.67 3.68 -13.34 2.36 -13 1 C-8.71 1.33 -4.42 1.66 0 2 C0 1.34 0 0.68 0 0 Z " fill="#DAA6A4" transform="translate(294,198)"/>
<path d="M0 0 C0.99 0.33 1.98 0.66 3 1 C3.33 3.64 3.66 6.28 4 9 C2.34385343 9.38218767 0.67542976 9.71395102 -1 10 C-1.33 9.67 -1.66 9.34 -2 9 C-1.9140625 7.1875 -1.9140625 7.1875 -1.625 5 C-1.53476562 4.278125 -1.44453125 3.55625 -1.3515625 2.8125 C-1 1 -1 1 0 0 Z " fill="#C3C6D8" transform="translate(383,279)"/>
<path d="M0 0 C1.32 0.66 2.64 1.32 4 2 C4 4.64 4 7.28 4 10 C2.35 10 0.7 10 -1 10 C-1.125 2.25 -1.125 2.25 0 0 Z " fill="#C8CBDD" transform="translate(96,172)"/>
<path d="M0 0 C0.66 0 1.32 0 2 0 C2.26425781 0.97453125 2.52851563 1.9490625 2.80078125 2.953125 C4.2634924 8.08100556 6.16552717 13.05088439 8.05273438 18.03515625 C10.10976248 23.67071256 10.10976248 23.67071256 9 27 C0 6.78640777 0 6.78640777 0 0 Z " fill="#DEB4A7" transform="translate(189,227)"/>
<path d="M0 0 C2.55028983 1.27514492 2.93081711 2.40341297 4 5 C4 5.99 4 6.98 4 8 C4.66 8.33 5.32 8.66 6 9 C4.68 9 3.36 9 2 9 C2.309375 10.918125 2.309375 10.918125 2.625 12.875 C2.9765625 15.0546875 2.9765625 15.0546875 3 17 C2.34 17.66 1.68 18.32 1 19 C0.25492456 12.62694402 -0.10349817 6.41688675 0 0 Z " fill="#5D4E58" transform="translate(222,283)"/>
<path d="M0 0 C0.33 0 0.66 0 1 0 C1 5.94 1 11.88 1 18 C-0.32 18 -1.64 18 -3 18 C-3.25 12.375 -3.25 12.375 -1 9 C-0.79628846 6.97540797 -0.79628846 6.97540797 -0.9375 4.875 C-0.958125 3.59625 -0.97875 2.3175 -1 1 C-0.67 0.67 -0.34 0.34 0 0 Z " fill="#EFF2F8" transform="translate(276,222)"/>
<path d="M0 0 C0.33 0.99 0.66 1.98 1 3 C2.32052572 3.38092088 3.65706498 3.70774256 5 4 C6.921875 5.19140625 6.921875 5.19140625 8.75 6.5625 C9.67039063 7.24505859 9.67039063 7.24505859 10.609375 7.94140625 C11.06828125 8.29074219 11.5271875 8.64007813 12 9 C8.85000502 10.57499749 6.36459118 9.70833498 3 9 C1.0625 7.8125 1.0625 7.8125 0 6 C-0.1875 2.8125 -0.1875 2.8125 0 0 Z " fill="#D4998B" transform="translate(191,170)"/>
<path d="M0 0 C0.66 0 1.32 0 2 0 C2 0.99 2 1.98 2 3 C1.071875 3.3403125 1.071875 3.3403125 0.125 3.6875 C-2.61410209 5.37929835 -3.05024472 6.99244161 -4 10 C-2.68 11.65 -1.36 13.3 0 15 C-0.99 15.495 -0.99 15.495 -2 16 C-2 15.34 -2 14.68 -2 14 C-2.66 14 -3.32 14 -4 14 C-6.625 11.625 -6.625 11.625 -9 9 C-9 8.34 -9 7.68 -9 7 C-7.28515625 5.78125 -7.28515625 5.78125 -5.0625 4.5 C-1.94567974 2.81545121 -1.94567974 2.81545121 0 0 Z " fill="#EAE9EB" transform="translate(302,126)"/>
<path d="M0 0 C0.99 0 1.98 0 3 0 C2.39552187 3.85615357 1.20025582 6.84223142 -0.5625 10.3125 C-2.8863448 15.24065362 -3.50879757 18.60674576 -3 24 C-3.66 23.67 -4.32 23.34 -5 23 C-5.55268327 16.14672749 -4.5414271 12.20896174 -1.09375 6.26171875 C0.29023847 3.81854528 0.29023847 3.81854528 0 0 Z " fill="#DEB4A6" transform="translate(210,188)"/>
<path d="M0 0 C1.32 0 2.64 0 4 0 C4 0.99 4 1.98 4 3 C3.34 3 2.68 3 2 3 C1.87625 3.70125 1.7525 4.4025 1.625 5.125 C0.96161655 8.17656387 0.02788045 11.05340938 -1 14 C-1.33 14 -1.66 14 -2 14 C-2.05410687 12.22950311 -2.09284119 10.45853151 -2.125 8.6875 C-2.14820313 7.70136719 -2.17140625 6.71523437 -2.1953125 5.69921875 C-2 3 -2 3 0 0 Z " fill="#E2968B" transform="translate(280,204)"/>
<path d="M0 0 C0.33 0 0.66 0 1 0 C1.04898438 0.74765625 1.09796875 1.4953125 1.1484375 2.265625 C1.22320312 3.25046875 1.29796875 4.2353125 1.375 5.25 C1.44460937 6.22453125 1.51421875 7.1990625 1.5859375 8.203125 C1.98910348 10.92639708 2.52789508 12.69123113 4 15 C4.66 15.33 5.32 15.66 6 16 C6 17.98 6 19.96 6 22 C5.34 22 4.68 22 4 22 C0.29278005 14.51935975 -0.51345509 8.30085731 0 0 Z " fill="#EFCFCA" transform="translate(182,200)"/>
<path d="M0 0 C0.33 0 0.66 0 1 0 C1.33 3.63 1.66 7.26 2 11 C0.35 11.33 -1.3 11.66 -3 12 C-3 8.7 -3 5.4 -3 2 C-2.34 2 -1.68 2 -1 2 C-0.67 1.34 -0.34 0.68 0 0 Z " fill="#E1E4F3" transform="translate(109,360)"/>
<path d="M0 0 C0.33 0.66 0.66 1.32 1 2 C2.32 1.67 3.64 1.34 5 1 C4.505 1.515625 4.01 2.03125 3.5 2.5625 C1.45949352 5.87832303 1.65775985 8.16691031 2 12 C2.63474075 13.34882408 3.29848848 14.6846659 4 16 C4.125 18.75 4.125 18.75 4 21 C2 20 2 20 0.8828125 17.3984375 C-0.08768179 13.66246392 -0.19770391 10.47830736 -0.125 6.625 C-0.10695313 5.37976563 -0.08890625 4.13453125 -0.0703125 2.8515625 C-0.04710937 1.91054687 -0.02390625 0.96953125 0 0 Z " fill="#64565E" transform="translate(263,89)"/>
<path d="M0 0 C3.10551666 3.10551666 3.81323934 4.89198233 5 9 C4.34 9.66 3.68 10.32 3 11 C2.01 11 1.02 11 0 11 C0 7.37 0 3.74 0 0 Z " fill="#D9DAE4" transform="translate(237,285)"/>
<path d="M0 0 C1.65 0 3.3 0 5 0 C5.33 0.66 5.66 1.32 6 2 C5.67 2.598125 5.34 3.19625 5 3.8125 C3.72734712 6.59642818 4.19699517 8.10918261 5 11 C1.87729874 8.48169253 1.05476902 7.2738451 0.25 3.25 C0.1675 2.1775 0.085 1.105 0 0 Z " fill="#4D4658" transform="translate(217,260)"/>
<path d="M0 0 C1.65 0 3.3 0 5 0 C5.36923077 7.50769231 5.36923077 7.50769231 3.5 10 C3.005 10.33 2.51 10.66 2 11 C1.66666667 9.33333333 1.33333333 7.66666667 1 6 C0.814375 5.0925 0.62875 4.185 0.4375 3.25 C0 1 0 1 0 0 Z " fill="#484E60" transform="translate(324,81)"/>
<path d="M0 0 C2.475 0.99 2.475 0.99 5 2 C4.125 6.75 4.125 6.75 3 9 C2.01 9 1.02 9 0 9 C0 6.03 0 3.06 0 0 Z " fill="#483F4C" transform="translate(273,92)"/>
<path d="M0 0 C0.66 0 1.32 0 2 0 C2 0.99 2 1.98 2 3 C2.99 3 3.98 3 5 3 C5.226875 3.804375 5.45375 4.60875 5.6875 5.4375 C6.120625 6.283125 6.55375 7.12875 7 8 C9.54775306 8.89386164 9.54775306 8.89386164 12 9 C11.67 9.99 11.34 10.98 11 12 C8.0625 11.1875 8.0625 11.1875 5 10 C4.67 9.01 4.34 8.02 4 7 C3.01 6.34 2.02 5.68 1 5 C0.3125 2.375 0.3125 2.375 0 0 Z " fill="#D3A5A0" transform="translate(207,295)"/>
<path d="M0 0 C0.33 0 0.66 0 1 0 C1 5.28 1 10.56 1 16 C-1.09782787 13.90217213 -1.6509396 12.6200793 -2.625 9.875 C-2.88539063 9.15054687 -3.14578125 8.42609375 -3.4140625 7.6796875 C-3.70410156 6.84824219 -3.70410156 6.84824219 -4 6 C-3.01 5.67 -2.02 5.34 -1 5 C-0.67 3.35 -0.34 1.7 0 0 Z " fill="#E9DCE0" transform="translate(279,256)"/>
<path d="M0 0 C2.375 0.75 2.375 0.75 3.375 1.75 C3.51615161 4.42058851 3.41747107 7.07432238 3.375 9.75 C3.045 9.75 2.715 9.75 2.375 9.75 C2.045 7.44 1.715 5.13 1.375 2.75 C-0.59256452 2.78122943 -0.59256452 2.78122943 -2.625 3.75 C-3.9295656 6.74615946 -3.9295656 6.74615946 -4.625 9.75 C-4.955 9.75 -5.285 9.75 -5.625 9.75 C-5.98674071 3.35924751 -5.98674071 3.35924751 -4.4375 0.75 C-2.625 -0.25 -2.625 -0.25 0 0 Z " fill="#D4A7A3" transform="translate(269.625,91.25)"/>
<path d="M0 0 C0.33 0 0.66 0 1 0 C1.0270043 1.45823212 1.04639787 2.91660675 1.0625 4.375 C1.07410156 5.18710937 1.08570313 5.99921875 1.09765625 6.8359375 C1 9 1 9 0 11 C-0.23029956 13.37123246 -0.41119942 15.74741943 -0.5625 18.125 C-0.64628906 19.40632813 -0.73007812 20.68765625 -0.81640625 22.0078125 C-0.90728516 23.48894531 -0.90728516 23.48894531 -1 25 C-1.33 25 -1.66 25 -2 25 C-2.05437005 22.14557247 -2.09384974 19.29219924 -2.125 16.4375 C-2.14175781 15.63763672 -2.15851563 14.83777344 -2.17578125 14.01367188 C-2.21723982 8.93499665 -1.64056075 4.81188094 0 0 Z " fill="#40373F" transform="translate(279,277)"/>
<path d="M0 0 C2.0625 1.6875 2.0625 1.6875 4 4 C3.75 6.75 3.75 6.75 3 9 C0.53199953 7.84826645 -1.04783565 6.95216435 -3 5 C-2.01 3.35 -1.02 1.7 0 0 Z " fill="#93BCBD" transform="translate(197,154)"/>
<path d="M0 0 C2.64 0 5.28 0 8 0 C8.33 1.32 8.66 2.64 9 4 C6.36 4 3.72 4 1 4 C0.67 2.68 0.34 1.36 0 0 Z " fill="#F0B2A0" transform="translate(273,424)"/>
<path d="M0 0 C2.96052484 3.36423277 3.92289822 6.69159287 5 11 C2.69 10.34 0.38 9.68 -2 9 C-1.505 7.88625 -1.505 7.88625 -1 6.75 C0.22782871 3.86116688 0.22782871 3.86116688 0 0 Z " fill="#829E99" transform="translate(193,242)"/>
<path d="M0 0 C1.65 0 3.3 0 5 0 C3.68 5.61 2.36 11.22 1 17 C0.67 17 0.34 17 0 17 C-0.20674944 11.21101581 0.40837921 6.57067277 2 1 C1.34 0.67 0.68 0.34 0 0 Z " fill="#F1E5E7" transform="translate(182,183)"/>
<path d="M0 0 C2.67550292 2.67550292 2.83209389 4.94879894 3.625 8.625 C3.88539063 9.81351562 4.14578125 11.00203125 4.4140625 12.2265625 C4.70410156 13.59941406 4.70410156 13.59941406 5 15 C3 15 3 15 0.8125 12.875 C-1 10 -1 10 -0.75 6.9375 C-0.5025 5.968125 -0.255 4.99875 0 4 C0 2.68 0 1.36 0 0 Z " fill="#53444A" transform="translate(289,302)"/>
<path d="M0 0 C0.66 0 1.32 0 2 0 C2.33 3.3 2.66 6.6 3 10 C2.34 10 1.68 10 1 10 C-0.32 7.36 -1.64 4.72 -3 2 C-2.34 2 -1.68 2 -1 2 C-0.67 1.34 -0.34 0.68 0 0 Z " fill="#D7A79F" transform="translate(225,280)"/>
<path d="M0 0 C2.64 0 5.28 0 8 0 C8.33 0.99 8.66 1.98 9 3 C9.99 3.33 10.98 3.66 12 4 C9.5332355 4.88336837 8.36140628 5.1312406 5.859375 4.22265625 C5.16328125 3.83980469 4.4671875 3.45695312 3.75 3.0625 C3.04359375 2.68222656 2.3371875 2.30195312 1.609375 1.91015625 C1.07828125 1.60980469 0.5471875 1.30945313 0 1 C0 0.67 0 0.34 0 0 Z " fill="#5C4D58" transform="translate(301,92)"/>
<path d="M0 0 C1.65 0 3.3 0 5 0 C5 0.99 5 1.98 5 3 C0.50343896 5.24828052 -3.07872966 5.16682272 -8 5 C-8 4.67 -8 4.34 -8 4 C-6.35 4 -4.7 4 -3 4 C-3 3.34 -3 2.68 -3 2 C-2.01 2 -1.02 2 0 2 C0 1.34 0 0.68 0 0 Z " fill="#DBA79D" transform="translate(210,424)"/>
<path d="M0 0 C0.33 0 0.66 0 1 0 C1.33 5.28 1.66 10.56 2 16 C0.68 16.33 -0.64 16.66 -2 17 C-1.76990234 16.21882813 -1.76990234 16.21882813 -1.53515625 15.421875 C-0.86017489 12.36721485 -0.65588882 9.36984029 -0.4375 6.25 C-0.35371094 5.07953125 -0.26992188 3.9090625 -0.18359375 2.703125 C-0.12300781 1.81109375 -0.06242187 0.9190625 0 0 Z " fill="#F5EDF3" transform="translate(277,245)"/>
<path d="M0 0 C1.37562854 1.28965176 2.70766393 2.62689293 4 4 C4 4.66 4 5.32 4 6 C4.99 6.33 5.98 6.66 7 7 C7 7.66 7 8.32 7 9 C9.31 9 11.62 9 14 9 C12 11 12 11 9.25 11.0625 C4.83300531 9.61848251 2.41932066 6.92925128 0 3 C0 2.01 0 1.02 0 0 Z " fill="#CFB5A5" transform="translate(261,137)"/>
<path d="M0 0 C-1 1 -1 1 -4.5625 1.0625 C-5.696875 1.041875 -6.83125 1.02125 -8 1 C-8 1.66 -8 2.32 -8 3 C-10.97 3 -13.94 3 -17 3 C-15.68 2.34 -14.36 1.68 -13 1 C-12.67 0.67 -12.34 0.34 -12 0 C-3.65019011 -1.36882129 -3.65019011 -1.36882129 0 0 Z " fill="#919D94" transform="translate(302,197)"/>
<path d="M0 0 C0 0.66 0 1.32 0 2 C0.66 2.33 1.32 2.66 2 3 C-4.93 2.67 -11.86 2.34 -19 2 C-19 1.67 -19 1.34 -19 1 C-16.95857606 0.83038614 -14.91684689 0.66444404 -12.875 0.5 C-11.16957031 0.36078125 -11.16957031 0.36078125 -9.4296875 0.21875 C-6.27402851 0.0174779 -3.16078835 -0.03842904 0 0 Z " fill="#C8E2E5" transform="translate(259,119)"/>
<path d="M0 0 C4.29 0.33 8.58 0.66 13 1 C13 1.33 13 1.66 13 2 C11.39658445 2.33692785 9.79223445 2.66941093 8.1875 3 C7.29417969 3.185625 6.40085937 3.37125 5.48046875 3.5625 C3 4 3 4 0 4 C0 2.68 0 1.36 0 0 Z " fill="#554F57" transform="translate(269,427)"/>
<path d="M0 0 C-1.5159375 0.4021875 -1.5159375 0.4021875 -3.0625 0.8125 C-6.87327442 1.8935156 -10.38875208 3.37862338 -14 5 C-13.76953125 3.1171875 -13.76953125 3.1171875 -13 1 C-11.07421875 -0.1171875 -11.07421875 -0.1171875 -8.6875 -0.875 C-7.90761719 -1.14054687 -7.12773437 -1.40609375 -6.32421875 -1.6796875 C-3.53461766 -2.06413673 -2.34816041 -1.47230195 0 0 Z " fill="#DAEDF4" transform="translate(234,122)"/>
<path d="M0 0 C1.11375 0.3403125 1.11375 0.3403125 2.25 0.6875 C0.765 2.1725 0.765 2.1725 -0.75 3.6875 C0.24 4.3475 1.23 5.0075 2.25 5.6875 C0.6 5.6875 -1.05 5.6875 -2.75 5.6875 C-2.75 5.0275 -2.75 4.3675 -2.75 3.6875 C-4.07 3.3575 -5.39 3.0275 -6.75 2.6875 C-4.29511132 0.41445492 -3.41240272 -0.38777304 0 0 Z " fill="#89B2B1" transform="translate(253.75,237.3125)"/>
<path d="M0 0 C0.58007812 0.08378906 1.16015625 0.16757813 1.7578125 0.25390625 C6.42315303 0.86209421 10.35442117 1.07205665 15 0 C13.07329053 2.01047945 11.58556551 2.93759515 8.80078125 3.234375 C2.54928458 3.27464229 2.54928458 3.27464229 0 2 C0 1.34 0 0.68 0 0 Z " fill="#E4B3AB" transform="translate(282,131)"/>
<path d="M0 0 C0.33 0 0.66 0 1 0 C1.33 6.27 1.66 12.54 2 19 C1.34 19 0.68 19 0 19 C-1.09587955 14.75448144 -0.92865836 11.0407161 -0.5625 6.6875 C-0.46066406 5.43324219 -0.35882813 4.17898438 -0.25390625 2.88671875 C-0.17011719 1.93410156 -0.08632813 0.98148437 0 0 Z " fill="#5F4E4F" transform="translate(278,288)"/>
<path d="M0 0 C0.99 0 1.98 0 3 0 C3 0.66 3 1.32 3 2 C3.99 1.67 4.98 1.34 6 1 C4.77065985 4.68802044 3.06140622 5.72356973 0 8 C-1.09658936 4.71023192 -0.79953138 3.28696233 0 0 Z " fill="#E4E8F4" transform="translate(269,65)"/>
<path d="M0 0 C1.98 0.99 1.98 0.99 4 2 C4 2.99 4 3.98 4 5 C4.61875 5.12375 5.2375 5.2475 5.875 5.375 C8 6 8 6 10 8 C7.8125 8.375 7.8125 8.375 5 8 C2.91167347 6.17130326 1.61663209 4.30947441 0 2 C0 1.34 0 0.68 0 0 Z " fill="#5B4C56" transform="translate(208,300)"/>
<path d="M0 0 C0.33 0 0.66 0 1 0 C1 1.65 1 3.3 1 5 C2.32 5 3.64 5 5 5 C5.33 4.34 5.66 3.68 6 3 C6 4.65 6 6.3 6 8 C1.125 7.125 1.125 7.125 0 6 C-0.04080783 4.00041636 -0.04254356 1.99954746 0 0 Z " fill="#C9CEDF" transform="translate(132,256)"/>
<path d="M0 0 C1.65 0 3.3 0 5 0 C3.25 5.75 3.25 5.75 1 8 C0.67 5.36 0.34 2.72 0 0 Z " fill="#E7B5A3" transform="translate(276,136)"/>
<path d="M0 0 C0.33 0 0.66 0 1 0 C1 2.31 1 4.62 1 7 C-0.65 7.66 -2.3 8.32 -4 9 C-3.67 7.02 -3.34 5.04 -3 3 C-2.01 3 -1.02 3 0 3 C0 2.01 0 1.02 0 0 Z " fill="#E9EBF0" transform="translate(262,93)"/>
<path d="M0 0 C4.56454251 0.54339792 7.9728176 1.79463821 12 4 C12 4.33 12 4.66 12 5 C10.35 5 8.7 5 7 5 C7 4.34 7 3.68 7 3 C4.69 2.67 2.38 2.34 0 2 C0 1.34 0 0.68 0 0 Z " fill="#D9A7A1" transform="translate(286,87)"/>
<path d="M0 0 C4.02992782 0.55312735 8.02022924 1.1558062 12 2 C12 2.33 12 2.66 12 3 C10.37509046 3.02698189 8.75005367 3.04638757 7.125 3.0625 C5.76761719 3.07990234 5.76761719 3.07990234 4.3828125 3.09765625 C2 3 2 3 0 2 C0 1.34 0 0.68 0 0 Z " fill="#5D4F59" transform="translate(204,421)"/>
<path d="M0 0 C0.33 0 0.66 0 1 0 C1.06058594 0.58007812 1.12117187 1.16015625 1.18359375 1.7578125 C1.66016561 6.20092863 2.21008666 10.59905423 3 15 C1.51171875 13.88671875 1.51171875 13.88671875 0 12 C-0.29296875 9.08203125 -0.29296875 9.08203125 -0.1875 5.8125 C-0.16042969 4.72582031 -0.13335937 3.63914062 -0.10546875 2.51953125 C-0.07066406 1.68808594 -0.03585938 0.85664063 0 0 Z " fill="#655560" transform="translate(205,285)"/>
<path d="M0 0 C1.32 0 2.64 0 4 0 C4.33 1.65 4.66 3.3 5 5 C3.35 5 1.7 5 0 5 C0 3.35 0 1.7 0 0 Z " fill="#E5E7F5" transform="translate(299,239)"/>
<path d="M0 0 C2 3 2 3 1.75 6.125 C1.5025 7.07375 1.255 8.0225 1 9 C0.01 9.495 0.01 9.495 -1 10 C-1.125 2.25 -1.125 2.25 0 0 Z " fill="#DCECEE" transform="translate(274,224)"/>
<path d="M0 0 C0.33 0.99 0.66 1.98 1 3 C-3.46839215 3.21278058 -6.82262526 2.59138085 -11 1 C-7.2297564 -1.56376565 -4.32597804 -0.83191885 0 0 Z " fill="#DFE1EE" transform="translate(399,160)"/>
<path d="M0 0 C1.32 0.66 2.64 1.32 4 2 C2.515 4.475 2.515 4.475 1 7 C0.34 6.67 -0.32 6.34 -1 6 C-0.67 4.02 -0.34 2.04 0 0 Z " fill="#DFE8F1" transform="translate(194,152)"/>
<path d="M0 0 C0.99 0.33 1.98 0.66 3 1 C3 2.98 3 4.96 3 7 C2.01 7.33 1.02 7.66 0 8 C0 5.36 0 2.72 0 0 Z " fill="#E3B3A7" transform="translate(280,299)"/>
<path d="M0 0 C2.475 0.99 2.475 0.99 5 2 C4.01 2.495 4.01 2.495 3 3 C1.86649466 5.01669827 1.86649466 5.01669827 1 7 C-0.32 6.01 -1.64 5.02 -3 4 C-2.01 4 -1.02 4 0 4 C0 2.68 0 1.36 0 0 Z " fill="#7DA8A7" transform="translate(224,176)"/>
<path d="M0 0 C0.99 0 1.98 0 3 0 C2.39009109 3.55780196 1.4216319 6.6828589 0 10 C-1.2380014 6.42355152 -0.74926071 3.66305234 0 0 Z " fill="#F4E6E5" transform="translate(188,172)"/>
<path d="M0 0 C0.66 0 1.32 0 2 0 C2.33 1.98 2.66 3.96 3 6 C2.01 6.66 1.02 7.32 0 8 C-1.09658936 4.71023192 -0.79953138 3.28696233 0 0 Z " fill="#E5A69A" transform="translate(267,105)"/>
<path d="M0 0 C0.33 0 0.66 0 1 0 C1.25 2.75 1.25 2.75 1 6 C-1 8.375 -1 8.375 -3 10 C-2.69201674 8.51988629 -2.378482 7.04092675 -2.0625 5.5625 C-1.88847656 4.73878906 -1.71445312 3.91507812 -1.53515625 3.06640625 C-1 1 -1 1 0 0 Z " fill="#5B4F57" transform="translate(316,98)"/>
<path d="M0 0 C1.65 1.65 3.3 3.3 5 5 C3.68 5.33 2.36 5.66 1 6 C1 5.34 1 4.68 1 4 C-0.32 3.34 -1.64 2.68 -3 2 C-2.01 1.34 -1.02 0.68 0 0 Z " fill="#EBA998" transform="translate(284,88)"/>
<path d="M0 0 C0.99 0 1.98 0 3 0 C3 3.63 3 7.26 3 11 C2.67 11 2.34 11 2 11 C2 8.69 2 6.38 2 4 C1.34 4 0.68 4 0 4 C0 2.68 0 1.36 0 0 Z " fill="#C3C7D9" transform="translate(265,431)"/>
<path d="M0 0 C1.9375 0.3125 1.9375 0.3125 4 1 C4.33 1.99 4.66 2.98 5 4 C3.35 4.33 1.7 4.66 0 5 C0 3.35 0 1.7 0 0 Z " fill="#504247" transform="translate(284,298)"/>
<path d="M0 0 C0.66 0 1.32 0 2 0 C2 0.66 2 1.32 2 2 C2.99 2 3.98 2 5 2 C5 2.66 5 3.32 5 4 C2.69 4 0.38 4 -2 4 C-1.34 2.68 -0.68 1.36 0 0 Z " fill="#688683" transform="translate(284,195)"/>
<path d="M0 0 C2.97 0.495 2.97 0.495 6 1 C6 1.99 6 2.98 6 4 C4.35 3.67 2.7 3.34 1 3 C0.67 2.01 0.34 1.02 0 0 Z " fill="#E69580" transform="translate(197,179)"/>
<path d="M0 0 C0.66 1.32 1.32 2.64 2 4 C1.01 4.33 0.02 4.66 -1 5 C-2.37195574 6.29355827 -3.71182656 7.62298702 -5 9 C-4.34 7.02 -3.68 5.04 -3 3 C-2.34 3 -1.68 3 -1 3 C-0.67 2.01 -0.34 1.02 0 0 Z " fill="#F0E7EA" transform="translate(315,106)"/>
<path d="M0 0 C0.66 0.33 1.32 0.66 2 1 C1.67 1.66 1.34 2.32 1 3 C0.34 3 -0.32 3 -1 3 C-1 3.66 -1 4.32 -1 5 C-2.65 4.67 -4.3 4.34 -6 4 C-4.02610343 2.02610343 -2.56269497 1.04109483 0 0 Z " fill="#E4BEBB" transform="translate(288,421)"/>
<path d="M0 0 C0.66 0 1.32 0 2 0 C2.33 1.65 2.66 3.3 3 5 C1.68 5.99 0.36 6.98 -1 8 C-1.66 7.34 -2.32 6.68 -3 6 C-2.01 5.34 -1.02 4.68 0 4 C0 2.68 0 1.36 0 0 Z " fill="#6F9E9C" transform="translate(191,242)"/>
<path d="M0 0 C1.98 0 3.96 0 6 0 C5.67 0.99 5.34 1.98 5 3 C3.02 3 1.04 3 -1 3 C-0.67 2.01 -0.34 1.02 0 0 Z " fill="#F8B7AE" transform="translate(288,202)"/>
<path d="M0 0 C2.64 0.66 5.28 1.32 8 2 C7.34 3.98 6.68 5.96 6 8 C5.67 8 5.34 8 5 8 C5 6.35 5 4.7 5 3 C4.360625 2.87625 3.72125 2.7525 3.0625 2.625 C2.381875 2.41875 1.70125 2.2125 1 2 C0.67 1.34 0.34 0.68 0 0 Z " fill="#C39892" transform="translate(208,182)"/>
<path d="M0 0 C0.99 0 1.98 0 3 0 C2.67 3.96 2.34 7.92 2 12 C1.67 12 1.34 12 1 12 C0.67 8.04 0.34 4.08 0 0 Z " fill="#98A29B" transform="translate(257,122)"/>
<path d="M0 0 C0 1.32 0 2.64 0 4 C-1.65 3.67 -3.3 3.34 -5 3 C-5 2.34 -5 1.68 -5 1 C-3 0 -3 0 0 0 Z " fill="#393F53" transform="translate(238,443)"/>
<path d="M0 0 C1.32 0.33 2.64 0.66 4 1 C4 3.64 4 6.28 4 9 C3.67 9 3.34 9 3 9 C3 7.35 3 5.7 3 4 C2.34 4 1.68 4 1 4 C0.67 2.68 0.34 1.36 0 0 Z " fill="#D5B9B5" transform="translate(293,313)"/>
<path d="M0 0 C-2.55068845 2.35448165 -3.71017358 2.98327924 -7.25 3.1875 C-8.1575 3.125625 -9.065 3.06375 -10 3 C-9 1 -9 1 -7.25 0.375 C-4.79549443 -0.03408426 -2.4840589 -0.06900164 0 0 Z " fill="#5F9592" transform="translate(247,242)"/>
<path d="M0 0 C0.66 0 1.32 0 2 0 C2 2.64 2 5.28 2 8 C1.34 8 0.68 8 0 8 C-0.98120464 4.94736336 -0.98120464 3.05263664 0 0 Z " fill="#CDE1E5" transform="translate(179,236)"/>
<path d="M0 0 C0.33 0 0.66 0 1 0 C1 1.65 1 3.3 1 5 C-0.32 5.33 -1.64 5.66 -3 6 C-2.42655063 3.13275314 -2.1385485 2.1385485 0 0 Z " fill="#538A87" transform="translate(229,171)"/>
</svg>
