<?xml version="1.0" encoding="UTF-8"?>
<svg version="1.1" xmlns="http://www.w3.org/2000/svg" width="500" height="500">
<path d="M0 0 C0 0.66 0 1.32 0 2 C0.639375 2.268125 1.27875 2.53625 1.9375 2.8125 C4 4 4 4 5 7 C5.66 7 6.32 7 7 7 C7 7.66 7 8.32 7 9 C7.66 9 8.32 9 9 9 C19.93452776 20.76200553 24.87855381 37.50116999 27 53 C27.27263672 54.54494141 27.27263672 54.54494141 27.55078125 56.12109375 C30.56176069 75.4175446 23.91924968 96.35742703 15.61328125 113.5703125 C13.7167282 117.60220979 12.00155755 121.6903205 10.3125 125.8125 C10.02713379 126.50593506 9.74176758 127.19937012 9.44775391 127.91381836 C8.62090625 129.93836138 7.80713274 131.96752211 7 134 C6.73131104 134.6710376 6.46262207 135.3420752 6.18579102 136.03344727 C0.0084311 151.89154425 -1.12270659 168.16929563 5.25390625 184.140625 C8.23434726 190.47507729 11.88863067 195.74751639 16.4609375 201.0390625 C18 203 18 203 18 205 C18.66 205 19.32 205 20 205 C20 205.66 20 206.32 20 207 C20.66 207 21.32 207 22 207 C23.5078125 208.4609375 23.5078125 208.4609375 25.125 210.375 C25.66382813 211.00148438 26.20265625 211.62796875 26.7578125 212.2734375 C28 214 28 214 28 216 C28.66 216 29.32 216 30 216 C33 219.46153846 33 219.46153846 33 222 C33.66 222 34.32 222 35 222 C46.48026303 236.06522292 49.74872563 251.16161179 49 269 C48.59081014 272.42696507 47.91532288 275.67471307 47 279 C46.72542969 280.04800781 46.72542969 280.04800781 46.4453125 281.1171875 C40.57357659 300.90711222 26.98479291 316.02867314 12.75 330.375 C12.00689575 331.12523437 12.00689575 331.12523437 11.2487793 331.890625 C3.10241897 340 3.10241897 340 0 340 C0 340.66 0 341.32 0 342 C-1.82227022 343.4045405 -3.71207484 344.72167292 -5.625 346 C-6.82378097 346.80731183 -8.02166775 347.61595271 -9.21875 348.42578125 C-9.84265625 348.84682129 -10.4665625 349.26786133 -11.109375 349.70166016 C-13.56298337 351.38661487 -15.96099123 353.14201641 -18.36206055 354.90063477 C-24.66785821 359.50357888 -31.04774525 363.42506797 -38 367 C-39.30090387 367.70309948 -40.60027384 368.40904141 -41.8984375 369.1171875 C-74.53120116 386.84549131 -108.65854946 397.10576442 -146 397 C-147.10045654 397.00386719 -147.10045654 397.00386719 -148.22314453 397.0078125 C-171.09317715 396.91557138 -193.78931618 388.25273953 -215.26953125 381.29296875 C-216.49397949 380.89936157 -216.49397949 380.89936157 -217.74316406 380.49780273 C-219.18881138 380.0316956 -220.63255516 379.55958939 -222.07324219 379.07836914 C-237.3109493 374.1369564 -253.13453913 371.66606501 -268.90795898 369.14819336 C-278.59774864 367.59274876 -288.19163729 365.85478688 -297.7265625 363.515625 C-298.52455765 363.32299576 -299.3225528 363.13036652 -300.14472961 362.93190002 C-313.17978672 359.6145379 -324.54893614 353.37198899 -335 345 C-335.75667969 344.47019531 -336.51335937 343.94039063 -337.29296875 343.39453125 C-338.13794922 342.70423828 -338.13794922 342.70423828 -339 342 C-339 341.34 -339 340.68 -339 340 C-339.66 340 -340.32 340 -341 340 C-346.76640151 333.40659003 -351.72887295 326.14173901 -355 318 C-355.391875 317.03449219 -355.78375 316.06898438 -356.1875 315.07421875 C-363.36381423 294.26789104 -358.63091385 273.92492411 -349.42236328 254.74511719 C-347.43025713 250.70540992 -345.3627967 246.80073893 -342.9375 243 C-336.28991437 232.38620781 -330.78415792 219.56395243 -330 207 C-329.93167969 205.95714844 -329.86335938 204.91429687 -329.79296875 203.83984375 C-329.10529867 182.47113289 -339.85554832 166.07477391 -352.0625 149.4375 C-364.82664163 131.90241698 -372.7671563 114.16700004 -369.57421875 92.05078125 C-366.12596767 78.91357929 -356.62527715 69.17951662 -345.5625 61.875 C-331.21168042 53.81800798 -314.9774123 50.23544302 -299 47 C-298.80664062 46.32453125 -298.61328125 45.6490625 -298.4140625 44.953125 C-298.15367187 44.06109375 -297.89328125 43.1690625 -297.625 42.25 C-297.36976563 41.36828125 -297.11453125 40.4865625 -296.8515625 39.578125 C-295.03891744 34.09030051 -293.08536471 31.96506654 -288.17578125 29.0390625 C-285.06748937 27.55467176 -282.42317886 27.21394868 -279 27 C-278.9175 25.845 -278.835 24.69 -278.75 23.5 C-277.94725135 17.28694536 -275.69496404 12.16359409 -270.875 8.0625 C-266.579439 4.98090189 -264.32637086 4.63889011 -259 5 C-254.89079235 6.8156964 -252.54297307 9.32681668 -250 13 C-250 13.66 -250 14.32 -250 15 C-248.329375 14.01 -248.329375 14.01 -246.625 13 C-240.77293101 10.0739655 -235.00514878 10.05720823 -228.8125 12 C-227.4203125 12.495 -227.4203125 12.495 -226 13 C-224.453125 12.87625 -224.453125 12.87625 -222.875 12.75 C-216.42366544 13.16621513 -210.20645861 16.45110267 -205.15234375 20.46875 C-203.19540911 23.06915129 -203.82336937 25.87952554 -204 29 C-200.37 28.01 -196.74 27.02 -193 26 C-193 24.35 -193 22.7 -193 21 C-191.35 21.33 -189.7 21.66 -188 22 C-188 22.66 -188 23.32 -188 24 C-184.03871539 22.44491284 -180.08156007 20.87956452 -176.125 19.3125 C-175.01640625 18.87744141 -173.9078125 18.44238281 -172.765625 17.99414062 C-166.78234048 15.61842471 -160.97785546 13.0874841 -155.25195312 10.14526367 C-151.95230365 8.46717871 -148.58320009 6.97158607 -145.1875 5.5 C-144.5059082 5.20303223 -143.82431641 4.90606445 -143.12207031 4.60009766 C-137.95244291 2.36715603 -132.7324048 0.29723419 -127.453125 -1.6640625 C-125.42003407 -2.4506203 -123.39588207 -3.26246046 -121.39648438 -4.13110352 C-114.05601575 -7.3067117 -106.73410574 -9.67130498 -99 -11.6875 C-97.91460937 -11.98205078 -96.82921875 -12.27660156 -95.7109375 -12.58007812 C-63.91229359 -21.02303549 -26.93990842 -21.63790517 0 0 Z " fill="#E7F2EE" transform="translate(413,67)"/>
<path d="M0 0 C3.10573264 2.01744286 5.55342342 4.13979712 7.98046875 6.9375 C10.69887121 9.29245305 12.43978631 9.3312934 15.98828125 9.59765625 C20.18785816 10.19101913 22.77738582 10.6645318 25.67578125 13.84765625 C28.49492504 17.80274916 29.86112993 22.13688228 31.11328125 26.78515625 C31.44328125 27.77515625 31.77328125 28.76515625 32.11328125 29.78515625 C32.19666165 31.9231015 32.22061872 34.06357634 32.2109375 36.203125 C32.20771484 37.45673828 32.20449219 38.71035156 32.20117188 40.00195312 C32.19279297 41.31228516 32.18441406 42.62261719 32.17578125 43.97265625 C32.17076442 45.30794106 32.16620184 46.64322766 32.16210938 47.97851562 C32.1503082 51.24744098 32.13384422 54.51627616 32.11328125 57.78515625 C32.726875 57.89988281 33.34046875 58.01460937 33.97265625 58.1328125 C36.11328125 58.78515625 36.11328125 58.78515625 38.36328125 61.22265625 C40.98427741 66.55825558 41.10551932 71.35635725 39.453125 77.06640625 C37.16741987 82.37003375 34.39711107 84.5603858 29.11328125 86.78515625 C26.390625 86.87890625 26.390625 86.87890625 24.11328125 86.78515625 C23.15471372 101.55419669 27.45772067 117.8184745 32.11328125 131.78515625 C34.71899653 133.08801389 37.32257235 133.28752219 40.18212891 133.68530273 C53.60480953 135.56847302 66.981755 138.52878689 79.11328125 144.78515625 C80.48419922 145.46384766 80.48419922 145.46384766 81.8828125 146.15625 C87.52339474 149.0633774 92.11147755 151.80994083 96.11328125 156.78515625 C96.11328125 158.10515625 96.11328125 159.42515625 96.11328125 160.78515625 C95.03046875 161.00171875 95.03046875 161.00171875 93.92578125 161.22265625 C89.64802268 163.59918879 88.19424437 167.48154741 86.11328125 171.78515625 C80.36328125 171.91015625 80.36328125 171.91015625 78.11328125 170.78515625 C76.57304129 170.71565084 75.02993137 170.70063268 73.48828125 170.72265625 C72.67101562 170.73167969 71.85375 170.74070312 71.01171875 170.75 C70.38523437 170.76160156 69.75875 170.77320313 69.11328125 170.78515625 C69.11328125 171.44515625 69.11328125 172.10515625 69.11328125 172.78515625 C65.25409776 176.69560024 62.45270623 177.28305213 57.05078125 177.41015625 C51.22501181 177.39847632 51.22501181 177.39847632 46.11328125 179.78515625 C45.49341266 181.82336692 45.49341266 181.82336692 45.11328125 183.78515625 C52.69529203 185.80749885 59.85420232 186.1252605 67.6796875 186.19921875 C69.59164162 186.22826797 69.59164162 186.22826797 71.54222107 186.25790405 C74.90075394 186.30728042 78.25918523 186.34866306 81.61785889 186.38604736 C85.05718474 186.42633961 88.4963513 186.47731569 91.93554688 186.52734375 C98.66135521 186.62303861 105.38723399 186.70818307 112.11328125 186.78515625 C116.69942256 197.96234515 121.13013439 209.08297548 124.61328125 220.66015625 C124.95875 221.75972656 125.30421875 222.85929688 125.66015625 223.9921875 C127.22916595 229.1288264 128.30061483 233.37340787 128.11328125 238.78515625 C126.13328125 239.77515625 126.13328125 239.77515625 124.11328125 240.78515625 C124.71945645 252.7810444 125.85391317 264.62924868 127.6875 276.50390625 C132.25844191 307.88455708 132.25844191 307.88455708 127.265625 315.6640625 C124.63176892 317.52988448 122.08898584 318.54670575 119.11328125 319.78515625 C117.37381144 320.69848483 115.64719685 321.63667304 113.93359375 322.59765625 C84.44172184 338.86646599 52.29175237 351.39373861 18.30078125 352.47265625 C17.15569092 352.50955566 16.01060059 352.54645508 14.83081055 352.58447266 C-14.69202389 353.4006565 -42.4057931 345.0310723 -69.88671875 334.78515625 C-70.12398193 326.32338738 -69.47611019 318.17904289 -68.48242188 309.79443359 C-68.3348645 308.54413864 -68.3348645 308.54413864 -68.18432617 307.26858521 C-68.00060499 305.73549677 -67.81281757 304.20288182 -67.6184082 302.67111206 C-65.58539074 286.55973823 -65.4573043 270.41958841 -65.28582764 254.2074585 C-65.24511686 250.53926295 -65.19433892 246.87120631 -65.14453125 243.203125 C-65.04901221 236.06390491 -64.96423113 228.92459653 -64.88671875 221.78515625 C-65.98959229 222.14867187 -65.98959229 222.14867187 -67.11474609 222.51953125 C-70.4923154 223.62327739 -73.87675664 224.70430535 -77.26171875 225.78515625 C-78.41800781 226.16671875 -79.57429688 226.54828125 -80.765625 226.94140625 C-94.12218286 231.16720987 -94.12218286 231.16720987 -100.88671875 229.78515625 C-103.57368406 228.02522106 -104.89930085 226.40017981 -106.88671875 223.78515625 C-106.88671875 223.12515625 -106.88671875 222.46515625 -106.88671875 221.78515625 C-108.665625 222.00171875 -108.665625 222.00171875 -110.48046875 222.22265625 C-147.18258236 226.51340527 -147.18258236 226.51340527 -160.1953125 217.1953125 C-160.75347656 216.72996094 -161.31164062 216.26460937 -161.88671875 215.78515625 C-162.41394531 215.35074219 -162.94117188 214.91632813 -163.484375 214.46875 C-167.65306314 210.02137519 -167.51836532 204.55049528 -167.40844727 198.76367188 C-167.11011687 192.92424341 -165.94283814 188.70890415 -162.88671875 183.78515625 C-162.34273438 182.85832031 -161.79875 181.93148437 -161.23828125 180.9765625 C-158.19338489 175.97043377 -155.13963076 171.78789697 -150.88671875 167.78515625 C-150.55671875 166.79515625 -150.22671875 165.80515625 -149.88671875 164.78515625 C-148.21484375 163.13671875 -148.21484375 163.13671875 -146.13671875 161.41015625 C-142.89787438 158.66204588 -139.85236378 155.83095385 -136.88671875 152.78515625 C-136.14421875 152.06328125 -135.40171875 151.34140625 -134.63671875 150.59765625 C-131.3011855 147.18631543 -128.19127752 143.59995816 -125.0703125 139.9921875 C-123.01485717 137.91467004 -121.46761443 137.02376792 -118.88671875 135.78515625 C-118.22671875 134.79515625 -117.56671875 133.80515625 -116.88671875 132.78515625 C-116.22671875 132.78515625 -115.56671875 132.78515625 -114.88671875 132.78515625 C-114.88671875 132.12515625 -114.88671875 131.46515625 -114.88671875 130.78515625 C-113.20703125 129.05859375 -113.20703125 129.05859375 -111.01171875 127.16015625 C-110.29242188 126.52851563 -109.573125 125.896875 -108.83203125 125.24609375 C-106.88671875 123.78515625 -106.88671875 123.78515625 -104.88671875 123.78515625 C-104.88671875 123.12515625 -104.88671875 122.46515625 -104.88671875 121.78515625 C-103.41796875 120.3046875 -103.41796875 120.3046875 -101.38671875 118.59765625 C-100.65839844 117.97375 -99.93007812 117.34984375 -99.1796875 116.70703125 C-97.71236119 115.47717683 -96.23650833 114.25738034 -94.75 113.05078125 C-90.48881606 109.51196944 -87.54510595 106.17316343 -84.89453125 101.2890625 C-84.56195313 100.79277344 -84.229375 100.29648438 -83.88671875 99.78515625 C-83.22671875 99.78515625 -82.56671875 99.78515625 -81.88671875 99.78515625 C-81.82613281 99.19347656 -81.76554687 98.60179687 -81.703125 97.9921875 C-81.26659504 93.87537417 -80.80000529 89.82971092 -79.88671875 85.78515625 C-79.22671875 85.78515625 -78.56671875 85.78515625 -77.88671875 85.78515625 C-77.78875 84.57859375 -77.69078125 83.37203125 -77.58984375 82.12890625 C-77.43964266 80.5142445 -77.28855345 78.8996652 -77.13671875 77.28515625 C-77.07484375 76.49367188 -77.01296875 75.7021875 -76.94921875 74.88671875 C-76.08853462 66.13643013 -72.28266781 59.60109191 -66.88671875 52.78515625 C-66.22671875 52.78515625 -65.56671875 52.78515625 -64.88671875 52.78515625 C-63.94904567 49.73502428 -63.60770899 48.34132803 -65.06640625 45.43359375 C-65.62585938 44.68335938 -66.1853125 43.933125 -66.76171875 43.16015625 C-71.18005584 37.13888756 -71.45470316 32.12688071 -70.88671875 24.78515625 C-69.14718574 19.4699165 -66.66769554 17.53072304 -61.88671875 14.78515625 C-58.3984375 14.01953125 -58.3984375 14.01953125 -54.57421875 13.53515625 C-44.26259757 11.94819558 -35.06496956 7.47973256 -26.15625 2.15234375 C-18.45115218 -2.36488278 -8.36874964 -3.52189599 0 0 Z " fill="#7DA6A6" transform="translate(261.88671875,111.21484375)"/>
<path d="M0 0 C3.10573264 2.01744286 5.55342342 4.13979712 7.98046875 6.9375 C10.69887121 9.29245305 12.43978631 9.3312934 15.98828125 9.59765625 C20.18785816 10.19101913 22.77738582 10.6645318 25.67578125 13.84765625 C28.49492504 17.80274916 29.86112993 22.13688228 31.11328125 26.78515625 C31.44328125 27.77515625 31.77328125 28.76515625 32.11328125 29.78515625 C32.19666165 31.9231015 32.22061872 34.06357634 32.2109375 36.203125 C32.20771484 37.45673828 32.20449219 38.71035156 32.20117188 40.00195312 C32.19279297 41.31228516 32.18441406 42.62261719 32.17578125 43.97265625 C32.17076442 45.30794106 32.16620184 46.64322766 32.16210938 47.97851562 C32.1503082 51.24744098 32.13384422 54.51627616 32.11328125 57.78515625 C32.726875 57.89988281 33.34046875 58.01460937 33.97265625 58.1328125 C36.11328125 58.78515625 36.11328125 58.78515625 38.36328125 61.22265625 C40.98427741 66.55825558 41.10551932 71.35635725 39.453125 77.06640625 C37.16741987 82.37003375 34.39711107 84.5603858 29.11328125 86.78515625 C26.390625 86.87890625 26.390625 86.87890625 24.11328125 86.78515625 C23.15471372 101.55419669 27.45772067 117.8184745 32.11328125 131.78515625 C35.04466955 133.2508504 37.99960391 133.40601843 41.23828125 133.84765625 C43.16027344 134.11255859 43.16027344 134.11255859 45.12109375 134.3828125 C46.10851562 134.51558594 47.0959375 134.64835938 48.11328125 134.78515625 C48.11328125 135.11515625 48.11328125 135.44515625 48.11328125 135.78515625 C44.15328125 135.45515625 40.19328125 135.12515625 36.11328125 134.78515625 C36.11328125 135.44515625 36.11328125 136.10515625 36.11328125 136.78515625 C35.45328125 136.78515625 34.79328125 136.78515625 34.11328125 136.78515625 C33.92765625 137.46578125 33.74203125 138.14640625 33.55078125 138.84765625 C30.34781119 145.39285593 24.15479909 149.9345185 18.11328125 153.78515625 C17.57832031 154.17960938 17.04335938 154.5740625 16.4921875 154.98046875 C11.75430413 157.99836328 6.96693091 158.26241607 1.48828125 158.41015625 C0.75947754 158.44536377 0.03067383 158.48057129 -0.72021484 158.5168457 C-4.97966984 158.50665562 -7.24165118 157.91352598 -10.328125 154.88671875 C-15.13969228 149.46549221 -15.342625 143.76415961 -15.88671875 136.78515625 C-29.44916837 137.95168412 -42.70691689 140.48929222 -55.63671875 144.78515625 C-56.35021484 145.02194092 -57.06371094 145.25872559 -57.79882812 145.50268555 C-62.01637259 146.96799406 -65.92125744 148.76414343 -69.88671875 150.80810547 C-73.16693632 152.41057504 -76.57736864 153.62015732 -80.01171875 154.84765625 C-90.47657195 158.37358656 -90.47657195 158.37358656 -97.69921875 166.41015625 C-98.28316406 167.39242187 -98.86710937 168.3746875 -99.46875 169.38671875 C-99.93667969 170.17820312 -100.40460938 170.9696875 -100.88671875 171.78515625 C-101.21671875 172.11515625 -101.54671875 172.44515625 -101.88671875 172.78515625 C-102.14964931 176.81675816 -102.18076719 178.34408359 -99.88671875 181.78515625 C-99.40622869 183.52034678 -98.99607906 185.27560162 -98.6328125 187.0390625 C-98.41818359 188.05806641 -98.20355469 189.07707031 -97.98242188 190.12695312 C-97.65661133 191.72120117 -97.65661133 191.72120117 -97.32421875 193.34765625 C-96.88775792 195.45361158 -96.44906678 197.5591063 -96.0078125 199.6640625 C-95.81630615 200.59806885 -95.6247998 201.5320752 -95.42749023 202.49438477 C-94.97653288 204.79699088 -94.97653288 204.79699088 -93.88671875 206.78515625 C-93.81606258 208.8257063 -93.80249899 210.86849882 -93.82421875 212.91015625 C-93.83324219 214.00585938 -93.84226562 215.1015625 -93.8515625 216.23046875 C-93.86316406 217.07351563 -93.87476563 217.9165625 -93.88671875 218.78515625 C-113.53023723 223.52233916 -139.78788339 228.99420581 -158.32421875 218.53515625 C-160.1953125 217.1953125 -160.1953125 217.1953125 -161.88671875 215.78515625 C-162.41394531 215.35074219 -162.94117188 214.91632813 -163.484375 214.46875 C-167.65306314 210.02137519 -167.51836532 204.55049528 -167.40844727 198.76367188 C-167.11011687 192.92424341 -165.94283814 188.70890415 -162.88671875 183.78515625 C-162.34273438 182.85832031 -161.79875 181.93148437 -161.23828125 180.9765625 C-158.19338489 175.97043377 -155.13963076 171.78789697 -150.88671875 167.78515625 C-150.55671875 166.79515625 -150.22671875 165.80515625 -149.88671875 164.78515625 C-148.21484375 163.13671875 -148.21484375 163.13671875 -146.13671875 161.41015625 C-142.89787438 158.66204588 -139.85236378 155.83095385 -136.88671875 152.78515625 C-136.14421875 152.06328125 -135.40171875 151.34140625 -134.63671875 150.59765625 C-131.3011855 147.18631543 -128.19127752 143.59995816 -125.0703125 139.9921875 C-123.01485717 137.91467004 -121.46761443 137.02376792 -118.88671875 135.78515625 C-118.22671875 134.79515625 -117.56671875 133.80515625 -116.88671875 132.78515625 C-116.22671875 132.78515625 -115.56671875 132.78515625 -114.88671875 132.78515625 C-114.88671875 132.12515625 -114.88671875 131.46515625 -114.88671875 130.78515625 C-113.20703125 129.05859375 -113.20703125 129.05859375 -111.01171875 127.16015625 C-110.29242188 126.52851563 -109.573125 125.896875 -108.83203125 125.24609375 C-106.88671875 123.78515625 -106.88671875 123.78515625 -104.88671875 123.78515625 C-104.88671875 123.12515625 -104.88671875 122.46515625 -104.88671875 121.78515625 C-103.41796875 120.3046875 -103.41796875 120.3046875 -101.38671875 118.59765625 C-100.65839844 117.97375 -99.93007812 117.34984375 -99.1796875 116.70703125 C-97.71236119 115.47717683 -96.23650833 114.25738034 -94.75 113.05078125 C-90.48881606 109.51196944 -87.54510595 106.17316343 -84.89453125 101.2890625 C-84.56195313 100.79277344 -84.229375 100.29648438 -83.88671875 99.78515625 C-83.22671875 99.78515625 -82.56671875 99.78515625 -81.88671875 99.78515625 C-81.82613281 99.19347656 -81.76554687 98.60179687 -81.703125 97.9921875 C-81.26659504 93.87537417 -80.80000529 89.82971092 -79.88671875 85.78515625 C-79.22671875 85.78515625 -78.56671875 85.78515625 -77.88671875 85.78515625 C-77.78875 84.57859375 -77.69078125 83.37203125 -77.58984375 82.12890625 C-77.43964266 80.5142445 -77.28855345 78.8996652 -77.13671875 77.28515625 C-77.07484375 76.49367188 -77.01296875 75.7021875 -76.94921875 74.88671875 C-76.08853462 66.13643013 -72.28266781 59.60109191 -66.88671875 52.78515625 C-66.22671875 52.78515625 -65.56671875 52.78515625 -64.88671875 52.78515625 C-63.94904567 49.73502428 -63.60770899 48.34132803 -65.06640625 45.43359375 C-65.62585938 44.68335938 -66.1853125 43.933125 -66.76171875 43.16015625 C-71.18005584 37.13888756 -71.45470316 32.12688071 -70.88671875 24.78515625 C-69.14718574 19.4699165 -66.66769554 17.53072304 -61.88671875 14.78515625 C-58.3984375 14.01953125 -58.3984375 14.01953125 -54.57421875 13.53515625 C-44.26259757 11.94819558 -35.06496956 7.47973256 -26.15625 2.15234375 C-18.45115218 -2.36488278 -8.36874964 -3.52189599 0 0 Z " fill="#F1B19E" transform="translate(261.88671875,111.21484375)"/>
<path d="M0 0 C1.89155296 1.50501823 3.34693264 3.04626871 4.859375 4.9296875 C5.30667969 5.46335938 5.75398438 5.99703125 6.21484375 6.546875 C10.62991675 12.660053 14.859375 23.33430682 14.859375 30.9296875 C15.849375 30.9296875 16.839375 30.9296875 17.859375 30.9296875 C17.75625 29.8984375 17.653125 28.8671875 17.546875 27.8046875 C17.83348346 24.25074258 17.93609146 23.16988412 19.859375 20.4296875 C23.36370776 17.5094102 23.36370776 17.5094102 26.921875 17.7421875 C30.11921146 18.40578563 30.87296352 18.94327602 33.296875 21.3671875 C36.30585846 26.30192037 36.44577443 30.19972733 35.859375 35.9296875 C34.54220789 40.59531557 32.56805307 43.8405894 28.421875 46.4296875 C25.04958199 47.84960035 23.39374059 48.07518454 19.859375 47.9296875 C18.90080747 62.69872794 23.20381442 78.96300575 27.859375 92.9296875 C30.7907633 94.39538165 33.74569766 94.55054968 36.984375 94.9921875 C38.90636719 95.25708984 38.90636719 95.25708984 40.8671875 95.52734375 C41.85460937 95.66011719 42.84203125 95.79289062 43.859375 95.9296875 C43.859375 96.2596875 43.859375 96.5896875 43.859375 96.9296875 C39.899375 96.5996875 35.939375 96.2696875 31.859375 95.9296875 C31.859375 96.5896875 31.859375 97.2496875 31.859375 97.9296875 C31.199375 97.9296875 30.539375 97.9296875 29.859375 97.9296875 C29.67375 98.6103125 29.488125 99.2909375 29.296875 99.9921875 C26.09390494 106.53738718 19.90089284 111.07904975 13.859375 114.9296875 C13.05693359 115.52136719 13.05693359 115.52136719 12.23828125 116.125 C7.50039788 119.14289453 2.71302466 119.40694732 -2.765625 119.5546875 C-3.49442871 119.58989502 -4.22323242 119.62510254 -4.97412109 119.66137695 C-9.23357609 119.65118687 -11.49555743 119.05805723 -14.58203125 116.03125 C-19.39359853 110.61002346 -19.59653125 104.90869086 -20.140625 97.9296875 C-33.70307462 99.09621537 -46.96082314 101.63382347 -59.890625 105.9296875 C-60.60412109 106.16647217 -61.31761719 106.40325684 -62.05273438 106.6472168 C-66.26673377 108.11129364 -70.17337232 109.90266968 -74.13623047 111.94384766 C-77.44461365 113.57104026 -80.87146883 114.8436826 -84.328125 116.1171875 C-85.01326172 116.37693359 -85.69839844 116.63667969 -86.40429688 116.90429688 C-89.95512974 118.22688813 -93.39632052 119.32623649 -97.140625 119.9296875 C-95.83711429 116.01915537 -93.93969037 113.1008854 -91.45703125 109.87109375 C-90.01406963 107.84015827 -90.01406963 107.84015827 -88.734375 105.0625 C-87.10111788 101.85202889 -85.23015658 99.12631207 -83.078125 96.2421875 C-81.03978215 93.49782645 -79.03720109 90.77455164 -77.140625 87.9296875 C-76.480625 87.9296875 -75.820625 87.9296875 -75.140625 87.9296875 C-74.83125 87.1459375 -74.521875 86.3621875 -74.203125 85.5546875 C-73.140625 82.9296875 -73.140625 82.9296875 -72.140625 80.9296875 C-71.480625 80.9296875 -70.820625 80.9296875 -70.140625 80.9296875 C-69.893125 80.3521875 -69.645625 79.7746875 -69.390625 79.1796875 C-66.01813386 73.10920344 -60.33516624 70.56290712 -54.140625 67.9296875 C-53.480625 67.9296875 -52.820625 67.9296875 -52.140625 67.9296875 C-52.016875 66.7953125 -51.893125 65.6609375 -51.765625 64.4921875 C-51.559375 63.3165625 -51.353125 62.1409375 -51.140625 60.9296875 C-50.480625 60.5996875 -49.820625 60.2696875 -49.140625 59.9296875 C-49.61242187 59.1253125 -49.61242187 59.1253125 -50.09375 58.3046875 C-58.23705579 43.39164557 -60.76876609 24.71501331 -60.140625 7.9296875 C-58.50480469 7.89101562 -58.50480469 7.89101562 -56.8359375 7.8515625 C-43.85953635 7.41446573 -30.73398916 6.05206822 -18.765625 0.6796875 C-12.89371335 -1.85568023 -5.91208201 -2.95604101 0 0 Z " fill="#F2B29F" transform="translate(266.140625,150.0703125)"/>
<path d="M0 0 C0.33 0 0.66 0 1 0 C1.80078125 6.40625 2.6015625 12.8125 3.40234375 19.21875 C3.48923462 19.91334824 3.57612549 20.60794647 3.66564941 21.32359314 C3.84285083 22.7422797 4.01952036 24.16103279 4.19567871 25.57984924 C4.6357241 29.11868163 5.08433562 32.6559629 5.55273438 36.19116211 C9.70668515 67.78260686 9.70668515 67.78260686 5.15234375 74.87890625 C2.50839039 76.75188114 0.03007482 77.86680129 -3 79 C-4.65552985 79.94148343 -6.30123389 80.90042144 -7.9375 81.875 C-13.24082917 84.68713996 -18.64779543 87.2857766 -24.0625 89.875 C-24.90868896 90.28089355 -25.75487793 90.68678711 -26.62670898 91.10498047 C-27.42149658 91.48025879 -28.21628418 91.85553711 -29.03515625 92.2421875 C-29.7506665 92.5810498 -30.46617676 92.91991211 -31.20336914 93.26904297 C-33 94 -33 94 -35 94 C-35.08040527 93.18547363 -35.16081055 92.37094727 -35.24365234 91.53173828 C-35.55097276 88.42390032 -35.85914494 85.31614843 -36.16802979 82.20846558 C-36.30608039 80.81877925 -36.44389754 79.42906972 -36.58148193 78.03933716 C-37.36194323 70.1633027 -38.18238373 62.29602079 -39.125 54.4375 C-40.01473222 46.94126067 -40.39243072 39.44262239 -40.65869141 31.90014648 C-40.6901123 31.05911377 -40.7215332 30.21808105 -40.75390625 29.3515625 C-40.77783447 28.60729004 -40.8017627 27.86301758 -40.82641602 27.09619141 C-41.0026414 24.96810253 -41.45392718 23.06014693 -42 21 C-42.17002546 18.30459639 -42.08877822 15.70773562 -42 13 C-41 12 -41 12 -38.93359375 11.90234375 C-37.69802734 11.91974609 -37.69802734 11.91974609 -36.4375 11.9375 C-35.61121094 11.94652344 -34.78492188 11.95554687 -33.93359375 11.96484375 C-33.29550781 11.97644531 -32.65742188 11.98804688 -32 12 C-32 11.34 -32 10.68 -32 10 C-29.36 10 -26.72 10 -24 10 C-24 9.34 -24 8.68 -24 8 C-21.36 8 -18.72 8 -16 8 C-16 7.34 -16 6.68 -16 6 C-10.75117306 2.82307843 -5.98511371 2.34302035 0 2 C0 1.34 0 0.68 0 0 Z " fill="#F0B3A1" transform="translate(384,352)"/>
<path d="M0 0 C3.09726896 2.01194496 5.54345697 4.12877639 7.96484375 6.91796875 C10.70984312 9.30362275 12.65709911 9.4966045 16.23828125 9.91015625 C21.91883681 10.59071181 21.91883681 10.59071181 24.11328125 12.78515625 C24.11328125 13.77515625 24.11328125 14.76515625 24.11328125 15.78515625 C23.06527344 16.03910156 22.01726562 16.29304688 20.9375 16.5546875 C19.55845526 16.901794 18.17955647 17.24948069 16.80078125 17.59765625 C16.11048828 17.76330078 15.42019531 17.92894531 14.70898438 18.09960938 C9.69417003 19.32739558 9.69417003 19.32739558 6.11328125 22.78515625 C5.40836858 25.1072215 4.74115696 27.44108693 4.11328125 29.78515625 C3.45328125 30.77515625 2.79328125 31.76515625 2.11328125 32.78515625 C-0.93359375 33.04296875 -0.93359375 33.04296875 -4.63671875 32.91015625 C-8.28283835 32.79379073 -11.54532851 32.72409125 -15.140625 33.3671875 C-18.41256826 33.86519309 -19.92801127 32.89286556 -22.83984375 31.5078125 C-27.75449456 29.77267815 -33.34041649 29.72200943 -38.16015625 31.734375 C-41.35679546 33.67562908 -43.96153084 35.85498087 -46.69921875 38.41015625 C-52.44136079 42.68861503 -59.74484012 44.36422749 -66.88671875 43.78515625 C-70.76896957 37.35517832 -71.81573015 32.27459382 -70.88671875 24.78515625 C-69.14718574 19.4699165 -66.66769554 17.53072304 -61.88671875 14.78515625 C-58.3984375 14.01953125 -58.3984375 14.01953125 -54.57421875 13.53515625 C-44.26259757 11.94819558 -35.06496956 7.47973256 -26.15625 2.15234375 C-18.45115218 -2.36488278 -8.36874964 -3.52189599 0 0 Z " fill="#45626A" transform="translate(261.88671875,111.21484375)"/>
<path d="M0 0 C0.66 0 1.32 0 2 0 C2.48919922 0.92232422 2.48919922 0.92232422 2.98828125 1.86328125 C3.42527344 2.67152344 3.86226562 3.47976562 4.3125 4.3125 C4.74175781 5.11300781 5.17101562 5.91351563 5.61328125 6.73828125 C6.91758175 8.86557699 8.16738118 10.3296443 10 12 C11.70586575 13.62652316 13.3777546 15.29006566 15 17 C15 17.66 15 18.32 15 19 C15.928125 19.28875 16.85625 19.5775 17.8125 19.875 C21 21 21 21 24 23 C25.65 23.33 27.3 23.66 29 24 C29 27.63 29 31.26 29 35 C21.76363878 36.59426083 14.55656538 38.08006728 7.25 39.3125 C1.16905708 40.39325755 -4.63928903 41.99303016 -10.5 43.9375 C-11.59393066 44.29871948 -11.59393066 44.29871948 -12.70996094 44.66723633 C-17.00004142 46.14520342 -20.97502245 47.93724107 -25.00439453 50.01635742 C-28.30874483 51.64508599 -31.7336612 52.91503307 -35.1875 54.1875 C-35.87263672 54.44724609 -36.55777344 54.70699219 -37.26367188 54.97460938 C-40.81450474 56.29720063 -44.25569552 57.39654899 -48 58 C-46.69648929 54.08946787 -44.79906537 51.1711979 -42.31640625 47.94140625 C-40.87344463 45.91047077 -40.87344463 45.91047077 -39.59375 43.1328125 C-37.96049288 39.92234139 -36.08953158 37.19662457 -33.9375 34.3125 C-31.89915715 31.56813895 -29.89657609 28.84486414 -28 26 C-27.34 26 -26.68 26 -26 26 C-25.690625 25.21625 -25.38125 24.4325 -25.0625 23.625 C-24 21 -24 21 -23 19 C-22.34 19 -21.68 19 -21 19 C-20.7525 18.4225 -20.505 17.845 -20.25 17.25 C-16.87750886 11.17951594 -11.19454124 8.63321962 -5 6 C-4.34 6 -3.68 6 -3 6 C-2.690625 5.195625 -2.38125 4.39125 -2.0625 3.5625 C-1 1 -1 1 0 0 Z " fill="#E7F2EE" transform="translate(217,212)"/>
<path d="M0 0 C4.45927302 3.53666481 5.48197596 7.74976399 7 13 C7.495 14.485 7.495 14.485 8 16 C8.08315752 18.06498892 8.10735878 20.1325789 8.09765625 22.19921875 C8.09282227 24.01196289 8.09282227 24.01196289 8.08789062 25.86132812 C8.07532227 27.7552832 8.07532227 27.7552832 8.0625 29.6875 C8.05798828 30.96173828 8.05347656 32.23597656 8.04882812 33.54882812 C8.03702873 36.69926564 8.02056597 39.84960949 8 43 C6.57107422 43.44279297 6.57107422 43.44279297 5.11328125 43.89453125 C1.6247889 45.13323054 0.66940956 45.74904453 -1 49 C-1.72481084 52.65274469 -1.72481084 52.65274469 -2 56 C-2.99 56 -3.98 56 -5 56 C-5.23074219 55.17757812 -5.46148437 54.35515625 -5.69921875 53.5078125 C-8.82204701 42.81860588 -12.29922505 31.4671833 -22 25 C-30.20943429 23.74412841 -36.84635439 25.76098659 -44.4453125 28.6875 C-56.25158659 33.04673966 -67.60393449 33.37947139 -80 33 C-80 36.63 -80 40.26 -80 44 C-82.85046273 41.14953727 -84.77513464 38.33729804 -87 35 C-87.86625 34.13375 -87.86625 34.13375 -88.75 33.25 C-89.36875 32.63125 -89.36875 32.63125 -90 32 C-90 31.34 -90 30.68 -90 30 C-88.9378125 29.79246094 -87.875625 29.58492187 -86.78125 29.37109375 C-77.97624869 27.50453341 -72.40058238 25.5752881 -66 19 C-60.67120382 15.32905152 -55.27427333 15.27745249 -49 16 C-46.9453125 16.71484375 -46.9453125 16.71484375 -45.1875 17.5625 C-41.41107001 19.26559588 -39.96550225 18.89021479 -36 18 C-31.21471218 17.72077797 -26.710255 18.057949 -22 19 C-20.5783818 16.46139608 -19.85425475 14.3721743 -19.1875 11.5 C-17.77372559 7.33308596 -16.79230948 6.17856076 -13 4 C-8.60592742 2.62685232 -4.60867898 2 0 2 C0 1.34 0 0.68 0 0 Z " fill="#899B9F" transform="translate(286,125)"/>
<path d="M0 0 C0.33 0 0.66 0 1 0 C1.495 3.96 1.495 3.96 2 8 C2.99 8 3.98 8 5 8 C5.11069824 8.57443848 5.22139648 9.14887695 5.33544922 9.74072266 C5.84449329 12.36963602 6.35969444 14.99730712 6.875 17.625 C7.04902344 18.52863281 7.22304688 19.43226563 7.40234375 20.36328125 C8.75485079 27.30598517 8.75485079 27.30598517 11 34 C13.9313883 35.46569415 16.88632266 35.62086218 20.125 36.0625 C21.40632813 36.23910156 22.68765625 36.41570312 24.0078125 36.59765625 C24.99523437 36.73042969 25.98265625 36.86320312 27 37 C27 37.33 27 37.66 27 38 C23.04 37.67 19.08 37.34 15 37 C15 37.66 15 38.32 15 39 C14.34 39 13.68 39 13 39 C12.7215625 40.0209375 12.7215625 40.0209375 12.4375 41.0625 C8.91769903 48.25513677 1.31506395 54.51096213 -6.21484375 57.109375 C-10.20792054 58.04892248 -13.98223725 58.4025596 -18.0625 58.4375 C-18.74376953 58.47037109 -19.42503906 58.50324219 -20.12695312 58.53710938 C-23.97900939 58.57781314 -26.42137322 58.04444658 -29.37109375 55.66015625 C-33.15009219 51.83623658 -34.48995282 49.30449064 -35 44 C-34.7355646 41.65785793 -34.41755362 39.31974234 -34 37 C-34.66 37 -35.32 37 -36 37 C-36 33.7 -36 30.4 -36 27 C-34.39125 26.95875 -32.7825 26.9175 -31.125 26.875 C-25.39331828 26.39303453 -21.70221953 24.47750928 -16.99609375 21.27734375 C-15 20 -15 20 -13 20 C-13 19.34 -13 18.68 -13 18 C-12.34 18 -11.68 18 -11 18 C-10.67 17.01 -10.34 16.02 -10 15 C-9.34 15 -8.68 15 -8 15 C-8 14.34 -8 13.68 -8 13 C-7.34 13 -6.68 13 -6 13 C-4.53347983 10.11980724 -3.17952126 7.20691485 -1.875 4.25 C-1.34519531 3.05117187 -1.34519531 3.05117187 -0.8046875 1.828125 C-0.53914063 1.22484375 -0.27359375 0.6215625 0 0 Z " fill="#F2B19E" transform="translate(283,209)"/>
<path d="M0 0 C2.34353817 2.04930541 2.54401851 3.49186136 2.7734375 6.55078125 C2.4434375 7.54078125 2.1134375 8.53078125 1.7734375 9.55078125 C1.1134375 9.55078125 0.4534375 9.55078125 -0.2265625 9.55078125 C-0.2265625 10.21078125 -0.2265625 10.87078125 -0.2265625 11.55078125 C-15.44030619 19.44977567 -36.82715534 29.1669505 -54.2265625 24.55078125 C-56.6640625 22.98828125 -56.6640625 22.98828125 -58.2265625 20.55078125 C-58.8162496 15.98070622 -58.69964565 13.62597023 -56.8515625 9.42578125 C-44.50588 -4.09568053 -15.94980645 -10.38136525 0 0 Z " fill="#EAF3EF" transform="translate(258.2265625,50.44921875)"/>
<path d="M0 0 C0.66 0 1.32 0 2 0 C3.5937335 2.78584616 5.17293186 5.57969102 6.75 8.375 C7.1934375 9.14972656 7.636875 9.92445313 8.09375 10.72265625 C8.53203125 11.50253906 8.9703125 12.28242188 9.421875 13.0859375 C9.81987305 13.7876709 10.21787109 14.4894043 10.62792969 15.21240234 C12.67473751 19.37084571 14.31931826 23.68294576 16 28 C8.59323943 28.0698268 1.18655104 28.12297582 -6.22047329 28.15543652 C-9.66069184 28.17102416 -13.10068348 28.19213408 -16.54077148 28.22631836 C-20.50501697 28.26546007 -24.46917387 28.27976629 -28.43359375 28.29296875 C-29.65582138 28.30845261 -30.87804901 28.32393646 -32.13731384 28.33988953 C-39.10187456 28.34124936 -44.53227226 27.62401495 -51 25 C-50.75 22.625 -50.75 22.625 -50 20 C-45.68057093 16.9417181 -40.2923195 17.60657073 -35.21484375 17.44140625 C-31.80718967 16.97352665 -31.08631663 16.5651434 -29 14 C-28.34 14 -27.68 14 -27 14 C-27 13.34 -27 12.68 -27 12 C-21.66183851 9.33091926 -15.41568989 11.47980635 -10 13 C-9.87109375 12.40574219 -9.7421875 11.81148438 -9.609375 11.19921875 C-8.69661299 7.90508407 -7.12502693 5.65628367 -5 3 C-2.25 2.125 -2.25 2.125 0 2 C0 1.34 0 0.68 0 0 Z " fill="#B2CBCA" transform="translate(358,270)"/>
<path d="M0 0 C3.17575179 1.58787589 4.58464174 2.9892949 5.9375 6.28125 C9.50847273 17.68089371 10.976609 29.87388596 5.5625 40.9375 C3.68179831 43.42002623 2.03181376 44.81643763 -1.0859375 45.37109375 C-5.3769508 45.49557707 -7.35630843 45.48976532 -10.875 42.8125 C-16.95438859 34.76625039 -18.69249332 27.67974385 -17.47265625 17.640625 C-16.24067442 10.75781742 -13.81123069 6.05796046 -9 1 C-5.89951072 -0.55024464 -3.42105782 -0.28992015 0 0 Z " fill="#EAF3EF" transform="translate(441,204)"/>
<path d="M0 0 C4.2797426 3.40518651 7.46723109 8.03516264 9.859375 12.9296875 C9.859375 13.5896875 9.859375 14.2496875 9.859375 14.9296875 C7.95091797 14.98576172 7.95091797 14.98576172 6.00390625 15.04296875 C-3.18474682 15.36870734 -12.13152433 15.96869901 -21.203125 17.4921875 C-34.11826605 19.61759063 -47.09382119 19.18513616 -60.140625 18.9296875 C-60.140625 15.2996875 -60.140625 11.6696875 -60.140625 7.9296875 C-58.50480469 7.89101562 -58.50480469 7.89101562 -56.8359375 7.8515625 C-43.85953635 7.41446573 -30.73398916 6.05206822 -18.765625 0.6796875 C-12.89371335 -1.85568023 -5.91208201 -2.95604101 0 0 Z " fill="#EECEC5" transform="translate(266.140625,150.0703125)"/>
<path d="M0 0 C3.52140302 2.69724486 5.23632872 4.68024329 6 9 C6.65483536 17.81509135 6.26833791 24.73300328 0.75 31.9375 C-2.65257946 34.4894346 -4.76085763 35 -9 35 C-12.87572196 33.36358406 -14.42459131 31.82695844 -16 28 C-17.57700295 19.92421878 -17.18741079 12.57367711 -13.625 5.125 C-9.91709333 0.27619897 -6.15169826 -1.31822105 0 0 Z " fill="#EAF3EE" transform="translate(68,248)"/>
<path d="M0 0 C3.77642999 1.70309588 5.22199775 1.32771479 9.1875 0.4375 C13.97278782 0.15827797 18.477245 0.495449 23.1875 1.4375 C23.5175 0.4475 23.8475 -0.5425 24.1875 -1.5625 C24.6825 -0.5725 24.6825 -0.5725 25.1875 0.4375 C22.10790043 4.45436901 19.41986511 4.95538874 14.7109375 5.81640625 C11.96794063 6.49154015 9.76799031 7.53800952 7.25 8.8125 C-6.17551641 15.1138914 -20.20478386 16.05910494 -34.8125 15.4375 C-34.8125 19.0675 -34.8125 22.6975 -34.8125 26.4375 C-37.66296273 23.58703727 -39.58763464 20.77479804 -41.8125 17.4375 C-42.67875 16.57125 -42.67875 16.57125 -43.5625 15.6875 C-43.975 15.275 -44.3875 14.8625 -44.8125 14.4375 C-44.8125 13.7775 -44.8125 13.1175 -44.8125 12.4375 C-43.7503125 12.22996094 -42.688125 12.02242187 -41.59375 11.80859375 C-32.78874869 9.94203341 -27.21308238 8.0127881 -20.8125 1.4375 C-14.78026844 -2.7180373 -6.63447146 -3.19928957 0 0 Z " fill="#84999E" transform="translate(240.8125,142.5625)"/>
<path d="M0 0 C3.60239038 3.13756581 3.9957244 3.97862202 5 9 C1.37 9.33 -2.26 9.66 -6 10 C-9.1893731 17.97343274 -11.33099794 25.23773949 -12.53125 33.76953125 C-13.32774004 39.25867513 -14.24401157 44.73203471 -16 50 C-16.66 50 -17.32 50 -18 50 C-18 50.66 -18 51.32 -18 52 C-18.66 52 -19.32 52 -20 52 C-20.41771804 55.33200185 -20.41771804 55.33200185 -20 59 C-19.195625 59.61875 -18.39125 60.2375 -17.5625 60.875 C-14.70604352 63.24376878 -14.46054793 63.91841494 -13.875 67.4375 C-13.6815199 71.00222432 -13.88566631 71.82665538 -15.9375 74.9375 C-22.58293576 79.41299755 -29.76270599 79.27119887 -37.5 79.125 C-38.4178125 79.11597656 -39.335625 79.10695313 -40.28125 79.09765625 C-42.52111556 79.07432432 -44.76041183 79.04159235 -47 79 C-45.625 77 -45.625 77 -44 75 C-43.34 75 -42.68 75 -42 75 C-42 74.34 -42 73.68 -42 73 C-40.53125 71.51953125 -40.53125 71.51953125 -38.5 69.8125 C-37.77167969 69.18859375 -37.04335937 68.5646875 -36.29296875 67.921875 C-34.82564244 66.69202058 -33.34978958 65.47222409 -31.86328125 64.265625 C-27.60209731 60.72681319 -24.6583872 57.38800718 -22.0078125 52.50390625 C-21.67523438 52.00761719 -21.34265625 51.51132813 -21 51 C-20.34 51 -19.68 51 -19 51 C-18.93941406 50.40832031 -18.87882812 49.81664062 -18.81640625 49.20703125 C-18.37987629 45.09021792 -17.91328654 41.04455467 -17 37 C-16.34 37 -15.68 37 -15 37 C-14.90203125 35.7934375 -14.8040625 34.586875 -14.703125 33.34375 C-14.55292391 31.72908825 -14.4018347 30.11450895 -14.25 28.5 C-14.1571875 27.31277344 -14.1571875 27.31277344 -14.0625 26.1015625 C-13.20181587 17.35127388 -9.39594906 10.81593566 -4 4 C-3.34 4 -2.68 4 -2 4 C-1.34 2.68 -0.68 1.36 0 0 Z " fill="#F2D3C9" transform="translate(199,160)"/>
<path d="M0 0 C0.14695313 1.34578125 0.14695313 1.34578125 0.296875 2.71875 C1.94885577 16.50424466 4.56380256 29.54965085 11 42 C10.01 42 9.02 42 8 42 C8 43.0725 8 44.145 8 45.25 C7 49 7 49 5.22265625 50.35546875 C-0.05685921 53 -0.05685921 53 -3 53 C-3.103125 52.360625 -3.20625 51.72125 -3.3125 51.0625 C-3.6528125 50.0415625 -3.6528125 50.0415625 -4 49 C-4.99 48.67 -5.98 48.34 -7 48 C-6.83951172 46.33324219 -6.83951172 46.33324219 -6.67578125 44.6328125 C-6.03005501 37.01444337 -5.59455225 30.74131681 -8.28125 23.46484375 C-10.11127762 17.1890425 -10.31867597 9.61493345 -7.1875 3.75 C-4.86587641 0.83138748 -3.73476735 0 0 0 Z " fill="#EA9583" transform="translate(207,169)"/>
<path d="M0 0 C0.28875 0.598125 0.5775 1.19625 0.875 1.8125 C2.04742026 4.19327792 2.04742026 4.19327792 4 7 C4.48049006 8.73519053 4.89063969 10.49044537 5.25390625 12.25390625 C5.46853516 13.27291016 5.68316406 14.29191406 5.90429688 15.34179688 C6.12150391 16.40462891 6.33871094 17.46746094 6.5625 18.5625 C6.99896083 20.66845533 7.43765197 22.77395005 7.87890625 24.87890625 C8.0704126 25.8129126 8.26191895 26.74691895 8.45922852 27.70922852 C8.91018587 30.01183463 8.91018587 30.01183463 10 32 C10.13860991 36.00305407 10.04262206 39.99352624 10 44 C5.71 44.66 1.42 45.32 -3 46 C-3.26670143 41.82167762 -3.0718877 38.88913061 -1.5 35 C0.47126732 29.31475076 0.33410086 23.89550914 0.1875 17.9375 C0.17396484 16.88111328 0.16042969 15.82472656 0.14648438 14.73632812 C0.1114709 12.15700191 0.06236675 9.57878506 0 7 C-0.66 7 -1.32 7 -2 7 C-2.25910156 7.70898438 -2.51820313 8.41796875 -2.78515625 9.1484375 C-4.08439707 12.19810244 -5.65039149 14.83480478 -7.4375 17.625 C-8.03433594 18.56601562 -8.63117188 19.50703125 -9.24609375 20.4765625 C-10.71794583 22.59419377 -12.02138003 24.35758008 -14 26 C-14.66 26 -15.32 26 -16 26 C-14.62159784 23.16661778 -13.13581614 20.44311194 -11.5 17.75 C-11.0771875 17.04359375 -10.654375 16.3371875 -10.21875 15.609375 C-9.61546875 14.81273437 -9.61546875 14.81273437 -9 14 C-8.34 14 -7.68 14 -7 14 C-6.773125 13.175 -6.54625 12.35 -6.3125 11.5 C-4.72573768 7.26863382 -2.49251763 3.74828987 0 0 Z " fill="#E88F7C" transform="translate(158,286)"/>
<path d="M0 0 C0.66 0 1.32 0 2 0 C1.39469657 13.04588183 0.31974085 26.00759981 -1 39 C-8.07076635 42.24226342 -14.19673706 44.60983685 -22 45 C-21.29875 44.195625 -20.5975 43.39125 -19.875 42.5625 C-12.53852008 33.72962758 -7.53190647 24.12293074 -3.8125 13.3125 C-3.55275391 12.57966797 -3.29300781 11.84683594 -3.02539062 11.09179688 C-1.74335012 7.41793921 -0.63080127 3.85320774 0 0 Z " fill="#658E8E" transform="translate(198,293)"/>
<path d="M0 0 C0.33 0 0.66 0 1 0 C1 3.63 1 7.26 1 11 C-1.66545164 11.6512183 -4.33219056 12.29607161 -7 12.9375 C-7.74378906 13.11990234 -8.48757813 13.30230469 -9.25390625 13.49023438 C-17.41119472 15.44089031 -25.11900021 16.15122394 -33.5 16.0625 C-34.32242187 16.05798828 -35.14484375 16.05347656 -35.9921875 16.04882812 C-37.99482396 16.03718489 -39.99742227 16.01925556 -42 16 C-41.67 14.68 -41.34 13.36 -41 12 C-38.03 12 -35.06 12 -32 12 C-32 11.34 -32 10.68 -32 10 C-29.36 10 -26.72 10 -24 10 C-24 9.34 -24 8.68 -24 8 C-21.36 8 -18.72 8 -16 8 C-16 7.34 -16 6.68 -16 6 C-10.75117306 2.82307843 -5.98511371 2.34302035 0 2 C0 1.34 0 0.68 0 0 Z " fill="#E6927F" transform="translate(384,352)"/>
<path d="M0 0 C1.46663409 4.30341319 0.25582021 6.53751602 -1.62890625 10.49609375 C-4.05708442 14.93045902 -6.97420572 18.95869942 -10 23 C-10.763125 24.0725 -11.52625 25.145 -12.3125 26.25 C-16.24318096 30.27209214 -23.05764743 35.7258896 -28.91015625 36.1328125 C-34.88888889 36.11111111 -34.88888889 36.11111111 -36 35 C-36.14115161 32.32941149 -36.04247107 29.67567762 -36 27 C-35.32195312 26.99742187 -34.64390625 26.99484375 -33.9453125 26.9921875 C-27.05316185 26.70581005 -22.69599249 25.1532749 -16.99609375 21.27734375 C-15 20 -15 20 -13 20 C-13 19.34 -13 18.68 -13 18 C-12.34 18 -11.68 18 -11 18 C-10.67 17.01 -10.34 16.02 -10 15 C-9.34 15 -8.68 15 -8 15 C-8 14.34 -8 13.68 -8 13 C-7.34 13 -6.68 13 -6 13 C-4.53347983 10.11980724 -3.17952126 7.20691485 -1.875 4.25 C-1.34519531 3.05117187 -1.34519531 3.05117187 -0.8046875 1.828125 C-0.53914063 1.22484375 -0.27359375 0.6215625 0 0 Z " fill="#E88D7C" transform="translate(283,209)"/>
<path d="M0 0 C2.58861273 2.58861273 2.77385904 4.56579317 3.5625 8.125 C3.81128906 9.22070312 4.06007813 10.31640625 4.31640625 11.4453125 C5.59284911 18.08281535 6.17621178 24.69985507 6.53515625 31.4375 C6.59962196 32.58581299 6.59962196 32.58581299 6.66539001 33.75732422 C6.80033084 36.1714149 6.93148177 38.58569359 7.0625 41 C7.15404496 42.64975358 7.24583954 44.29949333 7.33789062 45.94921875 C7.56147691 49.96599187 7.7816676 53.98293802 8 58 C6.02 58.495 6.02 58.495 4 59 C3.91435791 58.11739502 3.82871582 57.23479004 3.74047852 56.32543945 C3.42006519 53.03584827 3.09738675 49.74649536 2.77319336 46.45727539 C2.63361919 45.0364653 2.4949357 43.61556741 2.35717773 42.19458008 C2.1584583 40.14640684 1.95648663 38.09857578 1.75390625 36.05078125 C1.63345947 34.82012939 1.5130127 33.58947754 1.38891602 32.3215332 C1.06317131 29.10882393 1.06317131 29.10882393 0.45898438 26.41796875 C-0.0663942 23.65022973 -0.11271702 21.07808334 -0.09765625 18.26171875 C-0.09443359 17.19501953 -0.09121094 16.12832031 -0.08789062 15.02929688 C-0.07951172 13.92650391 -0.07113281 12.82371094 -0.0625 11.6875 C-0.05798828 10.56537109 -0.05347656 9.44324219 -0.04882812 8.28710938 C-0.03707313 5.5246849 -0.02064077 2.76237002 0 0 Z " fill="#E6F2EE" transform="translate(345,387)"/>
<path d="M0 0 C0.66 0 1.32 0 2 0 C1.835 0.804375 1.67 1.60875 1.5 2.4375 C0.54170453 9.26535524 -0.02856809 15.03175097 4 21 C4.99 21.33 5.98 21.66 7 22 C7.18175781 20.95199219 7.18175781 20.95199219 7.3671875 19.8828125 C7.61855469 18.51769531 7.61855469 18.51769531 7.875 17.125 C8.03742188 16.22007812 8.19984375 15.31515625 8.3671875 14.3828125 C9 12 9 12 11 10 C13.125 10.375 13.125 10.375 15 11 C15.02578125 11.71285156 15.0515625 12.42570313 15.078125 13.16015625 C15.45721325 19.56157822 16.10412967 23.84060415 20 29 C23.00478122 31.3302385 25.40255459 32.80085153 29 34 C29 34.66 29 35.32 29 36 C32.3 36.99 35.6 37.98 39 39 C39 39.66 39 40.32 39 41 C30.28410024 39.92333003 22.18353804 35.18353804 16 29 C12.61547866 23.98157181 12.33747951 18.88843556 12 13 C10.56389726 14.22420033 10.56389726 14.22420033 10.625 17.875 C10.32021414 20.48678034 10.11695853 21.81620802 8.6875 24.0625 C7 25 7 25 5 24.9375 C2.41447469 23.72553501 1.46187064 22.43645106 0 20 C-1.1684775 16.48661866 -1.13337715 13.11925848 -1.125 9.4375 C-1.12757812 8.30183594 -1.13015625 7.16617188 -1.1328125 5.99609375 C-1 3 -1 3 0 0 Z " fill="#96AEAB" transform="translate(122,154)"/>
<path d="M0 0 C3.60239038 3.13756581 3.9957244 3.97862202 5 9 C1.37 9.33 -2.26 9.66 -6 10 C-9.18963526 17.97408814 -11.32512647 25.23932128 -12.53515625 33.76953125 C-12.96216092 36.73703428 -13.44519376 39.67893584 -14 42.625 C-14.2165625 43.78902344 -14.2165625 43.78902344 -14.4375 44.9765625 C-15 47 -15 47 -17 50 C-16.61564572 42.49846466 -15.83778491 35.10695324 -14.6875 27.6875 C-14.58203857 26.94773926 -14.47657715 26.20797852 -14.36791992 25.44580078 C-13.01699692 17.16248539 -9.1660397 10.52552383 -4 4 C-3.34 4 -2.68 4 -2 4 C-1.34 2.68 -0.68 1.36 0 0 Z " fill="#E8BBAE" transform="translate(199,160)"/>
<path d="M0 0 C1.60294922 0.01353516 1.60294922 0.01353516 3.23828125 0.02734375 C4.04652344 0.03894531 4.85476563 0.05054688 5.6875 0.0625 C5.6875 1.3825 5.6875 2.7025 5.6875 4.0625 C4.759375 4.31 3.83125 4.5575 2.875 4.8125 C-0.60219392 6.17610546 -1.63106811 6.78813264 -3.3125 10.0625 C-4.03731084 13.71524469 -4.03731084 13.71524469 -4.3125 17.0625 C-5.3025 17.0625 -6.2925 17.0625 -7.3125 17.0625 C-7.98434618 14.95998139 -8.64980968 12.85542237 -9.3125 10.75 C-9.869375 8.99236328 -9.869375 8.99236328 -10.4375 7.19921875 C-11.3125 4.0625 -11.3125 4.0625 -11.3125 1.0625 C-7.47525828 0.15836327 -3.93747726 -0.04326898 0 0 Z " fill="#496167" transform="translate(288.3125,163.9375)"/>
<path d="M0 0 C0.28875 0.598125 0.5775 1.19625 0.875 1.8125 C2.04742026 4.19327792 2.04742026 4.19327792 4 7 C4.44111565 8.88154883 4.8109267 10.78062638 5.125 12.6875 C5.29257813 13.68136719 5.46015625 14.67523438 5.6328125 15.69921875 C5.75398438 16.45847656 5.87515625 17.21773438 6 18 C5.01 17.67 4.02 17.34 3 17 C2.67 20.3 2.34 23.6 2 27 C1.67 27 1.34 27 1 27 C0.505 17.1 0.505 17.1 0 7 C-0.66 7 -1.32 7 -2 7 C-2.25910156 7.70898438 -2.51820313 8.41796875 -2.78515625 9.1484375 C-4.08439707 12.19810244 -5.65039149 14.83480478 -7.4375 17.625 C-8.03433594 18.56601562 -8.63117188 19.50703125 -9.24609375 20.4765625 C-10.71794583 22.59419377 -12.02138003 24.35758008 -14 26 C-14.66 26 -15.32 26 -16 26 C-14.62159784 23.16661778 -13.13581614 20.44311194 -11.5 17.75 C-11.0771875 17.04359375 -10.654375 16.3371875 -10.21875 15.609375 C-9.61546875 14.81273437 -9.61546875 14.81273437 -9 14 C-8.34 14 -7.68 14 -7 14 C-6.773125 13.175 -6.54625 12.35 -6.3125 11.5 C-4.72573768 7.26863382 -2.49251763 3.74828987 0 0 Z " fill="#E59684" transform="translate(158,286)"/>
<path d="M0 0 C0 0.66 0 1.32 0 2 C4.74354436 4.22656164 8.72250715 5.46148032 14 6 C14 6.66 14 7.32 14 8 C10.79174438 8.05849554 7.58362767 8.09376162 4.375 8.125 C3.47136719 8.14175781 2.56773437 8.15851563 1.63671875 8.17578125 C-3.32750152 8.21201643 -7.34411907 7.96444146 -12 6 C-12 5.34 -12 4.68 -12 4 C-4 -2 -4 -2 0 0 Z " fill="#778D91" transform="translate(206,126)"/>
<path d="M0 0 C0.99 0.495 0.99 0.495 2 1 C2.64308114 3.62179236 3.1627576 6.18431794 3.62109375 8.83984375 C3.76652115 9.63596573 3.91194855 10.43208771 4.06178284 11.25233459 C4.52864383 13.81263837 4.9839866 16.3748008 5.4375 18.9375 C7.94166514 33.6556099 7.94166514 33.6556099 12 48 C13.65 48.33 15.3 48.66 17 49 C16.67 49.66 16.34 50.32 16 51 C14.02 51 12.04 51 10 51 C6.98529203 41.8885083 5.05930023 32.67351075 3.3125 23.25 C2.99116089 21.52849731 2.99116089 21.52849731 2.66333008 19.7722168 C1.4720486 13.19571628 0.53196336 6.6632426 0 0 Z " fill="#699392" transform="translate(323,314)"/>
<path d="M0 0 C0 3.63 0 7.26 0 11 C-2.5625 11.5 -2.5625 11.5 -6 11 C-8.65876127 8.58004962 -10.83803429 5.86556402 -13 3 C-8.73164405 0.73214781 -4.83970587 0 0 0 Z " fill="#4D6261" transform="translate(167,330)"/>
<path d="M0 0 C4.20102588 1.40034196 6.87887673 3.38697827 10.125 6.375 C11.39730469 7.53128906 11.39730469 7.53128906 12.6953125 8.7109375 C17.89542257 13.87579258 17.89542257 13.87579258 18.25 17.6875 C18 20 18 20 17 21 C15.47480724 20.91062197 13.95318071 20.75462854 12.4375 20.5625 C11.61121094 20.46066406 10.78492188 20.35882813 9.93359375 20.25390625 C9.29550781 20.17011719 8.65742188 20.08632812 8 20 C8.33 22.64 8.66 25.28 9 28 C7.68 27.67 6.36 27.34 5 27 C5.66 27 6.32 27 7 27 C6.67 24.03 6.34 21.06 6 18 C9.3 18 12.6 18 16 18 C12.72484314 10.85420321 7.06650987 5.53325493 0 2 C0 1.34 0 0.68 0 0 Z " fill="#8CA5A1" transform="translate(315,121)"/>
<path d="M0 0 C1.2375 -0.020625 2.475 -0.04125 3.75 -0.0625 C4.44609375 -0.07410156 5.1421875 -0.08570313 5.859375 -0.09765625 C8 0 8 0 9.890625 0.48632812 C13.29134002 1.31446521 16.7665566 1.37478794 20.25 1.5625 C20.99507812 1.60568359 21.74015625 1.64886719 22.5078125 1.69335938 C24.338349 1.79896725 26.16915176 1.89994201 28 2 C28 2.33 28 2.66 28 3 C22.06 3 16.12 3 10 3 C10 6.63 10 10.26 10 14 C7.14953727 11.14953727 5.22486536 8.33729804 3 5 C2.4225 4.4225 1.845 3.845 1.25 3.25 C0.8375 2.8375 0.425 2.425 0 2 C0 1.34 0 0.68 0 0 Z " fill="#999E9D" transform="translate(196,155)"/>
<path d="M0 0 C2.85793316 2.85793316 2.40799941 5.14665584 2.625 9.125 C2.69976562 10.40632813 2.77453125 11.68765625 2.8515625 13.0078125 C2.92503906 14.48894531 2.92503906 14.48894531 3 16 C3.33 16 3.66 16 4 16 C4.12852505 24.72542301 3.79645684 33.31008699 3 42 C2.67 42 2.34 42 2 42 C0.01508054 27.96378382 -0.23441945 14.16254136 0 0 Z " fill="#E2F0EB" transform="translate(345,387)"/>
<path d="M0 0 C0.88945312 0.00966797 1.77890625 0.01933594 2.6953125 0.02929688 C3.61570313 0.05443359 4.53609375 0.07957031 5.484375 0.10546875 C6.42023438 0.11900391 7.35609375 0.13253906 8.3203125 0.14648438 C10.62558827 0.18176921 12.9296856 0.23106594 15.234375 0.29296875 C15.234375 0.62296875 15.234375 0.95296875 15.234375 1.29296875 C14.28175781 1.35355469 13.32914063 1.41414062 12.34765625 1.4765625 C11.09339844 1.56035156 9.83914062 1.64414063 8.546875 1.73046875 C7.30550781 1.81167969 6.06414062 1.89289063 4.78515625 1.9765625 C1.83754638 2.2392208 -0.91781251 2.49515857 -3.765625 3.29296875 C-4.095625 3.95296875 -4.425625 4.61296875 -4.765625 5.29296875 C-5.425625 5.29296875 -6.085625 5.29296875 -6.765625 5.29296875 C-6.765625 5.95296875 -6.765625 6.61296875 -6.765625 7.29296875 C-11.15024038 10.29296875 -11.15024038 10.29296875 -13.765625 10.29296875 C-13.9925 10.84984375 -14.219375 11.40671875 -14.453125 11.98046875 C-16.12459266 14.92543559 -18.31838852 16.97453419 -20.765625 19.29296875 C-21.755625 18.96296875 -22.745625 18.63296875 -23.765625 18.29296875 C-22.69054871 16.99442154 -21.60518764 15.70438514 -20.515625 14.41796875 C-19.61070312 13.33902344 -19.61070312 13.33902344 -18.6875 12.23828125 C-16.77300287 10.3004366 -15.1753667 9.47792438 -12.765625 8.29296875 C-12.105625 7.30296875 -11.445625 6.31296875 -10.765625 5.29296875 C-10.105625 5.29296875 -9.445625 5.29296875 -8.765625 5.29296875 C-8.765625 4.63296875 -8.765625 3.97296875 -8.765625 3.29296875 C-5.87826817 0.56753913 -3.92539491 -0.07548836 0 0 Z " fill="#EAC1B6" transform="translate(155.765625,238.70703125)"/>
<path d="M0 0 C0.66 0 1.32 0 2 0 C2.08636719 0.80824219 2.17273438 1.61648437 2.26171875 2.44921875 C2.92083619 9.41031951 2.92083619 9.41031951 6.5 15.125 C7.325 15.74375 8.15 16.3625 9 17 C9.66 17.66 10.32 18.32 11 19 C13.03467434 19.27686065 13.03467434 19.27686065 15.3515625 19.1953125 C16.20234375 19.18886719 17.053125 19.18242187 17.9296875 19.17578125 C18.81914062 19.15902344 19.70859375 19.14226562 20.625 19.125 C21.5221875 19.11597656 22.419375 19.10695313 23.34375 19.09765625 C25.56276586 19.0740497 27.78125077 19.0411231 30 19 C26.35367815 22.61738279 22.48718933 22.54996858 17.625 22.5625 C16.8825 22.59923828 16.14 22.63597656 15.375 22.67382812 C11.15369535 22.70738973 8.70369919 22.22946843 5.5859375 19.27734375 C1.82615088 14.91243019 0.78654599 10.88055285 0.375 5.1875 C0.30023438 4.21167969 0.22546875 3.23585937 0.1484375 2.23046875 C0.09945312 1.49441406 0.05046875 0.75835937 0 0 Z " fill="#D7B4A6" transform="translate(246,247)"/>
<path d="M0 0 C0.33 0.99 0.66 1.98 1 3 C1.33 3.33 1.66 3.66 2 4 C4.00720923 3.71325582 6.0085944 3.38133299 8 3 C8.19294408 7.82360189 7.75747614 11.49646738 6 16 C8.49552484 15.21869929 8.49552484 15.21869929 11 14 C11.33 13.01 11.66 12.02 12 11 C12.66 11 13.32 11 14 11 C13.6875 13.375 13.6875 13.375 13 16 C9.77786243 18.14809171 8.72224599 18.29386153 5 18 C4 17 4 17 3.8125 14.3125 C4.00714636 10.87374757 4.77905847 8.20497153 6 5 C4.8553125 5.7425 4.8553125 5.7425 3.6875 6.5 C1 8 1 8 -2 8 C-2.125 5.125 -2.125 5.125 -2 2 C-1.34 1.34 -0.68 0.68 0 0 Z " fill="#AABFBC" transform="translate(372,231)"/>
<path d="M0 0 C0.33 0 0.66 0 1 0 C1 1.98 1 3.96 1 6 C0.505 4.515 0.505 4.515 0 3 C-0.43828125 3.33773438 -0.8765625 3.67546875 -1.328125 4.0234375 C-6.57567646 7.71378873 -11.22405066 8.8478161 -17.55859375 9.640625 C-19.9423665 9.74350254 -19.9423665 9.74350254 -21 11 C-22.85287502 11.07226502 -24.70833878 11.0838122 -26.5625 11.0625 C-27.57441406 11.05347656 -28.58632813 11.04445313 -29.62890625 11.03515625 C-30.41136719 11.02355469 -31.19382812 11.01195312 -32 11 C-32 10.67 -32 10.34 -32 10 C-29.36 10 -26.72 10 -24 10 C-24 9.34 -24 8.68 -24 8 C-21.36 8 -18.72 8 -16 8 C-16 7.34 -16 6.68 -16 6 C-10.75117306 2.82307843 -5.98511371 2.34302035 0 2 C0 1.34 0 0.68 0 0 Z " fill="#DC9282" transform="translate(384,352)"/>
<path d="M0 0 C4.74479407 7.11719111 4.18768506 14.74185731 4 23 C-0.29 23.66 -4.58 24.32 -9 25 C-9 24.34 -9 23.68 -9 23 C-5.7 22.67 -2.4 22.34 1 22 C0.67 14.74 0.34 7.48 0 0 Z " fill="#C3958B" transform="translate(164,307)"/>
<path d="M0 0 C6.38318886 9.57478329 4.19789989 24.97257808 4 36 C-0.10814851 28.13377078 0.86591219 18.67101154 1 10 C0.67 10 0.34 10 0 10 C0 6.7 0 3.4 0 0 Z " fill="#F1E9E1" transform="translate(347,394)"/>
<path d="M0 0 C3.60239038 3.13756581 3.9957244 3.97862202 5 9 C1.04 9 -2.92 9 -7 9 C-6.01 7.35 -5.02 5.7 -4 4 C-3.34 4 -2.68 4 -2 4 C-1.34 2.68 -0.68 1.36 0 0 Z " fill="#EBCCC4" transform="translate(199,160)"/>
<path d="M0 0 C2 2 2 2 3.4375 4.4375 C5.30009576 7.63057305 5.30009576 7.63057305 8 10 C10.89466505 10.24536011 13.55201509 10.32752772 16.4375 10.25 C17.20126953 10.24484375 17.96503906 10.2396875 18.75195312 10.234375 C22.34869228 10.18428986 25.51891516 9.96947751 29 9 C29 9.66 29 10.32 29 11 C18.72047843 13.93700616 11.20825325 12.85831091 1 10 C0.67 6.7 0.34 3.4 0 0 Z " fill="#8FA097" transform="translate(247,258)"/>
<path d="M0 0 C0.66 0.33 1.32 0.66 2 1 C1.05016642 2.50539661 0.08988109 4.00420347 -0.875 5.5 C-1.40867188 6.3353125 -1.94234375 7.170625 -2.4921875 8.03125 C-2.98976562 8.6809375 -3.48734375 9.330625 -4 10 C-4.66 10 -5.32 10 -6 10 C-6.2475 10.9075 -6.495 11.815 -6.75 12.75 C-8.04806201 16.12496123 -9.21971841 17.74102121 -12 20 C-12.66 20 -13.32 20 -14 20 C-14 20.99 -14 21.98 -14 23 C-14.66 23 -15.32 23 -16 23 C-16 23.99 -16 24.98 -16 26 C-16.99 26.33 -17.98 26.66 -19 27 C-17.44759763 22.03231242 -14.48945219 17.82132943 -11 14 C-10.34 14 -9.68 14 -9 14 C-8.690625 13.21625 -8.38125 12.4325 -8.0625 11.625 C-7 9 -7 9 -6 7 C-5.34 7 -4.68 7 -4 7 C-3.71125 6.401875 -3.4225 5.80375 -3.125 5.1875 C-2 3 -2 3 0 0 Z " fill="#EEE2D8" transform="translate(200,224)"/>
<path d="M0 0 C0.90105469 0.00902344 1.80210937 0.01804687 2.73046875 0.02734375 C3.41753906 0.03894531 4.10460937 0.05054688 4.8125 0.0625 C4.8125 0.3925 4.8125 0.7225 4.8125 1.0625 C-8.00816614 3.9018877 -20.04756276 5.68247083 -33.1875 5.0625 C-33.1875 4.7325 -33.1875 4.4025 -33.1875 4.0625 C-29.2275 4.0625 -25.2675 4.0625 -21.1875 4.0625 C-21.1875 3.4025 -21.1875 2.7425 -21.1875 2.0625 C-20.28386719 2.00191406 -19.38023437 1.94132812 -18.44921875 1.87890625 C-16.67998047 1.75322266 -16.67998047 1.75322266 -14.875 1.625 C-13.70324219 1.54378906 -12.53148437 1.46257812 -11.32421875 1.37890625 C-7.35466134 0.97849012 -4.04281908 -0.05250414 0 0 Z " fill="#9DB4B0" transform="translate(309.1875,457.9375)"/>
<path d="M0 0 C0.33 0.66 0.66 1.32 1 2 C-0.65 3.98 -2.3 5.96 -4 8 C-3.34 8.33 -2.68 8.66 -2 9 C-2 9.66 -2 10.32 -2 11 C-4.12438339 11.08078641 -6.2496323 11.13909141 -8.375 11.1875 C-10.15003906 11.23970703 -10.15003906 11.23970703 -11.9609375 11.29296875 C-13.46527344 11.14794922 -13.46527344 11.14794922 -15 11 C-15.66 10.01 -16.32 9.02 -17 8 C-15.91332031 7.76216797 -15.91332031 7.76216797 -14.8046875 7.51953125 C-8.58631093 6.0188297 -4.54097559 4.54097559 0 0 Z " fill="#84979C" transform="translate(218,146)"/>
<path d="M0 0 C0.66 0.33 1.32 0.66 2 1 C0.375 3 0.375 3 -2 5 C-5.1484375 5.125 -5.1484375 5.125 -8 5 C-8.02692484 7.29160319 -8.04636124 9.58329546 -8.0625 11.875 C-8.07410156 13.15117187 -8.08570313 14.42734375 -8.09765625 15.7421875 C-8.23176569 18.88664652 -8.23176569 18.88664652 -7 21 C-6.93049459 22.54023996 -6.91547643 24.08334988 -6.9375 25.625 C-6.94652344 26.44226563 -6.95554687 27.25953125 -6.96484375 28.1015625 C-6.97644531 28.72804687 -6.98804688 29.35453125 -7 30 C-7.33 30 -7.66 30 -8 30 C-11.76595745 12.85106383 -11.76595745 12.85106383 -10 4 C-9.36191406 3.79503906 -8.72382813 3.59007812 -8.06640625 3.37890625 C-7.24011719 3.10949219 -6.41382813 2.84007812 -5.5625 2.5625 C-4.73878906 2.29566406 -3.91507812 2.02882812 -3.06640625 1.75390625 C-1.03780412 1.17844506 -1.03780412 1.17844506 0 0 Z " fill="#F2E8E0" transform="translate(296,194)"/>
<path d="M0 0 C0.33 0.99 0.66 1.98 1 3 C1.99 3 2.98 3 4 3 C4.33 2.34 4.66 1.68 5 1 C6 2 6 2 6.09765625 4.06640625 C6.08605469 4.89011719 6.07445312 5.71382812 6.0625 6.5625 C6.05347656 7.38878906 6.04445312 8.21507812 6.03515625 9.06640625 C6.01775391 10.02353516 6.01775391 10.02353516 6 11 C4.68 11 3.36 11 2 11 C-0.09987081 8.37516149 -0.94484803 6.60667167 -1.25 3.25 C-1 1 -1 1 0 0 Z " fill="#ECF9F3" transform="translate(124,165)"/>
<path d="M0 0 C0.33 0.99 0.66 1.98 1 3 C-1.49866228 6.84409582 -4.1082311 8.72189138 -8 11 C-9.68873879 12.64429829 -11.35305515 14.31384218 -13 16 C-15.30193531 18.03762123 -17.64451948 20.02465466 -20 22 C-20.66 21.67 -21.32 21.34 -22 21 C-20.68 20.34 -19.36 19.68 -18 19 C-18 18.34 -18 17.68 -18 17 C-16.53125 15.51953125 -16.53125 15.51953125 -14.5 13.8125 C-13.77554688 13.19503906 -13.05109375 12.57757813 -12.3046875 11.94140625 C-11.54414063 11.30074219 -10.78359375 10.66007813 -10 10 C-8.53789745 8.75441089 -7.07937752 7.50460039 -5.625 6.25 C-4.97789062 5.69828125 -4.33078125 5.1465625 -3.6640625 4.578125 C-1.77599482 2.90452414 -1.77599482 2.90452414 0 0 Z " fill="#EBDBD4" transform="translate(175,216)"/>
<path d="M0 0 C0.66 0 1.32 0 2 0 C1.835 0.804375 1.67 1.60875 1.5 2.4375 C0.54170453 9.26535524 -0.02856809 15.03175097 4 21 C4.99 21.33 5.98 21.66 7 22 C7.66 20.68 8.32 19.36 9 18 C9.125 20.375 9.125 20.375 9 23 C8.34 23.66 7.68 24.32 7 25 C4.2224176 24.82080114 3.21734504 24.23344468 1.3125 22.1875 C-1.17223581 18.04627364 -1.13585995 14.21044593 -1.125 9.4375 C-1.12757812 8.30183594 -1.13015625 7.16617188 -1.1328125 5.99609375 C-1 3 -1 3 0 0 Z " fill="#8CA49F" transform="translate(122,154)"/>
<path d="M0 0 C1.32 0.33 2.64 0.66 4 1 C3.95117188 3.9296875 3.95117188 3.9296875 3.90234375 6.859375 C3.92271712 8.97800129 3.92271712 8.97800129 4.5 10.875 C5.16472654 13.70008781 5.09400007 16.35199371 5.0625 19.25 C5.05347656 20.32765625 5.04445313 21.4053125 5.03515625 22.515625 C5.02355469 23.33546875 5.01195312 24.1553125 5 25 C4.67 25 4.34 25 4 25 C4 21.7 4 18.4 4 15 C3.34 15 2.68 15 2 15 C1.66223316 13.2508503 1.32996329 11.50063855 1 9.75 C0.814375 8.77546875 0.62875 7.8009375 0.4375 6.796875 C0 4 0 4 0 0 Z " fill="#9BA39A" transform="translate(339,364)"/>
<path d="M0 0 C0.33 0 0.66 0 1 0 C1.14522934 3.91627663 1.23404757 7.83186153 1.3125 11.75 C1.35439453 12.86117188 1.39628906 13.97234375 1.43945312 15.1171875 C1.56343 23.34925213 1.56343 23.34925213 -1.39453125 26.765625 C-4 28 -4 28 -6 28 C-5.75 26.25 -5.75 26.25 -5 24 C-4.34 23.505 -3.68 23.01 -3 22.5 C0.11209733 18.60987834 -0.32465007 14.59546844 -0.25 9.75 C-0.22035156 8.81414062 -0.19070313 7.87828125 -0.16015625 6.9140625 C-0.08960196 4.60928908 -0.03683748 2.30551832 0 0 Z " fill="#ECCCC0" transform="translate(390,400)"/>
<path d="M0 0 C5.28 0.66 10.56 1.32 16 2 C16 2.33 16 2.66 16 3 C12.04 2.67 8.08 2.34 4 2 C4 2.66 4 3.32 4 4 C3.34 4 2.68 4 2 4 C1.79375 4.721875 1.5875 5.44375 1.375 6.1875 C-0.45248163 9.9255306 -2.70438806 11.49246917 -6 14 C-6 13.01 -6 12.02 -6 11 C-5.34 11 -4.68 11 -4 11 C-3.71125 10.38125 -3.4225 9.7625 -3.125 9.125 C-2 7 -2 7 0 5 C0 3.35 0 1.7 0 0 Z " fill="#C8B8AF" transform="translate(294,244)"/>
<path d="M0 0 C1.23925303 3.48738512 0.7983396 5.24703368 -0.75 8.5625 C-1.09546875 9.32691406 -1.4409375 10.09132812 -1.796875 10.87890625 C-3.77392704 14.36442332 -6.61110871 16.88194295 -10 19 C-10.99 18.67 -11.98 18.34 -13 18 C-12.34 18 -11.68 18 -11 18 C-10.67 17.01 -10.34 16.02 -10 15 C-9.34 15 -8.68 15 -8 15 C-8 14.34 -8 13.68 -8 13 C-7.34 13 -6.68 13 -6 13 C-4.53347983 10.11980724 -3.17952126 7.20691485 -1.875 4.25 C-1.34519531 3.05117187 -1.34519531 3.05117187 -0.8046875 1.828125 C-0.53914063 1.22484375 -0.27359375 0.6215625 0 0 Z " fill="#E59683" transform="translate(283,209)"/>
<path d="M0 0 C3.92888829 0.26787875 5.54876221 0.52437097 8.3125 3.4375 C10.69578599 7.05656392 11.11766292 8.82229217 11.0625 13.125 C11.05347656 14.03507813 11.04445313 14.94515625 11.03515625 15.8828125 C11.02355469 16.58148438 11.01195312 17.28015625 11 18 C10.34 18.33 9.68 18.66 9 19 C8.96261719 18.15695313 8.92523438 17.31390625 8.88671875 16.4453125 C8.82097656 15.34960938 8.75523437 14.25390625 8.6875 13.125 C8.60048828 11.48917969 8.60048828 11.48917969 8.51171875 9.8203125 C8.25841797 8.42425781 8.25841797 8.42425781 8 7 C7.01 6.34 6.02 5.68 5 5 C5 4.01 5 3.02 5 2 C3.02 2 1.04 2 -1 2 C-0.67 1.34 -0.34 0.68 0 0 Z " fill="#E6BDB1" transform="translate(291,168)"/>
<path d="M0 0 C0.99 0 1.98 0 3 0 C3.20367187 0.59296875 3.40734375 1.1859375 3.6171875 1.796875 C5.55744992 4.88814055 7.84891424 5.71651305 11.125 7.25 C12.22070312 7.77078125 13.31640625 8.2915625 14.4453125 8.828125 C15.28835937 9.21484375 16.13140625 9.6015625 17 10 C17 10.66 17 11.32 17 12 C10.52735578 11.51455168 5.34114644 8.56062892 1 3.8125 C0 2 0 2 0 0 Z " fill="#E6BBAC" transform="translate(97,321)"/>
<path d="M0 0 C2.33294775 -0.04241723 4.66702567 -0.04092937 7 0 C8 1 8 1 8.3125 3.375 C8 6 8 6 6.0625 7.625 C5.381875 8.07875 4.70125 8.5325 4 9 C3.67 9.99 3.34 10.98 3 12 C2.34 12 1.68 12 1 12 C1.3125 9.625 1.3125 9.625 2 7 C2.99 6.34 3.98 5.68 5 5 C5.33 4.01 5.66 3.02 6 2 C4.02 2.33 2.04 2.66 0 3 C0 2.01 0 1.02 0 0 Z " fill="#B1C1C0" transform="translate(276,75)"/>
<path d="M0 0 C0.99 0.495 0.99 0.495 2 1 C2 1.66 2 2.32 2 3 C2.928125 3.28875 3.85625 3.5775 4.8125 3.875 C8 5 8 5 11 7 C12.65549531 7.38499891 14.3222433 7.72793135 16 8 C16 11.3 16 14.6 16 18 C15.67 18 15.34 18 15 18 C14.67 15.03 14.34 12.06 14 9 C12.989375 8.938125 11.97875 8.87625 10.9375 8.8125 C6.58555035 8.19967444 3.03107252 6.18769329 0 3 C0 2.01 0 1.02 0 0 Z " fill="#F2EADF" transform="translate(230,228)"/>
<path d="M0 0 C1.67542976 0.28604898 3.34385343 0.61781233 5 1 C5.625 2.875 5.625 2.875 6 5 C5.34 5.66 4.68 6.32 4 7 C1.375 6.625 1.375 6.625 -1 6 C-1.042721 4.33388095 -1.04063832 2.66617115 -1 1 C-0.67 0.67 -0.34 0.34 0 0 Z " fill="#A3BAB6" transform="translate(319,226)"/>
<path d="M0 0 C0.83265381 0.00523682 1.66530762 0.01047363 2.52319336 0.01586914 C3.42231445 0.0190918 4.32143555 0.02231445 5.24780273 0.02563477 C6.66609375 0.03820312 6.66609375 0.03820312 8.11303711 0.05102539 C9.06243164 0.05553711 10.01182617 0.06004883 10.98999023 0.06469727 C13.34356776 0.07652429 15.69702188 0.09300514 18.05053711 0.11352539 C18.05053711 0.44352539 18.05053711 0.77352539 18.05053711 1.11352539 C17.09791992 1.17411133 16.14530273 1.23469727 15.16381836 1.29711914 C13.90956055 1.3809082 12.65530273 1.46469727 11.36303711 1.55102539 C10.12166992 1.63223633 8.88030273 1.71344727 7.60131836 1.79711914 C4.65370849 2.05977745 1.8983496 2.31571521 -0.94946289 3.11352539 C-1.27946289 3.77352539 -1.60946289 4.43352539 -1.94946289 5.11352539 C-2.60946289 5.11352539 -3.26946289 5.11352539 -3.94946289 5.11352539 C-3.94946289 5.77352539 -3.94946289 6.43352539 -3.94946289 7.11352539 C-4.93946289 7.44352539 -5.92946289 7.77352539 -6.94946289 8.11352539 C-6.94946289 7.45352539 -6.94946289 6.79352539 -6.94946289 6.11352539 C-6.28946289 6.11352539 -5.62946289 6.11352539 -4.94946289 6.11352539 C-4.64008789 5.30915039 -4.33071289 4.50477539 -4.01196289 3.67602539 C-2.54931265 0.14845715 -2.54931265 0.14845715 0 0 Z " fill="#ECBAAD" transform="translate(152.949462890625,238.886474609375)"/>
<path d="M0 0 C2.5 0.125 2.5 0.125 3.5 1.125 C3.54063832 2.79117115 3.542721 4.45888095 3.5 6.125 C1.52 6.125 -0.46 6.125 -2.5 6.125 C-2.88218767 4.46885343 -3.21395102 2.80042976 -3.5 1.125 C-2.5 0.125 -2.5 0.125 0 0 Z " fill="#B1C7C3" transform="translate(359.5,148.875)"/>
<path d="M0 0 C3.3 0 6.6 0 10 0 C10.33 0.99 10.66 1.98 11 3 C8.03 2.67 5.06 2.34 2 2 C2.33 4.64 2.66 7.28 3 10 C1.68 9.67 0.36 9.34 -1 9 C-0.34 9 0.32 9 1 9 C0.67 6.03 0.34 3.06 0 0 Z " fill="#A2B9B5" transform="translate(321,139)"/>
<path d="M0 0 C0.33 0 0.66 0 1 0 C1.68025637 1.99541868 2.34490497 3.99617991 3 6 C3.37125 7.11375 3.37125 7.11375 3.75 8.25 C3.8325 8.8275 3.915 9.405 4 10 C3.34 10.66 2.68 11.32 2 12 C0.68 12 -0.64 12 -2 12 C-2.26252625 7.66831683 -1.29243536 4.1196377 0 0 Z " fill="#DAECE9" transform="translate(380,235)"/>
<path d="M0 0 C2.97 0.33 5.94 0.66 9 1 C5 2 5 2 2 1 C2.268125 2.2375 2.53625 3.475 2.8125 4.75 C3.1015625 6.953125 3.1015625 6.953125 3 9 C0.6875 11.5 0.6875 11.5 -2 13 C-2.66 13 -3.32 13 -4 13 C-4 12.34 -4 11.68 -4 11 C-2.35 10.34 -0.7 9.68 1 9 C0.67 6.03 0.34 3.06 0 0 Z " fill="#C7D6D3" transform="translate(314,148)"/>
<path d="M0 0 C0.99 0 1.98 0 3 0 C3 2.31 3 4.62 3 7 C0.125 7.1875 0.125 7.1875 -3 7 C-3.66 6.01 -4.32 5.02 -5 4 C-4.34 4 -3.68 4 -3 4 C-2.525625 3.34 -2.05125 2.68 -1.5625 2 C-1.046875 1.34 -0.53125 0.68 0 0 Z " fill="#4D6D70" transform="translate(164,334)"/>
<path d="M0 0 C0.33 0 0.66 0 1 0 C1 1.98 1 3.96 1 6 C0.67 5.01 0.34 4.02 0 3 C-0.99 3.66 -1.98 4.32 -3 5 C-5.12109375 5.66796875 -5.12109375 5.66796875 -7.4375 6.1875 C-8.19933594 6.36667969 -8.96117187 6.54585938 -9.74609375 6.73046875 C-12.12958496 7.0154963 -13.73104204 6.72875415 -16 6 C-10.75117306 2.82307843 -5.98511371 2.34302035 0 2 C0 1.34 0 0.68 0 0 Z " fill="#BC9D92" transform="translate(384,352)"/>
<path d="M0 0 C7.75 -0.125 7.75 -0.125 10 1 C10 1.66 10 2.32 10 3 C11.98 3 13.96 3 16 3 C16 3.66 16 4.32 16 5 C16.99 5.33 17.98 5.66 19 6 C12.3227105 5.39297368 6.29872004 3.22368606 0 1 C0 0.67 0 0.34 0 0 Z " fill="#A7BBB9" transform="translate(207,450)"/>
<path d="M0 0 C0.28875 0.598125 0.5775 1.19625 0.875 1.8125 C2.04742026 4.19327792 2.04742026 4.19327792 4 7 C4.44111565 8.88154883 4.8109267 10.78062638 5.125 12.6875 C5.29257813 13.68136719 5.46015625 14.67523438 5.6328125 15.69921875 C5.75398437 16.45847656 5.87515625 17.21773438 6 18 C5.34 18 4.68 18 4 18 C3.13475247 15.56592995 2.28257135 13.12856816 1.4375 10.6875 C1.0672168 9.65206055 1.0672168 9.65206055 0.68945312 8.59570312 C-1.11328125 3.33984375 -1.11328125 3.33984375 0 0 Z " fill="#B8988D" transform="translate(158,286)"/>
<path d="M0 0 C0.33 0.99 0.66 1.98 1 3 C-2.3 6.3 -5.6 9.6 -9 13 C-9.99 12.67 -10.98 12.34 -12 12 C-8 8 -4 4 0 0 Z " fill="#E9BAAD" transform="translate(131,258)"/>
<path d="M0 0 C0.33 0.99 0.66 1.98 1 3 C1.33 3.33 1.66 3.66 2 4 C4.00720923 3.71325582 6.0085944 3.38133299 8 3 C7.67 4.32 7.34 5.64 7 7 C7 6.34 7 5.68 7 5 C6.071875 5.495 5.14375 5.99 4.1875 6.5 C1 8 1 8 -2 8 C-2.125 5.125 -2.125 5.125 -2 2 C-1.34 1.34 -0.68 0.68 0 0 Z " fill="#94ADA9" transform="translate(372,231)"/>
<path d="M0 0 C0 0.66 0 1.32 0 2 C-2.24403702 2.89401475 -4.49290133 3.76515289 -6.75 4.625 C-7.38421875 4.88023437 -8.0184375 5.13546875 -8.671875 5.3984375 C-13.45095438 7.19059227 -13.45095438 7.19059227 -16.453125 6.1484375 C-16.96359375 5.76945313 -17.4740625 5.39046875 -18 5 C-17.08476562 4.72285156 -16.16953125 4.44570312 -15.2265625 4.16015625 C-14.03804687 3.79792969 -12.84953125 3.43570313 -11.625 3.0625 C-10.44164062 2.70285156 -9.25828125 2.34320313 -8.0390625 1.97265625 C-1.87550201 0 -1.87550201 0 0 0 Z " fill="#959D9B" transform="translate(252,148)"/>
<path d="M0 0 C1.67542976 0.28604898 3.34385343 0.61781233 5 1 C7 7.75 7 7.75 7 10 C6.01 9.67 5.02 9.34 4 9 C3.67 7.02 3.34 5.04 3 3 C-0.0745356 3.7763932 -0.0745356 3.7763932 -2 6 C-1.125 1.125 -1.125 1.125 0 0 Z " fill="#B2C1BE" transform="translate(158,130)"/>
<path d="M0 0 C2.97 0.495 2.97 0.495 6 1 C3.20145256 4.29240875 -0.20673275 6.03562946 -4 8 C-4.99 8 -5.98 8 -7 8 C-6.34 6.68 -5.68 5.36 -5 4 C-3.68 4 -2.36 4 -1 4 C-0.67 2.68 -0.34 1.36 0 0 Z " fill="#EDC6B7" transform="translate(378,427)"/>
<path d="M0 0 C-3.51187196 2.40814077 -5.72656908 3.36629408 -10 3 C-10.33 5.97 -10.66 8.94 -11 12 C-11.33 12 -11.66 12 -12 12 C-12.32258065 3.61290323 -12.32258065 3.61290323 -10 1 C-3.25714286 -1.62857143 -3.25714286 -1.62857143 0 0 Z " fill="#E7BCB0" transform="translate(296,195)"/>
<path d="M0 0 C0.99 0.33 1.98 0.66 3 1 C3.33 4.96 3.66 8.92 4 13 C4.99 12.67 5.98 12.34 7 12 C7 13.32 7 14.64 7 16 C6.01 16 5.02 16 4 16 C3.32815382 13.89748139 2.66269032 11.79292237 2 9.6875 C1.443125 7.92986328 1.443125 7.92986328 0.875 6.13671875 C0 3 0 3 0 0 Z " fill="#565E5C" transform="translate(277,165)"/>
<path d="M0 0 C2.64 0 5.28 0 8 0 C8.33 0.99 8.66 1.98 9 3 C6.525 4.485 6.525 4.485 4 6 C2.62437146 4.71034824 1.29233607 3.37310707 0 2 C0 1.34 0 0.68 0 0 Z " fill="#90A0A3" transform="translate(196,155)"/>
<path d="M0 0 C1.23556641 0.01740234 1.23556641 0.01740234 2.49609375 0.03515625 C3.32238281 0.04417969 4.14867187 0.05320312 5 0.0625 C5.63808594 0.07410156 6.27617187 0.08570313 6.93359375 0.09765625 C6.93359375 0.42765625 6.93359375 0.75765625 6.93359375 1.09765625 C4.29359375 1.09765625 1.65359375 1.09765625 -1.06640625 1.09765625 C-1.06640625 1.75765625 -1.06640625 2.41765625 -1.06640625 3.09765625 C-3.70640625 3.09765625 -6.34640625 3.09765625 -9.06640625 3.09765625 C-9.06640625 3.75765625 -9.06640625 4.41765625 -9.06640625 5.09765625 C-11.70640625 5.09765625 -14.34640625 5.09765625 -17.06640625 5.09765625 C-17.06640625 4.76765625 -17.06640625 4.43765625 -17.06640625 4.09765625 C-13.62170278 2.80589245 -10.39719641 1.94215443 -6.75390625 1.53515625 C-3.51897027 1.15135029 -2.82153124 0.13334269 0 0 Z " fill="#9A9C99" transform="translate(361.06640625,358.90234375)"/>
<path d="M0 0 C0.33 0.99 0.66 1.98 1 3 C0.071875 3.3403125 0.071875 3.3403125 -0.875 3.6875 C-3.64128237 5.39608617 -3.90241056 6.99992221 -5 10 C-6.625 11.8125 -6.625 11.8125 -8 13 C-8.99 12.67 -9.98 12.34 -11 12 C-9.73034469 10.56145942 -8.45922782 9.12420873 -7.1875 7.6875 C-6.47980469 6.88699219 -5.77210938 6.08648437 -5.04296875 5.26171875 C-3.40662878 3.45016838 -1.74727832 1.70318297 0 0 Z " fill="#92A39C" transform="translate(298,247)"/>
<path d="M0 0 C1.65 0.33 3.3 0.66 5 1 C4.67 2.65 4.34 4.3 4 6 C2.35 5.67 0.7 5.34 -1 5 C-0.67 3.35 -0.34 1.7 0 0 Z " fill="#D5E1DF" transform="translate(149,211)"/>
<path d="M0 0 C0.66 0.33 1.32 0.66 2 1 C0.25 4.875 0.25 4.875 -2 6 C-2.68729254 8.11846285 -2.68729254 8.11846285 -3.125 10.5625 C-3.29257812 11.38878906 -3.46015625 12.21507812 -3.6328125 13.06640625 C-3.75398438 13.70449219 -3.87515625 14.34257812 -4 15 C-4.99 14.34 -5.98 13.68 -7 13 C-6.34 13 -5.68 13 -5 13 C-5.1546875 11.453125 -5.1546875 11.453125 -5.3125 9.875 C-4.90667442 4.84276284 -3.45029552 3.53655291 0 0 Z " fill="#D0A89C" transform="translate(289,168)"/>
<path d="M0 0 C-0.25 1.875 -0.25 1.875 -1 4 C-4.67108158 6.36843973 -7.74435931 6 -12 6 C-8.59780735 3.25207517 -4.51535412 0 0 0 Z " fill="#EEE6DC" transform="translate(214,218)"/>
<path d="M0 0 C-3.40219265 2.74792483 -7.48464588 6 -12 6 C-12 5.01 -12 4.02 -12 3 C-7.77050005 0.58314288 -4.87664009 -0.34833144 0 0 Z " fill="#F0C6B8" transform="translate(370,436)"/>
<path d="M0 0 C0.99 0.33 1.98 0.66 3 1 C-0.30015998 5.13937592 -3.17324411 8.58662205 -8 11 C-8 8 -8 8 -6.625 6.3125 C-5 5 -5 5 -3 5 C-2.690625 4.360625 -2.38125 3.72125 -2.0625 3.0625 C-1 1 -1 1 0 0 Z " fill="#F1E6DB" transform="translate(130,256)"/>
<path d="M0 0 C-1.29089743 1.4590143 -2.58274439 2.91718851 -3.875 4.375 C-4.59429687 5.18710937 -5.31359375 5.99921875 -6.0546875 6.8359375 C-7.33295938 8.25795079 -8.64794586 9.64794586 -10 11 C-9.14947669 6.57727881 -7.72831055 2.20458008 -3.9375 -0.4375 C-2 -1 -2 -1 0 0 Z " fill="#EEECE1" transform="translate(112,279)"/>
<path d="M0 0 C1.24205807 2.48411615 1.14092354 4.25199104 1 7 C0 8 0 8 -3.0625 8.0625 C-4.031875 8.041875 -5.00125 8.02125 -6 8 C-4.625 5.5 -4.625 5.5 -3 3 C-2.34 3 -1.68 3 -1 3 C-0.67 2.01 -0.34 1.02 0 0 Z " fill="#ECD7CB" transform="translate(198,161)"/>
<path d="M0 0 C5.28 0 10.56 0 16 0 C16 0.33 16 0.66 16 1 C14.77023438 1.02126953 14.77023438 1.02126953 13.515625 1.04296875 C6.75112142 1.12366142 6.75112142 1.12366142 1.25 4.5625 C0.8375 5.366875 0.425 6.17125 0 7 C0 4.69 0 2.38 0 0 Z " fill="#D9C9C2" transform="translate(206,158)"/>
<path d="M0 0 C0.99 0.495 0.99 0.495 2 1 C2.6328125 3.06640625 2.6328125 3.06640625 3.125 5.5625 C3.29257812 6.38878906 3.46015625 7.21507812 3.6328125 8.06640625 C3.75398438 8.70449219 3.87515625 9.34257812 4 10 C2.68 10.33 1.36 10.66 0 11 C0 7.37 0 3.74 0 0 Z " fill="#D2A899" transform="translate(276,167)"/>
<path d="M0 0 C0.66386719 0.20496094 1.32773438 0.40992188 2.01171875 0.62109375 C2.89472656 0.89050781 3.77773437 1.15992188 4.6875 1.4375 C5.55761719 1.70433594 6.42773438 1.97117187 7.32421875 2.24609375 C9.87025921 2.96344529 12.4003423 3.517541 15 4 C15 4.33 15 4.66 15 5 C10.1666528 5.08333357 5.76307437 4.95261487 1 4 C0.67 2.68 0.34 1.36 0 0 Z " fill="#F2E8E1" transform="translate(105,330)"/>
<path d="M0 0 C0.99 0.33 1.98 0.66 3 1 C2.0479279 2.00596297 1.08812654 3.00461563 0.125 4 C-0.40867188 4.556875 -0.94234375 5.11375 -1.4921875 5.6875 C-3 7 -3 7 -5 7 C-5.33 7.66 -5.66 8.32 -6 9 C-6 7.35 -6 5.7 -6 4 C-5.38125 3.71125 -4.7625 3.4225 -4.125 3.125 C-1.86674235 2.06279958 -1.86674235 2.06279958 0 0 Z " fill="#F6EDE7" transform="translate(152,235)"/>
<path d="M0 0 C1.4540625 0.0309375 1.4540625 0.0309375 2.9375 0.0625 C1.23124499 2.84638975 0.46123261 3.91634206 -2.75 4.8125 C-3.8946875 4.93625 -3.8946875 4.93625 -5.0625 5.0625 C-3.9375 0.08035714 -3.9375 0.08035714 0 0 Z " fill="#859B9F" transform="translate(253.0625,143.9375)"/>
<path d="M0 0 C2 1.8125 2 1.8125 4 4 C4 4.99 4 5.98 4 7 C1.36 7 -1.28 7 -4 7 C-3.34 6.401875 -2.68 5.80375 -2 5.1875 C0.3373846 3.12498166 0.3373846 3.12498166 0 0 Z " fill="#D7EDEA" transform="translate(327,132)"/>
<path d="M0 0 C0.90105469 0.00902344 1.80210937 0.01804687 2.73046875 0.02734375 C3.41753906 0.03894531 4.10460937 0.05054688 4.8125 0.0625 C4.8125 0.3925 4.8125 0.7225 4.8125 1.0625 C3.39711283 1.40122513 1.98012037 1.73324624 0.5625 2.0625 C-0.22640625 2.248125 -1.0153125 2.43375 -1.828125 2.625 C-4.1875 3.0625 -4.1875 3.0625 -8.1875 3.0625 C-8.1875 2.4025 -8.1875 1.7425 -8.1875 1.0625 C-5.17259443 0.05753148 -3.14568308 -0.04085303 0 0 Z " fill="#AAC0BE" transform="translate(309.1875,457.9375)"/>
<path d="M0 0 C1.98 0.66 3.96 1.32 6 2 C3.08235 3.9451 1.37462715 4.45276317 -2 5 C-1.34 3.35 -0.68 1.7 0 0 Z " fill="#739797" transform="translate(184,332)"/>
<path d="M0 0 C0.99 0.33 1.98 0.66 3 1 C2.34 1 1.68 1 1 1 C0.34 4.63 -0.32 8.26 -1 12 C-3 8 -3 8 -2.1875 4.3125 C-1 1 -1 1 0 0 Z " fill="#A0C0B6" transform="translate(133,164)"/>
<path d="M0 0 C1.98 0 3.96 0 6 0 C6.33 0.99 6.66 1.98 7 3 C4.36 3 1.72 3 -1 3 C-0.67 2.01 -0.34 1.02 0 0 Z " fill="#D0D8DA" transform="translate(175,102)"/>
<path d="M0 0 C0.33 0 0.66 0 1 0 C1.33 4.29 1.66 8.58 2 13 C0.68 13.33 -0.64 13.66 -2 14 C-1.67 13.01 -1.34 12.02 -1 11 C-0.77820215 9.10787263 -0.59385985 7.21115528 -0.4375 5.3125 C-0.35371094 4.31863281 -0.26992188 3.32476562 -0.18359375 2.30078125 C-0.12300781 1.54152344 -0.06242187 0.78226562 0 0 Z " fill="#EFEBE1" transform="translate(351,432)"/>
<path d="M0 0 C1.32 0 2.64 0 4 0 C3.67 0.99 3.34 1.98 3 3 C-0.63 3 -4.26 3 -8 3 C-8 2.67 -8 2.34 -8 2 C-5.36 2 -2.72 2 0 2 C0 1.34 0 0.68 0 0 Z " fill="#C7988A" transform="translate(360,360)"/>
<path d="M0 0 C2.475 0.495 2.475 0.495 5 1 C5.33 2.32 5.66 3.64 6 5 C5.01 5 4.02 5 3 5 C1.3125 2.5 1.3125 2.5 0 0 Z " fill="#556A6B" transform="translate(154,332)"/>
<path d="M0 0 C1.32 0 2.64 0 4 0 C4 1.65 4 3.3 4 5 C2.68 4.67 1.36 4.34 0 4 C0 2.68 0 1.36 0 0 Z " fill="#9DB5AF" transform="translate(220,88)"/>
<path d="M0 0 C0.66 0 1.32 0 2 0 C0.55746343 3.36591866 -1.33264727 5.51047079 -4 8 C-3.67 6.35 -3.34 4.7 -3 3 C-2.34 3 -1.68 3 -1 3 C-0.67 2.01 -0.34 1.02 0 0 Z " fill="#DCB5A6" transform="translate(160,280)"/>
<path d="M0 0 C2.47379368 2.47379368 2.96652922 4.6928935 4 8 C4.33 8.66 4.66 9.32 5 10 C3.68 10 2.36 10 1 10 C0.67 6.7 0.34 3.4 0 0 Z " fill="#8AA49F" transform="translate(247,258)"/>
<path d="M0 0 C0.66 0.33 1.32 0.66 2 1 C1.21718695 2.33855056 0.42348123 3.67073644 -0.375 5 C-0.81585938 5.7425 -1.25671875 6.485 -1.7109375 7.25 C-2.34902344 8.11625 -2.34902344 8.11625 -3 9 C-3.66 9 -4.32 9 -5 9 C-3.7508258 5.54074837 -2.32472205 2.85306797 0 0 Z " fill="#F4E7DF" transform="translate(200,224)"/>
<path d="M0 0 C0.33 0.66 0.66 1.32 1 2 C-1.25 4.5625 -1.25 4.5625 -4 7 C-6.3125 6.8125 -6.3125 6.8125 -8 6 C-7.05125 5.38125 -6.1025 4.7625 -5.125 4.125 C-2.05554891 2.18029031 -2.05554891 2.18029031 0 0 Z " fill="#728B90" transform="translate(218,146)"/>
<path d="M0 0 C2.97 0.495 2.97 0.495 6 1 C4.35 2.65 2.7 4.3 1 6 C0.67 4.02 0.34 2.04 0 0 Z " fill="#D8EFEB" transform="translate(323,141)"/>
<path d="M0 0 C0.33 0.66 0.66 1.32 1 2 C-1.36292656 4.52588702 -2.66462511 5.88820837 -6 7 C-6 6.34 -6 5.68 -6 5 C-4.04072937 3.2856382 -2.04119788 1.61594832 0 0 Z " fill="#EAC8BE" transform="translate(118,271)"/>
<path d="M0 0 C2 1.25 2 1.25 4 3 C4 4.32 4 5.64 4 7 C3.34 7 2.68 7 2 7 C2 6.34 2 5.68 2 5 C1.34 5 0.68 5 0 5 C0 3.35 0 1.7 0 0 Z " fill="#8AABAA" transform="translate(354,265)"/>
<path d="M0 0 C-0.33 1.32 -0.66 2.64 -1 4 C-1 3.34 -1 2.68 -1 2 C-2.98 2.66 -4.96 3.32 -7 4 C-6.67 3.01 -6.34 2.02 -6 1 C-4 0 -4 0 0 0 Z " fill="#9DB4B0" transform="translate(380,234)"/>
<path d="M0 0 C0.66 0 1.32 0 2 0 C2.33 1.32 2.66 2.64 3 4 C1.02 4.33 -0.96 4.66 -3 5 C-1.625 2.5 -1.625 2.5 0 0 Z " fill="#F2E6DB" transform="translate(217,212)"/>
</svg>
