<?xml version="1.0" encoding="UTF-8"?>
<svg version="1.1" xmlns="http://www.w3.org/2000/svg" width="500" height="500">
<path d="M0 0 C0.99 0.99 0.99 0.99 2 2 C2.66 1.01 3.32 0.02 4 -1 C5.859375 -0.81640625 5.859375 -0.81640625 8 0 C9.265625 2.28515625 9.265625 2.28515625 10.25 5.0625 C10.58515625 5.98160156 10.9203125 6.90070313 11.265625 7.84765625 C11.50796875 8.55792969 11.7503125 9.26820312 12 10 C12.75667969 9.81566406 13.51335937 9.63132812 14.29296875 9.44140625 C17.70094439 8.88570459 19.82975764 9.74664837 23 11 C23 12.32 23 13.64 23 15 C21.35 15.33 19.7 15.66 18 16 C18.50789062 16.32871094 19.01578125 16.65742187 19.5390625 16.99609375 C27.37332934 22.40966016 31.83642715 28.67696791 34 38 C34.2368445 40.65761557 34.38064507 43.15900426 34.375 45.8125 C34.37483887 46.53735596 34.37467773 47.26221191 34.37451172 48.0090332 C34.18102321 57.51950265 32.16231023 67.21455457 28.83203125 76.125 C27.85692881 79.49436806 28.09337672 81.85113093 28.5625 85.3125 C29.27116993 92.80903246 28.21772813 98.39137689 23.625 104.4375 C20.00436226 107.97193208 17.71409632 108.93531712 12.6875 109.125 C11.800625 109.08375 10.91375 109.0425 10 109 C9.82984375 109.70125 9.6596875 110.4025 9.484375 111.125 C7.54780139 118.70647968 5.75622283 125.52217627 -0.14453125 130.89453125 C-3.92564432 135.22848582 -3.48140476 139.33231569 -3.171875 144.85742188 C-3.07390625 146.03884766 -2.9759375 147.22027344 -2.875 148.4375 C-2.76285156 150.25024414 -2.76285156 150.25024414 -2.6484375 152.09960938 C-2.46061762 155.06951115 -2.24372537 158.03425048 -2 161 C-0.79988281 161.14695313 0.40023437 161.29390625 1.63671875 161.4453125 C22.16918734 164.13522828 46.8457692 168.51237612 62 184 C64.68025711 187.49430214 66.87791442 191.14539044 69 195 C69.51304687 195.928125 70.02609375 196.85625 70.5546875 197.8125 C79.31898148 214.52369267 84.4161439 233.05659097 90 251 C90.23251465 251.74435303 90.4650293 252.48870605 90.70458984 253.25561523 C91.91474559 257.27647254 92.17155715 260.7968499 92 265 C91.34 265.33 90.68 265.66 90 266 C90.08040527 266.6077124 90.16081055 267.2154248 90.24365234 267.84155273 C92.95201451 288.351311 92.95201451 288.351311 94.125 298.1875 C94.27195312 299.41855469 94.41890625 300.64960938 94.5703125 301.91796875 C95.60028629 311.37735869 96.15120471 320.74153639 96.1328125 330.2578125 C96.13376923 331.36808807 96.13472595 332.47836365 96.13571167 333.62228394 C96.13638648 335.94317685 96.13458147 338.26407174 96.13037109 340.58496094 C96.12496141 344.15043284 96.1303658 347.71578169 96.13671875 351.28125 C96.13605884 353.54427111 96.1347795 355.80729215 96.1328125 358.0703125 C96.13584885 359.67170578 96.13584885 359.67170578 96.13894653 361.30545044 C96.13421829 362.77871292 96.13421829 362.77871292 96.12939453 364.28173828 C96.12859894 365.14711212 96.12780334 366.01248596 96.12698364 366.90408325 C96 369 96 369 95 371 C83.78 371 72.56 371 61 371 C58.75102596 363.12859087 58.75102596 363.12859087 58.28564453 359.05297852 C58.17858185 358.14415421 58.07151917 357.2353299 57.96121216 356.29896545 C57.79865433 354.85353615 57.79865433 354.85353615 57.6328125 353.37890625 C57.38435766 351.28708049 57.13565148 349.19528457 56.88671875 347.10351562 C56.50574457 343.84621081 56.12798413 340.58859441 55.75537109 337.33032227 C54.2915547 324.61063028 52.5747968 312.3178783 49 300 C49.09062965 301.04997162 49.09062965 301.04997162 49.18309021 302.12115479 C49.75688445 308.76910027 50.33050722 315.41706053 50.90394497 322.06503677 C51.19864786 325.48151685 51.49341338 328.8979915 51.78833008 332.31445312 C52.128613 336.2564936 52.46860906 340.19855879 52.80859375 344.140625 C52.96490517 345.95074066 52.96490517 345.95074066 53.12437439 347.79742432 C53.32213678 350.09140836 53.51829245 352.38553166 53.71261597 354.67980957 C53.90932261 356.9523906 54.1161328 359.22411349 54.33157349 361.49499512 C54.43235199 362.58687134 54.53313049 363.67874756 54.63696289 364.80371094 C54.73062637 365.78080017 54.82428986 366.7578894 54.92079163 367.7645874 C54.94693039 368.50227356 54.97306915 369.23995972 55 370 C54 371 54 371 51.53434658 371.12304783 C50.42911679 371.12212604 49.323887 371.12120424 48.18516541 371.12025452 C46.92166763 371.12162918 45.65816986 371.12300385 44.35638428 371.12442017 C42.94323707 371.12088055 41.5300901 371.11724574 40.11694336 371.11352539 C38.63898216 371.11324353 37.16102081 371.11340124 35.68305969 371.1139679 C31.65844172 371.1142559 27.63385328 371.1083587 23.6092422 371.10139394 C19.40783635 371.09516088 15.2064299 371.09455664 11.00502014 371.09336853 C3.04353743 371.09025507 -4.91793162 371.08204149 -12.8794083 371.07201904 C-21.94092589 371.06085836 -31.00244412 371.05534757 -40.06396687 371.05032361 C-58.709319 371.03985888 -77.35465841 371.02225916 -96 371 C-96.02728299 368.17962051 -96.04697408 365.35951197 -96.0625 362.5390625 C-96.07087891 361.75281494 -96.07925781 360.96656738 -96.08789062 360.15649414 C-96.1187576 352.64424409 -95.22479749 345.41439908 -94 338 C-94.90226318 337.93087402 -94.90226318 337.93087402 -95.82275391 337.86035156 C-113.18847193 336.35145542 -133.0438324 332.37850407 -146 320 C-151.67887087 312.8650084 -153.39982149 304.86404859 -152.7890625 295.90625 C-151.12691132 282.23270441 -147.04419715 269.40124291 -141.0390625 257.05078125 C-139.74068904 254.06373497 -139.74068904 254.06373497 -140.5546875 251.11328125 C-141.19732417 246.62046172 -139.51051691 243.8308327 -137.5 239.875 C-137.13342285 239.12653809 -136.7668457 238.37807617 -136.38916016 237.60693359 C-133.69794144 232.18616633 -130.76834366 226.92949648 -127.63671875 221.75 C-126.05060693 219.08502931 -124.61556512 216.37712551 -123.1875 213.625 C-111.15091819 191.49424772 -94.56224525 174.60778518 -70.1953125 166.77734375 C-62.47408776 164.57466307 -55.02321414 163.29881617 -47 163 C-47.01160156 162.31292969 -47.02320313 161.62585938 -47.03515625 160.91796875 C-47.04417969 160.01691406 -47.05320312 159.11585938 -47.0625 158.1875 C-47.07410156 157.29417969 -47.08570313 156.40085938 -47.09765625 155.48046875 C-47 153 -47 153 -46 150 C-47.258125 149.67 -48.51625 149.34 -49.8125 149 C-62.32530079 144.73739753 -70.87448089 135.10369826 -76.75 123.5625 C-80.09708391 115.79726533 -82.09628877 108.0443662 -83.44458008 99.69702148 C-84.34045706 94.6142355 -85.93768974 91.0682924 -88.82104492 86.79370117 C-92.83802538 80.68213451 -94.02732421 73.25779014 -94.98730469 66.14013672 C-95.97557744 58.87648036 -96.65389324 53.97671204 -102.21875 48.77734375 C-107.10006484 43.90673355 -109.70662773 36.91681473 -110.140625 30.10546875 C-109.85525512 25.83284751 -108.11301751 22.66952627 -105.75 19.125 C-103.01603217 17.36744925 -100.18289979 17.30027357 -97 17 C-96.84144531 16.27554688 -96.68289062 15.55109375 -96.51953125 14.8046875 C-95.02299977 8.60359022 -93.76769769 4.33427062 -89 0 C-84.16828186 -2.68428786 -80.48976219 -3.5582809 -75 -3 C-73.42999906 -2.52407637 -71.86786625 -2.02176823 -70.3125 -1.5 C-58.39398197 2.28651859 -47.3855453 -0.97399891 -35.875 -4.625 C-23.34222219 -8.41676399 -10.35086976 -8.74950202 0 0 Z M3 3 C4 5 4 5 4 5 Z M-91 271 C-91.598125 271.94875 -92.19625 272.8975 -92.8125 273.875 C-95 277 -95 277 -96.96484375 277.8203125 C-99.97924019 279.567621 -100.50590252 281.80528056 -101.75 285 C-102.17796875 286.0725 -102.6059375 287.145 -103.046875 288.25 C-104.10915977 290.82987125 -104.10915977 290.82987125 -104 293 C-102.23244474 293.84026396 -100.46082737 294.67198722 -98.6875 295.5 C-97.20830078 296.19609375 -97.20830078 296.19609375 -95.69921875 296.90625 C-93.02199874 298.18777472 -93.02199874 298.18777472 -90 298 C-90 289.09 -90 280.18 -90 271 C-90.33 271 -90.66 271 -91 271 Z " fill="#649480" transform="translate(278,69)"/>
<path d="M0 0 C0.99 0.99 0.99 0.99 2 2 C2.66 1.01 3.32 0.02 4 -1 C5.859375 -0.81640625 5.859375 -0.81640625 8 0 C9.265625 2.28515625 9.265625 2.28515625 10.25 5.0625 C10.75273437 6.44115234 10.75273437 6.44115234 11.265625 7.84765625 C11.50796875 8.55792969 11.7503125 9.26820312 12 10 C12.75667969 9.81566406 13.51335937 9.63132812 14.29296875 9.44140625 C17.70094439 8.88570459 19.82975764 9.74664837 23 11 C23 12.32 23 13.64 23 15 C21.35 15.33 19.7 15.66 18 16 C18.50789062 16.32871094 19.01578125 16.65742187 19.5390625 16.99609375 C27.37332934 22.40966016 31.83642715 28.67696791 34 38 C34.2368445 40.65761557 34.38064507 43.15900426 34.375 45.8125 C34.37483887 46.53735596 34.37467773 47.26221191 34.37451172 48.0090332 C34.18102321 57.51950265 32.16231023 67.21455457 28.83203125 76.125 C27.85692881 79.49436806 28.09337672 81.85113093 28.5625 85.3125 C29.27116993 92.80903246 28.21772813 98.39137689 23.625 104.4375 C20.00436226 107.97193208 17.71409632 108.93531712 12.6875 109.125 C11.800625 109.08375 10.91375 109.0425 10 109 C9.82984375 109.70125 9.6596875 110.4025 9.484375 111.125 C7.54780139 118.70647968 5.75622283 125.52217627 -0.14453125 130.89453125 C-3.92564432 135.22848582 -3.48140476 139.33231569 -3.171875 144.85742188 C-3.07390625 146.03884766 -2.9759375 147.22027344 -2.875 148.4375 C-2.76285156 150.25024414 -2.76285156 150.25024414 -2.6484375 152.09960938 C-2.46061762 155.06951115 -2.24372537 158.03425048 -2 161 C0.31 161.33 2.62 161.66 5 162 C3.68 162.33 2.36 162.66 1 163 C0.9175 163.70125 0.835 164.4025 0.75 165.125 C-1.31423757 173.0379107 -8.12684371 179.04865183 -14.94140625 183.17578125 C-21.99298833 186.28201052 -30.59667744 186.16347117 -37.75 183.5 C-39.35875 182.7575 -39.35875 182.7575 -41 182 C-41 181.34 -41 180.68 -41 180 C-41.60457031 179.76925781 -42.20914063 179.53851563 -42.83203125 179.30078125 C-45.59601204 177.64239277 -46.31328101 176.07899548 -47.6875 173.1875 C-48.10386719 172.33542969 -48.52023438 171.48335937 -48.94921875 170.60546875 C-49.97444562 168.06336345 -50.55903005 165.69912377 -51 163 C-49.68 163 -48.36 163 -47 163 C-47.01160156 162.31292969 -47.02320313 161.62585938 -47.03515625 160.91796875 C-47.04417969 160.01691406 -47.05320313 159.11585938 -47.0625 158.1875 C-47.07410156 157.29417969 -47.08570313 156.40085938 -47.09765625 155.48046875 C-47 153 -47 153 -46 150 C-47.258125 149.67 -48.51625 149.34 -49.8125 149 C-62.32530079 144.73739753 -70.87448089 135.10369826 -76.75 123.5625 C-80.09708391 115.79726533 -82.09628877 108.0443662 -83.44458008 99.69702148 C-84.34045706 94.6142355 -85.93768974 91.0682924 -88.82104492 86.79370117 C-92.83802538 80.68213451 -94.02732421 73.25779014 -94.98730469 66.14013672 C-95.97557744 58.87648036 -96.65389324 53.97671204 -102.21875 48.77734375 C-107.10006484 43.90673355 -109.70662773 36.91681473 -110.140625 30.10546875 C-109.85525512 25.83284751 -108.11301751 22.66952627 -105.75 19.125 C-103.01603217 17.36744925 -100.18289979 17.30027357 -97 17 C-96.76216797 15.91332031 -96.76216797 15.91332031 -96.51953125 14.8046875 C-95.02299977 8.60359022 -93.76769769 4.33427062 -89 0 C-84.16828186 -2.68428786 -80.48976219 -3.5582809 -75 -3 C-73.42999906 -2.52407637 -71.86786625 -2.02176823 -70.3125 -1.5 C-58.39398197 2.28651859 -47.3855453 -0.97399891 -35.875 -4.625 C-23.34222219 -8.41676399 -10.35086976 -8.74950202 0 0 Z M3 3 C4 5 4 5 4 5 Z " fill="#F8AF88" transform="translate(278,69)"/>
<path d="M0 0 C0.99 0.99 0.99 0.99 2 2 C2.66 1.01 3.32 0.02 4 -1 C5.859375 -0.81640625 5.859375 -0.81640625 8 0 C9.265625 2.28515625 9.265625 2.28515625 10.25 5.0625 C10.75273437 6.44115234 10.75273437 6.44115234 11.265625 7.84765625 C11.50796875 8.55792969 11.7503125 9.26820312 12 10 C12.75667969 9.81566406 13.51335937 9.63132812 14.29296875 9.44140625 C17.70094439 8.88570459 19.82975764 9.74664837 23 11 C23 12.32 23 13.64 23 15 C21.35 15.33 19.7 15.66 18 16 C18.50789062 16.32871094 19.01578125 16.65742187 19.5390625 16.99609375 C27.37332934 22.40966016 31.83642715 28.67696791 34 38 C34.2368445 40.65761557 34.38064507 43.15900426 34.375 45.8125 C34.37483887 46.53735596 34.37467773 47.26221191 34.37451172 48.0090332 C34.15901578 58.6012258 31.48337933 69.03627985 28 79 C27.34 79 26.68 79 26 79 C25.67 79.66 25.34 80.32 25 81 C23.824375 80.0409375 23.824375 80.0409375 22.625 79.0625 C18.85179378 76.09783797 16.81488239 75.51851176 12 76 C7.40768931 79.01780417 6.42002242 83.96537504 5 89 C3.68 89 2.36 89 1 89 C-1.82107369 84.4568251 -1.38626583 79.6077886 -1.55859375 74.41015625 C-2.02720189 70.78984734 -3.01174853 69.00017486 -5 66 C-5.625 63.97265625 -5.625 63.97265625 -6 62.0625 C-6.88007402 58.33098616 -7.8265554 55.22269372 -10 52 C-17.2030649 47.762903 -23.37755866 48.4979932 -31.125 50.375 C-34.11857997 51.16111251 -37.03408171 52.01188583 -39.95703125 53.03125 C-54.13047202 57.54346221 -68.54692036 56.22355071 -83 54 C-83.33 66.21 -83.66 78.42 -84 91 C-89.48764672 88.25617664 -89.82629545 85.23528128 -91.83203125 79.65625 C-94.02016563 72.80643802 -95.9122559 65.89270744 -96.25 58.6875 C-97.17469739 54.14107119 -99.02330325 52.41479843 -102.1484375 49.12890625 C-107.20936378 43.30990873 -110.5208273 35.79794214 -110 28 C-109.01363283 24.15167354 -107.42003293 20.1985926 -104 18 C-100.3125 17.3125 -100.3125 17.3125 -97 17 C-96.76216797 15.91332031 -96.76216797 15.91332031 -96.51953125 14.8046875 C-95.02299977 8.60359022 -93.76769769 4.33427062 -89 0 C-84.16828186 -2.68428786 -80.48976219 -3.5582809 -75 -3 C-73.42999906 -2.52407637 -71.86786625 -2.02176823 -70.3125 -1.5 C-58.39398197 2.28651859 -47.3855453 -0.97399891 -35.875 -4.625 C-23.34222219 -8.41676399 -10.35086976 -8.74950202 0 0 Z M3 3 C4 5 4 5 4 5 Z " fill="#835843" transform="translate(278,69)"/>
<path d="M0 0 C7.56953732 5.27316083 12.68516048 11.76916812 14.61328125 20.90625 C16.12452557 32.99620454 15.15042926 43.8656766 8 54 C2.88168482 59.89347205 -2.44234937 62.37386616 -10 64 C-9.90460938 64.556875 -9.80921875 65.11375 -9.7109375 65.6875 C-8.76558268 72.19505879 -8.71823251 77.43142177 -12.34375 83.1015625 C-18.59994941 90.98083251 -28.20040039 95.38374243 -38.10766602 96.54956055 C-42.83361314 97.0500096 -47.46906464 97.06289435 -52.21484375 96.95703125 C-53.97199359 96.93461664 -55.72915591 96.91316417 -57.48632812 96.89257812 C-60.19770708 96.85584253 -62.90841463 96.8131434 -65.61938477 96.75317383 C-78.37776758 96.48540097 -89.66266219 97.76589296 -102 101 C-103.6635888 101.34836933 -105.32895334 101.68936848 -107 102 C-107 98 -107 98 -105.5390625 96.296875 C-104.90742188 95.78640625 -104.27578125 95.2759375 -103.625 94.75 C-102.99851562 94.22921875 -102.37203125 93.7084375 -101.7265625 93.171875 C-100 92 -100 92 -98 92 C-98 91.34 -98 90.68 -98 90 C-90.00470396 85.95368496 -82.2019345 82.95500482 -73.56274414 80.6496582 C-69.38216931 79.57124746 -69.38216931 79.57124746 -66 77 C-65.17420477 70.05885631 -66.91538334 66.80824882 -70.9375 61.3125 C-76.5965098 52.96399194 -78.06789938 46.11615098 -76.3125 36.0625 C-73.31523312 29.06887728 -68.80827047 23.12784525 -61.72265625 19.9921875 C-58.49266244 18.88506816 -55.60373444 18.04024896 -52.1875 17.8125 C-49.4162325 16.78317207 -49.32981805 16.00140253 -48.125 13.375 C-47.80015625 12.65441406 -47.4753125 11.93382812 -47.140625 11.19140625 C-43.08682204 3.40310674 -35.24375357 -0.93627514 -27.14453125 -3.61328125 C-17.94773895 -5.27171921 -8.09710655 -4.91659643 0 0 Z " fill="#CCE6CC" transform="translate(432,130)"/>
<path d="M0 0 C5.41429155 3.83712669 10.19329147 9.01737441 12.3125 15.375 C14.84209521 16.18945887 14.84209521 16.18945887 17.875 16.6875 C25.86473617 18.50205364 31.82970685 22.40176621 36.3125 29.375 C39.63999443 35.78510831 40.70171824 42.61196603 38.65625 49.625 C36.40039693 55.07016259 33.14412055 59.86676901 29.80078125 64.69921875 C28.10264722 67.75229437 27.3640543 69.87399461 27.3125 73.375 C30.28538247 78.29134892 36.19125554 79.19618694 41.375 80.75 C51.98592723 84.11678085 62.03603185 87.52524143 69.3125 96.375 C69.3125 97.365 69.3125 98.355 69.3125 99.375 C65.60118883 98.9110861 62.05012507 98.3470718 58.4375 97.375 C50.84217081 95.41219256 43.25280882 95.25003893 35.44921875 95.3828125 C33.57357315 95.40033175 31.69792175 95.41723975 29.82226562 95.43359375 C26.91299874 95.46444182 24.00403252 95.49993561 21.0949707 95.54638672 C6.86143557 95.76100504 -7.48981513 95.88599255 -19.6875 87.375 C-24.42373812 82.70027146 -27.50467732 77.99880702 -28.6875 71.375 C-28.69330078 70.23998047 -28.69330078 70.23998047 -28.69921875 69.08203125 C-28.75135495 66.62360875 -28.85001017 64.69280969 -29.6875 62.375 C-31.79975833 60.92140287 -33.86072227 60.1703543 -36.2734375 59.3125 C-42.79603535 56.77945229 -46.41614228 51.79939332 -49.64453125 45.81640625 C-53.74072923 36.22792783 -54.38826638 25.37322705 -51.0625 15.4375 C-47.42871527 6.85666798 -42.09613638 0.09647572 -33.40625 -3.59375 C-21.86927583 -7.53676649 -10.40758211 -6.33964392 0 0 Z " fill="#C8E4CE" transform="translate(104.6875,134.625)"/>
<path d="M0 0 C0.66 0 1.32 0 2 0 C3.11539703 1.15025319 4.23037658 2.30091297 5.34375 3.453125 C8.8806827 6.75648667 12.97494949 9.33498708 17 12 C17.99386719 12.66515625 18.98773438 13.3303125 20.01171875 14.015625 C28.00400898 19.16686741 36.09519405 22.7484526 45 26 C44.01 26.66 43.02 27.32 42 28 C40.83149977 30.37111725 39.79304628 32.67968706 38.8125 35.125 C38.53986328 35.78371094 38.26722656 36.44242187 37.98632812 37.12109375 C37.31598868 38.74402083 36.65689359 40.37158417 36 42 C36.59167969 42.19335938 37.18335938 42.38671875 37.79296875 42.5859375 C38.58316406 42.84632813 39.37335938 43.10671875 40.1875 43.375 C41.35345703 43.75785156 41.35345703 43.75785156 42.54296875 44.1484375 C45.05744968 45.01991102 47.52912126 46.0116485 50 47 C49.67 37.76 49.34 28.52 49 19 C49.66 19 50.32 19 51 19 C51.33 28.9 51.66 38.8 52 49 C57.84709351 51.45368778 57.84709351 51.45368778 63.69506836 53.90527344 C64.44409424 54.22012695 65.19312012 54.53498047 65.96484375 54.859375 C66.79943115 55.20967773 67.63401855 55.55998047 68.49389648 55.92089844 C71.6766723 57.29136791 74.81207713 58.75771994 77.93945312 60.25 C81.36297811 61.49609819 84.39564472 61.26213493 88 61 C88 60.34 88 59.68 88 59 C91.01826782 58.32135225 94.0399527 57.65930287 97.0625 57 C97.91005859 56.80921875 98.75761719 56.6184375 99.63085938 56.421875 C104.53829014 55.36080889 108.98008123 54.78203881 114 55 C114 56.32 114 57.64 114 59 C112.3203125 60.484375 112.3203125 60.484375 110.125 61.75 C109.40570313 62.17796875 108.68640625 62.6059375 107.9453125 63.046875 C106 64 106 64 104 64 C104 64.99 104 65.98 104 67 C104.80219971 67.11593506 105.60439941 67.23187012 106.4309082 67.35131836 C110.05852342 67.87720824 113.68551191 68.40730296 117.3125 68.9375 C118.57513672 69.11990234 119.83777344 69.30230469 121.13867188 69.49023438 C122.34716797 69.66748047 123.55566406 69.84472656 124.80078125 70.02734375 C126.47394409 70.27085571 126.47394409 70.27085571 128.1809082 70.51928711 C131 71 131 71 134 72 C134 73.32 134 74.64 134 76 C131.16730334 77.41634833 128.52533562 77.3463005 125.375 77.5625 C123.59222656 77.68818359 123.59222656 77.68818359 121.7734375 77.81640625 C120.85820312 77.87699219 119.94296875 77.93757813 119 78 C120.05960938 78.19335938 121.11921875 78.38671875 122.2109375 78.5859375 C123.59903553 78.84855064 124.98705224 79.11159386 126.375 79.375 C127.42300781 79.56449219 127.42300781 79.56449219 128.4921875 79.7578125 C133.7734375 80.7734375 133.7734375 80.7734375 136 83 C135.67 84.32 135.34 85.64 135 87 C130.38 87.33 125.76 87.66 121 88 C124.3 88.66 127.6 89.32 131 90 C131 91.32 131 92.64 131 94 C128.16730334 95.41634833 125.52533562 95.3463005 122.375 95.5625 C120.59222656 95.68818359 120.59222656 95.68818359 118.7734375 95.81640625 C117.85820312 95.87699219 116.94296875 95.93757813 116 96 C116.969375 96.268125 117.93875 96.53625 118.9375 96.8125 C119.948125 97.204375 120.95875 97.59625 122 98 C122.33 98.99 122.66 99.98 123 101 C115.15417856 104.92291072 100.38993751 100.51570572 92.44921875 98.2421875 C89.19901425 97.07167218 86.47984428 95.66606768 83.5 93.9375 C73.26865007 88.46331412 60.60593956 88.61748697 49.25 87.5546875 C30.26028603 85.72649823 8.31575793 82.67747572 -6 69 C-11.67887087 61.8650084 -13.39982149 53.86404859 -12.7890625 44.90625 C-11.11821329 31.16115085 -6.9071432 18.28704645 -1.13671875 5.7578125 C0.19053955 3.03487786 0.19053955 3.03487786 0 0 Z " fill="#F7B18A" transform="translate(138,320)"/>
<path d="M0 0 C0.33 0 0.66 0 1 0 C1 2.31 1 4.62 1 7 C0.34 7.33 -0.32 7.66 -1 8 C-0.87939209 8.9115686 -0.87939209 8.9115686 -0.75634766 9.84155273 C1.95201451 30.351311 1.95201451 30.351311 3.125 40.1875 C3.27195312 41.41855469 3.41890625 42.64960938 3.5703125 43.91796875 C4.60028629 53.37735869 5.15120471 62.74153639 5.1328125 72.2578125 C5.13376923 73.36808807 5.13472595 74.47836365 5.13571167 75.62228394 C5.13638648 77.94317685 5.13458147 80.26407174 5.13037109 82.58496094 C5.12496141 86.15043284 5.1303658 89.71578169 5.13671875 93.28125 C5.13605884 95.54427111 5.1347795 97.80729215 5.1328125 100.0703125 C5.13483673 101.13790802 5.13686096 102.20550354 5.13894653 103.30545044 C5.13421829 104.77871292 5.13421829 104.77871292 5.12939453 106.28173828 C5.12859894 107.14711212 5.12780334 108.01248596 5.12698364 108.90408325 C5 111 5 111 4 113 C-7.22 113 -18.44 113 -30 113 C-32.24908464 105.12820375 -32.24908464 105.12820375 -32.71435547 101.0847168 C-32.82141815 100.18234787 -32.92848083 99.27997894 -33.03878784 98.3502655 C-33.14715973 97.39292007 -33.25553162 96.43557465 -33.3671875 95.44921875 C-33.61571723 93.36651638 -33.86442096 91.28383477 -34.11328125 89.20117188 C-34.49361202 85.96154259 -34.8710668 82.72161803 -35.24462891 79.48120117 C-36.79549572 66.10985347 -38.74238397 53.06892354 -42 40 C-42.99 40.495 -42.99 40.495 -44 41 C-44.33 34.07 -44.66 27.14 -45 20 C-40.854375 19.1028125 -40.854375 19.1028125 -36.625 18.1875 C-25.55921438 15.73919493 -15.41552033 12.52770901 -5 8 C-5 7.34 -5 6.68 -5 6 C-4.01 5.34 -3.02 4.68 -2 4 C-0.80767387 1.94996045 -0.80767387 1.94996045 0 0 Z " fill="#F6B08B" transform="translate(369,327)"/>
<path d="M0 0 C0.33 0 0.66 0 1 0 C1.66 13.86 2.32 27.72 3 42 C2.01 42 1.02 42 0 42 C-0.185625 43.1446875 -0.185625 43.1446875 -0.375 44.3125 C-1 47 -1 47 -3 50 C-19.01668904 49.27196868 -34.77732206 35.51386823 -47 26 C-44.16032769 26 -41.76264289 26.40267181 -39 27 C-39 27.99 -39 28.98 -39 30 C-38.360625 30.12375 -37.72125 30.2475 -37.0625 30.375 C-36.381875 30.58125 -35.70125 30.7875 -35 31 C-34.67 31.66 -34.34 32.32 -34 33 C-32.11986894 34.12224855 -32.11986894 34.12224855 -29.9375 35.125 C-29.20402344 35.47820312 -28.47054687 35.83140625 -27.71484375 36.1953125 C-27.14894531 36.46085937 -26.58304688 36.72640625 -26 37 C-26 37.66 -26 38.32 -26 39 C-24.02 39.33 -22.04 39.66 -20 40 C-17.34613783 34.86545361 -17.34613783 34.86545361 -15.0625 29.5625 C-13.69542611 26.26543945 -11.91959597 23.26292841 -10.12109375 20.18359375 C-9.05555824 18.10821274 -8.45964015 16.27754277 -8 14 C-7.34 14 -6.68 14 -6 14 C-6 12.68 -6 11.36 -6 10 C-5.34 10 -4.68 10 -4 10 C-3.71125 8.72125 -3.4225 7.4425 -3.125 6.125 C-2.45897517 3.17546145 -2.19797403 2.19797403 0 0 Z " fill="#53826E" transform="translate(187,296)"/>
<path d="M0 0 C0.66 0 1.32 0 2 0 C3.10986328 1.41430664 3.10986328 1.41430664 4.3203125 3.41015625 C4.76963135 4.14588867 5.2189502 4.88162109 5.68188477 5.63964844 C6.15811279 6.43918945 6.63434082 7.23873047 7.125 8.0625 C7.85771118 9.27921387 7.85771118 9.27921387 8.60522461 10.52050781 C20.28052525 30.07038142 20.28052525 30.07038142 23 39 C23.81984375 38.77183594 24.6396875 38.54367187 25.484375 38.30859375 C26.56203125 38.02113281 27.6396875 37.73367188 28.75 37.4375 C29.81734375 37.14746094 30.8846875 36.85742188 31.984375 36.55859375 C34.84335927 36.02901506 36.31597383 36.01629138 39 37 C33.06295096 39.68308947 27.0517737 41.64839608 20.75 43.25 C20.07710938 43.42499023 19.40421875 43.59998047 18.7109375 43.78027344 C14.72674179 44.75860608 11.09737649 45.1781468 7 45 C7.165 45.94875 7.33 46.8975 7.5 47.875 C8.18541792 52.5763877 8.08583441 57.26003286 8 62 C7.67 62 7.34 62 7 62 C5.77100654 55.93184478 4.72439786 50.20104812 5 44 C4.34 43.67 3.68 43.34 3 43 C3.66 43 4.32 43 5 43 C3.75968145 26.3423336 3.75968145 26.3423336 0.5859375 9.97265625 C-0.08029428 6.59264033 -0.09462265 3.43652272 0 0 Z " fill="#517E6A" transform="translate(317,302)"/>
<path d="M0 0 C0.79296875 1.66796875 0.79296875 1.66796875 1 4 C-6.26921472 13.8277375 -17.4629923 21.96469787 -29.6640625 23.80078125 C-33.13776233 24.09703324 -36.51541676 24.12905864 -40 24 C-40 20.37 -40 16.74 -40 13 C-38.36804688 12.96132812 -38.36804688 12.96132812 -36.703125 12.921875 C-24.27951856 12.49650614 -14.03227333 10.85134434 -4 3 C-3.34 3 -2.68 3 -2 3 C-2 2.34 -2 1.68 -2 1 C-1.34 0.67 -0.68 0.34 0 0 Z " fill="#ED9470" transform="translate(272,205)"/>
<path d="M0 0 C0.99 0.33 1.98 0.66 3 1 C1.625 3 1.625 3 0 5 C-0.66 5 -1.32 5 -2 5 C-2 5.66 -2 6.32 -2 7 C-1.38125 6.79375 -0.7625 6.5875 -0.125 6.375 C0.57625 6.25125 1.2775 6.1275 2 6 C2.66 6.66 3.32 7.32 4 8 C4.66 8.33 5.32 8.66 6 9 C5.47462592 13.06809929 4.38599539 15.17603456 1.625 18.1875 C0.71621094 19.19876953 0.71621094 19.19876953 -0.2109375 20.23046875 C-3.29048102 23.2763928 -4.5724245 24 -9 24 C-8.979375 24.969375 -8.95875 25.93875 -8.9375 26.9375 C-9 30 -9 30 -10 31 C-17.34021935 31.40258856 -24.66377851 31.5033272 -31.796875 29.5703125 C-35.41750466 28.6330573 -39.11942704 28.13697802 -42.8125 27.5625 C-43.534375 27.376875 -44.25625 27.19125 -45 27 C-45.33 26.34 -45.66 25.68 -46 25 C-48.01669827 23.86649466 -48.01669827 23.86649466 -50 23 C-49.67 22.34 -49.34 21.68 -49 21 C-47.9171875 21.6496875 -47.9171875 21.6496875 -46.8125 22.3125 C-35.95675205 27.63939027 -22.89572747 28 -11 28 C-13.57404971 24.13892543 -15.61020259 24.05680308 -20 23 C-20 22.67 -20 22.34 -20 22 C-18.41058594 21.90912109 -18.41058594 21.90912109 -16.7890625 21.81640625 C-15.40102779 21.73199873 -14.01300768 21.64735083 -12.625 21.5625 C-11.92632812 21.52318359 -11.22765625 21.48386719 -10.5078125 21.44335938 C-6.62639508 21.25719866 -6.62639508 21.25719866 -3 20 C-3 19.34 -3 18.68 -3 18 C-7.29 17.01 -11.58 16.02 -16 15 C-16 14.67 -16 14.34 -16 14 C-7.585 13.505 -7.585 13.505 1 13 C0.505 11.02 0.505 11.02 0 9 C-1.60681641 8.70996094 -1.60681641 8.70996094 -3.24609375 8.4140625 C-4.64331489 8.15149745 -6.04044578 7.88845175 -7.4375 7.625 C-8.14455078 7.49867188 -8.85160156 7.37234375 -9.58007812 7.2421875 C-11.40052 6.89377757 -13.20271648 6.452957 -15 6 C-15.495 5.01 -15.495 5.01 -16 4 C-8.08 3.505 -8.08 3.505 0 3 C0 2.01 0 1.02 0 0 Z " fill="#B89879" transform="translate(272,393)"/>
<path d="M0 0 C1.93719378 -0.05406122 3.87481921 -0.09282025 5.8125 -0.125 C6.89144531 -0.14820313 7.97039062 -0.17140625 9.08203125 -0.1953125 C12 0 12 0 15 2 C16.92983589 2.42893672 16.92983589 2.42893672 19.05664062 2.57836914 C20.27305237 2.69342552 20.27305237 2.69342552 21.51403809 2.81080627 C22.38596802 2.88484177 23.25789795 2.95887726 24.15625 3.03515625 C25.05492798 3.11873886 25.95360596 3.20232147 26.8795166 3.28843689 C29.75234414 3.5544712 32.62603165 3.80911235 35.5 4.0625 C38.37377529 4.32115419 41.24728985 4.58223562 44.1204834 4.84727478 C45.90860276 5.01167732 47.69709389 5.17209469 49.48596191 5.32814026 C50.70237366 5.4384684 50.70237366 5.4384684 51.94335938 5.55102539 C53.01233459 5.64523521 53.01233459 5.64523521 54.10290527 5.74134827 C56 6 56 6 59 7 C59 7.66 59 8.32 59 9 C61.31 9.66 63.62 10.32 66 11 C66 11.66 66 12.32 66 13 C67.3303125 12.938125 67.3303125 12.938125 68.6875 12.875 C72 13 72 13 74.34375 13.96875 C77.25018329 15.09712998 79.71086281 15.40078526 82.8125 15.625 C83.78832031 15.69976562 84.76414062 15.77453125 85.76953125 15.8515625 C86.50558594 15.90054687 87.24164063 15.94953125 88 16 C88.66 15.01 89.32 14.02 90 13 C91.46184058 13.22860058 92.91955419 13.48370392 94.375 13.75 C95.18710938 13.88921875 95.99921875 14.0284375 96.8359375 14.171875 C99 15 99 15 100.2890625 17.078125 C100.52367187 17.71234375 100.75828125 18.3465625 101 19 C93.15417856 22.92291072 78.38993751 18.51570572 70.44921875 16.2421875 C67.19901425 15.07167218 64.47984428 13.66606768 61.5 11.9375 C52.51097029 7.12800567 41.97823591 6.97615032 32 6 C28.81171756 5.67386389 25.62436796 5.339664 22.4375 5 C21.71755859 4.92507324 20.99761719 4.85014648 20.25585938 4.77294922 C13.38676302 4.01760093 6.71910688 2.62036339 0 1 C0 0.67 0 0.34 0 0 Z " fill="#E1B291" transform="translate(160,402)"/>
<path d="M0 0 C0.53625 0.226875 1.0725 0.45375 1.625 0.6875 C0.965 0.6875 0.305 0.6875 -0.375 0.6875 C-0.705 1.6775 -1.035 2.6675 -1.375 3.6875 C-10.7234652 10.78204721 -22.76494347 16.77447932 -34.375 18.6875 C-34.705 20.0075 -35.035 21.3275 -35.375 22.6875 C-35.705 18.3975 -36.035 14.1075 -36.375 9.6875 C-35.19164062 9.43355469 -34.00828125 9.17960937 -32.7890625 8.91796875 C-18.49552929 6.13510712 -18.49552929 6.13510712 -5 0.9375 C-2.375 -0.3125 -2.375 -0.3125 0 0 Z " fill="#EF9673" transform="translate(360.375,337.3125)"/>
<path d="M0 0 C0.69609375 0.47566406 0.69609375 0.47566406 1.40625 0.9609375 C3.92411045 2.6614328 6.46085827 4.33142115 9 6 C9.86866699 6.57862793 9.86866699 6.57862793 10.75488281 7.16894531 C20.14049302 13.39185379 29.37657467 18.24516863 40 22 C39.01 22.66 38.02 23.32 37 24 C35.80767387 26.05003955 35.80767387 26.05003955 35 28 C32.69 27.67 30.38 27.34 28 27 C28 26.34 28 25.68 28 25 C27.29488281 24.7525 26.58976562 24.505 25.86328125 24.25 C22.63112557 22.83896341 20.03671098 21.0749274 17.1875 19 C16.21167969 18.29875 15.23585937 17.5975 14.23046875 16.875 C13.49441406 16.25625 12.75835937 15.6375 12 15 C12 14.34 12 13.68 12 13 C11.01 12.67 10.02 12.34 9 12 C7.33333333 10.33333333 5.66666667 8.66666667 4 7 C1.91665365 5.7483533 1.91665365 5.7483533 0 5 C-0.66 4.67 -1.32 4.34 -2 4 C-1.34 2.68 -0.68 1.36 0 0 Z " fill="#EA9B79" transform="translate(143,324)"/>
<path d="M0 0 C6.61575635 -0.15770575 13.00072113 0.42818909 19.5625 1.25 C20.56474609 1.35957031 21.56699219 1.46914063 22.59960938 1.58203125 C28.67627709 2.34211477 32.91855308 3.55060265 38 7 C38 7.33 38 7.66 38 8 C26.12 8 14.24 8 2 8 C1.67 9.32 1.34 10.64 1 12 C0.67 12 0.34 12 0 12 C0 8.04 0 4.08 0 0 Z " fill="#60816D" transform="translate(184,407)"/>
<path d="M0 0 C9.78797291 0.16589785 18.69691726 4.52223338 25.8125 11.25 C28 14 28 14 28 17 C24.28868883 16.5360861 20.73762507 15.9720718 17.125 15 C8.25274024 12.71639435 -0.95705016 12.73278572 -10.0625 12.4375 C-11.30966797 12.39431641 -12.55683594 12.35113281 -13.84179688 12.30664062 C-16.89444091 12.20137704 -19.94715523 12.09924059 -23 12 C-18.95624749 9.76227707 -15.1687563 9.52719639 -10.625 9.3125 C-9.8825 9.26544922 -9.14 9.21839844 -8.375 9.16992188 C-4.06218427 8.93751749 -0.27118455 9.26293718 4 10 C4.99 9.67 5.98 9.34 7 9 C7.99 9.66 8.98 10.32 10 11 C12.62531524 11.16713569 12.62531524 11.16713569 15 11 C14.505 8.525 14.505 8.525 14 6 C11.03 5.67 8.06 5.34 5 5 C5 4.34 5 3.68 5 3 C4.01 3 3.02 3 2 3 C2 2.34 2 1.68 2 1 C1.34 0.67 0.68 0.34 0 0 Z " fill="#BEDAE4" transform="translate(146,217)"/>
<path d="M0 0 C0.495 0.99 0.495 0.99 1 2 C1.99 2.33 2.98 2.66 4 3 C5.17755913 5.94389782 5.03348696 6.89953913 4 10 C0.9375 11.6875 0.9375 11.6875 -2 13 C-1.505 13.99 -1.505 13.99 -1 15 C3.455 14.505 3.455 14.505 8 14 C8 14.99 8 15.98 8 17 C8.9075 16.79375 9.815 16.5875 10.75 16.375 C14.26445144 15.96948637 15.06414972 16.29531274 18 18 C19.65740715 18.37668344 21.32345271 18.72057545 23 19 C23 19.66 23 20.32 23 21 C19.68664696 20.54770533 16.37450737 20.08703725 13.0625 19.625 C11.67321289 19.43550781 11.67321289 19.43550781 10.25585938 19.2421875 C4.4231116 18.42355623 -1.26699847 17.35240036 -7 16 C-7 15.01 -7 14.02 -7 13 C-5.3203125 11.61328125 -5.3203125 11.61328125 -3.125 10.3125 C-2.04605469 9.65701172 -2.04605469 9.65701172 -0.9453125 8.98828125 C1 8 1 8 3 8 C3 6.68 3 5.36 3 4 C2.35450195 4.12117188 1.70900391 4.24234375 1.04394531 4.3671875 C-1.88669043 4.91516686 -4.8183195 5.45763911 -7.75 6 C-9.27367187 6.28617187 -9.27367187 6.28617187 -10.828125 6.578125 C-12.29765625 6.84882813 -12.29765625 6.84882813 -13.796875 7.125 C-14.69760742 7.29257812 -15.59833984 7.46015625 -16.52636719 7.6328125 C-19 8 -19 8 -23 8 C-23 8.66 -23 9.32 -23 10 C-25.79870027 11.39935013 -27.90498792 11.25265405 -31 11 C-31.99 10.01 -32.98 9.02 -34 8 C-31.03 8.33 -28.06 8.66 -25 9 C-25 8.34 -25 7.68 -25 7 C-21.54941314 4.69960876 -19.05904498 4.5261725 -15 4 C-14.67 3.67 -14.34 3.34 -14 3 C-12.906875 2.855625 -11.81375 2.71125 -10.6875 2.5625 C-6.75128413 1.96206029 -3.91272958 0 0 0 Z " fill="#C29777" transform="translate(249,371)"/>
<path d="M0 0 C0.495 0.99 0.495 0.99 1 2 C-3.22988256 4.81992171 -6.51439801 6.24140544 -11.5625 7 C-16.27928419 7.723671 -19.18667444 9.0237459 -23 12 C-24.3191582 12.69429379 -25.64649406 13.37530495 -27 14 C-27 13.34 -27 12.68 -27 12 C-27.66 13.32 -28.32 14.64 -29 16 C-27.02 16 -25.04 16 -23 16 C-22.67 16.99 -22.34 17.98 -22 19 C-24.22907395 19.47959778 -26.45826297 19.9586608 -28.6875 20.4375 C-29.92886719 20.70433594 -31.17023438 20.97117188 -32.44921875 21.24609375 C-35.29612015 21.85055136 -38.14455626 22.43764684 -41 23 C-41 19 -41 19 -39.5390625 17.296875 C-38.90742188 16.78640625 -38.27578125 16.2759375 -37.625 15.75 C-36.99851562 15.22921875 -36.37203125 14.7084375 -35.7265625 14.171875 C-34 13 -34 13 -32 13 C-32 12.34 -32 11.68 -32 11 C-21.67288381 5.60468436 -11.27689219 2.69121186 0 0 Z " fill="#C2DBE0" transform="translate(366,209)"/>
<path d="M0 0 C0.33 0 0.66 0 1 0 C1 5.61 1 11.22 1 17 C49.51 16.67 98.02 16.34 148 16 C148 14.68 148 13.36 148 12 C148.99 12.33 149.98 12.66 151 13 C150.67 14.65 150.34 16.3 150 18 C100.5 18 51 18 0 18 C0 12.06 0 6.12 0 0 Z " fill="#ABC5B5" transform="translate(182,422)"/>
<path d="M0 0 C5.61 0.33 11.22 0.66 17 1 C17 1.33 17 1.66 17 2 C15.98679687 1.95617187 14.97359375 1.91234375 13.9296875 1.8671875 C6.27261018 1.58585394 6.27261018 1.58585394 -0.15625 5.08203125 C-1.61500168 7.66976362 -2.83535195 10.26867236 -4 13 C-7.66896612 19.38373226 -13.29304669 20.97545527 -20 23 C-20.99 23.33 -21.98 23.66 -23 24 C-31.72662035 24.87266204 -38.59156804 23.52674557 -45.5 18 C-47.0357794 15.95229413 -47.64037183 14.5173972 -48 12 C-45.95880212 13.61594832 -43.95927063 15.2856382 -42 17 C-42 17.66 -42 18.32 -42 19 C-33.03411849 21.75873277 -23.66215165 22.77135421 -15.09375 18.31640625 C-7.35703161 13.4520889 -3.66263592 8.35538819 0 0 Z " fill="#7F9378" transform="translate(279,232)"/>
<path d="M0 0 C3.5625 0.3125 3.5625 0.3125 5.5 1.4375 C7.06672245 4.20230433 6.95226435 6.19438517 6.5625 9.3125 C5.5 11.1875 5.5 11.1875 3.5625 12.3125 C0.0625 12.75 0.0625 12.75 -3.4375 12.3125 C-5.4375 10.6875 -5.4375 10.6875 -6.4375 8.3125 C-6.12371717 3.0827861 -5.61102633 0.5100933 0 0 Z " fill="#D1E5CF" transform="translate(146.4375,136.6875)"/>
<path d="M0 0 C5.91189543 2.04308151 11.67458009 4.138744 17.2109375 7.06640625 C18.91469703 7.955486 20.67610795 8.73139256 22.4375 9.5 C25 11 25 11 25.66015625 13.09375 C25.77230469 13.7228125 25.88445312 14.351875 26 15 C18.37040914 13.77381575 5.65151074 10.65151074 0 5 C-0.04063832 3.33382885 -0.042721 1.66611905 0 0 Z " fill="#697F69" transform="translate(189,364)"/>
<path d="M0 0 C3.5625 0.3125 3.5625 0.3125 5.5 1.5 C6.94968434 3.97299093 6.98567323 5.49134512 6.5625 8.3125 C5.5 10.125 5.5 10.125 3.5625 11.3125 C0 11.625 0 11.625 -3.4375 11.3125 C-5.4375 9.3125 -5.4375 9.3125 -5.6875 5.8125 C-5.34943772 1.07962813 -4.72246521 0.42931502 0 0 Z " fill="#CBE1DC" transform="translate(333.4375,175.6875)"/>
<path d="M0 0 C0.886875 0.433125 1.77375 0.86625 2.6875 1.3125 C14.16900716 6.14802497 26.67200613 7 39 7 C38.505 4.525 38.505 4.525 38 2 C40.31 2 42.62 2 45 2 C43.68 2.33 42.36 2.66 41 3 C41.020625 3.969375 41.04125 4.93875 41.0625 5.9375 C41 9 41 9 40 10 C32.65978065 10.40258856 25.33622149 10.5033272 18.203125 8.5703125 C14.58249534 7.6330573 10.88057296 7.13697802 7.1875 6.5625 C6.465625 6.376875 5.74375 6.19125 5 6 C4.67 5.34 4.34 4.68 4 4 C1.98330173 2.86649466 1.98330173 2.86649466 0 2 C0 1.34 0 0.68 0 0 Z " fill="#9A997A" transform="translate(222,414)"/>
<path d="M0 0 C0.33 0 0.66 0 1 0 C0.65805134 4.18887111 0.12131022 7.13089402 -2.0625 10.75 C-4.25603227 13.79885637 -4.25603227 13.79885637 -4 17 C-3.34 17.33 -2.68 17.66 -2 18 C-6.75 22 -6.75 22 -9 22 C-9 22.66 -9 23.32 -9 24 C-10.65 24.33 -12.3 24.66 -14 25 C-12.32280712 20.36732128 -9.9856227 16.20830269 -7.5625 11.9375 C-7.16740234 11.23044922 -6.77230469 10.52339844 -6.36523438 9.79492188 C-2.49643267 2.93922501 -2.49643267 2.93922501 0 0 Z " fill="#789E8D" transform="translate(161,273)"/>
<path d="M0 0 C2.625 -0.1875 2.625 -0.1875 5 0 C4 3 4 3 1.375 4.3515625 C-5.1642951 6.81893542 -11.00064846 8.86539709 -18 9 C-19.20140625 9.02707031 -20.4028125 9.05414063 -21.640625 9.08203125 C-35.10137454 9.26323062 -48.55570784 8.58738715 -62 8 C-62 7.67 -62 7.34 -62 7 C-50.60732887 5.5533116 -39.17333144 5.55406268 -27.75 6.625 C-18.99819459 7.34087348 -10.18109887 6.31195054 -2 3 C-1.34 2.01 -0.68 1.02 0 0 Z " fill="#C5DCD9" transform="translate(407,218)"/>
<path d="M0 0 C0.928125 0.20625 1.85625 0.4125 2.8125 0.625 C4 3.375 4 3.375 4.8125 6.625 C3.4375 9 3.4375 9 1.8125 10.625 C-1.5625 10.3125 -1.5625 10.3125 -5.1875 9.625 C-7.1875 6.625 -7.1875 6.625 -7 4.0625 C-5.68695131 0.12335392 -3.99778605 -0.47032777 0 0 Z " fill="#CAE0D9" transform="translate(160.1875,179.375)"/>
<path d="M0 0 C0.33 0 0.66 0 1 0 C1.33 2.64 1.66 5.28 2 8 C7.75813575 8.10469338 13.29014022 7.74016701 19 7 C19 6.34 19 5.68 19 5 C20.74635165 4.46706165 22.49727652 3.94909337 24.25 3.4375 C25.22453125 3.14746094 26.1990625 2.85742188 27.203125 2.55859375 C29.96243932 2.00750164 31.3912824 2.06210391 34 3 C28.06295096 5.68308947 22.0517737 7.64839608 15.75 9.25 C14.74066406 9.51248535 14.74066406 9.51248535 13.7109375 9.78027344 C9.72674179 10.75860608 6.09737649 11.1781468 2 11 C2.165 11.94875 2.33 12.8975 2.5 13.875 C3.18541792 18.5763877 3.08583441 23.26003286 3 28 C2.67 28 2.34 28 2 28 C0.77100654 21.93184478 -0.27560214 16.20104812 0 10 C-0.66 9.67 -1.32 9.34 -2 9 C-1.34 9 -0.68 9 0 9 C0 6.03 0 3.06 0 0 Z " fill="#6E836C" transform="translate(322,336)"/>
<path d="M0 0 C2.85280423 2.43550574 2.98826689 2.90760179 3.5 6.9375 C3.561875 7.72898437 3.62375 8.52046875 3.6875 9.3359375 C4.03988686 12.34003552 4.7300709 15.13825006 5.5 18.0625 C6.72163999 22.75336034 7.53336963 27.17815288 8 32 C8.09152344 32.89460938 8.18304688 33.78921875 8.27734375 34.7109375 C8.5256901 37.13996897 8.76592067 39.56955934 9 42 C8.01 42.495 8.01 42.495 7 43 C6.72736328 41.42025391 6.72736328 41.42025391 6.44921875 39.80859375 C4.77442358 30.17430927 2.96605219 20.57927555 1 11 C0.01 11.495 0.01 11.495 -1 12 C-1.14285714 3.42857143 -1.14285714 3.42857143 0 0 Z " fill="#EBC2A5" transform="translate(326,356)"/>
<path d="M0 0 C0.33 0 0.66 0 1 0 C0.94779297 1.86205078 0.94779297 1.86205078 0.89453125 3.76171875 C0.86638416 5.40363226 0.83908499 7.04556046 0.8125 8.6875 C0.78736328 9.50412109 0.76222656 10.32074219 0.73632812 11.16210938 C0.67705063 16.04262296 1.01277955 18.94430271 4 23 C4.33 23.99 4.66 24.98 5 26 C12.28546284 29.71415753 21.01525086 29.66634334 29 30 C24.32339845 33.11773437 19.48013849 32.47683424 14 32 C11.11757394 31.24100501 8.71951871 30.25516248 6 29 C6 28.34 6 27.68 6 27 C5.39542969 26.76925781 4.79085937 26.53851563 4.16796875 26.30078125 C1.40398796 24.64239277 0.68671899 23.07899548 -0.6875 20.1875 C-1.10386719 19.33542969 -1.52023438 18.48335937 -1.94921875 17.60546875 C-2.97444562 15.06336345 -3.55903005 12.69912377 -4 10 C-2.68 10 -1.36 10 0 10 C0 6.7 0 3.4 0 0 Z " fill="#D7B694" transform="translate(231,222)"/>
<path d="M0 0 C0.495 1.485 0.495 1.485 1 3 C-6.83637602 5.50097107 -14.71892316 8 -23 8 C-23 8.66 -23 9.32 -23 10 C-25.79870027 11.39935013 -27.90498792 11.25265405 -31 11 C-31.99 10.01 -32.98 9.02 -34 8 C-31.03 8.33 -28.06 8.66 -25 9 C-25 8.34 -25 7.68 -25 7 C-21.54941314 4.69960876 -19.05904498 4.5261725 -15 4 C-14.67 3.67 -14.34 3.34 -14 3 C-12.906875 2.855625 -11.81375 2.71125 -10.6875 2.5625 C-6.75128413 1.96206029 -3.91272958 0 0 0 Z " fill="#A3977A" transform="translate(249,371)"/>
<path d="M0 0 C-9.25125887 4.79624691 -17.19619463 8.09182251 -27.55859375 9.5703125 C-29.93998964 9.7487109 -29.93998964 9.7487109 -31 11 C-32.65 11 -34.3 11 -36 11 C-36 14.63 -36 18.26 -36 22 C-36.33 22 -36.66 22 -37 22 C-37.33 17.71 -37.66 13.42 -38 9 C-36.81664062 8.74605469 -35.63328125 8.49210937 -34.4140625 8.23046875 C-20.12052929 5.44760712 -20.12052929 5.44760712 -6.625 0.25 C-3.65716428 -1.16325511 -2.99527786 -0.94319388 0 0 Z " fill="#CE987B" transform="translate(362,338)"/>
<path d="M0 0 C2.64 0.66 5.28 1.32 8 2 C8 2.99 8 3.98 8 5 C8.639375 5.12375 9.27875 5.2475 9.9375 5.375 C10.618125 5.58125 11.29875 5.7875 12 6 C12.33 6.66 12.66 7.32 13 8 C14.88013106 9.12224855 14.88013106 9.12224855 17.0625 10.125 C17.79597656 10.47820312 18.52945313 10.83140625 19.28515625 11.1953125 C20.13400391 11.59363281 20.13400391 11.59363281 21 12 C21 12.66 21 13.32 21 14 C21.70125 14.0825 22.4025 14.165 23.125 14.25 C26.67270457 15.17548815 28.97444336 16.94262148 32 19 C34.30278959 20.10496759 36.62625192 21.05050077 39 22 C39 22.66 39 23.32 39 24 C32.7077451 22.58190746 27.7842659 19.79517453 22.3125 16.4375 C21.43561523 15.90535889 20.55873047 15.37321777 19.65527344 14.82495117 C12.8172434 10.62201835 6.10883624 6.22727654 0 1 C0 0.67 0 0.34 0 0 Z " fill="#858B74" transform="translate(140,321)"/>
<path d="M0 0 C0.99 0.33 1.98 0.66 3 1 C-2.60276846 6.90562081 -2.60276846 6.90562081 -7.48046875 7.09765625 C-8.37378906 7.08605469 -9.26710937 7.07445312 -10.1875 7.0625 C-11.08855469 7.05347656 -11.98960937 7.04445313 -12.91796875 7.03515625 C-13.60503906 7.02355469 -14.29210937 7.01195312 -15 7 C-15.33 5.68 -15.66 4.36 -16 3 C-14.51886719 2.80083984 -14.51886719 2.80083984 -13.0078125 2.59765625 C-11.72648438 2.42105469 -10.44515625 2.24445313 -9.125 2.0625 C-7.21074219 1.80146484 -7.21074219 1.80146484 -5.2578125 1.53515625 C-2.12440546 1.18566773 -2.12440546 1.18566773 0 0 Z " fill="#53836F" transform="translate(232,360)"/>
<path d="M0 0 C2.64 0 5.28 0 8 0 C6.68 3.3 5.36 6.6 4 10 C6.31 10.66 8.62 11.32 11 12 C11 12.33 11 12.66 11 13 C9.02 13 7.04 13 5 13 C5 12.34 5 11.68 5 11 C3.68 11.33 2.36 11.66 1 12 C1 11.01 1 10.02 1 9 C0.34 9 -0.32 9 -1 9 C-0.67 6.03 -0.34 3.06 0 0 Z " fill="#F2B89B" transform="translate(170,352)"/>
<path d="M0 0 C0.66 0.99 1.32 1.98 2 3 C0.80396513 5.82699151 -0.21919307 7.19513529 -2.5625 9.28125 C-6.71340574 14.19499646 -5.51741017 20.8222688 -5.3125 26.875 C-5.28994141 28.13570312 -5.26738281 29.39640625 -5.24414062 30.6953125 C-5.18537581 33.79809499 -5.10325851 36.89843199 -5 40 C-5.66 40 -6.32 40 -7 40 C-7.12426099 35.98006153 -7.21464411 31.96087721 -7.2746582 27.93945312 C-7.2996928 26.57369497 -7.33373218 25.20806933 -7.37719727 23.84277344 C-7.77468032 11.0297902 -7.77468032 11.0297902 -4.60546875 7.0703125 C-2 5 -2 5 0 5 C0 3.35 0 1.7 0 0 Z " fill="#EABB9F" transform="translate(280,191)"/>
<path d="M0 0 C1.50433594 0.01353516 1.50433594 0.01353516 3.0390625 0.02734375 C3.80992187 0.03894531 4.58078125 0.05054688 5.375 0.0625 C2.97736815 2.46013185 2.04226502 2.40530586 -1.25 2.6875 C-2.06726563 2.76226562 -2.88453125 2.83703125 -3.7265625 2.9140625 C-4.35304688 2.96304688 -4.97953125 3.01203125 -5.625 3.0625 C-5.81835938 3.81015625 -6.01171875 4.5578125 -6.2109375 5.328125 C-6.47132813 6.31296875 -6.73171875 7.2978125 -7 8.3125 C-7.25523437 9.28703125 -7.51046875 10.2615625 -7.7734375 11.265625 C-8.52098509 13.72087303 -9.39623817 15.81867405 -10.625 18.0625 C-10.955 18.0625 -11.285 18.0625 -11.625 18.0625 C-12.09907856 11.54391987 -11.01482147 6.71632631 -7.625 1.0625 C-4.98041621 -0.25979189 -2.94738699 -0.03427194 0 0 Z " fill="#EFB99F" transform="translate(293.625,174.9375)"/>
<path d="M0 0 C0.33 0 0.66 0 1 0 C1 8.58 1 17.16 1 26 C-3.23159323 23.88420339 -3.58757808 23.56369804 -5.25 19.5 C-5.58515625 18.7059375 -5.9203125 17.911875 -6.265625 17.09375 C-7 15 -7 15 -7 13 C-6.01 13.33 -5.02 13.66 -4 14 C-4.33 14.66 -4.66 15.32 -5 16 C-4.34 16 -3.68 16 -3 16 C-2.67 15.34 -2.34 14.68 -2 14 C-1.67 14.99 -1.34 15.98 -1 17 C-0.67 11.39 -0.34 5.78 0 0 Z " fill="#9D6C53" transform="translate(193,134)"/>
<path d="M0 0 C0 0.66 0 1.32 0 2 C-1.2065625 2.6496875 -1.2065625 2.6496875 -2.4375 3.3125 C-5.24282331 4.76787059 -5.24282331 4.76787059 -5.8125 7.6875 C-5.874375 8.450625 -5.93625 9.21375 -6 10 C-6.928125 10.12375 -6.928125 10.12375 -7.875 10.25 C-10.10815891 10.80730912 -10.10815891 10.80730912 -11.1875 12.6875 C-12.15268705 15.43457082 -12.60719375 18.11942081 -13 21 C-13.66 20.67 -14.32 20.34 -15 20 C-13.55988799 12.76431529 -12.44386889 7.17167544 -7 2 C-4 0 -4 0 0 0 Z " fill="#8F7264" transform="translate(196,67)"/>
<path d="M0 0 C3.125 0.375 3.125 0.375 6 1 C6.6875 2.75 6.6875 2.75 7 5 C5.5625 7.25 5.5625 7.25 4 9 C-0.75 8.25 -0.75 8.25 -3 6 C-2.63318342 3.06546739 -2.13562754 2.13562754 0 0 Z " fill="#DDE6D4" transform="translate(359,135)"/>
<path d="M0 0 C0.99 0.33 1.98 0.66 3 1 C2.54625 1.680625 2.0925 2.36125 1.625 3.0625 C-0.16836486 6.30435186 -1.08753869 9.4203441 -2 13 C-3.32 13 -4.64 13 -6 13 C-8.60018816 9.09971775 -8.15085514 5.52565431 -8 1 C-7.67 1 -7.34 1 -7 1 C-6.67 2.98 -6.34 4.96 -6 7 C-4.29159719 5.36587557 -3.06546953 4.13093906 -2 2 C-1.34 1.34 -0.68 0.68 0 0 Z " fill="#905D43" transform="translate(285,145)"/>
<path d="M0 0 C4.62609198 -0.3227506 7.28026121 0.15549386 11 3 C11 3.66 11 4.32 11 5 C13.31 5 15.62 5 18 5 C18 5.33 18 5.66 18 6 C16.3603125 6.2165625 16.3603125 6.2165625 14.6875 6.4375 C11.06877013 6.88288104 11.06877013 6.88288104 8 8 C5.8125 7.0625 5.8125 7.0625 4 6 C4 5.34 4 4.68 4 4 C2.68 3.34 1.36 2.68 0 2 C0 1.34 0 0.68 0 0 Z " fill="#7F9B81" transform="translate(216,415)"/>
<path d="M0 0 C0.66 2.97 1.32 5.94 2 9 C1.34 9 0.68 9 0 9 C-0.66 8.01 -1.32 7.02 -2 6 C-2.66 5.34 -3.32 4.68 -4 4 C-4.99 4.495 -4.99 4.495 -6 5 C-6.9590625 4.7525 -6.9590625 4.7525 -7.9375 4.5 C-10.17665424 3.76397597 -10.17665424 3.76397597 -13 5 C-13 4.34 -13 3.68 -13 3 C-14.32 2.67 -15.64 2.34 -17 2 C-11.09956583 0.28351006 -6.14469855 -0.19202183 0 0 Z " fill="#76917A" transform="translate(228,233)"/>
<path d="M0 0 C4.01010498 0.65229064 7.45645051 1.90561363 11.1875 3.5 C12.23292969 3.9434375 13.27835938 4.386875 14.35546875 4.84375 C15.91940229 5.52753778 17.47331631 6.23665816 19 7 C20.37342831 7.0689472 21.75002102 7.08467708 23.125 7.0625 C25.043125 7.0315625 25.043125 7.0315625 27 7 C27 6.34 27 5.68 27 5 C28.32 5.33 29.64 5.66 31 6 C30.34 6 29.68 6 29 6 C29 6.66 29 7.32 29 8 C24.36293951 9.54568683 19.49690238 10.01163632 14.87890625 8.140625 C13.54999574 7.4256556 12.23063149 6.69263247 10.921875 5.94140625 C8.76894612 4.75918861 8.76894612 4.75918861 5.125 4.5 C4.09375 4.335 3.0625 4.17 2 4 C0.5625 1.9375 0.5625 1.9375 0 0 Z " fill="#DEB290" transform="translate(199,374)"/>
<path d="M0 0 C5.61 0.33 11.22 0.66 17 1 C17 1.33 17 1.66 17 2 C15.98679687 1.95617187 14.97359375 1.91234375 13.9296875 1.8671875 C9.76719394 1.82414153 6.07270818 2.04599378 2 3 C-0.37398218 5.36968149 -1.48411088 7.50084971 -2.859375 10.54296875 C-4.2863939 13.61692384 -6.18070671 15.1757514 -9 17 C-9.66 16.67 -10.32 16.34 -11 16 C-10.54109375 15.59910156 -10.0821875 15.19820312 -9.609375 14.78515625 C-4.74102381 10.27477206 -2.37980566 6.1874947 0 0 Z " fill="#839882" transform="translate(279,232)"/>
<path d="M0 0 C-1.07543783 0.98783194 -2.16073217 1.96493943 -3.25 2.9375 C-4.15492188 3.75541016 -4.15492188 3.75541016 -5.078125 4.58984375 C-7.08467305 6.06212799 -8.57002449 6.57529189 -11 7 C-10.814375 7.495 -10.62875 7.99 -10.4375 8.5 C-9.79860704 12.15081689 -10.45094709 15.33964724 -11 19 C-11.33 19 -11.66 19 -12 19 C-13.19638718 12.64329219 -13.19222083 8.70039434 -10 3 C-7.07832688 -0.6520914 -4.44454868 -1.37934269 0 0 Z " fill="#8D7063" transform="translate(181,87)"/>
<path d="M0 0 C0.33 0 0.66 0 1 0 C0.43889351 11.04799335 0.43889351 11.04799335 -3 16 C-3.350625 17.2375 -3.70125 18.475 -4.0625 19.75 C-4.371875 20.8225 -4.68125 21.895 -5 23 C-5.66 23.33 -6.32 23.66 -7 24 C-6.4047056 18.78440928 -5.22375782 14.13714747 -3.5 9.1875 C-3.27441406 8.52041016 -3.04882812 7.85332031 -2.81640625 7.16601562 C-1.97989631 4.71340808 -1.16030928 2.32061857 0 0 Z " fill="#EDBFA0" transform="translate(135,330)"/>
<path d="M0 0 C1.77155654 0.11429397 3.54226229 0.24183037 5.3125 0.375 C6.79169922 0.47941406 6.79169922 0.47941406 8.30078125 0.5859375 C11 1 11 1 14 3 C13 6 13 6 11 7 C8.95944995 7.07065617 6.91665743 7.08421976 4.875 7.0625 C3.77929688 7.05347656 2.68359375 7.04445313 1.5546875 7.03515625 C0.29011719 7.01775391 0.29011719 7.01775391 -1 7 C2.44450737 4.70366176 4.93812283 4.45983515 9 4 C4.545 3.01 4.545 3.01 0 2 C0 1.34 0 0.68 0 0 Z " fill="#E4B492" transform="translate(256,408)"/>
<path d="M0 0 C2.31 0 4.62 0 7 0 C5.68 0.33 4.36 0.66 3 1 C2.9175 1.70125 2.835 2.4025 2.75 3.125 C0.8773826 10.30336669 -4.49315571 14.48224911 -10 19 C-10 16 -10 16 -8 13 C-6.9790625 12.505 -6.9790625 12.505 -5.9375 12 C-3.64657009 11.10301684 -3.64657009 11.10301684 -3 8 C-2.34 8 -1.68 8 -1 8 C-1 7.01 -1 6.02 -1 5 C-0.34 5 0.32 5 1 5 C0.67 3.35 0.34 1.7 0 0 Z " fill="#DBB593" transform="translate(276,231)"/>
<path d="M0 0 C4.23322844 0.62045463 7.52290295 2.10523559 11.3125 4.0625 C12.38113281 4.61035156 13.44976562 5.15820312 14.55078125 5.72265625 C15.35902344 6.14417969 16.16726562 6.56570312 17 7 C17 7.99 17 8.98 17 10 C10.33689395 8.24168035 5.1279353 5.6668403 0 1 C0 0.67 0 0.34 0 0 Z " fill="#EBB99D" transform="translate(215,209)"/>
<path d="M0 0 C0.33 0 0.66 0 1 0 C0.47160965 6.47278184 -1.27909765 11.27909765 -6 16 C-6 15.34 -6 14.68 -6 14 C-6.66 14 -7.32 14 -8 14 C-6.67726488 10.40241608 -5.0805802 7.36262865 -2.9375 4.1875 C-2.14666016 3.00220703 -2.14666016 3.00220703 -1.33984375 1.79296875 C-0.89769531 1.20128906 -0.45554688 0.60960937 0 0 Z " fill="#8AAA9B" transform="translate(161,273)"/>
<path d="M0 0 C0 1.32 0 2.64 0 4 C-1.98 4.99 -1.98 4.99 -4 6 C-4 4.68 -4 3.36 -4 2 C-4.81791016 2.2165625 -4.81791016 2.2165625 -5.65234375 2.4375 C-11.24959924 3.81528597 -16.23945745 4.18287437 -22 4 C-15.40395779 0.32351746 -7.43979742 -0.33065766 0 0 Z " fill="#E1B190" transform="translate(252,375)"/>
<path d="M0 0 C0 0.33 0 0.66 0 1 C-1.051875 1.28875 -2.10375 1.5775 -3.1875 1.875 C-6.82450325 2.86900016 -6.82450325 2.86900016 -9.5 4.0625 C-12.63060038 5.23647514 -15.68947735 5.61052675 -19 6 C-18.67 4.68 -18.34 3.36 -18 2 C-11.92972642 -0.1583195 -6.40629424 -0.20852314 0 0 Z " fill="#E2E6C3" transform="translate(90,129)"/>
<path d="M0 0 C1.9375 0.1875 1.9375 0.1875 4 1 C5.72101535 3.58152302 6 4.84918025 6 8 C5.01 8.33 4.02 8.66 3 9 C2.34 9.66 1.68 10.32 1 11 C-0.59555725 7.50971852 -1.32049797 4.84597567 -1 1 C-0.67 0.67 -0.34 0.34 0 0 Z " fill="#8C6E5F" transform="translate(282,68)"/>
<path d="M0 0 C0.66 0 1.32 0 2 0 C2 2.31 2 4.62 2 7 C-1.95096978 7.04939662 -5.9018203 7.08571755 -9.85302734 7.10986328 C-11.8591136 7.12488107 -13.86511324 7.15028981 -15.87109375 7.17578125 C-17.12792969 7.18222656 -18.38476562 7.18867188 -19.6796875 7.1953125 C-20.84226074 7.20578613 -22.00483398 7.21625977 -23.20263672 7.22705078 C-26 7 -26 7 -28 5 C-19.09 5 -10.18 5 -1 5 C-0.67 3.35 -0.34 1.7 0 0 Z " fill="#EBAE8D" transform="translate(371,432)"/>
<path d="M0 0 C1.21236328 0.01353516 1.21236328 0.01353516 2.44921875 0.02734375 C3.37154297 0.04474609 3.37154297 0.04474609 4.3125 0.0625 C4.3125 0.7225 4.3125 1.3825 4.3125 2.0625 C4.9725 2.0625 5.6325 2.0625 6.3125 2.0625 C6.3125 2.7225 6.3125 3.3825 6.3125 4.0625 C2.0225 4.0625 -2.2675 4.0625 -6.6875 4.0625 C-7.0175 3.0725 -7.3475 2.0825 -7.6875 1.0625 C-4.80538698 0.10179566 -2.98899956 -0.04331883 0 0 Z " fill="#58826C" transform="translate(207.6875,410.9375)"/>
<path d="M0 0 C0.66 0.33 1.32 0.66 2 1 C1.44570312 1.38671875 0.89140625 1.7734375 0.3203125 2.171875 C-0.76636719 2.95304687 -0.76636719 2.95304687 -1.875 3.75 C-2.59429687 4.26046875 -3.31359375 4.7709375 -4.0546875 5.296875 C-6.08570565 7.07503547 -6.97855012 8.52701607 -8 11 C-6.35 10.67 -4.7 10.34 -3 10 C-2.67 10.99 -2.34 11.98 -2 13 C-4.97 12.67 -7.94 12.34 -11 12 C-11 9 -11 9 -10 7 C-9.34 7 -8.68 7 -8 7 C-7.979375 6.401875 -7.95875 5.80375 -7.9375 5.1875 C-7 3 -7 3 -3.5625 1.1875 C-2.386875 0.795625 -1.21125 0.40375 0 0 Z " fill="#779884" transform="translate(226,367)"/>
<path d="M0 0 C2.68973586 0.06051149 5.37428778 0.14771897 8.0625 0.25 C8.81466797 0.26417969 9.56683594 0.27835937 10.34179688 0.29296875 C15.94889324 0.53570019 19.32275726 1.89426113 24 5 C24 5.33 24 5.66 24 6 C20.05272412 6.17942163 17.4019487 6.09350689 14 4 C14 3.34 14 2.68 14 2 C13.24074219 2.02320313 12.48148438 2.04640625 11.69921875 2.0703125 C10.70535156 2.08835937 9.71148437 2.10640625 8.6875 2.125 C7.20830078 2.15980469 7.20830078 2.15980469 5.69921875 2.1953125 C3 2 3 2 0 0 Z " fill="#81876B" transform="translate(198,409)"/>
<path d="M0 0 C1.93719378 -0.05406122 3.87481921 -0.09282025 5.8125 -0.125 C6.89144531 -0.14820313 7.97039062 -0.17140625 9.08203125 -0.1953125 C12 0 12 0 15 2 C18.19806665 2.4603764 18.19806665 2.4603764 21.6875 2.625 C23.45673828 2.73714844 23.45673828 2.73714844 25.26171875 2.8515625 C26.61716797 2.92503906 26.61716797 2.92503906 28 3 C28 3.33 28 3.66 28 4 C21.09170104 5.10839509 15.71041915 4.68610901 8.9375 3.0625 C8.07189453 2.86720703 7.20628906 2.67191406 6.31445312 2.47070312 C4.20669806 1.99325584 2.10288811 1.49844652 0 1 C0 0.67 0 0.34 0 0 Z " fill="#ECC0A5" transform="translate(160,402)"/>
<path d="M0 0 C1.77444057 0.59348861 3.54445553 1.20022001 5.3125 1.8125 C6.29863281 2.14894531 7.28476563 2.48539062 8.30078125 2.83203125 C10.87129759 3.94430967 12.22191977 4.88208191 14 7 C10.30962722 8.37095624 8.29116165 7.60010967 4.75 6.0625 C3.85796875 5.68222656 2.9659375 5.30195313 2.046875 4.91015625 C1.37140625 4.60980469 0.6959375 4.30945313 0 4 C0 2.68 0 1.36 0 0 Z " fill="#557D6B" transform="translate(189,364)"/>
<path d="M0 0 C4.29 0.33 8.58 0.66 13 1 C9.38863788 2.80568106 8.455469 3.24851563 4.75 3.125 C2.89375 3.063125 2.89375 3.063125 1 3 C1.02320313 3.69867188 1.04640625 4.39734375 1.0703125 5.1171875 C1.08835938 6.02726563 1.10640625 6.93734375 1.125 7.875 C1.14820313 8.77992188 1.17140625 9.68484375 1.1953125 10.6171875 C1 13 1 13 -1 15 C-1.02749766 13.62511713 -1.0466164 12.25006609 -1.0625 10.875 C-1.07410156 10.10929688 -1.08570313 9.34359375 -1.09765625 8.5546875 C-1 6 -1 6 0 0 Z " fill="#EBAC8C" transform="translate(195,123)"/>
<path d="M0 0 C0.99 0.33 1.98 0.66 3 1 C4.66752822 6.28050604 5.41129975 11.50546433 6 17 C1.27920994 11.64977126 -0.33939723 7.12734186 0 0 Z " fill="#EBBEA2" transform="translate(126,371)"/>
<path d="M0 0 C2.31 0.66 4.62 1.32 7 2 C7 3.32 7 4.64 7 6 C5.35 6.33 3.7 6.66 2 7 C2.66 7.66 3.32 8.32 4 9 C3.01 9.33 2.02 9.66 1 10 C1 9.34 1 8.68 1 8 C0.34 8 -0.32 8 -1 8 C-0.67 5.36 -0.34 2.72 0 0 Z " fill="#9F8477" transform="translate(294,78)"/>
<path d="M0 0 C0.66 0 1.32 0 2 0 C2.74805717 7.02639415 3.13794954 13.93391809 3 21 C0.44340094 16.05724182 -0.11373522 12.39713851 -0.0625 6.8125 C-0.05347656 5.54019531 -0.04445313 4.26789063 -0.03515625 2.95703125 C-0.02355469 1.98121094 -0.01195312 1.00539063 0 0 Z " fill="#8AA793" transform="translate(328,403)"/>
<path d="M0 0 C3.51911349 1.31030822 6.57690959 2.87367174 9.75 4.875 C14.34430168 7.68952716 19.02072381 9.95536968 24 12 C21 13 21 13 18.36328125 11.9609375 C1.63148789 3.26297578 1.63148789 3.26297578 0 0 Z " fill="#D09D7D" transform="translate(153,332)"/>
<path d="M0 0 C6.6 0.66 13.2 1.32 20 2 C15.33823953 5.10784031 10.46513044 4.37442264 5 4 C1.25 3 1.25 3 -1 2 C-0.67 1.34 -0.34 0.68 0 0 Z " fill="#DBB594" transform="translate(240,250)"/>
<path d="M0 0 C2.71693081 4.97544942 3.70555613 10.00590924 2.390625 15.5859375 C1.66342694 17.76067131 0.8849825 19.88504182 0 22 C-0.96891184 18.87077361 -0.97996657 16.48665439 -0.5625 13.25 C-0.04631463 8.78962899 0.08309793 4.48728847 0 0 Z " fill="#EDC0A3" transform="translate(304,148)"/>
<path d="M0 0 C2.55271658 3.82907487 2.25857606 6.94583912 2.1875 11.375 C2.18685547 12.13039063 2.18621094 12.88578125 2.18554688 13.6640625 C2.15483499 17.56788467 1.94897317 21.18892377 1 25 C0.67 25 0.34 25 0 25 C-1.04287319 18.97451048 -0.83303056 13.61470616 -0.15625 7.5390625 C0.21249928 5.00724277 0.21249928 5.00724277 -1 3 C-0.67 2.01 -0.34 1.02 0 0 Z " fill="#A98F83" transform="translate(310,104)"/>
<path d="M0 0 C4.99275057 1.27721526 7.57611908 3.17330957 11 7 C9.68 7 8.36 7 7 7 C6.67 7.66 6.34 8.32 6 9 C2.10040985 6.35834215 1.4782541 4.43476231 0 0 Z " fill="#937165" transform="translate(267,63)"/>
<path d="M0 0 C0 0.99 0 1.98 0 3 C1.65 3 3.3 3 5 3 C5.33 3.66 5.66 4.32 6 5 C4.58344207 5.0272415 3.16672955 5.04650467 1.75 5.0625 C0.56664062 5.07990234 0.56664062 5.07990234 -0.640625 5.09765625 C-2.90691002 5.00385306 -4.8288895 4.63241063 -7 4 C-6.67 2.68 -6.34 1.36 -6 0 C-2.25 -1.125 -2.25 -1.125 0 0 Z M-9 4 C-8.34 4.33 -7.68 4.66 -7 5 C-7.99 5 -8.98 5 -10 5 C-9.67 4.67 -9.34 4.34 -9 4 Z " fill="#B4D8E4" transform="translate(338,222)"/>
<path d="M0 0 C0.66 0.99 1.32 1.98 2 3 C0.80620288 5.82170228 -0.46032317 7.50523275 -2.5625 9.8125 C-5.31354766 12.97620481 -5.74869992 15.81166533 -6 20 C-6.33 20 -6.66 20 -7 20 C-7.48279288 15.17207121 -7.82060585 11.34532299 -4.625 7.4375 C-2 5 -2 5 0 5 C0 3.35 0 1.7 0 0 Z " fill="#EEC1A7" transform="translate(280,191)"/>
<path d="M0 0 C3.73959528 3.73959528 3.05603539 8.85200021 3.0625 13.875 C3.04655506 15.58338595 3.02735618 17.29175867 3 19 C2.67 19 2.34 19 2 19 C0.04978464 12.53991163 -0.22262303 6.7281627 0 0 Z " fill="#E4E6C4" transform="translate(444,146)"/>
<path d="M0 0 C1.48285242 0.95262034 2.96118201 1.91228405 4.4375 2.875 C5.67306641 3.67550781 5.67306641 3.67550781 6.93359375 4.4921875 C9 6 9 6 10 8 C7.6875 8.1875 7.6875 8.1875 5 8 C3.4375 6.5625 3.4375 6.5625 2 5 C-0.10332891 4.28552357 -0.10332891 4.28552357 -2 4 C-1.34 2.68 -0.68 1.36 0 0 Z " fill="#DBA07B" transform="translate(143,324)"/>
<path d="M0 0 C0.66 0.33 1.32 0.66 2 1 C1.67 2.32 1.34 3.64 1 5 C-5.6 5.33 -12.2 5.66 -19 6 C-18.67 5.34 -18.34 4.68 -18 4 C-12.06 3.67 -6.12 3.34 0 3 C0 2.01 0 1.02 0 0 Z " fill="#E8B391" transform="translate(272,402)"/>
<path d="M0 0 C1.32 0.33 2.64 0.66 4 1 C3.55530671 6.03985731 1.28656638 8.37634988 -2 12 C-3.15957207 8.52128379 -2.77456651 7.65780355 -1.5625 4.3125 C-1.13130859 3.10013672 -1.13130859 3.10013672 -0.69140625 1.86328125 C-0.46324219 1.24839844 -0.23507812 0.63351562 0 0 Z " fill="#A8997C" transform="translate(274,401)"/>
<path d="M0 0 C0.99 0.33 1.98 0.66 3 1 C2.67 1.66 2.34 2.32 2 3 C2.66 3 3.32 3 4 3 C4.33 2.34 4.66 1.68 5 1 C5.87867729 4.73437848 6.08912219 8.16774573 6 12 C3.32289809 10.66144904 3.04870906 9.27941912 1.875 6.5625 C1.52179688 5.75941406 1.16859375 4.95632812 0.8046875 4.12890625 C0 2 0 2 0 0 Z " fill="#A18170" transform="translate(186,147)"/>
<path d="M0 0 C2.64 0 5.28 0 8 0 C7.67 0.66 7.34 1.32 7 2 C5.35 2 3.7 2 2 2 C2 5.63 2 9.26 2 13 C1.67 13 1.34 13 1 13 C0.67 8.71 0.34 4.42 0 0 Z " fill="#C79F83" transform="translate(324,347)"/>
<path d="M0 0 C6.40818182 -0.36272727 6.40818182 -0.36272727 8.9375 1.1875 C10.40319823 3.68780874 10.49852135 5.15130656 10 8 C8 9.8125 8 9.8125 6 11 C6.20625 10.071875 6.4125 9.14375 6.625 8.1875 C7.36692966 4.84826598 7.36692966 4.84826598 5 2 C2.43717258 1.27034634 2.43717258 1.27034634 0 1 C0 0.67 0 0.34 0 0 Z " fill="#D8E4DB" transform="translate(330,176)"/>
<path d="M0 0 C0.33 0.66 0.66 1.32 1 2 C0.01 2.66 -0.98 3.32 -2 4 C-2.33 4.99 -2.66 5.98 -3 7 C-3.66 7 -4.32 7 -5 7 C-5.33 7.99 -5.66 8.98 -6 10 C-6.66 10 -7.32 10 -8 10 C-8.66 11.32 -9.32 12.64 -10 14 C-9.47616397 9.89542181 -8.34834816 7.78489488 -5.5625 4.75 C-4.94503906 4.06421875 -4.32757813 3.3784375 -3.69140625 2.671875 C-2 1 -2 1 0 0 Z " fill="#D2E0D2" transform="translate(367,152)"/>
<path d="M0 0 C0.94875 0.04125 1.8975 0.0825 2.875 0.125 C2.235625 0.57875 1.59625 1.0325 0.9375 1.5 C-1.22202406 2.96421726 -1.22202406 2.96421726 -2.125 5.125 C-2.785 5.125 -3.445 5.125 -4.125 5.125 C-3.795 7.105 -3.465 9.085 -3.125 11.125 C-4.6875 10 -4.6875 10 -6.125 8.125 C-5.82407237 3.20984866 -5.44209257 0.2176837 0 0 Z " fill="#E1E7D1" transform="translate(146.125,136.875)"/>
<path d="M0 0 C6.20988129 0.44356295 10.60540561 1.91532502 16 5 C12.98968256 5.93423645 12.13349732 6.04449911 9 5 C9 4.34 9 3.68 9 3 C5.7 2.67 2.4 2.34 -1 2 C-0.67 1.34 -0.34 0.68 0 0 Z " fill="#E4E6C4" transform="translate(417,126)"/>
<path d="M0 0 C1.5 1.125 1.5 1.125 3 3 C3.1875 6.1875 3.1875 6.1875 3 9 C2.34 9 1.68 9 1 9 C0.34 9.99 -0.32 10.98 -1 12 C-1.14285714 3.42857143 -1.14285714 3.42857143 0 0 Z " fill="#D9BB9E" transform="translate(326,356)"/>
<path d="M0 0 C-1.56020867 0.65134925 -3.12328579 1.29582964 -4.6875 1.9375 C-5.55761719 2.29714844 -6.42773438 2.65679687 -7.32421875 3.02734375 C-9.88179265 3.9570312 -12.3221323 4.54162625 -15 5 C-15 4.01 -15 3.02 -15 2 C-13.25364835 1.46706165 -11.50272348 0.94909337 -9.75 0.4375 C-8.77546875 0.14746094 -7.8009375 -0.14257812 -6.796875 -0.44140625 C-4.03756068 -0.99249836 -2.6087176 -0.93789609 0 0 Z " fill="#838C71" transform="translate(356,339)"/>
<path d="M0 0 C2.64 0.66 5.28 1.32 8 2 C8 2.99 8 3.98 8 5 C8.639375 5.103125 9.27875 5.20625 9.9375 5.3125 C10.618125 5.539375 11.29875 5.76625 12 6 C12.33 6.99 12.66 7.98 13 9 C7.97290493 7.42903279 3.97133531 4.38006951 0 1 C0 0.67 0 0.34 0 0 Z " fill="#808E76" transform="translate(140,321)"/>
<path d="M0 0 C1.32 0 2.64 0 4 0 C4 0.99 4 1.98 4 3 C5.65 3.33 7.3 3.66 9 4 C8.34 5.65 7.68 7.3 7 9 C4.03595495 6.19195732 1.55500981 3.81684226 0 0 Z " fill="#F0BCA2" transform="translate(205,198)"/>
<path d="M0 0 C0.66 0 1.32 0 2 0 C5.12940055 3.97193147 5.29162929 7.04230204 5 12 C2.43470546 10.71735273 2.33500137 9.77227651 1.375 7.125 C1.11460937 6.42632812 0.85421875 5.72765625 0.5859375 5.0078125 C0 3 0 3 0 0 Z " fill="#EEBFA5" transform="translate(198,181)"/>
<path d="M0 0 C0 0.66 0 1.32 0 2 C-3.49655387 4.6020866 -6.89160936 6.54997977 -11 8 C-8.13593433 2.70147851 -6.25023086 0 0 0 Z " fill="#9B8072" transform="translate(196,67)"/>
<path d="M0 0 C0.33 0 0.66 0 1 0 C1.02725341 1.7290774 1.04650987 3.45828176 1.0625 5.1875 C1.07410156 6.15042969 1.08570313 7.11335937 1.09765625 8.10546875 C1.00486622 10.85576513 0.62111685 13.32479591 0 16 C-0.99 15.67 -1.98 15.34 -3 15 C-3.33 13.35 -3.66 11.7 -4 10 C-2.68 10 -1.36 10 0 10 C0 6.7 0 3.4 0 0 Z " fill="#EECCAD" transform="translate(231,222)"/>
<path d="M0 0 C-2.39763185 2.39763185 -3.33273498 2.34280586 -6.625 2.625 C-7.44226563 2.69976562 -8.25953125 2.77453125 -9.1015625 2.8515625 C-9.72804688 2.90054688 -10.35453125 2.94953125 -11 3 C-11.33 4.65 -11.66 6.3 -12 8 C-12.33 8 -12.66 8 -13 8 C-13 6.35 -13 4.7 -13 3 C-8.37802694 0.78145293 -5.23175837 -0.38281159 0 0 Z " fill="#F0CEB6" transform="translate(299,175)"/>
<path d="M0 0 C2.50356732 3.75535098 1.9608592 4.86889414 1.125 9.1875 C0.92132813 10.27417969 0.71765625 11.36085938 0.5078125 12.48046875 C0.34023437 13.31191406 0.17265625 14.14335937 0 15 C-0.66 14.67 -1.32 14.34 -2 14 C-1.34 9.38 -0.68 4.76 0 0 Z " fill="#E9BFA8" transform="translate(127,354)"/>
<path d="M0 0 C2.91517292 1.07401108 4.77810176 1.77810176 7 4 C8.98356483 4.71408334 10.98315437 5.38617742 13 6 C13 6.66 13 7.32 13 8 C8.55495127 6.86694836 4.72230027 5.73698549 1 3 C0.67 2.01 0.34 1.02 0 0 Z " fill="#7C7E60" transform="translate(166,337)"/>
<path d="M0 0 C2.61109045 3.82959933 1.86230768 6.8261539 1.125 11.25 C0.92132813 12.51328125 0.71765625 13.7765625 0.5078125 15.078125 C0.34023438 16.04234375 0.17265625 17.0065625 0 18 C-0.33 18 -0.66 18 -1 18 C-1.02698422 15.56242587 -1.04683099 13.12515085 -1.0625 10.6875 C-1.07087891 9.99720703 -1.07925781 9.30691406 -1.08789062 8.59570312 C-1.10307906 5.4516975 -1.00193327 3.00579981 0 0 Z " fill="#E1E6CD" transform="translate(53,153)"/>
<path d="M0 0 C6.16618181 -0.40214229 11.17745757 1.03181664 17 3 C17 3.33 17 3.66 17 4 C13.7 4 10.4 4 7 4 C6.67 3.34 6.34 2.68 6 2 C2.97065509 1.34227572 2.97065509 1.34227572 0 1 C0 0.67 0 0.34 0 0 Z " fill="#9D8876" transform="translate(196,66)"/>
<path d="M0 0 C2.5 1.8125 2.5 1.8125 5 4 C5 4.99 5 5.98 5 7 C2.69 6.67 0.38 6.34 -2 6 C-1.34 5.67 -0.68 5.34 0 5 C0 3.35 0 1.7 0 0 Z " fill="#C7DAE1" transform="translate(169,227)"/>
<path d="M0 0 C0.70125 0.433125 1.4025 0.86625 2.125 1.3125 C5.02557406 3.01501086 7.97870875 4.52448567 11 6 C7.06329512 7.31223496 4.87511856 6.24296256 1 5 C0.67 3.35 0.34 1.7 0 0 Z " fill="#D4B08E" transform="translate(188,367)"/>
<path d="M0 0 C0.7425 0.61875 1.485 1.2375 2.25 1.875 C4.48801188 3.60437281 6.43739987 4.86106661 9 6 C9 6.66 9 7.32 9 8 C6.69 7.34 4.38 6.68 2 6 C2 5.34 2 4.68 2 4 C1.01 4 0.02 4 -1 4 C-0.67 2.68 -0.34 1.36 0 0 Z " fill="#C2DCDE" transform="translate(131,208)"/>
<path d="M0 0 C1.3921875 0.3403125 1.3921875 0.3403125 2.8125 0.6875 C3.4725 2.6675 4.1325 4.6475 4.8125 6.6875 C4.1525 6.6875 3.4925 6.6875 2.8125 6.6875 C2.4825 5.3675 2.1525 4.0475 1.8125 2.6875 C-0.8275 2.6875 -3.4675 2.6875 -6.1875 2.6875 C-4.14987265 -0.14253799 -3.59070275 -0.35202968 0 0 Z " fill="#D6E8E2" transform="translate(160.1875,179.3125)"/>
<path d="M0 0 C0.66 0 1.32 0 2 0 C1.38545304 3.99455527 -0.70646737 6.74466336 -3 10 C-3.75 8.375 -3.75 8.375 -4 6 C-2.1875 2.75 -2.1875 2.75 0 0 Z " fill="#E2A381" transform="translate(288,145)"/>
<path d="M0 0 C3.21043882 1.38188453 5.04936365 2.92421903 7.25 5.625 C8.03117187 6.57246094 8.03117187 6.57246094 8.828125 7.5390625 C9.40820312 8.26222656 9.40820312 8.26222656 10 9 C9.67 9.66 9.34 10.32 9 11 C8.01 10.67 7.02 10.34 6 10 C5.32558869 8.3364521 4.6599679 6.66933058 4 5 C2.70529025 3.62913085 1.37849103 2.28659163 0 1 C0 0.67 0 0.34 0 0 Z " fill="#E6EAC6" transform="translate(433,132)"/>
<path d="M0 0 C3.057952 1.73559438 5.63379989 3.38472619 8 6 C7.67 6.66 7.34 7.32 7 8 C6.01 7.34 5.02 6.68 4 6 C3.01 6 2.02 6 1 6 C0.4465236 3.92446352 0 2.15634036 0 0 Z " fill="#9F8471" transform="translate(298,87)"/>
<path d="M0 0 C0.99 0.33 1.98 0.66 3 1 C2.67 2.65 2.34 4.3 2 6 C-2.29 6 -6.58 6 -11 6 C-11 5.67 -11 5.34 -11 5 C-5.555 4.505 -5.555 4.505 0 4 C0 2.68 0 1.36 0 0 Z " fill="#A5BBAD" transform="translate(330,434)"/>
<path d="M0 0 C3.96 0 7.92 0 12 0 C11.67 0.99 11.34 1.98 11 3 C9.35333797 2.8864371 7.70763918 2.75882619 6.0625 2.625 C5.14597656 2.55539062 4.22945313 2.48578125 3.28515625 2.4140625 C2.15400391 2.20910156 2.15400391 2.20910156 1 2 C0.67 1.34 0.34 0.68 0 0 Z " fill="#CA9C78" transform="translate(256,397)"/>
<path d="M0 0 C0.66 0.33 1.32 0.66 2 1 C-3.445 5.455 -3.445 5.455 -9 10 C-9 9.01 -9 8.02 -9 7 C-7.03125 5.17578125 -7.03125 5.17578125 -4.5 3.3125 C-3.6646875 2.68988281 -2.829375 2.06726563 -1.96875 1.42578125 C-1.3190625 0.95527344 -0.669375 0.48476562 0 0 Z " fill="#E9E9C7" transform="translate(69,132)"/>
<path d="M0 0 C1.9375 0.3125 1.9375 0.3125 4 1 C4.33 1.99 4.66 2.98 5 4 C1.78548731 5.60725635 -1.43612536 5.05748185 -5 5 C-5 4.67 -5 4.34 -5 4 C-3.35 3.67 -1.7 3.34 0 3 C0 2.01 0 1.02 0 0 Z " fill="#D4B293" transform="translate(256,417)"/>
<path d="M0 0 C1.65 0 3.3 0 5 0 C5.93423645 3.01031744 6.04449911 3.86650268 5 7 C2.4375 8.1875 2.4375 8.1875 0 9 C0.66 7.68 1.32 6.36 2 5 C2.66 5 3.32 5 4 5 C4 3.68 4 2.36 4 1 C2.68 0.67 1.36 0.34 0 0 Z " fill="#B9997D" transform="translate(248,374)"/>
<path d="M0 0 C-0.33 0.99 -0.66 1.98 -1 3 C-4.0625 4.1875 -4.0625 4.1875 -7 5 C-7 4.34 -7 3.68 -7 3 C-8.32 2.67 -9.64 2.34 -11 2 C-3.375 0 -3.375 0 0 0 Z " fill="#8BA99B" transform="translate(222,233)"/>
<path d="M0 0 C-0.33 1.65 -0.66 3.3 -1 5 C-1.99 5.33 -2.98 5.66 -4 6 C-4.33 4.35 -4.66 2.7 -5 1 C-3 0 -3 0 0 0 Z " fill="#BFE5DF" transform="translate(162,182)"/>
<path d="M0 0 C6.75 -0.125 6.75 -0.125 9 1 C9 1.99 9 2.98 9 4 C6.03 3.01 3.06 2.02 0 1 C0 0.67 0 0.34 0 0 Z " fill="#EBC1AB" transform="translate(223,215)"/>
<path d="M0 0 C0.66 0 1.32 0 2 0 C2 3.3 2 6.6 2 10 C1.01 10.495 1.01 10.495 0 11 C-1.125 3.375 -1.125 3.375 0 0 Z " fill="#CDE1DB" transform="translate(142,172)"/>
<path d="M0 0 C2.475 0.495 2.475 0.495 5 1 C5.33 3.31 5.66 5.62 6 8 C1.125 3.375 1.125 3.375 0 0 Z " fill="#9B7D6E" transform="translate(171,110)"/>
<path d="M0 0 C0.66 0.99 1.32 1.98 2 3 C1.34 3 0.68 3 0 3 C0.185625 3.495 0.37125 3.99 0.5625 4.5 C1.20139296 8.15081689 0.54905291 11.33964724 0 15 C-0.33 15 -0.66 15 -1 15 C-1.91457003 9.43842552 -2.32086397 5.324335 0 0 Z " fill="#AD9388" transform="translate(170,91)"/>
<path d="M0 0 C1.258125 -0.020625 2.51625 -0.04125 3.8125 -0.0625 C4.52019531 -0.07410156 5.22789062 -0.08570313 5.95703125 -0.09765625 C8 0 8 0 11 1 C11 1.66 11 2.32 11 3 C9.54077307 2.88590407 8.08259402 2.75834456 6.625 2.625 C5.40683594 2.52058594 5.40683594 2.52058594 4.1640625 2.4140625 C2 2 2 2 0 0 Z " fill="#E6B692" transform="translate(208,408)"/>
<path d="M0 0 C0.79921875 0.00902344 1.5984375 0.01804687 2.421875 0.02734375 C3.02515625 0.03894531 3.6284375 0.05054687 4.25 0.0625 C0.99874983 2.23000011 -0.89533632 2.74783358 -4.75 3.0625 C-7.125 2.125 -7.125 2.125 -8.75 1.0625 C-5.75519083 0.1901588 -3.11424089 -0.04579766 0 0 Z " fill="#E5E7CB" transform="translate(411.75,125.9375)"/>
<path d="M0 0 C2.97 0.33 5.94 0.66 9 1 C9 1.99 9 2.98 9 4 C5.17902761 3.46930939 2.93828597 2.50298434 0 0 Z " fill="#EAC0A3" transform="translate(141,395)"/>
<path d="M0 0 C5.75 0.875 5.75 0.875 8 2 C8 2.66 8 3.32 8 4 C5.36 3.67 2.72 3.34 0 3 C0 2.01 0 1.02 0 0 Z " fill="#5B8670" transform="translate(264,360)"/>
<path d="M0 0 C0.97608217 2.92824652 1.08226668 4.95613276 1 8 C0.01 8.495 0.01 8.495 -1 9 C-2.1875 6.75 -2.1875 6.75 -3 4 C-1.625 1.6875 -1.625 1.6875 0 0 Z " fill="#C5E3DB" transform="translate(366,189)"/>
<path d="M0 0 C2.97 0.33 5.94 0.66 9 1 C9 1.66 9 2.32 9 3 C6.1875 3.1875 6.1875 3.1875 3 3 C2.01 2.01 1.02 1.02 0 0 Z " fill="#9A8B6F" transform="translate(215,379)"/>
<path d="M0 0 C1.48206495 0.254496 2.96068615 0.52911762 4.4375 0.8125 C5.67306641 1.03873047 5.67306641 1.03873047 6.93359375 1.26953125 C7.95646484 1.63111328 7.95646484 1.63111328 9 2 C9.33 2.99 9.66 3.98 10 5 C8.51800098 4.55090939 7.03944764 4.09043436 5.5625 3.625 C4.73878906 3.36976563 3.91507813 3.11453125 3.06640625 2.8515625 C1 2 1 2 0 0 Z " fill="#747D63" transform="translate(189,368)"/>
<path d="M0 0 C2.31 0 4.62 0 7 0 C5.68 0.33 4.36 0.66 3 1 C2.87625 1.78375 2.7525 2.5675 2.625 3.375 C2 6 2 6 0 8 C0 5.36 0 2.72 0 0 Z " fill="#D4C0A5" transform="translate(276,231)"/>
<path d="M0 0 C2.0625 0.4375 2.0625 0.4375 4 1 C4 1.66 4 2.32 4 3 C3.01 3.495 3.01 3.495 2 4 C1.67 4.99 1.34 5.98 1 7 C0.34 6.67 -0.32 6.34 -1 6 C-1.042721 4.33388095 -1.04063832 2.66617115 -1 1 C-0.67 0.67 -0.34 0.34 0 0 Z " fill="#AA9184" transform="translate(282,68)"/>
<path d="M0 0 C0.66 0 1.32 0 2 0 C2 2.31 2 4.62 2 7 C0.35 7 -1.3 7 -3 7 C-2.34 6.34 -1.68 5.68 -1 5 C-0.35232207 2.42938689 -0.35232207 2.42938689 0 0 Z " fill="#E1B194" transform="translate(371,432)"/>
<path d="M0 0 C2.64 0.33 5.28 0.66 8 1 C8.33 1.99 8.66 2.98 9 4 C6.03 3.67 3.06 3.34 0 3 C0 2.01 0 1.02 0 0 Z " fill="#84917B" transform="translate(215,376)"/>
<path d="M0 0 C0.66 0.33 1.32 0.66 2 1 C1.01 1.33 0.02 1.66 -1 2 C-1 2.66 -1 3.32 -1 4 C-2.875 4.625 -2.875 4.625 -5 5 C-5.66 4.34 -6.32 3.68 -7 3 C-4.69631264 1.93347808 -2.35981813 0.93578995 0 0 Z " fill="#9AB6A5" transform="translate(199,239)"/>
<path d="M0 0 C0.66 0.66 1.32 1.32 2 2 C1.625 4.625 1.625 4.625 1 7 C0.01 7 -0.98 7 -2 7 C-1.125 2.25 -1.125 2.25 0 0 Z " fill="#89A596" transform="translate(139,313)"/>
<path d="M0 0 C1.98 0.66 3.96 1.32 6 2 C5.01 3.485 5.01 3.485 4 5 C3.01 4.67 2.02 4.34 1 4 C0.3125 1.9375 0.3125 1.9375 0 0 Z " fill="#84A997" transform="translate(315,239)"/>
<path d="M0 0 C0.99 0.33 1.98 0.66 3 1 C0.36 2.98 -2.28 4.96 -5 7 C-3.38262276 3.76524552 -2.52370777 2.29427979 0 0 Z " fill="#DEE7D0" transform="translate(437,183)"/>
</svg>
