<?xml version="1.0" encoding="UTF-8"?>
<svg version="1.1" xmlns="http://www.w3.org/2000/svg" width="500" height="500">
<path d="M0 0 C0.99 0.66 1.98 1.32 3 2 C4.216875 1.814375 5.43375 1.62875 6.6875 1.4375 C12.46492829 0.58353706 16.53735252 2.27018188 21.2578125 5.5859375 C24.09569719 7.78890561 26.90773743 10.0033104 29.5625 12.42578125 C34.22676772 16.34911061 39.5266951 17.31969557 45.40258789 18.39331055 C48.82251708 19.09244359 50.6760637 19.62451391 52.98828125 22.3046875 C54.36610147 25.97532824 54.04780966 28.85160077 53.71484375 32.6953125 C53.80894531 33.45585938 53.90304687 34.21640625 54 35 C55.31432225 36.02485842 56.64818278 37.02513181 58 38 C58.84611884 41.06353373 58.60054317 43.89630789 58 47 C55.45371651 51.21728203 53.47192025 52.91532171 49 54.8125 C44.5980848 56.79088885 43.28279666 59.46035112 41.2109375 63.6875 C38.86883285 68.16016437 35.60157125 71.80908804 31.5625 74.8125 C28.9939494 77.00516515 27.50753346 79.0285307 25.625 81.8125 C20.42784684 89.45074025 14.68327399 95.88949242 5.625 98.75 C1.74840647 99.11919938 -2.10937305 99.0762868 -6 99 C-6.66 100.65 -7.32 102.3 -8 104 C-7.20335937 104.65355469 -7.20335937 104.65355469 -6.390625 105.3203125 C-0.09814171 110.62528929 4.52345499 115.65601038 6 124 C6.29146537 128.50243183 6.2840434 132.98954823 6.25 137.5 C6.24202393 139.37171875 6.24202393 139.37171875 6.23388672 141.28125 C6.00010672 164.00821682 6.00010672 164.00821682 2 171 C1.01 171 0.02 171 -1 171 C-1.14695312 171.58265625 -1.29390625 172.1653125 -1.4453125 172.765625 C-4.10855269 182.50022707 -7.70558003 190.9493158 -14.9375 198.125 C-18.08738228 201.31875087 -18.08738228 201.31875087 -19.3515625 205.45703125 C-19.0999486 207.94664543 -19.0999486 207.94664543 -18.54296875 210.3984375 C-17.92872595 213.34150015 -17.86335845 216.05898049 -17.875 219.0625 C-17.87113281 220.44115234 -17.87113281 220.44115234 -17.8671875 221.84765625 C-18 224 -18 224 -19 225 C-18.43158114 232.80991943 -17.28385235 240.56348836 -16.23510742 248.32104492 C-15.21805655 255.84420952 -14.24209748 263.37271533 -13.2713623 270.90197754 C-13.04061749 272.68596816 -12.80633126 274.46950016 -12.57128906 276.25292969 C-9.20825736 302.36644216 -10.80732072 328.9381627 -12.375 355.125 C-12.43803314 356.18818451 -12.50106628 357.25136902 -12.56600952 358.34677124 C-12.75296471 361.44262348 -12.94822571 364.53779083 -13.1484375 367.6328125 C-13.21055923 368.61262589 -13.27268097 369.59243927 -13.33668518 370.60194397 C-13.64605665 375.13098646 -14.04562041 379.60300572 -14.72363281 384.09277344 C-14.83816803 384.87312958 -14.95270325 385.65348572 -15.07070923 386.45748901 C-15.29152811 387.8866392 -15.5363849 389.31239056 -15.81088257 390.73220825 C-16.20490701 392.86678603 -16.20490701 392.86678603 -16 396 C-12.57639892 400.5085834 -9.03420926 402.56233687 -3.4831543 403.36303711 C-2.60570557 403.4172583 -1.72825684 403.47147949 -0.82421875 403.52734375 C0.65389282 403.62970337 0.65389282 403.62970337 2.16186523 403.73413086 C3.20157471 403.80124268 4.24128418 403.86835449 5.3125 403.9375 C17.9820036 404.8771477 31.20795659 405.91722267 43 411 C44.2265625 413.09765625 44.2265625 413.09765625 45 415 C11.72398453 439.096425 -74.54675504 427.63413531 -113.234375 421.93896484 C-116.51803173 421.39333999 -119.7507109 420.72528774 -123 420 C-124.7015625 419.64421875 -124.7015625 419.64421875 -126.4375 419.28125 C-133.58942229 417.60273763 -133.58942229 417.60273763 -135.34375 415.02734375 C-136 413 -136 413 -135 411 C-120.44417734 404.36958968 -103.6851155 404.60511105 -88 404 C-87.855625 402.88625 -87.71125 401.7725 -87.5625 400.625 C-87 397 -87 397 -86 395 C-86.66 395 -87.32 395 -88 395 C-88.32597701 389.31319586 -88.63519326 383.62560912 -88.9375 377.9375 C-88.9852356 377.0532132 -89.03297119 376.16892639 -89.08215332 375.25784302 C-89.64995839 364.58718392 -90.06740958 353.93626457 -90.14453125 343.25 C-90.33738035 319.33113831 -92.04916191 296.54490335 -96.29394531 272.99902344 C-97.24572613 267.68488758 -98.01538244 262.34799585 -98.75 257 C-98.91967285 255.79065796 -98.91967285 255.79065796 -99.09277344 254.55688477 C-99.39866387 252.37172069 -99.69999363 250.18597862 -100 248 C-100.09764648 247.29568848 -100.19529297 246.59137695 -100.29589844 245.86572266 C-101.26436374 238.86635982 -102.19198229 231.91569581 -102.55859375 224.85546875 C-102.87458765 222.59171517 -102.87458765 222.59171517 -106 221 C-106.8657056 212.77579681 -105.73822353 200.47644706 -102 193 C-102.969375 192.95875 -103.93875 192.9175 -104.9375 192.875 C-111.34523561 191.95218209 -116.80544809 187.63933208 -121 182.875 C-123.74105263 178.93473684 -123.74105263 178.93473684 -124 176 C-124.103125 174.865625 -124.20625 173.73125 -124.3125 172.5625 C-124.01343724 159.05483207 -116.21961785 147.82942677 -109 137 C-108.7525 135.948125 -108.505 134.89625 -108.25 133.8125 C-107.02650505 129.19479324 -104.27792241 125.42934817 -101 122 C-100.34 122 -99.68 122 -99 122 C-98.7525 121.43667969 -98.505 120.87335938 -98.25 120.29296875 C-92.01053037 108.84744164 -79.38485129 97.95749884 -67 94 C-60.4065771 92.64553716 -53.76132416 92.88799192 -47.0625 92.9375 C-45.90169922 92.94201172 -44.74089844 92.94652344 -43.54492188 92.95117188 C-40.69656066 92.96289353 -37.84830778 92.9793024 -35 93 C-29.82257144 85.81691722 -28.38185627 80.27987273 -28.3125 71.5 C-28.29380859 70.61538086 -28.27511719 69.73076172 -28.25585938 68.81933594 C-28.29821586 66.42619439 -28.39459348 64.316338 -29 62 C-31.3651764 60.02242165 -31.3651764 60.02242165 -34 59 C-34.91476665 56.25570004 -35.19238444 54.40966906 -35.25 51.5625 C-35.27578125 50.80066406 -35.3015625 50.03882813 -35.328125 49.25390625 C-35 47 -35 47 -33.57421875 45.22265625 C-31.31914111 42.03868807 -31.08727623 38.64943142 -30.5625 34.875 C-29.20577062 26.29908537 -27.57623371 17.2108874 -21 11 C-18.93329975 9.92013901 -16.87023553 8.96074418 -14.70703125 8.08984375 C-12.79545885 7.11735727 -12.79545885 7.11735727 -12.26171875 4.87890625 C-12.13216797 3.94884766 -12.13216797 3.94884766 -12 3 C-10.948125 3.2475 -9.89625 3.495 -8.8125 3.75 C-4.94633751 4.3889842 -4.94633751 4.3889842 -2.0625 2.0625 C-1.381875 1.381875 -0.70125 0.70125 0 0 Z M-54 277 C-54.03963867 277.98129883 -54.07927734 278.96259766 -54.12011719 279.97363281 C-55.52633045 313.999532 -57.8408363 348.01815099 -62.70458984 381.74316406 C-63.14014018 385.07062461 -63.43883156 388.40859407 -63.72973633 391.75146484 C-64 394 -64 394 -64.6394043 396.15478516 C-64.75840088 396.76370605 -64.87739746 397.37262695 -65 398 C-62.78132865 400.77333918 -61.39379675 401.86873442 -58 403 C-56.60384892 403.09137566 -55.20382391 403.13065667 -53.8046875 403.1328125 C-53.00675781 403.13410156 -52.20882812 403.13539063 -51.38671875 403.13671875 C-50.55785156 403.13285156 -49.72898437 403.12898438 -48.875 403.125 C-48.03839844 403.12886719 -47.20179688 403.13273437 -46.33984375 403.13671875 C-42.35284244 403.53149953 -42.35284244 403.53149953 -39 402 C-38.86712214 398.14654196 -38.89956407 394.664359 -39.4765625 390.84765625 C-40.10198985 386.25029849 -40.31233862 381.69495585 -40.5 377.0625 C-40.71905757 371.67936309 -41.03955534 366.38711417 -41.76367188 361.0480957 C-42.22295028 357.06784103 -42.33543565 353.06385161 -42.5 349.0625 C-42.7016312 344.18227826 -42.92578785 339.33642111 -43.50390625 334.484375 C-43.97049021 330.55894639 -44.18882555 326.65827381 -44.34057617 322.70922852 C-44.95798273 306.64577173 -48.41081998 292.36058563 -53 277 C-53.33 277 -53.66 277 -54 277 Z " fill="#5F917C" transform="translate(291,42)"/>
<path d="M0 0 C0.81597656 0.19335938 1.63195312 0.38671875 2.47265625 0.5859375 C28.10994609 6.22111981 54.13919467 5.95392478 80 2 C94.25537158 47.28918937 90.87065922 99.06040238 87.8515625 145.6328125 C87.75836479 147.10241173 87.75836479 147.10241173 87.6632843 148.60169983 C87.35398067 153.13083142 86.95439199 157.60292357 86.27636719 162.09277344 C86.16183197 162.87312958 86.04729675 163.65348572 85.92929077 164.45748901 C85.70847189 165.8866392 85.4636151 167.31239056 85.18911743 168.73220825 C84.79509299 170.86678603 84.79509299 170.86678603 85 174 C88.42360108 178.5085834 91.96579074 180.56233687 97.5168457 181.36303711 C98.39429443 181.4172583 99.27174316 181.47147949 100.17578125 181.52734375 C101.65389282 181.62970337 101.65389282 181.62970337 103.16186523 181.73413086 C104.72142944 181.83479858 104.72142944 181.83479858 106.3125 181.9375 C118.9820036 182.8771477 132.20795659 183.91722267 144 189 C145.2265625 191.09765625 145.2265625 191.09765625 146 193 C112.72398453 217.096425 26.45324496 205.63413531 -12.234375 199.93896484 C-15.51803173 199.39333999 -18.7507109 198.72528774 -22 198 C-23.7015625 197.64421875 -23.7015625 197.64421875 -25.4375 197.28125 C-32.58942229 195.60273763 -32.58942229 195.60273763 -34.34375 193.02734375 C-35 191 -35 191 -34 189 C-19.44417734 182.36958968 -2.6851155 182.60511105 13 182 C13.144375 180.88625 13.28875 179.7725 13.4375 178.625 C14 175 14 175 15 173 C14.34 173 13.68 173 13 173 C12.67402299 167.31319586 12.36480674 161.62560912 12.0625 155.9375 C11.99089661 154.61106979 11.99089661 154.61106979 11.91784668 153.25784302 C11.35004161 142.58718392 10.93259042 131.93626457 10.85546875 121.25 C10.66274155 97.34625731 8.95102193 74.57809893 4.71044922 51.04736328 C3.71823352 45.49059476 2.94200509 39.90583111 2.1875 34.3125 C1.56007737 29.16100156 1.56007737 29.16100156 0.47216797 24.09936523 C-0.08751786 21.61087585 -0.11248331 19.34712932 -0.09765625 16.796875 C-0.09443359 15.8171875 -0.09121094 14.8375 -0.08789062 13.828125 C-0.07532227 12.30445313 -0.07532227 12.30445313 -0.0625 10.75 C-0.05798828 9.71875 -0.05347656 8.6875 -0.04882812 7.625 C-0.03706088 5.08327427 -0.02062011 2.54166681 0 0 Z M47 55 C46.96036133 55.98129883 46.92072266 56.96259766 46.87988281 57.97363281 C45.47366955 91.999532 43.1591637 126.01815099 38.29541016 159.74316406 C37.85985982 163.07062461 37.56116844 166.40859407 37.27026367 169.75146484 C37 172 37 172 36.3605957 174.15478516 C36.24159912 174.76370605 36.12260254 175.37262695 36 176 C38.21867135 178.77333918 39.60620325 179.86873442 43 181 C44.39615108 181.09137566 45.79617609 181.13065667 47.1953125 181.1328125 C47.99324219 181.13410156 48.79117188 181.13539063 49.61328125 181.13671875 C50.44214844 181.13285156 51.27101563 181.12898438 52.125 181.125 C52.96160156 181.12886719 53.79820312 181.13273437 54.66015625 181.13671875 C58.64715756 181.53149953 58.64715756 181.53149953 62 180 C62.13287786 176.14654196 62.10043593 172.664359 61.5234375 168.84765625 C60.89801015 164.25029849 60.68766138 159.69495585 60.5 155.0625 C60.28094243 149.67936309 59.96044466 144.38711417 59.23632812 139.0480957 C58.77704972 135.06784103 58.66456435 131.06385161 58.5 127.0625 C58.2983688 122.18227826 58.07421215 117.33642111 57.49609375 112.484375 C57.02950979 108.55894639 56.81117445 104.65827381 56.65942383 100.70922852 C56.04201727 84.64577173 52.58918002 70.36058563 48 55 C47.67 55 47.34 55 47 55 Z " fill="#598874" transform="translate(190,264)"/>
<path d="M0 0 C0.99 0.66 1.98 1.32 3 2 C4.8253125 1.7215625 4.8253125 1.7215625 6.6875 1.4375 C12.46492829 0.58353706 16.53735252 2.27018188 21.2578125 5.5859375 C24.09569719 7.78890561 26.90773743 10.0033104 29.5625 12.42578125 C34.22676772 16.34911061 39.5266951 17.31969557 45.40258789 18.39331055 C48.82251708 19.09244359 50.6760637 19.62451391 52.98828125 22.3046875 C54.36610147 25.97532824 54.04780966 28.85160077 53.71484375 32.6953125 C53.85599609 33.83613281 53.85599609 33.83613281 54 35 C55.31432225 36.02485842 56.64818278 37.02513181 58 38 C58.84611884 41.06353373 58.60054317 43.89630789 58 47 C55.45371651 51.21728203 53.47192025 52.91532171 49 54.8125 C44.5980848 56.79088885 43.28279666 59.46035112 41.2109375 63.6875 C38.86883285 68.16016437 35.60157125 71.80908804 31.5625 74.8125 C28.9939494 77.00516515 27.50753346 79.0285307 25.625 81.8125 C20.42784684 89.45074025 14.68327399 95.88949242 5.625 98.75 C1.74840647 99.11919938 -2.10937305 99.0762868 -6 99 C-6.66 100.65 -7.32 102.3 -8 104 C-7.01 104.99 -6.02 105.98 -5 107 C-5.7425 107.061875 -6.485 107.12375 -7.25 107.1875 C-10.8440593 108.24938116 -11.82409414 110.02626199 -14 113 C-17.75456567 115.50304378 -19.54745934 115.45280074 -24 115 C-29.70829199 112.03168817 -33.76897919 107.87238189 -36.3125 101.9375 C-36.98001374 99.08539584 -37.39228554 96.90291298 -37 94 C-36.0284731 92.97231548 -35.02397027 91.97544087 -34 91 C-28.8634771 85.22683765 -28.47199504 79.03555312 -28.375 71.625 C-28.35219971 70.73240479 -28.32939941 69.83980957 -28.3059082 68.92016602 C-28.33421404 66.49898145 -28.41502471 64.35040971 -29 62 C-31.35965551 60.01215715 -31.35965551 60.01215715 -34 59 C-34.91476665 56.25570004 -35.19238444 54.40966906 -35.25 51.5625 C-35.27578125 50.80066406 -35.3015625 50.03882813 -35.328125 49.25390625 C-35 47 -35 47 -33.57421875 45.22265625 C-31.31914111 42.03868807 -31.08727623 38.64943142 -30.5625 34.875 C-29.20577062 26.29908537 -27.57623371 17.2108874 -21 11 C-18.93329975 9.92013901 -16.87023553 8.96074418 -14.70703125 8.08984375 C-12.79545885 7.11735727 -12.79545885 7.11735727 -12.26171875 4.87890625 C-12.17535156 4.25886719 -12.08898437 3.63882813 -12 3 C-10.948125 3.2475 -9.89625 3.495 -8.8125 3.75 C-4.94633751 4.3889842 -4.94633751 4.3889842 -2.0625 2.0625 C-1.381875 1.381875 -0.70125 0.70125 0 0 Z " fill="#F6AE87" transform="translate(291,42)"/>
<path d="M0 0 C0.12375 0.5775 0.2475 1.155 0.375 1.75 C1.21695541 4.78103946 2.02787424 7.22516402 4.54101562 9.22827148 C10.44882688 12.25409157 15.93541673 12.73669483 22.5 13.0625 C35.13694471 13.90380655 48.2393915 14.9307722 60 20 C61.2265625 22.09765625 61.2265625 22.09765625 62 24 C28.72398453 48.096425 -57.54675504 36.63413531 -96.234375 30.93896484 C-99.51803173 30.39333999 -102.7507109 29.72528774 -106 29 C-107.134375 28.7628125 -108.26875 28.525625 -109.4375 28.28125 C-116.58942229 26.60273763 -116.58942229 26.60273763 -118.34375 24.02734375 C-119 22 -119 22 -118 20 C-103.44417734 13.36958968 -86.6851155 13.60511105 -71 13 C-70.855625 11.88625 -70.71125 10.7725 -70.5625 9.625 C-70 6 -70 6 -69 4 C-65.58185979 4.02282938 -62.16705287 4.10017034 -58.75 4.1875 C-57.78191406 4.19330078 -56.81382812 4.19910156 -55.81640625 4.20507812 C-48.56911099 4.42999418 -48.56911099 4.42999418 -45.515625 7.48828125 C-45.01546875 8.31714844 -44.5153125 9.14601563 -44 10 C-41.23434618 10.92188461 -39.61716298 11.11785222 -36.76953125 11.09765625 C-35.96708984 11.09443359 -35.16464844 11.09121094 -34.33789062 11.08789062 C-33.50451172 11.07951172 -32.67113281 11.07113281 -31.8125 11.0625 C-30.5450293 11.05573242 -30.5450293 11.05573242 -29.25195312 11.04882812 C-27.16793845 11.03705403 -25.08396023 11.0191189 -23 11 C-22.67 8.36 -22.34 5.72 -22 3 C-14.74 3 -7.48 3 0 3 C0 2.01 0 1.02 0 0 Z " fill="#E2D4C5" transform="translate(274,433)"/>
<path d="M0 0 C0.99 0.66 1.98 1.32 3 2 C4.8253125 1.7215625 4.8253125 1.7215625 6.6875 1.4375 C12.46492829 0.58353706 16.53735252 2.27018188 21.2578125 5.5859375 C24.09569719 7.78890561 26.90773743 10.0033104 29.5625 12.42578125 C34.22676772 16.34911061 39.5266951 17.31969557 45.40258789 18.39331055 C48.82251708 19.09244359 50.6760637 19.62451391 52.98828125 22.3046875 C54.36610147 25.97532824 54.04780966 28.85160077 53.71484375 32.6953125 C53.85599609 33.83613281 53.85599609 33.83613281 54 35 C55.31432225 36.02485842 56.64818278 37.02513181 58 38 C58.84611884 41.06353373 58.60054317 43.89630789 58 47 C55.45371651 51.21728203 53.47192025 52.91532171 49 54.8125 C44.6021428 56.78906503 43.28737301 59.45396239 41.21484375 63.67578125 C39.10188504 67.71825853 36.32351936 72.26844471 31.81640625 73.6875 C31.21699219 73.790625 30.61757813 73.89375 30 74 C30.61875 72.1746875 30.61875 72.1746875 31.25 70.3125 C33.27658936 64.24242851 35.13608633 58.12158449 37 52 C36.40574219 51.92523438 35.81148438 51.85046875 35.19921875 51.7734375 C27.88558025 50.61326467 22.29765806 47.80181201 16 44 C15.06800781 43.48308594 14.13601563 42.96617188 13.17578125 42.43359375 C12.45777344 41.96050781 11.73976563 41.48742187 11 41 C11 40.34 11 39.68 11 39 C10.236875 38.71125 9.47375 38.4225 8.6875 38.125 C6 37 6 37 3 35 C0.0850745 34.4161804 0.0850745 34.4161804 -3 35 C-5.70817728 37.20802268 -5.70817728 37.20802268 -8 40 C-8.66 40.5775 -9.32 41.155 -10 41.75 C-12.99279083 45.11688968 -14.92540824 49.02086498 -17 53 C-17.99 53 -18.98 53 -20 53 C-20.06058594 52.37351563 -20.12117188 51.74703125 -20.18359375 51.1015625 C-20.30927734 49.87566406 -20.30927734 49.87566406 -20.4375 48.625 C-20.51871094 47.81289062 -20.59992188 47.00078125 -20.68359375 46.1640625 C-20.89090114 43.95727195 -20.89090114 43.95727195 -22 42 C-24.64 42 -27.28 42 -30 42 C-30.67783613 31.38056729 -29.19747031 21.03064137 -22.5 12.38671875 C-20.19447448 10.25530843 -17.58475861 9.13102631 -14.671875 8.01953125 C-12.7887802 7.11415126 -12.7887802 7.11415126 -12.265625 4.88671875 C-12.17796875 4.26410156 -12.0903125 3.64148437 -12 3 C-10.948125 3.2475 -9.89625 3.495 -8.8125 3.75 C-4.94633751 4.3889842 -4.94633751 4.3889842 -2.0625 2.0625 C-1.381875 1.381875 -0.70125 0.70125 0 0 Z " fill="#835742" transform="translate(291,42)"/>
<path d="M0 0 C3 1 3 1 4.1875 3.0625 C8.55069993 10.13389299 15.27349826 15.27713708 22 20 C21.52088889 25.03066666 19.88483955 27.90538903 17 32 C17 32.66 17 33.32 17 34 C19.99925342 35.58475045 22.99954008 37.16753521 26 38.75 C27.25876953 39.41515625 27.25876953 39.41515625 28.54296875 40.09375 C30.21971145 40.97761437 31.89940749 41.85589911 33.58203125 42.72851562 C35.13496024 43.54512045 36.67559642 44.38579796 38.19921875 45.25585938 C42.64564376 47.71621455 44.91828727 48.31966959 50 47 C51.35958165 46.86715177 52.72222622 46.76360902 54.0859375 46.68359375 C54.78847656 46.64169922 55.49101562 46.59980469 56.21484375 46.55664062 C56.92769531 46.51732422 57.64054687 46.47800781 58.375 46.4375 C59.11105469 46.39431641 59.84710938 46.35113281 60.60546875 46.30664062 C62.40348068 46.20156201 64.20171958 46.10037907 66 46 C65.67 46.99 65.34 47.98 65 49 C62.4375 50.1875 62.4375 50.1875 60 51 C60 51.66 60 52.32 60 53 C60.79664063 53.12117188 61.59328125 53.24234375 62.4140625 53.3671875 C74.12396333 55.21911829 74.12396333 55.21911829 78 57 C78.33 57.99 78.66 58.98 79 60 C77.02 60.33 75.04 60.66 73 61 C74.98 61.66 76.96 62.32 79 63 C79 63.99 79 64.98 79 66 C76.36 66.33 73.72 66.66 71 67 C72.65 67.33 74.3 67.66 76 68 C76 68.99 76 69.98 76 71 C72.535 71.495 72.535 71.495 69 72 C69.33 72.99 69.66 73.98 70 75 C60.95557586 75.7093666 52.47345627 73.12679951 44.734375 68.484375 C39.85348219 65.69874486 35.19661228 64.77253564 29.6875 63.9375 C21.79471102 62.60013972 14.4815433 60.91207069 7 58 C6.67 58.66 6.34 59.32 6 60 C6 59.34 6 58.68 6 58 C5.030625 57.95875 4.06125 57.9175 3.0625 57.875 C-3.34523561 56.95218209 -8.80544809 52.63933208 -13 47.875 C-15.74105263 43.93473684 -15.74105263 43.93473684 -16 41 C-16.103125 39.865625 -16.20625 38.73125 -16.3125 37.5625 C-16.03820893 25.17368663 -9.44696668 15.06819106 -3 5 C-1.99382805 3.33705208 -0.99113812 1.67195185 0 0 Z " fill="#F3AF88" transform="translate(183,177)"/>
<path d="M0 0 C-2.94881211 11.69178135 -7.51920513 21.20745432 -16.14453125 29.74609375 C-18.18586216 32.22577361 -18.66047599 33.84409647 -19 37 C-21 34 -21 34 -22 32 C-22.495 33.051875 -22.99 34.10375 -23.5 35.1875 C-26.2500869 40.0296173 -30.55174124 42.78658155 -35.75390625 44.6171875 C-39.13980208 45.19426192 -42.51300384 45.22502646 -45.9375 45.25 C-46.64068359 45.270625 -47.34386719 45.29125 -48.06835938 45.3125 C-52.65206759 45.34686707 -55.27919322 44.62606853 -59 42 C-60.23972238 41.49483753 -61.48891779 41.01169079 -62.75 40.5625 C-66 39 -66 39 -66.75 36.875 C-66.8325 36.25625 -66.915 35.6375 -67 35 C-67.99 34.67 -68.98 34.34 -70 34 C-64.6229177 32.20763923 -60.49586733 32.63514096 -55.375 34.875 C-49.43214026 37.46124452 -43.39775847 38.23788457 -37 39 C-37.95865509 36.66924071 -37.95865509 36.66924071 -41 35 C-37.7 35 -34.4 35 -31 35 C-31 34.01 -31 33.02 -31 32 C-32.65 32 -34.3 32 -36 32 C-36.495 31.01 -36.495 31.01 -37 30 C-34.03 30 -31.06 30 -28 30 C-28 29.01 -28 28.02 -28 27 C-32.455 26.01 -32.455 26.01 -37 25 C-37 24.67 -37 24.34 -37 24 C-34.03 24 -31.06 24 -28 24 C-30.17411789 20.73882316 -30.36711607 20.59965398 -33.9140625 19.83203125 C-34.67460937 19.66123047 -35.43515625 19.49042969 -36.21875 19.31445312 C-37.0128125 19.14880859 -37.806875 18.98316406 -38.625 18.8125 C-39.42679688 18.63525391 -40.22859375 18.45800781 -41.0546875 18.27539062 C-43.03410771 17.83944689 -45.01677687 17.41830295 -47 17 C-47 16.34 -47 15.68 -47 15 C-45.34467377 13.98133771 -43.67739862 12.98189187 -42 12 C-41.67 11.34 -41.34 10.68 -41 10 C-43.54186606 10.31094086 -46.08348598 10.62370536 -48.625 10.9375 C-49.33785156 11.02451172 -50.05070312 11.11152344 -50.78515625 11.20117188 C-51.48769531 11.28818359 -52.19023437 11.37519531 -52.9140625 11.46484375 C-53.6064502 11.55048584 -54.29883789 11.63612793 -55.01220703 11.72436523 C-56.81956357 11.97498001 -58.61454988 12.31106007 -60.40625 12.65625 C-61.2621875 12.7696875 -62.118125 12.883125 -63 13 C-64.875 11.5625 -64.875 11.5625 -66 10 C-57.8309133 4.5539422 -49.83590887 4.15652011 -40.5 6 C-38.99831674 6.32566625 -37.49765321 6.65627631 -36 7 C-36 7.66 -36 8.32 -36 9 C-35.278125 9.061875 -34.55625 9.12375 -33.8125 9.1875 C-30.12811217 10.25187871 -28.53894072 12.1865792 -26 15 C-25.34 15.66 -24.68 16.32 -24 17 C-24 17.99 -24 18.98 -24 20 C-21.74447332 19.15318223 -21.74447332 19.15318223 -21.0625 16.5625 C-20.45670469 14.53130396 -19.86410426 12.4957959 -19.3125 10.44921875 C-19.065 9.55847656 -18.8175 8.66773438 -18.5625 7.75 C-18.22412109 6.47382813 -18.22412109 6.47382813 -17.87890625 5.171875 C-17 3 -17 3 -14 1 C-11.66015625 0.5859375 -11.66015625 0.5859375 -9.0625 0.375 C-7.78052734 0.26285156 -7.78052734 0.26285156 -6.47265625 0.1484375 C-4.31841512 0.01911497 -2.15811936 0 0 0 Z " fill="#7A967C" transform="translate(290,213)"/>
<path d="M0 0 C0.33 0 0.66 0 1 0 C1 4.62 1 9.24 1 14 C1.66 14 2.32 14 3 14 C3 14.66 3 15.32 3 16 C4.44632813 15.98259766 4.44632813 15.98259766 5.921875 15.96484375 C7.18515625 15.95582031 8.4484375 15.94679688 9.75 15.9375 C11.00296875 15.92589844 12.2559375 15.91429687 13.546875 15.90234375 C17 16 17 16 18.86328125 16.5 C21.5065884 17.11854354 23.92632601 17.11209401 26.640625 17.09765625 C27.71054688 17.09443359 28.78046875 17.09121094 29.8828125 17.08789062 C30.99398437 17.07951172 32.10515625 17.07113281 33.25 17.0625 C34.37664062 17.05798828 35.50328125 17.05347656 36.6640625 17.04882812 C39.44276217 17.03705397 42.22135409 17.0206084 45 17 C43.30363829 19.10407096 42.45018536 19.93240678 39.73168945 20.34057617 C38.86761475 20.32486572 38.00354004 20.30915527 37.11328125 20.29296875 C36.17548828 20.28330078 35.23769531 20.27363281 34.27148438 20.26367188 C32.80678711 20.2259668 32.80678711 20.2259668 31.3125 20.1875 C30.32443359 20.17396484 29.33636719 20.16042969 28.31835938 20.14648438 C25.87835769 20.11112203 23.43945281 20.06177033 21 20 C21 20.99 21 21.98 21 23 C37.17 23 53.34 23 70 23 C67.58716979 25.41283021 67.03391449 25.25205129 63.73852539 25.25878906 C62.84935928 25.26499771 61.96019318 25.27120636 61.04408264 25.27760315 C60.07176193 25.27365036 59.09944122 25.26969757 58.09765625 25.265625 C57.08493149 25.26839951 56.07220673 25.27117401 55.02879333 25.27403259 C51.70656125 25.27821953 48.38469508 25.26552677 45.0625 25.25 C43.93408691 25.24723053 42.80567383 25.24446106 41.64306641 25.24160767 C-12.21405899 25.08614755 -12.21405899 25.08614755 -35 20 C-36.134375 19.7628125 -37.26875 19.525625 -38.4375 19.28125 C-45.58942229 17.60273763 -45.58942229 17.60273763 -47.34375 15.02734375 C-48 13 -48 13 -47 11 C-32.44417734 4.36958968 -15.6851155 4.60511105 0 4 C0 2.68 0 1.36 0 0 Z " fill="#E2D6C5" transform="translate(203,442)"/>
<path d="M0 0 C0.12375 0.5775 0.2475 1.155 0.375 1.75 C1.34251872 5.23306741 2.10680563 7.3873396 5.1640625 9.484375 C5.97617187 9.90203125 6.78828125 10.3196875 7.625 10.75 C8.44226563 11.17796875 9.25953125 11.6059375 10.1015625 12.046875 C10.72804688 12.36140625 11.35453125 12.6759375 12 13 C12 13.66 12 14.32 12 15 C13.6396875 15.2165625 13.6396875 15.2165625 15.3125 15.4375 C19 16 19 16 22 17 C22 17.66 22 18.32 22 19 C22.66 19 23.32 19 24 19 C24 20.65 24 22.3 24 24 C19.45028184 26.27485908 13.11811882 25.18504758 8.125 25.1875 C6.21460938 25.20586914 6.21460938 25.20586914 4.265625 25.22460938 C-15.61734291 25.25510472 -15.61734291 25.25510472 -22 21 C-22.34057617 19.12060547 -22.34057617 19.12060547 -22.29296875 16.8671875 C-22.28172974 15.77833252 -22.28172974 15.77833252 -22.27026367 14.66748047 C-22.22929565 13.28520264 -22.22929565 13.28520264 -22.1875 11.875 C-22.125625 8.94625 -22.06375 6.0175 -22 3 C-14.74 3 -7.48 3 0 3 C0 2.01 0 1.02 0 0 Z " fill="#EF9972" transform="translate(274,433)"/>
<path d="M0 0 C3.41814021 0.02282938 6.83294713 0.10017034 10.25 0.1875 C11.21808594 0.19330078 12.18617188 0.19910156 13.18359375 0.20507812 C20.41603639 0.42953324 20.41603639 0.42953324 23.53515625 3.4765625 C24.01855469 4.30929687 24.50195312 5.14203125 25 6 C27.09989652 7.17574711 27.09989652 7.17574711 29 8 C29.33 8.66 29.66 9.32 30 10 C31.64363134 10.72159424 33.31050386 11.39351421 35 12 C35 12.66 35 13.32 35 14 C37.97 14.99 40.94 15.98 44 17 C43.625 19.4375 43.625 19.4375 43 22 C40.53483654 23.23258173 38.8870571 23.12930518 36.1328125 23.1328125 C34.68068359 23.13474609 34.68068359 23.13474609 33.19921875 23.13671875 C32.18472656 23.13285156 31.17023438 23.12898438 30.125 23.125 C28.61486328 23.13080078 28.61486328 23.13080078 27.07421875 23.13671875 C26.10355469 23.13542969 25.13289063 23.13414062 24.1328125 23.1328125 C22.80080811 23.13112061 22.80080811 23.13112061 21.44189453 23.12939453 C19.14118199 23.00748115 17.21465128 22.59774471 15 22 C12.5861824 21.77882441 10.16885403 21.59427758 7.75 21.4375 C6.48671875 21.35371094 5.2234375 21.26992188 3.921875 21.18359375 C2.47554687 21.09271484 2.47554687 21.09271484 1 21 C1 20.34 1 19.68 1 19 C0.34 19 -0.32 19 -1 19 C-1.02690104 16.20826945 -1.04679053 13.41679652 -1.0625 10.625 C-1.07087891 9.8309375 -1.07925781 9.036875 -1.08789062 8.21875 C-1.11328125 2.2265625 -1.11328125 2.2265625 0 0 Z " fill="#F6AF87" transform="translate(205,437)"/>
<path d="M0 0 C1.5 1.3125 1.5 1.3125 3 3 C3 3.99 3 4.98 3 6 C3.5775 6.226875 4.155 6.45375 4.75 6.6875 C7 8 7 8 8.75 10.3125 C10.92805163 12.91406167 12.34715944 13.85320321 15.25 15.4375 C17.37109375 16.67578125 17.37109375 16.67578125 19 18 C19.3125 21.125 19.3125 21.125 19 24 C20.37506099 25.87890434 20.37506099 25.87890434 22 27 C21.2575 27.061875 20.515 27.12375 19.75 27.1875 C16.1559407 28.24938116 15.17590586 30.02626199 13 33 C9.24543433 35.50304378 7.45254066 35.45280074 3 35 C-2.70829199 32.03168817 -6.76897919 27.87238189 -9.3125 21.9375 C-9.98001374 19.08539584 -10.39228554 16.90291298 -10 14 C-9 13 -8 12 -7 11 C-6.10178831 9.50475739 -5.24895142 7.98154706 -4.4375 6.4375 C-3.08322518 3.86817488 -2.0643321 2.0643321 0 0 Z " fill="#F5AD85" transform="translate(264,122)"/>
<path d="M0 0 C0.33 0 0.66 0 1 0 C1 1.98 1 3.96 1 6 C1.99 6 2.98 6 4 6 C4.51666157 43.96667686 4.51666157 43.96667686 0 53 C-4.95 53 -9.9 53 -15 53 C-14.24208025 49.21040126 -13.4635708 46.41886143 -12 42.9375 C-10.75801236 39.97408096 -9.69608521 37.13963431 -9 34 C-8.34 34 -7.68 34 -7 34 C-6.86722656 33.07316406 -6.73445313 32.14632812 -6.59765625 31.19140625 C-6.33275391 29.39509766 -6.33275391 29.39509766 -6.0625 27.5625 C-5.88847656 26.36753906 -5.71445312 25.17257813 -5.53515625 23.94140625 C-5 21 -5 21 -4 20 C-3.45562288 16.54617875 -3.03357777 13.0823374 -2.59765625 9.61328125 C-2.03747675 6.2265751 -1.1806967 3.21603996 0 0 Z " fill="#517766" transform="translate(293,160)"/>
<path d="M0 0 C-3.22993555 12.80641115 -8.66884911 22.62737733 -18 32 C-20.50428963 29.49571037 -20.32469387 28.59612315 -20.375 25.125 C-20.26299003 18.56810843 -18.38155729 13.05091963 -16 7 C-15.608125 5.783125 -15.21625 4.56625 -14.8125 3.3125 C-12.64471786 0.54670899 -11.93682323 0.5495472 -8.5625 0.125 C-5.70287094 -0.02015884 -2.86523382 0 0 0 Z " fill="#E59874" transform="translate(290,213)"/>
<path d="M0 0 C1.68802734 0.38091797 1.68802734 0.38091797 3.41015625 0.76953125 C4.96090937 1.11731294 6.51169288 1.46495919 8.0625 1.8125 C8.87364258 1.99554688 9.68478516 2.17859375 10.52050781 2.3671875 C14.44489255 3.24438487 18.36503431 4.0874537 22.32421875 4.79296875 C23.61972656 5.02628906 24.91523438 5.25960937 26.25 5.5 C27.41015625 5.6959375 28.5703125 5.891875 29.765625 6.09375 C33.56409105 7.1580545 35.84737437 8.66896771 39 11 C35.04379788 12.36762369 31.1263089 11.9495499 27.0234375 11.6953125 C26.25697906 11.65187714 25.49052063 11.60844177 24.70083618 11.56369019 C23.08521564 11.47070409 21.46976627 11.37470098 19.85449219 11.27587891 C17.37734938 11.12514296 14.89975417 10.98569829 12.421875 10.84765625 C10.85152319 10.75587841 9.28120908 10.66345281 7.7109375 10.5703125 C6.96822601 10.52858917 6.22551453 10.48686584 5.46029663 10.44387817 C0.2308055 10.11540275 0.2308055 10.11540275 -2 9 C-2 6.69 -2 4.38 -2 2 C-1.34 2 -0.68 2 0 2 C0 1.34 0 0.68 0 0 Z " fill="#57806C" transform="translate(190,235)"/>
<path d="M0 0 C0.12375 0.5775 0.2475 1.155 0.375 1.75 C1.34251872 5.23306741 2.10680563 7.3873396 5.1640625 9.484375 C5.97617187 9.90203125 6.78828125 10.3196875 7.625 10.75 C8.44226563 11.17796875 9.25953125 11.6059375 10.1015625 12.046875 C10.72804688 12.36140625 11.35453125 12.6759375 12 13 C12 13.66 12 14.32 12 15 C13.093125 15.12375 14.18625 15.2475 15.3125 15.375 C19 16 19 16 22 18 C16.4366409 17.77746564 11.70438389 16.33688434 6.5625 14.25 C5.34691406 13.76015625 4.13132812 13.2703125 2.87890625 12.765625 C1.92886719 12.18296875 0.97882813 11.6003125 0 11 C-0.33 9.35 -0.66 7.7 -1 6 C-6.94 6.33 -12.88 6.66 -19 7 C-19 11.29 -19 15.58 -19 20 C-11.14669563 22.4337063 -3.15032276 22.67189606 5 23.125 C6.45707243 23.21154913 7.91410436 23.29878289 9.37109375 23.38671875 C12.91363003 23.59904661 16.45662583 23.80208524 20 24 C20.66 22.35 21.32 20.7 22 19 C22.66 19 23.32 19 24 19 C24 20.65 24 22.3 24 24 C19.45028184 26.27485908 13.11811882 25.18504758 8.125 25.1875 C6.21460938 25.20586914 6.21460938 25.20586914 4.265625 25.22460938 C-15.61734291 25.25510472 -15.61734291 25.25510472 -22 21 C-22.34057617 19.12060547 -22.34057617 19.12060547 -22.29296875 16.8671875 C-22.28172974 15.77833252 -22.28172974 15.77833252 -22.27026367 14.66748047 C-22.22929565 13.28520264 -22.22929565 13.28520264 -22.1875 11.875 C-22.125625 8.94625 -22.06375 6.0175 -22 3 C-14.74 3 -7.48 3 0 3 C0 2.01 0 1.02 0 0 Z " fill="#CB9D7E" transform="translate(274,433)"/>
<path d="M0 0 C0.33 0.66 0.66 1.32 1 2 C-0.3125 4.625 -0.3125 4.625 -2 7 C-2.66 7 -3.32 7 -4 7 C-4.08378906 7.71929687 -4.16757813 8.43859375 -4.25390625 9.1796875 C-5.16161541 12.61092318 -6.65429967 14.42479563 -8.9375 17.125 C-11.10374702 19.71191568 -13.12638201 22.18957301 -15 25 C-15.66 25 -16.32 25 -17 25 C-17 25.66 -17 26.32 -17 27 C-17.66 27 -18.32 27 -19 27 C-19.33 28.98 -19.66 30.96 -20 33 C-22.9375 32.1875 -22.9375 32.1875 -26 31 C-27 28 -27 28 -25.9609375 25.80859375 C-25.43757812 25.02613281 -24.91421875 24.24367187 -24.375 23.4375 C-23.86710938 22.65246094 -23.35921875 21.86742187 -22.8359375 21.05859375 C-20.72963766 18.69684903 -18.98697912 17.94298829 -16 17 C-16 16.34 -16 15.68 -16 15 C-15.01 15 -14.02 15 -13 15 C-12.59201172 14.11828125 -12.59201172 14.11828125 -12.17578125 13.21875 C-9.32122263 7.83207459 -4.87319938 3.58323484 0 0 Z " fill="#507F6D" transform="translate(226,181)"/>
<path d="M0 0 C0.90492188 0.02320313 1.80984375 0.04640625 2.7421875 0.0703125 C4.10730469 0.09738281 4.10730469 0.09738281 5.5 0.125 C6.19867188 0.14820313 6.89734375 0.17140625 7.6171875 0.1953125 C7.6171875 1.8453125 7.6171875 3.4953125 7.6171875 5.1953125 C12.84187587 8.03943907 12.84187587 8.03943907 18.4921875 9.7578125 C20.6171875 10.1953125 20.6171875 10.1953125 22.6171875 13.1953125 C23.16283472 16.26242425 23.13267915 19.12406753 22.6171875 22.1953125 C20.6171875 24.9453125 20.6171875 24.9453125 17.6171875 27.1953125 C17.10542969 27.68386719 16.59367187 28.17242187 16.06640625 28.67578125 C12.67089576 31.48404159 9.9784405 32.37155256 5.61328125 32.09765625 C-4.75737236 31.00803257 -4.75737236 31.00803257 -8.3828125 29.1953125 C-8.3828125 28.5353125 -8.3828125 27.8753125 -8.3828125 27.1953125 C-7.6815625 27.32808594 -6.9803125 27.46085937 -6.2578125 27.59765625 C-0.6423567 28.64292452 4.94152259 29.5527844 10.6171875 30.1953125 C9.65853241 27.86455321 9.65853241 27.86455321 6.6171875 26.1953125 C9.9171875 26.1953125 13.2171875 26.1953125 16.6171875 26.1953125 C16.6171875 25.2053125 16.6171875 24.2153125 16.6171875 23.1953125 C14.9671875 23.1953125 13.3171875 23.1953125 11.6171875 23.1953125 C11.2871875 22.5353125 10.9571875 21.8753125 10.6171875 21.1953125 C13.5871875 21.1953125 16.5571875 21.1953125 19.6171875 21.1953125 C19.6171875 20.2053125 19.6171875 19.2153125 19.6171875 18.1953125 C16.6471875 17.5353125 13.6771875 16.8753125 10.6171875 16.1953125 C10.6171875 15.8653125 10.6171875 15.5353125 10.6171875 15.1953125 C13.5871875 15.1953125 16.5571875 15.1953125 19.6171875 15.1953125 C17.44306961 11.93413566 17.25007143 11.79496648 13.703125 11.02734375 C12.94257813 10.85654297 12.18203125 10.68574219 11.3984375 10.50976562 C10.604375 10.34412109 9.8103125 10.17847656 8.9921875 10.0078125 C8.19039062 9.83056641 7.38859375 9.65332031 6.5625 9.47070312 C4.58307979 9.03475939 2.60041063 8.61361545 0.6171875 8.1953125 C0.6171875 7.5353125 0.6171875 6.8753125 0.6171875 6.1953125 C2.27251373 5.17665021 3.93978888 4.17720437 5.6171875 3.1953125 C5.9471875 2.5353125 6.2771875 1.8753125 6.6171875 1.1953125 C2.9871875 1.5253125 -0.6428125 1.8553125 -4.3828125 2.1953125 C-2.3828125 0.1953125 -2.3828125 0.1953125 0 0 Z " fill="#A29575" transform="translate(242.3828125,221.8046875)"/>
<path d="M0 0 C0.66 0.33 1.32 0.66 2 1 C2 9.25 2 17.5 2 26 C2.99 26 3.98 26 5 26 C4.67 26.99 4.34 27.98 4 29 C3.77674186 31.05893621 3.59294241 33.12233653 3.4375 35.1875 C3.35371094 36.27417969 3.26992187 37.36085938 3.18359375 38.48046875 C3.12300781 39.31191406 3.06242188 40.14335937 3 41 C5.64 41.66 8.28 42.32 11 43 C11 43.66 11 44.32 11 45 C14.3 45 17.6 45 21 45 C20.95875 44.154375 20.9175 43.30875 20.875 42.4375 C21.01535028 38.57786731 21.82780164 35.66311987 23 32 C25 34 25 34 25.23046875 36.3125 C25.20919922 37.6428125 25.20919922 37.6428125 25.1875 39 C25.18105469 39.886875 25.17460937 40.77375 25.16796875 41.6875 C25 44 25 44 24 46 C20.93744039 46.0270491 17.8751214 46.04686298 14.8125 46.0625 C13.51602539 46.07506836 13.51602539 46.07506836 12.19335938 46.08789062 C7.99713231 46.10396812 4.09063114 46.07559038 0 45 C-0.61433037 34.688026 -1.10191116 24.39475724 -1.125 14.0625 C-1.12951172 13.22944336 -1.13402344 12.39638672 -1.13867188 11.53808594 C-1.12886722 7.55902814 -0.98851557 3.88345401 0 0 Z " fill="#628C79" transform="translate(203,392)"/>
<path d="M0 0 C6.93 0.33 13.86 0.66 21 1 C21 1.66 21 2.32 21 3 C11.595 3.495 11.595 3.495 2 4 C1.34 8.62 0.68 13.24 0 18 C14.31032822 19.88245697 28.57858839 20.56893472 43 21 C41 23 41 23 38.81689453 23.24291992 C37.93114746 23.23881104 37.04540039 23.23470215 36.1328125 23.23046875 C35.16472656 23.22853516 34.19664062 23.22660156 33.19921875 23.22460938 C32.18472656 23.21236328 31.17023438 23.20011719 30.125 23.1875 C29.11824219 23.18685547 28.11148438 23.18621094 27.07421875 23.18554688 C22.85548225 23.1603353 19.08342943 23.09740193 15 22 C12.5861824 21.77882441 10.16885403 21.59427758 7.75 21.4375 C6.48671875 21.35371094 5.2234375 21.26992188 3.921875 21.18359375 C2.47554687 21.09271484 2.47554687 21.09271484 1 21 C1 20.34 1 19.68 1 19 C0.34 19 -0.32 19 -1 19 C-1.02690104 16.20826945 -1.04679053 13.41679652 -1.0625 10.625 C-1.07087891 9.8309375 -1.07925781 9.036875 -1.08789062 8.21875 C-1.11328125 2.2265625 -1.11328125 2.2265625 0 0 Z " fill="#E3B494" transform="translate(205,437)"/>
<path d="M0 0 C0.04898438 0.69867188 0.09796875 1.39734375 0.1484375 2.1171875 C0.22320312 3.02726562 0.29796875 3.93734375 0.375 4.875 C0.44460937 5.77992188 0.51421875 6.68484375 0.5859375 7.6171875 C0.79568132 10.17941903 0.79568132 10.17941903 3 12 C1.68 12 0.36 12 -1 12 C-1 12.66 -1 13.32 -1 14 C-1.66 14 -2.32 14 -3 14 C-3.061875 13.071875 -3.061875 13.071875 -3.125 12.125 C-3.41375 11.42375 -3.7025 10.7225 -4 10 C-6.91666667 8.75 -6.91666667 8.75 -10 8 C-10.66 7.67 -11.32 7.34 -12 7 C-12 6.34 -12 5.68 -12 5 C-13.98 4.34 -15.96 3.68 -18 3 C-18 2.34 -18 1.68 -18 1 C-15.1875205 0.83298107 -12.37501801 0.66636797 -9.5625 0.5 C-8.76005859 0.45230469 -7.95761719 0.40460938 -7.13085938 0.35546875 C-1.11328125 0 -1.11328125 0 0 0 Z " fill="#E2D5C5" transform="translate(252,444)"/>
<path d="M0 0 C1.5 1.3125 1.5 1.3125 3 3 C3 3.99 3 4.98 3 6 C3.5775 6.226875 4.155 6.45375 4.75 6.6875 C7 8 7 8 8.875 10.375 C11.2622919 13.32400764 13.78286452 15.02584869 17 17 C16.67 18.98 16.34 20.96 16 23 C10.04488024 21.72390291 7.25186953 18.91258366 4 14 C2.06072039 10.43470903 0.23893417 6.8708988 -1 3 C-0.67 2.01 -0.34 1.02 0 0 Z " fill="#ED946F" transform="translate(264,122)"/>
<path d="M0 0 C1.41829102 -0.04253906 1.41829102 -0.04253906 2.86523438 -0.0859375 C5.49005192 -0.09335748 7.86646899 -0.03252601 10.4375 0.5 C12.90234375 2.96875 12.90234375 2.96875 14.4375 5.5 C15.4275 5.83 16.4175 6.16 17.4375 6.5 C18.625 9.5625 18.625 9.5625 19.4375 12.5 C14.4875 10.52 14.4875 10.52 9.4375 8.5 C9.7675 6.52 10.0975 4.54 10.4375 2.5 C5.25161255 2.81396813 0.52266534 3.3192951 -4.375 5.125 C-7.80481202 6.3672464 -10.0358312 6.88929377 -13.5625 5.5 C-14.2225 4.84 -14.8825 4.18 -15.5625 3.5 C-10.7434812 -0.34702987 -5.88240421 -0.01610515 0 0 Z " fill="#7B9378" transform="translate(239.5625,219.5)"/>
<path d="M0 0 C2.13748892 3.4734195 2.61024593 5.95712072 2 10 C-0.71440873 15.22001678 -3.98449955 19.79565249 -9 23 C-9.66 23 -10.32 23 -11 23 C-9.08853524 16.8746243 -7.10877586 10.63858941 -4 5 C-3.34 4.67 -2.68 4.34 -2 4 C-0.86649466 1.98330173 -0.86649466 1.98330173 0 0 Z " fill="#7D523E" transform="translate(332,93)"/>
<path d="M0 0 C0.66 0 1.32 0 2 0 C2.37125 0.66 2.7425 1.32 3.125 2 C7.55234358 9.08374973 14.23311297 14.24878144 21 19 C20.67 20.98 20.34 22.96 20 25 C15.2601599 22.58536448 12.25355728 21.03736333 10 16 C10 15.34 10 14.68 10 14 C9.34 14 8.68 14 8 14 C4 9.64705882 4 9.64705882 4 6 C2.68 5.67 1.36 5.34 0 5 C0 3.35 0 1.7 0 0 Z " fill="#D89A77" transform="translate(184,178)"/>
<path d="M0 0 C0.33 0 0.66 0 1 0 C1 5.28 1 10.56 1 16 C9.67458402 18.02010861 18.26695451 18.62655693 27.125 19.125 C28.57295477 19.21160482 30.02087199 19.29883987 31.46875 19.38671875 C34.97876413 19.59840393 38.48920752 19.80158887 42 20 C42.66 18.35 43.32 16.7 44 15 C44.66 15 45.32 15 46 15 C46 16.65 46 18.3 46 20 C41.45028184 22.27485908 35.11811882 21.18504758 30.125 21.1875 C28.21460938 21.20586914 28.21460938 21.20586914 26.265625 21.22460938 C6.38265709 21.25510472 6.38265709 21.25510472 0 17 C-0.2208564 14.04935852 -0.28060989 11.31631769 -0.1875 8.375 C-0.17396484 7.57320313 -0.16042969 6.77140625 -0.14648438 5.9453125 C-0.11109051 3.96325622 -0.05728234 1.98154449 0 0 Z " fill="#E3A88B" transform="translate(252,437)"/>
<path d="M0 0 C1.13506248 2.27012496 1.13001255 3.7302636 1.25 6.25 C1.78631751 11.382146 3.2364117 13.48731759 7 17 C9.78645499 18.9814791 11.62697276 20.0846914 15.08984375 19.87109375 C18.35782764 19.21513315 20.41117779 18.79362993 22.4375 16.0625 C22.623125 15.381875 22.80875 14.70125 23 14 C23.33 13.01 23.66 12.02 24 11 C26.4375 11.375 26.4375 11.375 29 12 C29.33 12.66 29.66 13.32 30 14 C29.2575 14.061875 28.515 14.12375 27.75 14.1875 C24.1559407 15.24938116 23.17590586 17.02626199 21 20 C17.24543433 22.50304378 15.45254066 22.45280074 11 22 C5.29170801 19.03168817 1.23102081 14.87238189 -1.3125 8.9375 C-1.96189481 6.1628131 -2.16678058 3.83526978 -2 1 C-1.34 0.67 -0.68 0.34 0 0 Z " fill="#DCB495" transform="translate(256,135)"/>
<path d="M0 0 C0.99 0.33 1.98 0.66 3 1 C-2.7952472 10.96931593 -9.3278824 19.99063868 -20 25 C-20.66 25 -21.32 25 -22 25 C-21.67 23.68 -21.34 22.36 -21 21 C-19.02 20.67 -17.04 20.34 -15 20 C-15 19.34 -15 18.68 -15 18 C-14.34 18 -13.68 18 -13 18 C-12.67 17.01 -12.34 16.02 -12 15 C-11.34 15 -10.68 15 -10 15 C-10 14.34 -10 13.68 -10 13 C-9.01 13 -8.02 13 -7 13 C-6.71125 12.278125 -6.4225 11.55625 -6.125 10.8125 C-4.5625 6.90625 -4.5625 6.90625 -3 3 C-2.34 3 -1.68 3 -1 3 C-0.67 2.01 -0.34 1.02 0 0 Z " fill="#E9B89F" transform="translate(319,115)"/>
<path d="M0 0 C0 2.97 0 5.94 0 9 C-6.75 10.125 -6.75 10.125 -9 9 C-8.4140625 2.84765625 -8.4140625 2.84765625 -8 1 C-5.29120665 -0.35439668 -2.99066732 -0.06501451 0 0 Z " fill="#EB976F" transform="translate(285,215)"/>
<path d="M0 0 C0.99 0.495 0.99 0.495 2 1 C2.19693992 3.66626359 2.38274782 6.33256639 2.5625 9 C2.61857422 9.74378906 2.67464844 10.48757813 2.73242188 11.25390625 C3.01394301 15.57056365 2.90472088 19.54222808 2.27368164 23.84375 C1.7199526 28.20640382 1.62222296 32.60904446 1.4375 37 C1.39431641 37.96550781 1.35113281 38.93101562 1.30664062 39.92578125 C1.20158287 42.28374425 1.09943086 44.64179416 1 47 C0.67 47 0.34 47 0 47 C0 31.49 0 15.98 0 0 Z " fill="#96B09F" transform="translate(201,350)"/>
<path d="M0 0 C1 2 1 2 0.29296875 4.171875 C-0.07183594 5.02265625 -0.43664062 5.8734375 -0.8125 6.75 C-1.55381078 8.49489036 -2.28237271 10.24523645 -3 12 C-3.37253906 12.90492188 -3.74507813 13.80984375 -4.12890625 14.7421875 C-5.2721015 19.01763521 -5.21624865 22.97400732 -5.125 27.375 C-5.11597656 28.20644531 -5.10695313 29.03789062 -5.09765625 29.89453125 C-5.0742622 31.92981337 -5.03839725 33.96494564 -5 36 C-8.63717265 30.54424103 -9.26515845 25.54562583 -9 19 C-8.02159166 15.75682972 -6.79051596 12.83929681 -5.32421875 9.7890625 C-3.90888873 6.97100954 -3.90888873 6.97100954 -2.95703125 3.7109375 C-2 1 -2 1 0 0 Z " fill="#758C72" transform="translate(276,214)"/>
<path d="M0 0 C0.66 0 1.32 0 2 0 C2.25 2.3125 2.25 2.3125 2 5 C-0.49093768 7.7405961 -1.965513 7.99738203 -5.6953125 8.28051758 C-7.17229002 8.25172686 -8.64899471 8.20535813 -10.125 8.14453125 C-10.90891113 8.12283371 -11.69282227 8.10113617 -12.50048828 8.07878113 C-14.15485992 8.02959338 -15.80902076 7.97280581 -17.46289062 7.90893555 C-19.99066836 7.8128547 -22.51814382 7.74341251 -25.046875 7.67773438 C-26.65630095 7.62657871 -28.26567923 7.57389545 -29.875 7.51953125 C-30.6292627 7.49856888 -31.38352539 7.47760651 -32.16064453 7.45600891 C-35.88917212 7.30027326 -38.82506782 7.05861522 -42 5 C-42 4.67 -42 4.34 -42 4 C-41.39373779 4.0714624 -40.78747559 4.1429248 -40.1628418 4.21655273 C-31.70533979 5.10833281 -23.30239057 5.11448893 -14.8125 5.0625 C-13.36914219 5.05747088 -11.92578267 5.05291049 -10.48242188 5.04882812 C-6.98824495 5.0379438 -3.49413388 5.0207585 0 5 C0 3.35 0 1.7 0 0 Z " fill="#EDCDB6" transform="translate(298,452)"/>
<path d="M0 0 C0.66 0.33 1.32 0.66 2 1 C1.67 15.52 1.34 30.04 1 45 C0.67 45 0.34 45 0 45 C-0.61433037 34.688026 -1.10191116 24.39475724 -1.125 14.0625 C-1.12951172 13.22944336 -1.13402344 12.39638672 -1.13867188 11.53808594 C-1.12886722 7.55902814 -0.98851557 3.88345401 0 0 Z " fill="#7C9A88" transform="translate(203,392)"/>
<path d="M0 0 C0.90492188 0.02320313 1.80984375 0.04640625 2.7421875 0.0703125 C4.10730469 0.09738281 4.10730469 0.09738281 5.5 0.125 C6.19867188 0.14820313 6.89734375 0.17140625 7.6171875 0.1953125 C7.6171875 1.8453125 7.6171875 3.4953125 7.6171875 5.1953125 C10.9171875 6.8453125 14.2171875 8.4953125 17.6171875 10.1953125 C17.6171875 10.5253125 17.6171875 10.8553125 17.6171875 11.1953125 C11.836215 10.56466095 6.2728169 9.54376118 0.6171875 8.1953125 C0.6171875 7.5353125 0.6171875 6.8753125 0.6171875 6.1953125 C2.27251373 5.17665021 3.93978888 4.17720437 5.6171875 3.1953125 C5.9471875 2.5353125 6.2771875 1.8753125 6.6171875 1.1953125 C2.9871875 1.5253125 -0.6428125 1.8553125 -4.3828125 2.1953125 C-2.3828125 0.1953125 -2.3828125 0.1953125 0 0 Z " fill="#A5997B" transform="translate(242.3828125,221.8046875)"/>
<path d="M0 0 C0.87289673 0.22284668 0.87289673 0.22284668 1.76342773 0.45019531 C3.76078787 0.94119575 5.77245062 1.3731475 7.78515625 1.796875 C9.21105935 2.11403602 10.63683727 2.43176025 12.0625 2.75 C12.78244141 2.894375 13.50238281 3.03875 14.24414062 3.1875 C17.7469413 3.99408734 19.68675739 4.63235838 22.046875 7.40234375 C23.4009633 11.09278932 22.33880933 13.40635391 21 17 C20.67 17 20.34 17 20 17 C19.505 12.05 19.505 12.05 19 7 C15.37 6.67 11.74 6.34 8 6 C7.67 5.01 7.34 4.02 7 3 C5.35 3.33 3.7 3.66 2 4 C1.34 2.68 0.68 1.36 0 0 Z " fill="#9C7E70" transform="translate(322,57)"/>
<path d="M0 0 C3 1 3 1 5 4 C5.30078125 6.15625 5.30078125 6.15625 5.3125 8.5 C5.32925781 9.2734375 5.34601563 10.046875 5.36328125 10.84375 C4.9156717 13.50052926 4.12254457 14.38872529 2 16 C1.34 16 0.68 16 0 16 C0.66 13.69 1.32 11.38 2 9 C-2.455 8.01 -2.455 8.01 -7 7 C-7 6.67 -7 6.34 -7 6 C-4.03 6 -1.06 6 2 6 C1.34 5.01 0.68 4.02 0 3 C0 2.01 0 1.02 0 0 Z " fill="#939578" transform="translate(260,231)"/>
<path d="M0 0 C1.2065625 0.0309375 1.2065625 0.0309375 2.4375 0.0625 C2.4375 1.0525 2.4375 2.0425 2.4375 3.0625 C0.1275 3.3925 -2.1825 3.7225 -4.5625 4.0625 C-4.2325 5.0525 -3.9025 6.0425 -3.5625 7.0625 C-8.07867599 7.13904536 -12.15335217 7.16478696 -16.5625 6.0625 C-15.94375 5.77375 -15.325 5.485 -14.6875 5.1875 C-12.42924235 4.12529958 -12.42924235 4.12529958 -10.5625 2.0625 C-8.23432036 1.69489269 -5.9006615 1.36008419 -3.5625 1.0625 C-2.5625 0.0625 -2.5625 0.0625 0 0 Z " fill="#DAAE8F" transform="translate(256.5625,244.9375)"/>
<path d="M0 0 C1.916588 -0.02712153 3.8332873 -0.04645097 5.75 -0.0625 C7.35101563 -0.07990234 7.35101563 -0.07990234 8.984375 -0.09765625 C12 0 12 0 13.8359375 0.5 C16.48987342 1.11318375 18.91704475 1.11214338 21.640625 1.09765625 C22.71054688 1.09443359 23.78046875 1.09121094 24.8828125 1.08789062 C25.99398437 1.07951172 27.10515625 1.07113281 28.25 1.0625 C29.37664062 1.05798828 30.50328125 1.05347656 31.6640625 1.04882812 C34.44276217 1.03705397 37.22135409 1.0206084 40 1 C38.84960938 2.4909668 38.84960938 2.4909668 37 4 C34.44726562 4.28051758 34.44726562 4.28051758 31.40625 4.14453125 C30.2925 4.09876953 29.17875 4.05300781 28.03125 4.00585938 C26.8659375 3.94205078 25.700625 3.87824219 24.5 3.8125 C22.7984375 3.74579102 22.7984375 3.74579102 21.0625 3.67773438 C13.89927244 3.3450386 7.01486266 2.48507267 0 1 C0 0.67 0 0.34 0 0 Z " fill="#EBCFB9" transform="translate(208,458)"/>
<path d="M0 0 C1.98 0.495 1.98 0.495 4 1 C3.835 1.598125 3.67 2.19625 3.5 2.8125 C2.5627896 6.91279548 3.39133707 10.66949703 4.07421875 14.74609375 C3.97820951 17.6617429 2.89887267 18.8570563 1 21 C0.63611825 17.87605066 0.28555397 14.75074918 -0.0625 11.625 C-0.16626953 10.73554688 -0.27003906 9.84609375 -0.37695312 8.9296875 C-0.47041016 8.07890625 -0.56386719 7.228125 -0.66015625 6.3515625 C-0.74918213 5.56604004 -0.83820801 4.78051758 -0.92993164 3.97119141 C-1 2 -1 2 0 0 Z " fill="#7B9B8A" transform="translate(194,296)"/>
<path d="M0 0 C-3.07517084 10.55808656 -3.07517084 10.55808656 -5 15 C-5.33 14.01 -5.66 13.02 -6 12 C-6.66 11.67 -7.32 11.34 -8 11 C-7.01 11 -6.02 11 -5 11 C-5 8.03 -5 5.06 -5 2 C-7.64 2.33 -10.28 2.66 -13 3 C-13 2.34 -13 1.68 -13 1 C-11.58366664 0.83052421 -10.16691467 0.66454493 -8.75 0.5 C-7.56664062 0.36078125 -7.56664062 0.36078125 -6.359375 0.21875 C-4 0 -4 0 0 0 Z " fill="#DCA689" transform="translate(290,213)"/>
<path d="M0 0 C0.99 0 1.98 0 3 0 C1.68592176 5.84034773 -1.57091053 10.08483442 -6 14 C-7.32 14.33 -8.64 14.66 -10 15 C-9.01 12.03 -8.02 9.06 -7 6 C-6.34 6.66 -5.68 7.32 -5 8 C-4.67 7.34 -4.34 6.68 -4 6 C-3.01 6 -2.02 6 -1 6 C-0.67 4.02 -0.34 2.04 0 0 Z " fill="#9D826C" transform="translate(331,101)"/>
<path d="M0 0 C0.53109375 0.40992188 1.0621875 0.81984375 1.609375 1.2421875 C2.31578125 1.78101563 3.0221875 2.31984375 3.75 2.875 C4.44609375 3.40867187 5.1421875 3.94234375 5.859375 4.4921875 C7.84722603 5.89238914 9.79843386 6.97855265 12 8 C12 8.66 12 9.32 12 10 C13.093125 10.12375 14.18625 10.2475 15.3125 10.375 C19 11 19 11 22 13 C13.95263294 12.67810532 7.19977924 9.30664018 0 6 C0 4.02 0 2.04 0 0 Z " fill="#E3AA91" transform="translate(274,438)"/>
<path d="M0 0 C0.33 0 0.66 0 1 0 C1.41277905 30.33290997 1.41277905 30.33290997 -1 43 C-1.33 43 -1.66 43 -2 43 C-2.02684679 40.35409986 -2.04676357 37.70846904 -2.0625 35.0625 C-2.07087891 34.30775391 -2.07925781 33.55300781 -2.08789062 32.77539062 C-2.09652441 30.85005687 -2.05224333 28.92464419 -2 27 C-1.67 26.67 -1.34 26.34 -1 26 C-0.84193469 24.07521187 -0.748865 22.1450079 -0.68359375 20.21484375 C-0.64169922 19.04501953 -0.59980469 17.87519531 -0.55664062 16.66992188 C-0.49766602 14.82237305 -0.49766602 14.82237305 -0.4375 12.9375 C-0.39431641 11.70193359 -0.35113281 10.46636719 -0.30664062 9.19335938 C-0.20015802 6.12902665 -0.09814576 3.06460927 0 0 Z " fill="#98A99D" transform="translate(296,166)"/>
<path d="M0 0 C2.32908604 0.87340727 4.55428661 1.71512187 6.65625 3.05859375 C13.00780459 6.94757527 18.83398715 6.00498961 26 5 C26 5.33 26 5.66 26 6 C24.02 6 22.04 6 20 6 C19.67 6.99 19.34 7.98 19 9 C16.03 8.67 13.06 8.34 10 8 C10 7.34 10 6.68 10 6 C9.46375 5.896875 8.9275 5.79375 8.375 5.6875 C5.37497956 4.81907303 2.7620465 3.44379704 0 2 C0 1.34 0 0.68 0 0 Z " fill="#E1B18E" transform="translate(214,219)"/>
<path d="M0 0 C0 0.99 0 1.98 0 3 C-1.093125 2.979375 -2.18625 2.95875 -3.3125 2.9375 C-8.57300359 2.92805565 -13.77169644 3.46179228 -19 4 C-19 3.34 -19 2.68 -19 2 C-12.56986533 0.26044666 -6.65050424 -0.24991456 0 0 Z " fill="#568571" transform="translate(256,214)"/>
<path d="M0 0 C0.99 0.99 1.98 1.98 3 3 C1.4375 5.5 1.4375 5.5 -1 8 C-4.75 8.3125 -4.75 8.3125 -8 8 C-8.433125 7.0409375 -8.433125 7.0409375 -8.875 6.0625 C-9.82823451 3.84793921 -9.82823451 3.84793921 -12 3 C-10.948125 3.2475 -9.89625 3.495 -8.8125 3.75 C-4.94633751 4.3889842 -4.94633751 4.3889842 -2.0625 2.0625 C-1.381875 1.381875 -0.70125 0.70125 0 0 Z " fill="#A08277" transform="translate(291,42)"/>
<path d="M0 0 C0.66 0.33 1.32 0.66 2 1 C1.3125 3.875 1.3125 3.875 0 7 C-2.625 8.375 -2.625 8.375 -5 9 C-5.33 8.67 -5.66 8.34 -6 8 C-6.33 8.66 -6.66 9.32 -7 10 C-8.32 9.67 -9.64 9.34 -11 9 C-9.54405245 7.68485396 -8.08516421 6.37296283 -6.625 5.0625 C-5.81289062 4.33160156 -5.00078125 3.60070312 -4.1640625 2.84765625 C-2 1 -2 1 0 0 Z " fill="#779B89" transform="translate(215,140)"/>
<path d="M0 0 C0.33 0 0.66 0 1 0 C1.1953125 2.01822917 1.390625 4.03645833 1.5859375 6.0546875 C1.86374749 8.22668245 1.86374749 8.22668245 4 10 C2.68 10 1.36 10 0 10 C0 10.66 0 11.32 0 12 C-0.66 12 -1.32 12 -2 12 C-2.061875 11.071875 -2.061875 11.071875 -2.125 10.125 C-2.41375 9.42375 -2.7025 8.7225 -3 8 C-5.92914165 6.82917122 -5.92914165 6.82917122 -9 6 C-9.66 5.34 -10.32 4.68 -11 4 C-9.68 4 -8.36 4 -7 4 C-7 4.66 -7 5.32 -7 6 C-5.02 6 -3.04 6 -1 6 C-1.020625 5.195625 -1.04125 4.39125 -1.0625 3.5625 C-1 1 -1 1 0 0 Z " fill="#EDC6AC" transform="translate(251,446)"/>
<path d="M0 0 C2.91819239 0.61846464 5.83441022 1.24448135 8.75 1.875 C9.575 2.04902344 10.4 2.22304687 11.25 2.40234375 C12.04921875 2.57636719 12.8484375 2.75039062 13.671875 2.9296875 C14.4050293 3.08679199 15.13818359 3.24389648 15.89355469 3.40576172 C18.10428356 4.02941889 19.98236484 4.91143399 22 6 C16.76580643 6.16335585 12.13693808 5.60552037 7.0625 4.5 C6.03672852 4.28537109 6.03672852 4.28537109 4.99023438 4.06640625 C3.32550486 3.71716229 1.66255125 3.35947054 0 3 C-0.33 3.99 -0.66 4.98 -1 6 C-0.67 4.02 -0.34 2.04 0 0 Z " fill="#6C7D63" transform="translate(190,235)"/>
<path d="M0 0 C0.33 0 0.66 0 1 0 C1.375 2.75 1.375 2.75 1 6 C-2.4619913 9.4619913 -5.37756761 10.26263474 -10.125 10.375 C-13.63741021 10.32028956 -15.9508442 9.75642615 -19 8 C-18.67 7.34 -18.34 6.68 -18 6 C-17.2265625 6.495 -17.2265625 6.495 -16.4375 7 C-13.0739584 8.3799145 -10.60761041 8.37974846 -7 8 C-3.52010111 5.83472958 -1.50244436 3.82440382 0 0 Z " fill="#7D8E73" transform="translate(281,148)"/>
<path d="M0 0 C2 2 2 2 2.23046875 4.3125 C2.21628906 5.199375 2.20210937 6.08625 2.1875 7 C2.18105469 7.886875 2.17460937 8.77375 2.16796875 9.6875 C2 12 2 12 1 14 C-0.98 14 -2.96 14 -5 14 C-4.01 13.67 -3.02 13.34 -2 13 C-2.061875 11.7315625 -2.061875 11.7315625 -2.125 10.4375 C-1.98464972 6.57786731 -1.17219836 3.66311987 0 0 Z " fill="#769583" transform="translate(226,424)"/>
<path d="M0 0 C0.66 0.33 1.32 0.66 2 1 C2 7.27 2 13.54 2 20 C1.67 20 1.34 20 1 20 C0.855625 18.865625 0.71125 17.73125 0.5625 16.5625 C0.38828522 13.19222799 0.38828522 13.19222799 -1 12 C-1.09851171 10.16884117 -1.12972629 8.33380067 -1.125 6.5 C-1.12757813 5.4996875 -1.13015625 4.499375 -1.1328125 3.46875 C-1 1 -1 1 0 0 Z " fill="#809D8C" transform="translate(235,323)"/>
<path d="M0 0 C5.96564796 0.50771472 10.63809899 2.38592128 16 5 C16 5.99 16 6.98 16 8 C10.18738629 6.26017005 5.16830006 4.1889511 0 1 C0 0.67 0 0.34 0 0 Z " fill="#DBAE8B" transform="translate(223,242)"/>
<path d="M0 0 C0.33 0 0.66 0 1 0 C1.19294408 4.82360189 0.75747614 8.49646738 -1 13 C0.65 13.33 2.3 13.66 4 14 C2.35 15.65 0.7 17.3 -1 19 C-3.41647749 14.16704501 -2.36483465 7.34532779 -1 2.3125 C-0.505 1.1678125 -0.505 1.1678125 0 0 Z " fill="#D69E84" transform="translate(272,226)"/>
<path d="M0 0 C0.75 1.6875 0.75 1.6875 1 4 C-0.33333333 5.66666667 -1.66666667 7.33333333 -3 9 C-2.87436418 11.26424351 -2.87436418 11.26424351 -2 13 C-3.65 12.67 -5.3 12.34 -7 12 C-5.63855967 6.80177328 -3.53269829 3.90456127 0 0 Z " fill="#677D62" transform="translate(206,199)"/>
<path d="M0 0 C2.4375 0.375 2.4375 0.375 5 1 C5.33 1.66 5.66 2.32 6 3 C5.2575 3.061875 4.515 3.12375 3.75 3.1875 C0.1559407 4.24938116 -0.82409414 6.02626199 -3 9 C-6.6441774 11.4294516 -8.71241272 11.16179575 -13 11 C-10.61772756 9.71723792 -8.49957984 8.85988235 -5.875 8.125 C-2.92536522 7.2838735 -2.92536522 7.2838735 -1.6875 5.0625 C-1.460625 4.381875 -1.23375 3.70125 -1 3 C-0.67 2.01 -0.34 1.02 0 0 Z " fill="#CAB297" transform="translate(280,146)"/>
<path d="M0 0 C2.475 0.495 2.475 0.495 5 1 C5 1.66 5 2.32 5 3 C5.99 3 6.98 3 8 3 C9.02611949 4.65071396 10.02308143 6.31970006 11 8 C13.06954847 9.78344178 13.06954847 9.78344178 15 11 C14.67 12.32 14.34 13.64 14 15 C13.67 14.01 13.34 13.02 13 12 C11.42623667 10.62648254 9.79200993 9.32121329 8.125 8.0625 C4.8743416 5.60318264 2.28888885 3.38785866 0 0 Z " fill="#87896F" transform="translate(191,185)"/>
<path d="M0 0 C0.33 0 0.66 0 1 0 C1 1.65 1 3.3 1 5 C2.65 5 4.3 5 6 5 C5.21625 5.598125 4.4325 6.19625 3.625 6.8125 C-0.46909024 10.22424187 -1.31426882 12.85701617 -2 18 C-2.33 18 -2.66 18 -3 18 C-3.05395478 16.37536158 -3.09277195 14.75021459 -3.125 13.125 C-3.14820313 12.22007813 -3.17140625 11.31515625 -3.1953125 10.3828125 C-3 8 -3 8 -1 6 C-0.60235737 4.01178687 -0.26224651 2.01055661 0 0 Z " fill="#DDAC91" transform="translate(260,79)"/>
<path d="M0 0 C3.375 -0.1875 3.375 -0.1875 7 0 C7.66 0.99 8.32 1.98 9 3 C9.99 3.33 10.98 3.66 12 4 C12 4.99 12 5.98 12 7 C11.34 7 10.68 7 10 7 C10 6.34 10 5.68 10 5 C9.0925 4.87625 8.185 4.7525 7.25 4.625 C4.41029677 4.07890323 2.47409409 3.42736197 0 2 C0 1.34 0 0.68 0 0 Z " fill="#E6CCB9" transform="translate(234,445)"/>
<path d="M0 0 C0.99 0 1.98 0 3 0 C3.33 0.66 3.66 1.32 4 2 C4.99 2.33 5.98 2.66 7 3 C8.1875 6.0625 8.1875 6.0625 9 9 C4.05 7.02 4.05 7.02 -1 5 C-0.67 3.35 -0.34 1.7 0 0 Z " fill="#8F947C" transform="translate(250,223)"/>
<path d="M0 0 C0.66 0.33 1.32 0.66 2 1 C2.76681614 8.66816143 2.76681614 8.66816143 0.88671875 11.93359375 C-0.5 13.5625 -0.5 13.5625 -3 16 C-3.66 15.01 -4.32 14.02 -5 13 C-4.34 12.01 -3.68 11.02 -3 10 C-2.01 10 -1.02 10 0 10 C0 6.7 0 3.4 0 0 Z " fill="#977E6E" transform="translate(347,79)"/>
<path d="M0 0 C0.33 0 0.66 0 1 0 C1.12117187 1.07121094 1.24234375 2.14242188 1.3671875 3.24609375 C1.53597601 4.64328752 1.70527313 6.04041991 1.875 7.4375 C1.95363281 8.14455078 2.03226563 8.85160156 2.11328125 9.58007812 C2.33927676 11.39673432 2.66300727 13.20062522 3 15 C3.66 15.33 4.32 15.66 5 16 C4.01 16 3.02 16 2 16 C2 18.97 2 21.94 2 25 C1.67 25 1.34 25 1 25 C-0.10102642 16.64399592 -0.10094304 8.41192037 0 0 Z " fill="#557362" transform="translate(248,375)"/>
<path d="M0 0 C0.33 0 0.66 0 1 0 C2.08318169 5.3212615 3.152874 10.63486869 4 16 C3.34 16 2.68 16 2 16 C2 18.31 2 20.62 2 23 C1.67 23 1.34 23 1 23 C0.15199233 15.307359 -0.12152487 7.73708326 0 0 Z " fill="#547061" transform="translate(250,405)"/>
<path d="M0 0 C0 0.33 0 0.66 0 1 C-1.299375 1.103125 -2.59875 1.20625 -3.9375 1.3125 C-7.43781737 1.68182483 -10.44954697 2.41021141 -13.75 3.625 C-17.20043001 4.87585641 -19.42446408 5.26873855 -23 4 C-23 3.67 -23 3.34 -23 3 C-15.1768938 0.41283102 -8.2236194 -0.38750039 0 0 Z " fill="#909170" transform="translate(249,221)"/>
<path d="M0 0 C0.66 0 1.32 0 2 0 C2 0.99 2 1.98 2 3 C0.35 3.66 -1.3 4.32 -3 5 C-2.67 5.66 -2.34 6.32 -2 7 C-6.455 8.485 -6.455 8.485 -11 10 C-8.64123566 4.69278023 -5.08869684 3.16360269 0 1 C0 0.67 0 0.34 0 0 Z " fill="#A1857A" transform="translate(278,48)"/>
<path d="M0 0 C0 0.66 0 1.32 0 2 C2.31 2 4.62 2 7 2 C7 2.33 7 2.66 7 3 C4.91695462 3.05418326 2.83350232 3.09287551 0.75 3.125 C-0.99023438 3.15980469 -0.99023438 3.15980469 -2.765625 3.1953125 C-5.82786046 3.0103949 -7.44202751 2.60823023 -10 1 C-6.21812119 -0.83691257 -4.05431692 -1.15837626 0 0 Z " fill="#728C74" transform="translate(214,435)"/>
<path d="M0 0 C0.66 0 1.32 0 2 0 C2.3690205 11.52164009 2.3690205 11.52164009 0 17 C-0.33 17 -0.66 17 -1 17 C-0.67 11.39 -0.34 5.78 0 0 Z " fill="#809C88" transform="translate(271,255)"/>
<path d="M0 0 C1 2 1 2 0.29296875 4.171875 C-0.07183594 5.02265625 -0.43664062 5.8734375 -0.8125 6.75 C-2.36761058 10.46289378 -3.78673763 14.15800249 -5 18 C-6.32177077 14.30261419 -5.69120478 11.63059161 -4.75 7.875 C-4.49734375 6.82054687 -4.2446875 5.76609375 -3.984375 4.6796875 C-3 2 -3 2 0 0 Z " fill="#818A6C" transform="translate(276,214)"/>
<path d="M0 0 C0.33 0 0.66 0 1 0 C1.02717692 2.06242617 1.0464758 4.12495703 1.0625 6.1875 C1.07410156 7.33605469 1.08570313 8.48460937 1.09765625 9.66796875 C1.01192832 12.59300586 0.67849023 15.16316291 0 18 C-0.66 18 -1.32 18 -2 18 C-1.42085333 11.98673249 -0.77662055 5.99107278 0 0 Z " fill="#8DA898" transform="translate(231,390)"/>
<path d="M0 0 C4.7517398 0.43197635 6.92000054 1.32769295 10 5 C7.03 4.67 4.06 4.34 1 4 C0.67 2.68 0.34 1.36 0 0 Z " fill="#7C8369" transform="translate(219,242)"/>
<path d="M0 0 C1.58409994 0.11487748 3.16728963 0.24234508 4.75 0.375 C6.07257813 0.47941406 6.07257813 0.47941406 7.421875 0.5859375 C9.99066382 0.99850055 11.75841015 1.71160957 14 3 C13.01 3.495 13.01 3.495 12 4 C11.67 4.66 11.34 5.32 11 6 C11 5.34 11 4.68 11 4 C9.9275 3.896875 8.855 3.79375 7.75 3.6875 C4.03976256 3.0072898 2.80047288 2.3110097 0 0 Z " fill="#E5BDA3" transform="translate(178,231)"/>
<path d="M0 0 C0.33 0 0.66 0 1 0 C1.12375 1.093125 1.2475 2.18625 1.375 3.3125 C1.75464801 7.07381802 1.75464801 7.07381802 4 10 C6.05003955 11.19232613 6.05003955 11.19232613 8 12 C6.35 12.66 4.7 13.32 3 14 C-0.53286034 9.43672206 -0.32374517 5.50366792 0 0 Z " fill="#EEC6B0" transform="translate(256,89)"/>
<path d="M0 0 C0.33 0 0.66 0 1 0 C1.18451025 11.52164009 1.18451025 11.52164009 0 17 C-2.42594434 13.05784044 -2.59447962 9.54703767 -1.546875 5.05859375 C-1.06699548 3.36187686 -0.53740289 1.67938402 0 0 Z " fill="#90A898" transform="translate(229,409)"/>
<path d="M0 0 C0.33 0 0.66 0 1 0 C1 3.3 1 6.6 1 10 C1.99 10.33 2.98 10.66 4 11 C3.37240135 13.92879371 2.41377341 16.36095629 1 19 C0.03794912 12.62641289 -0.10655578 6.44070471 0 0 Z " fill="#8EA692" transform="translate(248,390)"/>
<path d="M0 0 C1.32 0.33 2.64 0.66 4 1 C2.54550599 2.0055761 1.08627557 3.00430435 -0.375 4 C-1.59316406 4.8353125 -1.59316406 4.8353125 -2.8359375 5.6875 C-5 7 -5 7 -7 7 C-6.67 5.68 -6.34 4.36 -6 3 C-4.02 2.67 -2.04 2.34 0 2 C0 1.34 0 0.68 0 0 Z " fill="#ECBFA6" transform="translate(304,133)"/>
<path d="M0 0 C0.66 0.33 1.32 0.66 2 1 C2 1.66 2 2.32 2 3 C2.56589844 3.12117187 3.13179687 3.24234375 3.71484375 3.3671875 C4.44832031 3.53476563 5.18179688 3.70234375 5.9375 3.875 C6.66839844 4.03742188 7.39929688 4.19984375 8.15234375 4.3671875 C10 5 10 5 11 7 C6.38 6.01 1.76 5.02 -3 4 C-3 3.34 -3 2.68 -3 2 C-2.01 1.34 -1.02 0.68 0 0 Z " fill="#B49775" transform="translate(246,226)"/>
<path d="M0 0 C2.64 0.66 5.28 1.32 8 2 C8 3.65 8 5.3 8 7 C4.63718422 5.55879324 2.4480582 3.71035015 0 1 C0 0.67 0 0.34 0 0 Z " fill="#EE9970" transform="translate(195,195)"/>
<path d="M0 0 C4.49797113 1.68673918 8.72886302 3.81673892 13 6 C10 7 10 7 7.51953125 6.00390625 C6.62621094 5.52824219 5.73289063 5.05257812 4.8125 4.5625 C3.91144531 4.08941406 3.01039063 3.61632812 2.08203125 3.12890625 C1.39496094 2.75636719 0.70789063 2.38382813 0 2 C0 1.34 0 0.68 0 0 Z " fill="#D0B08D" transform="translate(214,219)"/>
<path d="M0 0 C0.66 1.32 1.32 2.64 2 4 C0.38405168 6.04119788 -1.2856382 8.04072937 -3 10 C-3.66 10 -4.32 10 -5 10 C-3.66511872 6.40608886 -2.03977277 3.24509304 0 0 Z " fill="#E5BDA1" transform="translate(183,177)"/>
<path d="M0 0 C0.66 0.33 1.32 0.66 2 1 C1.690625 1.5775 1.38125 2.155 1.0625 2.75 C0.07416636 4.84294184 -0.5168613 6.74535275 -1 9 C-1.66 9 -2.32 9 -3 9 C-3 9.66 -3 10.32 -3 11 C-3.66 11 -4.32 11 -5 11 C-3.77472971 6.94718288 -2.30119506 3.55639236 0 0 Z " fill="#EBB79E" transform="translate(262,124)"/>
<path d="M0 0 C0.99 0 1.98 0 3 0 C3.33 1.65 3.66 3.3 4 5 C3.01 5 2.02 5 1 5 C0.67 6.65 0.34 8.3 0 10 C-0.33 10 -0.66 10 -1 10 C-1.125 2.25 -1.125 2.25 0 0 Z " fill="#885B42" transform="translate(326,102)"/>
<path d="M0 0 C4.29 0.33 8.58 0.66 13 1 C13.33 1.99 13.66 2.98 14 4 C9.23649415 3.28547412 4.65798604 2.20465156 0 1 C0 0.67 0 0.34 0 0 Z " fill="#CFAD8A" transform="translate(192,235)"/>
<path d="M0 0 C2.38672669 2.96283313 4.7353371 5.94270509 7 9 C4.0625 8.625 4.0625 8.625 1 8 C-0.35439668 5.29120665 -0.06501451 2.99066732 0 0 Z " fill="#7B9374" transform="translate(255,145)"/>
<path d="M0 0 C1.258125 0.12375 2.51625 0.2475 3.8125 0.375 C4.87404297 0.47941406 4.87404297 0.47941406 5.95703125 0.5859375 C8 1 8 1 11 3 C10.06027344 2.98259766 10.06027344 2.98259766 9.1015625 2.96484375 C7.87566406 2.95130859 7.87566406 2.95130859 6.625 2.9375 C5.40683594 2.92009766 5.40683594 2.92009766 4.1640625 2.90234375 C1.95062858 2.85533666 1.95062858 2.85533666 0 4 C0 2.68 0 1.36 0 0 Z " fill="#EEBCA1" transform="translate(283,138)"/>
<path d="M0 0 C2.31 0 4.62 0 7 0 C5.515 2.475 5.515 2.475 4 5 C1.525 4.01 1.525 4.01 -1 3 C-0.67 2.01 -0.34 1.02 0 0 Z " fill="#E9A380" transform="translate(273,235)"/>
<path d="M0 0 C0.1875 3.375 0.1875 3.375 0 7 C-0.99 7.66 -1.98 8.32 -3 9 C-3 6.36 -3 3.72 -3 1 C-1 0 -1 0 0 0 Z " fill="#406D5C" transform="translate(294,167)"/>
<path d="M0 0 C0.33 0.66 0.66 1.32 1 2 C-5.0546875 2.9765625 -5.0546875 2.9765625 -7 3 C-7.66 2.34 -8.32 1.68 -9 1 C-6.04335481 -0.4783226 -3.25770263 -0.06032783 0 0 Z " fill="#7A9D8B" transform="translate(231,136)"/>
<path d="M0 0 C2.31 0 4.62 0 7 0 C6.67 0.99 6.34 1.98 6 3 C4.35 3.33 2.7 3.66 1 4 C0.67 2.68 0.34 1.36 0 0 Z " fill="#E3B294" transform="translate(242,223)"/>
<path d="M0 0 C0.99 0.33 1.98 0.66 3 1 C2.979375 1.9075 2.95875 2.815 2.9375 3.75 C2.9889755 6.42672588 3.2215017 8.46988052 4 11 C3.01 11 2.02 11 1 11 C0.67 7.37 0.34 3.74 0 0 Z " fill="#A36B4F" transform="translate(270,84)"/>
<path d="M0 0 C1 2 1 2 0.375 4.5625 C-1 7 -1 7 -3.625 7.8125 C-4.40875 7.874375 -5.1925 7.93625 -6 8 C-4.02 5.36 -2.04 2.72 0 0 Z " fill="#E2A583" transform="translate(285,78)"/>
<path d="M0 0 C2.66735273 2.48952921 4.55746343 4.63408134 6 8 C4.02 7.34 2.04 6.68 0 6 C0 4.02 0 2.04 0 0 Z " fill="#E9A68A" transform="translate(274,438)"/>
<path d="M0 0 C1.98 0.495 1.98 0.495 4 1 C4.33 3.31 4.66 5.62 5 8 C4.34 8 3.68 8 3 8 C2.67 6.35 2.34 4.7 2 3 C1.01 3 0.02 3 -1 3 C-0.67 2.01 -0.34 1.02 0 0 Z " fill="#7E998C" transform="translate(291,158)"/>
<path d="M0 0 C3.73584906 1.47169811 3.73584906 1.47169811 5 4 C3.02 4.33 1.04 4.66 -1 5 C-1.33 3.68 -1.66 2.36 -2 1 C-1.34 0.67 -0.68 0.34 0 0 Z " fill="#967466" transform="translate(314,50)"/>
<path d="M0 0 C2.31 0.33 4.62 0.66 7 1 C7 1.99 7 2.98 7 4 C5.35 4 3.7 4 2 4 C1.34 2.68 0.68 1.36 0 0 Z " fill="#DBB38F" transform="translate(255,239)"/>
<path d="M0 0 C2.475 0.495 2.475 0.495 5 1 C5.33 2.65 5.66 4.3 6 6 C4.68 5.67 3.36 5.34 2 5 C2 4.01 2 3.02 2 2 C1.34 2 0.68 2 0 2 C0 1.34 0 0.68 0 0 Z " fill="#7B5F4F" transform="translate(278,46)"/>
<path d="M0 0 C-1 2 -2 4 -3 6 C-4.32 5.67 -5.64 5.34 -7 5 C-2.25 0 -2.25 0 0 0 Z " fill="#8DA999" transform="translate(211,144)"/>
<path d="M0 0 C0.33 0.66 0.66 1.32 1 2 C0.01 2 -0.98 2 -2 2 C-2.66 2.66 -3.32 3.32 -4 4 C-5.32 3.34 -6.64 2.68 -8 2 C-4.77208445 -0.1519437 -3.71599191 -0.20086443 0 0 Z " fill="#785343" transform="translate(282,51)"/>
<path d="M0 0 C0.33 0 0.66 0 1 0 C1.17835515 4.54805635 0.99785435 7.8794254 -1 12 C-1.33 12 -1.66 12 -2 12 C-2.21278058 7.53160785 -1.59138085 4.17737474 0 0 Z " fill="#C89A78" transform="translate(272,226)"/>
<path d="M0 0 C1.98 0.495 1.98 0.495 4 1 C3.67 2.65 3.34 4.3 3 6 C1.68 5.34 0.36 4.68 -1 4 C-0.67 2.68 -0.34 1.36 0 0 Z " fill="#60846D" transform="translate(203,208)"/>
<path d="M0 0 C2.475 0.495 2.475 0.495 5 1 C5 1.66 5 2.32 5 3 C5.99 3 6.98 3 8 3 C7.67 3.99 7.34 4.98 7 6 C1.125 2.25 1.125 2.25 0 0 Z " fill="#7A8C72" transform="translate(191,185)"/>
<path d="M0 0 C1.125 1.5625 1.125 1.5625 2 4 C1.125 7.75 1.125 7.75 0 11 C-0.33 11 -0.66 11 -1 11 C-1.14285714 3.57142857 -1.14285714 3.57142857 0 0 Z " fill="#9A7E6D" transform="translate(262,68)"/>
<path d="M0 0 C-0.33 0.99 -0.66 1.98 -1 3 C-2.98 3 -4.96 3 -7 3 C-7.33 2.34 -7.66 1.68 -8 1 C-5.10765685 0.17361624 -3.11257569 0 0 0 Z " fill="#987A6C" transform="translate(302,43)"/>
</svg>
