<?xml version="1.0" encoding="UTF-8"?>
<svg version="1.1" xmlns="http://www.w3.org/2000/svg" width="500" height="500">
<path d="M0 0 C1.155 0.18304688 2.31 0.36609375 3.5 0.5546875 C19.70273055 3.38318141 35.02446252 9.35405141 50 16 C71.70895152 25.22811147 93.72733403 30.66840921 116.97265625 34.50390625 C117.75696518 34.63336639 118.54127411 34.76282654 119.34934998 34.89620972 C123.23465055 35.53454894 127.12134511 36.16130807 131.01147461 36.76953125 C149.57805049 39.71485281 167.3048897 44.11962218 184 53 C184 53.66 184 54.32 184 55 C185.30130859 55.33644531 185.30130859 55.33644531 186.62890625 55.6796875 C190.47317743 57.18532326 193.01589536 59.30714349 195.9375 62.125 C196.46110107 62.6207251 196.98470215 63.1164502 197.52416992 63.62719727 C213.686397 79.09400581 221.48338234 96.6332231 222 119 C221.57552415 136.01314359 215.48003664 151.03992672 208 166 C207.73019336 170.85651955 208.14533157 175.2114322 209 180 C210.28655683 187.25399065 210.21007681 193.73953916 209 201 C208.34 201 207.68 201 207 201 C206.97494385 200.43603516 206.9498877 199.87207031 206.92407227 199.29101562 C206.80681699 196.69385118 206.68468734 194.0969369 206.5625 191.5 C206.52318359 190.613125 206.48386719 189.72625 206.44335938 188.8125 C206.18915913 183.49384873 205.73323663 178.2743744 205 173 C204.34 173 203.68 173 203 173 C202.896875 173.556875 202.79375 174.11375 202.6875 174.6875 C202 177 202 177 200.46484375 179.1953125 C198.61058135 182.74560691 198.73244331 185.2084911 198.875 189.1875 C199.08374384 195.83251232 199.08374384 195.83251232 198 198 C197.77377919 199.70363822 197.59111527 201.41328701 197.4375 203.125 C197.35371094 204.03507813 197.26992188 204.94515625 197.18359375 205.8828125 C197.12300781 206.58148438 197.06242187 207.28015625 197 208 C196.34 208 195.68 208 195 208 C195 202.39 195 196.78 195 191 C193.7039826 194.18579162 192.41307962 197.37350011 191.125 200.5625 C190.76019531 201.45775391 190.39539063 202.35300781 190.01953125 203.27539062 C182.0759232 222.9899815 182.31437344 242.15374485 190.15917969 262.06787109 C194.27836094 271.53337645 200.43535558 279.98188397 206.90112305 287.96533203 C210 291.8091965 210 291.8091965 210 294 C210.66 294 211.32 294 212 294 C213.14160156 295.35424805 213.14160156 295.35424805 214.390625 297.26171875 C214.85009521 297.96184082 215.30956543 298.66196289 215.78295898 299.38330078 C216.50914429 300.52387939 216.50914429 300.52387939 217.25 301.6875 C217.74508057 302.46335449 218.24016113 303.23920898 218.75024414 304.03857422 C226.81864359 316.89770994 233.35732871 331.57588908 234 347 C234.07734375 348.7015625 234.07734375 348.7015625 234.15625 350.4375 C234.89808728 374.72659035 226.84949833 400.48549532 211.1640625 419.31640625 C209.69192726 421.23428006 209.69192726 421.23428006 209 425 C89.87 425 -29.26 425 -152 425 C-152 424.01 -152 423.02 -152 422 C-139.79 421.67 -127.58 421.34 -115 421 C-119.455 417.535 -119.455 417.535 -124 414 C-124 413.34 -124 412.68 -124 412 C-124.66 412 -125.32 412 -126 412 C-127.4453125 410.56640625 -127.4453125 410.56640625 -129.125 408.5625 C-132.49378571 404.58378677 -135.9703982 400.7229439 -139.49609375 396.8828125 C-141 395 -141 395 -141 393 C-141.66 393 -142.32 393 -143 393 C-144.48366054 391.0299943 -145.81503693 389.08276098 -147.125 387 C-147.71897583 386.05809814 -147.71897583 386.05809814 -148.32495117 385.09716797 C-160.10239315 366.07405415 -167.41278035 346.72448098 -163.375 324.0234375 C-160.83899936 313.26807762 -155.9246754 303.21994464 -150.04296875 293.8984375 C-146.83531051 289.009017 -146.83531051 289.009017 -146.23046875 283.38671875 C-146.99502882 280.82912947 -147.94420881 278.44992472 -149 276 C-150.43076429 271.30608908 -151.24661401 266.9322803 -151 262 C-150.01 262 -149.02 262 -148 262 C-147.80664062 263.03640625 -147.61328125 264.0728125 -147.4140625 265.140625 C-147.15135133 266.51047609 -146.88831329 267.88026452 -146.625 269.25 C-146.49867188 269.93191406 -146.37234375 270.61382812 -146.2421875 271.31640625 C-145.56093633 274.82484976 -144.83146585 277.91039673 -143 281 C-142.01 279.02 -142.01 279.02 -141 277 C-140.34 277 -139.68 277 -139 277 C-138.690625 276.05125 -138.38125 275.1025 -138.0625 274.125 C-137 271 -137 271 -136 269 C-135.94997755 266.73101859 -135.96400001 264.46051606 -136.0078125 262.19140625 C-136.02536037 260.78972118 -136.04226552 259.38802794 -136.05859375 257.98632812 C-136.08926563 255.78793324 -136.12441327 253.58995577 -136.17138672 251.3918457 C-136.35105484 242.51240483 -136.03054991 234.47986455 -133 226 C-132.34 226 -131.68 226 -131 226 C-131.14507078 227.33341652 -131.2911103 228.66672764 -131.4375 230 C-131.52773437 230.83015625 -131.61796875 231.6603125 -131.7109375 232.515625 C-131.9533418 234.59899171 -132.25136755 236.67578369 -132.5625 238.75 C-133.96068443 248.62077048 -133.96068443 248.62077048 -132 258 C-131.2884375 256.4840625 -131.2884375 256.4840625 -130.5625 254.9375 C-130.16224609 254.08478516 -130.16224609 254.08478516 -129.75390625 253.21484375 C-124.04366975 236.43917485 -127.53644898 216.04741491 -134.99609375 200.58764648 C-137.09590464 196.35389315 -139.26913138 192.18868342 -141.74609375 188.16015625 C-143 186 -143 186 -143 184 C-143.66 184 -144.32 184 -145 184 C-146.63429751 181.9055032 -148.14167234 179.82217909 -149.625 177.625 C-150.04523438 177.02171875 -150.46546875 176.4184375 -150.8984375 175.796875 C-154 171.26537135 -154 171.26537135 -154 169 C-154.66 169 -155.32 169 -156 169 C-170.09724604 149.1456005 -176.57185414 127.37232494 -173.50390625 103.0703125 C-171.96680895 95.27193186 -169.36624683 88.18196412 -166 81 C-165.54625 80.00097656 -165.0925 79.00195312 -164.625 77.97265625 C-161.16902249 70.67566026 -156.92586639 64.37800042 -152 58 C-151.34128906 57.113125 -150.68257812 56.22625 -150.00390625 55.3125 C-146.46420705 50.60271312 -146.46420705 50.60271312 -145 49 C-144.34 49 -143.68 49 -143 49 C-143 48.34 -143 47.68 -143 47 C-142.34 47 -141.68 47 -141 47 C-141 46.34 -141 45.68 -141 45 C-138.625 42.375 -138.625 42.375 -136 40 C-135.34 40 -134.68 40 -134 40 C-134 39.34 -134 38.68 -134 38 C-132.67749023 36.72241211 -132.67749023 36.72241211 -130.80859375 35.27734375 C-130.11894531 34.74326904 -129.42929688 34.20919434 -128.71875 33.65893555 C-127.9659375 33.09086182 -127.213125 32.52278809 -126.4375 31.9375 C-125.66535156 31.35331299 -124.89320312 30.76912598 -124.09765625 30.16723633 C-88.49493664 3.62205286 -44.03913747 -8.05345338 0 0 Z " fill="#E4EFEB" transform="translate(221,40)"/>
<path d="M0 0 C3.57235272 3.01665341 5.59517903 5.53011509 7 10 C8.03125 9.896875 9.0625 9.79375 10.125 9.6875 C15.01832583 10.08212305 16.64819808 11.49230032 20 15 C22.18155214 19.16275766 22.34636147 23.14113678 22.3125 27.75 C22.31056641 28.8481604 22.31056641 28.8481604 22.30859375 29.96850586 C22.16938417 38.14097819 20.67729366 46.02287123 19 54 C19.66 54 20.32 54 21 54 C23.0896091 58.17921821 22.43964368 63.44909382 22 68 C20.54974397 71.77640926 18.37259179 73.75160547 15 76 C13.68 76 12.36 76 11 76 C11 76.66 11 77.32 11 78 C11.66 78 12.32 78 13 78 C13.47050781 79.09699219 13.94101562 80.19398438 14.42578125 81.32421875 C15.05450348 82.77872539 15.68342 84.23314806 16.3125 85.6875 C16.62123047 86.40873047 16.92996094 87.12996094 17.24804688 87.87304688 C20.319544 94.95365604 23.04090205 100.99274607 30.625 104.0625 C31.800625 104.5265625 31.800625 104.5265625 33 105 C34.02104551 105.97850195 35.0206121 106.97980427 36 108 C38.94995989 110.05603265 41.89726902 111.34436005 45.25 112.5625 C56.77131619 117.05444173 67.34933924 124.41645384 77.62207031 131.21948242 C80.0838321 132.83876967 82.18591791 134.06197264 85 135 C85 135.66 85 136.32 85 137 C85.721875 137.268125 86.44375 137.53625 87.1875 137.8125 C92.64705882 140.11764706 92.64705882 140.11764706 95 142 C95.3125 145.1875 95.3125 145.1875 95 148 C95.57878906 148.26167969 96.15757812 148.52335938 96.75390625 148.79296875 C102.62369506 151.94734222 110.86501696 158.59505087 113 165 C113.61875 165.556875 114.2375 166.11375 114.875 166.6875 C119.80836182 172.05615845 120.32881711 178.03168744 120.10546875 185.09375 C120.05326172 186.03734375 120.05326172 186.03734375 120 187 C119.34 187 118.68 187 118 187 C117.9071875 187.8353125 117.9071875 187.8353125 117.8125 188.6875 C116.6519231 191.99068042 114.59786554 193.71894733 112 196 C111.34 196 110.68 196 110 196 C110 196.66 110 197.32 110 198 C98.95529472 200.11271825 88.57868321 197.73604232 78.8359375 192.203125 C77.90007812 191.80609375 76.96421875 191.4090625 76 191 C74.82050781 191.52980469 74.82050781 191.52980469 73.6171875 192.0703125 C71 193 71 193 69.22363281 192.39746094 C67.13317366 191.30186511 65.13038032 190.11946031 63.125 188.875 C62.44308594 188.47023438 61.76117188 188.06546875 61.05859375 187.6484375 C59.76210633 186.87795355 58.46996477 186.10006676 57.18408203 185.31201172 C54.15133258 183.49019241 51.07528432 181.74905352 48 180 C48.33920485 213.56060718 49.05259165 246.52253771 54.44018555 279.71166992 C56.71742796 293.89274095 57.38782085 307.644662 57 322 C56.01 322.33 55.02 322.66 54 323 C54.38038729 333.73743647 54.81397783 344.46947505 55.51171875 355.19140625 C55.55673523 355.88575775 55.60175171 356.58010925 55.64813232 357.29550171 C55.8707746 360.7034701 56.10087159 364.11066559 56.33935547 367.51757812 C56.42459473 368.79181641 56.50983398 370.06605469 56.59765625 371.37890625 C56.67508057 372.4882251 56.75250488 373.59754395 56.83227539 374.74047852 C57.08487941 381.15559106 57 387.57991607 57 394 C92.31 394 127.62 394 164 394 C164 394.33 164 394.66 164 395 C45.2 395 -73.6 395 -196 395 C-196 394.67 -196 394.34 -196 394 C-158.71 394 -121.42 394 -83 394 C-83 389.71 -83 385.42 -83 381 C-82.01 381.99 -81.02 382.98 -80 384 C-79.01 384.33 -78.02 384.66 -77 385 C-77.14386168 374.43194691 -77.14386168 374.43194691 -79.5625 364.25 C-83.43482055 353.10527255 -81.30719823 338.48467016 -80 327 C-80.99 327 -81.98 327 -83 327 C-83.77887299 324.23681852 -84.12813996 321.77809425 -84.1328125 318.91015625 C-84.13583374 317.74226562 -84.13583374 317.74226562 -84.13891602 316.55078125 C-84.13432373 315.72964844 -84.12973145 314.90851563 -84.125 314.0625 C-84.12101196 312.79792969 -84.12101196 312.79792969 -84.11694336 311.5078125 C-83.98503079 293.95509238 -83.98503079 293.95509238 -82 288 C-79.96231347 272.26948651 -79.59560773 256.52874355 -79.375 240.6875 C-79.33668808 238.37433641 -79.29762948 236.06118505 -79.2578125 233.74804688 C-79.16330385 228.16547575 -79.07787127 222.58282675 -79 217 C-79.59362839 217.01237198 -80.18725677 217.02474396 -80.7988739 217.03749084 C-84.97183786 217.08821008 -88.79121436 217.10341184 -92.83203125 215.93359375 C-93.64502686 215.69858154 -94.45802246 215.46356934 -95.2956543 215.22143555 C-96.12621338 214.96273682 -96.95677246 214.70403809 -97.8125 214.4375 C-98.68108643 214.17300049 -99.54967285 213.90850098 -100.44458008 213.63598633 C-107.5959219 211.35061563 -115.58265615 208.41734385 -121 203 C-120.35531146 195.56618395 -118.24414606 188.8592611 -115.91748047 181.80517578 C-114.82279601 178.4582028 -113.75878161 175.10187355 -112.69140625 171.74609375 C-112.05190251 169.76213439 -111.40982104 167.77903707 -110.76608276 165.79644775 C-110.14247845 163.86659026 -109.53017882 161.9330913 -108.91821289 159.99951172 C-103.28065097 142.80432885 -95.57898671 129.41358757 -79 121 C-78.20078125 120.59394531 -77.4015625 120.18789062 -76.578125 119.76953125 C-69.3287798 116.45585127 -61.71504891 114.36012209 -54.0625 112.1875 C-52.4081897 111.71582397 -52.4081897 111.71582397 -50.72045898 111.23461914 C-49.66930908 110.94449951 -48.61815918 110.65437988 -47.53515625 110.35546875 C-46.590354 110.09403076 -45.64555176 109.83259277 -44.67211914 109.56323242 C-42.0298254 109.00628663 -39.69108494 108.89416225 -37 109 C-37 106.03 -37 103.06 -37 100 C-38.32 99.34 -39.64 98.68 -41 98 C-47.82082762 89.04766375 -51.62012998 78.74144273 -52.375 67.5 C-52.69330915 63.77313039 -53.79931967 61.0108369 -55.375 57.625 C-58.18917379 51.38382375 -59.0989181 45.2485332 -59.83544922 38.49853516 C-60.43859844 33.62015188 -61.05279413 31.25155969 -65 28 C-66.1577506 24.52674819 -66.06866652 21.63932552 -66 18 C-64.68 18.33 -63.36 18.66 -62 19 C-62.33 18.01 -62.66 17.02 -63 16 C-63.87910328 7.367494 -63.87910328 7.367494 -61.3125 3.375 C-58.60942614 1.7677669 -57.09383129 1.58191469 -54 2 C-53.67 2.33 -53.34 2.66 -53 3 C-42.81259567 4.00157065 -34.31116609 2.37200197 -24.6796875 -0.80859375 C-16.06633842 -3.59741697 -8.17067204 -4.55672094 0 0 Z " fill="#6A8886" transform="translate(266,69)"/>
<path d="M0 0 C3.57235272 3.01665341 5.59517903 5.53011509 7 10 C8.03125 9.896875 9.0625 9.79375 10.125 9.6875 C15.01832583 10.08212305 16.64819808 11.49230032 20 15 C22.18155214 19.16275766 22.34636147 23.14113678 22.3125 27.75 C22.31121094 28.48210693 22.30992187 29.21421387 22.30859375 29.96850586 C22.16938417 38.14097819 20.67729366 46.02287123 19 54 C19.66 54 20.32 54 21 54 C23.0896091 58.17921821 22.43964368 63.44909382 22 68 C20.54974397 71.77640926 18.37259179 73.75160547 15 76 C13.68 76 12.36 76 11 76 C11 76.66 11 77.32 11 78 C11.66 78 12.32 78 13 78 C13.70576172 79.64548828 13.70576172 79.64548828 14.42578125 81.32421875 C15.05450348 82.77872539 15.68342 84.23314806 16.3125 85.6875 C16.62123047 86.40873047 16.92996094 87.12996094 17.24804688 87.87304688 C20.319544 94.95365604 23.04090205 100.99274607 30.625 104.0625 C31.800625 104.5265625 31.800625 104.5265625 33 105 C34.02104551 105.97850195 35.0206121 106.97980427 36 108 C38.94995989 110.05603265 41.89726902 111.34436005 45.25 112.5625 C56.77131619 117.05444173 67.34933924 124.41645384 77.62207031 131.21948242 C80.0838321 132.83876967 82.18591791 134.06197264 85 135 C85 135.66 85 136.32 85 137 C85.721875 137.268125 86.44375 137.53625 87.1875 137.8125 C92.64705882 140.11764706 92.64705882 140.11764706 95 142 C95.3125 145.1875 95.3125 145.1875 95 148 C95.57878906 148.26167969 96.15757812 148.52335938 96.75390625 148.79296875 C102.62369506 151.94734222 110.86501696 158.59505087 113 165 C113.61875 165.556875 114.2375 166.11375 114.875 166.6875 C119.80836182 172.05615845 120.32881711 178.03168744 120.10546875 185.09375 C120.07066406 185.7228125 120.03585937 186.351875 120 187 C119.34 187 118.68 187 118 187 C117.938125 187.556875 117.87625 188.11375 117.8125 188.6875 C116.6519231 191.99068042 114.59786554 193.71894733 112 196 C111.34 196 110.68 196 110 196 C110 196.66 110 197.32 110 198 C97.57153534 200.37741464 87.01612365 196.69909287 76 191 C75.05125 190.62875 74.1025 190.2575 73.125 189.875 C71 188 71 188 70.69140625 185.80859375 C70.68782123 183.51776703 70.78490508 181.2800062 71 179 C70.01 178.67 69.02 178.34 68 178 C66.51635742 176.49511719 66.51635742 176.49511719 64.91796875 174.546875 C60.64410512 169.51034293 56.00449314 164.89459927 51.3125 160.25 C50.47138672 159.41339844 49.63027344 158.57679688 48.76367188 157.71484375 C47.20600002 156.16581876 45.64729444 154.61783197 44.0871582 153.07128906 C43.05401489 152.04600098 43.05401489 152.04600098 42 151 C40.87694458 149.93990723 40.87694458 149.93990723 39.73120117 148.85839844 C38 147 38 147 38 145 C37.34 145 36.68 145 36 145 C34.51953125 143.49609375 34.51953125 143.49609375 32.8125 141.4375 C30.44837895 138.65156482 28.05005091 135.99199422 25.4375 133.4375 C22.10702417 130.15223425 18.74004829 126.80394982 16 123 C16 122.34 16 121.68 16 121 C10.06 120.01 10.06 120.01 4 119 C3.01 120.98 2.02 122.96 1 125 C0.34 125 -0.32 125 -1 125 C-1.20625 125.61875 -1.4125 126.2375 -1.625 126.875 C-3.5881567 129.90896945 -5.55476197 130.073686 -9 131 C-16.55092149 131.80568145 -23.8729597 131.94340752 -30 127 C-34.73813803 122.39694046 -36.65850026 118.27226152 -36.9921875 111.6875 C-36.99605469 110.8521875 -36.99605469 110.8521875 -37 110 C-38.65 110 -40.3 110 -42 110 C-42 109.67 -42 109.34 -42 109 C-40.35 109 -38.7 109 -37 109 C-37 106.03 -37 103.06 -37 100 C-38.32 99.34 -39.64 98.68 -41 98 C-47.82082762 89.04766375 -51.62012998 78.74144273 -52.375 67.5 C-52.69330915 63.77313039 -53.79931967 61.0108369 -55.375 57.625 C-58.18917379 51.38382375 -59.0989181 45.2485332 -59.83544922 38.49853516 C-60.43859844 33.62015188 -61.05279413 31.25155969 -65 28 C-66.1577506 24.52674819 -66.06866652 21.63932552 -66 18 C-64.68 18.33 -63.36 18.66 -62 19 C-62.33 18.01 -62.66 17.02 -63 16 C-63.87910328 7.367494 -63.87910328 7.367494 -61.3125 3.375 C-58.60942614 1.7677669 -57.09383129 1.58191469 -54 2 C-53.67 2.33 -53.34 2.66 -53 3 C-42.81259567 4.00157065 -34.31116609 2.37200197 -24.6796875 -0.80859375 C-16.06633842 -3.59741697 -8.17067204 -4.55672094 0 0 Z " fill="#EFB396" transform="translate(266,69)"/>
<path d="M0 0 C0.95453949 5.94438826 1.38656196 11.86826161 1.75390625 17.875 C1.81907944 18.91712646 1.88425262 19.95925293 1.95140076 21.03295898 C2.0881195 23.23493589 2.22334782 25.43700579 2.35717773 27.63916016 C2.56015567 30.96162666 2.77100782 34.28352977 2.98242188 37.60546875 C3.11506677 39.75778276 3.24724264 41.91012574 3.37890625 44.0625 C3.44139053 45.03493652 3.50387482 46.00737305 3.56825256 47.00927734 C4.04558955 55.04927812 4 62.89945829 4 71 C39.31 71 74.62 71 111 71 C111 71.33 111 71.66 111 72 C-7.8 72 -126.6 72 -249 72 C-249 71.67 -249 71.34 -249 71 C-211.71 71 -174.42 71 -136 71 C-136 66.71 -136 62.42 -136 58 C-135.01 58.99 -134.02 59.98 -133 61 C-131.515 61.495 -131.515 61.495 -130 62 C-130.14386168 51.43194691 -130.14386168 51.43194691 -132.5625 41.25 C-136.31635571 30.4116617 -134.80037904 15.90147556 -132 5 C-128.57159017 4.86286361 -125.6792565 4.77085323 -122.40625 5.875 C-108.21330845 10.56257702 -93.14459755 11.38322615 -78.3125 11.3125 C-77.64462463 11.30986145 -76.97674927 11.3072229 -76.28863525 11.30450439 C-63.50230334 11.22069701 -51.12118699 10.53130971 -38.625 7.75 C-37.61348877 7.53255127 -36.60197754 7.31510254 -35.55981445 7.09106445 C-32.37108328 6.40341493 -29.18531568 5.70328913 -26 5 C-22.75400767 4.28621906 -19.50786803 3.57314534 -16.26123047 2.86230469 C-14.2476731 2.42024968 -12.23493876 1.97442503 -10.22314453 1.52441406 C-9.31806152 1.32428711 -8.41297852 1.12416016 -7.48046875 0.91796875 C-6.28780396 0.65149536 -6.28780396 0.65149536 -5.07104492 0.37963867 C-3 0 -3 0 0 0 Z " fill="#47595D" transform="translate(319,392)"/>
<path d="M0 0 C1.11503906 0.59425781 2.23007813 1.18851562 3.37890625 1.80078125 C8.08819638 4.1517998 12.89678333 5.70945284 17.9375 7.1875 C18.77990234 7.44724609 19.62230469 7.70699219 20.49023438 7.97460938 C21.74610352 8.34875977 21.74610352 8.34875977 23.02734375 8.73046875 C23.76718506 8.95114014 24.50702637 9.17181152 25.26928711 9.39916992 C29.14563589 10.25207062 33.05307945 10.61691367 37 11 C37.05160145 17.73621261 37.08610184 24.47237257 37.10986328 31.20874023 C37.11979092 33.49033512 37.13333744 35.77191775 37.15087891 38.0534668 C37.42532293 74.72403122 37.42532293 74.72403122 34 85 C32.38403866 96.89028347 32.90032153 109.03398356 33 121 C33.99 121 34.98 121 36 121 C35.97643433 122.37551025 35.97643433 122.37551025 35.95239258 123.77880859 C35.90083609 127.22678441 35.86344446 130.6743423 35.83520508 134.12255859 C35.82024816 135.60634889 35.79987505 137.09009599 35.77368164 138.57373047 C35.63993922 146.35176991 35.67648031 153.38810422 38.32543945 160.81396484 C39.43505617 164.40987801 39.32545841 167.89658562 39.1875 171.625 C39.17396484 172.34300781 39.16042969 173.06101562 39.14648438 173.80078125 C39.1118161 175.53419523 39.05804627 177.26721134 39 179 C37.0625 178.625 37.0625 178.625 35 178 C34.67 177.34 34.34 176.68 34 176 C33.67 179.96 33.34 183.92 33 188 C24.09 188 15.18 188 6 188 C0.64537589 175.50587707 -0.0311637 164.400093 1.76196289 151.0546875 C3.46497967 136.35459602 1.13096617 122.13642237 -1.52148438 107.71191406 C-2.6160197 101.50880266 -3.28210643 95.2559297 -4 89 C-4.18518355 87.64551461 -4.37275532 86.29135397 -4.5625 84.9375 C-8.33381276 56.99184739 -5.91946787 27.53927994 0 0 Z " fill="#EFB599" transform="translate(150,275)"/>
<path d="M0 0 C0.66 0 1.32 0 2 0 C2.47050781 1.09699219 2.94101562 2.19398438 3.42578125 3.32421875 C4.05450348 4.77872539 4.68342 6.23314806 5.3125 7.6875 C5.62123047 8.40873047 5.92996094 9.12996094 6.24804688 9.87304688 C9.319544 16.95365604 12.04090205 22.99274607 19.625 26.0625 C20.40875 26.371875 21.1925 26.68125 22 27 C23.02104551 27.97850195 24.0206121 28.97980427 25 30 C27.94995989 32.05603265 30.89726902 33.34436005 34.25 34.5625 C45.77131619 39.05444173 56.34933924 46.41645384 66.62207031 53.21948242 C69.0838321 54.83876967 71.18591791 56.06197264 74 57 C74 57.66 74 58.32 74 59 C74.721875 59.268125 75.44375 59.53625 76.1875 59.8125 C81.64705882 62.11764706 81.64705882 62.11764706 84 64 C84.3125 67.1875 84.3125 67.1875 84 70 C84.57878906 70.26167969 85.15757812 70.52335937 85.75390625 70.79296875 C91.62369506 73.94734222 99.86501696 80.59505087 102 87 C102.928125 87.8353125 102.928125 87.8353125 103.875 88.6875 C108.80836182 94.05615845 109.32881711 100.03168744 109.10546875 107.09375 C109.07066406 107.7228125 109.03585937 108.351875 109 109 C108.34 109 107.68 109 107 109 C106.938125 109.556875 106.87625 110.11375 106.8125 110.6875 C105.6519231 113.99068042 103.59786554 115.71894733 101 118 C100.34 118 99.68 118 99 118 C99 118.66 99 119.32 99 120 C86.57153534 122.37741464 76.01612365 118.69909287 65 113 C63.576875 112.443125 63.576875 112.443125 62.125 111.875 C60 110 60 110 59.69140625 107.80859375 C59.68782123 105.51776703 59.78490508 103.2800062 60 101 C59.01 100.67 58.02 100.34 57 100 C55.51635742 98.49511719 55.51635742 98.49511719 53.91796875 96.546875 C49.64410512 91.51034293 45.00449314 86.89459927 40.3125 82.25 C39.47138672 81.41339844 38.63027344 80.57679688 37.76367188 79.71484375 C36.20600002 78.16581876 34.64729444 76.61783197 33.0871582 75.07128906 C32.398396 74.38776367 31.70963379 73.70423828 31 73 C29.87694458 71.93990723 29.87694458 71.93990723 28.73120117 70.85839844 C27 69 27 69 27 67 C26.34 67 25.68 67 25 67 C23.51953125 65.49609375 23.51953125 65.49609375 21.8125 63.4375 C19.44837895 60.65156482 17.05005091 57.99199422 14.4375 55.4375 C11.10702417 52.15223425 7.74004829 48.80394982 5 45 C5 44.34 5 43.68 5 43 C2.66785852 41.79371992 0.50357861 40.8345262 -2 40 C-1.67 37.36 -1.34 34.72 -1 32 C-0.34 32 0.32 32 1 32 C0.360625 31.0925 -0.27875 30.185 -0.9375 29.25 C-4.59094229 23.49306063 -4.66280149 17.69687734 -4 11 C-2.92861708 7.21039231 -1.56479284 3.61159776 0 0 Z " fill="#EEB396" transform="translate(277,147)"/>
<path d="M0 0 C3.57235272 3.01665341 5.59517903 5.53011509 7 10 C8.03125 9.896875 9.0625 9.79375 10.125 9.6875 C15.01832583 10.08212305 16.64819808 11.49230032 20 15 C22.19382219 19.17870894 22.34631098 23.18514978 22.3125 27.8125 C22.31121094 28.54718506 22.30992187 29.28187012 22.30859375 30.03881836 C22.1748354 37.87789354 20.72406848 45.37510191 19 53 C17.55753906 53.39832031 17.55753906 53.39832031 16.0859375 53.8046875 C14.55839844 54.39636719 14.55839844 54.39636719 13 55 C11.54839062 58.01779872 11.54839062 58.01779872 11 61 C10.01 61 9.02 61 8 61 C7.81824219 59.69804687 7.63648438 58.39609375 7.44921875 57.0546875 C7.19585282 55.32804563 6.9419164 53.6014874 6.6875 51.875 C6.56955078 51.0190625 6.45160156 50.163125 6.33007812 49.28125 C5.592105 44.36142917 4.7015194 40.28240853 2 36 C-2.06984654 33.28676897 -5.22124685 33.4741825 -10 34 C-12.14231049 34.61638407 -14.13222057 35.35926553 -16.17578125 36.24609375 C-21.26256262 38.34833958 -26.26405035 38.21821421 -31.6875 38.25 C-32.54794922 38.270625 -33.40839844 38.29125 -34.29492188 38.3125 C-40.38793574 38.34923256 -45.35317873 37.27623803 -51 35 C-52.03087881 40.28433677 -52.31611358 45.51104648 -52.5625 50.875 C-52.60568359 51.75414062 -52.64886719 52.63328125 -52.69335938 53.5390625 C-52.79869339 55.69255797 -52.89977649 57.84626064 -53 60 C-55.85864199 57.33695693 -56.6628045 55.46027337 -57.5625 51.625 C-57.93761719 50.03558594 -57.93761719 50.03558594 -58.3203125 48.4140625 C-59.21762156 43.90688942 -59.79025622 39.38104511 -60.27734375 34.8125 C-61.1386947 31.46021523 -62.47766532 30.29033912 -65 28 C-66.1577506 24.52674819 -66.06866652 21.63932552 -66 18 C-64.68 18.33 -63.36 18.66 -62 19 C-62.33 18.01 -62.66 17.02 -63 16 C-63.87910328 7.367494 -63.87910328 7.367494 -61.3125 3.375 C-58.60942614 1.7677669 -57.09383129 1.58191469 -54 2 C-53.67 2.33 -53.34 2.66 -53 3 C-42.81259567 4.00157065 -34.31116609 2.37200197 -24.6796875 -0.80859375 C-16.06633842 -3.59741697 -8.17067204 -4.55672094 0 0 Z " fill="#495B5F" transform="translate(266,69)"/>
<path d="M0 0 C4.55821057 3.87932814 6.27801591 8.05365884 7 14 C7.92455592 25.50741922 6.05434025 37.05514507 0 47 C-0.34675781 47.63808594 -0.69351563 48.27617187 -1.05078125 48.93359375 C-3.81584411 53.50402412 -6.70525227 55.28799562 -11.83984375 56.7109375 C-14.71641943 57.09586806 -16.54385437 56.50537958 -19 55 C-19 54.34 -19 53.68 -19 53 C-19.66 53 -20.32 53 -21 53 C-25.95161481 40.20832841 -25.19578327 26.67141239 -19.7578125 14.13671875 C-18.02329292 10.59070387 -16.19078125 7.28617188 -14 4 C-13.34 4 -12.68 4 -12 4 C-12 3.34 -12 2.68 -12 2 C-7.98649843 -0.67566772 -4.71526457 -0.92813644 0 0 Z " fill="#E6F0ED" transform="translate(71,242)"/>
<path d="M0 0 C4.73245404 3.47217718 7.67918234 6.61570303 10 12 C10 16.06507131 9.6580344 18.13774803 7.1875 21.375 C1.16160515 25.85137903 -8.10898782 24.45094439 -15.203125 23.796875 C-23.01793772 22.23391246 -33.0426675 17.29376824 -39 12 C-39 11.34 -39 10.68 -39 10 C-39.66 10 -40.32 10 -41 10 C-43.29579305 6.78588973 -44.70325548 3.95659359 -45 0 C-44.02295753 -3.41964865 -42.90288076 -5.89791393 -40 -8 C-25.83657958 -13.27656839 -12.3143471 -7.22638333 0 0 Z " fill="#E6F0ED" transform="translate(341,41)"/>
<path d="M0 0 C5.70128866 5.89788482 4.30934195 14.39787731 4.21875 22.01171875 C3.95235612 30.96754786 1.65394934 38.49617806 -4.9375 44.875 C-7.53967451 46.29436792 -9.07722413 46.44965783 -12 46 C-14.55725834 44.10573456 -15.75302923 41.88949649 -17 39 C-18.53082179 27.45322995 -18.16946949 13.96252615 -11.69140625 3.984375 C-7.96486442 -0.74844371 -5.79294174 -1.53690291 0 0 Z " fill="#E7F0ED" transform="translate(442,253)"/>
<path d="M0 0 C0.33 0 0.66 0 1 0 C1.50010124 55.49969629 1.50010124 55.49969629 -2 66 C-3.61596134 77.89028347 -3.09967847 90.03398356 -3 102 C-2.01 102 -1.02 102 0 102 C0.1598655 111.37877608 -0.33566818 120.65190221 -1 130 C-1.66 130 -2.32 130 -3 130 C-7.59568059 124.93998898 -9.38208488 119.94470601 -9.23828125 113.1640625 C-9.22695663 112.51417862 -9.21563202 111.86429474 -9.20396423 111.19471741 C-9.05394265 104.34897934 -8.63330256 97.51410123 -8.20291138 90.68136597 C-7.47506371 79.04988257 -6.93708702 67.43498646 -6.75 55.78125 C-6.73279404 54.75379166 -6.71558807 53.72633331 -6.69786072 52.66773987 C-6.61712152 47.62343746 -6.55543501 42.57971459 -6.51782227 37.53491211 C-6.40812082 27.92961449 -5.96496526 19.22853923 -3 10 C-2.61456488 8.46090907 -2.23857859 6.91940012 -1.875 5.375 C-1 2 -1 2 0 0 Z " fill="#E3EBE6" transform="translate(186,294)"/>
<path d="M0 0 C5.59731932 -0.28951652 9.1683016 -0.18452849 14 3 C18.40514928 7.88138163 19.37207664 10.87708757 19.26953125 17.328125 C18.77108428 22.26925148 17.1982555 26.08800381 13.41015625 29.3828125 C7.49406293 32.9599852 0.68734278 32.86395484 -6 32 C-9.02539447 30.9508348 -11.26673566 29.71498939 -14 28 C-10.31015312 26.77005104 -9.33254199 27.74773305 -5.953125 29.28125 C-1.74124568 30.83122159 2.12953925 30.76203957 6.21484375 29.09765625 C7.60626731 28.39062185 8.98215204 27.65167373 10.3359375 26.875 C12 26 12 26 14 26 C14.99 22.535 14.99 22.535 16 19 C15.01 18.67 14.02 18.34 13 18 C12.5875 18.78375 12.175 19.5675 11.75 20.375 C9.88790677 23.16813985 9.1939114 24.11280239 6 25 C0.73368174 24.80849752 -2.30941082 23.79603459 -6 20 C-7.82063934 16.93801565 -8.00264709 15.14558973 -7.9375 11.5625 C-6.76191819 7.09528913 -5.2433615 5.2433615 -2 2 C-1.34 2 -0.68 2 0 2 C0 1.34 0 0.68 0 0 Z " fill="#E3EFEB" transform="translate(364,110)"/>
<path d="M0 0 C3.86486124 1.5745731 6.13495301 4.0047236 9 7 C9.57621094 7.50917969 10.15242188 8.01835937 10.74609375 8.54296875 C24.84624551 21.39481734 33.94437504 41.39530467 35.14453125 60.2734375 C35.2357367 64.60155062 34.70892767 68.74643397 34 73 C33.34 73 32.68 73 32 73 C31.97494385 72.43603516 31.9498877 71.87207031 31.92407227 71.29101562 C31.80681699 68.69385118 31.68468734 66.0969369 31.5625 63.5 C31.52318359 62.613125 31.48386719 61.72625 31.44335938 60.8125 C31.18915913 55.49384873 30.73323663 50.2743744 30 45 C29.34 45 28.68 45 28 45 C27.896875 45.556875 27.79375 46.11375 27.6875 46.6875 C27 49 27 49 25.46875 51.1875 C23.60204164 54.76204792 23.70013779 57.3049145 23.8125 61.3125 C23.83957031 62.56675781 23.86664063 63.82101563 23.89453125 65.11328125 C23.94673828 66.54220703 23.94673828 66.54220703 24 68 C23.01 68.495 23.01 68.495 22 69 C21.93530518 68.38181396 21.87061035 67.76362793 21.80395508 67.12670898 C19.7682864 48.29895794 16.5094955 31.59922121 5.125 15.9375 C3 13 3 13 3 11 C2.34 11 1.68 11 1 11 C-0.625 9 -0.625 9 -2 7 C-1.67 6.34 -1.34 5.68 -1 5 C4.01037731 10.37092556 8.30278651 15.64541431 12 22 C12.99 20.68 13.98 19.36 15 18 C11.08035996 12.35879257 6.70716382 7.54666091 1.7578125 2.78515625 C0 1 0 1 0 0 Z " fill="#E3EDEA" transform="translate(396,168)"/>
<path d="M0 0 C1.98 0 3.96 0 6 0 C6.25251418 9.00633918 5.87657941 17.84002483 5.0625 26.8125 C4.97564941 27.78525879 4.88879883 28.75801758 4.79931641 29.76025391 C4.13137106 36.73725788 4.13137106 36.73725788 3 39 C2.6087065 41.54197964 2.25520881 44.07391589 1.9375 46.625 C1.84662109 47.33140625 1.75574219 48.0378125 1.66210938 48.765625 C1.43816881 50.5100041 1.21866182 52.25495134 1 54 C1.99 54.33 2.98 54.66 4 55 C3.39096941 58.09305422 2.40131197 60.19639762 0.5625 62.75 C0.13066406 63.36359375 -0.30117188 63.9771875 -0.74609375 64.609375 C-1.36677734 65.29773438 -1.36677734 65.29773438 -2 66 C-2.66 66 -3.32 66 -4 66 C-4 66.66 -4 67.32 -4 68 C-4.66 68 -5.32 68 -6 68 C-6.67679658 66.274773 -7.34102 64.54461061 -8 62.8125 C-8.37125 61.84957031 -8.7425 60.88664062 -9.125 59.89453125 C-9.97636772 57.07817642 -10.17072647 54.91835561 -10 52 C-8.68 52 -7.36 52 -6 52 C-5.95101563 51.23816406 -5.90203125 50.47632813 -5.8515625 49.69140625 C-5.73941406 48.14259766 -5.73941406 48.14259766 -5.625 46.5625 C-5.55539062 45.55316406 -5.48578125 44.54382813 -5.4140625 43.50390625 C-5.10186796 40.8620336 -4.6706018 38.57761196 -4.02734375 36.0234375 C-2.50396392 29.46251753 -2.32015865 22.76734501 -1.9375 16.0625 C-1.78524469 13.44883656 -1.6264116 10.83578257 -1.46484375 8.22265625 C-1.399021 7.07547119 -1.33319824 5.92828613 -1.26538086 4.74633789 C-1 2 -1 2 0 0 Z " fill="#D1E0DB" transform="translate(362,297)"/>
<path d="M0 0 C1.32 0 2.64 0 4 0 C5.53937439 3.07874877 5.00296786 6.26736697 4.87890625 9.6328125 C4.85529526 10.38464813 4.83168427 11.13648376 4.80735779 11.91110229 C4.7306938 14.31592566 4.64668156 16.72042918 4.5625 19.125 C4.50928203 20.75389052 4.45654161 22.38279672 4.40429688 24.01171875 C4.27507502 28.0080156 4.13926173 32.00404092 4 36 C4.99 36 5.98 36 7 36 C6.48474397 41.28137429 4.74522883 44.57221156 2 49 C-1 48 -1 48 -2.6875 45.125 C-4 42 -4 42 -4 39 C-4.66 39 -5.32 39 -6 39 C-6 38.01 -6 37.02 -6 36 C-4.68 36 -3.36 36 -2 36 C-2.00523682 35.4016333 -2.01047363 34.8032666 -2.01586914 34.18676758 C-2.20500666 9.25652712 -2.20500666 9.25652712 -1 1 C-0.67 0.67 -0.34 0.34 0 0 Z " fill="#D4E2DD" transform="translate(115,286)"/>
<path d="M0 0 C5.59731932 -0.28951652 9.1683016 -0.18452849 14 3 C18.40514928 7.88138163 19.37207664 10.87708757 19.26953125 17.328125 C18.77108428 22.26925148 17.1982555 26.08800381 13.41015625 29.3828125 C7.49406293 32.9599852 0.68734278 32.86395484 -6 32 C-9.02539447 30.9508348 -11.26673566 29.71498939 -14 28 C-10.31015312 26.77005104 -9.33254199 27.74773305 -5.953125 29.28125 C-1.74124568 30.83122159 2.12953925 30.76203957 6.21484375 29.09765625 C7.60626731 28.39062185 8.98215204 27.65167373 10.3359375 26.875 C12 26 12 26 14 26 C17.01118632 17.65254021 17.01118632 17.65254021 16 9 C13.81008403 6.41702219 12.03168312 4.51584156 9 3 C4.58286141 2.63793946 2.05101417 2.48567391 -1.9375 4.4375 C-4.80424554 7.99921415 -5.31096221 11.47111448 -5 16 C-3.76564251 19.29161998 -3.049743 19.966838 0 22 C4.66507428 22.46405377 4.66507428 22.46405377 8.9375 20.875 C10.52225401 18.07837528 10.45947423 16.1506804 10 13 C7.7793949 10.532661 6.56430797 10.03847554 3.25 9.8125 C2.5075 9.874375 1.765 9.93625 1 10 C1.66 9.34 2.32 8.68 3 8 C6.03807025 8.19391938 8.2446341 8.5051051 10.8125 10.1875 C12.54363816 12.8297635 12.87409169 14.85229226 13 18 C11.77798287 20.82993441 10.66886714 22.47446153 8.25 24.375 C4.85374969 25.31840286 2.40246299 24.83569266 -1 24 C-3.95492969 22.16137708 -5.60012663 20.67251431 -7.375 17.6875 C-8.22305381 14.04086863 -7.95418711 11.62591102 -7 8 C-5.51898258 5.63865754 -3.99883532 3.99883532 -2 2 C-1.34 2 -0.68 2 0 2 C0 1.34 0 0.68 0 0 Z " fill="#CAD6D2" transform="translate(364,110)"/>
<path d="M0 0 C0.66 0.33 1.32 0.66 2 1 C0.625 3 0.625 3 -1 5 C-1.66 5 -2.32 5 -3 5 C-3.33 5.99 -3.66 6.98 -4 8 C-6.5625 9.1875 -6.5625 9.1875 -9 10 C-9 10.66 -9 11.32 -9 12 C-15.16144645 15.67317 -19.16084825 17.14905223 -26.4375 17.25 C-28.10619141 17.28867188 -28.10619141 17.28867188 -29.80859375 17.328125 C-33.35545398 16.96345394 -35.22309911 16.2163783 -38 14 C-38.3125 10.8125 -38.3125 10.8125 -38 8 C-33.36607143 8.90104167 -33.36607143 8.90104167 -31.078125 9.51953125 C-23.32570138 11.31191491 -15.38862737 9.54557089 -8 7 C-4.97309557 5.18409021 -4.97309557 5.18409021 -3 3 C-2.401875 2.4225 -1.80375 1.845 -1.1875 1.25 C-0.795625 0.8375 -0.40375 0.425 0 0 Z " fill="#E49D82" transform="translate(267,163)"/>
<path d="M0 0 C1.67255859 0.89138672 1.67255859 0.89138672 3.37890625 1.80078125 C8.08819638 4.1517998 12.89678333 5.70945284 17.9375 7.1875 C18.77990234 7.44724609 19.62230469 7.70699219 20.49023438 7.97460938 C26.0096476 9.61896112 31.26025932 10.519275 37 11 C37 11.99 37 12.98 37 14 C24.90908952 14.5509782 11.10027927 14.55013964 0 9 C0 6.03 0 3.06 0 0 Z " fill="#DD9D83" transform="translate(150,275)"/>
<path d="M0 0 C3.39859703 1.46966358 5.64963709 3.38037514 8.25 6 C8.95640625 6.70125 9.6628125 7.4025 10.390625 8.125 C12 10 12 10 12 12 C12.66 12 13.32 12 14 12 C14 12.66 14 13.32 14 14 C14.59522461 14.2575708 15.19044922 14.5151416 15.80371094 14.78051758 C18.19758441 16.10970811 19.41589848 17.40057367 21.140625 19.51171875 C25.40985781 24.55437981 30.05702001 29.16666741 34.75 33.8125 C35.59949219 34.65748047 36.44898438 35.50246094 37.32421875 36.37304688 C38.89044206 37.93061018 40.45769742 39.48713696 42.02636719 41.04223633 C42.67766602 41.68829834 43.32896484 42.33436035 44 43 C44.57564697 43.53882813 45.15129395 44.07765625 45.74438477 44.6328125 C47 46 47 46 47.29296875 48.04296875 C47.1953125 50.02864583 47.09765625 52.01432292 47 54 C46.01 53.505 46.01 53.505 45 53 C44.855625 52.030625 44.71125 51.06125 44.5625 50.0625 C44.376875 49.051875 44.19125 48.04125 44 47 C43.01 46.34 42.02 45.68 41 45 C41 44.34 41 43.68 41 43 C40.41734375 42.7525 39.8346875 42.505 39.234375 42.25 C36.66885764 40.81474554 35.16275202 39.22336987 33.25 37 C32.32960938 35.948125 32.32960938 35.948125 31.390625 34.875 C30 33 30 33 30 31 C28.02 31.99 28.02 31.99 26 33 C23.9908485 30.73671476 21.9927002 28.46519224 20 26.1875 C19.42765625 25.54490234 18.8553125 24.90230469 18.265625 24.24023438 C17.72421875 23.61826172 17.1828125 22.99628906 16.625 22.35546875 C16.12226563 21.78465576 15.61953125 21.21384277 15.1015625 20.62573242 C14 19 14 19 14 16 C13.34 16 12.68 16 12 16 C8 11.64705882 8 11.64705882 8 8 C7.34 8 6.68 8 6 8 C4.4921875 6.25 4.4921875 6.25 2.875 4 C2.33617187 3.2575 1.79734375 2.515 1.2421875 1.75 C0.62730469 0.88375 0.62730469 0.88375 0 0 Z " fill="#687A72" transform="translate(290,202)"/>
<path d="M0 0 C0 4.29 0 8.58 0 13 C-1.65 13 -3.3 13 -5 13 C-5.268125 13.825 -5.53625 14.65 -5.8125 15.5 C-9.51470588 26.41176471 -9.51470588 26.41176471 -12 31 C-12.99 30.67 -13.98 30.34 -15 30 C-14.67401039 24.86566371 -14.15898075 20.94346786 -11.875 16.3125 C-10.01727455 12.50349459 -9.71707772 10.16949742 -11 6 C-9.27473958 5.0234375 -7.54947917 4.046875 -5.82421875 3.0703125 C-0.59124088 0 -0.59124088 0 0 0 Z " fill="#D1E0DB" transform="translate(140,171)"/>
<path d="M0 0 C5.03336362 0.549451 8.69930183 2.92827781 12.9375 5.5 C13.6795166 5.9427124 14.4215332 6.3854248 15.18603516 6.84155273 C20.74263871 10.17871855 26.21686077 13.63976928 31.62084961 17.21875 C34.08304197 18.83821337 36.18547735 20.06182578 39 21 C39 21.66 39 22.32 39 23 C39.721875 23.268125 40.44375 23.53625 41.1875 23.8125 C44.06202607 25.02618879 46.52386415 26.08983806 49 28 C49.3125 30.6875 49.3125 30.6875 49 33 C48.34 33 47.68 33 47 33 C47 32.34 47 31.68 47 31 C46.26265625 30.73058594 45.5253125 30.46117187 44.765625 30.18359375 C42.09198403 29.03936605 40.08476092 27.77997701 37.75 26.0625 C33.16484549 22.78056649 28.48851933 19.67845356 23.75 16.625 C23.02651367 16.15787598 22.30302734 15.69075195 21.55761719 15.20947266 C17.99114801 12.91131027 14.41618753 10.62758427 10.828125 8.36328125 C10.18133789 7.95319824 9.53455078 7.54311523 8.86816406 7.12060547 C7.64885909 6.34842148 6.42695612 5.58032029 5.20214844 4.81689453 C1.111785 2.22357001 1.111785 2.22357001 0 0 Z " fill="#838E85" transform="translate(312,183)"/>
<path d="M0 0 C0.66 0 1.32 0 2 0 C1.52426536 2.69582961 0.96766666 5.07988237 -0.0625 7.625 C-2.18141591 15.25309726 -1.63177634 22.02698944 2 29 C2.33 29.99 2.66 30.98 3 32 C2.34 32 1.68 32 1 32 C0.67 34.64 0.34 37.28 0 40 C1.32 40.33 2.64 40.66 4 41 C-0.01156915 42.48576635 -0.48130304 41.80747878 -5 40 C-5 30.1 -5 20.2 -5 10 C-4.34 10 -3.68 10 -3 10 C-2.87625 9.278125 -2.7525 8.55625 -2.625 7.8125 C-2.0095069 5.04278106 -1.11555626 2.6029646 0 0 Z " fill="#E2A085" transform="translate(275,147)"/>
<path d="M0 0 C2 2 2 2 2.375 4.875 C2 8 2 8 0.4375 10.375 C-2.87969422 12.58646281 -5.08945759 12.42660463 -9 12 C-9.99 11.34 -10.98 10.68 -12 10 C-11.67 9.34 -11.34 8.68 -11 8 C-11 6.49942141 -11.05006468 4.99870638 -11.125 3.5 C-11 1 -11 1 -9 -1 C-5.44466105 -2.47117474 -3.36514257 -1.68257128 0 0 Z " fill="#D9E6E2" transform="translate(373,121)"/>
<path d="M0 0 C3.5625 0.25 3.5625 0.25 6.5625 2.25 C7.12987589 9.39893617 7.12987589 9.39893617 4.5625 13.25 C-2.41424419 14.0251938 -2.41424419 14.0251938 -5.5 11.6875 C-6.83024773 8.2288559 -6.29357025 5.8059841 -5.4375 2.25 C-3.4375 0.25 -3.4375 0.25 0 0 Z " fill="#D9E5E1" transform="translate(110.4375,404.75)"/>
<path d="M0 0 C0.99 0 1.98 0 3 0 C3 0.66 3 1.32 3 2 C3.66 2 4.32 2 5 2 C6.5078125 3.6796875 6.5078125 3.6796875 8.125 5.875 C8.66382813 6.59429687 9.20265625 7.31359375 9.7578125 8.0546875 C11 10 11 10 11 12 C10.34 12 9.68 12 9 12 C7.4921875 10.25 7.4921875 10.25 5.875 8 C5.33617187 7.2575 4.79734375 6.515 4.2421875 5.75 C3.83226562 5.1725 3.42234375 4.595 3 4 C3.03480469 5.0415625 3.06960938 6.083125 3.10546875 7.15625 C3.51934944 24.91967471 0.66907461 41.71940888 -9 57 C-9.33 56.34 -9.66 55.68 -10 55 C-9.17455193 52.92887576 -8.26150636 50.8925002 -7.3125 48.875 C-1.26577006 35.30074431 0.65974378 22.80758257 0 8 C-0.99 10.31 -1.98 12.62 -3 15 C-4.43410153 11.21180727 -3.51009497 8.93478721 -2.0625 5.25 C-1.68222656 4.26515625 -1.30195313 3.2803125 -0.91015625 2.265625 C-0.60980469 1.51796875 -0.30945313 0.7703125 0 0 Z " fill="#C8D5D0" transform="translate(398,315)"/>
<path d="M0 0 C0.66 0 1.32 0 2 0 C0.71519898 3.97176469 -0.70022063 7.86796682 -2.20849609 11.75805664 C-6.76709909 23.5904577 -8.30206103 33.26309339 -8 46 C-6.68 43.36 -5.36 40.72 -4 38 C-2.60788785 42.17633644 -4.0464421 43.78960515 -5.9375 47.6875 C-6.50339844 48.86699219 -7.06929687 50.04648438 -7.65234375 51.26171875 C-8.09707031 52.16535156 -8.54179688 53.06898438 -9 54 C-12.73872495 52.30343574 -14.6288741 50.38732271 -17 47 C-17 46.34 -17 45.68 -17 45 C-16.34 45 -15.68 45 -15 45 C-13.375 47.5 -13.375 47.5 -12 50 C-11.90203125 48.741875 -11.8040625 47.48375 -11.703125 46.1875 C-10.30550783 29.64036279 -7.07637174 15.09625972 0 0 Z " fill="#C6D3D0" transform="translate(110,180)"/>
<path d="M0 0 C1.31291016 -0.03867188 1.31291016 -0.03867188 2.65234375 -0.078125 C5.4818869 0.30709643 6.31382925 1.05694757 8.0625 3.25 C7.08410156 3.08951172 7.08410156 3.08951172 6.0859375 2.92578125 C0.50825979 2.16070156 -3.11184024 1.87203817 -7.9375 5.25 C-8.9275 6.735 -8.9275 6.735 -9.9375 8.25 C-10.5975 8.25 -11.2575 8.25 -11.9375 8.25 C-13.53206558 14.42894161 -13.53206558 21.07105839 -11.9375 27.25 C-11.2775 27.25 -10.6175 27.25 -9.9375 27.25 C-9.4425 27.9925 -8.9475 28.735 -8.4375 29.5 C-4.24325959 34.11366445 0.97937089 36.00506036 7.16015625 36.49609375 C9.80751679 36.4995097 12.4218231 36.43073074 15.0625 36.25 C14.7325 36.91 14.4025 37.57 14.0625 38.25 C4.16674691 38.79305962 -2.1169103 38.32072019 -9.75 31.875 C-14.43988265 26.24714082 -16.30948696 20.55447124 -15.9375 13.25 C-14.37843496 7.86246162 -11.64349491 4.34604928 -6.9375 1.25 C-4.48367866 0.02308933 -2.73765897 0.04824069 0 0 Z " fill="#C8D6D2" transform="translate(131.9375,89.75)"/>
<path d="M0 0 C4.44238237 3.41328372 7.60977713 6.83295201 10.5625 11.625 C11.13991943 12.54478638 11.13991943 12.54478638 11.72900391 13.4831543 C20.80353353 28.2201751 26.94373989 45.55828863 26 63 C25.01 63.495 25.01 63.495 24 64 C23.93530518 63.38181396 23.87061035 62.76362793 23.80395508 62.12670898 C21.7682864 43.29895794 18.5094955 26.59922121 7.125 10.9375 C5 8 5 8 5 6 C4.34 6 3.68 6 3 6 C0 2.53846154 0 2.53846154 0 0 Z " fill="#C9D6D3" transform="translate(394,173)"/>
<path d="M0 0 C0.66 0 1.32 0 2 0 C1.85492922 1.33341652 1.7088897 2.66672764 1.5625 4 C1.48128906 4.7425 1.40007812 5.485 1.31640625 6.25 C1.06803917 8.40864722 0.78142434 10.56289817 0.48046875 12.71484375 C-0.09520253 17.33210575 -0.23144005 21.91255315 -0.25 26.5625 C-0.25394775 27.43003906 -0.25789551 28.29757812 -0.26196289 29.19140625 C-0.20059184 36.07508739 0.78232395 42.36542602 2.44140625 49.03125 C2.97379094 51.86070712 2.9843783 53.34022288 2 56 C-1.04954865 45.39370816 -1.04954865 45.39370816 -1.625 40.875 C-1.68879347 38.10796961 -1.68879347 38.10796961 -3 37 C-3.28528027 32.8824547 -3.23200122 28.75122066 -3.25 24.625 C-3.270625 23.48160156 -3.29125 22.33820313 -3.3125 21.16015625 C-3.34674539 13.63473078 -2.39787809 7.13757527 0 0 Z " fill="#CAD4D1" transform="translate(88,266)"/>
<path d="M0 0 C3.79481492 3.79481492 4.25348244 8.49320414 4.32958984 13.70849609 C4.3239502 14.38219238 4.31831055 15.05588867 4.3125 15.75 C4.30686035 16.45592285 4.3012207 17.1618457 4.29541016 17.88916016 C4.03561835 29.13222939 -0.04002282 38.25686853 -7.375 46.75 C-17.78651685 55.6741573 -17.78651685 55.6741573 -23 56 C-20.65437787 54.10836925 -18.31376027 52.22782225 -15.875 50.45703125 C-7.18823241 44.04467072 -1.21508454 36.79695492 1 26 C1.7347906 17.29263124 1.20275777 8.63443179 0 0 Z " fill="#CDD9D5" transform="translate(427,384)"/>
<path d="M0 0 C3.0625 0.3125 3.0625 0.3125 5 1.4375 C6.0625 3.3125 6.0625 3.3125 5.875 6.4375 C5.606875 7.38625 5.33875 8.335 5.0625 9.3125 C2.29999964 10.69375018 0.11518901 10.50329306 -2.9375 10.3125 C-4.9375 8.3125 -4.9375 8.3125 -5.1875 5.3125 C-4.84687504 1.2250005 -4.07761768 0.43378911 0 0 Z " fill="#D6E3DF" transform="translate(388.9375,406.6875)"/>
<path d="M0 0 C0.66 0.33 1.32 0.66 2 1 C4.18093936 13.21326042 3.47883346 24.07257623 -3.2890625 34.703125 C-6.84534809 39.47731662 -11.60177633 43.45083882 -17 46 C-17.99 45.67 -18.98 45.34 -20 45 C-19.38511719 44.60167969 -18.77023437 44.20335937 -18.13671875 43.79296875 C-17.32847656 43.26316406 -16.52023437 42.73335938 -15.6875 42.1875 C-14.48673828 41.40439453 -14.48673828 41.40439453 -13.26171875 40.60546875 C-11.00022173 39.10018405 -11.00022173 39.10018405 -9.33203125 37.30078125 C-8 36 -8 36 -6 36 C-5.731875 35.319375 -5.46375 34.63875 -5.1875 33.9375 C-4.29857513 31.73858058 -3.37632795 29.55308083 -2.4375 27.375 C-0.71841166 23.33887956 0.1239978 20.45963717 0.09765625 16.11328125 C0.09282227 14.7065918 0.09282227 14.7065918 0.08789062 13.27148438 C0.07951172 12.29501953 0.07113281 11.31855469 0.0625 10.3125 C0.05798828 9.32443359 0.05347656 8.33636719 0.04882812 7.31835938 C0.03704303 4.87884526 0.02059011 2.43945311 0 0 Z " fill="#D0DCD8" transform="translate(421,388)"/>
<path d="M0 0 C3.16115776 1.36983503 3.9927092 1.9890638 6 5 C6.77286121 9.7180481 6.42364132 13.19654232 4.1875 17.4375 C1.97944946 20.02407349 0.34163854 21.76131899 -3.0859375 22.37109375 C-7.26823838 22.4924233 -9.44544699 22.35083966 -13.0625 20.0625 C-15.35718808 16.43541239 -15.52519733 14.1865511 -15.46875 9.98828125 C-15 8 -15 8 -12 6 C-9.66800612 5.92094936 -7.33167378 5.91201231 -5 6 C-4.67 6.66 -4.34 7.32 -4 8 C-6.64 8 -9.28 8 -12 8 C-13.02703748 13.55493924 -13.02703748 13.55493924 -12 19 C-5.41677663 20.2065815 -5.41677663 20.2065815 1 19 C3.86139269 13.99256279 4.46427257 8.53169638 3 3 C2.34 3 1.68 3 1 3 C0.67 2.01 0.34 1.02 0 0 Z " fill="#C8D5D1" transform="translate(140,93)"/>
<path d="M0 0 C0.33 0.99 0.66 1.98 1 3 C1.66 3 2.32 3 3 3 C7 8.41176471 7 8.41176471 7 11 C7.63808594 11.13277344 8.27617187 11.26554688 8.93359375 11.40234375 C9.75988281 11.57894531 10.58617187 11.75554687 11.4375 11.9375 C12.26121094 12.11152344 13.08492187 12.28554687 13.93359375 12.46484375 C16 13 16 13 17 14 C22.66808019 14.62050562 27.16923983 14.25795453 32 11 C34.57288867 8.21270394 36.46075364 5.46330431 38 2 C38.66 2 39.32 2 40 2 C38.125 7.75 38.125 7.75 37 10 C36.34 10 35.68 10 35 10 C34.79375 10.61875 34.5875 11.2375 34.375 11.875 C32.4118433 14.90896945 30.44523803 15.073686 27 16 C20.31634792 16.71314402 13.64215907 16.92527503 7.72265625 13.40625 C4.51332497 10.78638773 1.90038588 7.68559686 0 4 C0 2.68 0 1.36 0 0 Z " fill="#D2B39F" transform="translate(230,184)"/>
<path d="M0 0 C0.33 0 0.66 0 1 0 C2.35709504 7.73059495 3.31918373 15.14453364 3 23 C1.02 23 -0.96 23 -3 23 C-3.09844937 17.94626547 -2.74171705 13.13236658 -2.0625 8.125 C-1.97548828 7.44953125 -1.88847656 6.7740625 -1.79882812 6.078125 C-1.12785823 1.12785823 -1.12785823 1.12785823 0 0 Z " fill="#D7E2E3" transform="translate(254,440)"/>
<path d="M0 0 C7.50116307 9.36573788 8.9905585 22.38002228 7.78662109 34.07226562 C7.55364403 35.7192438 7.2811097 37.36055108 7 39 C6.34 39 5.68 39 5 39 C4.94392578 37.06060547 4.94392578 37.06060547 4.88671875 35.08203125 C4.56602317 26.03458151 4.08302194 17.49801141 1.71875 8.7265625 C0.95633201 5.83434644 0.45326821 2.95496006 0 0 Z " fill="#C7D1CF" transform="translate(423,202)"/>
<path d="M0 0 C2.1519437 3.22791555 2.20086443 4.28400809 2 8 C-3.625 10.125 -3.625 10.125 -7 9 C-7.33 6.69 -7.66 4.38 -8 2 C-4.79191085 -0.1387261 -3.72301503 -0.47730962 0 0 Z " fill="#D8E3E0" transform="translate(336,155)"/>
<path d="M0 0 C0.66 0 1.32 0 2 0 C4.45153075 4.73898266 4.23154206 9.12062333 4.125 14.3125 C4.11597656 15.14845703 4.10695312 15.98441406 4.09765625 16.84570312 C4.07420989 18.89725969 4.03834266 20.94866777 4 23 C3.01 22.67 2.02 22.34 1 22 C-0.05086948 19.23633753 -0.11860688 16.60496259 -0.09765625 13.671875 C-0.09282227 12.47304688 -0.09282227 12.47304688 -0.08789062 11.25 C-0.07951172 10.425 -0.07113281 9.6 -0.0625 8.75 C-0.05798828 7.90953125 -0.05347656 7.0690625 -0.04882812 6.203125 C-0.03707961 4.13538599 -0.01914522 2.06768376 0 0 Z " fill="#ECE1D9" transform="translate(179,440)"/>
<path d="M0 0 C0.33 0.66 0.66 1.32 1 2 C0.34 1.67 -0.32 1.34 -1 1 C-0.67 0.67 -0.34 0.34 0 0 Z M-2 2 C-1.505 2.99 -1.505 2.99 -1 4 C-12.83010154 11.38072707 -24.92242677 18.50238583 -39 20 C-36.42015754 17.42015754 -34.0879527 16.89667308 -30.625 15.75 C-20.51852926 12.28507341 -11.26216605 7.28598365 -2 2 Z " fill="#607E7C" transform="translate(277,356)"/>
<path d="M0 0 C1.7325 0.4640625 1.7325 0.4640625 3.5 0.9375 C10.55670372 2.53460309 17.79597415 2.66410677 25 3 C25 3.33 25 3.66 25 4 C16.64731722 5.2386744 9.27086157 4.59105604 1 3 C1.33 4.98 1.66 6.96 2 9 C1.01 9.495 1.01 9.495 0 10 C-0.33 15.94 -0.66 21.88 -1 28 C-1.66 27.67 -2.32 27.34 -3 27 C-2.88936784 23.6243699 -2.75891985 20.24978011 -2.625 16.875 C-2.5940625 15.92367187 -2.563125 14.97234375 -2.53125 13.9921875 C-2.32252954 8.98289652 -1.94494635 4.69633387 0 0 Z " fill="#BEA18F" transform="translate(215,104)"/>
<path d="M0 0 C5.56818182 0.56818182 5.56818182 0.56818182 7 2 C7.23529412 7.52941176 7.23529412 7.52941176 6 10 C3.125 10.1875 3.125 10.1875 0 10 C-2.14915785 6.77626323 -2.38286803 5.73296326 -2 2 C-1.34 1.34 -0.68 0.68 0 0 Z " fill="#D7E3DF" transform="translate(172,158)"/>
<path d="M0 0 C0.33 0.66 0.66 1.32 1 2 C-4.14527603 14.18362532 -16.55249855 26.27793371 -27 34 C-27.99 33.67 -28.98 33.34 -30 33 C-29.38253906 32.52691406 -28.76507813 32.05382812 -28.12890625 31.56640625 C-17.36240849 23.15968882 -9.44462539 14.36367766 -2 3 C-1.34 2.01 -0.68 1.02 0 0 Z " fill="#CAD7D3" transform="translate(387,372)"/>
<path d="M0 0 C0.99 0 1.98 0 3 0 C3.48039005 2.37475834 3.95934474 4.74979155 4.4375 7.125 C4.57220703 7.79015625 4.70691406 8.4553125 4.84570312 9.140625 C5.4673233 12.23356442 6.0418314 15.30353696 6.47265625 18.4296875 C6.64667969 19.27789062 6.82070312 20.12609375 7 21 C7.66 21.33 8.32 21.66 9 22 C8.67 23.32 8.34 24.64 8 26 C4.92334627 21.75990579 3.16286949 18.11324196 1.75 13 C1.41484375 11.824375 1.0796875 10.64875 0.734375 9.4375 C0.03598637 6.16844685 -0.14208465 3.32884039 0 0 Z " fill="#CAD3D1" transform="translate(70,302)"/>
<path d="M0 0 C0.33 0 0.66 0 1 0 C0.4105288 9.28417142 -1.73767117 18.01215022 -4 27 C-4.17998535 27.7317041 -4.3599707 28.4634082 -4.54541016 29.21728516 C-5.06221203 31.31411826 -5.59112798 33.40745547 -6.125 35.5 C-6.43695313 36.7271875 -6.74890625 37.954375 -7.0703125 39.21875 C-8 42 -8 42 -10 43 C-8.46305725 35.001649 -6.70660322 27.05473341 -4.91333008 19.11083984 C-4.43228161 16.97685059 -3.95535475 14.84196453 -3.47851562 12.70703125 C-3.17212474 11.34629791 -2.86549315 9.98561874 -2.55859375 8.625 C-2.28329834 7.40039062 -2.00800293 6.17578125 -1.72436523 4.9140625 C-1 2 -1 2 0 0 Z " fill="#5F7D7A" transform="translate(201,240)"/>
<path d="M0 0 C5.2916954 4.40974617 10.17838636 9.08405044 15 14 C15.56847656 14.48726562 16.13695312 14.97453125 16.72265625 15.4765625 C19.06829449 18.27411269 18.17203767 21.5019007 18 25 C17.34 24.67 16.68 24.34 16 24 C15.855625 23.030625 15.71125 22.06125 15.5625 21.0625 C15.376875 20.051875 15.19125 19.04125 15 18 C14.01 17.34 13.02 16.68 12 16 C12 15.34 12 14.68 12 14 C11.12408203 13.62488281 11.12408203 13.62488281 10.23046875 13.2421875 C7.70307949 11.83463972 6.20696046 10.30301311 4.3125 8.125 C3.71050781 7.44695312 3.10851562 6.76890625 2.48828125 6.0703125 C0.99233806 3.98934166 0.4210244 2.50369174 0 0 Z " fill="#747D6F" transform="translate(319,231)"/>
<path d="M0 0 C5.82138569 0.41581326 10.50673675 1.58390259 14.796875 5.65234375 C16.99098693 8.36703319 19.05289737 11.10393068 21 14 C16.8958089 14 15.15978893 12.54156936 12 10 C11.125 7.25 11.125 7.25 11 5 C7.457201 3.819067 4.71640139 3.72971626 1 4 C0.01 5.485 0.01 5.485 -1 7 C-1.66 7 -2.32 7 -3 7 C-1.125 1.125 -1.125 1.125 0 0 Z " fill="#83877D" transform="translate(270,187)"/>
<path d="M0 0 C0.33 0 0.66 0 1 0 C1.10957031 0.72703125 1.21914062 1.4540625 1.33203125 2.203125 C3.35632644 16.97127337 3.35632644 16.97127337 10 30 C11.38264026 32.30754638 12.68542682 34.65254789 14 37 C9.68746219 35.15176951 6.82649933 32.71334623 4.76953125 28.44921875 C2.97149213 23.26059157 1.59317703 18.45722864 1 13 C0.67 12.67 0.34 12.34 0 12 C-0.07244053 9.98035801 -0.08377188 7.95832876 -0.0625 5.9375 C-0.05347656 4.83277344 -0.04445312 3.72804687 -0.03515625 2.58984375 C-0.02355469 1.73519531 -0.01195312 0.88054687 0 0 Z " fill="#EDE3D7" transform="translate(213,132)"/>
<path d="M0 0 C2.2998221 3.44973316 2.86351749 6.56627368 3.5625 10.5625 C3.69180908 11.28123291 3.82111816 11.99996582 3.9543457 12.74047852 C5.44017475 21.20390525 6.13862966 29.40496118 6 38 C5.67 38 5.34 38 5 38 C2.7121286 25.37094985 1.13422049 12.78333216 0 0 Z " fill="#E6C2AD" transform="translate(146,360)"/>
<path d="M0 0 C0.99 0.33 1.98 0.66 3 1 C-1.71506881 5.20635768 -6.66707412 8.32152843 -12.1875 11.375 C-12.99380859 11.83777344 -13.80011719 12.30054688 -14.63085938 12.77734375 C-15.40623047 13.20917969 -16.18160156 13.64101563 -16.98046875 14.0859375 C-17.68067139 14.4782959 -18.38087402 14.8706543 -19.10229492 15.27490234 C-21 16 -21 16 -24 15 C-20.97072893 13.16792588 -17.92371275 11.36916439 -14.86328125 9.58984375 C-14.12142578 9.15736328 -13.37957031 8.72488281 -12.61523438 8.27929688 C-11.069629 7.37867695 -9.52273393 6.48026701 -7.97460938 5.58398438 C-6.86762695 4.93719727 -6.86762695 4.93719727 -5.73828125 4.27734375 C-5.06837158 3.88796631 -4.39846191 3.49858887 -3.70825195 3.09741211 C-1.84266793 1.98449006 -1.84266793 1.98449006 0 0 Z " fill="#617F7D" transform="translate(259,296)"/>
<path d="M0 0 C0.66 0 1.32 0 2 0 C3.24588984 1.47539586 4.48812639 2.95449544 5.69140625 4.46484375 C7.25981645 6.3047996 8.99275368 7.66183579 11 9 C4.7699115 11.27637849 4.7699115 11.27637849 1.5625 10.125 C-0.87393659 6.81144624 -0.26526505 4.04529197 0 0 Z " fill="#EAA88F" transform="translate(337,249)"/>
<path d="M0 0 C3.86486124 1.5745731 6.13495301 4.0047236 9 7 C9.64582031 7.62519531 10.29164063 8.25039062 10.95703125 8.89453125 C14.87436106 12.69557669 18.18918724 16.31531207 21 21 C20.67 21.66 20.34 22.32 20 23 C19.67 22.01 19.34 21.02 19 20 C17.35 20.66 15.7 21.32 14 22 C14.27199219 21.29875 14.54398437 20.5975 14.82421875 19.875 C15.32220378 16.77890924 15.32220378 16.77890924 12.83203125 14.0625 C11.84047261 13.02713756 10.83319891 12.00664673 9.8125 11 C8.8176113 9.98053018 7.82410166 8.95971258 6.83203125 7.9375 C6.3520166 7.44894531 5.87200195 6.96039063 5.37744141 6.45703125 C3.44490003 4.41282584 1.7154524 2.22722221 0 0 Z " fill="#C9D5D1" transform="translate(396,168)"/>
<path d="M0 0 C1.125 3.75 1.125 3.75 0 6 C-0.65615665 13.49739643 -0.44678161 19.63361856 3.22265625 26.29296875 C3.47917969 26.85628906 3.73570313 27.41960937 4 28 C3.67 28.66 3.34 29.32 3 30 C-1.86987609 23.18217348 -3.93948405 17.33281505 -3 9 C-2.19178019 5.91661808 -1.17609376 2.96123608 0 0 Z " fill="#CFDBD7" transform="translate(90,385)"/>
<path d="M0 0 C2 1 2 1 3.0703125 3.72265625 C4.046875 6.81510417 5.0234375 9.90755208 6 13 C12.6 13.33 19.2 13.66 26 14 C26 14.33 26 14.66 26 15 C18.08 15 10.16 15 2 15 C1.67 12.36 1.34 9.72 1 7 C0.81747317 5.66597677 0.63180236 4.33235904 0.4375 3 C0.293125 2.01 0.14875 1.02 0 0 Z " fill="#CF9F88" transform="translate(155,448)"/>
<path d="M0 0 C-0.33 2.64 -0.66 5.28 -1 8 C-2.875 8.625 -2.875 8.625 -5 9 C-5.66 8.34 -6.32 7.68 -7 7 C-6.625 3.375 -6.625 3.375 -6 0 C-3 -1 -3 -1 0 0 Z " fill="#E3EFEB" transform="translate(371,120)"/>
<path d="M0 0 C2.45873768 0.14058476 4.91685175 0.28722999 7.375 0.4375 C8.07367188 0.47681641 8.77234375 0.51613281 9.4921875 0.55664062 C14.7734375 0.88671875 14.7734375 0.88671875 17 2 C17.40729228 4.32156597 17.74438677 6.6568787 18 9 C17.38125 8.195625 16.7625 7.39125 16.125 6.5625 C13.66954705 3.59371494 13.66954705 3.59371494 10.1171875 2.796875 C4.34237475 2.67614721 0.31357386 3.76270574 -5 6 C-5.66 6 -6.32 6 -7 6 C-7 5.34 -7 4.68 -7 4 C-6.030625 3.71125 -5.06125 3.4225 -4.0625 3.125 C-0.89335797 2.35785318 -0.89335797 2.35785318 0 0 Z " fill="#61615E" transform="translate(253,100)"/>
<path d="M0 0 C0.33 0 0.66 0 1 0 C1.52125059 8.34000937 -0.05610292 15.1215345 -5 22 C-5.66 22 -6.32 22 -7 22 C-7 22.66 -7 23.32 -7 24 C-7.99 24.66 -8.98 25.32 -10 26 C-10.99 25.67 -11.98 25.34 -13 25 C-12.31164062 24.48953125 -12.31164062 24.48953125 -11.609375 23.96875 C-3.32538789 17.42509632 -1.42763473 10.21885909 0 0 Z " fill="#CDD9D5" transform="translate(416,399)"/>
<path d="M0 0 C2 0.125 2 0.125 4 1 C5.25 3.0625 5.25 3.0625 6 5 C5.01 6.485 5.01 6.485 4 8 C2.35 7.67 0.7 7.34 -1 7 C-1.625 4.625 -1.625 4.625 -2 2 C-1.34 1.34 -0.68 0.68 0 0 Z " fill="#CAD6D2" transform="translate(329,95)"/>
<path d="M0 0 C0.33 0 0.66 0 1 0 C1.03738281 1.03898437 1.07476562 2.07796875 1.11328125 3.1484375 C1.4679406 11.17935161 2.15249437 18.40149314 5 26 C5.33 26.99 5.66 27.98 6 29 C5.01 29 4.02 29 3 29 C0.29056413 22.33790346 -0.39215756 16.59001924 -0.1875 9.4375 C-0.17396484 8.52419922 -0.16042969 7.61089844 -0.14648438 6.66992188 C-0.11155315 4.44596741 -0.06251586 2.22332048 0 0 Z " fill="#F0E6DB" transform="translate(150,432)"/>
<path d="M0 0 C0 0.99 0 1.98 0 3 C-2.41328889 4.74540451 -4.75005881 6.25818392 -7.3125 7.75 C-8.00279297 8.17410156 -8.69308594 8.59820312 -9.40429688 9.03515625 C-11.21975289 10.11215141 -13.1074463 11.06509916 -15 12 C-15.99 11.67 -16.98 11.34 -18 11 C-14.39042389 7.7089159 -11.87362847 6.45336079 -7 6 C-7 5.34 -7 4.68 -7 4 C-4.69 2.68 -2.38 1.36 0 0 Z " fill="#607E7C" transform="translate(271,374)"/>
<path d="M0 0 C7.13495126 2.63792212 13.19811712 7.13390469 19 12 C14.54163771 11.49047288 12.41548105 9.80244599 9 7 C7.6757713 6.63215869 6.34386088 6.28797019 5 6 C4.67 5.34 4.34 4.68 4 4 C2.68 4 1.36 4 0 4 C0 2.68 0 1.36 0 0 Z " fill="#DAB59D" transform="translate(337,201)"/>
<path d="M0 0 C2.4375 0.8125 2.4375 0.8125 5 2 C5.33 2.99 5.66 3.98 6 5 C6.66 5 7.32 5 8 5 C9.3671875 6.390625 9.3671875 6.390625 10.875 8.25 C13.1327034 10.97805828 15.444064 13.54236923 18 16 C17.67 16.66 17.34 17.32 17 18 C14.16266225 15.19151503 11.33081251 12.37756077 8.5 9.5625 C7.68917969 8.76005859 6.87835938 7.95761719 6.04296875 7.13085938 C5.27597656 6.36708984 4.50898438 5.60332031 3.71875 4.81640625 C3.00654297 4.10943604 2.29433594 3.40246582 1.56054688 2.67407227 C0 1 0 1 0 0 Z " fill="#D4B39F" transform="translate(312,223)"/>
<path d="M0 0 C2.3431213 0.25561323 4.67843403 0.59270772 7 1 C8.38226016 3.76452033 8.09525387 6.0461363 8.0625 9.125 C8.05347656 10.22070312 8.04445313 11.31640625 8.03515625 12.4453125 C8.02355469 13.28835937 8.01195312 14.13140625 8 15 C7.67 15 7.34 15 7 15 C6.67 11.7 6.34 8.4 6 5 C2.52852158 4.25042843 2.52852158 4.25042843 -1 4 C-0.67 2.68 -0.34 1.36 0 0 Z " fill="#DEBCAA" transform="translate(280,122)"/>
<path d="M0 0 C2 2 2 2 2.125 5.625 C2.08375 6.73875 2.0425 7.8525 2 9 C-0.64 8.01 -3.28 7.02 -6 6 C-5.67 5.01 -5.34 4.02 -5 3 C-4.34 3 -3.68 3 -3 3 C-3 2.34 -3 1.68 -3 1 C-2.01 0.67 -1.02 0.34 0 0 Z " fill="#DDEAE5" transform="translate(318,177)"/>
<path d="M0 0 C1.64142474 2.46213711 2.73579861 4.55734217 3.875 7.25 C5.18575512 10.28204863 6.60116178 13.11290369 8.3125 15.9375 C9.1478125 17.4534375 9.1478125 17.4534375 10 19 C9.67 19.66 9.34 20.32 9 21 C5.89493019 18.37048142 4.50668704 15.28109747 2.8125 11.625 C2.28269531 10.50351562 1.75289063 9.38203125 1.20703125 8.2265625 C0.06675031 5.17843287 -0.270145 3.20572066 0 0 Z " fill="#CFDAD6" transform="translate(71,408)"/>
<path d="M0 0 C0.66 0.33 1.32 0.66 2 1 C1.67 8.59 1.34 16.18 1 24 C0.67 24 0.34 24 0 24 C-1.33257403 7.1070615 -1.33257403 7.1070615 0 0 Z " fill="#CFDFDD" transform="translate(181,363)"/>
<path d="M0 0 C0.33 0 0.66 0 1 0 C1 5.28 1 10.56 1 16 C-3 15 -3 15 -4.25 12.9375 C-4.4975 12.298125 -4.745 11.65875 -5 11 C-3.66666667 11 -2.33333333 11 -1 11 C-0.67 7.37 -0.34 3.74 0 0 Z " fill="#D4AF9E" transform="translate(188,438)"/>
<path d="M0 0 C-0.99 0.33 -1.98 0.66 -3 1 C-3 1.66 -3 2.32 -3 3 C-4.91503674 3.22281874 -6.83216506 3.42771076 -8.75 3.625 C-9.81734375 3.74101562 -10.8846875 3.85703125 -11.984375 3.9765625 C-15.03792399 4.00029475 -16.46162421 3.61420985 -19 2 C-18.43152344 2.03480469 -17.86304688 2.06960938 -17.27734375 2.10546875 C-13.1509196 2.25013471 -9.90337143 2.21746084 -6.125 0.4375 C-3 -1 -3 -1 0 0 Z " fill="#E6BDAB" transform="translate(379,264)"/>
<path d="M0 0 C5.16483516 7.74725275 5.16483516 7.74725275 4.6875 11.375 C4.460625 11.91125 4.23375 12.4475 4 13 C3.01 13 2.02 13 1 13 C0.67 8.71 0.34 4.42 0 0 Z " fill="#585957" transform="translate(273,117)"/>
<path d="M0 0 C4.00364637 1.2984799 5.59522794 2.61145755 8 6 C8.99 6.33 9.98 6.66 11 7 C11.33 8.65 11.66 10.3 12 12 C10.68 11.34 9.36 10.68 8 10 C8 9.34 8 8.68 8 8 C7.34 8 6.68 8 6 8 C4.4921875 6.25 4.4921875 6.25 2.875 4 C2.33617187 3.2575 1.79734375 2.515 1.2421875 1.75 C0.62730469 0.88375 0.62730469 0.88375 0 0 Z " fill="#D6B39C" transform="translate(296,206)"/>
<path d="M0 0 C0.33 0.99 0.66 1.98 1 3 C0.01 3.66 -0.98 4.32 -2 5 C-2.33 5.99 -2.66 6.98 -3 8 C-3.99 8.495 -3.99 8.495 -5 9 C-5.7425 10.2375 -5.7425 10.2375 -6.5 11.5 C-8 14 -8 14 -10 15 C-8.67494706 8.5403669 -4.40590065 4.61082626 0 0 Z " fill="#7A928F" transform="translate(174,199)"/>
<path d="M0 0 C0.33 0.99 0.66 1.98 1 3 C0.21625 3.598125 -0.5675 4.19625 -1.375 4.8125 C-4.14574323 6.91085249 -4.14574323 6.91085249 -6 10 C-6.99 10 -7.98 10 -9 10 C-9.33 10.66 -9.66 11.32 -10 12 C-9.67 10.68 -9.34 9.36 -9 8 C-8.34 8 -7.68 8 -7 8 C-7 7.34 -7 6.68 -7 6 C-5.46875 4.4921875 -5.46875 4.4921875 -3.5 2.875 C-2.8503125 2.33617187 -2.200625 1.79734375 -1.53125 1.2421875 C-0.77328125 0.62730469 -0.77328125 0.62730469 0 0 Z " fill="#617F7D" transform="translate(285,362)"/>
<path d="M0 0 C0.33 0 0.66 0 1 0 C1.33 4.29 1.66 8.58 2 13 C0.68 13 -0.64 13 -2 13 C-1.85966889 11.02043559 -1.7125877 9.04134859 -1.5625 7.0625 C-1.48128906 5.96035156 -1.40007812 4.85820312 -1.31640625 3.72265625 C-1 1 -1 1 0 0 Z " fill="#B9C7CA" transform="translate(254,440)"/>
<path d="M0 0 C0.66 0 1.32 0 2 0 C2 0.99 2 1.98 2 3 C2.763125 2.938125 3.52625 2.87625 4.3125 2.8125 C7 3 7 3 8.8125 4.375 C10 6 10 6 10 8 C5.49197399 6.74194623 2.5087188 5.09592835 -1 2 C-0.67 1.34 -0.34 0.68 0 0 Z " fill="#868B80" transform="translate(150,272)"/>
<path d="M0 0 C0.33 0.99 0.66 1.98 1 3 C1.99 3.33 2.98 3.66 4 4 C0.93882432 6.62386487 0.26826873 7 -4 7 C-4.33 7.66 -4.66 8.32 -5 9 C-5 7.68 -5 6.36 -5 5 C-3.68 5 -2.36 5 -1 5 C-0.67 3.35 -0.34 1.7 0 0 Z " fill="#E5B8A0" transform="translate(281,138)"/>
<path d="M0 0 C0.99 0.33 1.98 0.66 3 1 C2.67 4.63 2.34 8.26 2 12 C0.04131238 8.08262477 -0.59339923 5.30996812 -1 1 C-0.67 0.67 -0.34 0.34 0 0 Z " fill="#556769" transform="translate(209,114)"/>
<path d="M0 0 C-1.5885342 4.28904235 -4.43127368 6.32345526 -8 9 C-8.66 9 -9.32 9 -10 9 C-8.91720359 5.75161077 -8.10963155 4.95717417 -5.5625 2.8125 C-4.94503906 2.28269531 -4.32757813 1.75289063 -3.69140625 1.20703125 C-2 0 -2 0 0 0 Z " fill="#62807E" transform="translate(282,279)"/>
<path d="M0 0 C0.33 0 0.66 0 1 0 C1 3.63 1 7.26 1 11 C-4 12 -4 12 -6 11 C-6 10.34 -6 9.68 -6 9 C-3.525 9.495 -3.525 9.495 -1 10 C-0.67 6.7 -0.34 3.4 0 0 Z " fill="#515855" transform="translate(190,444)"/>
<path d="M0 0 C0.33 0 0.66 0 1 0 C1.23626374 13.46703297 1.23626374 13.46703297 -1.5625 16.9375 C-2.036875 17.288125 -2.51125 17.63875 -3 18 C-2 12 -1 6 0 0 Z " fill="#ECE5D8" transform="translate(184,298)"/>
<path d="M0 0 C0.33 0 0.66 0 1 0 C1.33 3.63 1.66 7.26 2 11 C0.68 10.67 -0.64 10.34 -2 10 C-2 11.65 -2 13.3 -2 15 C-3.0625 13.125 -3.0625 13.125 -4 11 C-3.67 10.34 -3.34 9.68 -3 9 C-2.34 9 -1.68 9 -1 9 C-0.67 6.03 -0.34 3.06 0 0 Z " fill="#B1C1C1" transform="translate(202,77)"/>
<path d="M0 0 C0 3 0 3 -1.75 5.04296875 C-2.4925 5.75066406 -3.235 6.45835937 -4 7.1875 C-4.7425 7.90292969 -5.485 8.61835938 -6.25 9.35546875 C-6.8275 9.89816406 -7.405 10.44085938 -8 11 C-8.99 10.67 -9.98 10.34 -11 10 C-5.555 5.05 -5.555 5.05 0 0 Z " fill="#CDD9D5" transform="translate(426,431)"/>
<path d="M0 0 C1.98 0.99 3.96 1.98 6 3 C5.01 3.66 4.02 4.32 3 5 C2.27617533 7.05925139 2.27617533 7.05925139 2 9 C1.34 9 0.68 9 0 9 C0 6.03 0 3.06 0 0 Z " fill="#DAA28F" transform="translate(150,275)"/>
<path d="M0 0 C0.66 0 1.32 0 2 0 C2.185625 1.7015625 2.185625 1.7015625 2.375 3.4375 C2.684375 5.2009375 2.684375 5.2009375 3 7 C3.66 7.33 4.32 7.66 5 8 C4.67 8.99 4.34 9.98 4 11 C2 10 2 10 0 8 C-0.36933645 5.24627091 -0.18336678 2.79634339 0 0 Z " fill="#C9A795" transform="translate(337,249)"/>
<path d="M0 0 C3 4 3 4 3.07421875 6.140625 C2.71614583 8.09375 2.35807292 10.046875 2 12 C1.34 11.67 0.68 11.34 0 11 C0 7.37 0 3.74 0 0 Z " fill="#E7EBE7" transform="translate(180,445)"/>
<path d="M0 0 C0.66 0 1.32 0 2 0 C1.88637738 1.4800841 1.75877092 2.95910074 1.625 4.4375 C1.52058594 5.67306641 1.52058594 5.67306641 1.4140625 6.93359375 C1.27742188 7.61550781 1.14078125 8.29742187 1 9 C0.01 9.495 0.01 9.495 -1 10 C-1.125 2.25 -1.125 2.25 0 0 Z " fill="#CCD1CF" transform="translate(88,266)"/>
<path d="M0 0 C5.625 -0.25 5.625 -0.25 9 2 C8.67 2.99 8.34 3.98 8 5 C5.36 3.68 2.72 2.36 0 1 C0 0.67 0 0.34 0 0 Z " fill="#E8C1AC" transform="translate(343,259)"/>
<path d="M0 0 C7.75 -0.125 7.75 -0.125 10 1 C10.40729228 3.32156597 10.74438677 5.6568787 11 8 C10.2265625 6.824375 10.2265625 6.824375 9.4375 5.625 C6.4837677 2.44405752 4.18393452 1.88506307 0 1 C0 0.67 0 0.34 0 0 Z " fill="#716A62" transform="translate(260,101)"/>
<path d="M0 0 C0.99 0 1.98 0 3 0 C3 0.66 3 1.32 3 2 C3.66 2 4.32 2 5 2 C4.67 3.65 4.34 5.3 4 7 C3.34 7 2.68 7 2 7 C2 6.34 2 5.68 2 5 C1.34 5 0.68 5 0 5 C0 3.35 0 1.7 0 0 Z " fill="#445254" transform="translate(185,422)"/>
<path d="M0 0 C0.66 0 1.32 0 2 0 C1.67 3.3 1.34 6.6 1 10 C0.34 10 -0.32 10 -1 10 C-0.67 6.7 -0.34 3.4 0 0 Z " fill="#C4D0CC" transform="translate(417,238)"/>
<path d="M0 0 C0.33 0 0.66 0 1 0 C3.28571429 8.42857143 3.28571429 8.42857143 3 13 C1 12 1 12 0 9 C-0.06740865 7.43881572 -0.08514456 5.8749748 -0.0625 4.3125 C-0.05347656 3.50425781 -0.04445312 2.69601562 -0.03515625 1.86328125 C-0.02355469 1.24839844 -0.01195312 0.63351562 0 0 Z " fill="#E9B9A5" transform="translate(152,395)"/>
<path d="M0 0 C0.66 0 1.32 0 2 0 C0.06382979 6.70212766 0.06382979 6.70212766 -3 9 C-3.66 9 -4.32 9 -5 9 C-5 8.34 -5 7.68 -5 7 C-4 6 -3 5 -2 4 C-0.82425289 1.90010348 -0.82425289 1.90010348 0 0 Z " fill="#DFB9A3" transform="translate(268,186)"/>
<path d="M0 0 C0.33 0.99 0.66 1.98 1 3 C1.66 3 2.32 3 3 3 C4.32 5.31 5.64 7.62 7 10 C3.64501065 8.61172854 1.84949545 7.14414226 0 4 C0 2.68 0 1.36 0 0 Z " fill="#DBB9A2" transform="translate(230,184)"/>
<path d="M0 0 C1.32 0.66 2.64 1.32 4 2 C4 3.65 4 5.3 4 7 C3.34 7 2.68 7 2 7 C2 6.34 2 5.68 2 5 C1.01 4.67 0.02 4.34 -1 4 C-0.67 2.68 -0.34 1.36 0 0 Z " fill="#8A968E" transform="translate(357,209)"/>
<path d="M0 0 C1.32 0.33 2.64 0.66 4 1 C4 2.32 4 3.64 4 5 C2.68 5 1.36 5 0 5 C0 3.35 0 1.7 0 0 Z " fill="#3D4D4F" transform="translate(258,459)"/>
<path d="M0 0 C0.66 0.33 1.32 0.66 2 1 C-1.96 4.465 -1.96 4.465 -6 8 C-6.66 7.67 -7.32 7.34 -8 7 C-5.36 4.69 -2.72 2.38 0 0 Z " fill="#607E7C" transform="translate(270,288)"/>
<path d="M0 0 C1.86830571 3.73661142 2.508219 5.03589176 2 9 C1.01 9.99 0.02 10.98 -1 12 C-0.67 8.04 -0.34 4.08 0 0 Z " fill="#E6BFAD" transform="translate(149,280)"/>
<path d="M0 0 C1.9375 0.75 1.9375 0.75 4 2 C4.75 4.125 4.75 4.125 5 6 C4.34 5.67 3.68 5.34 3 5 C3 4.34 3 3.68 3 3 C1.35 3.66 -0.3 4.32 -2 5 C-1.34 3.35 -0.68 1.7 0 0 Z " fill="#D5E0DC" transform="translate(412,185)"/>
<path d="M0 0 C0.99 0 1.98 0 3 0 C2.67 2.31 2.34 4.62 2 7 C1.34 6.67 0.68 6.34 0 6 C0 4.02 0 2.04 0 0 Z " fill="#D5DADA" transform="translate(70,302)"/>
<path d="M0 0 C-1.1875 1.5 -1.1875 1.5 -3 3 C-5.6875 3.1875 -5.6875 3.1875 -8 3 C-8 2.34 -8 1.68 -8 1 C-5.29120665 -0.35439668 -2.99066732 -0.06501451 0 0 Z " fill="#F2E7DF" transform="translate(376,267)"/>
<path d="M0 0 C1.32 0 2.64 0 4 0 C4 1.32 4 2.64 4 4 C3.01 4.33 2.02 4.66 1 5 C0.34 3.68 -0.32 2.36 -1 1 C-0.67 0.67 -0.34 0.34 0 0 Z " fill="#E0ECE8" transform="translate(329,97)"/>
<path d="M0 0 C2.475 0.495 2.475 0.495 5 1 C4.01 1.33 3.02 1.66 2 2 C2 3.32 2 4.64 2 6 C1.34 6 0.68 6 0 6 C0 4.02 0 2.04 0 0 Z " fill="#DDA58F" transform="translate(229,171)"/>
<path d="M0 0 C0.66 0 1.32 0 2 0 C0.50163895 3.11198065 -1.19933758 6.0534615 -3 9 C-3.33 8.01 -3.66 7.02 -4 6 C-2.1875 2.8125 -2.1875 2.8125 0 0 Z " fill="#CAD8D3" transform="translate(116,171)"/>
</svg>
