<?xml version="1.0" encoding="UTF-8"?>
<svg version="1.1" xmlns="http://www.w3.org/2000/svg" width="500" height="500">
<path d="M0 0 C0.99 0.495 0.99 0.495 2 1 C2 1.66 2 2.32 2 3 C2.61875 2.62875 3.2375 2.2575 3.875 1.875 C8.64924828 0.53821048 12.38664014 1.27898774 17 3 C21.53634153 5.78154275 25.74548982 8.99599095 29.72265625 12.53125 C34.68681258 16.69555505 40.44066928 17.27077995 46.671875 18.2265625 C49.93397521 18.98465621 51.13171929 19.30283419 53 22 C54.23752115 25.71256344 53.89210346 28.75596453 53.64453125 32.625 C53.74636569 35.16702693 53.74636569 35.16702693 55.9765625 36.54296875 C56.64429688 37.02378906 57.31203125 37.50460938 58 38 C58.84611884 41.06353373 58.60054317 43.89630789 58 47 C55.4657327 51.19738022 53.52281722 52.89224792 49.0625 54.75 C44.4362454 56.83482982 43.03288278 59.93574269 40.6953125 64.28515625 C38.17440398 68.32209501 34.80963667 71.29032413 31.3828125 74.55859375 C29.18074131 76.81481423 27.54512884 78.96465816 25.875 81.625 C20.94350768 89.47371313 14.26643533 96.40005906 5.0625 98.75 C1.3517639 99.05291723 -2.27722161 99.06418583 -6 99 C-6.66 100.65 -7.32 102.3 -8 104 C-7.20335937 104.65355469 -7.20335937 104.65355469 -6.390625 105.3203125 C1.15290701 111.68000554 5.21163952 117.40064471 6.41064453 127.4375 C6.48395996 128.613125 6.55727539 129.78875 6.6328125 131 C6.71660156 132.299375 6.80039062 133.59875 6.88671875 134.9375 C6.94545166 135.93910156 6.94545166 135.93910156 7.00537109 136.9609375 C7.12472741 138.9953538 7.25470942 141.02886921 7.38671875 143.0625 C8.45138889 160.09722222 8.45138889 160.09722222 7 163 C6.81596727 165.69038319 6.67552055 168.36917744 6.5625 171.0625 C6.04304152 181.01965494 5.40910463 189.20453075 -1.75 196.875 C-5.1180675 198.55903375 -8.35273867 198.54382624 -12 198 C-15.58552881 196.36312815 -16.79315055 195.31027417 -19 192 C-19.0270203 194.75006608 -19.04684883 197.49986546 -19.0625 200.25 C-19.07087891 201.02730469 -19.07925781 201.80460938 -19.08789062 202.60546875 C-19.09272461 203.73662109 -19.09272461 203.73662109 -19.09765625 204.890625 C-19.10551147 205.92751465 -19.10551147 205.92751465 -19.11352539 206.98535156 C-18.99415194 209.10378109 -18.53682864 210.9521175 -18 213 C-17.90891164 214.89410217 -17.86993649 216.79121561 -17.875 218.6875 C-17.87113281 220.14736328 -17.87113281 220.14736328 -17.8671875 221.63671875 C-18 224 -18 224 -19 225 C-18.93762573 226.8490428 -18.93762573 226.8490428 -18.63256836 229.02050781 C-18.53176971 229.83700806 -18.43097107 230.6535083 -18.32711792 231.49475098 C-18.21916901 232.32148315 -18.11122009 233.14821533 -18 234 C-17.90969513 234.71619507 -17.81939026 235.43239014 -17.72634888 236.17028809 C-17.45033994 238.33837566 -17.16552417 240.50516565 -16.87890625 242.671875 C-15.64762842 252.06228506 -14.45139285 261.45684259 -13.2713623 270.8538208 C-13.04223775 272.66594554 -12.80740741 274.47734749 -12.57128906 276.28857422 C-9.16335269 302.74593864 -10.787892 329.71710456 -12.375 356.25 C-12.43803314 357.31568207 -12.50106628 358.38136414 -12.56600952 359.4793396 C-12.75261047 362.57530176 -12.94783003 365.67054051 -13.1484375 368.765625 C-13.21055923 369.74171219 -13.27268097 370.71779938 -13.33668518 371.72346497 C-13.64062084 376.13770601 -14.02810853 380.49030025 -14.72363281 384.86132812 C-14.83816803 385.59704041 -14.95270325 386.33275269 -15.07070923 387.09075928 C-15.38806446 389.014297 -15.74620407 390.93098649 -16.10791016 392.84667969 C-16.30008503 396.17122764 -16.30008503 396.17122764 -13.84912109 398.80175781 C-9.58641867 402.09065007 -6.15062047 403.19820333 -0.82421875 403.52734375 C0.65389282 403.62970337 0.65389282 403.62970337 2.16186523 403.73413086 C3.20157471 403.80124268 4.24128418 403.86835449 5.3125 403.9375 C17.9820036 404.8771477 31.20795659 405.91722267 43 411 C44.2265625 413.09765625 44.2265625 413.09765625 45 415 C36.00806667 421.5114 23.70136877 421.96966674 13 423 C12.1244043 423.09168457 11.24880859 423.18336914 10.34667969 423.27783203 C-99.03979716 434.33623227 -99.03979716 434.33623227 -134 417 C-135.2734375 414.90234375 -135.2734375 414.90234375 -136 413 C-123.12455597 403.34341698 -103.47752666 404.63309582 -88 404 C-87.34 401.03 -86.68 398.06 -86 395 C-86.66 395 -87.32 395 -88 395 C-88.27124144 389.24904974 -88.53627547 383.49785092 -88.79598999 377.74636841 C-88.89065317 375.65832772 -88.98638388 373.57033516 -89.0831604 371.48239136 C-89.59385156 360.40316838 -90.05903696 349.33811744 -90.109375 338.24609375 C-90.27893582 310.10718302 -93.76629129 282.90651401 -98.87133789 255.24487305 C-100.30271502 247.47229886 -101.46737425 239.85573762 -101.6875 231.9375 C-101.72166016 231.06029297 -101.75582031 230.18308594 -101.79101562 229.27929688 C-101.87106531 227.18656946 -101.93722215 225.09331672 -102 223 C-103.32 222.34 -104.64 221.68 -106 221 C-105.64335748 211.30916177 -104.81640482 202.35258961 -102 193 C-102.9075 192.86851562 -103.815 192.73703125 -104.75 192.6015625 C-111.61297442 191.33125233 -116.53466938 188.29343791 -120.80859375 182.7734375 C-124.27618613 177.61184098 -124.30411888 172.98915348 -123.59765625 166.98828125 C-121.84173829 158.20869147 -117.34125984 150.5951786 -112.7578125 143.015625 C-110.99193879 139.98617055 -109.45423027 136.91051647 -107.9375 133.75 C-105.51041753 128.80473813 -102.87904186 123.97251275 -99 120 C-98.34 120 -97.68 120 -97 120 C-96.731875 119.41605469 -96.46375 118.83210938 -96.1875 118.23046875 C-90.37794642 107.31844541 -78.65915553 97.72560747 -67 94 C-60.4065771 92.64553716 -53.76132416 92.88799192 -47.0625 92.9375 C-45.90169922 92.94201172 -44.74089844 92.94652344 -43.54492188 92.95117188 C-40.69656066 92.96289353 -37.84830778 92.9793024 -35 93 C-33.7947778 90.77890472 -32.61112596 88.5502135 -31.4375 86.3125 C-31.09525391 85.68666016 -30.75300781 85.06082031 -30.40039062 84.41601562 C-28.32980648 80.42125227 -27.73433314 78.29226153 -29 74 C-29.0659735 71.89676466 -29.08562245 69.79164276 -29.0625 67.6875 C-29.05347656 66.61886719 -29.04445313 65.55023438 -29.03515625 64.44921875 C-29.02355469 63.64097656 -29.01195312 62.83273438 -29 62 C-30.485 61.505 -30.485 61.505 -32 61 C-34.8534963 56.56122798 -35.6201817 53.22724579 -35 48 C-34.43683748 46.66939052 -33.82775249 45.35778003 -33.1875 44.0625 C-31.12027707 39.84131752 -30.30186882 35.6660466 -29.5625 31.0625 C-28.23807638 23.14448999 -26.26623139 16.34998091 -20.5625 10.5 C-17.7774308 8.86971559 -15.103645 7.86613349 -12 7 C-12 5.68 -12 4.36 -12 3 C-10.824375 3.2475 -10.824375 3.2475 -9.625 3.5 C-7.11791961 4.0623707 -7.11791961 4.0623707 -5 4 C-3.30225062 2.70647667 -1.63260714 1.37482707 0 0 Z M-54 277 C-54.03963867 278.01682861 -54.07927734 279.03365723 -54.12011719 280.08129883 C-55.45498955 313.51194874 -58.1762218 346.72176075 -62.1875 379.9375 C-62.31424103 380.98707886 -62.31424103 380.98707886 -62.44354248 382.05786133 C-63.90379576 394.03873006 -63.90379576 394.03873006 -65 398 C-59.27550024 402.9322352 -55.50264195 403.68026367 -48.0625 403.3125 C-47.18787109 403.28994141 -46.31324219 403.26738281 -45.41210938 403.24414062 C-43.27398879 403.18572203 -41.13676044 403.09605816 -39 403 C-38.814375 401.72125 -38.62875 400.4425 -38.4375 399.125 C-38.33308594 398.40570313 -38.22867188 397.68640625 -38.12109375 396.9453125 C-37.8315703 394.91859333 -37.8315703 394.91859333 -39 393 C-39.2115483 390.97945664 -39.36909851 388.95314726 -39.5 386.92578125 C-39.5825 385.70052734 -39.665 384.47527344 -39.75 383.21289062 C-39.8325 381.92576172 -39.915 380.63863281 -40 379.3125 C-40.16430426 376.78760558 -40.33090216 374.26285917 -40.5 371.73828125 C-40.5721875 370.61462158 -40.644375 369.49096191 -40.71875 368.33325195 C-40.90453103 366.13145651 -41.16160567 363.9343951 -41.49291992 361.74975586 C-42.14504127 356.92744876 -42.37483014 352.12346182 -42.61328125 347.265625 C-42.72780659 345.14188873 -42.84306565 343.01819192 -42.95898438 340.89453125 C-43.13687516 337.59126243 -43.31064915 334.28803492 -43.47143555 330.98388672 C-44.39473113 312.23236147 -46.98688778 294.81544419 -53 277 C-53.33 277 -53.66 277 -54 277 Z " fill="#5E917B" transform="translate(291,42)"/>
<path d="M0 0 C0.33 -0.66 0.66 -1.32 1 -2 C1.18175781 -1.31292969 1.36351562 -0.62585938 1.55078125 0.08203125 C1.80214844 0.98308594 2.05351562 1.88414062 2.3125 2.8125 C2.55613281 3.70582031 2.79976563 4.59914062 3.05078125 5.51953125 C4.03421181 8.08940124 5.05159634 9.13819206 7 11 C7.1875 13.6875 7.1875 13.6875 7 16 C7.66 16 8.32 16 9 16 C9.02505615 16.55461914 9.0501123 17.10923828 9.07592773 17.68066406 C9.19227927 20.20398843 9.31482754 22.72697536 9.4375 25.25 C9.47681641 26.12269531 9.51613281 26.99539062 9.55664062 27.89453125 C9.59853516 28.73886719 9.64042969 29.58320313 9.68359375 30.453125 C9.72025146 31.22817383 9.75690918 32.00322266 9.79467773 32.80175781 C9.99633663 34.96077885 10.45805323 36.90506835 11 39 C11.09108836 40.89410217 11.13006351 42.79121561 11.125 44.6875 C11.12886719 46.14736328 11.12886719 46.14736328 11.1328125 47.63671875 C11 50 11 50 10 51 C10.06237427 52.8490428 10.06237427 52.8490428 10.36743164 55.02050781 C10.46823029 55.83700806 10.56902893 56.6535083 10.67288208 57.49475098 C10.83480545 58.73484924 10.83480545 58.73484924 11 60 C11.09030487 60.71619507 11.18060974 61.43239014 11.27365112 62.17028809 C11.54966006 64.33837566 11.83447583 66.50516565 12.12109375 68.671875 C13.35237158 78.06228506 14.54860715 87.45684259 15.7286377 96.8538208 C15.95776225 98.66594554 16.19259259 100.47734749 16.42871094 102.28857422 C19.83664731 128.74593864 18.212108 155.71710456 16.625 182.25 C16.56196686 183.31568207 16.49893372 184.38136414 16.43399048 185.4793396 C16.24738953 188.57530176 16.05216997 191.67054051 15.8515625 194.765625 C15.78944077 195.74171219 15.72731903 196.71779938 15.66331482 197.72346497 C15.35937916 202.13770601 14.97189147 206.49030025 14.27636719 210.86132812 C14.16183197 211.59704041 14.04729675 212.33275269 13.92929077 213.09075928 C13.61193554 215.014297 13.25379593 216.93098649 12.89208984 218.84667969 C12.69991497 222.17122764 12.69991497 222.17122764 15.15087891 224.80175781 C19.41358133 228.09065007 22.84937953 229.19820333 28.17578125 229.52734375 C29.65389282 229.62970337 29.65389282 229.62970337 31.16186523 229.73413086 C32.72142944 229.83479858 32.72142944 229.83479858 34.3125 229.9375 C46.9820036 230.8771477 60.20795659 231.91722267 72 237 C73.2265625 239.09765625 73.2265625 239.09765625 74 241 C65.00806667 247.5114 52.70136877 247.96966674 42 249 C41.1244043 249.09168457 40.24880859 249.18336914 39.34667969 249.27783203 C-70.03979716 260.33623227 -70.03979716 260.33623227 -105 243 C-106.2734375 240.90234375 -106.2734375 240.90234375 -107 239 C-94.12455597 229.34341698 -74.47752666 230.63309582 -59 230 C-58.34 227.03 -57.68 224.06 -57 221 C-57.66 221 -58.32 221 -59 221 C-59.27124144 215.24904974 -59.53627547 209.49785092 -59.79598999 203.74636841 C-59.89065317 201.65832772 -59.98638388 199.57033516 -60.0831604 197.48239136 C-60.59385156 186.40316838 -61.05903696 175.33811744 -61.109375 164.24609375 C-61.27893582 136.10718302 -64.76629129 108.90651401 -69.87133789 81.24487305 C-71.30271502 73.47229886 -72.46737425 65.85573762 -72.6875 57.9375 C-72.72166016 57.06029297 -72.75582031 56.18308594 -72.79101562 55.27929688 C-72.87106531 53.18656946 -72.93722215 51.09331672 -73 49 C-74.32 48.34 -75.64 47.68 -77 47 C-76.58440013 38.1849081 -76.13031092 29.60397419 -74 21 C-73.34 21 -72.68 21 -72 21 C-72 20.34 -72 19.68 -72 19 C-71.39414063 19.12117188 -70.78828125 19.24234375 -70.1640625 19.3671875 C-69.32617188 19.53476563 -68.48828125 19.70234375 -67.625 19.875 C-66.72136719 20.05675781 -65.81773437 20.23851562 -64.88671875 20.42578125 C-62.97423611 20.80620743 -61.06015917 21.17871118 -59.14453125 21.54296875 C-58.25121094 21.71441406 -57.35789063 21.88585937 -56.4375 22.0625 C-55.61121094 22.21847656 -54.78492188 22.37445313 -53.93359375 22.53515625 C-52 23 -52 23 -51 24 C-48.67182036 24.36760731 -46.3381615 24.70241581 -44 25 C-43.505 26.485 -43.505 26.485 -43 28 C-41.35 28.33 -39.7 28.66 -38 29 C-38 31.31 -38 33.62 -38 36 C-37.319375 36.268125 -36.63875 36.53625 -35.9375 36.8125 C-33.84498485 37.65841038 -31.78415368 38.5845415 -29.75 39.5625 C-22.02353998 42.82626329 -13.93451155 42.48925852 -6 40 C-3.42149011 38.52392994 -1.32239296 36.87767941 1 35 C1.66 35 2.32 35 3 35 C3.12375 34.443125 3.2475 33.88625 3.375 33.3125 C4 31 4 31 5.125 28.6875 C6.29460511 25.09514145 5.7617061 22.68157948 5 19 C4.7525 17.741875 4.505 16.48375 4.25 15.1875 C3.34108263 11.83535244 3.34108263 11.83535244 0.5625 10.75 C-0.283125 10.5025 -1.12875 10.255 -2 10 C-3 9 -4 8 -5 7 C-6.32860925 6.64830932 -7.66158328 6.31229724 -9 6 C-9.495 5.01 -9.495 5.01 -10 4 C-12.71061007 3.38176615 -12.71061007 3.38176615 -15.875 3 C-19.75098117 2.47697603 -21.70399447 2.19733702 -25 0 C-16.35635361 -2.56108041 -8.57942205 -2.9841468 0 0 Z M-25 103 C-25.03963867 104.01682861 -25.07927734 105.03365723 -25.12011719 106.08129883 C-26.45498955 139.51194874 -29.1762218 172.72176075 -33.1875 205.9375 C-33.31424103 206.98707886 -33.31424103 206.98707886 -33.44354248 208.05786133 C-34.90379576 220.03873006 -34.90379576 220.03873006 -36 224 C-30.27550024 228.9322352 -26.50264195 229.68026367 -19.0625 229.3125 C-18.18787109 229.28994141 -17.31324219 229.26738281 -16.41210938 229.24414062 C-14.27398879 229.18572203 -12.13676044 229.09605816 -10 229 C-9.814375 227.72125 -9.62875 226.4425 -9.4375 225.125 C-9.33308594 224.40570313 -9.22867188 223.68640625 -9.12109375 222.9453125 C-8.8315703 220.91859333 -8.8315703 220.91859333 -10 219 C-10.2115483 216.97945664 -10.36909851 214.95314726 -10.5 212.92578125 C-10.5825 211.70052734 -10.665 210.47527344 -10.75 209.21289062 C-10.8325 207.92576172 -10.915 206.63863281 -11 205.3125 C-11.16430426 202.78760558 -11.33090216 200.26285917 -11.5 197.73828125 C-11.5721875 196.61462158 -11.644375 195.49096191 -11.71875 194.33325195 C-11.90453103 192.13145651 -12.16160567 189.9343951 -12.49291992 187.74975586 C-13.14504127 182.92744876 -13.37483014 178.12346182 -13.61328125 173.265625 C-13.72780659 171.14188873 -13.84306565 169.01819192 -13.95898438 166.89453125 C-14.13687516 163.59126243 -14.31064915 160.28803492 -14.47143555 156.98388672 C-15.39473113 138.23236147 -17.98688778 120.81544419 -24 103 C-24.33 103 -24.66 103 -25 103 Z " fill="#588974" transform="translate(262,216)"/>
<path d="M0 0 C0.66 0.33 1.32 0.66 2 1 C2 1.66 2 2.32 2 3 C2.928125 2.443125 2.928125 2.443125 3.875 1.875 C8.64924828 0.53821048 12.38664014 1.27898774 17 3 C21.53634153 5.78154275 25.74548982 8.99599095 29.72265625 12.53125 C34.68681258 16.69555505 40.44066928 17.27077995 46.671875 18.2265625 C49.93397521 18.98465621 51.13171929 19.30283419 53 22 C54.23752115 25.71256344 53.89210346 28.75596453 53.64453125 32.625 C53.74636569 35.16702693 53.74636569 35.16702693 55.9765625 36.54296875 C56.64429688 37.02378906 57.31203125 37.50460938 58 38 C58.84611884 41.06353373 58.60054317 43.89630789 58 47 C55.4657327 51.19738022 53.52281722 52.89224792 49.0625 54.75 C44.4362454 56.83482982 43.03288278 59.93574269 40.6953125 64.28515625 C38.17440398 68.32209501 34.80963667 71.29032413 31.3828125 74.55859375 C29.18074131 76.81481423 27.54512884 78.96465816 25.875 81.625 C20.94350768 89.47371313 14.26643533 96.40005906 5.0625 98.75 C1.3517639 99.05291723 -2.27722161 99.06418583 -6 99 C-6.66 100.65 -7.32 102.3 -8 104 C-7.34 104.66 -6.68 105.32 -6 106 C-6.5775 106.226875 -7.155 106.45375 -7.75 106.6875 C-10.56913681 108.33199647 -12.01254869 110.4355467 -14 113 C-17.75456567 115.50304378 -19.54745934 115.45280074 -24 115 C-30.12285411 111.81611586 -34.29425916 107.22577692 -36.8125 100.8125 C-38 97 -38 97 -38 94 C-36.515 93.505 -36.515 93.505 -35 93 C-33.60356884 90.75866931 -32.40984459 88.60787337 -31.25 86.25 C-30.92128906 85.62867187 -30.59257812 85.00734375 -30.25390625 84.3671875 C-28.27134324 80.40206148 -27.7768722 78.22350758 -29 74 C-29.0659735 71.89676466 -29.08562245 69.79164276 -29.0625 67.6875 C-29.05347656 66.61886719 -29.04445313 65.55023438 -29.03515625 64.44921875 C-29.02355469 63.64097656 -29.01195312 62.83273438 -29 62 C-29.99 61.67 -30.98 61.34 -32 61 C-34.8534963 56.56122798 -35.6201817 53.22724579 -35 48 C-34.43683748 46.66939052 -33.82775249 45.35778003 -33.1875 44.0625 C-31.12027707 39.84131752 -30.30186882 35.6660466 -29.5625 31.0625 C-28.23807638 23.14448999 -26.26623139 16.34998091 -20.5625 10.5 C-17.7774308 8.86971559 -15.103645 7.86613349 -12 7 C-12 5.68 -12 4.36 -12 3 C-11.21625 3.165 -10.4325 3.33 -9.625 3.5 C-7.11791961 4.0623707 -7.11791961 4.0623707 -5 4 C-3.30225062 2.70647667 -1.63260714 1.37482707 0 0 Z " fill="#F4AC84" transform="translate(291,42)"/>
<path d="M0 0 C2.5 1.3125 2.5 1.3125 5 3 C5 3.99 5 4.98 5 6 C7.41760876 5.88573491 9.83347218 5.75900339 12.25 5.625 C12.93191406 5.5940625 13.61382812 5.563125 14.31640625 5.53125 C19.47460571 5.24763109 19.47460571 5.24763109 24 3 C24.33 2.01 24.66 1.02 25 0 C24.67 2.64 24.34 5.28 24 8 C29.17157168 12.23899318 33.30354726 12.64113557 39.875 12.75 C40.75414062 12.77964844 41.63328125 12.80929687 42.5390625 12.83984375 C44.69222545 12.91005559 46.84611485 12.95734881 49 13 C49 10.03 49 7.06 49 4 C56.59 4 64.18 4 72 4 C72.99 6.475 72.99 6.475 74 9 C79.44044952 13.68109654 86.68460216 13.72424671 93.5 14.0625 C106.13694471 14.90380655 119.2393915 15.9307722 131 21 C132.2265625 23.09765625 132.2265625 23.09765625 133 25 C124.00806667 31.5114 111.70136877 31.96966674 101 33 C100.1244043 33.09168457 99.24880859 33.18336914 98.34667969 33.27783203 C-11.03979716 44.33623227 -11.03979716 44.33623227 -46 27 C-47.2734375 24.90234375 -47.2734375 24.90234375 -48 23 C-35.12455597 13.34341698 -15.47752666 14.63309582 0 14 C0.66 11.03 1.32 8.06 2 5 C1.34 5 0.68 5 0 5 C0 3.35 0 1.7 0 0 Z " fill="#E2D6C7" transform="translate(203,432)"/>
<path d="M0 0 C0.66 0.33 1.32 0.66 2 1 C2 1.66 2 2.32 2 3 C2.928125 2.443125 2.928125 2.443125 3.875 1.875 C8.64924828 0.53821048 12.38664014 1.27898774 17 3 C21.53634153 5.78154275 25.74548982 8.99599095 29.72265625 12.53125 C34.68681258 16.69555505 40.44066928 17.27077995 46.671875 18.2265625 C49.93397521 18.98465621 51.13171929 19.30283419 53 22 C54.23752115 25.71256344 53.89210346 28.75596453 53.64453125 32.625 C53.74636569 35.16702693 53.74636569 35.16702693 55.9765625 36.54296875 C56.64429688 37.02378906 57.31203125 37.50460938 58 38 C58.84611884 41.06353373 58.60054317 43.89630789 58 47 C55.4657327 51.19738022 53.52281722 52.89224792 49.0625 54.75 C44.39731931 56.83797413 42.87713394 60.07482079 40.51171875 64.44921875 C38.28990447 68.19817153 35.4415038 71.32130374 32 74 C31.34 74 30.68 74 30 74 C30.96940268 70.34609757 31.9842234 67.03615471 33.5 63.5625 C35.12157216 59.71126611 36.07256498 56.06644586 37 52 C36.42894531 51.93683594 35.85789062 51.87367187 35.26953125 51.80859375 C26.1603808 50.43280791 18.59488 46.06325333 11 41 C11 40.34 11 39.68 11 39 C10.236875 38.71125 9.47375 38.4225 8.6875 38.125 C6 37 6 37 3 35 C0.0850745 34.4161804 0.0850745 34.4161804 -3 35 C-5.70817728 37.20802268 -5.70817728 37.20802268 -8 40 C-9.0209375 40.928125 -9.0209375 40.928125 -10.0625 41.875 C-11.82597785 43.80913699 -12.80146894 45.39769942 -14 47.6875 C-16 51 -16 51 -18.25 51.9375 C-18.8275 51.958125 -19.405 51.97875 -20 52 C-19.93489583 49.98177083 -19.86979167 47.96354167 -19.8046875 45.9453125 C-19.81668311 43.76136355 -19.81668311 43.76136355 -22 42 C-24.68839385 41.73008094 -27.29141936 41.91262643 -30 42 C-30.53674676 31.54337798 -28.77756017 21.91394997 -23 13 C-19.6584529 9.6584529 -16.52766734 8.26353507 -12 7 C-12 5.68 -12 4.36 -12 3 C-11.21625 3.165 -10.4325 3.33 -9.625 3.5 C-7.11791961 4.0623707 -7.11791961 4.0623707 -5 4 C-3.30225062 2.70647667 -1.63260714 1.37482707 0 0 Z " fill="#845843" transform="translate(291,42)"/>
<path d="M0 0 C0.53625 0.680625 1.0725 1.36125 1.625 2.0625 C2.40875 3.031875 3.1925 4.00125 4 5 C4.67095703 5.83144531 4.67095703 5.83144531 5.35546875 6.6796875 C8.8912398 10.94536303 12.70990035 14.50649603 17 18 C18.14650944 18.95752437 19.29239025 19.91580218 20.4375 20.875 C21.283125 21.57625 22.12875 22.2775 23 23 C21.74226047 25.62029069 20.34842192 28.12227269 18.875 30.625 C16.83811902 33.64790887 16.83811902 33.64790887 17 36 C18.54107422 36.76183594 18.54107422 36.76183594 20.11328125 37.5390625 C21.5130942 38.23422729 22.9128283 38.92955085 24.3125 39.625 C25.04001465 39.98456787 25.7675293 40.34413574 26.51708984 40.71459961 C31.67358025 43.28146936 36.66146644 46.04738751 41.5703125 49.06640625 C44.79754301 50.30645141 46.63976189 49.75034443 50 49 C51.36007025 48.80760064 52.72229723 48.63005219 54.0859375 48.46484375 C54.78847656 48.37783203 55.49101562 48.29082031 56.21484375 48.20117188 C56.92769531 48.11416016 57.64054687 48.02714844 58.375 47.9375 C59.11105469 47.84662109 59.84710938 47.75574219 60.60546875 47.66210938 C62.40350645 47.44027356 64.20173405 47.2199779 66 47 C65.625 48.9296875 65.625 48.9296875 65 51 C63 52.125 63 52.125 61 53 C60.505 53.99 60.505 53.99 60 55 C61.20398438 55.20496094 62.40796875 55.40992188 63.6484375 55.62109375 C65.22398692 55.89306359 66.79950621 56.16520807 68.375 56.4375 C69.1690625 56.57220703 69.963125 56.70691406 70.78125 56.84570312 C76.7734375 57.88671875 76.7734375 57.88671875 79 59 C79 59.99 79 60.98 79 62 C77.02 62.33 75.04 62.66 73 63 C74.98 63.66 76.96 64.32 79 65 C79 65.99 79 66.98 79 68 C76.36 68.33 73.72 68.66 71 69 C72.65 69.33 74.3 69.66 76 70 C75.505 71.485 75.505 71.485 75 73 C73.02 73.33 71.04 73.66 69 74 C69.33 74.99 69.66 75.98 70 77 C59.83842392 76.81971397 51.16708064 75.00663838 42.546875 69.40625 C39.57490406 67.76528445 37.10355509 67.32929933 33.75 66.875 C28.0878187 66.0878187 28.0878187 66.0878187 27 65 C25.52825321 64.67294516 24.04685628 64.38898848 22.5625 64.125 C17.24893711 63.11289278 12.14896173 61.64328566 7 60 C6.67 60.66 6.34 61.32 6 62 C6 61.34 6 60.68 6 60 C5.175 59.9175 4.35 59.835 3.5 59.75 C-4.25344037 58.08854849 -9.56497415 54.60164504 -14 48 C-16.87122616 42.50721952 -16.1822618 36.91130899 -15 31 C-12.56239463 23.34328934 -8.71507193 16.5672271 -4.58203125 9.71484375 C-2.73903193 6.55216591 -1.31720159 3.40922764 0 0 Z " fill="#F3AD85" transform="translate(183,175)"/>
<path d="M0 0 C2.96175123 0.61277612 4.38058783 1.25372522 7 3 C7 3.66 7 4.32 7 5 C7.928125 5.37125 7.928125 5.37125 8.875 5.75 C11.35068687 7.20628639 11.95125002 8.37812506 13 11 C13.66 11 14.32 11 15 11 C15 8.69 15 6.38 15 4 C16.32 3.67 17.64 3.34 19 3 C22.0017506 10.07555499 22.34855655 16.37048445 22 24 C22.99 24.33 23.98 24.66 25 25 C26.60546875 26.99609375 26.60546875 26.99609375 28.1875 29.4375 C28.71730469 30.24058594 29.24710937 31.04367188 29.79296875 31.87109375 C31 34 31 34 31 36 C31.58007812 35.855625 32.16015625 35.71125 32.7578125 35.5625 C33.53898437 35.376875 34.32015625 35.19125 35.125 35 C35.89070313 34.814375 36.65640625 34.62875 37.4453125 34.4375 C40.33473352 33.9426756 43.07397199 33.93215008 46 34 C44.90667311 60.67142166 44.90667311 60.67142166 37.25 68.875 C33.87969757 70.56015122 30.64934342 70.53795102 27 70 C23.22483003 68.32214668 21.19200969 66.45749982 19 63 C18.09806483 60.33095048 17.2989945 57.71275476 16.5625 55 C16.12172612 53.47247363 15.68031602 51.94513072 15.23828125 50.41796875 C14.48266296 47.76045407 13.7765293 45.10709307 13.10546875 42.42578125 C11.64671627 37.116988 10.53089531 33.81654808 5.8125 30.75 C5.03519531 30.31300781 4.25789063 29.87601563 3.45703125 29.42578125 C0.70741229 27.8302154 -1.59035605 26.00894831 -4 23.9375 C-4.7425 23.30714844 -5.485 22.67679688 -6.25 22.02734375 C-8.27717423 19.6788986 -8.66207379 18.04661602 -9 15 C-8.01 15 -7.02 15 -6 15 C-6 15.66 -6 16.32 -6 17 C-5.01 17 -4.02 17 -3 17 C-3.433125 16.60167969 -3.86625 16.20335937 -4.3125 15.79296875 C-5.1478125 14.99826172 -5.1478125 14.99826172 -6 14.1875 C-6.556875 13.66542969 -7.11375 13.14335937 -7.6875 12.60546875 C-9 11 -9 11 -9 8 C-8.360625 8.165 -7.72125 8.33 -7.0625 8.5 C-5.19173179 9.03926667 -5.19173179 9.03926667 -4 9 C-4.495 8.401875 -4.99 7.80375 -5.5 7.1875 C-7 5 -7 5 -7 2 C-3.84669446 2.60694155 -1.81111133 3.6416665 0.75 5.5625 C1.67039063 6.24505859 1.67039063 6.24505859 2.609375 6.94140625 C3.29773438 7.46541016 3.29773438 7.46541016 4 8 C3.01 6.576875 3.01 6.576875 2 5.125 C0 2 0 2 0 0 Z " fill="#F0AA84" transform="translate(252,170)"/>
<path d="M0 0 C33.61538547 0.79973512 33.61538547 0.79973512 48 7 C49.2265625 9.09765625 49.2265625 9.09765625 50 11 C30.1772619 25.35439655 -8.1600671 20.50110782 -31 19 C-31.33 18.34 -31.66 17.68 -32 17 C-31.07446289 15.03369141 -31.07446289 15.03369141 -29 13 C-25.95072021 12.36795335 -22.91345566 12.44303545 -19.80859375 12.4609375 C-18.45701927 12.44324814 -18.45701927 12.44324814 -17.07814026 12.42520142 C-14.19775148 12.3898642 -11.31808809 12.38076262 -8.4375 12.375 C-5.55355875 12.3586835 -2.66994408 12.33670526 0.21385193 12.30337524 C2.00890172 12.28367271 3.80410166 12.27441815 5.59925842 12.27645874 C10.2816779 12.46523026 10.2816779 12.46523026 14 10 C14.6425235 7.93125966 14.6425235 7.93125966 15 6 C12.36 5.67 9.72 5.34 7 5 C7 4.34 7 3.68 7 3 C6.030625 2.87625 5.06125 2.7525 4.0625 2.625 C3.051875 2.41875 2.04125 2.2125 1 2 C0.505 1.01 0.505 1.01 0 0 Z " fill="#E1D5C7" transform="translate(286,446)"/>
<path d="M0 0 C2.5 1.3125 2.5 1.3125 5 3 C5 3.99 5 4.98 5 6 C7.41760876 5.88573491 9.83347218 5.75900339 12.25 5.625 C12.93191406 5.5940625 13.61382812 5.563125 14.31640625 5.53125 C19.47460571 5.24763109 19.47460571 5.24763109 24 3 C24.33 2.01 24.66 1.02 25 0 C24.67 2.64 24.34 5.28 24 8 C24.6496875 8.40992188 25.299375 8.81984375 25.96875 9.2421875 C26.8040625 9.78101563 27.639375 10.31984375 28.5 10.875 C29.3353125 11.40867187 30.170625 11.94234375 31.03125 12.4921875 C32.00578125 13.23855469 32.00578125 13.23855469 33 14 C33 14.66 33 15.32 33 16 C34.32 16 35.64 16 37 16 C37 16.66 37 17.32 37 18 C38.11375 18.103125 39.2275 18.20625 40.375 18.3125 C42.169375 18.6528125 42.169375 18.6528125 44 19 C46 22 46 22 45.625 24.6875 C45.41875 25.450625 45.2125 26.21375 45 27 C11.64279697 27.54759899 11.64279697 27.54759899 1 24 C0.97309896 21.20826945 0.95320947 18.41679652 0.9375 15.625 C0.92912109 14.8309375 0.92074219 14.036875 0.91210938 13.21875 C0.88671875 7.2265625 0.88671875 7.2265625 2 5 C1.34 5 0.68 5 0 5 C0 3.35 0 1.7 0 0 Z " fill="#F4AF88" transform="translate(203,432)"/>
<path d="M0 0 C7.59 0 15.18 0 23 0 C23.66 1.65 24.32 3.3 25 5 C26.89392507 6.55302067 26.89392507 6.55302067 29.1875 7.625 C29.98414063 8.03363281 30.78078125 8.44226563 31.6015625 8.86328125 C34.70449812 10.3338908 37.8162555 11.71295435 41 13 C41 13.66 41 14.32 41 15 C43.475 15.495 43.475 15.495 46 16 C45.125 20.875 45.125 20.875 44 22 C40.06771514 22.2209566 36.13157119 22.18578444 32.19360352 22.18530273 C30.2338441 22.18744924 28.27412377 22.2058329 26.31445312 22.22460938 C7.5067055 22.25335275 7.5067055 22.25335275 1 19 C-0.25497056 15.23508833 -0.10661648 11.72793525 -0.0625 7.8125 C-0.041875 5.234375 -0.02125 2.65625 0 0 Z " fill="#ED9A74" transform="translate(252,436)"/>
<path d="M0 0 C2.64 0 5.28 0 8 0 C8.495 1.485 8.495 1.485 9 3 C10.65438613 3.69658363 12.32254318 4.36096883 14 5 C17.53206056 8.00846365 18.9005676 11.56844172 20 16 C19.875 19.0625 19.875 19.0625 19 22 C18.67 23.155 18.34 24.31 18 25.5 C15.77291026 30.32893016 11.68316233 32.78537203 7 35 C-2.52825243 37.98442389 -11.07677105 37.46161448 -20 33 C-21.423125 32.38125 -21.423125 32.38125 -22.875 31.75 C-25 30 -25 30 -25.8125 26.3125 C-25.874375 25.219375 -25.93625 24.12625 -26 23 C-27.32 22.67 -28.64 22.34 -30 22 C-30 21.34 -30 20.68 -30 20 C-24.63954693 20.33502832 -21.46778563 21.64543724 -17.08984375 24.74609375 C-12.44060363 27.53563782 -7.42828791 28.36738744 -2.125 29.125 C-0.97257812 29.29257813 0.17984375 29.46015625 1.3671875 29.6328125 C2.23601562 29.75398438 3.10484375 29.87515625 4 30 C3.04134491 27.66924071 3.04134491 27.66924071 0 26 C0.95712891 25.92652344 0.95712891 25.92652344 1.93359375 25.8515625 C2.75988281 25.77679688 3.58617187 25.70203125 4.4375 25.625 C5.26121094 25.55539063 6.08492187 25.48578125 6.93359375 25.4140625 C7.61550781 25.27742188 8.29742187 25.14078125 9 25 C9.33 24.34 9.66 23.68 10 23 C7.69 22.67 5.38 22.34 3 22 C3 21.67 3 21.34 3 21 C6.3 21 9.6 21 13 21 C13 20.01 13 19.02 13 18 C9.37 17.34 5.74 16.68 2 16 C2 15.67 2 15.34 2 15 C5.63 15 9.26 15 13 15 C13 14.01 13 13.02 13 12 C11.79601562 11.79503906 10.59203125 11.59007812 9.3515625 11.37890625 C7.77601308 11.10693641 6.20049379 10.83479193 4.625 10.5625 C3.8309375 10.42779297 3.036875 10.29308594 2.21875 10.15429688 C-3.7734375 9.11328125 -3.7734375 9.11328125 -6 8 C-5.67 7.01 -5.34 6.02 -5 5 C-3.66666667 4.33333333 -2.33333333 3.66666667 -1 3 C-0.67 2.01 -0.34 1.02 0 0 Z " fill="#80977C" transform="translate(249,222)"/>
<path d="M0 0 C1.32 0.33 2.64 0.66 4 1 C4.28788454 5.14408265 4.57259951 9.2883678 4.85449219 13.43286133 C4.9506451 14.84014638 5.04763511 16.24737452 5.14550781 17.65454102 C5.28675666 19.68751547 5.42490504 21.72068161 5.5625 23.75390625 C5.64628906 24.97408447 5.73007812 26.1942627 5.81640625 27.45141602 C5.99869255 30.97472903 6.03165291 34.47267844 6 38 C0.67067568 39.70084819 -4.43109483 40.52013969 -10 41 C-10.33 39.35 -10.66 37.7 -11 36 C-10.34 36 -9.68 36 -9 36 C-9.0309375 34.3603125 -9.0309375 34.3603125 -9.0625 32.6875 C-9 29 -9 29 -8 26 C-7.34 26 -6.68 26 -6 26 C-5.87882812 25.26136719 -5.75765625 24.52273437 -5.6328125 23.76171875 C-5.28192126 21.63747719 -4.92753111 19.51381169 -4.5703125 17.390625 C-4.20430691 15.21464657 -3.84439286 13.03762972 -3.4921875 10.859375 C-3.32976562 9.89515625 -3.16734375 8.9309375 -3 7.9375 C-2.855625 7.05964844 -2.71125 6.18179688 -2.5625 5.27734375 C-2 3 -2 3 0 0 Z " fill="#587E6D" transform="translate(293,165)"/>
<path d="M0 0 C0.66 0 1.32 0 2 0 C4.9141458 7.45448903 7.60653128 14.93190542 6 23 C3.34073299 28.98007582 0.68306104 31.33473563 -5.125 34.125 C-10.01622974 36.40520371 -10.01622974 36.40520371 -13.375 40.4921875 C-13.9147722 42.65802347 -14.44238345 44.81043052 -14.875 47 C-16.10523109 52.02502084 -18.29535738 54.86357159 -22.625 57.75 C-27.01670138 59.37655607 -31.31881243 59.96632239 -36 60 C-36.66 59.67 -37.32 59.34 -38 59 C-38 58.34 -38 57.68 -38 57 C-36.66195313 56.65388672 -36.66195313 56.65388672 -35.296875 56.30078125 C-33.54117187 55.81158203 -33.54117187 55.81158203 -31.75 55.3125 C-30.58984375 54.99925781 -29.4296875 54.68601563 -28.234375 54.36328125 C-24.45192831 52.76898911 -23.14466846 51.47046351 -21 48 C-19.6819913 44.67604717 -19.6819913 44.67604717 -18.75 41.1875 C-18.41484375 40.02605469 -18.0796875 38.86460938 -17.734375 37.66796875 C-17.37085938 36.34732422 -17.37085938 36.34732422 -17 35 C-16.34 35 -15.68 35 -15 35 C-14.67 34.01 -14.34 33.02 -14 32 C-11.78515625 30.61328125 -11.78515625 30.61328125 -9.0625 29.3125 C-8.16660156 28.87550781 -7.27070313 28.43851563 -6.34765625 27.98828125 C-4 27 -4 27 -2 27 C1.31345861 19.94089253 0.47905573 11.82868838 -0.5625 4.25 C-0.706875 3.1775 -0.85125 2.105 -1 1 C-0.67 0.67 -0.34 0.34 0 0 Z " fill="#ACC7B2" transform="translate(362,75)"/>
<path d="M0 0 C5.61 0 11.22 0 17 0 C17.495 4.95 17.495 4.95 18 10 C27.89787977 11.69979078 37.32959493 12.25798398 47.375 12.125 C48.70832645 12.11492858 50.04166045 12.10581023 51.375 12.09765625 C54.58353441 12.074406 57.79166204 12.04173343 61 12 C61.66 10.35 62.32 8.7 63 7 C63.99 7 64.98 7 66 7 C65.25 11.75 65.25 11.75 63 14 C61.20297241 14.2784729 61.20297241 14.2784729 59.00927734 14.31884766 C58.18857758 14.33871735 57.36787781 14.35858704 56.52230835 14.37905884 C55.63580597 14.39061005 54.74930359 14.40216125 53.8359375 14.4140625 C52.92872955 14.43342865 52.02152161 14.4527948 51.08682251 14.4727478 C48.18297796 14.53263216 45.27909396 14.57896416 42.375 14.625 C40.40883667 14.66317165 38.4426902 14.70222289 36.4765625 14.7421875 C31.6511783 14.83834091 26.82571582 14.922339 22 15 C21.34 16.65 20.68 18.3 20 20 C15.71 20 11.42 20 7 20 C7.495 18.515 7.495 18.515 8 17 C7.36610352 16.98018066 6.73220703 16.96036133 6.07910156 16.93994141 C-24.79734028 15.92493306 -24.79734028 15.92493306 -28.796875 12.4296875 C-29.19390625 11.95789063 -29.5909375 11.48609375 -30 11 C-28.3603125 11.2165625 -28.3603125 11.2165625 -26.6875 11.4375 C-13.43112502 13.06784668 -0.34358655 13.22270718 13 13 C12.505 10.03 12.505 10.03 12 7 C9.69 6.34 7.38 5.68 5 5 C5 4.34 5 3.68 5 3 C3.68 3 2.36 3 1 3 C0.67 2.01 0.34 1.02 0 0 Z " fill="#E7CFBB" transform="translate(235,445)"/>
<path d="M0 0 C-0.13671875 1.81640625 -0.13671875 1.81640625 -1 4 C-3.58203125 5.52734375 -3.58203125 5.52734375 -6.8125 6.9375 C-11.43100769 8.95704234 -14.56939374 10.47158443 -17 15 C-17.27553067 18.58341891 -16.98825858 22.10676281 -16.75 25.6875 C-16.29130813 37.64660016 -16.29130813 37.64660016 -20.9375 43 C-21.66839844 43.66 -22.39929688 44.32 -23.15234375 45 C-25.55951355 47.6056468 -25.76774249 49.506847 -26 53 C-25.23757877 56.03739474 -25.23757877 56.03739474 -24 59 C-23.33333333 61 -22.66666667 63 -22 65 C-23.75 64.9375 -23.75 64.9375 -26 64 C-30.03690183 58.95387271 -30.77062254 54.41344636 -30.60546875 48.00390625 C-29.90842307 44.54566028 -28.8269824 43.22574504 -26.5 40.625 C-21.63294349 34.71500281 -22.6010151 28.26308393 -23.25976562 21.01806641 C-23.60116325 15.68607327 -23.32495469 12.66109611 -19.82421875 8.47265625 C-17.05397734 5.73379185 -14.55354875 3.80555117 -10.8125 2.5625 C-9.99394531 2.27503906 -9.17539063 1.98757812 -8.33203125 1.69140625 C-2.62711864 0 -2.62711864 0 0 0 Z " fill="#ADC4B0" transform="translate(265,28)"/>
<path d="M0 0 C2.96175123 0.61277612 4.38058783 1.25372522 7 3 C7 3.66 7 4.32 7 5 C7.928125 5.37125 7.928125 5.37125 8.875 5.75 C11.35068687 7.20628639 11.95125002 8.37812506 13 11 C13.66 11 14.32 11 15 11 C15 8.69 15 6.38 15 4 C16.32 3.67 17.64 3.34 19 3 C22.0017506 10.07555499 22.34855655 16.37048445 22 24 C22.99 24.33 23.98 24.66 25 25 C25.6875 27.0625 25.6875 27.0625 26 29 C24.35 28.34 22.7 27.68 21 27 C20.67 21.72 20.34 16.44 20 11 C18.02 11.99 18.02 11.99 16 13 C13.02531947 12.62816493 10.6264883 11.4070473 8 10 C8 10.99 8 11.98 8 13 C6.68 13 5.36 13 4 13 C3.67 13.66 3.34 14.32 3 15 C2.34 15 1.68 15 1 15 C0.01 17.475 0.01 17.475 -1 20 C-1.66 20 -2.32 20 -3 20 C-2.34 20.61875 -1.68 21.2375 -1 21.875 C1 24 1 24 1 26 C1.66 26 2.32 26 3 26 C3 26.66 3 27.32 3 28 C3.886875 28.226875 4.77375 28.45375 5.6875 28.6875 C9.48230501 30.19110199 11.36650854 31.91505286 14 35 C15.28317892 38.84953676 15.06643637 41.94738135 15 46 C12.63722783 43.63722783 12.59463722 42.46267086 11.9375 39.25 C10.41287778 33.90233012 8.18779497 32.21338791 3.4921875 29.49609375 C0.75702561 27.8541392 -1.57953943 26.01383758 -4 23.9375 C-4.7425 23.30714844 -5.485 22.67679688 -6.25 22.02734375 C-8.27717423 19.6788986 -8.66207379 18.04661602 -9 15 C-8.01 15 -7.02 15 -6 15 C-6 15.66 -6 16.32 -6 17 C-5.01 17 -4.02 17 -3 17 C-3.433125 16.60167969 -3.86625 16.20335937 -4.3125 15.79296875 C-5.1478125 14.99826172 -5.1478125 14.99826172 -6 14.1875 C-6.556875 13.66542969 -7.11375 13.14335937 -7.6875 12.60546875 C-9 11 -9 11 -9 8 C-8.360625 8.165 -7.72125 8.33 -7.0625 8.5 C-5.19173179 9.03926667 -5.19173179 9.03926667 -4 9 C-4.495 8.401875 -4.99 7.80375 -5.5 7.1875 C-7 5 -7 5 -7 2 C-3.84669446 2.60694155 -1.81111133 3.6416665 0.75 5.5625 C1.67039063 6.24505859 1.67039063 6.24505859 2.609375 6.94140625 C3.29773438 7.46541016 3.29773438 7.46541016 4 8 C3.01 6.576875 3.01 6.576875 2 5.125 C0 2 0 2 0 0 Z " fill="#DAAD8B" transform="translate(252,170)"/>
<path d="M0 0 C0.56807373 0.11593506 1.13614746 0.23187012 1.72143555 0.35131836 C4.37523366 0.88808678 7.03129155 1.41279443 9.6875 1.9375 C11.02651367 2.21110352 11.02651367 2.21110352 12.39257812 2.49023438 C24.66229116 4.89177963 36.84126726 5.14450608 49.3125 5.0625 C50.65038892 5.05746607 51.9882797 5.05290657 53.32617188 5.04882812 C56.55083085 5.03718676 59.7753896 5.02083703 63 5 C62.67 5.99 62.34 6.98 62 8 C49.99312214 9.75328595 38.05532555 10.22040454 25.9375 10.25 C25.22457794 10.25499512 24.51165588 10.25999023 23.77713013 10.26513672 C15.66070408 10.31177145 7.89344036 10.0796521 0 8 C0 5.36 0 2.72 0 0 Z " fill="#4F7D69" transform="translate(190,264)"/>
<path d="M0 0 C2.64 0 5.28 0 8 0 C8.33 0.99 8.66 1.98 9 3 C10.65438613 3.69658363 12.32254318 4.36096883 14 5 C17.73798737 8.12287553 19.34857724 12.23125136 20 17 C18.3125 20.0625 18.3125 20.0625 16 22 C15.34 22 14.68 22 14 22 C13.67 22.99 13.34 23.98 13 25 C12.34 24.67 11.68 24.34 11 24 C11 24.66 11 25.32 11 26 C10.34 25.67 9.68 25.34 9 25 C9.33 24.34 9.66 23.68 10 23 C7.69 22.67 5.38 22.34 3 22 C3 21.67 3 21.34 3 21 C6.3 21 9.6 21 13 21 C13 20.01 13 19.02 13 18 C9.37 17.34 5.74 16.68 2 16 C2 15.67 2 15.34 2 15 C5.63 15 9.26 15 13 15 C13 14.01 13 13.02 13 12 C11.79601562 11.79503906 10.59203125 11.59007812 9.3515625 11.37890625 C7.77601308 11.10693641 6.20049379 10.83479193 4.625 10.5625 C3.43390625 10.36043945 3.43390625 10.36043945 2.21875 10.15429688 C-3.7734375 9.11328125 -3.7734375 9.11328125 -6 8 C-5.67 7.01 -5.34 6.02 -5 5 C-3.66666667 4.33333333 -2.33333333 3.66666667 -1 3 C-0.67 2.01 -0.34 1.02 0 0 Z " fill="#7E977E" transform="translate(249,222)"/>
<path d="M0 0 C0.60585937 0.12117187 1.21171875 0.24234375 1.8359375 0.3671875 C3.09277344 0.61855469 3.09277344 0.61855469 4.375 0.875 C5.27863281 1.05675781 6.18226563 1.23851562 7.11328125 1.42578125 C9.02576389 1.80620743 10.93984083 2.17871118 12.85546875 2.54296875 C14.19544922 2.80013672 14.19544922 2.80013672 15.5625 3.0625 C16.80193359 3.29646484 16.80193359 3.29646484 18.06640625 3.53515625 C20 4 20 4 21 5 C23.32817964 5.36760731 25.6618385 5.70241581 28 6 C28.33 6.99 28.66 7.98 29 9 C31.01508358 9.73323796 31.01508358 9.73323796 33 10 C32 11 32 11 29.47265625 11.1328125 C21.57489848 11.11471913 13.74509163 10.82827709 5.86743164 10.26806641 C1.81108359 9.86769678 1.81108359 9.86769678 -2 11 C-2 8.03 -2 5.06 -2 2 C-1.34 2 -0.68 2 0 2 C0 1.34 0 0.68 0 0 Z " fill="#537E6A" transform="translate(190,235)"/>
<path d="M0 0 C1 3 1 3 -0.14453125 5.48046875 C-0.69496094 6.37378906 -1.24539062 7.26710937 -1.8125 8.1875 C-2.35519531 9.08855469 -2.89789063 9.98960937 -3.45703125 10.91796875 C-3.96621094 11.60503906 -4.47539062 12.29210937 -5 13 C-5.66 13 -6.32 13 -7 13 C-7.33 14.32 -7.66 15.64 -8 17 C-8.66 17 -9.32 17 -10 17 C-10.28875 17.763125 -10.5775 18.52625 -10.875 19.3125 C-12 22 -12 22 -14 25 C-14.66 25 -15.32 25 -16 25 C-16 25.66 -16 26.32 -16 27 C-16.66 27 -17.32 27 -18 27 C-18.433125 27.8971875 -18.433125 27.8971875 -18.875 28.8125 C-20 31 -20 31 -22 34 C-23.65 33.67 -25.3 33.34 -27 33 C-28 30 -28 30 -26.92578125 27.80859375 C-26.39339844 27.02613281 -25.86101562 26.24367187 -25.3125 25.4375 C-24.79300781 24.65246094 -24.27351562 23.86742187 -23.73828125 23.05859375 C-21.9263523 20.91278127 -20.51368145 20.14835553 -18 19 C-17.67 18.34 -17.34 17.68 -17 17 C-16.34 17 -15.68 17 -15 17 C-15 16.34 -15 15.68 -15 15 C-13.38025441 13.28769752 -11.7041054 11.62836738 -10 10 C-9.113125 9.071875 -8.22625 8.14375 -7.3125 7.1875 C-5 5 -5 5 -3 5 C-2.690625 4.360625 -2.38125 3.72125 -2.0625 3.0625 C-1 1 -1 1 0 0 Z " fill="#4F7F6B" transform="translate(227,179)"/>
<path d="M0 0 C-1.2065625 1.2375 -1.2065625 1.2375 -2.4375 2.5 C-7.53185626 8.71684154 -6.04691411 17.24106696 -5.83984375 24.828125 C-5.99350167 27.87130129 -6.39669254 29.45985798 -8 32 C-8.66 32 -9.32 32 -10 32 C-10 32.66 -10 33.32 -10 34 C-10.66 34 -11.32 34 -12 34 C-12.66 37.96 -13.32 41.92 -14 46 C-14.99 45.67 -15.98 45.34 -17 45 C-18.5547669 41.89046621 -18.28644437 39.43733239 -18 36 C-16.125 32.5625 -16.125 32.5625 -14 30 C-13.34 30 -12.68 30 -12 30 C-11.15992582 27.11053652 -10.91795474 24.66505502 -11.04296875 21.6640625 C-11.07487305 20.43816406 -11.07487305 20.43816406 -11.10742188 19.1875 C-11.16057613 17.4865637 -11.22557977 15.78595421 -11.30273438 14.0859375 C-11.42394986 8.37534115 -10.7557551 5.37361499 -7 1 C-4.53721199 -0.231394 -2.7204945 -0.07159196 0 0 Z " fill="#B8CCB8" transform="translate(262,41)"/>
<path d="M0 0 C0.66 0 1.32 0 2 0 C2.89820359 8.41650033 2.89820359 8.41650033 0.9453125 11.859375 C-1.78099048 14.71830893 -4.59492805 16.35039335 -8.1875 17.9375 C-11.44423197 19.44536072 -11.91259114 19.84079101 -13.75 23.1875 C-14.18193248 24.4532262 -14.59726807 25.72468221 -15 27 C-18.11946692 35.29557354 -18.11946692 35.29557354 -21.5 38 C-23.67109253 38.86843701 -25.70237925 39.57451468 -28 40 C-28.33 39.34 -28.66 38.68 -29 38 C-27.9275 37.278125 -26.855 36.55625 -25.75 35.8125 C-22.10990166 32.76327935 -21.14841665 29.98230206 -19.9375 25.4375 C-18.34362898 19.49425212 -17.24493925 17.18810033 -12 14 C-11.38253906 13.61328125 -10.76507813 13.2265625 -10.12890625 12.828125 C-5.47024829 10 -5.47024829 10 -3 10 C-2.01 6.7 -1.02 3.4 0 0 Z " fill="#B3C8B3" transform="translate(355,87)"/>
<path d="M0 0 C4.72711819 2.90899581 8.68833327 6.3219637 12.75390625 10.09765625 C14.9207357 12.07893249 14.9207357 12.07893249 17.50048828 13.28125 C20.5883374 15.40456098 21.10630156 16.86944548 22.23828125 20.40234375 C22.58310547 21.45744141 22.92792969 22.51253906 23.28320312 23.59960938 C23.62287109 24.70111328 23.96253906 25.80261719 24.3125 26.9375 C24.67150391 28.03513672 25.03050781 29.13277344 25.40039062 30.26367188 C28 38.37940476 28 38.37940476 28 43 C27.34 43 26.68 43 26 43 C25.67 40.69 25.34 38.38 25 36 C23.515 35.505 23.515 35.505 22 35 C21.15625 32.9609375 21.15625 32.9609375 20.5 30.375 C18.49502956 22.06500184 18.49502956 22.06500184 13 16 C13 15.34 13 14.68 13 14 C12.443125 13.938125 11.88625 13.87625 11.3125 13.8125 C8.00931958 12.6519231 6.28105267 10.59786554 4 8 C4 7.34 4 6.68 4 6 C2.68 5.34 1.36 4.68 0 4 C0 2.68 0 1.36 0 0 Z " fill="#6A7E62" transform="translate(243,189)"/>
<path d="M0 0 C1.36148901 4.08446704 0.28527837 5.92884499 -1.51953125 9.7109375 C-4.68771825 14.60950631 -9.22673231 17.13809234 -14.71484375 18.84375 C-23.50164094 20.71695221 -31.00043084 20.08141284 -39 16 C-39.66 15.34 -40.32 14.68 -41 14 C-36.125 14.875 -36.125 14.875 -35 16 C-28.27875782 16.40807542 -21.66013292 15.87346005 -15 15 C-14.67 13.35 -14.34 11.7 -14 10 C-12.02 9.67 -10.04 9.34 -8 9 C-8 8.34 -8 7.68 -8 7 C-7.34 7 -6.68 7 -6 7 C-5.67 6.34 -5.34 5.68 -5 5 C-4.34 5 -3.68 5 -3 5 C-2.67 4.01 -2.34 3.02 -2 2 C-1.34 2 -0.68 2 0 2 C0 1.34 0 0.68 0 0 Z " fill="#75957D" transform="translate(268,239)"/>
<path d="M0 0 C1.98 0 3.96 0 6 0 C6.33 0.99 6.66 1.98 7 3 C9.37625345 4.18391223 9.37625345 4.18391223 12 5 C12.99 5.33 13.98 5.66 15 6 C15.66 5.01 16.32 4.02 17 3 C19.3125 3 19.3125 3 22 4 C25.94948228 10.94564125 25.29573226 18.20143077 25 26 C24.67 26 24.34 26 24 26 C23.95101563 25.19175781 23.90203125 24.38351563 23.8515625 23.55078125 C23.77679688 22.48214844 23.70203125 21.41351563 23.625 20.3125 C23.55539062 19.25675781 23.48578125 18.20101562 23.4140625 17.11328125 C23.01023766 14.07697562 22.14838468 11.81494294 21 9 C21 7.68 21 6.36 21 5 C20.01 5.33 19.02 5.66 18 6 C17.67 8.31 17.34 10.62 17 13 C16.34 13 15.68 13 15 13 C13.64613064 11.34997172 12.31321858 9.6825613 11 8 C10.34 7.67 9.68 7.34 9 7 C9 6.34 9 5.68 9 5 C6.66785852 3.79371992 4.50357861 2.8345262 2 2 C3.65 4.97 5.3 7.94 7 11 C3 9 3 9 0.4375 6.9375 C-1.92026019 4.83615651 -1.92026019 4.83615651 -5 4 C-4.360625 5.11375 -3.72125 6.2275 -3.0625 7.375 C-1.99473894 9.23497087 -0.95928532 11.08142937 0 13 C-2.49361571 11.79618552 -4.68143083 10.54571278 -7 9 C-6.67 6.69 -6.34 4.38 -6 2 C-3.03 2.495 -3.03 2.495 0 3 C0 2.01 0 1.02 0 0 Z " fill="#7A8C71" transform="translate(250,168)"/>
<path d="M0 0 C4.97799291 1.50352525 9.44686193 3.58873927 14.0625 5.9375 C14.75666016 6.28490234 15.45082031 6.63230469 16.16601562 6.99023438 C19.12231518 8.48101791 21.89360317 9.92626747 24.62109375 11.81640625 C27.85352928 13.42466235 29.51435398 12.81840594 33 12 C34.35985304 11.80607138 35.72212388 11.62861498 37.0859375 11.46484375 C37.78847656 11.37783203 38.49101562 11.29082031 39.21484375 11.20117188 C39.92769531 11.11416016 40.64054687 11.02714844 41.375 10.9375 C42.11105469 10.84662109 42.84710938 10.75574219 43.60546875 10.66210938 C45.40350645 10.44027356 47.20173405 10.2199779 49 10 C48.62109375 11.9296875 48.62109375 11.9296875 48 14 C46.0625 15.125 46.0625 15.125 44 16 C43.34 16.66 42.68 17.32 42 18 C42 16.68 42 15.36 42 14 C36.91696314 13.88679144 36.91696314 13.88679144 32 15 C31.67 15.66 31.34 16.32 31 17 C24.06176209 14.51855962 17.67254432 11.33986382 11.26733398 7.73046875 C7.8588817 5.84423351 4.88019305 4.49518654 1 4 C0.67 2.68 0.34 1.36 0 0 Z " fill="#DCB08D" transform="translate(200,212)"/>
<path d="M0 0 C0.99 0 1.98 0 3 0 C3.33 1.65 3.66 3.3 4 5 C4.66 5 5.32 5 6 5 C6.53625 5.9075 7.0725 6.815 7.625 7.75 C10.12846522 11.78229894 13.72940751 13.23786232 18 15 C17.67 17.31 17.34 19.62 17 22 C10.53099597 20.38505606 8.43456068 17.28840247 4.76953125 11.9765625 C2.43773941 8.05421066 1.15510975 4.40385594 0 0 Z " fill="#EB956F" transform="translate(263,123)"/>
<path d="M0 0 C0.66 0.5775 1.32 1.155 2 1.75 C6.88186993 5.41140245 12.29629376 7.86111016 18 10 C18 10.66 18 11.32 18 12 C19.7634375 11.505 19.7634375 11.505 21.5625 11 C28.29585602 9.46772988 35.13917106 9.83729259 42 10 C38.75260595 11.85676358 35.81055243 12.50450924 32.125 13.0625 C31.11695313 13.21847656 30.10890625 13.37445313 29.0703125 13.53515625 C28.05710938 13.68855469 27.04390625 13.84195313 26 14 C25.0625293 14.22671387 24.12505859 14.45342773 23.15917969 14.68701172 C19.33126166 15.06625368 17.73270867 14.29816147 14.3828125 12.47265625 C13.36445313 11.92802734 12.34609375 11.38339844 11.296875 10.82226562 C10.25015625 10.24154297 9.2034375 9.66082031 8.125 9.0625 C7.05507812 8.48564453 5.98515625 7.90878906 4.8828125 7.31445312 C2.24697434 5.89062983 -0.37975997 4.45226915 -3 3 C-2.01 2.01 -1.02 1.02 0 0 Z " fill="#819575" transform="translate(207,211)"/>
<path d="M0 0 C3.70896961 2.93267365 6.6343549 5.71746412 9.56640625 9.45703125 C11.85438725 11.9195721 14.62345225 13.67412587 17.42578125 15.5078125 C17.94527344 16.00023437 18.46476562 16.49265625 19 17 C19 18.32 19 19.64 19 21 C17.68 21.33 16.36 21.66 15 22 C14.67 21.01 14.34 20.02 14 19 C13.34 19 12.68 19 12 19 C12 18.34 12 17.68 12 17 C11.34 17 10.68 17 10 17 C8.7109375 15.5390625 8.7109375 15.5390625 7.375 13.625 C6.92898437 12.99851563 6.48296875 12.37203125 6.0234375 11.7265625 C5 10 5 10 5 8 C4.34 8 3.68 8 3 8 C0 2.25 0 2.25 0 0 Z " fill="#D79A76" transform="translate(186,180)"/>
<path d="M0 0 C0.33 0 0.66 0 1 0 C1.45238682 4.96563742 1.89780643 9.93183073 2.33666992 14.89868164 C2.48707946 16.58961001 2.63941971 18.28036777 2.79370117 19.97094727 C3.01463874 22.39557729 3.22871293 24.82072842 3.44140625 27.24609375 C3.51218887 28.00651474 3.5829715 28.76693573 3.65589905 29.55039978 C3.81155273 31.36388309 3.91153512 33.18200007 4 35 C3.505 35.495 3.505 35.495 3 36 C2.76321284 38.69235776 2.57801975 41.36498156 2.4375 44.0625 C2.39431641 44.82111328 2.35113281 45.57972656 2.30664062 46.36132812 C2.20026367 48.24065438 2.09960066 50.12030244 2 52 C1.67 52 1.34 52 1 52 C-0.08273885 34.65684384 -0.10970224 17.36839609 0 0 Z " fill="#97B1A1" transform="translate(201,360)"/>
<path d="M0 0 C0.99 0 1.98 0 3 0 C3 1.98 3 3.96 3 6 C3.99 6 4.98 6 6 6 C6 6.66 6 7.32 6 8 C8.97 8.495 8.97 8.495 12 9 C12.33 9.99 12.66 10.98 13 12 C10.20763552 11.52464031 7.41615009 11.0448933 4.625 10.5625 C3.43390625 10.36043945 3.43390625 10.36043945 2.21875 10.15429688 C-3.7734375 9.11328125 -3.7734375 9.11328125 -6 8 C-5.67 7.01 -5.34 6.02 -5 5 C-3.66666667 4.33333333 -2.33333333 3.66666667 -1 3 C-0.67 2.01 -0.34 1.02 0 0 Z " fill="#9C967A" transform="translate(249,222)"/>
<path d="M0 0 C0.64324219 0.26554688 1.28648437 0.53109375 1.94921875 0.8046875 C9.22167742 3.64727477 16.2610273 5.0649254 24 6 C23.04134491 3.66924071 23.04134491 3.66924071 20 2 C22.64 2 25.28 2 28 2 C27.01 2.33 26.02 2.66 25 3 C25.020625 3.804375 25.04125 4.60875 25.0625 5.4375 C25 8 25 8 24 9 C17.6861288 9.71842736 12.71874876 8.56996402 7 6 C5.66675178 5.43729828 4.33342322 4.8747869 3 4.3125 C2.01 3.879375 1.02 3.44625 0 3 C0 2.01 0 1.02 0 0 Z " fill="#989678" transform="translate(229,246)"/>
<path d="M0 0 C0.66 0.33 1.32 0.66 2 1 C-0.18526316 10.46947368 -0.18526316 10.46947368 -3.6875 12.75 C-4.8321875 13.36875 -4.8321875 13.36875 -6 14 C-6.41746608 17.12635209 -6.41746608 17.12635209 -6 20 C-5.37609375 20.07089844 -4.7521875 20.14179688 -4.109375 20.21484375 C-2 21 -2 21 -0.953125 23.06640625 C-0.72109375 23.89011719 -0.4890625 24.71382812 -0.25 25.5625 C-0.00765625 26.38878906 0.2346875 27.21507812 0.484375 28.06640625 C0.65453125 28.70449219 0.8246875 29.34257812 1 30 C-4.80755854 26.04030099 -7.06213358 21.7255364 -9 15 C-9 14.01 -9 13.02 -9 12 C-8.01 11.67 -7.02 11.34 -6 11 C-4.31250296 8.45327745 -4.31250296 8.45327745 -2.8125 5.4375 C-2.28269531 4.42558594 -1.75289063 3.41367188 -1.20703125 2.37109375 C-0.80871094 1.58863281 -0.41039062 0.80617188 0 0 Z " fill="#D6B191" transform="translate(262,124)"/>
<path d="M0 0 C0.8723412 2.99480917 1.10829766 5.63575911 1.0625 8.75 C1.05347656 9.54921875 1.04445313 10.3484375 1.03515625 11.171875 C1.01775391 12.07679687 1.01775391 12.07679687 1 13 C1.66 13 2.32 13 3 13 C4.5859375 14.078125 4.5859375 14.078125 6 16 C6.4765625 19.109375 6.4765625 19.109375 6.625 22.75 C6.86953044 27.570743 7.20694031 32.24164187 8 37 C7.01 36.67 6.02 36.34 5 36 C3.67405641 30.03325384 3.9115413 24.07416385 4 18 C3.01 17.67 2.02 17.34 1 17 C-1.83985291 12.58245104 -2.48209555 9.20663198 -2 4 C-1 1.5625 -1 1.5625 0 0 Z " fill="#E6B295" transform="translate(258,86)"/>
<path d="M0 0 C7.59 0 15.18 0 23 0 C22.67 1.32 22.34 2.64 22 4 C15.4 3.67 8.8 3.34 2 3 C2.33 8.28 2.66 13.56 3 19 C2.34 19 1.68 19 1 19 C-0.25497056 15.23508833 -0.10661648 11.72793525 -0.0625 7.8125 C-0.041875 5.234375 -0.02125 2.65625 0 0 Z " fill="#D7A485" transform="translate(252,436)"/>
<path d="M0 0 C2.475 0.495 2.475 0.495 5 1 C5 1.66 5 2.32 5 3 C7.475 3.495 7.475 3.495 10 4 C9.125 8.875 9.125 8.875 8 10 C4.06771514 10.2209566 0.13157119 10.18578444 -3.80639648 10.18530273 C-5.7661559 10.18744924 -7.72587623 10.2058329 -9.68554688 10.22460938 C-17.66353456 10.23680192 -25.18338106 9.6107802 -33 8 C-33 7.67 -33 7.34 -33 7 C-31.29175867 6.97264382 -29.58338595 6.95344494 -27.875 6.9375 C-26.92367188 6.92589844 -25.97234375 6.91429687 -24.9921875 6.90234375 C-22 7 -22 7 -19.34375 7.46875 C-14.45641073 8.24524316 -9.56524855 8.36807732 -4.625 8.5625 C-3.60277344 8.60568359 -2.58054687 8.64886719 -1.52734375 8.69335938 C0.98165288 8.79887792 3.49073943 8.90099213 6 9 C6 8.34 6 7.68 6 7 C6.66 7 7.32 7 8 7 C6.78934835 4.57869669 5.78126593 4.15341778 3.4375 2.875 C1.7359375 1.946875 1.7359375 1.946875 0 1 C0 0.67 0 0.34 0 0 Z " fill="#E3A788" transform="translate(288,448)"/>
<path d="M0 0 C0.66 0 1.32 0 2 0 C2.89953149 8.42894326 2.89953149 8.42894326 0.875 11.96484375 C-2.38007453 15.43183719 -5.14410664 16.76876698 -10 17 C-10.33 16.34 -10.66 15.68 -11 15 C-9.17911154 12.89160283 -8.2750413 12.06188429 -5.5 11.4375 C-2.29923678 9.59706115 -2.21771457 8.34648132 -1.1875 4.875 C-0.77214352 3.25488024 -0.3701445 1.63104325 0 0 Z " fill="#ADC3AE" transform="translate(355,87)"/>
<path d="M0 0 C2.00720923 0.28674418 4.0085944 0.61866701 6 1 C2.30359529 5.25646603 -0.46042761 6.93095971 -6 8 C-11.38983051 8.30508475 -11.38983051 8.30508475 -14 7 C-14 6.34 -14 5.68 -14 5 C-13.07316406 4.72285156 -12.14632813 4.44570312 -11.19140625 4.16015625 C-9.99386719 3.79792969 -8.79632813 3.43570313 -7.5625 3.0625 C-6.36753906 2.70285156 -5.17257812 2.34320313 -3.94140625 1.97265625 C-1.14132455 1.29110858 -1.14132455 1.29110858 0 0 Z " fill="#C2D1BF" transform="translate(338,127)"/>
<path d="M0 0 C2.5 1.3125 2.5 1.3125 5 3 C5 3.99 5 4.98 5 6 C7.41760876 5.88573491 9.83347218 5.75900339 12.25 5.625 C12.93191406 5.5940625 13.61382812 5.563125 14.31640625 5.53125 C19.47460571 5.24763109 19.47460571 5.24763109 24 3 C24.33 2.01 24.66 1.02 25 0 C24.25 5.75 24.25 5.75 22 8 C20.12060547 8.31884766 20.12060547 8.31884766 17.8671875 8.4140625 C16.65869141 8.47207031 16.65869141 8.47207031 15.42578125 8.53125 C14.16314453 8.57765625 14.16314453 8.57765625 12.875 8.625 C11.60076172 8.68300781 11.60076172 8.68300781 10.30078125 8.7421875 C8.20088316 8.83656494 6.10047109 8.91937586 4 9 C3.67 9.66 3.34 10.32 3 11 C2.34 11 1.68 11 1 11 C1.33 9.02 1.66 7.04 2 5 C1.34 5 0.68 5 0 5 C0 3.35 0 1.7 0 0 Z " fill="#C9B498" transform="translate(203,432)"/>
<path d="M0 0 C4.24822374 0.47202486 6.19989709 2.96655518 9 6 C8.34 6 7.68 6 7 6 C7.66 7.98 8.32 9.96 9 12 C1.5577342 12.36601307 1.5577342 12.36601307 -1 10.6875 C-2 9 -2 9 -2 6 C-1.360625 6.165 -0.72125 6.33 -0.0625 6.5 C1.80826821 7.03926667 1.80826821 7.03926667 3 7 C2.505 6.401875 2.01 5.80375 1.5 5.1875 C0 3 0 3 0 0 Z " fill="#CFAE8E" transform="translate(245,172)"/>
<path d="M0 0 C0.33 0.99 0.66 1.98 1 3 C0.15236084 2.99214478 0.15236084 2.99214478 -0.71240234 2.98413086 C-3.2665903 2.96337578 -5.82076053 2.9503446 -8.375 2.9375 C-9.26445312 2.92912109 -10.15390625 2.92074219 -11.0703125 2.91210938 C-11.92109375 2.90888672 -12.771875 2.90566406 -13.6484375 2.90234375 C-14.43395996 2.89710693 -15.21948242 2.89187012 -16.02880859 2.88647461 C-18.07772668 2.87426047 -18.07772668 2.87426047 -20 4 C-21.99960012 4.039992 -24.00047242 4.04346799 -26 4 C-19.48730275 -3.54101786 -8.84187038 -1.30990672 0 0 Z " fill="#73957B" transform="translate(252,219)"/>
<path d="M0 0 C0.99 0 1.98 0 3 0 C4.32229189 2.64458379 4.09677194 4.67761301 4.0625 7.625 C4.05347656 8.62789062 4.04445312 9.63078125 4.03515625 10.6640625 C4.02355469 11.43492188 4.01195312 12.20578125 4 13 C2.35 13 0.7 13 -1 13 C-1.02686553 11.02090602 -1.04633375 9.04171029 -1.0625 7.0625 C-1.07410156 5.96035156 -1.08570313 4.85820313 -1.09765625 3.72265625 C-1 1 -1 1 0 0 Z " fill="#AAC3AE" transform="translate(244,52)"/>
<path d="M0 0 C2.97 0.33 5.94 0.66 9 1 C8.67 1.99 8.34 2.98 8 4 C6.02 4.33 4.04 4.66 2 5 C2.33 5.99 2.66 6.98 3 8 C-1.29 7.67 -5.58 7.34 -10 7 C-10 6.67 -10 6.34 -10 6 C-6.535 5.505 -6.535 5.505 -3 5 C-3.33 4.34 -3.66 3.68 -4 3 C-3.01 2.67 -2.02 2.34 -1 2 C-0.67 1.34 -0.34 0.68 0 0 Z " fill="#D9AF8D" transform="translate(250,244)"/>
<path d="M0 0 C0.60585937 0.12117187 1.21171875 0.24234375 1.8359375 0.3671875 C3.09277344 0.61855469 3.09277344 0.61855469 4.375 0.875 C5.27863281 1.05675781 6.18226563 1.23851562 7.11328125 1.42578125 C9.02576389 1.80620743 10.93984083 2.17871118 12.85546875 2.54296875 C14.19544922 2.80013672 14.19544922 2.80013672 15.5625 3.0625 C16.80193359 3.29646484 16.80193359 3.29646484 18.06640625 3.53515625 C20 4 20 4 21 5 C23.32817964 5.36760731 25.6618385 5.70241581 28 6 C28 6.33 28 6.66 28 7 C24.7 7 21.4 7 18 7 C18 6.34 18 5.68 18 5 C16.989375 5.020625 15.97875 5.04125 14.9375 5.0625 C11 5 11 5 7.1875 4.4375 C4.11040295 3.70951356 4.11040295 3.70951356 2 5 C1.34 4.67 0.68 4.34 0 4 C-0.33 5.65 -0.66 7.3 -1 9 C-1.33 9 -1.66 9 -2 9 C-2 6.69 -2 4.38 -2 2 C-1.34 2 -0.68 2 0 2 C0 1.34 0 0.68 0 0 Z " fill="#778166" transform="translate(190,235)"/>
<path d="M0 0 C0.33 0.99 0.66 1.98 1 3 C0.01 3.33 -0.98 3.66 -2 4 C-2 4.99 -2 5.98 -2 7 C-2.66 7 -3.32 7 -4 7 C-3.87625 8.11375 -3.87625 8.11375 -3.75 9.25 C-4 12 -4 12 -5.875 14.3125 C-8 16 -8 16 -10 16 C-10 16.66 -10 17.32 -10 18 C-11.32 18.33 -12.64 18.66 -14 19 C-12.63312778 15.01328937 -10.84804907 12.11505367 -8 9 C-7.34 9 -6.68 9 -6 9 C-5.7525 8.443125 -5.505 7.88625 -5.25 7.3125 C-3.78393985 4.60028873 -1.97010529 2.36412635 0 0 Z " fill="#83A391" transform="translate(200,153)"/>
<path d="M0 0 C-0.15234375 1.828125 -0.15234375 1.828125 -1 4 C-3.50390625 5.484375 -3.50390625 5.484375 -6.5625 6.75 C-8.08037109 7.39195313 -8.08037109 7.39195313 -9.62890625 8.046875 C-10.41136719 8.36140625 -11.19382813 8.6759375 -12 9 C-12.33 8.34 -12.66 7.68 -13 7 C-14.65 7.33 -16.3 7.66 -18 8 C-15.75874763 4.63812145 -14.78545059 4.25445764 -11.125 2.875 C-10.26132813 2.54242187 -9.39765625 2.20984375 -8.5078125 1.8671875 C-5.64062103 0.87572877 -3.04482329 0 0 0 Z " fill="#BED1BE" transform="translate(265,28)"/>
<path d="M0 0 C0.66 0 1.32 0 2 0 C2.5345256 1.24420647 3.05208611 2.49570936 3.5625 3.75 C3.85253906 4.44609375 4.14257812 5.1421875 4.44140625 5.859375 C5.08403102 8.32202099 4.86039859 9.63003982 4 12 C3.67 12.33 3.34 12.66 3 13 C2.63239269 15.32817964 2.29758419 17.6618385 2 20 C1.67 20 1.34 20 1 20 C0.63704322 16.85511498 0.28611204 13.70900484 -0.0625 10.5625 C-0.16626953 9.66466797 -0.27003906 8.76683594 -0.37695312 7.84179688 C-0.47041016 6.98779297 -0.56386719 6.13378906 -0.66015625 5.25390625 C-0.74918213 4.46314697 -0.83820801 3.6723877 -0.92993164 2.85766602 C-0.9530542 2.24463623 -0.97617676 1.63160645 -1 1 C-0.67 0.67 -0.34 0.34 0 0 Z " fill="#C3CFBF" transform="translate(362,75)"/>
<path d="M0 0 C0 0.66 0 1.32 0 2 C-1.98 2.33 -3.96 2.66 -6 3 C-6 4.32 -6 5.64 -6 7 C-5.34 7 -4.68 7 -4 7 C-3.67 8.98 -3.34 10.96 -3 13 C-3.66 13 -4.32 13 -5 13 C-5.81498562 11.3970947 -6.62689927 9.79262722 -7.4375 8.1875 C-7.88996094 7.29417969 -8.34242188 6.40085938 -8.80859375 5.48046875 C-10 3 -10 3 -11 0 C-7.18243176 -1.37432457 -3.92744671 -0.67975039 0 0 Z " fill="#E09673" transform="translate(295,206)"/>
<path d="M0 0 C0.66 0 1.32 0 2 0 C2.84454356 3.37817425 3.10844919 5.67465243 2 9 C2.99 9.33 3.98 9.66 5 10 C5 10.99 5 11.98 5 13 C4.34 13 3.68 13 3 13 C2.67 16.3 2.34 19.6 2 23 C1.67 23 1.34 23 1 23 C0.15199233 15.307359 -0.12152487 7.73708326 0 0 Z " fill="#527361" transform="translate(250,402)"/>
<path d="M0 0 C1.98 0.66 3.96 1.32 6 2 C4.40907948 6.13639336 1.39525082 9.23213248 -2 12 C-2.66 12 -3.32 12 -4 12 C-2.87204037 7.89100419 -1.66489182 3.92438786 0 0 Z " fill="#83614B" transform="translate(325,104)"/>
<path d="M0 0 C3 3.75 3 3.75 3 6 C2.01 6 1.02 6 0 6 C0.061875 7.423125 0.061875 7.423125 0.125 8.875 C0 12 0 12 -2 14 C-2.99 14 -3.98 14 -5 14 C-5 14.66 -5 15.32 -5 16 C-5.99 16.33 -6.98 16.66 -8 17 C-6.59116673 12.90157595 -4.50961643 9.54408397 -2.12109375 5.96484375 C-0.98339089 3.97089065 -0.44433547 2.2416475 0 0 Z " fill="#EFB89A" transform="translate(183,175)"/>
<path d="M0 0 C2.64752004 2.57784846 4.94432065 4.91648098 7 8 C6.8125 10.125 6.8125 10.125 6 12 C3 13 3 13 0 12 C0.185625 11.505 0.37125 11.01 0.5625 10.5 C1.20139296 6.84918311 0.54905291 3.66035276 0 0 Z " fill="#769B88" transform="translate(288,151)"/>
<path d="M0 0 C0.66 0 1.32 0 2 0 C2 1.32 2 2.64 2 4 C-1.41826747 5.70913373 -5.23354763 5.18458479 -9 5.1875 C-9.83273437 5.19974609 -10.66546875 5.21199219 -11.5234375 5.22460938 C-12.71839844 5.22750977 -12.71839844 5.22750977 -13.9375 5.23046875 C-14.66839844 5.23457764 -15.39929688 5.23868652 -16.15234375 5.24291992 C-18 5 -18 5 -20 3 C-18.72382813 2.95101563 -17.44765625 2.90203125 -16.1328125 2.8515625 C-14.46351928 2.77653809 -12.79424954 2.70099012 -11.125 2.625 C-10.28324219 2.5940625 -9.44148438 2.563125 -8.57421875 2.53125 C-7.76855469 2.49257813 -6.96289062 2.45390625 -6.1328125 2.4140625 C-5.38918457 2.3826416 -4.64555664 2.3512207 -3.87939453 2.31884766 C-1.75989026 2.14580449 -1.75989026 2.14580449 0 0 Z " fill="#707A65" transform="translate(272,432)"/>
<path d="M0 0 C1.32 0.99 2.64 1.98 4 3 C3.4225 3.226875 2.845 3.45375 2.25 3.6875 C-0.56913681 5.33199647 -2.01254869 7.4355467 -4 10 C-7.71013399 12.47342266 -9.61060262 12.38503486 -14 12 C-16.22265625 10.48046875 -16.22265625 10.48046875 -18 9 C-17.26394531 9.05800781 -16.52789062 9.11601562 -15.76953125 9.17578125 C-9.42960068 9.56789725 -9.42960068 9.56789725 -3.9375 6.75 C-2.37318646 4.52968401 -1.0226272 2.51008495 0 0 Z " fill="#D0B397" transform="translate(281,145)"/>
<path d="M0 0 C0.33 0 0.66 0 1 0 C1.03738281 0.60328125 1.07476562 1.2065625 1.11328125 1.828125 C1.5045773 6.58505732 1.93259158 9.2354533 5 13 C4.75 15.0625 4.75 15.0625 4 17 C3.67 17.99 3.34 18.98 3 20 C3.66 20.33 4.32 20.66 5 21 C3.68 21 2.36 21 1 21 C0.06145994 13.96094956 -0.10808032 7.09727428 0 0 Z " fill="#7F9787" transform="translate(250,414)"/>
<path d="M0 0 C2.64 0 5.28 0 8 0 C8.33 0.99 8.66 1.98 9 3 C11.92914165 4.17082878 11.92914165 4.17082878 15 5 C15.66 5.33 16.32 5.66 17 6 C17 6.66 17 7.32 17 8 C12.40191871 7.46105575 9.13215631 6.23428472 5.125 3.9375 C4.15820312 3.38964844 3.19140625 2.84179688 2.1953125 2.27734375 C1.47085938 1.85582031 0.74640625 1.43429688 0 1 C0 0.67 0 0.34 0 0 Z " fill="#DFAC8E" transform="translate(223,242)"/>
<path d="M0 0 C1.05128687 3.23529832 0.91901775 5.39722097 0.125 8.6875 C-0.05804688 9.47511719 -0.24109375 10.26273438 -0.4296875 11.07421875 C-1 13 -1 13 -2 14 C-2.23363881 15.84891946 -2.41303635 17.70488031 -2.5625 19.5625 C-2.64628906 20.57441406 -2.73007813 21.58632812 -2.81640625 22.62890625 C-2.87699219 23.41136719 -2.93757812 24.19382813 -3 25 C-5.94955865 20.08406891 -5.02372968 15.44796003 -4 10 C-2.87225597 6.56197873 -1.52875255 3.27792989 0 0 Z " fill="#E7BEA7" transform="translate(172,196)"/>
<path d="M0 0 C0.99 0.33 1.98 0.66 3 1 C3.1953125 7.0546875 3.1953125 7.0546875 3 9 C2.34 9.66 1.68 10.32 1 11 C0.67 11.66 0.34 12.32 0 13 C-0.99 13 -1.98 13 -3 13 C-2.01 8.71 -1.02 4.42 0 0 Z " fill="#A6BFAA" transform="translate(365,86)"/>
<path d="M0 0 C1.05960938 0.00676758 1.05960938 0.00676758 2.140625 0.01367188 C3.88545275 0.02546125 5.630237 0.04339676 7.375 0.0625 C4.12760595 1.91926358 1.18555243 2.56700924 -2.5 3.125 C-3.50804687 3.28097656 -4.51609375 3.43695313 -5.5546875 3.59765625 C-6.56789062 3.75105469 -7.58109375 3.90445313 -8.625 4.0625 C-10.62549722 4.39283615 -12.62564896 4.72529602 -14.625 5.0625 C-14.625 4.4025 -14.625 3.7425 -14.625 3.0625 C-12.975 3.0625 -11.325 3.0625 -9.625 3.0625 C-9.625 2.4025 -9.625 1.7425 -9.625 1.0625 C-6.55966836 -0.47016582 -3.35745728 -0.04026471 0 0 Z " fill="#919173" transform="translate(241.625,220.9375)"/>
<path d="M0 0 C2.27057377 -0.05398987 4.54151288 -0.09278742 6.8125 -0.125 C8.07707031 -0.14820313 9.34164062 -0.17140625 10.64453125 -0.1953125 C14 0 14 0 17 2 C16.01 3.485 16.01 3.485 15 5 C13.68 5 12.36 5 11 5 C10.67 4.34 10.34 3.68 10 3 C7.65092125 2.31068656 7.65092125 2.31068656 4.9375 1.875 C4.01839844 1.70742187 3.09929687 1.53984375 2.15234375 1.3671875 C1.44207031 1.24601563 0.73179687 1.12484375 0 1 C0 0.67 0 0.34 0 0 Z " fill="#608F79" transform="translate(242,217)"/>
<path d="M0 0 C1.98 0 3.96 0 6 0 C5.67 5.94 5.34 11.88 5 18 C4.34 18 3.68 18 3 18 C3 12.72 3 7.44 3 2 C2.01 2 1.02 2 0 2 C0 1.34 0 0.68 0 0 Z " fill="#E0B8A0" transform="translate(292,204)"/>
<path d="M0 0 C0.33 0 0.66 0 1 0 C1.304 9.12 1.304 9.12 -1 12 C-3.125 12.75 -3.125 12.75 -5 13 C-5.33 12.01 -5.66 11.02 -6 10 C-4.73779907 7.95436401 -3.39712274 5.95597184 -2 4 C-1.30570621 2.6808418 -0.62469505 1.35350594 0 0 Z " fill="#B1C8B5" transform="translate(255,61)"/>
<path d="M0 0 C1.86751623 2.12576705 2.93888764 3.43745442 3.2487793 6.29003906 C3.16237183 7.5154541 3.16237183 7.5154541 3.07421875 8.765625 C3.01943359 9.65507812 2.96464844 10.54453125 2.90820312 11.4609375 C2.83537109 12.38132812 2.76253906 13.30171875 2.6875 14.25 C2.62626953 15.18585938 2.56503906 16.12171875 2.50195312 17.0859375 C2.34899942 19.3920088 2.1812095 21.69600533 2 24 C0.22330777 20.93843346 -0.24050818 18.75963785 -0.1953125 15.234375 C-0.18886719 14.34492188 -0.18242187 13.45546875 -0.17578125 12.5390625 C-0.15902344 11.61867188 -0.14226562 10.69828125 -0.125 9.75 C-0.11597656 8.81414062 -0.10695312 7.87828125 -0.09765625 6.9140625 C-0.07413636 4.60911343 -0.04126853 2.3046884 0 0 Z " fill="#6A8978" transform="translate(203,412)"/>
<path d="M0 0 C2 1 2 1 3.125 4.0625 C3.41375 5.031875 3.7025 6.00125 4 7 C3.01 7.495 3.01 7.495 2 8 C1.53476937 9.89533342 1.53476937 9.89533342 1.375 12.0625 C1.25125 13.361875 1.1275 14.66125 1 16 C0.34 16 -0.32 16 -1 16 C-1.02685095 13.52076199 -1.04676547 11.0418116 -1.0625 8.5625 C-1.07506836 7.50192383 -1.07506836 7.50192383 -1.08789062 6.41992188 C-1.09653588 4.61306441 -1.05220011 2.80612397 -1 1 C-0.67 0.67 -0.34 0.34 0 0 Z " fill="#718E7D" transform="translate(249,384)"/>
<path d="M0 0 C0.33 0 0.66 0 1 0 C1.19601027 2.70795726 1.38204839 5.41599805 1.5625 8.125 C1.61857422 8.88554687 1.67464844 9.64609375 1.73242188 10.4296875 C2.01498074 14.79993128 1.93147699 18.68070669 1 23 C0.67 23 0.34 23 0 23 C-0.90579955 15.6889036 -1.41269254 8.36777571 -1 1 C-0.67 0.67 -0.34 0.34 0 0 Z " fill="#81998A" transform="translate(247,357)"/>
<path d="M0 0 C-1.77791112 2.27177532 -2.85430236 2.96272851 -5.6875 3.6875 C-8.26077704 3.93026198 -10.67573282 4.02335996 -13.25 4 C-16.813661 3.7204915 -16.813661 3.7204915 -19 5 C-19.33 4.01 -19.66 3.02 -20 2 C-17.79248152 1.66131223 -15.58394089 1.32928311 -13.375 1 C-12.14523437 0.814375 -10.91546875 0.62875 -9.6484375 0.4375 C-6.3833973 0.04597484 -3.28287549 -0.08080924 0 0 Z " fill="#E9B9A0" transform="translate(302,137)"/>
<path d="M0 0 C1.33333333 4 2.66666667 8 4 12 C2.25 11.9375 2.25 11.9375 0 11 C-2.00840495 8.29950956 -4 5.44873267 -4 2 C-1 0 -1 0 0 0 Z " fill="#C1CEBB" transform="translate(239,81)"/>
<path d="M0 0 C2 2 2 2 2.125 4.625 C2.08375 5.40875 2.0425 6.1925 2 7 C2.66 7.33 3.32 7.66 4 8 C3.67 13.61 3.34 19.22 3 25 C2.67 25 2.34 25 2 25 C1.93941406 24.16855469 1.87882812 23.33710938 1.81640625 22.48046875 C1.73261719 21.39378906 1.64882813 20.30710938 1.5625 19.1875 C1.48128906 18.10855469 1.40007812 17.02960938 1.31640625 15.91796875 C1.09787539 12.94010095 1.09787539 12.94010095 0 10 C-0.06802967 8.27204648 -0.08495645 6.54164635 -0.0625 4.8125 C-0.05347656 3.91144531 -0.04445313 3.01039063 -0.03515625 2.08203125 C-0.02355469 1.39496094 -0.01195312 0.70789063 0 0 Z " fill="#608870" transform="translate(267,225)"/>
<path d="M0 0 C0.99 0.33 1.98 0.66 3 1 C3.1953125 7.0546875 3.1953125 7.0546875 3 9 C2.34 9.66 1.68 10.32 1 11 C0.01 11 -0.98 11 -2 11 C-2.25 3.375 -2.25 3.375 0 0 Z M1 6 C2 8 2 8 2 8 Z " fill="#466D5D" transform="translate(293,165)"/>
<path d="M0 0 C2.96175123 0.61277612 4.38058783 1.25372522 7 3 C7 3.66 7 4.32 7 5 C7.61875 5.268125 8.2375 5.53625 8.875 5.8125 C11 7 11 7 13 10 C11.68 9.67 10.36 9.34 9 9 C9 8.34 9 7.68 9 7 C8.071875 6.9175 7.14375 6.835 6.1875 6.75 C3 6 3 6 1.125 4.0625 C0 2 0 2 0 0 Z " fill="#D2AF8F" transform="translate(252,170)"/>
<path d="M0 0 C0.33 0.66 0.66 1.32 1 2 C-4.2734375 5.22265625 -4.2734375 5.22265625 -6 6 C-6.66 5.67 -7.32 5.34 -8 5 C-8.33 5.66 -8.66 6.32 -9 7 C-9.99 7 -10.98 7 -12 7 C-12 7.66 -12 8.32 -12 9 C-12.66 8.67 -13.32 8.34 -14 8 C-9.950809 3.16709462 -6.03280791 1.6166348 0 0 Z " fill="#957A6A" transform="translate(281,49)"/>
<path d="M0 0 C0.66 0.33 1.32 0.66 2 1 C-0.15317287 10.33041575 -0.15317287 10.33041575 -3.6875 13.125 C-4.450625 13.41375 -5.21375 13.7025 -6 14 C-5.41892368 10.2397015 -4.34800504 7.46964968 -2.4375 4.1875 C-1.98246094 3.39730469 -1.52742188 2.60710937 -1.05859375 1.79296875 C-0.53458984 0.90544922 -0.53458984 0.90544922 0 0 Z " fill="#EBB79C" transform="translate(262,124)"/>
<path d="M0 0 C0.8723412 2.99480917 1.10829766 5.63575911 1.0625 8.75 C1.05347656 9.54921875 1.04445313 10.3484375 1.03515625 11.171875 C1.01775391 12.07679687 1.01775391 12.07679687 1 13 C1.66 13 2.32 13 3 13 C3 14.32 3 15.64 3 17 C2.34 17 1.68 17 1 17 C-1.66125581 12.45368799 -2.48721014 9.26186946 -2 4 C-1 1.5625 -1 1.5625 0 0 Z " fill="#E8BEA5" transform="translate(258,86)"/>
<path d="M0 0 C0.33 0.66 0.66 1.32 1 2 C2.32 2 3.64 2 5 2 C3.55746343 5.36591866 1.66735273 7.51047079 -1 10 C-1.12375 9.360625 -1.2475 8.72125 -1.375 8.0625 C-1.684375 7.0415625 -1.684375 7.0415625 -2 6 C-2.66 5.67 -3.32 5.34 -4 5 C-2.68 3.35 -1.36 1.7 0 0 Z " fill="#B4CBB9" transform="translate(242,63)"/>
<path d="M0 0 C0.66 0 1.32 0 2 0 C2.144375 1.093125 2.28875 2.18625 2.4375 3.3125 C2.88288104 6.93122987 2.88288104 6.93122987 4 10 C3.91478259 11.89952346 3.76270916 13.79663573 3.5625 15.6875 C3.46066406 16.68136719 3.35882813 17.67523438 3.25390625 18.69921875 C3.12822266 19.83810547 3.12822266 19.83810547 3 21 C2.67 21 2.34 21 2 21 C0.65504172 13.90294338 -0.24091535 7.2274605 0 0 Z " fill="#829F8E" transform="translate(192,289)"/>
<path d="M0 0 C-1.23697917 1.46484375 -2.47395833 2.9296875 -3.7109375 4.39453125 C-4.89201099 5.8655046 -5.95358529 7.43037794 -7 9 C-7 8.01 -7 7.02 -7 6 C-7.99 6.33 -8.98 6.66 -10 7 C-8.07091409 1.3611335 -6.01450566 -0.32510841 0 0 Z " fill="#C1D0BF" transform="translate(262,41)"/>
<path d="M0 0 C0.66 0 1.32 0 2 0 C1.67 2.31 1.34 4.62 1 7 C0.01 6.67 -0.98 6.34 -2 6 C-2 6.66 -2 7.32 -2 8 C-2.66 7.67 -3.32 7.34 -4 7 C-3.67 6.34 -3.34 5.68 -3 5 C-5.31 4.67 -7.62 4.34 -10 4 C-10 3.67 -10 3.34 -10 3 C-6.7 3 -3.4 3 0 3 C0 2.01 0 1.02 0 0 Z " fill="#A69A79" transform="translate(262,240)"/>
<path d="M0 0 C0 3 0 3 -2 5.1875 C-6.01053611 7.61053223 -8.37798596 7.31335688 -13 7 C-13.33 6.01 -13.66 5.02 -14 4 C-12.80375 4.0825 -11.6075 4.165 -10.375 4.25 C-5.75065363 4.2829135 -3.55767182 2.84613746 0 0 Z " fill="#E5AE93" transform="translate(292,233)"/>
<path d="M0 0 C1.32 0.99 2.64 1.98 4 3 C1.3401439 6.44216672 -1.90288286 6.99504674 -6 8 C-6.33 7.34 -6.66 6.68 -7 6 C-4.69 4.02 -2.38 2.04 0 0 Z " fill="#C2D0BE" transform="translate(333,119)"/>
<path d="M0 0 C1.65 0 3.3 0 5 0 C5 2.31 5 4.62 5 7 C4.01 7.33 3.02 7.66 2 8 C1.34 8.99 0.68 9.98 0 11 C0 7.37 0 3.74 0 0 Z " fill="#BBCFB8" transform="translate(242,45)"/>
<path d="M0 0 C0.33 0.66 0.66 1.32 1 2 C-4.28 2 -9.56 2 -15 2 C-15 1.34 -15 0.68 -15 0 C-9.66901216 -0.99956022 -5.35008578 -1.01467144 0 0 Z " fill="#6E8B6F" transform="translate(223,436)"/>
<path d="M0 0 C0.33 0 0.66 0 1 0 C1 6.6 1 13.2 1 20 C-1.1519437 16.77208445 -1.20086443 15.71599191 -1 12 C-1.66 11.67 -2.32 11.34 -3 11 C-2.34 10.01 -1.68 9.02 -1 8 C-0.54860541 5.9507906 -0.54860541 5.9507906 -0.375 3.8125 C-0.25125 2.554375 -0.1275 1.29625 0 0 Z " fill="#527662" transform="translate(277,376)"/>
<path d="M0 0 C2.7032212 4.86579816 3.12884346 9.30599244 3.0625 14.8125 C3.05347656 15.78832031 3.04445312 16.76414062 3.03515625 17.76953125 C3.02355469 18.50558594 3.01195312 19.24164063 3 20 C2.34 20 1.68 20 1 20 C0.11978631 13.28837062 -0.11381955 6.76594019 0 0 Z " fill="#6B8E7B" transform="translate(201,349)"/>
<path d="M0 0 C2.25998595 3.59462331 2.20868087 6.56595675 2.125 10.75 C2.10695313 11.92046875 2.08890625 13.0909375 2.0703125 14.296875 C2.03550781 15.63492187 2.03550781 15.63492187 2 17 C1.67 17 1.34 17 1 17 C0.67 13.7 0.34 10.4 0 7 C-0.66 7 -1.32 7 -2 7 C-2.33 6.01 -2.66 5.02 -3 4 C-1.5625 1.8125 -1.5625 1.8125 0 0 Z " fill="#547865" transform="translate(276,316)"/>
<path d="M0 0 C1.32 0.33 2.64 0.66 4 1 C3.67 3.31 3.34 5.62 3 8 C1.35 8 -0.3 8 -2 8 C-1.47731534 5.23723823 -0.89130413 2.6739124 0 0 Z " fill="#7E533D" transform="translate(328,98)"/>
<path d="M0 0 C0.66 0 1.32 0 2 0 C2 3.3 2 6.6 2 10 C1.01 10.495 1.01 10.495 0 11 C0 10.34 0 9.68 0 9 C-0.99 9.33 -1.98 9.66 -3 10 C-2.01 6.7 -1.02 3.4 0 0 Z " fill="#B9C6B3" transform="translate(355,87)"/>
<path d="M0 0 C2.83022097 3.99560608 1.76210446 7.42737323 1 12 C-1 10 -1 10 -1.125 7.375 C-1.08375 6.59125 -1.0425 5.8075 -1 5 C-2.65 5 -4.3 5 -6 5 C-6 4.34 -6 3.68 -6 3 C-4.02 3 -2.04 3 0 3 C0 2.01 0 1.02 0 0 Z " fill="#EECDBA" transform="translate(203,443)"/>
<path d="M0 0 C0.33 0 0.66 0 1 0 C2.23107719 7.72720775 3.2700558 15.1683819 3 23 C2.67 23 2.34 23 2 23 C1.855625 21.865625 1.71125 20.73125 1.5625 19.5625 C1.38828522 16.19222799 1.38828522 16.19222799 0 15 C-0.07313567 12.46950598 -0.09247527 9.96695163 -0.0625 7.4375 C-0.05798828 6.72658203 -0.05347656 6.01566406 -0.04882812 5.28320312 C-0.03700864 3.52209987 -0.01907263 1.76103964 0 0 Z " fill="#94AB99" transform="translate(272,276)"/>
<path d="M0 0 C0.99 0.33 1.98 0.66 3 1 C1.92643323 2.15498897 0.84070212 3.29867867 -0.25 4.4375 C-0.85328125 5.07558594 -1.4565625 5.71367187 -2.078125 6.37109375 C-4.10048016 8.08516306 -5.41270605 8.59358878 -8 9 C-6.92834431 5.78503292 -6.11623226 4.91537488 -3.625 2.75 C-3.01914062 2.20859375 -2.41328125 1.6671875 -1.7890625 1.109375 C-1.19867188 0.74328125 -0.60828125 0.3771875 0 0 Z " fill="#ECBA9E" transform="translate(310,128)"/>
<path d="M0 0 C0.99 0.66 1.98 1.32 3 2 C1.69144447 3.83615081 0.37805538 5.66885789 -0.9375 7.5 C-1.66839844 8.5209375 -2.39929688 9.541875 -3.15234375 10.59375 C-3.76207031 11.3878125 -4.37179687 12.181875 -5 13 C-5.33 13 -5.66 13 -6 13 C-6 11.35 -6 9.7 -6 8 C-5.01 7.67 -4.02 7.34 -3 7 C-3 6.34 -3 5.68 -3 5 C-2.34 5 -1.68 5 -1 5 C-0.67 3.35 -0.34 1.7 0 0 Z " fill="#E9C0A8" transform="translate(319,115)"/>
<path d="M0 0 C0.33 0 0.66 0 1 0 C1.04898438 0.71027344 1.09796875 1.42054688 1.1484375 2.15234375 C1.22320312 3.07144531 1.29796875 3.99054688 1.375 4.9375 C1.44460937 5.85402344 1.51421875 6.77054687 1.5859375 7.71484375 C1.72257813 8.46894531 1.85921875 9.22304688 2 10 C2.66 10.33 3.32 10.66 4 11 C2.02 11.66 0.04 12.32 -2 13 C-2.33 11.02 -2.66 9.04 -3 7 C-2.01 7 -1.02 7 0 7 C0 4.69 0 2.38 0 0 Z " fill="#ECC8B0" transform="translate(251,445)"/>
<path d="M0 0 C5.41390868 0.46671627 9.20517932 1.24297811 14 4 C13.01 5.485 13.01 5.485 12 7 C12 6.34 12 5.68 12 5 C10.700625 4.8453125 10.700625 4.8453125 9.375 4.6875 C5.83316877 3.96601586 3.15687958 2.72876739 0 1 C0 0.67 0 0.34 0 0 Z " fill="#E4B6A0" transform="translate(177,230)"/>
<path d="M0 0 C0.66 0.33 1.32 0.66 2 1 C2 1.66 2 2.32 2 3 C4.97 3.99 7.94 4.98 11 6 C8.01316063 7.49341969 6.04839022 6.40648676 2.875 5.5625 C1.77929688 5.27503906 0.68359375 4.98757812 -0.4453125 4.69140625 C-1.28835937 4.46324219 -2.13140625 4.23507813 -3 4 C-2.67 3.01 -2.34 2.02 -2 1 C-1.34 0.67 -0.68 0.34 0 0 Z " fill="#B89B79" transform="translate(246,226)"/>
<path d="M0 0 C3.62174279 3.62174279 4.87956218 9.03284894 5.1875 14.0625 C5.125625 14.701875 5.06375 15.34125 5 16 C3 15 3 15 2.1484375 12.890625 C1.89320313 12.01921875 1.63796875 11.1478125 1.375 10.25 C0.98441406 8.95835937 0.98441406 8.95835937 0.5859375 7.640625 C0.00060132 5.00270994 -0.10651736 2.69198424 0 0 Z " fill="#517E64" transform="translate(262,209)"/>
<path d="M0 0 C0.33 0.99 0.66 1.98 1 3 C-2.59054233 6.88975419 -6.73898882 9.89732195 -11 13 C-9.43622501 9.67697814 -7.78646849 7.43815993 -5 5 C-4.34 5 -3.68 5 -3 5 C-2.690625 4.360625 -2.38125 3.72125 -2.0625 3.0625 C-1 1 -1 1 0 0 Z " fill="#51856F" transform="translate(227,179)"/>
<path d="M0 0 C0.74443359 0.54140625 0.74443359 0.54140625 1.50390625 1.09375 C6.19866019 4.30079254 9.14946845 5.57358152 15 5 C15.99 5 16.98 5 18 5 C17.67 5.66 17.34 6.32 17 7 C10.01370081 7.50604984 5.79799884 7.0333905 0 3 C0 2.01 0 1.02 0 0 Z " fill="#808E72" transform="translate(259,151)"/>
<path d="M0 0 C0.66 0 1.32 0 2 0 C4.13999677 4.27999354 3.09321611 9.49048355 2 14 C1.67 14 1.34 14 1 14 C0.04738513 9.23692563 -0.08333357 4.8333472 0 0 Z " fill="#83A390" transform="translate(199,335)"/>
<path d="M0 0 C3.37462715 0.54723683 5.08235 1.0549 8 3 C6.02253397 3.73080266 4.01927511 4.39421747 2 5 C1.34 4.67 0.68 4.34 0 4 C-0.33 5.65 -0.66 7.3 -1 9 C-1.33 9 -1.66 9 -2 9 C-2 6.69 -2 4.38 -2 2 C-1.34 2 -0.68 2 0 2 C0 1.34 0 0.68 0 0 Z " fill="#758973" transform="translate(190,235)"/>
<path d="M0 0 C0 3 0 3 -1.0625 4.9375 C-2.20934057 7.46054924 -1.93662238 8.44557533 -1 11 C-0.67 11.66 -0.34 12.32 0 13 C-1.65 12.67 -3.3 12.34 -5 12 C-5.33 11.01 -5.66 10.02 -6 9 C-4.78515625 6.73828125 -4.78515625 6.73828125 -3.0625 4.3125 C-2.49660156 3.50425781 -1.93070313 2.69601563 -1.34765625 1.86328125 C-0.90292969 1.24839844 -0.45820313 0.63351563 0 0 Z " fill="#707B60" transform="translate(205,200)"/>
<path d="M0 0 C4.25171681 3.3618226 7.6381774 6.74828319 11 11 C10.01 11.495 10.01 11.495 9 12 C9 11.34 9 10.68 9 10 C7.6078125 9.690625 7.6078125 9.690625 6.1875 9.375 C3 8 3 8 1.125 5 C0 2 0 2 0 0 Z " fill="#CD9B77" transform="translate(186,180)"/>
<path d="M0 0 C2.64 0 5.28 0 8 0 C8.33 0.99 8.66 1.98 9 3 C10.49985609 4.66710346 10.49985609 4.66710346 12 6 C10.35 5.67 8.7 5.34 7 5 C7 4.34 7 3.68 7 3 C6.030625 2.87625 5.06125 2.7525 4.0625 2.625 C3.051875 2.41875 2.04125 2.2125 1 2 C0.67 1.34 0.34 0.68 0 0 Z " fill="#ECCBBD" transform="translate(286,446)"/>
<path d="M0 0 C3.96 0.33 7.92 0.66 12 1 C9.60236815 3.39763185 8.66726502 3.34280586 5.375 3.625 C4.55773437 3.69976562 3.74046875 3.77453125 2.8984375 3.8515625 C2.27195312 3.90054688 1.64546875 3.94953125 1 4 C0.67 2.68 0.34 1.36 0 0 Z " fill="#6C745B" transform="translate(282,202)"/>
<path d="M0 0 C1.32 0.66 2.64 1.32 4 2 C3.3503125 2.5878125 3.3503125 2.5878125 2.6875 3.1875 C0.74125682 5.27790934 -0.54437028 7.55189548 -2 10 C-2.33 10 -2.66 10 -3 10 C-3 7.69 -3 5.38 -3 3 C-2.01 2.67 -1.02 2.34 0 2 C0 1.34 0 0.68 0 0 Z " fill="#96776A" transform="translate(334,96)"/>
<path d="M0 0 C0.6875 1.75 0.6875 1.75 1 4 C-0.09375 6.15625 -0.09375 6.15625 -2 8 C-4.91796875 8.171875 -4.91796875 8.171875 -8.1875 7.75 C-9.81751953 7.55664062 -9.81751953 7.55664062 -11.48046875 7.359375 C-12.31191406 7.24078125 -13.14335937 7.1221875 -14 7 C-14 6.67 -14 6.34 -14 6 C-13.32453125 5.95101563 -12.6490625 5.90203125 -11.953125 5.8515625 C-11.06109375 5.77679688 -10.1690625 5.70203125 -9.25 5.625 C-8.36828125 5.55539062 -7.4865625 5.48578125 -6.578125 5.4140625 C-4.00933618 5.00149945 -2.24158985 4.28839043 0 3 C0 2.01 0 1.02 0 0 Z " fill="#ADA992" transform="translate(227,432)"/>
<path d="M0 0 C0.33 0 0.66 0 1 0 C1.08082094 1.95766281 1.13910778 3.91626728 1.1875 5.875 C1.23970703 7.51082031 1.23970703 7.51082031 1.29296875 9.1796875 C1.19628906 10.11039062 1.09960938 11.04109375 1 12 C0.01 12.66 -0.98 13.32 -2 14 C-2.21192221 8.80790596 -1.5912689 4.873261 0 0 Z " fill="#547463" transform="translate(275,409)"/>
<path d="M0 0 C1.48828125 1.08203125 1.48828125 1.08203125 3 3 C3.29296875 6.13671875 3.29296875 6.13671875 3.1875 9.6875 C3.16042969 10.86699219 3.13335937 12.04648437 3.10546875 13.26171875 C3.07066406 14.16535156 3.03585938 15.06898438 3 16 C0.96780512 12.59648662 0.63108961 9.6767073 0.375 5.75 C0.30023438 4.67234375 0.22546875 3.5946875 0.1484375 2.484375 C0.09945312 1.66453125 0.05046875 0.8446875 0 0 Z " fill="#92AD9D" transform="translate(196,318)"/>
<path d="M0 0 C2.97 0.33 5.94 0.66 9 1 C8.67 1.99 8.34 2.98 8 4 C5.03 3.67 2.06 3.34 -1 3 C-0.67 2.01 -0.34 1.02 0 0 Z " fill="#E2B193" transform="translate(250,244)"/>
<path d="M0 0 C0.66 0.33 1.32 0.66 2 1 C1.34 2.65 0.68 4.3 0 6 C-1.65 6 -3.3 6 -5 6 C-3.63016497 2.83884224 -3.0109362 2.0072908 0 0 Z " fill="#9A8176" transform="translate(291,42)"/>
<path d="M0 0 C-0.33 1.32 -0.66 2.64 -1 4 C-3.31 4.33 -5.62 4.66 -8 5 C-7.25 3.0625 -7.25 3.0625 -6 1 C-3.86997684 0.20124132 -2.26695035 0 0 0 Z " fill="#B6C8B5" transform="translate(265,28)"/>
<path d="M0 0 C3 0 3 0 5 1 C4.34 2.32 3.68 3.64 3 5 C2.01 4.67 1.02 4.34 0 4 C0 6.64 0 9.28 0 12 C-0.33 12 -0.66 12 -1 12 C-1.02712066 10.56260487 -1.04645067 9.12506137 -1.0625 7.6875 C-1.07410156 6.88699219 -1.08570313 6.08648437 -1.09765625 5.26171875 C-1 3 -1 3 0 0 Z " fill="#7D9F8F" transform="translate(187,244)"/>
<path d="M0 0 C0.99 0.33 1.98 0.66 3 1 C1.95125002 3.62187494 1.35068687 4.79371361 -1.125 6.25 C-1.74375 6.4975 -2.3625 6.745 -3 7 C-3.1875 4.625 -3.1875 4.625 -3 2 C-2.01 1.34 -1.02 0.68 0 0 Z " fill="#A4C3AA" transform="translate(250,34)"/>
<path d="M0 0 C3.96 0.33 7.92 0.66 12 1 C12.33 1.99 12.66 2.98 13 4 C8.51474352 3.343621 4.33085971 2.29925791 0 1 C0 0.67 0 0.34 0 0 Z " fill="#D0AE8C" transform="translate(193,235)"/>
<path d="M0 0 C1.485 0.99 1.485 0.99 3 2 C3.1875 4.625 3.1875 4.625 3 7 C2.01 7.33 1.02 7.66 0 8 C-0.79953138 4.71303767 -1.09658936 3.28976808 0 0 Z " fill="#749786" transform="translate(196,310)"/>
<path d="M0 0 C0.66 0.33 1.32 0.66 2 1 C1.34 2.98 0.68 4.96 0 7 C-0.598125 6.835 -1.19625 6.67 -1.8125 6.5 C-4.11344336 5.8885876 -4.11344336 5.8885876 -7 6 C-4.69 4.02 -2.38 2.04 0 0 Z " fill="#89AE9E" transform="translate(213,141)"/>
<path d="M0 0 C3 3.75 3 3.75 3 6 C2.01 6 1.02 6 0 6 C-0.33 7.32 -0.66 8.64 -1 10 C-1.66 9.67 -2.32 9.34 -3 9 C-2.01 6.03 -1.02 3.06 0 0 Z " fill="#DCB79F" transform="translate(183,175)"/>
<path d="M0 0 C1.32 0.66 2.64 1.32 4 2 C3.01 2.495 3.01 2.495 2 3 C2.66 4.98 3.32 6.96 4 9 C1.37812506 7.95125002 0.20628639 7.35068687 -1.25 4.875 C-1.4975 4.25625 -1.745 3.6375 -2 3 C-1.01 3 -0.02 3 1 3 C0.67 2.01 0.34 1.02 0 0 Z " fill="#CFA682" transform="translate(250,175)"/>
<path d="M0 0 C-4.625 4 -4.625 4 -8 4 C-8 3.01 -8 2.02 -8 1 C-4.93251126 -0.86240388 -3.40254489 -1.2151946 0 0 Z " fill="#B9C8B9" transform="translate(344,129)"/>
<path d="M0 0 C0.33 0 0.66 0 1 0 C1 2.31 1 4.62 1 7 C-0.65 7 -2.3 7 -4 7 C-3.67 5.02 -3.34 3.04 -3 1 C-2.34 1.66 -1.68 2.32 -1 3 C-0.67 2.01 -0.34 1.02 0 0 Z " fill="#9EBAA4" transform="translate(247,58)"/>
<path d="M0 0 C3.3125 0.25 3.3125 0.25 7 1 C7.99 2.32 8.98 3.64 10 5 C6.7 4.01 3.4 3.02 0 2 C0 1.34 0 0.68 0 0 Z " fill="#878468" transform="translate(219,242)"/>
<path d="M0 0 C-0.33 1.32 -0.66 2.64 -1 4 C-1.66 4 -2.32 4 -3 4 C-3 3.34 -3 2.68 -3 2 C-5.97 2 -8.94 2 -12 2 C-12 1.67 -12 1.34 -12 1 C-7.915021 0.45533613 -4.1274515 0 0 0 Z " fill="#CAAB8F" transform="translate(249,222)"/>
<path d="M0 0 C3.3114019 0.57093136 4.75054423 1.54604826 7 4 C7.66 4.33 8.32 4.66 9 5 C9 5.66 9 6.32 9 7 C4.75272765 6.52808085 2.76506398 4.07229331 0 1 C0 0.67 0 0.34 0 0 Z " fill="#527F6C" transform="translate(247,196)"/>
<path d="M0 0 C4.19162145 0.95264124 5.7207791 1.63260408 8.375 5.125 C8.91125 6.07375 9.4475 7.0225 10 8 C4.98886765 6.5682479 3.05530451 4.01554307 0 0 Z " fill="#81896E" transform="translate(192,186)"/>
<path d="M0 0 C1.65 0 3.3 0 5 0 C6.32 2.31 7.64 4.62 9 7 C5.18315774 5.44499019 2.80804268 2.96404505 0 0 Z " fill="#998D6E" transform="translate(248,172)"/>
<path d="M0 0 C0.99 0 1.98 0 3 0 C3 0.66 3 1.32 3 2 C2.34 2 1.68 2 1 2 C0.7525 2.639375 0.505 3.27875 0.25 3.9375 C-1 6 -1 6 -3.078125 6.62890625 C-3.71234375 6.75136719 -4.3465625 6.87382812 -5 7 C-4.24172908 5.82512964 -3.46792245 4.66027408 -2.6875 3.5 C-2.25824219 2.8503125 -1.82898438 2.200625 -1.38671875 1.53125 C-0.70029297 0.77328125 -0.70029297 0.77328125 0 0 Z " fill="#758D72" transform="translate(282,148)"/>
<path d="M0 0 C0.33 0.99 0.66 1.98 1 3 C0.01 3 -0.98 3 -2 3 C-2.33 3.66 -2.66 4.32 -3 5 C-4.32 4.34 -5.64 3.68 -7 3 C-3.375 0 -3.375 0 0 0 Z " fill="#769887" transform="translate(222,138)"/>
<path d="M0 0 C1.65 0.33 3.3 0.66 5 1 C4.67 2.32 4.34 3.64 4 5 C2.35 5.33 0.7 5.66 -1 6 C-0.67 4.02 -0.34 2.04 0 0 Z " fill="#B1CEB7" transform="translate(344,112)"/>
<path d="M0 0 C-0.38597015 2.79828356 -0.80136573 3.8205884 -2.9375 5.75 C-5 7 -5 7 -7 7 C-7 6.34 -7 5.68 -7 5 C-6.01 5 -5.02 5 -4 5 C-4 3.68 -4 2.36 -4 1 C-2 0 -2 0 0 0 Z " fill="#9C8376" transform="translate(347,89)"/>
<path d="M0 0 C0.99 0.495 0.99 0.495 2 1 C2.59355614 3.64860427 2.74209269 6.29197322 3 9 C2.01 8.67 1.02 8.34 0 8 C0 5.36 0 2.72 0 0 Z " fill="#AFBFAB" transform="translate(245,78)"/>
<path d="M0 0 C2.64 0.66 5.28 1.32 8 2 C8 2.99 8 3.98 8 5 C6.68 5 5.36 5 4 5 C4 4.01 4 3.02 4 2 C2.68 2 1.36 2 0 2 C0 1.34 0 0.68 0 0 Z " fill="#D6B18F" transform="translate(254,238)"/>
<path d="M0 0 C1.98 0 3.96 0 6 0 C6 1.65 6 3.3 6 5 C2.83884224 3.63016497 2.0072908 3.0109362 0 0 Z " fill="#6A8A71" transform="translate(202,194)"/>
<path d="M0 0 C1.98 0.99 1.98 0.99 4 2 C4 2.66 4 3.32 4 4 C4.99 4 5.98 4 7 4 C6.67 5.32 6.34 6.64 6 8 C1.125 3.375 1.125 3.375 0 0 Z " fill="#E89770" transform="translate(191,188)"/>
<path d="M0 0 C-0.33 1.98 -0.66 3.96 -1 6 C-1.99 6 -2.98 6 -4 6 C-4 4.35 -4 2.7 -4 1 C-2 0 -2 0 0 0 Z " fill="#AFC3AC" transform="translate(255,47)"/>
<path d="M0 0 C0.66 0.66 1.32 1.32 2 2 C1.9765625 4.1640625 1.9765625 4.1640625 1.625 6.625 C1.51414063 7.44226563 1.40328125 8.25953125 1.2890625 9.1015625 C1.19367188 9.72804688 1.09828125 10.35453125 1 11 C0.67 11 0.34 11 0 11 C-1.28571429 3.57142857 -1.28571429 3.57142857 0 0 Z " fill="#6A8B79" transform="translate(226,424)"/>
<path d="M0 0 C3.63 0 7.26 0 11 0 C11 0.99 11 1.98 11 3 C7.37 2.34 3.74 1.68 0 1 C0 0.67 0 0.34 0 0 Z " fill="#AF9271" transform="translate(251,237)"/>
<path d="M0 0 C2.5 1.3125 2.5 1.3125 5 3 C5 3.99 5 4.98 5 6 C3.68 5.67 2.36 5.34 1 5 C0.67 3.35 0.34 1.7 0 0 Z " fill="#617E61" transform="translate(243,189)"/>
<path d="M0 0 C0.33 0.99 0.66 1.98 1 3 C-0.4375 5.6875 -0.4375 5.6875 -2 8 C-2.66 6.68 -3.32 5.36 -4 4 C-2.68 2.68 -1.36 1.36 0 0 Z " fill="#B8CFBC" transform="translate(367,95)"/>
<path d="M0 0 C1.485 0.99 1.485 0.99 3 2 C3.6875 5.625 3.6875 5.625 4 9 C3.01 8.67 2.02 8.34 1 8 C0.67 5.36 0.34 2.72 0 0 Z " fill="#9D8274" transform="translate(341,62)"/>
<path d="M0 0 C3.96 0.33 7.92 0.66 12 1 C12 1.33 12 1.66 12 2 C10.56589632 2.24954005 9.12739928 2.47392642 7.6875 2.6875 C6.88699219 2.81511719 6.08648437 2.94273438 5.26171875 3.07421875 C3 3 3 3 0 0 Z " fill="#A68273" transform="translate(329,60)"/>
<path d="M0 0 C3.375 0.3125 3.375 0.3125 7 1 C9 4 9 4 8.625 6.1875 C8.41875 6.785625 8.2125 7.38375 8 8 C7.608125 7.21625 7.21625 6.4325 6.8125 5.625 C4.75725331 2.64843582 3.40320742 2.01176437 0 1 C0 0.67 0 0.34 0 0 Z " fill="#EBB495" transform="translate(240,450)"/>
<path d="M0 0 C4.455 0.99 4.455 0.99 9 2 C9 2.99 9 3.98 9 5 C7.68 4.67 6.36 4.34 5 4 C5.33 3.34 5.66 2.68 6 2 C4.35 2 2.7 2 1 2 C0.67 1.34 0.34 0.68 0 0 Z " fill="#CCAF91" transform="translate(253,232)"/>
<path d="M0 0 C1.32 0.66 2.64 1.32 4 2 C3.34 3.32 2.68 4.64 2 6 C1.01 6 0.02 6 -1 6 C-0.67 4.02 -0.34 2.04 0 0 Z " fill="#9FBCA6" transform="translate(344,116)"/>
<path d="M0 0 C0.33 0.99 0.66 1.98 1 3 C-0.9375 6.1875 -0.9375 6.1875 -3 9 C-3.66 8.67 -4.32 8.34 -5 8 C-3.35 5.36 -1.7 2.72 0 0 Z " fill="#E1A583" transform="translate(280,84)"/>
<path d="M0 0 C0.99 0 1.98 0 3 0 C3 1.98 3 3.96 3 6 C2.34 5.01 1.68 4.02 1 3 C0.67 4.65 0.34 6.3 0 8 C-0.33 8 -0.66 8 -1 8 C-1.04241723 5.66705225 -1.04092937 3.33297433 -1 1 C-0.67 0.67 -0.34 0.34 0 0 Z " fill="#C5D5C5" transform="translate(245,76)"/>
<path d="M0 0 C0.33 0 0.66 0 1 0 C1 2.64 1 5.28 1 8 C-0.32 7.67 -1.64 7.34 -3 7 C-2.690625 6.401875 -2.38125 5.80375 -2.0625 5.1875 C-0.89790296 2.91043228 -0.89790296 2.91043228 0 0 Z " fill="#A6BEA8" transform="translate(255,61)"/>
<path d="M0 0 C3.465 1.485 3.465 1.485 7 3 C6.67 3.99 6.34 4.98 6 6 C4.35 5.67 2.7 5.34 1 5 C0.67 3.35 0.34 1.7 0 0 Z " fill="#A48573" transform="translate(322,56)"/>
<path d="M0 0 C0.33 0 0.66 0 1 0 C1.33 3.63 1.66 7.26 2 11 C-1 7 -1 7 -0.6875 3.25 C-0.3471875 1.64125 -0.3471875 1.64125 0 0 Z " fill="#7C9F8C" transform="translate(229,398)"/>
<path d="M0 0 C0.33 0.99 0.66 1.98 1 3 C1.66 3 2.32 3 3 3 C2.67 4.32 2.34 5.64 2 7 C0.68 7.33 -0.64 7.66 -2 8 C-1.34 5.36 -0.68 2.72 0 0 Z " fill="#5B7D6F" transform="translate(293,160)"/>
<path d="M0 0 C1.98 0.66 3.96 1.32 6 2 C5.34 3.32 4.68 4.64 4 6 C3.67 5.01 3.34 4.02 3 3 C2.01 3 1.02 3 0 3 C0 2.01 0 1.02 0 0 Z " fill="#947162" transform="translate(325,104)"/>
<path d="M0 0 C2.31 0.33 4.62 0.66 7 1 C7.33 1.99 7.66 2.98 8 4 C7.01 4.495 7.01 4.495 6 5 C3.98079663 3.69593116 1.98075027 2.36176581 0 1 C0 0.67 0 0.34 0 0 Z " fill="#9C6649" transform="translate(304,83)"/>
</svg>
