<?xml version="1.0" encoding="UTF-8"?>
<svg version="1.1" xmlns="http://www.w3.org/2000/svg" width="500" height="500">
<path d="M0 0 C1.75376953 0.40025391 1.75376953 0.40025391 3.54296875 0.80859375 C13.05981648 3.22813131 21.3922378 7.39428828 30 12 C30 12.66 30 13.32 30 14 C31.03447266 14.33064453 31.03447266 14.33064453 32.08984375 14.66796875 C35.78855627 16.3609365 38.50571509 18.66375542 41.5625 21.3125 C42.12646484 21.78623047 42.69042969 22.25996094 43.27148438 22.74804688 C46.59450186 25.58912966 49.33197385 28.51463542 52 32 C52.48726563 32.46277344 52.97453125 32.92554688 53.4765625 33.40234375 C55.8193914 35.85931047 57.55877504 38.70968301 59.375 41.5625 C59.77420654 42.18946777 60.17341309 42.81643555 60.5847168 43.46240234 C74.7144643 65.92861466 79.91534291 92.86564903 75 119 C73.95470172 123.46757621 72.62011198 127.70980799 71 132 C70.64035156 132.9796875 70.28070313 133.959375 69.91015625 134.96875 C66.48811011 143.72550107 61.77580524 151.70581555 56.95458984 159.74267578 C47.26072527 175.92042527 40.41063095 192.32587901 40.625 211.5 C40.60759766 213.05654297 40.60759766 213.05654297 40.58984375 214.64453125 C40.65254201 231.42676567 47.03035447 243.59308106 57.14453125 256.46875 C59 259 59 259 60 262 C60.66 262 61.32 262 62 262 C63.7265625 263.8984375 63.7265625 263.8984375 65.625 266.375 C66.25664062 267.18710937 66.88828125 267.99921875 67.5390625 268.8359375 C69 271 69 271 69 273 C69.66 273 70.32 273 71 273 C76.41786186 280.37626647 80.40594414 288.22124599 83 297 C83.28617187 297.89912109 83.28617187 297.89912109 83.578125 298.81640625 C86.25740666 312.68416964 82.97242884 326.45789943 77 339 C76.34 339 75.68 339 75 339 C74.90976562 339.56074219 74.81953125 340.12148438 74.7265625 340.69921875 C70.23073745 354.93599808 52.22482119 365.59672921 39.9621582 372.14672852 C21.97694123 381.31155744 1.51746249 383.50141172 -18.375 384.4375 C-42.51679231 385.70314299 -66.47896635 391.66633693 -89.6875 398.1875 C-104.65043563 402.3872345 -119.43068454 405.52820256 -135 406 C-135.99 402.04 -136.98 398.08 -138 394 C-138.309375 395.959375 -138.61875 397.91875 -138.9375 399.9375 C-139.875 405.875 -139.875 405.875 -141 407 C-184.4460853 410.09926679 -225.67595939 396.86597014 -261 372 C-262.19689453 371.17628906 -262.19689453 371.17628906 -263.41796875 370.3359375 C-264.20107422 369.67464844 -264.20107422 369.67464844 -265 369 C-265 368.34 -265 367.68 -265 367 C-265.57878906 366.73832031 -266.15757812 366.47664063 -266.75390625 366.20703125 C-272.52090522 363.10789615 -277.59657274 357.81624857 -282 353 C-282 352.34 -282 351.68 -282 351 C-282.66 351 -283.32 351 -284 351 C-303.53002445 328.87677728 -311.63074086 302.11992215 -310.23632812 272.99169922 C-309.71234252 266.35851784 -308.17550688 260.28563406 -306 254 C-305.69964844 253.09894531 -305.39929688 252.19789063 -305.08984375 251.26953125 C-301.04752894 240.26253551 -294.65101971 230.22569685 -288.37646484 220.38037109 C-286.42455525 217.31528107 -284.52369701 214.3083587 -283 211 C-285.64 211.33 -288.28 211.66 -291 212 C-292.81975482 206.87160006 -290.8599099 202.82315618 -289 198 C-291.31 198.33 -293.62 198.66 -296 199 C-296.33 198.01 -296.66 197.02 -297 196 C-297.66 196 -298.32 196 -299 196 C-299 195.34 -299 194.68 -299 194 C-299.66 194 -300.32 194 -301 194 C-306.24480809 185.03307004 -306.89281157 176.57282273 -304.7265625 166.44921875 C-303.37515611 161.89367139 -301.26867934 159.03497525 -297.625 156.0625 C-294.22575685 154.68661587 -292.4776481 154.89011231 -289 156 C-283.88798597 159.97601091 -282.86930294 164.83315008 -282 171 C-281.9106582 173.16522484 -281.86984033 175.33293887 -281.875 177.5 C-281.87113281 179.12421875 -281.87113281 179.12421875 -281.8671875 180.78125 C-282 184 -282 184 -282.5703125 187.09375 C-283.16273082 189.94875044 -283.16273082 189.94875044 -282.47265625 192.54296875 C-281.88784653 195.58301265 -282.46517004 197.39551013 -283.4375 200.3125 C-283.72496094 201.19550781 -284.01242187 202.07851562 -284.30859375 202.98828125 C-284.53675781 203.65214844 -284.76492188 204.31601563 -285 205 C-282.36 204.67 -279.72 204.34 -277 204 C-276.7525 203.34 -276.505 202.68 -276.25 202 C-275.25292807 199.60702737 -274.16841013 197.45685068 -272.9375 195.1875 C-270.84296414 191.09965121 -270.32577904 187.5609065 -270 183 C-273.465 183.99 -273.465 183.99 -277 185 C-277.495 182.525 -277.495 182.525 -278 180 C-277.43410156 179.72285156 -276.86820313 179.44570312 -276.28515625 179.16015625 C-275.55167969 178.79792969 -274.81820312 178.43570313 -274.0625 178.0625 C-273.33160156 177.70285156 -272.60070312 177.34320313 -271.84765625 176.97265625 C-270.03750973 176.13628173 -270.03750973 176.13628173 -269 175 C-268.3579082 160.87398035 -276.09527141 148.47720491 -283.02294922 136.78515625 C-290.99425515 123.328604 -295.59084201 110.97886922 -295.5 95.1875 C-295.49500488 94.04547119 -295.49000977 92.90344238 -295.48486328 91.72680664 C-295.23473107 79.60919469 -292.36048888 68.2676387 -284 59 C-283.34 59 -282.68 59 -282 59 C-282 58.34 -282 57.68 -282 57 C-281.34 57 -280.68 57 -280 57 C-280 56.34 -280 55.68 -280 55 C-279.34 55 -278.68 55 -278 55 C-278 54.34 -278 53.68 -278 53 C-273.19384488 48.87436242 -267.75701633 45.77949145 -262.0625 43.0625 C-256.7797996 40.53982407 -252.33666947 37.47592991 -247.765625 33.83203125 C-241.18766155 29.47459501 -235.28423644 28.56528076 -227.5 28.8125 C-226.67757812 28.82603516 -225.85515625 28.83957031 -225.0078125 28.85351562 C-223.00491779 28.88844984 -221.00236644 28.94223943 -219 29 C-219.33984375 30.890625 -219.33984375 30.890625 -220 33 C-222.5625 34.75 -222.5625 34.75 -225 36 C-207.30758375 38.33656833 -189.88386598 40.4064515 -172 40 C-170.9275 39.99484375 -169.855 39.9896875 -168.75 39.984375 C-151.98792882 39.43091039 -135.96059239 33.18203877 -121 26 C-120.20126465 25.6179541 -119.4025293 25.2359082 -118.57958984 24.84228516 C-116.84466776 24.01193739 -115.10997292 23.18111467 -113.37548828 22.34985352 C-90.39262527 11.34271122 -67.37110038 1.81741094 -42 -2 C-40.88496094 -2.18304688 -39.76992188 -2.36609375 -38.62109375 -2.5546875 C-25.52876338 -4.16474755 -12.77077589 -3.06339484 0 0 Z M-70.9375 33.0625 C-72.24041631 35.07012142 -72.24041631 35.07012142 -72 38 C-72.54785156 37.83886719 -73.09570312 37.67773438 -73.66015625 37.51171875 C-76.30600385 36.93307762 -78.7297612 36.83127766 -81.4375 36.8125 C-82.36433594 36.79832031 -83.29117188 36.78414062 -84.24609375 36.76953125 C-87.17833373 37.01492438 -89.33861389 37.77798423 -92 39 C-92 38.34 -92 37.68 -92 37 C-92.66 37 -93.32 37 -94 37 C-94.2475 36.38125 -94.495 35.7625 -94.75 35.125 C-96.26031671 32.5574616 -97.2571751 32.0747594 -100 31 C-103.12513818 30.78542185 -105.98831213 31.14189041 -109 32 C-111.65690245 34.3912122 -112.70482038 36.15662965 -113.875 39.5 C-114.04110282 42.82205635 -113.83799669 44.17231279 -112 47 C-109.12439808 48.93153638 -106.11365144 50.48964669 -103 52 C-102.34 52.33 -101.68 52.66 -101 53 C-99.12620395 53.07033769 -97.24998898 53.0843022 -95.375 53.0625 C-94.37210938 53.05347656 -93.36921875 53.04445313 -92.3359375 53.03515625 C-91.17964844 53.01775391 -91.17964844 53.01775391 -90 53 C-90 52.34 -90 51.68 -90 51 C-89.34 51 -88.68 51 -88 51 C-88 50.34 -88 49.68 -88 49 C-69.78994166 41.50748941 -52.89740265 44.3069525 -34 48 C-34.57452746 44.06924356 -34.57452746 44.06924356 -37 41 C-37.78375 40.95875 -38.5675 40.9175 -39.375 40.875 C-42 40 -42 40 -43.0390625 38.30078125 C-43.6882597 36.8730752 -44.33001308 35.44196437 -44.96484375 34.0078125 C-46.97550684 30.10788485 -49.95527869 28.34824044 -54 27 C-61.24025493 26.39664542 -65.77511645 27.56705945 -70.9375 33.0625 Z M-29 43 C-28.67 44.65 -28.34 46.3 -28 48 C-26.68 47.67 -25.36 47.34 -24 47 C-24.66 45.68 -25.32 44.36 -26 43 C-26.99 43 -27.98 43 -29 43 Z M-119 56 C-119.66 57.32 -120.32 58.64 -121 60 C-118.525 60.495 -118.525 60.495 -116 61 C-115.67 60.34 -115.34 59.68 -115 59 C-115.66 58.01 -116.32 57.02 -117 56 C-117.66 56 -118.32 56 -119 56 Z M-130 69 C-131.78062689 71.42812757 -131.99380936 72.72761185 -132.0625 75.75 C-129.25789132 84.32880303 -122.10814876 88.51511839 -114.57421875 92.75 C-112.17709208 94.1456031 -112.17709208 94.1456031 -110 94 C-110.47859241 92.39566191 -110.95789558 90.79153584 -111.4375 89.1875 C-111.70433594 88.29417969 -111.97117188 87.40085937 -112.24609375 86.48046875 C-112.80387873 84.64526945 -113.39344575 82.81966274 -114 81 C-111.69 80.34 -109.38 79.68 -107 79 C-106.05392193 76.25038489 -106.05392193 76.25038489 -106 73 C-108.12448478 70.20864421 -108.12448478 70.20864421 -111 68 C-111.92425781 67.19949219 -111.92425781 67.19949219 -112.8671875 66.3828125 C-118.46936343 62.7506325 -125.69956944 64.16201562 -130 69 Z M3 90 C1.82387805 91.78671071 1.82387805 91.78671071 2 94 C5.31078945 100.47763152 11.02267048 105.01511365 17 109 C19.15274948 108.69159401 19.15274948 108.69159401 21 108 C21.78282648 106.20800528 21.78282648 106.20800528 22 104 C21.53078125 103.39800781 21.0615625 102.79601562 20.578125 102.17578125 C18.32494438 99.06929213 18.21151187 96.07649875 17.72265625 92.33984375 C16.80249645 89.36051552 15.67246784 88.53063996 13 87 C8.63426273 86.45428284 6.1021545 86.78295089 3 90 Z M-5 119 C-5.12428864 121.79219782 -5.12428864 121.79219782 -4 125 C-0.15094327 128.67986742 3.93588115 131.84421745 9.3125 132.25 C13.27746452 131.98118885 14.93630287 131.46797825 18 129 C20.88779449 125.31557255 21.4219243 122.64116728 21 118 C18.61292936 115.61292936 12.905559 116.42440901 9.6875 116.25 C8.72392578 116.18167969 7.76035156 116.11335938 6.76757812 116.04296875 C5.83751953 115.99269531 4.90746094 115.94242187 3.94921875 115.890625 C3.09674561 115.83938477 2.24427246 115.78814453 1.3659668 115.73535156 C-1.52950187 116.05922815 -2.84524265 117.0969681 -5 119 Z M-18 136 C-18.7115625 137.546875 -18.7115625 137.546875 -19.4375 139.125 C-19.953125 140.07375 -20.46875 141.0225 -21 142 C-24.0625 142.75 -24.0625 142.75 -27 143 C-27.66 143.66 -28.32 144.32 -29 145 C-28.67958603 147.60280568 -28.67958603 147.60280568 -28 150 C-20.34552555 152.06966476 -13.1552828 152.30138862 -5.25 152.25 C-4.04472656 152.25773437 -2.83945312 152.26546875 -1.59765625 152.2734375 C-0.43621094 152.27085937 0.72523438 152.26828125 1.921875 152.265625 C3.49340332 152.26224121 3.49340332 152.26224121 5.09667969 152.25878906 C8.12222686 151.98910524 10.2976409 151.37241497 13 150 C14.32284898 147.07083439 14.04059132 146.12177395 13 143 C12.33613281 142.92523438 11.67226563 142.85046875 10.98828125 142.7734375 C2.88246733 141.56644039 2.88246733 141.56644039 0.125 138 C-0.57625 137.01 -1.2775 136.02 -2 135 C-7.02206584 131.31715172 -13.36924625 132.14103854 -18 136 Z " fill="#E1F2ED" transform="translate(362,51)"/>
<path d="M0 0 C0.66 0 1.32 0 2 0 C2 1.65 2 3.3 2 5 C2.66 4.67 3.32 4.34 4 4 C11.19080375 3.26155046 17.07695051 3.67021434 23 8 C27.27539213 11.66693974 30.82646627 15.6491669 34.0625 20.25 C37.6336627 25.17607538 41.40910313 27.43471341 47.4375 28.75 C48.283125 28.8325 49.12875 28.915 50 29 C49.5206753 33.31392226 48.2542015 35.16569547 45 38 C45.639375 38.61875 46.27875 39.2375 46.9375 39.875 C49.36754434 42.37868204 49.91491449 43.36185869 50.375 46.8125 C49.87030211 51.10243208 48.28763251 52.29683549 45 55 C40.55172414 58 40.55172414 58 38 58 C37.814375 58.86625 37.62875 59.7325 37.4375 60.625 C34.04339251 68.59377411 26.73682414 71.27529177 19.0859375 74.41015625 C15.69495127 76.15715801 13.60964925 78.24965661 11 81 C8.6875 81.8125 8.6875 81.8125 7 82 C7 82.66 7 83.32 7 84 C6.51402344 84.43441406 6.02804687 84.86882812 5.52734375 85.31640625 C3.44929491 87.6070432 3.49632828 88.86272069 3.5625 91.9375 C4.52850323 101.34453141 10.55416564 108.99234874 15.56103516 116.75244141 C21 125.24770954 21 125.24770954 21 129 C21.66 129 22.32 129 23 129 C24.73078929 132.29081585 26.45932297 135.58281167 28.1875 138.875 C28.91163086 140.25171875 28.91163086 140.25171875 29.65039062 141.65625 C45.81727663 172.47098574 45.81727663 172.47098574 41.9375 185.25 C40.08949375 189.60917265 36.91097596 192.43119988 33 195 C27.30973927 196.89675358 21.68899558 196.53168161 16.14453125 194.24609375 C11.52481246 191.56177627 7.7995268 187.71421791 4 184 C3.05125 183.0925 2.1025 182.185 1.125 181.25 C-1 179 -1 179 -2.9375 176.1875 C-3.618125 175.465625 -4.29875 174.74375 -5 174 C-5.94359375 174.04511719 -6.8871875 174.09023438 -7.859375 174.13671875 C-11 174 -11 174 -13.30078125 172.1015625 C-13.96464844 171.28429687 -14.62851562 170.46703125 -15.3125 169.625 C-16.32763672 168.40683594 -16.32763672 168.40683594 -17.36328125 167.1640625 C-19 165 -19 165 -20 163 C-20.99 162.67 -21.98 162.34 -23 162 C-23.12375 163.19625 -23.2475 164.3925 -23.375 165.625 C-23.75517861 169.30005991 -24.8135532 172.50633008 -26 176 C-26.55053024 178.0756834 -27.07079278 180.15960072 -27.5625 182.25 C-27.81128906 183.28640625 -28.06007813 184.3228125 -28.31640625 185.390625 C-30.05194894 194.5542904 -30.15815811 203.69099082 -30.13037109 212.98681641 C-30.12499246 215.12800111 -30.13035639 217.26897773 -30.13671875 219.41015625 C-30.15731382 229.2493743 -30.15731382 229.2493743 -29 239 C-28.67 239.33 -28.34 239.66 -28 240 C-27.64418605 245.3372093 -27.64418605 245.3372093 -28.99609375 247.85546875 C-32.18891425 254.67592967 -29.8749608 264.76634289 -29.08203125 272.09765625 C-27.94594482 283.02870685 -27.16871797 293.97309427 -26.4375 304.9375 C-26.24843203 307.72983243 -26.05846057 310.52210222 -25.86831665 313.31436157 C-25.74684863 315.09833409 -25.6257246 316.88233007 -25.50497437 318.66635132 C-25.04411096 325.44760395 -24.5418678 332.2246864 -24 339 C-42.79144447 344.37976523 -61.3721849 349.40521772 -81 350 C-81.99 346.04 -82.98 342.08 -84 338 C-84.309375 339.959375 -84.61875 341.91875 -84.9375 343.9375 C-85.875 349.875 -85.875 349.875 -87 351 C-106.1476055 352.3659122 -127.7561533 351.70017379 -146 345 C-147.96968079 343.03031921 -147.29883915 339.22972497 -147.39453125 336.52734375 C-147.4633905 334.97196949 -147.5330795 333.41663178 -147.60351562 331.86132812 C-147.7102894 329.40846338 -147.81185049 326.95585369 -147.89868164 324.50219727 C-147.98491301 322.1345578 -148.09428098 319.76885024 -148.20703125 317.40234375 C-148.22699661 316.68118881 -148.24696198 315.96003387 -148.26753235 315.21702576 C-148.55715177 309.6890933 -150.33461186 305.79174961 -153 301 C-155.17596688 295.85867764 -155.27210007 291.30259919 -155.1875 285.8125 C-155.18685547 285.00619141 -155.18621094 284.19988281 -155.18554688 283.36914062 C-155.15971952 279.91688412 -155.10279686 277.30839059 -154 274 C-153.16814833 265.99513231 -154.30514209 258.36195282 -155.6875 250.5 C-166.81626208 187.06554259 -166.81626208 187.06554259 -160 167 C-159.64808594 165.85917969 -159.29617187 164.71835937 -158.93359375 163.54296875 C-156.44934717 155.71308267 -153.52384944 148.15794771 -150.23535156 140.6340332 C-148.73281384 137.12991846 -148 134.87607292 -148 131 C-148.66 130.67 -149.32 130.34 -150 130 C-148.39539891 124.31433254 -145.67552685 119.43763004 -142.8125 114.3125 C-142.31709717 113.42127441 -141.82169434 112.53004883 -141.3112793 111.61181641 C-131.56899012 94.20296933 -122.28505389 79.7353251 -103.35546875 71.90625 C-98.98536564 70.72596604 -94.94293957 70.70230537 -90.4375 70.75 C-89.55288086 70.75386719 -88.66826172 70.75773437 -87.75683594 70.76171875 C-81.62095342 70.84213075 -75.74743156 71.47420215 -69.69921875 72.53515625 C-64.55405003 73.42122727 -60.71124215 74.05587282 -56.0625 71.1875 C-51.58527427 66.9070754 -47.80891836 61.86816042 -44 57 C-43.4225 56.30003906 -42.845 55.60007813 -42.25 54.87890625 C-40.29219925 51.936087 -40.69311281 49.43713653 -41 46 C-41.33 45.34 -41.66 44.68 -42 44 C-43.54586876 40.90826248 -43.29359521 38.40570448 -43 35 C-41.42275698 31.01933905 -40.58999089 29.39332726 -37 27 C-35.68 27 -34.36 27 -33 27 C-32.61521484 25.92685547 -32.61521484 25.92685547 -32.22265625 24.83203125 C-28.73321297 16.74945495 -21.85551714 7.23628341 -14 3 C-9.57723065 2.37602013 -5.43019016 2.50699584 -1 3 C-0.67 2.01 -0.34 1.02 0 0 Z " fill="#769A93" transform="translate(308,107)"/>
<path d="M0 0 C0.66 0 1.32 0 2 0 C2 1.65 2 3.3 2 5 C2.66 4.67 3.32 4.34 4 4 C11.19080375 3.26155046 17.07695051 3.67021434 23 8 C27.27539213 11.66693974 30.82646627 15.6491669 34.0625 20.25 C37.6336627 25.17607538 41.40910313 27.43471341 47.4375 28.75 C48.7059375 28.87375 48.7059375 28.87375 50 29 C49.5206753 33.31392226 48.2542015 35.16569547 45 38 C45.639375 38.61875 46.27875 39.2375 46.9375 39.875 C49.36754434 42.37868204 49.91491449 43.36185869 50.375 46.8125 C49.87030211 51.10243208 48.28763251 52.29683549 45 55 C40.55172414 58 40.55172414 58 38 58 C37.7215625 59.299375 37.7215625 59.299375 37.4375 60.625 C34.04339251 68.59377411 26.73682414 71.27529177 19.0859375 74.41015625 C15.69495127 76.15715801 13.60964925 78.24965661 11 81 C8.6875 81.8125 8.6875 81.8125 7 82 C7 82.66 7 83.32 7 84 C6.27103516 84.65162109 6.27103516 84.65162109 5.52734375 85.31640625 C3.44929491 87.6070432 3.49632828 88.86272069 3.5625 91.9375 C4.52850323 101.34453141 10.55416564 108.99234874 15.56103516 116.75244141 C21 125.24770954 21 125.24770954 21 129 C21.66 129 22.32 129 23 129 C24.73078929 132.29081585 26.45932297 135.58281167 28.1875 138.875 C28.91163086 140.25171875 28.91163086 140.25171875 29.65039062 141.65625 C45.81727663 172.47098574 45.81727663 172.47098574 41.9375 185.25 C40.08949375 189.60917265 36.91097596 192.43119988 33 195 C27.30973927 196.89675358 21.68899558 196.53168161 16.14453125 194.24609375 C11.52481246 191.56177627 7.7995268 187.71421791 4 184 C3.05125 183.0925 2.1025 182.185 1.125 181.25 C-1.06383142 178.93241379 -3.05344567 176.52331117 -5 174 C-3.92891306 170.96525367 -2.83186063 168.7774626 -0.875 166.1875 C1.42366163 162.27977523 1.54648948 159.38309605 1 155 C-0.0260635 151.04289465 -1.37367855 147.22227177 -2.75 143.375 C-3.49059378 141.23777911 -4.22888894 139.09976026 -4.96484375 136.9609375 C-5.3191748 135.93581055 -5.67350586 134.91068359 -6.03857422 133.85449219 C-7.60225679 129.21188767 -8.89675607 124.51213058 -10.1953125 119.7890625 C-11.25960659 116.10019853 -12.60902576 112.5767909 -14 109 C-14.14695312 108.00033203 -14.14695312 108.00033203 -14.296875 106.98046875 C-15.30826172 104.13172948 -16.99555551 103.44392282 -19.5625 101.9375 C-22.06640625 100.46484375 -22.06640625 100.46484375 -24 99 C-24 98.01 -24 97.02 -24 96 C-24.66 96 -25.32 96 -26 96 C-26 94.68 -26 93.36 -26 92 C-26.66 92 -27.32 92 -28 92 C-28 92.66 -28 93.32 -28 94 C-28.66 94 -29.32 94 -30 94 C-30.0928125 95.051875 -30.0928125 95.051875 -30.1875 96.125 C-31.30471238 100.07821304 -33.20187383 101.99713289 -36 105 C-39.32058662 106.66029331 -42.43733783 106.71630245 -46 106 C-54.00939962 101.83572012 -57.97972682 93.09503451 -61 85 C-61.7244579 81.30009004 -62.05381572 77.76710073 -62 74 C-61.14921875 73.6596875 -60.2984375 73.319375 -59.421875 72.96875 C-55.06720256 70.46332202 -52.42623264 67.33338422 -49.25 63.5 C-48.67378906 62.82324219 -48.09757812 62.14648438 -47.50390625 61.44921875 C-41.78189758 54.71214644 -41.78189758 54.71214644 -41 46 C-41.33 45.34 -41.66 44.68 -42 44 C-43.54586876 40.90826248 -43.29359521 38.40570448 -43 35 C-41.42275698 31.01933905 -40.58999089 29.39332726 -37 27 C-35.68 27 -34.36 27 -33 27 C-32.74347656 26.28457031 -32.48695313 25.56914062 -32.22265625 24.83203125 C-28.73321297 16.74945495 -21.85551714 7.23628341 -14 3 C-9.57723065 2.37602013 -5.43019016 2.50699584 -1 3 C-0.67 2.01 -0.34 1.02 0 0 Z " fill="#F6A88D" transform="translate(308,107)"/>
<path d="M0 0 C1.3373929 6.99997137 2.27230361 13.99395748 2.97265625 21.08203125 C3.058535 21.94744034 3.14441376 22.81284943 3.2328949 23.70448303 C4.20572269 33.76827913 4.88976474 43.85002579 5.5625 53.9375 C5.75156797 56.72983243 5.94153943 59.52210222 6.13168335 62.31436157 C6.25315137 64.09833409 6.3742754 65.88233007 6.49502563 67.66635132 C6.95588904 74.44760395 7.4581322 81.2246864 8 88 C-10.79144447 93.37976523 -29.3721849 98.40521772 -49 99 C-49.99 95.04 -50.98 91.08 -52 87 C-52.309375 88.959375 -52.61875 90.91875 -52.9375 92.9375 C-53.875 98.875 -53.875 98.875 -55 100 C-74.1476055 101.3659122 -95.7561533 100.70017379 -114 94 C-115.97717587 92.02282413 -115.41712132 88.27275269 -115.5625 85.5625 C-115.6049585 84.81492432 -115.64741699 84.06734863 -115.69116211 83.29711914 C-116.12616342 74.86579587 -116.0888372 66.43953411 -116 58 C-114.68 58.33 -113.36 58.66 -112 59 C-111.67 60.32 -111.34 61.64 -111 63 C-109.906875 63.28875 -108.81375 63.5775 -107.6875 63.875 C-104 65 -104 65 -101 67 C-100.67 65.02 -100.34 63.04 -100 61 C-98.35 61.99 -96.7 62.98 -95 64 C-95.144375 62.85402344 -95.28875 61.70804687 -95.4375 60.52734375 C-95.62522036 58.99742285 -95.81270797 57.46747339 -96 55.9375 C-96.09539062 55.18533203 -96.19078125 54.43316406 -96.2890625 53.65820312 C-96.84571902 49.06578683 -97.09829028 44.6257865 -97 40 C-94.77810176 42.22189824 -94.07401108 44.08482708 -93 47 C-92.34 47 -91.68 47 -91 47 C-90.50193696 37.29699411 -91.78889949 29.7458861 -96.6875 21.3125 C-100.1294761 14.87167646 -99.4252187 8.08697842 -99 1 C-80.25 2.875 -80.25 2.875 -76 5 C-70.92600429 5.34496184 -65.83456178 5.3443377 -60.75 5.375 C-59.98655273 5.38055908 -59.22310547 5.38611816 -58.43652344 5.3918457 C-41.49590539 5.45342876 -24.95506677 3.35720879 -8.23956299 0.76223755 C-5.45347329 0.33251394 -2.82499483 0 0 0 Z " fill="#53595D" transform="translate(276,358)"/>
<path d="M0 0 C3.84839893 0.44204582 6.24312773 2.49720835 9.25 4.8125 C13.69103294 8.13434502 17.97917965 10.67554613 23 13 C23.495 13.495 23.495 13.495 24 14 C26.32817964 14.36760731 28.6618385 14.70241581 31 15 C31 15.66 31 16.32 31 17 C31.66 17 32.32 17 33 17 C31.47690748 22.21144631 29.15364192 26.70311953 26.5625 31.4375 C25.76939244 32.89303998 24.97898971 34.35005732 24.19140625 35.80859375 C23.66848999 36.76463501 23.66848999 36.76463501 23.13500977 37.73999023 C19.95487322 44.07221737 18.52149896 48.77370835 18.26953125 55.83203125 C18.22897614 56.68522949 18.18842102 57.53842773 18.14663696 58.41748047 C18.01931265 61.21540464 17.91388963 64.01352273 17.8125 66.8125 C17.77496613 67.77409027 17.73743225 68.73568054 17.69876099 69.72640991 C17.4635932 75.79985452 17.26536402 81.87377666 17.08972168 87.94921875 C17.00163936 90.94425715 16.90408947 93.9388798 16.80566406 96.93359375 C16.65654049 101.66223659 16.5532265 106.38998921 16.48373413 111.12045288 C16.45334464 112.88992355 16.41138915 114.65924033 16.35684204 116.4281311 C16.040004 127.29020251 17.08792899 135.31653903 22.39086914 144.9050293 C24.83569461 149.60735861 25.12556045 153.578483 25.0625 158.8125 C25.05347656 159.78832031 25.04445312 160.76414062 25.03515625 161.76953125 C25.02355469 162.50558594 25.01195312 163.24164063 25 164 C23.68 164 22.36 164 21 164 C20.34 162.35 19.68 160.7 19 159 C19.0721875 159.58265625 19.144375 160.1653125 19.21875 160.765625 C19.98471528 167.53165166 20.10522858 174.19521851 20 181 C18.68 180.67 17.36 180.34 16 180 C15.01 181.98 15.01 181.98 14 184 C13.195625 183.566875 13.195625 183.566875 12.375 183.125 C9.92449903 181.88011094 9.92449903 181.88011094 6.8125 181.125 C5.4203125 180.568125 5.4203125 180.568125 4 180 C3.125 177.875 3.125 177.875 3 176 C2.2575 176 1.515 176 0.75 176 C-2.46806823 174.82979337 -2.70034458 174.2587513 -4.1875 171.3125 C-4.83481853 169.89390833 -5.43495579 168.45332331 -6 167 C-6.36351562 166.11054688 -6.72703125 165.22109375 -7.1015625 164.3046875 C-8.25395153 160.06590004 -8.25481503 156.18089107 -8.1875 151.8125 C-8.18685547 151.00619141 -8.18621094 150.19988281 -8.18554688 149.36914062 C-8.15971952 145.91688412 -8.10279686 143.30839059 -7 140 C-6.16814833 131.99513231 -7.30514209 124.36195282 -8.6875 116.5 C-19.81626208 53.06554259 -19.81626208 53.06554259 -13 33 C-12.64808594 31.85917969 -12.29617187 30.71835937 -11.93359375 29.54296875 C-3.75009586 3.75009586 -3.75009586 3.75009586 0 0 Z " fill="#F5A88E" transform="translate(161,241)"/>
<path d="M0 0 C0.33 0 0.66 0 1 0 C1.13281372 0.8353125 1.13281372 0.8353125 1.26831055 1.6875 C2.38477055 7.67906325 4.42361889 11.97996392 7.8125 17 C8.71366865 18.38839639 9.61342019 19.77771367 10.51171875 21.16796875 C10.94145996 21.82587402 11.37120117 22.4837793 11.81396484 23.16162109 C13.32561901 25.50471616 14.74806557 27.88798433 16.125 30.3125 C16.49882812 30.96863281 16.87265625 31.62476563 17.2578125 32.30078125 C18 34 18 34 18 37 C18.66 37 19.32 37 20 37 C21.73078929 40.29081585 23.45932297 43.58281167 25.1875 46.875 C25.67025391 47.7928125 26.15300781 48.710625 26.65039062 49.65625 C42.81727663 80.47098574 42.81727663 80.47098574 38.9375 93.25 C37.08949375 97.60917265 33.91097596 100.43119988 30 103 C24.30973927 104.89675358 18.68899558 104.53168161 13.14453125 102.24609375 C8.52481246 99.56177627 4.7995268 95.71421791 1 92 C0.05125 91.0925 -0.8975 90.185 -1.875 89.25 C-4.06383142 86.93241379 -6.05344567 84.52331117 -8 82 C-6.92891306 78.96525367 -5.83186063 76.7774626 -3.875 74.1875 C-1.57633837 70.27977523 -1.45351052 67.38309605 -2 63 C-3.0260635 59.04289465 -4.37367855 55.22227177 -5.75 51.375 C-6.49059378 49.23777911 -7.22888894 47.09976026 -7.96484375 44.9609375 C-8.3191748 43.93581055 -8.67350586 42.91068359 -9.03857422 41.85449219 C-10.60225679 37.21188767 -11.89675607 32.51213058 -13.1953125 27.7890625 C-14.25960659 24.10019853 -15.60902576 20.5767909 -17 17 C-17.13921875 16.30519531 -17.2784375 15.61039063 -17.421875 14.89453125 C-18.30687443 11.99436419 -20.43217879 11.38267296 -23 10 C-23 9.67 -23 9.34 -23 9 C-21.62328125 8.85304687 -21.62328125 8.85304687 -20.21875 8.703125 C-13.02816784 7.82696163 -7.13048831 6.96678655 -1 3 C-0.67 2.01 -0.34 1.02 0 0 Z " fill="#F6A88E" transform="translate(311,199)"/>
<path d="M0 0 C0.66 0 1.32 0 2 0 C2 1.65 2 3.3 2 5 C2.66 4.67 3.32 4.34 4 4 C11.19080375 3.26155046 17.07695051 3.67021434 23 8 C27.27539213 11.66693974 30.82646627 15.6491669 34.0625 20.25 C37.6336627 25.17607538 41.40910313 27.43471341 47.4375 28.75 C48.7059375 28.87375 48.7059375 28.87375 50 29 C49.5206753 33.31392226 48.2542015 35.16569547 45 38 C45.639375 38.61875 46.27875 39.2375 46.9375 39.875 C49.36754434 42.37868204 49.91491449 43.36185869 50.375 46.8125 C49.87030211 51.10243208 48.28763251 52.29683549 45 55 C40.55172414 58 40.55172414 58 38 58 C37.7215625 59.299375 37.7215625 59.299375 37.4375 60.625 C35.0596657 66.20774141 30.68200598 69.40025729 25.25 71.9375 C22 73 22 73 19 72 C19.61488281 71.35933594 20.22976563 70.71867187 20.86328125 70.05859375 C25.34156988 65.26603925 28.95416867 61.27388273 31 55 C30.41734375 54.88785156 29.8346875 54.77570313 29.234375 54.66015625 C22.22475762 52.58913293 15.52768267 45.51612043 11 40 C9.7734375 37.25390625 9.7734375 37.25390625 9 35 C8.34 35 7.68 35 7 35 C6.938125 34.38125 6.87625 33.7625 6.8125 33.125 C6.17775641 30.73182415 6.17775641 30.73182415 3.5 29.8125 C2.2625 29.4103125 2.2625 29.4103125 1 29 C0.67 28.67 0.34 28.34 0 28 C-5.70008826 27.47731533 -8.78717204 28.5563777 -13.5625 31.625 C-14.12606201 31.98529297 -14.68962402 32.34558594 -15.27026367 32.71679688 C-19.39055223 35.41862544 -22.76576053 38.30372632 -26 42 C-26.99 41.67 -27.98 41.34 -29 41 C-28.51421457 37.87709365 -28.0013988 35.00419641 -27 32 C-28.2684375 30.9171875 -28.2684375 30.9171875 -29.5625 29.8125 C-32 27 -32 27 -31.87109375 24.65625 C-29.22748106 16.5950095 -21.49348565 7.04104891 -14 3 C-9.57723065 2.37602013 -5.43019016 2.50699584 -1 3 C-0.67 2.01 -0.34 1.02 0 0 Z " fill="#444D53" transform="translate(308,107)"/>
<path d="M0 0 C8.3836864 4.02416947 12.94060516 12.55885151 16 21 C19.36561348 30.80628387 19.9473438 44.08378503 16.375 53.9375 C14.02343474 58.6910212 10.75395901 61.6230205 6 64 C1.69896767 64.73432259 -0.88616869 63.76858252 -4.5 61.5625 C-13.64990522 54.90382948 -16.7224439 45.82914585 -18.6953125 35.04882812 C-20.11529801 25.50033584 -19.88451963 15.27170828 -15.1875 6.6875 C-10.76248464 1.25105256 -7.22846499 -1.36870343 0 0 Z " fill="#E3F3F0" transform="translate(434,231)"/>
<path d="M0 0 C0.08912219 3.83225427 -0.12132271 7.26562152 -1 11 C1.475 11.495 1.475 11.495 4 12 C3.81103914 21.80878626 3.81103914 21.80878626 1 25.9375 C-11.11014674 34.26322588 -25.7604559 35.05118391 -39.984375 32.80078125 C-44.2717859 31.66228483 -47.84403124 30.15596876 -51 27 C-51.57735351 22.71108821 -51.33446554 20.56859142 -49.125 16.8125 C-45.52789451 13.00200689 -40.8992293 11.53469834 -36 10 C-35.2884375 9.773125 -34.576875 9.54625 -33.84375 9.3125 C-26.99964435 7.47378505 -20.03257028 7.81993419 -13 8 C-13 6.35 -13 4.7 -13 3 C-11.58603098 2.49242138 -10.16868271 1.99425075 -8.75 1.5 C-7.96109375 1.2215625 -7.1721875 0.943125 -6.359375 0.65625 C-4 0 -4 0 0 0 Z M-8 6 C-8.66 6.66 -9.32 7.32 -10 8 C-8.68 7.67 -7.36 7.34 -6 7 C-6.66 6.67 -7.32 6.34 -8 6 Z " fill="#E3F3EF" transform="translate(215,51)"/>
<path d="M0 0 C1.1480754 3.36174405 0.8668574 5.17198425 -0.40625 8.45703125 C-0.7347998 9.31554687 -1.06334961 10.1740625 -1.40185547 11.05859375 C-1.76424316 11.96738281 -2.12663086 12.87617188 -2.5 13.8125 C-2.86367676 14.74578125 -3.22735352 15.6790625 -3.60205078 16.640625 C-6.32901909 23.54626076 -9.31958597 30.28788916 -12.5546875 36.96875 C-14.01344759 39.91140724 -14.01344759 39.91140724 -15.0078125 42.71875 C-16.05106265 45.11740389 -17.1317318 46.21773903 -19 48 C-27.60605535 61.73191903 -29.09373477 77.2608222 -29.31640625 93.03125 C-29.33718735 94.26290894 -29.35796844 95.49456787 -29.37937927 96.7635498 C-29.44446188 100.67564626 -29.50356693 104.58780656 -29.5625 108.5 C-29.60523899 111.16147345 -29.64934002 113.82292217 -29.69335938 116.484375 C-29.80010069 122.98951698 -29.90194179 129.49472165 -30 136 C-32.64 135.67 -35.28 135.34 -38 135 C-38.16047299 125.99869946 -38.11753917 117.00135058 -38 108 C-37.98964722 107.14013489 -37.97929443 106.28026978 -37.96862793 105.39434814 C-37.89317264 99.66626826 -37.76346446 93.94216992 -37.58294678 88.21643066 C-37.5282953 86.30310629 -37.48651502 84.38936441 -37.45855713 82.47546387 C-37.26066395 69.93381219 -35.544832 60.6140065 -29.04907227 49.80307007 C-27.1980627 46.62168777 -25.61630306 43.30488584 -24 40 C-23 38 -22 36 -21 34 C-19.68 34.33 -18.36 34.66 -17 35 C-16.731875 34.278125 -16.46375 33.55625 -16.1875 32.8125 C-15 30 -15 30 -13.5625 27.6875 C-11.85510316 24.93474186 -11.85510316 24.93474186 -10.6953125 21.39453125 C-8.96904196 16.70252044 -6.69579733 12.38648344 -4.3125 8 C-3.89677734 7.22527344 -3.48105469 6.45054687 -3.05273438 5.65234375 C-2.03960761 3.76583185 -1.02043723 1.88256763 0 0 Z " fill="#698880" transform="translate(215,224)"/>
<path d="M0 0 C0 3.82555276 -1.27142021 5.27354427 -3.375 8.4375 C-11.79238982 21.16750312 -11.32415463 35.88014241 -12.0625 50.75 C-12.17853739 53.04372861 -12.29638928 55.33730504 -12.41929626 57.63067627 C-12.52885203 59.67900684 -12.63193344 61.72768072 -12.73461914 63.77636719 C-13 67 -13 67 -14 70 C-15.98 70 -17.96 70 -20 70 C-23.49024947 56.96973529 -23.51096744 43.81202953 -21.54345703 30.56054688 C-21.24656846 28.47590498 -21.02030313 26.39010376 -20.79296875 24.296875 C-20.06753602 18.80101484 -19.32495597 14.40595328 -15.41210938 10.25390625 C-8.34380492 5 -8.34380492 5 -5 5 C-5 4.34 -5 3.68 -5 3 C-2.5 1.375 -2.5 1.375 0 0 Z " fill="#484F53" transform="translate(247,387)"/>
<path d="M0 0 C2 2 2 2 2.125 5.125 C2.08375 6.07375 2.0425 7.0225 2 8 C-6.2038517 12.9405418 -13.32770771 15.02637634 -23 14 C-23.66 13.34 -24.32 12.68 -25 12 C-25 11.01 -25 10.02 -25 9 C-25.66 9 -26.32 9 -27 9 C-26.67 7.68 -26.34 6.36 -26 5 C-25.01 5.33 -24.02 5.66 -23 6 C-16.86502725 6.38066931 -10.64612463 6.74676333 -5 4 C-4.67 3.34 -4.34 2.68 -4 2 C-1.9375 0.875 -1.9375 0.875 0 0 Z " fill="#F18C79" transform="translate(309,194)"/>
<path d="M0 0 C0.33 0 0.66 0 1 0 C2.10800115 16.02863011 2.32153474 32.06392762 2.5625 48.125 C2.60539686 50.83725136 2.64936557 53.54948499 2.69335938 56.26171875 C2.79927464 62.84109156 2.90123489 69.42051617 3 76 C3.495 75.01 3.495 75.01 4 74 C4.66 74 5.32 74 6 74 C4.8905928 77.48670834 3.73662334 80.77484237 2 84 C1.01 84 0.02 84 -1 84 C-1.67154933 82.71086513 -2.33708859 81.41859796 -3 80.125 C-3.37125 79.40570313 -3.7425 78.68640625 -4.125 77.9453125 C-5 76 -5 76 -5 74 C-4.34 74 -3.68 74 -3 74 C-2.34 75.32 -1.68 76.64 -1 78 C-0.67 52.26 -0.34 26.52 0 0 Z " fill="#D3E6E1" transform="translate(104,292)"/>
<path d="M0 0 C0 0.66 0 1.32 0 2 C-0.66 2 -1.32 2 -2 2 C-2.1546875 3.2375 -2.1546875 3.2375 -2.3125 4.5 C-3.11646056 8.59289012 -4.46352158 12.12540225 -6 16 C-5.278125 15.67 -4.55625 15.34 -3.8125 15 C-0.98302573 13.99396471 1.02895466 13.83022598 4 14 C4 15.32 4 16.64 4 18 C2.27318563 18.50806447 0.54342021 19.00610467 -1.1875 19.5 C-2.15042969 19.7784375 -3.11335938 20.056875 -4.10546875 20.34375 C-6.85345876 20.96677608 -9.19598416 21.12302812 -12 21 C-10.89061647 14.69403048 -9.06802099 9.62470514 -6 4 C-9.63 4.66 -13.26 5.32 -17 6 C-17 5.01 -17 4.02 -17 3 C-15.1096624 2.29753005 -13.21243172 1.61359151 -11.3125 0.9375 C-10.25675781 0.55464844 -9.20101563 0.17179687 -8.11328125 -0.22265625 C-4.90666208 -1.0233052 -3.1313693 -0.9237249 0 0 Z " fill="#BCD2CC" transform="translate(417,86)"/>
<path d="M0 0 C0.33 0.66 0.66 1.32 1 2 C1.639375 2.268125 2.27875 2.53625 2.9375 2.8125 C5 4 5 4 6.4375 6.1875 C7.25586782 10.27933908 5.87421243 12.32366023 4 16 C3.67 16 3.34 16 3 16 C3.33 12.7 3.66 9.4 4 6 C1.03 5.505 1.03 5.505 -2 5 C-2.33 5.66 -2.66 6.32 -3 7 C-3.99 7.495 -3.99 7.495 -5 8 C-6.62166134 10.38981672 -7.04013612 11.59863885 -6.75 14.5 C-6.11681814 16.95778299 -6.11681814 16.95778299 -4.953125 18.81640625 C-3.10105431 23.05946984 -3.87371366 27.61272182 -5 32 C-7.75 34.8125 -7.75 34.8125 -11 37 C-11.92895523 38.07644952 -12.82602478 39.18132281 -13.6875 40.3125 C-14.450625 41.199375 -15.21375 42.08625 -16 43 C-16.99 43 -17.98 43 -19 43 C-16.9624042 38.21948678 -13.34606083 34.76118082 -9.8984375 30.94921875 C-7.57656866 27.34220029 -7.5670155 25.21404686 -8 21 C-8.33 20.34 -8.66 19.68 -9 19 C-10.54586876 15.90826248 -10.29359521 13.40570448 -10 10 C-8.42275698 6.01933905 -7.58999089 4.39332726 -4 2 C-2.68 2 -1.36 2 0 2 C0 1.34 0 0.68 0 0 Z " fill="#F1AB96" transform="translate(275,132)"/>
<path d="M0 0 C-0.31182069 1.41681634 -0.62448737 2.83344651 -0.9375 4.25 C-1.11152344 5.03890625 -1.28554687 5.8278125 -1.46484375 6.640625 C-1.947556 8.76878703 -2.46163178 10.88532842 -3 13 C-0.69 13 1.62 13 4 13 C3.34 14.32 2.68 15.64 2 17 C0.35 17 -1.3 17 -3 17 C-3 17.66 -3 18.32 -3 19 C-4.98 19.33 -6.96 19.66 -9 20 C-10.81975482 14.87160006 -8.8599099 10.82315618 -7 6 C-9.31 6.33 -11.62 6.66 -14 7 C-14 6.01 -14 5.02 -14 4 C-13.01 4 -12.02 4 -11 4 C-11 3.34 -11 2.68 -11 2 C-7.17679443 0.57741188 -4.08718695 -0.24042276 0 0 Z " fill="#D3E5E3" transform="translate(80,243)"/>
<path d="M0 0 C3.86331407 0.60477113 6.18814891 2.45487466 9.25 4.8125 C13.69103294 8.13434502 17.97917965 10.67554613 23 13 C23.33 13.33 23.66 13.66 24 14 C26.32817964 14.36760731 28.6618385 14.70241581 31 15 C31 15.66 31 16.32 31 17 C25.15223234 17.23495495 20.53098145 16.604624 15 14.75 C14.30519531 14.52546143 13.61039063 14.30092285 12.89453125 14.06958008 C8.01333907 12.45033844 3.49046275 10.52588529 -1 8 C-0.67 5.36 -0.34 2.72 0 0 Z " fill="#E58974" transform="translate(161,241)"/>
<path d="M0 0 C0.08912219 3.83225427 -0.12132271 7.26562152 -1 11 C0.32 11.33 1.64 11.66 3 12 C2 15 2 15 -0.1875 16.6875 C-3.36774916 18.17161628 -5.53214273 18.24194353 -9 18 C-8.9278125 17.37351562 -8.855625 16.74703125 -8.78125 16.1015625 C-8.6884375 15.28429687 -8.595625 14.46703125 -8.5 13.625 C-8.4071875 12.81289063 -8.314375 12.00078125 -8.21875 11.1640625 C-7.96647649 9.03087175 -7.96647649 9.03087175 -8 7 C-9.32 7 -10.64 7 -12 7 C-11.67 5.35 -11.34 3.7 -11 2 C-7.12315913 0.80712589 -4.08378077 0 0 0 Z " fill="#D4E5E4" transform="translate(215,51)"/>
<path d="M0 0 C0.33 0 0.66 0 1 0 C1.02492452 4.12596703 1.04296521 8.25190422 1.05493164 12.37792969 C1.05992616 13.77832809 1.06672408 15.17872137 1.07543945 16.57910156 C1.16225376 30.898355 1.16225376 30.898355 0 38 C-2.54773966 37.03361599 -4.03183981 35.9671331 -5.9375 34 C-7.38472214 29.91372573 -6.2367178 27.63735374 -4.8359375 23.64453125 C-4.00919549 21.02909042 -3.62709125 18.66269331 -3.375 15.9375 C-3 12 -3 12 -2 11 C-1.60545777 9.15400312 -1.25823134 7.29774178 -0.9375 5.4375 C-0.76089844 4.42558594 -0.58429688 3.41367188 -0.40234375 2.37109375 C-0.20318359 1.19740234 -0.20318359 1.19740234 0 0 Z " fill="#658880" transform="translate(293,236)"/>
<path d="M0 0 C0 2.31 0 4.62 0 7 C-0.66 7 -1.32 7 -2 7 C-2.144375 7.763125 -2.28875 8.52625 -2.4375 9.3125 C-3 12 -3 12 -4 15 C-3.34 14.67 -2.68 14.34 -2 14 C0.3329866 13.95977609 2.66706666 13.95679753 5 14 C5 14.99 5 15.98 5 17 C3.25183142 17.50636607 1.50137737 18.00484619 -0.25 18.5 C-1.22453125 18.7784375 -2.1990625 19.056875 -3.203125 19.34375 C-6 20 -6 20 -10 20 C-9.59683075 13.68368172 -7.28767869 9.35006016 -4 4 C-8.455 4.495 -8.455 4.495 -13 5 C-13 4.01 -13 3.02 -13 2 C-11.58461283 1.66127487 -10.16762037 1.32925376 -8.75 1 C-7.56664062 0.7215625 -7.56664062 0.7215625 -6.359375 0.4375 C-4 0 -4 0 0 0 Z " fill="#C3D7D0" transform="translate(396,100)"/>
<path d="M0 0 C-0.77904328 12.66970387 -0.77904328 12.66970387 -3 18 C-2.113125 17.505 -1.22625 17.01 -0.3125 16.5 C2.87586238 15.05621326 4.58187546 14.69840078 8 15 C8 15.99 8 16.98 8 18 C6.27656245 18.84511824 4.54595947 19.67563354 2.8125 20.5 C1.84957031 20.9640625 0.88664062 21.428125 -0.10546875 21.90625 C-2.98922693 22.99592921 -4.95354861 23.22277524 -8 23 C-7.85950482 21.52031676 -7.71245174 20.04125484 -7.5625 18.5625 C-7.48128906 17.73878906 -7.40007812 16.91507813 -7.31640625 16.06640625 C-7 14 -7 14 -6 13 C-5.60851239 11.48834346 -5.26027543 9.96530368 -4.9375 8.4375 C-4.76089844 7.61121094 -4.58429688 6.78492188 -4.40234375 5.93359375 C-4.26957031 5.29550781 -4.13679688 4.65742188 -4 4 C-4.66 4 -5.32 4 -6 4 C-6 3.01 -6 2.02 -6 1 C-3 0 -3 0 0 0 Z " fill="#BAD1CC" transform="translate(100,226)"/>
<path d="M0 0 C0.95494154 2.57834216 1.15620775 3.64113044 0.0378418 6.21044922 C-1.22493471 9.6045881 -1.24273886 12.32731337 -1.23046875 15.9453125 C-1.23001053 16.59700409 -1.22955231 17.24869568 -1.2290802 17.9201355 C-1.22607337 19.29003738 -1.21823438 20.65993632 -1.20581055 22.02978516 C-1.18749608 24.12544867 -1.18530153 26.22067083 -1.18554688 28.31640625 C-1.3317558 35.25907902 -1.3317558 35.25907902 0 42 C0.3075172 45.35279172 0.5089708 48.70619297 0.71875 52.06640625 C0.81590661 54.93165746 0.81590661 54.93165746 2 57 C2.89989766 64.64357515 3.15622489 72.31026384 3 80 C2.67 80 2.34 80 2 80 C1.12665978 73.97836563 0.27330555 67.95431376 -0.56347656 61.92749023 C-0.84932578 59.88769706 -1.14015322 57.84859385 -1.43652344 55.81030273 C-7.38930723 14.77861446 -7.38930723 14.77861446 0 0 Z " fill="#E8B6A2" transform="translate(149,272)"/>
<path d="M0 0 C1.40499716 2.62851552 2.35535231 5.03082962 3 7.9375 C4.17854963 12.85269149 5.2864402 16.45523837 9 20 C9 20.66 9 21.32 9 22 C9.66 22 10.32 22 11 22 C11 22.66 11 23.32 11 24 C11.61875 24.12375 12.2375 24.2475 12.875 24.375 C15 25 15 25 17 27 C16.34 27 15.68 27 15 27 C15 27.66 15 28.32 15 29 C13.35 29.33 11.7 29.66 10 30 C3.01129623 22.75504375 -0.22939995 16.65512458 -0.25 6.4375 C-0.18639974 4.29099117 -0.10982513 2.14464066 0 0 Z " fill="#EA8C76" transform="translate(265,172)"/>
<path d="M0 0 C0.66 0 1.32 0 2 0 C2.34745899 5.79098311 2.30075823 9.99195303 -1 15 C-2.66666667 16.66666667 -4.33333333 18.33333333 -6 20 C-6.474375 21.0725 -6.94875 22.145 -7.4375 23.25 C-7.953125 24.1575 -8.46875 25.065 -9 26 C-12.1875 26.875 -12.1875 26.875 -15 27 C-16 24 -16 24 -15.25 22.09765625 C-12.12423251 17.00851606 -9.46100476 14.47290782 -4 12 C-3.34 12 -2.68 12 -2 12 C0.60018816 8.09971775 0.15085514 4.52565431 0 0 Z " fill="#C5D9D7" transform="translate(357,149)"/>
<path d="M0 0 C0.66 0.33 1.32 0.66 2 1 C2.26537998 18.95737837 2.26537998 18.95737837 -2 25 C-3 26 -3 26 -5.5625 26.0625 C-6.366875 26.041875 -7.17125 26.02125 -8 26 C-8 26.66 -8 27.32 -8 28 C-16.1355292 29.44771506 -22.6320893 28.9765223 -30 25 C-32.31640625 22.85546875 -32.31640625 22.85546875 -34 21 C-33.67 20.34 -33.34 19.68 -33 19 C-32.39671875 19.42152344 -31.7934375 19.84304688 -31.171875 20.27734375 C-29.97304688 21.09912109 -29.97304688 21.09912109 -28.75 21.9375 C-27.56664062 22.75541016 -27.56664062 22.75541016 -26.359375 23.58984375 C-21.89944296 26.25546539 -17.12975808 26.68077163 -12 26 C-6.63694869 24.10397176 -3.71553352 21.01329265 -1 16 C0.14057301 12.57082626 0.10157806 9.34518164 0.0625 5.75 C0.05347656 4.67234375 0.04445313 3.5946875 0.03515625 2.484375 C0.02355469 1.66453125 0.01195312 0.8446875 0 0 Z " fill="#EFEADD" transform="translate(350,276)"/>
<path d="M0 0 C0.66 0 1.32 0 2 0 C2.33 9.9 2.66 19.8 3 30 C3.66 29.01 4.32 28.02 5 27 C4.49287967 30.71888239 3.88391785 33.73454239 2 37 C-1 36 -1 36 -2.6875 33.0625 C-4 30 -4 30 -4 28 C-3.34 28 -2.68 28 -2 28 C-1.67 28.66 -1.34 29.32 -1 30 C-0.67 20.1 -0.34 10.2 0 0 Z " fill="#D1E4E0" transform="translate(114,280)"/>
<path d="M0 0 C0.33 0 0.66 0 1 0 C1.33 17.49 1.66 34.98 2 53 C2.66 52.01 3.32 51.02 4 50 C4.66 50 5.32 50 6 50 C4.8905928 53.48670834 3.73662334 56.77484237 2 60 C1.01 60 0.02 60 -1 60 C-1.67154933 58.71086513 -2.33708859 57.41859796 -3 56.125 C-3.37125 55.40570313 -3.7425 54.68640625 -4.125 53.9453125 C-5 52 -5 52 -5 50 C-4.34 50 -3.68 50 -3 50 C-2.34 51.32 -1.68 52.64 -1 54 C-0.67 36.18 -0.34 18.36 0 0 Z " fill="#D0E2DE" transform="translate(313,338)"/>
<path d="M0 0 C0.66 0 1.32 0 2 0 C2 5.28 2 10.56 2 16 C1.34 16 0.68 16 0 16 C-0.27059778 30.52326678 -0.27059778 30.52326678 5 43 C5.125 45.625 5.125 45.625 5 48 C-2.72250512 38.13112526 -2.73938333 28.03619085 -2 16 C-1.67 15.01 -1.34 14.02 -1 13 C-0.77548542 10.77425665 -0.59217122 8.54418481 -0.4375 6.3125 C-0.35371094 5.13300781 -0.26992187 3.95351563 -0.18359375 2.73828125 C-0.12300781 1.83464844 -0.06242188 0.93101562 0 0 Z " fill="#EAB29C" transform="translate(155,368)"/>
<path d="M0 0 C2.475 0.495 2.475 0.495 5 1 C4.34 3.31 3.68 5.62 3 8 C3.99 8.66 4.98 9.32 6 10 C5.773125 11.010625 5.54625 12.02125 5.3125 13.0625 C4.93009515 17.88080111 5.94263335 19.72067736 8 24 C8 24.99 8 25.98 8 27 C7.34 27 6.68 27 6 27 C0.15002724 17.65048996 -0.7920173 10.73623447 0 0 Z " fill="#474B4C" transform="translate(177,359)"/>
<path d="M0 0 C0.33 0.99 0.66 1.98 1 3 C-1.86698342 6.49413605 -3.84150148 8.28836874 -8.3125 8.8125 C-10.1378125 8.9053125 -10.1378125 8.9053125 -12 9 C-12 9.66 -12 10.32 -12 11 C-12.99 11.495 -12.99 11.495 -14 12 C-13.46173471 16.14847132 -13.46173471 16.14847132 -11.9375 20 C-10.6004839 22.85230101 -10.611226 24.88980796 -11 28 C-13.65420895 31.57297358 -16.96282158 33.24470503 -21 35 C-21.66 35 -22.32 35 -23 35 C-23 35.66 -23 36.32 -23 37 C-23.66 37 -24.32 37 -25 37 C-25 38.98 -25 40.96 -25 43 C-25.33 43 -25.66 43 -26 43 C-26.3125 39.75 -26.3125 39.75 -26 36 C-22.85091548 32.66567521 -19.08299151 30.99612918 -15 29 C-14.34 28.34 -13.68 27.68 -13 27 C-13.32417863 23.19090105 -13.85581442 21.21627837 -16 18 C-16.55894361 11.73983152 -16.55894361 11.73983152 -14.79296875 9.40234375 C-11.96333345 7.18918673 -8.74245954 6.31772047 -5.375 5.16015625 C-2.68063701 3.84399538 -1.58946797 2.50445775 0 0 Z " fill="#D4E5E0" transform="translate(372,344)"/>
<path d="M0 0 C-0.30921884 1.45903258 -0.62248799 2.91720722 -0.9375 4.375 C-1.11152344 5.18710938 -1.28554687 5.99921875 -1.46484375 6.8359375 C-2 9 -2 9 -3 11 C-1.02 11 0.96 11 3 11 C3 11.99 3 12.98 3 14 C1.9275 14.144375 0.855 14.28875 -0.25 14.4375 C-2.91662949 14.83749442 -5.41399729 15.27591924 -8 16 C-7.45660208 11.43545749 -6.20536179 8.0271824 -4 4 C-5.98 4 -7.96 4 -10 4 C-10 3.34 -10 2.68 -10 2 C-6.38026598 0.68373308 -3.90432869 0 0 0 Z " fill="#CBDFDA" transform="translate(199,63)"/>
<path d="M0 0 C-2.29696265 2.29696265 -3.67946019 2.65977215 -6.76953125 3.55078125 C-7.73536133 3.83501953 -8.70119141 4.11925781 -9.69628906 4.41210938 C-10.72463867 4.70923828 -11.75298828 5.00636719 -12.8125 5.3125 C-20.61849771 7.61051606 -28.18546611 10.04725823 -35.671875 13.25 C-38 14 -38 14 -41 13 C-28.59541745 6.50545416 -14.3749083 -0.53043942 0 0 Z " fill="#688D85" transform="translate(269,271)"/>
<path d="M0 0 C-0.55105909 3.9492568 -1.38935371 7.34920174 -3 11 C-1.02 11 0.96 11 3 11 C3 11.66 3 12.32 3 13 C-0.61973402 14.31626692 -3.09567131 15 -7 15 C-7.22036864 11.14354879 -6.60355101 8.50776784 -5 5 C-6.98 5 -8.96 5 -11 5 C-10.67 4.01 -10.34 3.02 -10 2 C-6.54310037 0.78368346 -3.67168136 0 0 0 Z " fill="#C7DCD7" transform="translate(123,224)"/>
<path d="M0 0 C0 0.99 0 1.98 0 3 C-6.16117067 5.96345281 -12.21072755 8.54954745 -18.8046875 10.37890625 C-21.149363 11.00672639 -21.149363 11.00672639 -23.9375 12.125 C-28.54919099 13.442626 -33.22817917 13.67735019 -38 14 C-35.31481854 11.31481854 -32.99584509 11.09197868 -29.3125 10.1875 C-23.78910666 8.78292806 -18.34719717 7.23256373 -12.9375 5.4375 C-11.75027344 5.04433594 -10.56304687 4.65117187 -9.33984375 4.24609375 C-6.08986174 3.03352736 -3.06896629 1.61155764 0 0 Z " fill="#688D85" transform="translate(256,331)"/>
<path d="M0 0 C-2.33214148 1.20628008 -4.49642139 2.1654738 -7 3 C-8.98261126 7.38261436 -9.35352187 11.22745476 -9 16 C-8.67 16.66 -8.34 17.32 -8 18 C-6.46645388 21.06709225 -6.69412214 23.63534359 -7 27 C-8.5 28.9375 -8.5 28.9375 -10 30 C-11.35439668 27.29120665 -11.06501451 24.99066732 -11 22 C-10.34 21.67 -9.68 21.34 -9 21 C-9.495 20.505 -9.99 20.01 -10.5 19.5 C-12.59623939 16.00626769 -12.64950821 12.91822886 -12 9 C-10.9859926 6.12200841 -9.82901472 3.45295954 -8 1 C-5.07175348 0.02391783 -3.04386724 -0.08226668 0 0 Z " fill="#DFDBCD" transform="translate(275,133)"/>
<path d="M0 0 C0.66 1.32 1.32 2.64 2 4 C2.66 4 3.32 4 4 4 C4 4.99 4 5.98 4 7 C4.66 7 5.32 7 6 7 C7.7143618 8.95927063 9.38405168 10.95880212 11 13 C9.02 15.31 7.04 17.62 5 20 C4.01 19.67 3.02 19.34 2 19 C2.48578543 15.87709365 2.9986012 13.00419641 4 10 C3.154375 9.278125 2.30875 8.55625 1.4375 7.8125 C-1 5 -1 5 -0.8125 2.1875 C-0.544375 1.465625 -0.27625 0.74375 0 0 Z " fill="#564D4D" transform="translate(277,129)"/>
<path d="M0 0 C2.80592657 2.44493017 4.11593244 4.99579963 5.625 8.375 C6.05039063 9.31085938 6.47578125 10.24671875 6.9140625 11.2109375 C8.71015977 15.82393553 9.12190514 19.8818731 9.0625 24.8125 C9.05347656 25.78832031 9.04445312 26.76414062 9.03515625 27.76953125 C9.02355469 28.50558594 9.01195312 29.24164063 9 30 C8.67 29.34 8.34 28.68 8 28 C7.01 27.67 6.02 27.34 5 27 C5 25.35 5 23.7 5 22 C5.66 22 6.32 22 7 22 C6.40438884 19.93501309 5.79813145 17.87309526 5.1875 15.8125 C4.85105469 14.66394531 4.51460937 13.51539063 4.16796875 12.33203125 C3.13413236 9.0086554 3.13413236 9.0086554 1.36328125 6.32421875 C0 4 0 4 0 0 Z " fill="#E4A795" transform="translate(177,375)"/>
<path d="M0 0 C0.33 0 0.66 0 1 0 C3.26309358 5.85741868 2.61071571 8.58074163 0.4375 14.25 C0.16808594 14.95640625 -0.10132813 15.6628125 -0.37890625 16.390625 C-0.58386719 16.92171875 -0.78882813 17.4528125 -1 18 C-1.66 18 -2.32 18 -3 18 C-3 17.01 -3 16.02 -3 15 C-3.99 15.33 -4.98 15.66 -6 16 C-6.33 15.01 -6.66 14.02 -7 13 C-5.8203125 10.87890625 -5.8203125 10.87890625 -4.125 8.5625 C-2.04505882 5.70379015 -0.62263805 3.50433469 0 0 Z " fill="#EA8B79" transform="translate(310,266)"/>
<path d="M0 0 C0.66 0.33 1.32 0.66 2 1 C1.01 2.485 1.01 2.485 0 4 C-0.66 4 -1.32 4 -2 4 C-2.2475 4.598125 -2.495 5.19625 -2.75 5.8125 C-4.77576002 9.35758004 -7.17994156 10.72664719 -11 12 C-11.027193 13.58323688 -11.04648306 15.16661062 -11.0625 16.75 C-11.07410156 17.63171875 -11.08570313 18.5134375 -11.09765625 19.421875 C-11.00717379 21.8106119 -10.80486275 23.75245874 -10 26 C-9.34 26.33 -8.68 26.66 -8 27 C-7.375 30.0625 -7.375 30.0625 -7 33 C-10.86990027 28.227123 -13.23246526 25.21041693 -13.75 19 C-13.84796875 17.948125 -13.9459375 16.89625 -14.046875 15.8125 C-14 13 -14 13 -12 10 C-11.34 10 -10.68 10 -10 10 C-10 9.34 -10 8.68 -10 8 C-9.01 7.67 -8.02 7.34 -7 7 C-5.29220027 5.37550757 -3.62449243 3.70779973 -2 2 C-1.34 1.34 -0.68 0.68 0 0 Z " fill="#E7E1D4" transform="translate(325,181)"/>
<path d="M0 0 C0 0.99 0 1.98 0 3 C-14.59681093 6.44419134 -14.59681093 6.44419134 -22 6 C-22 5.01 -22 4.02 -22 3 C-18.89643568 2.49621233 -15.79205777 1.99762587 -12.6875 1.5 C-11.80642578 1.35691406 -10.92535156 1.21382813 -10.01757812 1.06640625 C-9.17001953 0.93105469 -8.32246094 0.79570312 -7.44921875 0.65625 C-6.66893311 0.53056641 -5.88864746 0.40488281 -5.0847168 0.27539062 C-3 0 -3 0 0 0 Z " fill="#434E50" transform="translate(276,358)"/>
<path d="M0 0 C0 0.66 0 1.32 0 2 C0.66 2 1.32 2 2 2 C1.88637738 3.4800841 1.75877092 4.95910074 1.625 6.4375 C1.55539063 7.26121094 1.48578125 8.08492187 1.4140625 8.93359375 C1.27742188 9.61550781 1.14078125 10.29742187 1 11 C0.01 11.495 0.01 11.495 -1 12 C-1.33 10.02 -1.66 8.04 -2 6 C-4.31 6.66 -6.62 7.32 -9 8 C-9.33 6.35 -9.66 4.7 -10 3 C-3.375 0 -3.375 0 0 0 Z " fill="#CADFDB" transform="translate(94,228)"/>
<path d="M0 0 C0.99 0.33 1.98 0.66 3 1 C3.35258939 4.72830629 3.51086536 8.28174281 3 12 C0.3125 14.8125 0.3125 14.8125 -3 17 C-3.93043569 18.07517013 -4.82768482 19.18006049 -5.6875 20.3125 C-6.8321875 21.6428125 -6.8321875 21.6428125 -8 23 C-8.99 23 -9.98 23 -11 23 C-9.42168641 19.28836146 -7.05816746 16.73129718 -4.375 13.75 C-0.4167172 9.11433549 -0.4167172 9.11433549 0.5625 3.3125 C0.376875 2.219375 0.19125 1.12625 0 0 Z " fill="#ECBBA9" transform="translate(267,152)"/>
<path d="M0 0 C2.22189824 2.22189824 2.92598892 4.08482708 4 7 C4.66 7 5.32 7 6 7 C6.33 5.35 6.66 3.7 7 2 C7.33 2 7.66 2 8 2 C8.33 4.31 8.66 6.62 9 9 C7.35 9.66 5.7 10.32 4 11 C3.67 14.96 3.34 18.92 3 23 C2.67 23 2.34 23 2 23 C1.66114962 20.47980028 1.32879665 17.95901484 1 15.4375 C0.90460938 14.73302734 0.80921875 14.02855469 0.7109375 13.30273438 C0.13333583 8.82632145 -0.09489383 4.51338762 0 0 Z " fill="#6E605D" transform="translate(179,398)"/>
<path d="M0 0 C1.07044981 3.21134943 0.99113823 5.80689052 0.88452148 9.15795898 C0.63922806 17.34743328 1.11387493 23.61792306 5 31 C5.33 31.99 5.66 32.98 6 34 C4.02 34.495 4.02 34.495 2 35 C-0.83285989 27.25684962 -1.16055186 19.83480177 -1.125 11.6875 C-1.12886719 10.78193359 -1.13273438 9.87636719 -1.13671875 8.94335938 C-1.13542969 8.07904297 -1.13414062 7.21472656 -1.1328125 6.32421875 C-1.13168457 5.54135498 -1.13055664 4.75849121 -1.12939453 3.9519043 C-1 2 -1 2 0 0 Z " fill="#EFEEE4" transform="translate(153,381)"/>
<path d="M0 0 C3.00617269 3.00617269 2.59585316 5.82381598 3 10 C3.66 10 4.32 10 5 10 C5.86627405 12.91355841 6.71831006 15.83004328 7.5625 18.75 C7.80935547 19.575 8.05621094 20.4 8.31054688 21.25 C8.53935547 22.04921875 8.76816406 22.8484375 9.00390625 23.671875 C9.21861572 24.4050293 9.4333252 25.13818359 9.65454102 25.89355469 C10.03914672 28.23869816 9.72878764 29.75825808 9 32 C7.67486105 28.17092027 6.36721412 24.33608253 5.0625 20.5 C4.68931641 19.42234375 4.31613281 18.3446875 3.93164062 17.234375 C1.97268974 11.44576337 0.46641486 6.10041019 0 0 Z " fill="#DEAC9A" transform="translate(300,230)"/>
<path d="M0 0 C0.33 0 0.66 0 1 0 C1.48059701 6.24776119 1.48059701 6.24776119 -0.4375 9.25 C-3.51625847 11.35256676 -6.51415375 12.34375372 -10.07421875 13.38671875 C-11.98640274 13.83333613 -11.98640274 13.83333613 -13 15 C-13.36760731 17.32817964 -13.70241581 19.6618385 -14 22 C-16.1610211 18.75846834 -16.64247553 17.76307099 -16 14 C-13.09887782 10.81812406 -10.35458875 9.76321717 -6.3125 8.6875 C-3.03329204 7.7815783 -3.03329204 7.7815783 -0.9765625 5.2578125 C-0.33284107 3.10938599 -0.33284107 3.10938599 0 0 Z " fill="#D5E7E1" transform="translate(383,344)"/>
<path d="M0 0 C2.97 0 5.94 0 9 0 C9.04898437 0.96421875 9.09796875 1.9284375 9.1484375 2.921875 C9.22320312 4.18515625 9.29796875 5.4484375 9.375 6.75 C9.44460938 8.00296875 9.51421875 9.2559375 9.5859375 10.546875 C9.95966798 13.66364615 10.51488572 15.32679429 12 18 C11.625 20.25 11.625 20.25 11 22 C9.02535864 17.76862566 7.68360952 13.80504552 6.625 9.25 C5.55478162 4.9118808 5.55478162 4.9118808 2.3125 1.875 C1.1678125 1.441875 1.1678125 1.441875 0 1 C0 0.67 0 0.34 0 0 Z " fill="#F2A590" transform="translate(288,208)"/>
<path d="M0 0 C3.66666667 3.66666667 7.33333333 7.33333333 11 11 C12.99990516 11.19989763 12.99990516 11.19989763 15.3125 11.1875 C16.09238281 11.20167969 16.87226563 11.21585938 17.67578125 11.23046875 C20.2032668 10.97984413 21.81718031 10.26373772 24 9 C21.19250773 12.50936534 19.65843933 13.87047095 15.1875 14.75 C9.77810368 14.41191273 6.47657323 10.85220298 3 7 C0 2.78125 0 2.78125 0 0 Z " fill="#DFAD99" transform="translate(251,199)"/>
<path d="M0 0 C1.36952673 2.73905345 1.12621361 4.97087332 1 8 C0.67 8.66 0.34 9.32 0 10 C-0.66 10 -1.32 10 -2 10 C-2 9.34 -2 8.68 -2 8 C-3.32 8 -4.64 8 -6 8 C-6.33 6.35 -6.66 4.7 -7 3 C-3.375 0 -3.375 0 0 0 Z " fill="#F5A084" transform="translate(276,137)"/>
<path d="M0 0 C0 0.66 0 1.32 0 2 C-2.31 2.66 -4.62 3.32 -7 4 C-6.690625 5.175625 -6.38125 6.35125 -6.0625 7.5625 C-5.1069599 11.36432975 -4.48598842 15.11209261 -4 19 C-4.66 19.33 -5.32 19.66 -6 20 C-6.12375 18.9275 -6.2475 17.855 -6.375 16.75 C-6.76096148 13.17001939 -6.76096148 13.17001939 -8.125 10.9375 C-9.45742017 7.98714105 -8.90694037 6.0447284 -8 3 C-5.15391088 0.05576987 -4.24544645 0 0 0 Z " fill="#D6E9E3" transform="translate(388,356)"/>
<path d="M0 0 C0.33 0 0.66 0 1 0 C1.02578125 1.12277344 1.0515625 2.24554688 1.078125 3.40234375 C1.1377993 16.1338132 1.1377993 16.1338132 7 27 C7.04063832 28.66617115 7.042721 30.33388095 7 32 C-0.80765389 22.0223105 -0.47517708 12.11701565 0 0 Z " fill="#E7C3B1" transform="translate(153,384)"/>
<path d="M0 0 C0.66 0 1.32 0 2 0 C2.66 1.32 3.32 2.64 4 4 C4.66 3.34 5.32 2.68 6 2 C6.33 2.99 6.66 3.98 7 5 C7.66 3.35 8.32 1.7 9 0 C9.66 0 10.32 0 11 0 C9.8905928 3.48670834 8.73662334 6.77484237 7 10 C6.01 10 5.02 10 4 10 C3.32845067 8.71086513 2.66291141 7.41859796 2 6.125 C1.62875 5.40570313 1.2575 4.68640625 0.875 3.9453125 C0 2 0 2 0 0 Z " fill="#CFE2DD" transform="translate(99,366)"/>
<path d="M0 0 C2.44800876 3.67201314 3.44921696 7.23580454 4.6875 11.4375 C4.92533203 12.20126953 5.16316406 12.96503906 5.40820312 13.75195312 C5.62798828 14.49251953 5.84777344 15.23308594 6.07421875 15.99609375 C6.27619873 16.66825928 6.47817871 17.3404248 6.6862793 18.03295898 C7.04778485 20.29961285 6.6917026 21.83044526 6 24 C6 23.34 6 22.68 6 22 C5.34 22 4.68 22 4 22 C3.51835812 19.64631607 3.03963352 17.29209845 2.5625 14.9375 C2.42779297 14.28072266 2.29308594 13.62394531 2.15429688 12.94726562 C1.28529368 8.64464005 0.5827508 4.35082876 0 0 Z " fill="#8F9987" transform="translate(297,224)"/>
<path d="M0 0 C2.66648371 3.33105349 4.6669681 6.87197848 6.6875 10.625 C7.62142578 12.34589844 7.62142578 12.34589844 8.57421875 14.1015625 C10 17 10 17 10 19 C7 18 7 18 5.71875 15.890625 C5.3165625 15.01921875 4.914375 14.1478125 4.5 13.25 C3.14789138 10.37779351 1.83647464 7.74381027 0.125 5.0625 C-0.24625 4.381875 -0.6175 3.70125 -1 3 C-0.67 2.01 -0.34 1.02 0 0 Z " fill="#ECB5A2" transform="translate(330,236)"/>
<path d="M0 0 C0.33 0 0.66 0 1 0 C1.90864199 7.00952395 -0.10513943 10.42728004 -4.17578125 16.09375 C-4.77777344 16.7228125 -5.37976563 17.351875 -6 18 C-6.99 18 -7.98 18 -9 18 C-8.67 16.68 -8.34 15.36 -8 14 C-7.34 14 -6.68 14 -6 14 C-6 13.34 -6 12.68 -6 12 C-5.01 11.34 -4.02 10.68 -3 10 C-2.27617533 7.94074861 -2.27617533 7.94074861 -2 6 C-1.34 6 -0.68 6 0 6 C0 4.02 0 2.04 0 0 Z " fill="#989285" transform="translate(309,262)"/>
<path d="M0 0 C0.99 0 1.98 0 3 0 C2 3 2 3 -0.1875 4.6875 C-3.36774916 6.17161628 -5.53214273 6.24194353 -9 6 C-8.67 4.35 -8.34 2.7 -8 1 C-6.576875 1.309375 -6.576875 1.309375 -5.125 1.625 C-4.09375 1.74875 -3.0625 1.8725 -2 2 C-1.34 1.34 -0.68 0.68 0 0 Z " fill="#C8DCD8" transform="translate(215,63)"/>
<path d="M0 0 C0.33 0 0.66 0 1 0 C1.85298376 3.67387495 2.10789471 7.0447393 2.0625 10.8125 C2.05347656 11.78832031 2.04445312 12.76414062 2.03515625 13.76953125 C2.02355469 14.50558594 2.01195312 15.24164063 2 16 C1.67 15.34 1.34 14.68 1 14 C0.01 13.67 -0.98 13.34 -2 13 C-2 11.35 -2 9.7 -2 8 C-1.34 8 -0.68 8 0 8 C0 5.36 0 2.72 0 0 Z " fill="#D49B84" transform="translate(184,389)"/>
<path d="M0 0 C2.1491917 3.22378756 3.024994 5.98414648 4.125 9.6875 C4.47820312 10.86699219 4.83140625 12.04648437 5.1953125 13.26171875 C5.46085938 14.16535156 5.72640625 15.06898438 6 16 C3.03 15.505 3.03 15.505 0 15 C-0.33 14.01 -0.66 13.02 -1 12 C-0.34 11.67 0.32 11.34 1 11 C0.67 7.37 0.34 3.74 0 0 Z " fill="#E1957E" transform="translate(165,406)"/>
<path d="M0 0 C0 0.66 0 1.32 0 2 C-3 4 -3 4 -6.5 4.6875 C-9.97035241 5.59981732 -9.97035241 5.59981732 -11.12109375 7.68359375 C-12.06069444 9.83379188 -12.06069444 9.83379188 -13 13 C-13.33 13 -13.66 13 -14 13 C-14.48554913 6.56647399 -14.48554913 6.56647399 -12.5 4.25 C-4 0 -4 0 0 0 Z " fill="#D5E7E1" transform="translate(382,376)"/>
<path d="M0 0 C0.66 0.33 1.32 0.66 2 1 C1.49339844 1.79664063 1.49339844 1.79664063 0.9765625 2.609375 C-0.29408516 5.71992048 0.01380654 7.92702015 0.375 11.25 C0.48585937 12.32765625 0.59671875 13.4053125 0.7109375 14.515625 C0.80632812 15.33546875 0.90171875 16.1553125 1 17 C-2.21764451 12.17353323 -3.36261136 6.80178176 -3 1 C-2.01 0.67 -1.02 0.34 0 0 Z " fill="#DEAD98" transform="translate(249,180)"/>
<path d="M0 0 C1.875 0.1875 1.875 0.1875 4 1 C5.25 3.5625 5.25 3.5625 6 6 C3.625 7.0625 3.625 7.0625 1 8 C0.34 7.67 -0.32 7.34 -1 7 C-0.67 4.69 -0.34 2.38 0 0 Z " fill="#41474A" transform="translate(339,162)"/>
<path d="M0 0 C1.25127906 3.54667178 0.72285053 5.72253438 -0.4375 9.25 C-0.72496094 10.14203125 -1.01242188 11.0340625 -1.30859375 11.953125 C-1.53675781 12.62859375 -1.76492187 13.3040625 -2 14 C-2.66 14 -3.32 14 -4 14 C-4 15.65 -4 17.3 -4 19 C-4.66 19 -5.32 19 -6 19 C-5.39124245 14.39583374 -4.15277044 10.43516676 -2.4375 6.125 C-1.75494141 4.39636719 -1.75494141 4.39636719 -1.05859375 2.6328125 C-0.70925781 1.76398438 -0.35992187 0.89515625 0 0 Z " fill="#E9B8A7" transform="translate(157,249)"/>
<path d="M0 0 C1.98 0 3.96 0 6 0 C4.45454854 5.47932789 1.84456788 10.11429181 -1 15 C-2.39195915 10.82412255 -0.82323219 8.86525224 1 5 C1.66 5 2.32 5 3 5 C3 3.68 3 2.36 3 1 C2.01 0.67 1.02 0.34 0 0 Z " fill="#D9A998" transform="translate(188,258)"/>
<path d="M0 0 C0.33 0 0.66 0 1 0 C1 9.5 1 9.5 -1 13 C-2.65 11.35 -4.3 9.7 -6 8 C-4.7934375 7.13375 -4.7934375 7.13375 -3.5625 6.25 C-1.02133261 4.01873107 -0.34879632 3.25543229 0 0 Z " fill="#C7DADA" transform="translate(358,136)"/>
<path d="M0 0 C0 1.32 0 2.64 0 4 C-7.625 5.25 -7.625 5.25 -11 3 C-10.67 2.34 -10.34 1.68 -10 1 C-6.6322481 0.06451336 -3.4815554 -0.09947301 0 0 Z " fill="#C3D8D2" transform="translate(421,100)"/>
<path d="M0 0 C0.33 0.66 0.66 1.32 1 2 C0.21625 2.61875 -0.5675 3.2375 -1.375 3.875 C-3.96837647 5.89858661 -3.96837647 5.89858661 -6 8 C-6.99 8 -7.98 8 -9 8 C-9.66 9.32 -10.32 10.64 -11 12 C-11.66 11.67 -12.32 11.34 -13 11 C-4.5 2.25 -4.5 2.25 0 0 Z " fill="#84A39D" transform="translate(196,183)"/>
<path d="M0 0 C0.33 0.66 0.66 1.32 1 2 C0.3503125 2.8353125 0.3503125 2.8353125 -0.3125 3.6875 C-2.07927912 6.0028677 -2.07927912 6.0028677 -3.5 8.75 C-4.2425 9.86375 -4.2425 9.86375 -5 11 C-5.99 11 -6.98 11 -8 11 C-6.52670958 5.99081256 -3.72484762 3.48192278 0 0 Z " fill="#4E5E60" transform="translate(289,114)"/>
<path d="M0 0 C-3.27672915 2.90292752 -5.95282609 3.58029064 -10.25 4.1875 C-11.32765625 4.34605469 -12.4053125 4.50460937 -13.515625 4.66796875 C-14.33546875 4.77753906 -15.1553125 4.88710938 -16 5 C-16 4.34 -16 3.68 -16 3 C-14.27318563 2.49193553 -12.54342021 1.99389533 -10.8125 1.5 C-9.84957031 1.2215625 -8.88664063 0.943125 -7.89453125 0.65625 C-5.14654124 0.03322392 -2.80401584 -0.12302812 0 0 Z " fill="#698E86" transform="translate(264,279)"/>
<path d="M0 0 C0.66 0 1.32 0 2 0 C1.67 1.65 1.34 3.3 1 5 C0.34 5 -0.32 5 -1 5 C-1 5.99 -1 6.98 -1 8 C-1.66 8 -2.32 8 -3 8 C-3 9.65 -3 11.3 -3 13 C-3.99 13.33 -4.98 13.66 -6 14 C-4.7023817 8.70139194 -2.84984298 4.65474354 0 0 Z " fill="#7D877B" transform="translate(194,258)"/>
<path d="M0 0 C4.875 1.875 4.875 1.875 6 3 C8.32817964 3.36760731 10.6618385 3.70241581 13 4 C13 4.66 13 5.32 13 6 C5.78287462 6.48929664 5.78287462 6.48929664 2 4.125 C0 2 0 2 0 0 Z " fill="#CB8D7C" transform="translate(179,252)"/>
<path d="M0 0 C2 3 2 3 1.625 5.6875 C1.41875 6.450625 1.2125 7.21375 1 8 C-0.32 7.67 -1.64 7.34 -3 7 C-3.33 5.68 -3.66 4.36 -4 3 C-2.68 2.01 -1.36 1.02 0 0 Z " fill="#E9F5F3" transform="translate(332,94)"/>
<path d="M0 0 C0.78375 0.185625 1.5675 0.37125 2.375 0.5625 C4.97089775 1.25962266 4.97089775 1.25962266 7 0 C7 1.32 7 2.64 7 4 C6.34 4 5.68 4 5 4 C4.67 5.65 4.34 7.3 4 9 C3.01 8.01 2.02 7.02 1 6 C1.66 4.35 2.32 2.7 3 1 C2.01 0.67 1.02 0.34 0 0 Z " fill="#C5DDD5" transform="translate(389,103)"/>
<path d="M0 0 C0 3.52100905 -0.58328868 4.10031314 -2.8125 6.6875 C-3.59560547 7.62142578 -3.59560547 7.62142578 -4.39453125 8.57421875 C-6 10 -6 10 -9 10 C-8.25 8.0625 -8.25 8.0625 -7 6 C-5.66666667 5.66666667 -4.33333333 5.33333333 -3 5 C-1.77472052 3.04978917 -1.77472052 3.04978917 -1 1 C-0.67 0.67 -0.34 0.34 0 0 Z " fill="#F0B09C" transform="translate(265,165)"/>
<path d="M0 0 C2.31005869 2.31005869 2.72174103 3.83083657 3.625 6.9375 C3.88539063 7.81277344 4.14578125 8.68804687 4.4140625 9.58984375 C5 12 5 12 5 15 C4.01 14.67 3.02 14.34 2 14 C1.66179834 12.4176994 1.32964061 10.83410625 1 9.25 C0.814375 8.36828125 0.62875 7.4865625 0.4375 6.578125 C0 4 0 4 0 0 Z " fill="#E49780" transform="translate(158,402)"/>
<path d="M0 0 C0.556875 0.226875 1.11375 0.45375 1.6875 0.6875 C1.0625 2.625 1.0625 2.625 -0.3125 4.6875 C-3.4375 5.4375 -3.4375 5.4375 -6.3125 5.6875 C-6.6425 4.6975 -6.9725 3.7075 -7.3125 2.6875 C-2.88173077 -0.38942308 -2.88173077 -0.38942308 0 0 Z " fill="#CBE6DF" transform="translate(348.3125,170.3125)"/>
<path d="M0 0 C1.32 0 2.64 0 4 0 C4 4.62 4 9.24 4 14 C3.67 14 3.34 14 3 14 C2.01 9.38 1.02 4.76 0 0 Z " fill="#605A56" transform="translate(183,386)"/>
<path d="M0 0 C1.485 0.99 1.485 0.99 3 2 C3.38749213 4.32495277 3.71758117 6.6599583 4 9 C4.37125 9.721875 4.7425 10.44375 5.125 11.1875 C6 13 6 13 5.625 15.25 C5.41875 15.8275 5.2125 16.405 5 17 C2.33961901 11.4373852 1.03767051 6.06732052 0 0 Z " fill="#D9AC98" transform="translate(294,213)"/>
<path d="M0 0 C0.66 0 1.32 0 2 0 C2 1.32 2 2.64 2 4 C2.66 4 3.32 4 4 4 C4 4.66 4 5.32 4 6 C3.4225 5.7525 2.845 5.505 2.25 5.25 C1.5075 5.1675 0.765 5.085 0 5 C-2.27144074 6.85432087 -2.27144074 6.85432087 -4 9 C-3.34 6.69 -2.68 4.38 -2 2 C-1.34 2 -0.68 2 0 2 C0 1.34 0 0.68 0 0 Z " fill="#919186" transform="translate(280,199)"/>
<path d="M0 0 C0.66 0.33 1.32 0.66 2 1 C2.125 6.75 2.125 6.75 1 9 C0.34 9 -0.32 9 -1 9 C-1 8.34 -1 7.68 -1 7 C-2.32 6.67 -3.64 6.34 -5 6 C-4.175 5.566875 -3.35 5.13375 -2.5 4.6875 C-1.2625 3.8521875 -1.2625 3.8521875 0 3 C0 2.01 0 1.02 0 0 Z " fill="#EB8D72" transform="translate(275,138)"/>
<path d="M0 0 C0 0.99 0 1.98 0 3 C-7.38461538 4.35384615 -7.38461538 4.35384615 -10.5 2.5625 C-10.995 2.046875 -11.49 1.53125 -12 1 C-10.56274129 0.83126522 -9.12518162 0.66509263 -7.6875 0.5 C-6.88699219 0.4071875 -6.08648437 0.314375 -5.26171875 0.21875 C-3 0 -3 0 0 0 Z " fill="#465657" transform="translate(276,358)"/>
<path d="M0 0 C3 1 3 1 4.1875 2.875 C5 5 5 5 5 8 C5.99 8.33 6.98 8.66 8 9 C6.35 8.67 4.7 8.34 3 8 C2.67 6.68 2.34 5.36 2 4 C1.34 4 0.68 4 0 4 C0 2.68 0 1.36 0 0 Z " fill="#D4937E" transform="translate(282,199)"/>
<path d="M0 0 C0.66 1.32 1.32 2.64 2 4 C2.66 4 3.32 4 4 4 C4.33 5.98 4.66 7.96 5 10 C3.02 8.35 1.04 6.7 -1 5 C-0.67 3.35 -0.34 1.7 0 0 Z " fill="#62605D" transform="translate(277,129)"/>
<path d="M0 0 C1.875 0.125 1.875 0.125 4 1 C5.25 4.0625 5.25 4.0625 6 7 C4.125 6.875 4.125 6.875 2 6 C0.75 2.9375 0.75 2.9375 0 0 Z " fill="#5C5351" transform="translate(160,416)"/>
<path d="M0 0 C2 2 2 2 2.125 5.125 C2.08375 6.07375 2.0425 7.0225 2 8 C0.68 7.34 -0.64 6.68 -2 6 C-1.49396008 3.83125748 -1.00016187 2.00032373 0 0 Z " fill="#EBAC97" transform="translate(173,417)"/>
<path d="M0 0 C-0.66 1.32 -1.32 2.64 -2 4 C-3.65 4 -5.3 4 -7 4 C-6.67 3.01 -6.34 2.02 -6 1 C-4 0 -4 0 0 0 Z " fill="#CEDFDC" transform="translate(84,256)"/>
<path d="M0 0 C0.33 0.99 0.66 1.98 1 3 C-0.70828921 5.10633718 -1.52148416 5.93801608 -4.26171875 6.29296875 C-5.06222656 6.25816406 -5.86273438 6.22335938 -6.6875 6.1875 C-7.49574219 6.16042969 -8.30398438 6.13335937 -9.13671875 6.10546875 C-9.75160156 6.07066406 -10.36648438 6.03585938 -11 6 C-11 5.67 -11 5.34 -11 5 C-9.1128125 4.5978125 -9.1128125 4.5978125 -7.1875 4.1875 C-4.00551199 3.40467463 -1.99755689 2.74664072 0 0 Z " fill="#9B9988" transform="translate(275,208)"/>
<path d="M0 0 C0.33 0.99 0.66 1.98 1 3 C-1.31 4.65 -3.62 6.3 -6 8 C-6.33 6.68 -6.66 5.36 -7 4 C-6.01 4 -5.02 4 -4 4 C-3.67 3.34 -3.34 2.68 -3 2 C-2.01 1.34 -1.02 0.68 0 0 Z " fill="#D6EEE9" transform="translate(193,182)"/>
<path d="M0 0 C2.46278801 2.46278801 2.99771255 4.70676982 4 8 C3.34 8 2.68 8 2 8 C1.67 9.32 1.34 10.64 1 12 C0.01751476 7.9472484 -0.08159574 4.16138263 0 0 Z " fill="#8F695A" transform="translate(179,398)"/>
<path d="M0 0 C0.66 0 1.32 0 2 0 C2 0.99 2 1.98 2 3 C3.32 3.33 4.64 3.66 6 4 C6.33 5.32 6.66 6.64 7 8 C3.46399535 6.08864614 1.21027154 4.37357234 -1 1 C-0.67 0.67 -0.34 0.34 0 0 Z " fill="#E6A696" transform="translate(305,281)"/>
<path d="M0 0 C1 2 1 2 0.0625 5.125 C-0.288125 6.07375 -0.63875 7.0225 -1 8 C-1.66 8 -2.32 8 -3 8 C-3 7.01 -3 6.02 -3 5 C-3.66 4.67 -4.32 4.34 -5 4 C-3.35 2.68 -1.7 1.36 0 0 Z " fill="#EC9079" transform="translate(310,276)"/>
<path d="M0 0 C0.99 0 1.98 0 3 0 C3 2.31 3 4.62 3 7 C2.01 7.495 2.01 7.495 1 8 C-0.35439668 5.29120665 -0.06501451 2.99066732 0 0 Z " fill="#D7E5DE" transform="translate(264,155)"/>
<path d="M0 0 C0.99 0.99 1.98 1.98 3 3 C2.01 5.97 1.02 8.94 0 12 C-0.33 12 -0.66 12 -1 12 C-0.67 8.04 -0.34 4.08 0 0 Z " fill="#DAA898" transform="translate(279,136)"/>
<path d="M0 0 C0.33 0 0.66 0 1 0 C1 3.96 1 7.92 1 12 C-0.32 11.67 -1.64 11.34 -3 11 C-3 10.34 -3 9.68 -3 9 C-2.01 9 -1.02 9 0 9 C0 6.03 0 3.06 0 0 Z " fill="#D9A89A" transform="translate(180,410)"/>
<path d="M0 0 C2.52259061 1.97420135 2.9929808 2.96745642 3.6875 6.1875 C3.790625 7.115625 3.89375 8.04375 4 9 C3.34 9 2.68 9 2 9 C0.14223235 5.86501708 -0.20140476 3.62528568 0 0 Z " fill="#4D4242" transform="translate(181,377)"/>
<path d="M0 0 C2 2 2 2 2.125 5.625 C2.08375 6.73875 2.0425 7.8525 2 9 C0.02 9.99 0.02 9.99 -2 11 C-1.649375 10.46375 -1.29875 9.9275 -0.9375 9.375 C0.28646371 6.27429192 -0.35693748 4.21531261 -1 1 C-0.67 0.67 -0.34 0.34 0 0 Z " fill="#D2E5DF" transform="translate(370,366)"/>
<path d="M0 0 C0.33 1.65 0.66 3.3 1 5 C-0.32 5.33 -1.64 5.66 -3 6 C-3.33 4.35 -3.66 2.7 -4 1 C-2 0 -2 0 0 0 Z " fill="#D4E5E4" transform="translate(88,230)"/>
<path d="M0 0 C4.42857143 5.14285714 4.42857143 5.14285714 5 9 C3.0625 8.4375 3.0625 8.4375 1 7 C0.25 3.375 0.25 3.375 0 0 Z " fill="#ECB7A5" transform="translate(320,219)"/>
<path d="M0 0 C0.66 0.33 1.32 0.66 2 1 C0.75023244 4.65316671 0.32901247 5.78065836 -3 8 C-3.33 6.02 -3.66 4.04 -4 2 C-2.125 0.9375 -2.125 0.9375 0 0 Z " fill="#C4DBD6" transform="translate(337,176)"/>
<path d="M0 0 C0.66 0.33 1.32 0.66 2 1 C1.67 1.99 1.34 2.98 1 4 C0.01 4.33 -0.98 4.66 -2 5 C-2.99 6.485 -2.99 6.485 -4 8 C-4.99 7.67 -5.98 7.34 -7 7 C-4.69 4.69 -2.38 2.38 0 0 Z " fill="#514945" transform="translate(334,172)"/>
<path d="M0 0 C0.33 0.66 0.66 1.32 1 2 C1.99 2.33 2.98 2.66 4 3 C1.3333581 4.33332095 -0.16680303 3.67102033 -3 3 C-3.33 3.99 -3.66 4.98 -4 6 C-4.99 6 -5.98 6 -7 6 C-7 5.34 -7 4.68 -7 4 C-4 2 -4 2 0 2 C0 1.34 0 0.68 0 0 Z " fill="#DCAF9E" transform="translate(275,132)"/>
<path d="M0 0 C0.99 0.66 1.98 1.32 3 2 C3.1875 5.125 3.1875 5.125 3 8 C0.47411298 5.63707344 -0.88820837 4.33537489 -2 1 C-1.34 0.67 -0.68 0.34 0 0 Z " fill="#C9DADA" transform="translate(340,121)"/>
<path d="M0 0 C1.65 1.32 3.3 2.64 5 4 C4.01 4 3.02 4 2 4 C1.67 4.99 1.34 5.98 1 7 C-0.32 6.67 -1.64 6.34 -3 6 C-2.34 6 -1.68 6 -1 6 C-0.67 4.02 -0.34 2.04 0 0 Z " fill="#796761" transform="translate(176,419)"/>
<path d="M0 0 C1 3 1 3 0.22265625 5.04296875 C-0.16019531 5.75066406 -0.54304687 6.45835937 -0.9375 7.1875 C-1.31777344 7.90292969 -1.69804687 8.61835938 -2.08984375 9.35546875 C-2.54037109 10.16951172 -2.54037109 10.16951172 -3 11 C-3.33 11 -3.66 11 -4 11 C-4 9.35 -4 7.7 -4 6 C-3.34 6 -2.68 6 -2 6 C-2 4.35 -2 2.7 -2 1 C-1.34 0.67 -0.68 0.34 0 0 Z " fill="#DFAB96" transform="translate(183,277)"/>
<path d="M0 0 C4.455 2.97 4.455 2.97 9 6 C7.68 6.33 6.36 6.66 5 7 C5 6.34 5 5.68 5 5 C3.35 4.67 1.7 4.34 0 4 C0 2.68 0 1.36 0 0 Z " fill="#D99E8D" transform="translate(326,154)"/>
<path d="M0 0 C0.66 0 1.32 0 2 0 C2.99 1.98 3.98 3.96 5 6 C4.01 7.485 4.01 7.485 3 9 C0 3.375 0 3.375 0 0 Z " fill="#61514E" transform="translate(177,371)"/>
<path d="M0 0 C0.33 0 0.66 0 1 0 C1.125 3.375 1.125 3.375 1 7 C0.34 7.66 -0.32 8.32 -1 9 C-1.99 8.67 -2.98 8.34 -4 8 C-3.2884375 7.13375 -3.2884375 7.13375 -2.5625 6.25 C-1.0515133 4.07417916 -0.45963849 2.57397552 0 0 Z " fill="#D38C7E" transform="translate(310,266)"/>
<path d="M0 0 C2.97 0.495 2.97 0.495 6 1 C6 1.66 6 2.32 6 3 C7.65 3 9.3 3 11 3 C11 3.33 11 3.66 11 4 C4.6 4.49230769 4.6 4.49230769 1.5625 2 C1.046875 1.34 0.53125 0.68 0 0 Z " fill="#898F84" transform="translate(181,252)"/>
<path d="M0 0 C2 2 2 2 2.125 5.125 C2.08375 6.07375 2.0425 7.0225 2 8 C1.34 8 0.68 8 0 8 C-0.38063221 5.6739143 -0.71269945 3.33944736 -1 1 C-0.67 0.67 -0.34 0.34 0 0 Z " fill="#E3947F" transform="translate(309,194)"/>
<path d="M0 0 C0.66 0 1.32 0 2 0 C2.433125 0.9590625 2.433125 0.9590625 2.875 1.9375 C3.82823451 4.15206079 3.82823451 4.15206079 6 5 C5.67 5.99 5.34 6.98 5 8 C3.02 5.69 1.04 3.38 -1 1 C-0.67 0.67 -0.34 0.34 0 0 Z " fill="#5A504C" transform="translate(321,146)"/>
</svg>
