<?xml version="1.0" encoding="UTF-8"?>
<svg version="1.1" xmlns="http://www.w3.org/2000/svg" width="500" height="500">
<path d="M0 0 C0 1.32 0 2.64 0 4 C-0.66 4 -1.32 4 -2 4 C-2 4.66 -2 5.32 -2 6 C-2.56589844 6.24234375 -3.13179687 6.4846875 -3.71484375 6.734375 C-4.44832031 7.06953125 -5.18179688 7.4046875 -5.9375 7.75 C-6.66839844 8.07484375 -7.39929688 8.3996875 -8.15234375 8.734375 C-10.50049502 10.3428338 -10.38217625 11.30081919 -11 14 C-12.63671875 15.81640625 -12.63671875 15.81640625 -14.6875 17.5625 C-15.35136719 18.14128906 -16.01523437 18.72007812 -16.69921875 19.31640625 C-19 21 -19 21 -21.9921875 22.16796875 C-26.32747819 24.8085549 -27.48749973 28.18852791 -29.4375 32.75 C-29.81801514 33.59675293 -30.19853027 34.44350586 -30.59057617 35.31591797 C-31.36736623 37.04497044 -32.13701736 38.77724825 -32.89941406 40.51269531 C-34.47730008 44.07868972 -36.14532368 47.60013922 -37.8125 51.125 C-38.8825859 53.41313429 -39.94488177 55.7049253 -41 58 C-41.36174316 58.62092529 -41.72348633 59.24185059 -42.09619141 59.8815918 C-46.024651 67.17007608 -45.23184378 74.56672765 -44.75 82.5625 C-44.68158151 83.96670028 -44.6151594 85.37099931 -44.55078125 86.77539062 C-44.38674122 90.18507975 -44.20263848 93.59242359 -44 97 C-43.01 97.33 -42.02 97.66 -41 98 C-39.64332577 92.47639777 -38.75846991 87.0934813 -38.125 81.4375 C-37.17903635 73.95237493 -35.1699487 69.25492304 -31 63 C-30.34 63 -29.68 63 -29 63 C-29 62.34 -29 61.68 -29 61 C-28.34 61 -27.68 61 -27 61 C-27 60.34 -27 59.68 -27 59 C-25.4861211 58.31768838 -23.96341994 57.6549403 -22.4375 57 C-21.59058594 56.62875 -20.74367187 56.2575 -19.87109375 55.875 C-13.62735921 53.97214757 -8.12807966 55.23806518 -2.0625 57 C-1.37865234 57.19078125 -0.69480469 57.3815625 0.00976562 57.578125 C1.67544526 58.04404937 3.33806675 58.52088411 5 59 C5 59.66 5 60.32 5 61 C6.32 61.66 7.64 62.32 9 63 C9 63.66 9 64.32 9 65 C9.66 65 10.32 65 11 65 C15.38203233 75.58991147 14.99953619 85.63219973 11.68359375 96.484375 C9.69478418 103.8031942 11.19646564 108.86543039 14.16796875 115.6484375 C16.0360592 120.92820488 13.83986657 125.97103137 12 131 C12.75410156 131.70640625 13.50820313 132.4128125 14.28515625 133.140625 C20.74492902 139.94429934 24.23858544 149.04093344 27.4375 157.75 C27.696521 158.43416992 27.95554199 159.11833984 28.22241211 159.82324219 C29.7648865 164.23938926 30.10537569 167.90472875 29.96069336 172.55859375 C30.0534098 178.31737881 31.54210661 184.01798066 32.66601562 189.6484375 C33.6752757 195.00282778 34.53970596 199.6483348 33 205 C31.109375 207.51171875 31.109375 207.51171875 28.75 209.6875 C27.94175781 210.44289063 27.13351562 211.19828125 26.30078125 211.9765625 C23.92439145 214.06649445 21.54246606 216.11365421 19 218 C21.12524232 219.06262116 22.66163735 219.30613707 25.0078125 219.61328125 C25.8220166 219.72478516 26.6362207 219.83628906 27.47509766 219.95117188 C28.34956543 220.07041016 29.2240332 220.18964844 30.125 220.3125 C39.28393697 221.62303637 48.0857305 223.55431576 57 226 C57.95519531 226.22300781 58.91039062 226.44601562 59.89453125 226.67578125 C64.60706602 227.85572467 67.13712471 229.05227288 70.4921875 232.58203125 C78.34030761 238.85132559 90.01886626 236.60473284 99.49389648 236.27832031 C112.59759214 235.88781663 122.06000711 236.79540923 132 246 C132 246.66 132 247.32 132 248 C133.01126953 248.35578125 133.01126953 248.35578125 134.04296875 248.71875 C137.71609999 250.31027846 140.95454752 252.33514083 144.3125 254.5 C144.95767578 254.90347656 145.60285156 255.30695313 146.26757812 255.72265625 C147.88281262 256.75845742 149.44672883 257.87340548 151 259 C151 259.66 151 260.32 151 261 C151.70382812 261.25136719 152.40765625 261.50273437 153.1328125 261.76171875 C157.46492062 263.63267008 161.15463328 266.31980474 165.0390625 268.9765625 C166.78393585 270.16896935 168.54412315 271.34030445 170.3359375 272.4609375 C172.25 273.6875 172.25 273.6875 175 276 C175 277.65 175 279.3 175 281 C45.64 281 -83.72 281 -217 281 C-217 276 -217 276 -215.26171875 274.21875 C-213.98748047 273.36796875 -213.98748047 273.36796875 -212.6875 272.5 C-211.20443359 271.48873047 -211.20443359 271.48873047 -209.69140625 270.45703125 C-209.11922363 270.07756348 -208.54704102 269.6980957 -207.95751953 269.30712891 C-205.69303177 267.79502271 -203.45386921 266.24877073 -201.21484375 264.69921875 C-182.82537094 252 -182.82537094 252 -180 252 C-180 251.34 -180 250.68 -180 250 C-178.2197028 248.65587562 -176.37266253 247.39963181 -174.5 246.1875 C-172.96859375 245.18783203 -172.96859375 245.18783203 -171.40625 244.16796875 C-170.5694873 243.65339111 -170.5694873 243.65339111 -169.71582031 243.12841797 C-167.96974261 242.03423416 -167.96974261 242.03423416 -166.43261719 240.64111328 C-159.53400296 235.17013436 -150.59797703 236.39693856 -142.25 236.5 C-139.08780037 236.53869492 -135.92798348 236.54496736 -132.765625 236.53125 C-132.0457843 236.55086792 -131.3259436 236.57048584 -130.58428955 236.59069824 C-128.27840093 236.6320673 -128.27840093 236.6320673 -125 236 C-122.578148 233.66444816 -122.578148 233.66444816 -121 231 C-115.22192115 226.77149684 -107.85699337 225.47249537 -101 224 C-100.26136719 223.83999512 -99.52273437 223.67999023 -98.76171875 223.51513672 C-87.55367943 221.10921067 -76.40163017 219.2102289 -65 218 C-64.87681396 216.70312256 -64.75362793 215.40624512 -64.62670898 214.07006836 C-64.18196716 210.05328712 -63.42878606 206.20443142 -62.51768494 202.27146912 C-59.97462398 191.10795909 -59.34855925 180.30529475 -59.42358398 168.8815918 C-59.43751231 165.93489641 -59.40311884 162.9913554 -59.36523438 160.04492188 C-59.31833735 147.99652871 -60.84165712 137.379417 -64.43362427 125.8825531 C-68.75667346 111.51334693 -68.75667346 111.51334693 -66 106 C-65.34 106 -64.68 106 -64 106 C-64.16242188 104.87851563 -64.32484375 103.75703125 -64.4921875 102.6015625 C-65.08336788 97.84914073 -65.15279857 93.15913378 -65.125 88.375 C-65.12016602 87.50053223 -65.11533203 86.62606445 -65.11035156 85.72509766 C-65.08673667 83.14965796 -65.04818042 80.57508943 -65 78 C-64.98743164 77.29875 -64.97486328 76.5975 -64.96191406 75.875 C-64.40612715 53.37130142 -49.01192224 36.24529019 -36 19 C-35.48429443 18.25782227 -34.96858887 17.51564453 -34.43725586 16.75097656 C-33.96296143 16.1731543 -33.48866699 15.59533203 -33 15 C-32.34 15 -31.68 15 -31 15 C-31 14.34 -31 13.68 -31 13 C-30.34 13 -29.68 13 -29 13 C-29 12.34 -29 11.68 -29 11 C-28.34 11 -27.68 11 -27 11 C-27 10.34 -27 9.68 -27 9 C-18.72689604 3.90243089 -9.89516608 -0.39580664 0 0 Z M7 178 C5.31327495 181.37345009 6.100926 185.12879377 6.3125 188.8125 C6.34794922 189.62009766 6.38339844 190.42769531 6.41992188 191.25976562 C6.65570869 195.55671642 7.05126543 199.07866881 9 203 C11.31 201.02 13.62 199.04 16 197 C14.3186083 190.51292846 12.46937673 184.2322365 10 178 C9.01 178 8.02 178 7 178 Z " fill="#C9BFB5" transform="translate(275,123)"/>
<path d="M0 0 C0 1.32 0 2.64 0 4 C-0.66 4 -1.32 4 -2 4 C-2 4.66 -2 5.32 -2 6 C-2.56589844 6.24234375 -3.13179688 6.4846875 -3.71484375 6.734375 C-4.81505859 7.23710937 -4.81505859 7.23710937 -5.9375 7.75 C-6.66839844 8.07484375 -7.39929688 8.3996875 -8.15234375 8.734375 C-10.50049502 10.3428338 -10.38217625 11.30081919 -11 14 C-12.63671875 15.81640625 -12.63671875 15.81640625 -14.6875 17.5625 C-15.35136719 18.14128906 -16.01523437 18.72007812 -16.69921875 19.31640625 C-19 21 -19 21 -21.9921875 22.16796875 C-26.32747819 24.8085549 -27.48749973 28.18852791 -29.4375 32.75 C-29.81801514 33.59675293 -30.19853027 34.44350586 -30.59057617 35.31591797 C-31.36736623 37.04497044 -32.13701736 38.77724825 -32.89941406 40.51269531 C-34.47730008 44.07868972 -36.14532368 47.60013922 -37.8125 51.125 C-38.8825859 53.41313429 -39.94488177 55.7049253 -41 58 C-41.36174316 58.62092529 -41.72348633 59.24185059 -42.09619141 59.8815918 C-46.024651 67.17007608 -45.23184378 74.56672765 -44.75 82.5625 C-44.68158151 83.96670028 -44.6151594 85.37099931 -44.55078125 86.77539062 C-44.38674122 90.18507975 -44.20263848 93.59242359 -44 97 C-42.515 97.495 -42.515 97.495 -41 98 C-39.64332577 92.47639777 -38.75846991 87.0934813 -38.125 81.4375 C-37.17903635 73.95237493 -35.1699487 69.25492304 -31 63 C-30.34 63 -29.68 63 -29 63 C-29 62.34 -29 61.68 -29 61 C-28.34 61 -27.68 61 -27 61 C-27 60.34 -27 59.68 -27 59 C-25.4861211 58.31768838 -23.96341994 57.6549403 -22.4375 57 C-21.59058594 56.62875 -20.74367187 56.2575 -19.87109375 55.875 C-13.62735921 53.97214757 -8.12807966 55.23806518 -2.0625 57 C-1.37865234 57.19078125 -0.69480469 57.3815625 0.00976562 57.578125 C1.67544526 58.04404937 3.33806675 58.52088411 5 59 C5 59.66 5 60.32 5 61 C6.32 61.66 7.64 62.32 9 63 C9 63.66 9 64.32 9 65 C9.66 65 10.32 65 11 65 C15.38203233 75.58991147 14.99953619 85.63219973 11.68359375 96.484375 C9.69478418 103.8031942 11.19646564 108.86543039 14.16796875 115.6484375 C16.0360592 120.92820488 13.83986657 125.97103137 12 131 C12.75410156 131.70640625 13.50820313 132.4128125 14.28515625 133.140625 C20.84065574 140.04512231 24.28297768 149.20816738 27.4375 158.0625 C27.696521 158.78856445 27.95554199 159.51462891 28.22241211 160.26269531 C29.40207252 163.72108869 30 166.30603129 30 170 C23.50087379 175.19930097 15.17721134 177.60571936 7 177 C6.7400084 184.20754479 7.30603716 190.95218227 8.5625 198.0546875 C8.7790625 199.51261719 8.7790625 199.51261719 9 201 C9.12761719 201.82757813 9.25523437 202.65515625 9.38671875 203.5078125 C8.80130186 207.28049914 6.39833518 209.38428996 3.8125 212 C3.32974609 212.50789062 2.84699219 213.01578125 2.34960938 213.5390625 C1.37944703 214.55480295 0.39595784 215.55797921 -0.6003418 216.5480957 C-2.20274566 218.15732804 -2.20274566 218.15732804 -4.15625 220.79296875 C-8.51125888 224.17288636 -12.93317228 224.02684152 -18.3125 224.3125 C-19.33923828 224.38533203 -20.36597656 224.45816406 -21.42382812 224.53320312 C-23.94858869 224.70934921 -26.47280106 224.86421116 -29 225 C-29 225.66 -29 226.32 -29 227 C-27.02 227.33 -25.04 227.66 -23 228 C-23 228.33 -23 228.66 -23 229 C-39.55735299 229.55465078 -50.40797582 225.62188856 -65 218 C-64.49039486 212.63498103 -63.73296902 207.51750205 -62.51768494 202.27146912 C-59.97462398 191.10795909 -59.34855925 180.30529475 -59.42358398 168.8815918 C-59.43751231 165.93489641 -59.40311884 162.9913554 -59.36523438 160.04492188 C-59.31833735 147.99652871 -60.84165712 137.379417 -64.43362427 125.8825531 C-68.75667346 111.51334693 -68.75667346 111.51334693 -66 106 C-65.34 106 -64.68 106 -64 106 C-64.16242188 104.87851563 -64.32484375 103.75703125 -64.4921875 102.6015625 C-65.08336788 97.84914073 -65.15279857 93.15913378 -65.125 88.375 C-65.12016602 87.50053223 -65.11533203 86.62606445 -65.11035156 85.72509766 C-65.08673667 83.14965796 -65.04818042 80.57508943 -65 78 C-64.98743164 77.29875 -64.97486328 76.5975 -64.96191406 75.875 C-64.40612715 53.37130142 -49.01192224 36.24529019 -36 19 C-35.48429443 18.25782227 -34.96858887 17.51564453 -34.43725586 16.75097656 C-33.96296143 16.1731543 -33.48866699 15.59533203 -33 15 C-32.34 15 -31.68 15 -31 15 C-31 14.34 -31 13.68 -31 13 C-30.34 13 -29.68 13 -29 13 C-29 12.34 -29 11.68 -29 11 C-28.34 11 -27.68 11 -27 11 C-27 10.34 -27 9.68 -27 9 C-18.72689604 3.90243089 -9.89516608 -0.39580664 0 0 Z " fill="#7FA495" transform="translate(275,123)"/>
<path d="M0 0 C0 1.74483102 -0.00770601 3.48975992 -0.03515625 5.234375 C-0.09001418 10.28130495 0.13508678 15.02674896 1 20 C0.34 20.33 -0.32 20.66 -1 21 C-1 21.99 -1 22.98 -1 24 C1.66269983 24.80743907 4.32906631 25.59561279 7 26.375 C8.08667969 26.70757812 8.08667969 26.70757812 9.1953125 27.046875 C55.20839397 40.30488152 114.17186618 35.08663435 161.5 31.125 C162.53930664 31.03804871 163.57861328 30.95109741 164.64941406 30.86151123 C167.56963599 30.60994755 170.48812129 30.34503012 173.40625 30.0703125 C174.65492859 29.95450836 174.65492859 29.95450836 175.92883301 29.83636475 C184.36740539 28.98269471 192.31058721 27.67754525 200 24 C200 23.34 200 22.68 200 22 C199.01 21.34 198.02 20.68 197 20 C197.33 18.845 197.66 17.69 198 16.5 C199.36670452 11.03318191 199.81435177 5.4430553 198 0 C198.66 0.33 199.32 0.66 200 1 C202.96998958 1.04808483 205.92163931 1.03956895 208.890625 1 C210.73437509 0.99883976 212.57812821 1.00022907 214.421875 1.00390625 C217.318924 1.00828981 220.21275198 1.00066787 223.109375 0.94873047 C236.25094706 0.73318328 246.04875113 1.78039841 256 11 C256 11.66 256 12.32 256 13 C257.01126953 13.35578125 257.01126953 13.35578125 258.04296875 13.71875 C261.71609999 15.31027846 264.95454752 17.33514083 268.3125 19.5 C268.95767578 19.90347656 269.60285156 20.30695313 270.26757812 20.72265625 C271.88281262 21.75845742 273.44672883 22.87340548 275 24 C275 24.66 275 25.32 275 26 C275.70382812 26.25136719 276.40765625 26.50273437 277.1328125 26.76171875 C281.46492062 28.63267008 285.15463328 31.31980474 289.0390625 33.9765625 C290.78393585 35.16896935 292.54412315 36.34030445 294.3359375 37.4609375 C296.25 38.6875 296.25 38.6875 299 41 C299 42.65 299 44.3 299 46 C169.64 46 40.28 46 -93 46 C-93 41 -93 41 -91.26171875 39.21875 C-90.41222656 38.6515625 -89.56273437 38.084375 -88.6875 37.5 C-87.69878906 36.82582031 -86.71007812 36.15164063 -85.69140625 35.45703125 C-85.11922363 35.07756348 -84.54704102 34.6980957 -83.95751953 34.30712891 C-81.69303177 32.79502271 -79.45386921 31.24877073 -77.21484375 29.69921875 C-58.82537094 17 -58.82537094 17 -56 17 C-56 16.34 -56 15.68 -56 15 C-54.2197028 13.65587562 -52.37266253 12.39963181 -50.5 11.1875 C-49.4790625 10.52105469 -48.458125 9.85460937 -47.40625 9.16796875 C-46.56912476 8.65290771 -46.56912476 8.65290771 -45.71508789 8.12744141 C-43.97130706 7.03485887 -43.97130706 7.03485887 -42.43920898 5.64990234 C-35.49811776 0.15638685 -26.46888854 1.25168549 -18.0625 1.25 C-15.62988988 1.22838534 -13.19748933 1.20000066 -10.76499939 1.16766357 C-9.25820423 1.14989067 -7.75129853 1.13961729 -6.24440002 1.13751221 C-2.83457777 1.4260065 -2.83457777 1.4260065 0 0 Z " fill="#E4E4E4" transform="translate(151,358)"/>
<path d="M0 0 C44.78247734 4.11046893 44.78247734 4.11046893 57 15 C59.87859612 19.63078506 59.57542725 25.0881397 58.546875 30.29296875 C58.07282563 32.20609658 57.54147115 34.10485096 57 36 C57.99 36.66 58.98 37.32 60 38 C59 41 59 41 56.0625 42.5625 C48.55919502 45.49710109 40.37506268 46.33127405 32.40625 47.0703125 C31.03237122 47.19965179 31.03237122 47.19965179 29.6307373 47.331604 C26.58812079 47.60888991 23.54458733 47.87028133 20.5 48.125 C19.43620117 48.21404602 18.37240234 48.30309204 17.27636719 48.39483643 C-87.82856087 56.88333641 -87.82856087 56.88333641 -132 44 C-132 43.01 -132 42.02 -132 41 C-124.44840172 41.89595234 -124.44840172 41.89595234 -121.90985107 42.48500061 C-118.01402536 43.17450252 -114.15239709 43.36903748 -110.20410156 43.55639648 C-109.32952427 43.59857772 -108.45494698 43.64075895 -107.55386734 43.68421841 C-96.61639707 44.16382536 -85.6800089 44.12475587 -74.734375 44.09765625 C-72.47609489 44.09578539 -70.21781436 44.09436465 -67.95953369 44.09336853 C-62.08747182 44.08959588 -56.21543567 44.07981211 -50.34338379 44.06866455 C-44.32267606 44.05833586 -38.30196408 44.05384665 -32.28125 44.04882812 C-20.52082219 44.03818375 -8.76041325 44.02117255 3 44 C2.01 41.03 2.01 41.03 1 38 C1.99 38.66 2.98 39.32 4 40 C4 40.99 4 41.98 4 43 C8.27101628 42.859247 12.54176247 42.71145337 16.8125 42.5625 C18.00810547 42.52318359 19.20371094 42.48386719 20.43554688 42.44335938 C27.65374956 42.18767372 34.81578561 41.74940928 42 41 C41.39639648 40.98018066 40.79279297 40.96036133 40.17089844 40.93994141 C11.33896276 39.94516818 11.33896276 39.94516818 0.12109375 34.42578125 C-3.71768774 32.67214515 -7.63536933 31.3043099 -11.625 29.9375 C-17.56706915 27.89405576 -23.31187472 25.68893195 -29 23 C-26.27189954 21.18126636 -25.08218318 20.64742409 -22.01953125 20.0390625 C-18.54084735 19.32271857 -15.08882054 18.54643104 -11.63671875 17.7109375 C4.37848642 14.0352503 19.60914486 13.40165922 36 14 C36 13.34 36 12.68 36 12 C21.6422527 10.17679399 8.24103868 10.79028652 -5.953125 13.34375 C-9.00900638 13.88252798 -11.88636937 14.14945427 -15 14 C-11.53132314 10.31453083 -7.86753649 7.30171383 -3.76953125 4.33203125 C-1.88439805 2.97751485 -1.88439805 2.97751485 0 1 C0 0.67 0 0.34 0 0 Z " fill="#C9BDB3" transform="translate(292,342)"/>
<path d="M0 0 C0.68384766 0.19078125 1.36769531 0.3815625 2.07226562 0.578125 C3.73794526 1.04404937 5.40056675 1.52088411 7.0625 2 C7.0625 2.66 7.0625 3.32 7.0625 4 C8.3825 4.66 9.7025 5.32 11.0625 6 C11.0625 6.66 11.0625 7.32 11.0625 8 C11.7225 8 12.3825 8 13.0625 8 C17.33797293 18.3323929 17.3687648 29.10004123 14.05078125 39.77734375 C12.6694398 42.88399706 11.05653586 44.42813117 8.0625 46 C7.0725 46 6.0825 46 5.0625 46 C4.85625 46.70125 4.65 47.4025 4.4375 48.125 C2.6690146 51.82274221 0.25009386 54.43694743 -2.9375 57 C-4.4225 57.495 -4.4225 57.495 -5.9375 58 C-5.99197047 59.41623216 -6.03050508 60.83308191 -6.0625 62.25 C-6.08570313 63.03890625 -6.10890625 63.8278125 -6.1328125 64.640625 C-5.9203378 67.20731941 -5.22404105 68.7916067 -3.9375 71 C-9.77022395 78.45292505 -9.77022395 78.45292505 -15.0859375 79.37109375 C-19.22520068 79.49454546 -22.05961901 79.39741725 -25.375 76.75 C-28.69945753 73.18228948 -29.8747461 71.63160141 -30.0625 66.75 C-30.02125 65.8425 -29.98 64.935 -29.9375 64 C-27.9575 63.505 -27.9575 63.505 -25.9375 63 C-24.57709176 55.65083812 -24.92956933 52.24765663 -28.9375 46 C-29.52450985 43.63332538 -29.73821396 41.44125393 -29.9375 39 C-31.2575 38.67 -32.5775 38.34 -33.9375 38 C-36.71668801 29.66243597 -36.95668223 20.40691673 -33 12.375 C-31.68605023 10.22490038 -30.33523359 8.09660038 -28.9375 6 C-28.2775 6 -27.6175 6 -26.9375 6 C-26.9375 5.34 -26.9375 4.68 -26.9375 4 C-26.2775 4 -25.6175 4 -24.9375 4 C-24.9375 3.34 -24.9375 2.68 -24.9375 2 C-23.4236211 1.31768838 -21.90091994 0.6549403 -20.375 0 C-19.52808594 -0.37125 -18.68117187 -0.7425 -17.80859375 -1.125 C-11.56485921 -3.02785243 -6.06557966 -1.76193482 0 0 Z " fill="#F7BFAB" transform="translate(272.9375,180)"/>
<path d="M0 0 C0.65801599 -0.00115384 1.31603199 -0.00230769 1.99398786 -0.0034965 C4.20832414 -0.00615236 6.42258833 -0.00164946 8.63692093 0.00279331 C10.23667106 0.0023574 11.83642113 0.00148212 13.43617082 0.00020415 C17.83955157 -0.00203688 22.2429081 0.00197515 26.64628577 0.00698221 C31.39199941 0.01129211 36.13771163 0.0098399 40.88342667 0.00907993 C49.10816396 0.00855504 57.33289333 0.01169822 65.55762863 0.01731777 C77.44928287 0.02543747 89.34093328 0.02804848 101.23258999 0.02930576 C120.52502295 0.03149554 139.81745169 0.03815362 159.10988235 0.04760838 C177.8530462 0.05678441 196.5962089 0.06386431 215.33937454 0.06811619 C217.07174913 0.06851027 217.07174913 0.06851027 218.83912119 0.06891232 C224.63287422 0.07021734 230.42662726 0.07148105 236.22038031 0.07272422 C284.30155188 0.08309453 332.38271886 0.10071083 380.46388626 0.12304783 C380.46388626 1.77304783 380.46388626 3.42304783 380.46388626 5.12304783 C251.43388626 5.12304783 122.40388626 5.12304783 -10.53611374 5.12304783 C-10.53611374 3.80304783 -10.53611374 2.48304783 -10.53611374 1.12304783 C-6.98870192 0.02569792 -3.70079774 -0.00119689 0 0 Z " fill="#BDBDBD" transform="translate(69.53611373901367,398.8769521713257)"/>
<path d="M0 0 C0 1.32 0 2.64 0 4 C-0.66 4 -1.32 4 -2 4 C-2 4.66 -2 5.32 -2 6 C-2.56589844 6.24234375 -3.13179688 6.4846875 -3.71484375 6.734375 C-4.81505859 7.23710937 -4.81505859 7.23710937 -5.9375 7.75 C-6.66839844 8.07484375 -7.39929688 8.3996875 -8.15234375 8.734375 C-10.50049502 10.3428338 -10.38217625 11.30081919 -11 14 C-12.63671875 15.81640625 -12.63671875 15.81640625 -14.6875 17.5625 C-15.35136719 18.14128906 -16.01523437 18.72007812 -16.69921875 19.31640625 C-19 21 -19 21 -21.9921875 22.16796875 C-26.32747819 24.8085549 -27.48749973 28.18852791 -29.4375 32.75 C-29.81801514 33.59675293 -30.19853027 34.44350586 -30.59057617 35.31591797 C-31.36736623 37.04497044 -32.13701736 38.77724825 -32.89941406 40.51269531 C-34.47730008 44.07868972 -36.14532368 47.60013922 -37.8125 51.125 C-38.8825859 53.41313429 -39.94488177 55.7049253 -41 58 C-41.36174316 58.62092529 -41.72348633 59.24185059 -42.09619141 59.8815918 C-46.024651 67.17007608 -45.23184378 74.56672765 -44.75 82.5625 C-44.68158151 83.96670028 -44.6151594 85.37099931 -44.55078125 86.77539062 C-44.38674122 90.18507975 -44.20263848 93.59242359 -44 97 C-43.34 97 -42.68 97 -42 97 C-43 99 -43 99 -45.00390625 99.7109375 C-45.84824219 99.93007812 -46.69257813 100.14921875 -47.5625 100.375 C-53.60509147 102.08043054 -58.7840688 104.52271253 -64 108 C-64.66 107.34 -65.32 106.68 -66 106 C-65.34 106 -64.68 106 -64 106 C-64.16242188 104.87851563 -64.32484375 103.75703125 -64.4921875 102.6015625 C-65.08336788 97.84914073 -65.15279857 93.15913378 -65.125 88.375 C-65.12016602 87.50053223 -65.11533203 86.62606445 -65.11035156 85.72509766 C-65.08673667 83.14965796 -65.04818042 80.57508943 -65 78 C-64.98743164 77.29875 -64.97486328 76.5975 -64.96191406 75.875 C-64.40612715 53.37130142 -49.01192224 36.24529019 -36 19 C-35.48429443 18.25782227 -34.96858887 17.51564453 -34.43725586 16.75097656 C-33.96296143 16.1731543 -33.48866699 15.59533203 -33 15 C-32.34 15 -31.68 15 -31 15 C-31 14.34 -31 13.68 -31 13 C-30.34 13 -29.68 13 -29 13 C-29 12.34 -29 11.68 -29 11 C-28.34 11 -27.68 11 -27 11 C-27 10.34 -27 9.68 -27 9 C-18.72689604 3.90243089 -9.89516608 -0.39580664 0 0 Z " fill="#F9C1AC" transform="translate(275,123)"/>
<path d="M0 0 C6.24925301 29.55258286 6.24925301 29.55258286 3 36 C0.5606888 38.9008025 -2.21973027 41.4276009 -5 44 C-5.55558594 44.52464844 -6.11117187 45.04929687 -6.68359375 45.58984375 C-9.67154223 48.26735602 -11.97558203 49.6449043 -16 50 C-16 50.66 -16 51.32 -16 52 C-16.99 52.556875 -17.98 53.11375 -19 53.6875 C-21.68343459 55.21242368 -24.28587414 56.82070752 -26.875 58.5 C-33.58169878 62.69492356 -39.9878439 65.66264606 -48 66 C-48.94101563 66.0515625 -49.88203125 66.103125 -50.8515625 66.15625 C-57.1315807 66.34703536 -63.41372205 66.22438371 -69 63 C-69.495 61.515 -69.495 61.515 -70 60 C-62.08 59.505 -62.08 59.505 -54 59 C-55.65 58.34 -57.3 57.68 -59 57 C-58.67 56.01 -58.34 55.02 -58 54 C-57.35450195 53.9498877 -56.70900391 53.89977539 -56.04394531 53.84814453 C-53.11187755 53.61566667 -50.1810073 53.37047186 -47.25 53.125 C-46.23421875 53.04636719 -45.2184375 52.96773438 -44.171875 52.88671875 C-43.1921875 52.80292969 -42.2125 52.71914063 -41.203125 52.6328125 C-40.30239258 52.55949707 -39.40166016 52.48618164 -38.47363281 52.41064453 C-35.9326752 51.9888235 -34.18385345 51.3513534 -32 50 C-31.29628917 48.68584122 -30.63462454 47.34887876 -30 46 C-28.56012188 44.31968682 -27.07670275 42.67615778 -25.5625 41.0625 C-23.24483152 38.59210213 -21.20531397 36.3432348 -19.46484375 33.43359375 C-17.92195543 30.87034196 -16.18196684 29.03148637 -14 27 C-15.58960332 20.76559832 -17.27600901 14.83712355 -20 9 C-20.99 9.33 -21.98 9.66 -23 10 C-22.67 8.68 -22.34 7.36 -22 6 C-20.906875 6.103125 -19.81375 6.20625 -18.6875 6.3125 C-12.84324821 6.35431933 -8.09138853 3.61426515 -3 1 C-1 0 -1 0 0 0 Z " fill="#F7C2AC" transform="translate(304,293)"/>
<path d="M0 0 C0.68384766 0.19078125 1.36769531 0.3815625 2.07226562 0.578125 C3.73794526 1.04404937 5.40056675 1.52088411 7.0625 2 C7.0625 2.66 7.0625 3.32 7.0625 4 C8.3825 4.66 9.7025 5.32 11.0625 6 C11.0625 6.66 11.0625 7.32 11.0625 8 C11.7225 8 12.3825 8 13.0625 8 C16.80219357 17.0375928 17.28975453 26.44435961 15.0625 36 C14.0725 36.33 13.0825 36.66 12.0625 37 C11.0725 36.01 10.0825 35.02 9.0625 34 C8.5675 34.99 8.5675 34.99 8.0625 36 C7.84335937 35.31035156 7.62421875 34.62070313 7.3984375 33.91015625 C5.13212348 27.19412812 2.27886892 21.69209805 -1.9375 16 C-2.32421875 16.49371094 -2.7109375 16.98742187 -3.109375 17.49609375 C-3.63015625 18.13675781 -4.1509375 18.77742188 -4.6875 19.4375 C-5.19796875 20.07558594 -5.7084375 20.71367187 -6.234375 21.37109375 C-8.13417629 23.18810554 -9.37336908 23.60423197 -11.9375 24 C-10.6175 22.35 -9.2975 20.7 -7.9375 19 C-8.989375 19.7425 -10.04125 20.485 -11.125 21.25 C-16.98798538 24.91436586 -24.82457825 28.56615117 -31.83203125 27.6015625 C-32.52683594 27.40304688 -33.22164062 27.20453125 -33.9375 27 C-34.2675 27.66 -34.5975 28.32 -34.9375 29 C-35.5146067 19.38155495 -34.2024714 13.8974571 -28.9375 6 C-28.2775 6 -27.6175 6 -26.9375 6 C-26.9375 5.34 -26.9375 4.68 -26.9375 4 C-26.2775 4 -25.6175 4 -24.9375 4 C-24.9375 3.34 -24.9375 2.68 -24.9375 2 C-23.4236211 1.31768838 -21.90091994 0.6549403 -20.375 0 C-19.52808594 -0.37125 -18.68117187 -0.7425 -17.80859375 -1.125 C-11.56485921 -3.02785243 -6.06557966 -1.76193482 0 0 Z " fill="#49302A" transform="translate(272.9375,180)"/>
<path d="M0 0 C0.54785156 0.30292969 1.09570312 0.60585938 1.66015625 0.91796875 C13.8648211 7.36758838 25.246302 10.76688647 39 11 C39 11.33 39 11.66 39 12 C33.72 12 28.44 12 23 12 C25.28249991 15.42374986 26.61773653 15.80866965 30.53125 16.65234375 C44.9455498 18.68220559 56.6116336 15.16982378 69 8 C69.90105469 7.26523437 70.80210937 6.53046875 71.73046875 5.7734375 C74 4 74 4 77 4 C77 3.34 77 2.68 77 2 C78.32 1.67 79.64 1.34 81 1 C81 1.99 81 2.98 81 4 C79.20703125 5.46484375 79.20703125 5.46484375 76.8125 6.9375 C73.34291316 9.09520326 70.15754175 11.40330048 67 14 C69.8961496 13.6902353 72.79189576 13.37728812 75.6875 13.0625 C76.50412109 12.97548828 77.32074219 12.88847656 78.16210938 12.79882812 C82.89169719 12.28552671 82.89169719 12.28552671 87.5703125 11.4453125 C91.09953749 10.79847705 94.61190195 10.8093382 98.1875 10.8125 C98.93765381 10.81185547 99.68780762 10.81121094 100.46069336 10.81054688 C106.14795534 10.864472 111.49951109 11.48635195 117 13 C117 13.66 117 14.32 117 15 C116.28271729 15.00410889 115.56543457 15.00821777 114.82641602 15.01245117 C97.32050018 15.18632797 81.03170455 17.0079477 64 21 C62.26487157 21.38917303 60.52923396 21.77608667 58.79296875 22.16015625 C56.91544922 22.57587891 56.91544922 22.57587891 55 23 C55.99 23.66 56.98 24.32 58 25 C59.03060547 25.69802734 59.03060547 25.69802734 60.08203125 26.41015625 C64.11856174 28.60944395 68.33820323 29.97782652 72.6875 31.4375 C78.79860563 33.5202825 84.84646262 35.6076504 90.734375 38.2734375 C97.95328995 40.58846885 105.99595854 40.28872815 113.5 40.5625 C114.60859375 40.60568359 115.7171875 40.64886719 116.859375 40.69335938 C119.57281506 40.79862214 122.28633417 40.90075846 125 41 C120.49850258 45.50149742 111.04255506 44.0587125 105.01953125 44.09765625 C102.61716784 44.0911103 100.21481334 44.07933562 97.8125 44.0625 C95.9552832 44.05573242 95.9552832 44.05573242 94.06054688 44.04882812 C91.04031215 44.03716699 88.02018323 44.02080236 85 44 C84.71189453 43.36465332 84.42378906 42.72930664 84.12695312 42.07470703 C81.96045867 38.08621702 77.12721002 37.29189677 73 36 C69.6843723 35.20029576 66.36653668 34.54437614 63 34 C63 33.34 63 32.68 63 32 C62.42636719 31.896875 61.85273438 31.79375 61.26171875 31.6875 C58.62410927 30.88573961 57.00466318 29.66109269 54.8125 28 C50.76182194 25.18850963 47.91523081 24.48796575 43.0625 24.27734375 C39.83124789 23.84283826 37.64204787 21.82007742 35 20 C31.78470957 19.37092144 29.9361347 19.41881638 27.125 21.1640625 C26.465 21.62554687 25.805 22.08703125 25.125 22.5625 C22.15487321 24.57470422 20.46105911 25.34721007 16.875 24.875 C15.59625 24.58625 14.3175 24.2975 13 24 C11.845 23.814375 10.69 23.62875 9.5 23.4375 C8.675 23.293125 7.85 23.14875 7 23 C7 22.34 7 21.68 7 21 C5.824375 21.04125 4.64875 21.0825 3.4375 21.125 C-0.67875457 21.13219625 -4.03799627 20.1415943 -8 19 C-17.85052287 17.55652563 -28.20036327 17.15432851 -38 19 C-37.505 17.515 -37.505 17.515 -37 16 C-22.47584486 12.19038554 -8.67665069 13.40411194 5.67773438 17.20996094 C11.87302935 18.83253819 17.57324997 19.67729216 24 19 C24 18.34 24 17.68 24 17 C22.35 16.67 20.7 16.34 19 16 C19 15.34 19 14.68 19 14 C18.443125 13.87625 17.88625 13.7525 17.3125 13.625 C11.79884682 12.13482346 8.965368 10.1636364 5 6 C4.071875 5.278125 3.14375 4.55625 2.1875 3.8125 C1.465625 3.214375 0.74375 2.61625 0 2 C0 1.34 0 0.68 0 0 Z " fill="#BEAFA2" transform="translate(211,341)"/>
<path d="M0 0 C1.65 1.32 3.3 2.64 5 4 C4 7 4 7 1.0625 8.5625 C-6.44080498 11.49710109 -14.62493732 12.33127405 -22.59375 13.0703125 C-23.50966919 13.1565387 -24.42558838 13.24276489 -25.3692627 13.331604 C-28.41187921 13.60888991 -31.45541267 13.87028133 -34.5 14.125 C-35.56379883 14.21404602 -36.62759766 14.30309204 -37.72363281 14.39483643 C-142.82856087 22.88333641 -142.82856087 22.88333641 -187 10 C-187 9.01 -187 8.02 -187 7 C-179.44840172 7.89595234 -179.44840172 7.89595234 -176.90985107 8.48500061 C-173.01402536 9.17450252 -169.15239709 9.36903748 -165.20410156 9.55639648 C-163.89223562 9.61966834 -163.89223562 9.61966834 -162.55386734 9.68421841 C-151.61639707 10.16382536 -140.6800089 10.12475587 -129.734375 10.09765625 C-127.47609489 10.09578539 -125.21781436 10.09436465 -122.95953369 10.09336853 C-117.08747182 10.08959588 -111.21543567 10.07981211 -105.34338379 10.06866455 C-99.32267606 10.05833586 -93.30196408 10.05384665 -87.28125 10.04882812 C-75.52082219 10.03818375 -63.76041325 10.02117255 -52 10 C-52.99 7.03 -52.99 7.03 -54 4 C-53.01 4.66 -52.02 5.32 -51 6 C-51 6.99 -51 7.98 -51 9 C-25.02021013 9.72716033 -25.02021013 9.72716033 -1 2 C-0.67 1.34 -0.34 0.68 0 0 Z " fill="#CCCAC8" transform="translate(347,376)"/>
<path d="M0 0 C0.928125 0.639375 1.85625 1.27875 2.8125 1.9375 C6.00950147 4.00614801 6.70347554 4.20030766 10.25 4.3125 C15.53676765 4.64404306 18.73965033 7.23325295 22.8359375 10.40625 C24.99943146 12.17088974 24.99943146 12.17088974 28 13 C28 13.66 28 14.32 28 15 C28.86882812 15.10957031 29.73765625 15.21914063 30.6328125 15.33203125 C42.5098601 16.96612169 42.5098601 16.96612169 47 20 C49 23 49 23 49 26 C32.17 26 15.34 26 -2 26 C-1.67 21.38 -1.34 16.76 -1 12 C-5.06813792 9.96593104 -8.33790702 9.29696501 -12.7578125 8.5625 C-15 8 -15 8 -17 6 C-15.30099815 4.98422665 -13.59029549 3.9880102 -11.875 3 C-10.92367187 2.443125 -9.97234375 1.88625 -8.9921875 1.3125 C-5.67960303 -0.14053966 -3.57756989 -0.39308487 0 0 Z " fill="#F7C1AC" transform="translate(246,360)"/>
<path d="M0 0 C114.18 0 228.36 0 346 0 C346 1.65 346 3.3 346 5 C311.02 5 276.04 5 240 5 C241.32 4.34 242.64 3.68 244 3 C244.33 2.67 244.66 2.34 245 2 C164.15 1.67 83.3 1.34 0 1 C0 0.67 0 0.34 0 0 Z " fill="#D3D3D3" transform="translate(104,399)"/>
<path d="M0 0 C13.47045745 2.28787666 26.08922201 14.21200789 34.7421875 24.22265625 C36 26 36 26 36 28 C36.66 28 37.32 28 38 28 C39.14160156 29.35424805 39.14160156 29.35424805 40.390625 31.26171875 C40.85001465 31.96159912 41.3094043 32.66147949 41.78271484 33.38256836 C42.26691895 34.1431958 42.75112305 34.90382324 43.25 35.6875 C43.74580566 36.46552979 44.24161133 37.24355957 44.75244141 38.04516602 C52.30326706 50.09159141 56.68392321 62.26528035 60 76 C60.24878906 76.99257812 60.49757813 77.98515625 60.75390625 79.0078125 C64.67199937 97.80369979 61.93913707 117.72519284 57 136 C55.68 136.33 54.36 136.66 53 137 C53.12117188 136.42894531 53.24234375 135.85789062 53.3671875 135.26953125 C53.93596499 132.51752323 54.46623221 129.75900243 55 127 C55.28617187 125.69095703 55.28617187 125.69095703 55.578125 124.35546875 C58.99697095 106.50420882 58.35421269 87.36099444 53 70 C52.77505859 69.2589502 52.55011719 68.51790039 52.31835938 67.75439453 C49.53288632 58.78985211 46.20499169 50.85968659 41 43 C40.34480621 41.81763879 39.69820142 40.63045459 39.0625 39.4375 C36.92234744 35.61254649 34.161973 32.30064352 31.390625 28.91796875 C30 27 30 27 30 25 C29.34 25 28.68 25 28 25 C26.7528148 23.52307016 25.50964765 22.04202596 24.30859375 20.52734375 C22.74490246 18.70225929 20.92388382 17.42509913 19 16 C19 15.34 19 14.68 19 14 C18.27941406 13.7421875 17.55882812 13.484375 16.81640625 13.21875 C13.85919431 11.93906883 11.53695275 10.39635502 8.9375 8.5 C6.03538098 6.38936799 3.26143165 4.50643494 0 3 C0 2.01 0 1.02 0 0 Z " fill="#D3E3CD" transform="translate(328,130)"/>
<path d="M0 0 C0 0.99 0 1.98 0 3 C-1.87109375 4.359375 -1.87109375 4.359375 -4.4375 5.75 C-9.05377544 8.36348169 -13.1001231 11.30760155 -17.1875 14.6796875 C-19 16 -19 16 -21 16 C-21 16.66 -21 17.32 -21 18 C-22.35546875 19.26171875 -22.35546875 19.26171875 -24.1875 20.6875 C-26.86396172 22.88176518 -28.87119037 25.00953399 -30.8125 27.875 C-31.8953125 29.421875 -31.8953125 29.421875 -33 31 C-33.66 31 -34.32 31 -35 31 C-35.27457031 31.73605469 -35.54914063 32.47210938 -35.83203125 33.23046875 C-36.92407726 35.81996917 -38.16280507 37.96071028 -39.6875 40.3125 C-57.78786905 69.9030543 -60.53438979 103.65631751 -53 137 C-53.99 137 -54.98 137 -56 137 C-63.03280251 115.83331282 -64.20437163 94.74050634 -59 73 C-58.8443457 72.31663574 -58.68869141 71.63327148 -58.52832031 70.92919922 C-54.62397575 54.25585553 -46.52860456 39.41880973 -36 26 C-35.34 25.01 -34.68 24.02 -34 23 C-33.34 23 -32.68 23 -32 23 C-32 22.34 -32 21.68 -32 21 C-31.34 21 -30.68 21 -30 21 C-30 20.34 -30 19.68 -30 19 C-29.34 19 -28.68 19 -28 19 C-27.73662842 18.39478516 -27.47325684 17.78957031 -27.2019043 17.16601562 C-25.92852594 14.8711928 -24.87601483 13.86626673 -22.76953125 12.34375 C-22.13080078 11.87839844 -21.49207031 11.41304687 -20.83398438 10.93359375 C-20.16689453 10.46050781 -19.49980469 9.98742187 -18.8125 9.5 C-18.16474609 9.02691406 -17.51699219 8.55382812 -16.84960938 8.06640625 C-5.66612924 0 -5.66612924 0 0 0 Z " fill="#CFE1CA" transform="translate(181,130)"/>
<path d="M0 0 C-1.54126354 3.85756246 -3.94518267 5.94276149 -7.0625 8.625 C-10.51651125 11.43092091 -10.51651125 11.43092091 -13 15 C-13.66 15 -14.32 15 -15 15 C-15.26296875 15.56589844 -15.5259375 16.13179687 -15.796875 16.71484375 C-17.09482415 19.18010431 -18.60546982 21.31423464 -20.25 23.5625 C-36.00434185 45.9382319 -43.30168514 73.00608397 -39.69677734 100.29541016 C-39.17239198 103.11801919 -38.46850553 105.85673124 -37.65625 108.609375 C-37 111 -37 111 -37 115 C-37.99 115 -38.98 115 -40 115 C-44.29867064 102.56251294 -45.46251852 90.09971802 -45 77 C-44.97035156 75.93007812 -44.94070312 74.86015625 -44.91015625 73.7578125 C-44.27478459 61.08137298 -40.78739251 49.25592042 -35 38 C-34.43925781 36.90429688 -33.87851563 35.80859375 -33.30078125 34.6796875 C-30.22994043 28.8311013 -27.17874429 23.13388584 -23 18 C-22.34 18 -21.68 18 -21 18 C-20.61328125 17.12601563 -20.61328125 17.12601563 -20.21875 16.234375 C-18.90165983 13.8197097 -17.44911616 12.18259823 -15.5 10.25 C-14.58734375 9.32960937 -14.58734375 9.32960937 -13.65625 8.390625 C-12 7 -12 7 -10 7 C-10 6.34 -10 5.68 -10 5 C-9.34 5 -8.68 5 -8 5 C-8 4.34 -8 3.68 -8 3 C-5.04518508 0.25624329 -4.22528092 0 0 0 Z " fill="#D2E2CB" transform="translate(183,144)"/>
<path d="M0 0 C3.71599191 -0.20086443 4.77208445 -0.1519437 8 2 C8 2.66 8 3.32 8 4 C8.556875 4.226875 9.11375 4.45375 9.6875 4.6875 C12.65253447 6.3703574 14.65353689 8.53621374 17 11 C17.763125 11.721875 18.52625 12.44375 19.3125 13.1875 C21 15 21 15 21 17 C21.66 17 22.32 17 23 17 C24.5078125 18.64453125 24.5078125 18.64453125 26.125 20.8125 C26.66382813 21.52019531 27.20265625 22.22789062 27.7578125 22.95703125 C29 25 29 25 29 28 C29.66 28 30.32 28 31 28 C42.97002152 54.14810526 50.70569033 81.89649493 41.375 110.375 C40.92125 111.57125 40.4675 112.7675 40 114 C39.01 114 38.02 114 37 114 C37.31014392 111.91631462 37.6232052 109.83306332 37.9375 107.75 C38.11152344 106.58984375 38.28554688 105.4296875 38.46484375 104.234375 C39 101 39 101 39.51855469 99.12451172 C42.80853447 84.60655832 39.99250061 68.08424571 36 54 C35.78472656 53.07703125 35.56945312 52.1540625 35.34765625 51.203125 C30.74774457 32.8034783 16.87132203 14.19738456 1.65234375 3.375 C1.10707031 2.92125 0.56179688 2.4675 0 2 C0 1.34 0 0.68 0 0 Z " fill="#CEDFC7" transform="translate(326,145)"/>
<path d="M0 0 C0.80847885 -0.0033284 1.6169577 -0.0066568 2.44993591 -0.01008606 C4.15533887 -0.01513909 5.86075167 -0.01749489 7.56616211 -0.01733398 C10.17773594 -0.01952633 12.78889115 -0.03771493 15.40039062 -0.05664062 C17.05859231 -0.05957369 18.71679599 -0.06155907 20.375 -0.0625 C21.54694664 -0.07327827 21.54694664 -0.07327827 22.74256897 -0.08427429 C26.57133087 -0.06808519 28.35817923 -0.00730759 31.62109375 2.16796875 C31.29109375 2.49796875 30.96109375 2.82796875 30.62109375 3.16796875 C109.49109375 3.49796875 188.36109375 3.82796875 269.62109375 4.16796875 C269.62109375 4.49796875 269.62109375 4.82796875 269.62109375 5.16796875 C176.56109375 5.16796875 83.50109375 5.16796875 -12.37890625 5.16796875 C-12.37890625 3.84796875 -12.37890625 2.52796875 -12.37890625 1.16796875 C-8.25347569 0.01876335 -4.25576225 0.00607734 0 0 Z " fill="#D2D2D2" transform="translate(71.37890625,398.83203125)"/>
<path d="M0 0 C2.66381121 1.09847885 5.07880849 2.4115859 7.58984375 3.8203125 C14.79604994 7.34749932 23.85962885 6.04056394 31.6796875 5.83984375 C34.80294237 5.99049487 36.40833256 6.33950956 39 8 C39 8.66 39 9.32 39 10 C39.86625 10.2475 40.7325 10.495 41.625 10.75 C45.21060064 12.07800024 47.96327987 13.68630848 51 16 C51 16.66 51 17.32 51 18 C46.22668455 18.50779952 43.64956259 18.03942587 39.5 15.5625 C35.60168529 13.2367258 32.63239915 12.08578517 28 12 C25.66182791 12.64949225 23.32873375 13.31744011 21 14 C14.86411112 15.11447778 10.32153045 13.4274036 4.75 10.9375 C-2.41124105 7.74040392 -8.21717081 7.55630487 -16 9 C-16.33 7.35 -16.66 5.7 -17 4 C-12.33863876 -1.32726999 -6.55071937 -0.9838377 0 0 Z " fill="#D8EACD" transform="translate(144,309)"/>
<path d="M0 0 C0.10957031 0.6290625 0.21914063 1.258125 0.33203125 1.90625 C1.12629766 6.19399712 1.9667305 10.16974003 3.6875 14.1875 C5.23853058 18.09263284 5.0863537 20.8873753 4 25 C2.4375 27.9375 2.4375 27.9375 1 30 C-3.13228224 29.35046462 -7.18474632 28.5481708 -11.25 27.5625 C-12.28640625 27.31628906 -13.3228125 27.07007813 -14.390625 26.81640625 C-17 26 -17 26 -19 24 C-19.6171244 20.92624578 -19.63102393 18.0720902 -19 15 C-16.375 12.9375 -16.375 12.9375 -13 11 C-11.39883371 9.0911489 -11.39883371 9.0911489 -9.9375 6.9375 C-7.37878515 3.33112238 -4.77030287 0 0 0 Z " fill="#49332D" transform="translate(285,223)"/>
<path d="M0 0 C2.73763364 1.37985567 3.34277687 2.29934008 5 5 C4.60546875 7.171875 4.60546875 7.171875 4 9 C3.16339844 8.85820312 2.32679688 8.71640625 1.46484375 8.5703125 C-7.76533543 7.40504071 -13.17380626 8.66956148 -21.4296875 12.65234375 C-27.12515539 14.80216478 -32.13510922 14.44714017 -38 12.8125 C-44.5152551 11.3935334 -48.51029241 13.68191951 -54.1875 16.6875 C-57.08959812 18.04181246 -58.84592956 18.27830033 -62 18 C-62 17.01 -62 16.02 -62 15 C-56.58831494 9.73383924 -50.54735371 5.8166941 -42.8515625 5.58984375 C-40.13336519 5.62830881 -37.42949817 5.75041616 -34.71484375 5.89160156 C-26.74231014 6.24949267 -21.15234508 4.70367614 -14 1 C-9.8033079 -1.09834605 -4.55885129 -0.5456072 0 0 Z " fill="#D5E9C8" transform="translate(377,309)"/>
<path d="M0 0 C31.68 0 63.36 0 96 0 C96 0.99 96 1.98 96 3 C63.99 3 31.98 3 -1 3 C-0.67 2.01 -0.34 1.02 0 0 Z " fill="#BDBDBD" transform="translate(353,400)"/>
<path d="M0 0 C0.33 0 0.66 0 1 0 C1.33 2.64 1.66 5.28 2 8 C2.62777344 8.06574219 3.25554687 8.13148438 3.90234375 8.19921875 C4.94068359 8.59560547 4.94068359 8.59560547 6 9 C6.94140625 11.14453125 6.94140625 11.14453125 7.5625 13.8125 C8.26309863 16.75849549 8.77572598 18.70151365 10.60546875 21.13671875 C12 23 12 23 11.75 26 C11.5025 26.99 11.255 27.98 11 29 C10.814375 29.78375 10.62875 30.5675 10.4375 31.375 C10.2209375 32.179375 10.2209375 32.179375 10 33 C8.02 33.495 8.02 33.495 6 34 C0.50376966 26.31594982 -3.98021939 19.96042947 -2.4609375 10.25390625 C-1.75412931 6.79773398 -0.9283655 3.40400684 0 0 Z " fill="#473530" transform="translate(237,210)"/>
<path d="M0 0 C0.66 0.33 1.32 0.66 2 1 C1.48305018 5.22507066 -0.91218592 7.41077818 -3.75 10.4375 C-4.61109375 11.36433594 -5.4721875 12.29117187 -6.359375 13.24609375 C-7.23078125 14.15488281 -8.1021875 15.06367188 -9 16 C-9.69996094 16.91265625 -10.39992188 17.8253125 -11.12109375 18.765625 C-15.50073302 22.16474801 -19.90207644 22.02519024 -25.3125 22.3125 C-26.33923828 22.38533203 -27.36597656 22.45816406 -28.42382812 22.53320312 C-30.94858869 22.70934921 -33.47280106 22.86421116 -36 23 C-36 23.66 -36 24.32 -36 25 C-34.02 25.33 -32.04 25.66 -30 26 C-30 26.33 -30 26.66 -30 27 C-35.28 27 -40.56 27 -46 27 C-46.33 26.34 -46.66 25.68 -47 25 C-45.02 24.67 -43.04 24.34 -41 24 C-41 23.01 -41 22.02 -41 21 C-37.71005112 18.80670075 -35.06588917 19.01678781 -31.21484375 19.1171875 C-21.33404239 18.59439378 -12.8393608 12.66399257 -6 6 C-4.64065632 4.35447871 -3.29652617 2.6954573 -2 1 C-1.34 0.67 -0.68 0.34 0 0 Z " fill="#759784" transform="translate(282,325)"/>
<path d="M0 0 C0.928125 0.639375 1.85625 1.27875 2.8125 1.9375 C6.47979331 4.3104545 8.87850191 4.54077228 13.14453125 4.7265625 C13.75683594 4.81679688 14.36914062 4.90703125 15 5 C15.495 5.99 15.495 5.99 16 7 C15.04287109 7.30744141 15.04287109 7.30744141 14.06640625 7.62109375 C13.24011719 7.89050781 12.41382813 8.15992188 11.5625 8.4375 C10.32693359 8.83775391 10.32693359 8.83775391 9.06640625 9.24609375 C7.03780412 9.82155494 7.03780412 9.82155494 6 11 C4.53051037 11.28469564 3.04808195 11.5044763 1.5625 11.6875 C0.75941406 11.79449219 -0.04367188 11.90148437 -0.87109375 12.01171875 C-3 12 -3 12 -5 10 C-7.36195411 9.39397335 -7.36195411 9.39397335 -10 9 C-14.77777778 8.22222222 -14.77777778 8.22222222 -17 6 C-15.30099815 4.98422665 -13.59029549 3.9880102 -11.875 3 C-10.92367187 2.443125 -9.97234375 1.88625 -8.9921875 1.3125 C-5.67960303 -0.14053966 -3.57756989 -0.39308487 0 0 Z " fill="#F2C0A8" transform="translate(246,360)"/>
<path d="M0 0 C1 2 1 2 0.28125 4.29296875 C-1.08732778 7.18450657 -2.66731726 9.69160836 -4.5 12.3125 C-5.1084375 13.19550781 -5.716875 14.07851562 -6.34375 14.98828125 C-7.16359375 15.98408203 -7.16359375 15.98408203 -8 17 C-8.66 17 -9.32 17 -10 17 C-10 17.66 -10 18.32 -10 19 C-10.66 19 -11.32 19 -12 19 C-12.268125 20.093125 -12.53625 21.18625 -12.8125 22.3125 C-14 26 -14 26 -15.5625 27.5 C-17.85539241 29.89258339 -17.59296286 32.80185103 -18 36 C-18.66 36.66 -19.32 37.32 -20 38 C-20.3668526 39.85360291 -20.3668526 39.85360291 -20.41064453 41.99072266 C-20.47048019 43.22177231 -20.47048019 43.22177231 -20.53152466 44.47769165 C-20.58166214 45.80744522 -20.58166214 45.80744522 -20.6328125 47.1640625 C-20.69515579 48.52487442 -20.69515579 48.52487442 -20.75875854 49.91317749 C-20.8897321 52.8168046 -21.00750839 55.72079911 -21.125 58.625 C-21.21137235 60.59118412 -21.29860101 62.55733083 -21.38671875 64.5234375 C-21.60109219 69.34857997 -21.80362983 74.17409267 -22 79 C-22.33 79 -22.66 79 -23 79 C-23.94294985 73.43958939 -24.15741308 68.07197354 -24.125 62.4375 C-24.12016602 61.55852051 -24.11533203 60.67954102 -24.11035156 59.77392578 C-24.08670888 57.18221464 -24.04816852 54.59136372 -24 52 C-23.98743164 51.2972998 -23.97486328 50.59459961 -23.96191406 49.87060547 C-23.47415584 30.12635154 -11.79350287 15.04098917 0 0 Z " fill="#F4D3C4" transform="translate(234,149)"/>
<path d="M0 0 C-1.54126354 3.85756246 -3.94518267 5.94276149 -7.0625 8.625 C-10.51651125 11.43092091 -10.51651125 11.43092091 -13 15 C-13.66 15 -14.32 15 -15 15 C-15.2578125 15.55429688 -15.515625 16.10859375 -15.78125 16.6796875 C-17.16866415 19.3211106 -18.78188506 21.6861504 -20.5 24.125 C-21.1084375 24.99382812 -21.716875 25.86265625 -22.34375 26.7578125 C-24 29 -24 29 -26 31 C-26 30.01 -26 29.02 -26 28 C-26.66 27.67 -27.32 27.34 -28 27 C-26.50079488 23.88626628 -24.91847864 20.87771795 -23 18 C-22.34 18 -21.68 18 -21 18 C-20.61328125 17.12601563 -20.61328125 17.12601563 -20.21875 16.234375 C-18.90165983 13.8197097 -17.44911616 12.18259823 -15.5 10.25 C-14.8915625 9.63640625 -14.283125 9.0228125 -13.65625 8.390625 C-12 7 -12 7 -10 7 C-10 6.34 -10 5.68 -10 5 C-9.34 5 -8.68 5 -8 5 C-8 4.34 -8 3.68 -8 3 C-5.04518508 0.25624329 -4.22528092 0 0 0 Z " fill="#D3E1CE" transform="translate(183,144)"/>
<path d="M0 0 C0 1.32 0 2.64 0 4 C-0.66 4 -1.32 4 -2 4 C-2 4.66 -2 5.32 -2 6 C-2.84884766 6.36351562 -2.84884766 6.36351562 -3.71484375 6.734375 C-4.81505859 7.23710937 -4.81505859 7.23710937 -5.9375 7.75 C-6.66839844 8.07484375 -7.39929688 8.3996875 -8.15234375 8.734375 C-10.48853599 10.33464199 -10.42070169 11.31040069 -11 14 C-12.83608161 15.93271748 -14.87262247 17.37051934 -17 19 C-17 18.01 -17 17.02 -17 16 C-16.34 16 -15.68 16 -15 16 C-15.11351517 14.18674449 -15.24112961 12.37436643 -15.375 10.5625 C-15.44460938 9.55316406 -15.51421875 8.54382813 -15.5859375 7.50390625 C-15.72257812 6.67761719 -15.85921875 5.85132813 -16 5 C-16.66 4.67 -17.32 4.34 -18 4 C-16.1291122 3.32187886 -14.25305707 2.6580054 -12.375 2 C-11.33085937 1.62875 -10.28671875 1.2575 -9.2109375 0.875 C-5.98225494 -0.00483564 -3.32755706 -0.15988262 0 0 Z " fill="#F4CDBE" transform="translate(275,123)"/>
<path d="M0 0 C3.71599191 -0.20086443 4.77208445 -0.1519437 8 2 C8 2.66 8 3.32 8 4 C8.556875 4.226875 9.11375 4.45375 9.6875 4.6875 C12.65253447 6.3703574 14.65353689 8.53621374 17 11 C17.763125 11.721875 18.52625 12.44375 19.3125 13.1875 C21 15 21 15 21 17 C21.66 17 22.32 17 23 17 C24.5078125 18.96875 24.5078125 18.96875 26.125 21.5 C26.66382813 22.3353125 27.20265625 23.170625 27.7578125 24.03125 C28.16773438 24.6809375 28.57765625 25.330625 29 26 C28.401875 25.835 27.80375 25.67 27.1875 25.5 C24.88655664 24.8885876 24.88655664 24.8885876 22 25 C21.09231122 23.67337794 20.19639819 22.3377431 19.34765625 20.97265625 C14.56649155 13.9741398 8.52802651 8.26437441 1.65234375 3.375 C1.10707031 2.92125 0.56179688 2.4675 0 2 C0 1.34 0 0.68 0 0 Z " fill="#D1E0CC" transform="translate(326,145)"/>
<path d="M0 0 C0.54785156 0.30292969 1.09570312 0.60585938 1.66015625 0.91796875 C13.8648211 7.36758838 25.246302 10.76688647 39 11 C39 11.33 39 11.66 39 12 C33.72 12 28.44 12 23 12 C23.33 13.65 23.66 15.3 24 17 C22.35 16.67 20.7 16.34 19 16 C19 15.34 19 14.68 19 14 C18.443125 13.87625 17.88625 13.7525 17.3125 13.625 C11.79884682 12.13482346 8.965368 10.1636364 5 6 C3.6078125 4.9171875 3.6078125 4.9171875 2.1875 3.8125 C1.465625 3.214375 0.74375 2.61625 0 2 C0 1.34 0 0.68 0 0 Z " fill="#B6AEA0" transform="translate(211,341)"/>
<path d="M0 0 C0.33 0 0.66 0 1 0 C1.03758423 0.90093384 1.03758423 0.90093384 1.07592773 1.82006836 C1.1915528 4.52611437 1.31442936 7.23178283 1.4375 9.9375 C1.47681641 10.88302734 1.51613281 11.82855469 1.55664062 12.80273438 C1.59853516 13.70185547 1.64042969 14.60097656 1.68359375 15.52734375 C1.72025146 16.35999756 1.75690918 17.19265137 1.79467773 18.05053711 C1.79367103 20.00338858 1.79367103 20.00338858 3 21 C3.35512977 23.47993982 3.66200836 25.94853685 3.9375 28.4375 C4.66905187 34.69835308 5.60943482 40.84600941 7 47 C6.01 47 5.02 47 4 47 C-0.35714648 34.61759768 -1.05599861 23.25101198 -1.125 10.25 C-1.12983398 9.35531006 -1.13466797 8.46062012 -1.13964844 7.53881836 C-1.13739258 6.70616455 -1.13513672 5.87351074 -1.1328125 5.015625 C-1.13168457 4.26571289 -1.13055664 3.51580078 -1.12939453 2.74316406 C-1 1 -1 1 0 0 Z " fill="#D3E1D0" transform="translate(121,220)"/>
<path d="M0 0 C1.65420222 0.53739056 3.29833295 1.10586008 4.9375 1.6875 C5.85402344 2.00074219 6.77054688 2.31398437 7.71484375 2.63671875 C10 4 10 4 10.859375 6.44140625 C11.04276284 9.77804609 10.43638866 11.99042376 9 15 C6.91796875 15.671875 6.91796875 15.671875 5 16 C-0.87892377 8.48520179 -0.87892377 8.48520179 -1.17578125 4.84375 C-0.875 2.9375 -0.875 2.9375 0 0 Z " fill="#452F28" transform="translate(238,228)"/>
<path d="M0 0 C2.41696872 -0.05411124 4.83271787 -0.09372278 7.25 -0.125 C7.93191406 -0.14175781 8.61382812 -0.15851563 9.31640625 -0.17578125 C13.0608235 -0.21213482 15.82352727 -0.07944349 19 2 C19 2.66 19 3.32 19 4 C19.86625 4.2475 20.7325 4.495 21.625 4.75 C25.21060064 6.07800024 27.96327987 7.68630848 31 10 C31 10.66 31 11.32 31 12 C25.18774767 12.61832472 22.11318524 11.24232344 17.15625 8.24609375 C14.54490864 6.73700336 11.8965846 5.8169854 9 5 C9.99 4.01 10.98 3.02 12 2 C8.04 1.67 4.08 1.34 0 1 C0 0.67 0 0.34 0 0 Z " fill="#DDEBD3" transform="translate(164,315)"/>
<path d="M0 0 C0.22304441 1.74818591 0.4278645 3.49870323 0.625 5.25 C0.74101562 6.22453125 0.85703125 7.1990625 0.9765625 8.203125 C1.00112537 11.13429393 0.5312717 12.54528964 -1 15 C-2.32 15 -3.64 15 -5 15 C-5.33 14.34 -5.66 13.68 -6 13 C-6.61875 13.350625 -7.2375 13.70125 -7.875 14.0625 C-8.57625 14.371875 -9.2775 14.68125 -10 15 C-10.66 14.67 -11.32 14.34 -12 14 C-10.49825864 8.74390525 -8.62785506 3.7003768 -3.875 0.625 C-2 0 -2 0 0 0 Z " fill="#432A25" transform="translate(284,224)"/>
<path d="M0 0 C0.33 0 0.66 0 1 0 C1.27840547 14.50801825 1.22152706 28.23415592 -4 42 C-4.99 42 -5.98 42 -7 42 C-6.68985608 39.91631462 -6.3767948 37.83306332 -6.0625 35.75 C-5.88847656 34.58984375 -5.71445312 33.4296875 -5.53515625 32.234375 C-5 29 -5 29 -4.48632812 27.06835938 C-3.97708839 24.90255663 -3.79462598 22.89251965 -3.68359375 20.671875 C-3.64169922 19.87265625 -3.59980469 19.0734375 -3.55664062 18.25 C-3.49766602 17.0125 -3.49766602 17.0125 -3.4375 15.75 C-3.39431641 14.90953125 -3.35113281 14.0690625 -3.30664062 13.203125 C-3.20091457 11.13559329 -3.09998705 9.06781719 -3 7 C-2.67 7 -2.34 7 -2 7 C-2 10.63 -2 14.26 -2 18 C-1.34 18 -0.68 18 0 18 C0 12.06 0 6.12 0 0 Z " fill="#D8E5D3" transform="translate(370,217)"/>
<path d="M0 0 C3.70818297 -0.08756305 7.41609763 -0.14058015 11.125 -0.1875 C12.17171875 -0.21263672 13.2184375 -0.23777344 14.296875 -0.26367188 C20.07299323 -0.31850844 23.9473508 -0.08088366 29 3 C31.49915311 3.75324376 31.49915311 3.75324376 33.875 4.1875 C34.65617187 4.34605469 35.43734375 4.50460937 36.2421875 4.66796875 C36.82226562 4.77753906 37.40234375 4.88710938 38 5 C38 5.66 38 6.32 38 7 C33.32252656 7.26476265 29.60886593 7.00411796 25.125 5.625 C19.12971531 3.82133384 13.14477974 3.24995428 6.93017578 2.73486328 C4.94651811 2.55445358 2.97135866 2.28493942 1 2 C0.67 1.34 0.34 0.68 0 0 Z " fill="#6F9586" transform="translate(232,292)"/>
<path d="M0 0 C0.33 0 0.66 0 1 0 C1.38158684 16.09024493 1.38158684 16.09024493 -1 24 C-1.26425781 24.91265625 -1.52851563 25.8253125 -1.80078125 26.765625 C-2.51346069 29.1840064 -3.2465737 31.59405868 -4 34 C-4.33 34 -4.66 34 -5 34 C-8.44419134 22.47835991 -8.44419134 22.47835991 -8 17 C-6 16 -6 16 -3 16 C-2.01 10.72 -1.02 5.44 0 0 Z " fill="#7F9F92" transform="translate(222,240)"/>
<path d="M0 0 C11.55 0 23.1 0 35 0 C35 0.99 35 1.98 35 3 C23.45 3 11.9 3 0 3 C0 2.01 0 1.02 0 0 Z " fill="#BEBEBE" transform="translate(59,400)"/>
<path d="M0 0 C1.22406572 3.67219717 0.7219422 5.80620535 0.125 9.625 C-1.12444059 18.05924898 -1.60413804 26.48896781 -2 35 C-2.33 35 -2.66 35 -3 35 C-3.33 28.73 -3.66 22.46 -4 16 C-4 24.58 -4 33.16 -4 42 C-4.33 42 -4.66 42 -5 42 C-6.15487283 36.81084823 -6.19108764 31.8587582 -6.1875 26.5625 C-6.18814453 25.58780762 -6.18878906 24.61311523 -6.18945312 23.60888672 C-6.13355926 15.91712815 -5.44616725 8.56655364 -4 1 C-3.67 1.99 -3.34 2.98 -3 4 C-2.34 4 -1.68 4 -1 4 C-0.67 2.68 -0.34 1.36 0 0 Z " fill="#D9E6D5" transform="translate(125,205)"/>
<path d="M0 0 C0.87454834 0.00523682 1.74909668 0.01047363 2.65014648 0.01586914 C3.59438477 0.0190918 4.53862305 0.02231445 5.51147461 0.02563477 C6.50469727 0.03401367 7.49791992 0.04239258 8.52124023 0.05102539 C9.51833008 0.05553711 10.51541992 0.06004883 11.54272461 0.06469727 C14.01478872 0.07652532 16.48673541 0.0930069 18.95874023 0.11352539 C15.23291786 4.07221167 11.4645542 5.95164239 6.05639648 6.30102539 C3.35051036 6.30102539 0.66118045 6.24547093 -2.04125977 6.11352539 C-2.42344744 4.45737882 -2.75521078 2.78895515 -3.04125977 1.11352539 C-2.04125977 0.11352539 -2.04125977 0.11352539 0 0 Z " fill="#D1E5C3" transform="translate(159.041259765625,315.886474609375)"/>
<path d="M0 0 C0.33 0.66 0.66 1.32 1 2 C2.423125 1.9690625 2.423125 1.9690625 3.875 1.9375 C7 2 7 2 9 3 C11.04055005 3.07065617 13.08334257 3.08421976 15.125 3.0625 C16.22070312 3.05347656 17.31640625 3.04445313 18.4453125 3.03515625 C19.28835937 3.02355469 20.13140625 3.01195312 21 3 C21 2.34 21 1.68 21 1 C23.31 1 25.62 1 28 1 C28.495 1.99 28.495 1.99 29 3 C28.04287109 3.30744141 28.04287109 3.30744141 27.06640625 3.62109375 C26.24011719 3.89050781 25.41382813 4.15992188 24.5625 4.4375 C23.32693359 4.83775391 23.32693359 4.83775391 22.06640625 5.24609375 C20.03780412 5.82155494 20.03780412 5.82155494 19 7 C17.53051037 7.28469564 16.04808195 7.5044763 14.5625 7.6875 C13.75941406 7.79449219 12.95632812 7.90148437 12.12890625 8.01171875 C10 8 10 8 8 6 C5.63804589 5.39397335 5.63804589 5.39397335 3 5 C-1.77777778 4.22222222 -1.77777778 4.22222222 -4 2 C-2.68 1.34 -1.36 0.68 0 0 Z " fill="#F1B39A" transform="translate(233,364)"/>
<path d="M0 0 C1.7074998 1.28062485 3.37373596 2.61767557 5 4 C5 4.66 5 5.32 5 6 C8.96 6 12.92 6 17 6 C16 9 16 9 14 10 C8.84124422 10.2537093 5.78833797 9.91533519 1 8 C0.01 8.66 -0.98 9.32 -2 10 C-1.46274105 6.62294375 -0.88935377 3.303314 0 0 Z " fill="#F1AD98" transform="translate(249,233)"/>
<path d="M0 0 C0 0.99 0 1.98 0 3 C-1.94140625 4.46484375 -1.94140625 4.46484375 -4.5625 5.9375 C-5.47386719 6.45183594 -6.38523438 6.96617187 -7.32421875 7.49609375 C-8.20722656 7.99238281 -9.09023437 8.48867187 -10 9 C-10.68707031 9.44472656 -11.37414062 9.88945312 -12.08203125 10.34765625 C-13.875 11.5 -13.875 11.5 -17 13 C-19.1953125 12.09375 -19.1953125 12.09375 -21 11 C-18.91888693 9.53840903 -16.83525539 8.08066008 -14.75 6.625 C-14.16347656 6.2125 -13.57695312 5.8 -12.97265625 5.375 C-5.25693044 0 -5.25693044 0 0 0 Z " fill="#DAE4D6" transform="translate(181,130)"/>
<path d="M0 0 C0.33 0.66 0.66 1.32 1 2 C1.99 2 2.98 2 4 2 C3 4 3 4 0.99609375 4.7109375 C0.15175781 4.93007812 -0.69257813 5.14921875 -1.5625 5.375 C-7.60509147 7.08043054 -12.7840688 9.52271253 -18 13 C-18.66 12.34 -19.32 11.68 -20 11 C-19.34 10.67 -18.68 10.34 -18 10 C-17.73058594 9.34128906 -17.46117187 8.68257812 -17.18359375 8.00390625 C-16 6 -16 6 -13.72265625 5.27734375 C-12.40587891 5.10912109 -12.40587891 5.10912109 -11.0625 4.9375 C-7.19127349 4.43007856 -5.6180395 3.87163877 -3 1 C-2.01 0.67 -1.02 0.34 0 0 Z " fill="#D9A795" transform="translate(229,218)"/>
<path d="M0 0 C6.99025195 1.12189229 13.38013712 4.57668271 18 10 C17.01 10 16.02 10 15 10 C14.67 10.66 14.34 11.32 14 12 C13.32453125 11.51789063 12.6490625 11.03578125 11.953125 10.5390625 C11.06109375 9.90742188 10.1690625 9.27578125 9.25 8.625 C8.36828125 7.99851563 7.4865625 7.37203125 6.578125 6.7265625 C4.42585021 5.28519059 2.34539477 4.08501907 0 3 C0 2.01 0 1.02 0 0 Z " fill="#DDE4D7" transform="translate(328,130)"/>
<path d="M0 0 C0.66 0 1.32 0 2 0 C1 3 1 3 -1.07421875 4.31640625 C-9.85122873 8.50155749 -16.22873993 10.31295851 -26 10 C-22.9407974 7.9605316 -20.97909003 7.4099678 -17.4375 6.625 C-8.06567865 4.69539702 -8.06567865 4.69539702 0 0 Z " fill="#709687" transform="translate(263,321)"/>
<path d="M0 0 C2.12147978 3.18221967 2.40334295 4.65353465 2.75 8.375 C2.89695312 9.77878906 2.89695312 9.77878906 3.046875 11.2109375 C2.97910436 15.24329045 2.07804637 17.87561227 -0.7265625 20.80078125 C-1.35304688 21.29964844 -1.97953125 21.79851562 -2.625 22.3125 C-3.25664062 22.82425781 -3.88828125 23.33601563 -4.5390625 23.86328125 C-5.02117187 24.23839844 -5.50328125 24.61351562 -6 25 C-5.6875 22.625 -5.6875 22.625 -5 20 C-2 18 -2 18 1 17 C0.67 13.7 0.34 10.4 0 7 C-0.99 7 -1.98 7 -3 7 C-3.66 6.34 -4.32 5.68 -5 5 C-4.67 4.01 -4.34 3.02 -4 2 C-2.68 2.99 -1.36 3.98 0 5 C0 3.35 0 1.7 0 0 Z " fill="#F5D2C3" transform="translate(306,310)"/>
<path d="M0 0 C0.33 0 0.66 0 1 0 C1.02714735 2.22909871 1.04646254 4.45829367 1.0625 6.6875 C1.07410156 7.92886719 1.08570313 9.17023438 1.09765625 10.44921875 C1.01478673 13.46235454 0.70839449 16.08275339 0 19 C-0.99 19.33 -1.98 19.66 -3 20 C-3.99 19.01 -4.98 18.02 -6 17 C-6.33 17.66 -6.66 18.32 -7 19 C-7 17.02 -7 15.04 -7 13 C-2.125 12 -2.125 12 -1 12 C-0.67 8.04 -0.34 4.08 0 0 Z " fill="#66514B" transform="translate(288,197)"/>
<path d="M0 0 C0.66 0 1.32 0 2 0 C1.9375 1.8125 1.9375 1.8125 1 4 C-1.35276951 5.17638476 -3.54714697 6.10367257 -6 7 C-7.31576849 7.55481147 -8.62847212 8.11696646 -9.9375 8.6875 C-11.4534375 9.3371875 -11.4534375 9.3371875 -13 10 C-13 9.01 -13 8.02 -13 7 C-13.66 6.67 -14.32 6.34 -15 6 C-14.00097656 5.65066406 -13.00195312 5.30132812 -11.97265625 4.94140625 C-10.66921795 4.48192081 -9.3658354 4.02227721 -8.0625 3.5625 C-7.0734668 3.21735352 -7.0734668 3.21735352 -6.06445312 2.86523438 C-2.77671378 1.88035408 -2.77671378 1.88035408 0 0 Z " fill="#DAAB99" transform="translate(301,294)"/>
<path d="M0 0 C0.33 0 0.66 0 1 0 C1.33 2.64 1.66 5.28 2 8 C2.66 8 3.32 8 4 8 C4.66 11.3 5.32 14.6 6 18 C0.12075472 13.66792453 0.12075472 13.66792453 -1 10 C-1.52595156 3.05190311 -1.52595156 3.05190311 0 0 Z " fill="#3F2A21" transform="translate(237,210)"/>
<path d="M0 0 C0.33 0 0.66 0 1 0 C2.23402862 4.77092956 2.11265112 9.42469446 2.0625 14.3125 C2.05798828 15.14845703 2.05347656 15.98441406 2.04882812 16.84570312 C2.03710548 18.89716649 2.01917203 20.94859273 2 23 C1.34 23 0.68 23 0 23 C-2.01880878 4.03761755 -2.01880878 4.03761755 0 0 Z " fill="#C3D7B8" transform="translate(368,212)"/>
<path d="M0 0 C-0.33 3.3 -0.66 6.6 -1 10 C-1.66 10 -2.32 10 -3 10 C-3.33 11.32 -3.66 12.64 -4 14 C-4.66 14 -5.32 14 -6 14 C-5.85915204 12.20793453 -5.71216299 10.41635083 -5.5625 8.625 C-5.48128906 7.62726563 -5.40007812 6.62953125 -5.31640625 5.6015625 C-5 3 -5 3 -4 1 C-1 0 -1 0 0 0 Z " fill="#D0DECC" transform="translate(128,195)"/>
<path d="M0 0 C2.13093906 1.06546953 3.36587557 2.29159719 5 4 C-3.261959 8.59225513 -3.261959 8.59225513 -8 8 C-8 7.01 -8 6.02 -8 5 C-6.3203125 3.578125 -6.3203125 3.578125 -4.125 2.25 C-3.40570313 1.80140625 -2.68640625 1.3528125 -1.9453125 0.890625 C-1.30335938 0.59671875 -0.66140625 0.3028125 0 0 Z " fill="#E0EDD9" transform="translate(323,319)"/>
<path d="M0 0 C3.20677152 4.81015728 3.18282417 8.8983501 3.1875 14.5 C3.19974609 15.27214844 3.21199219 16.04429687 3.22460938 16.83984375 C3.23476991 20.7482648 3.21572048 22.67641928 1 26 C-0.15664737 20.51730931 -0.11416255 15.19660726 -0.0625 9.625 C-0.05798828 8.69816406 -0.05347656 7.77132813 -0.04882812 6.81640625 C-0.03711574 4.54420291 -0.02071372 2.27213612 0 0 Z " fill="#6C9384" transform="translate(281,274)"/>
<path d="M0 0 C0.33 0 0.66 0 1 0 C1.33 7.92 1.66 15.84 2 24 C1.34 24 0.68 24 0 24 C-0.95278997 21.14163009 -1.12871126 19.3335544 -1.1328125 16.3671875 C-1.13410156 15.47902344 -1.13539062 14.59085938 -1.13671875 13.67578125 C-1.13285156 12.75152344 -1.12898438 11.82726562 -1.125 10.875 C-1.12886719 9.94300781 -1.13273437 9.01101562 -1.13671875 8.05078125 C-1.13542969 7.16519531 -1.13414063 6.27960938 -1.1328125 5.3671875 C-1.13168457 4.55362793 -1.13055664 3.74006836 -1.12939453 2.90185547 C-1 1 -1 1 0 0 Z " fill="#BFD5B7" transform="translate(121,220)"/>
<path d="M0 0 C1.485 0.99 1.485 0.99 3 2 C3.51171875 4.6015625 3.51171875 4.6015625 3.6875 7.625 C3.75324219 8.62789062 3.81898438 9.63078125 3.88671875 10.6640625 C3.92410156 11.43492187 3.96148437 12.20578125 4 13 C3.01 13 2.02 13 1 13 C-0.99544337 8.88439805 -1.26247139 5.54950416 -1 1 C-0.67 0.67 -0.34 0.34 0 0 Z " fill="#CDDEC7" transform="translate(384,199)"/>
<path d="M0 0 C0.66 1.32 1.32 2.64 2 4 C3.98 4 5.96 4 8 4 C8 4.66 8 5.32 8 6 C7.01 6 6.02 6 5 6 C5 7.32 5 8.64 5 10 C5 11.32 5 12.64 5 14 C4.01 14.33 3.02 14.66 2 15 C0.53329887 9.77487721 -0.22577402 5.4185766 0 0 Z " fill="#CFA395" transform="translate(237,203)"/>
<path d="M0 0 C0 6.93 0 13.86 0 21 C-2.35358251 18.64641749 -2.27871904 18.07031606 -2.4140625 14.8671875 C-2.45273437 14.06152344 -2.49140625 13.25585938 -2.53125 12.42578125 C-2.5621875 11.58402344 -2.593125 10.74226562 -2.625 9.875 C-2.66367187 9.02550781 -2.70234375 8.17601562 -2.7421875 7.30078125 C-2.83656494 5.20088316 -2.91937586 3.10047109 -3 1 C-1 0 -1 0 0 0 Z " fill="#BCD3B5" transform="translate(389,219)"/>
<path d="M0 0 C0 0.99 0 1.98 0 3 C-0.99 3 -1.98 3 -3 3 C-3 4.32 -3 5.64 -3 7 C-3.66 7 -4.32 7 -5 7 C-5.33 7.66 -5.66 8.32 -6 9 C-6.98020375 10.0194119 -7.97803008 11.02246356 -9 12 C-9.66 11.67 -10.32 11.34 -11 11 C-5.7037037 0 -5.7037037 0 0 0 Z " fill="#4C3225" transform="translate(284,224)"/>
<path d="M0 0 C0.33 0.66 0.66 1.32 1 2 C1.886875 1.896875 2.77375 1.79375 3.6875 1.6875 C8.00684858 2.09498572 9.25642975 3.7722703 12 7 C11.01 7 10.02 7 9 7 C8.67 6.67 8.34 6.34 8 6 C5.45899908 5.46670351 2.90665979 5.03581657 0.34765625 4.59765625 C-2 4 -2 4 -4 2 C-2.68 1.34 -1.36 0.68 0 0 Z " fill="#ECB4A0" transform="translate(233,364)"/>
<path d="M0 0 C0.33 1.32 0.66 2.64 1 4 C0.01 4.66 -0.98 5.32 -2 6 C-2.12375 6.61875 -2.2475 7.2375 -2.375 7.875 C-3.3280033 11.11521122 -5.20485855 12.24491118 -8 14 C-10.3125 13.75 -10.3125 13.75 -12 13 C-11.38125 12.7525 -10.7625 12.505 -10.125 12.25 C-7.56425821 10.7436813 -7.2913393 9.62065916 -6 7 C-4.99564028 5.71983165 -3.95309739 4.46871878 -2.875 3.25 C-2.33617187 2.63640625 -1.79734375 2.0228125 -1.2421875 1.390625 C-0.62730469 0.70226562 -0.62730469 0.70226562 0 0 Z " fill="#DEC0AD" transform="translate(280,332)"/>
<path d="M0 0 C0.99 0.33 1.98 0.66 3 1 C3 4.3 3 7.6 3 11 C2.01 11.33 1.02 11.66 0 12 C-0.33 12.99 -0.66 13.98 -1 15 C-2.32 14.67 -3.64 14.34 -5 14 C-3.989375 13.175 -2.97875 12.35 -1.9375 11.5 C0.05811163 9.54645044 0.94863004 8.63698748 1.17578125 5.8203125 C0.87728717 3.3682281 0.87728717 3.3682281 0 0 Z " fill="#F0CCC0" transform="translate(289,312)"/>
<path d="M0 0 C1.95979369 2.93969054 2.48320069 4.55022586 3.125 7.9375 C3.29257813 8.79214844 3.46015625 9.64679688 3.6328125 10.52734375 C4 13 4 13 4 17 C3.01 17 2.02 17 1 17 C-0.60355101 13.49223216 -1.22036864 10.85645121 -1 7 C-0.34 7 0.32 7 1 7 C0.67 4.69 0.34 2.38 0 0 Z " fill="#D7E4D3" transform="translate(142,242)"/>
<path d="M0 0 C2.475 0.99 2.475 0.99 5 2 C4.01 4.97 3.02 7.94 2 11 C0.68 10.67 -0.64 10.34 -2 10 C-1.54177532 6.53058454 -1.10868317 3.32604951 0 0 Z " fill="#D5E4D2" transform="translate(127,186)"/>
<path d="M0 0 C0 0.66 0 1.32 0 2 C2.97 2.495 2.97 2.495 6 3 C6 3.33 6 3.66 6 4 C0.72 4 -4.56 4 -10 4 C-10.33 3.34 -10.66 2.68 -11 2 C-9.54494642 1.47007308 -8.08581873 0.9513211 -6.625 0.4375 C-5.81289062 0.14746094 -5.00078125 -0.14257812 -4.1640625 -0.44140625 C-2 -1 -2 -1 0 0 Z " fill="#77927F" transform="translate(246,348)"/>
<path d="M0 0 C2 1 2 1 2.9375 2.75 C3 5 3 5 0.5625 7.75 C-0.7059375 8.86375 -0.7059375 8.86375 -2 10 C-2 9.34 -2 8.68 -2 8 C-3.32 8.33 -4.64 8.66 -6 9 C-4.79618552 6.50638429 -3.54571278 4.31856917 -2 2 C-1.34 2 -0.68 2 0 2 C0 1.34 0 0.68 0 0 Z " fill="#D9E7D5" transform="translate(149,151)"/>
<path d="M0 0 C0.66 0 1.32 0 2 0 C1.38188466 4.55315948 -0.46765893 8.28459767 -2.5625 12.3125 C-2.89185547 12.95767578 -3.22121094 13.60285156 -3.56054688 14.26757812 C-4.36824255 15.84785228 -5.18337613 17.42432105 -6 19 C-7.23593891 15.29218328 -6.5678132 14.32489747 -5.0625 10.8125 C-4.68222656 9.91144531 -4.30195313 9.01039063 -3.91015625 8.08203125 C-3.60980469 7.39496094 -3.30945313 6.70789063 -3 6 C-2.34 6 -1.68 6 -1 6 C-0.67 4.02 -0.34 2.04 0 0 Z " fill="#F2CEBF" transform="translate(243,154)"/>
<path d="M0 0 C0.33 0 0.66 0 1 0 C1.33 3.3 1.66 6.6 2 10 C2.33 10 2.66 10 3 10 C3 12.31 3 14.62 3 17 C2.67 16.34 2.34 15.68 2 15 C1.34 15 0.68 15 0 15 C0 18.96 0 22.92 0 27 C-0.33 27 -0.66 27 -1 27 C-1.12224626 17.9401941 -0.83930594 9.02253886 0 0 Z " fill="#D9EBD4" transform="translate(139,208)"/>
<path d="M0 0 C0.66 0 1.32 0 2 0 C1.6875 1.875 1.6875 1.875 1 4 C0.01 4.66 -0.98 5.32 -2 6 C-2.33 6.680625 -2.66 7.36125 -3 8.0625 C-4 10 -4 10 -7 11 C-7.33 11.66 -7.66 12.32 -8 13 C-8.66 13 -9.32 13 -10 13 C-8.79618552 10.50638429 -7.54571278 8.31856917 -6 6 C-5.34 6 -4.68 6 -4 6 C-4 5.34 -4 4.68 -4 4 C-3.34 4 -2.68 4 -2 4 C-2 3.34 -2 2.68 -2 2 C-1.34 2 -0.68 2 0 2 C0 1.34 0 0.68 0 0 Z " fill="#F5D0C4" transform="translate(248,132)"/>
<path d="M0 0 C0 1.32 0 2.64 0 4 C-0.66 4 -1.32 4 -2 4 C-2 4.66 -2 5.32 -2 6 C-3.8125 7.0625 -3.8125 7.0625 -6 8 C-6.99 7.67 -7.98 7.34 -9 7 C-8.360625 6.71125 -7.72125 6.4225 -7.0625 6.125 C-4.84793921 5.17176549 -4.84793921 5.17176549 -4 3 C-5.65 2.67 -7.3 2.34 -9 2 C-5.5647952 -0.29013653 -4.014669 -0.17842973 0 0 Z " fill="#F1D6CB" transform="translate(275,123)"/>
<path d="M0 0 C0.66 0 1.32 0 2 0 C3.54897985 3.0979597 2.83239539 6.26216552 2.5625 9.625 C2.51029297 10.33140625 2.45808594 11.0378125 2.40429688 11.765625 C2.27458793 13.51079987 2.13795046 15.25545725 2 17 C1.67 17 1.34 17 1 17 C0.09586327 13.16275828 -0.10576898 9.62497726 -0.0625 5.6875 C-0.05347656 4.61886719 -0.04445312 3.55023438 -0.03515625 2.44921875 C-0.02355469 1.64097656 -0.01195312 0.83273438 0 0 Z " fill="#C1D9B9" transform="translate(139,223)"/>
<path d="M0 0 C0.33 0.99 0.66 1.98 1 3 C1.99 3 2.98 3 4 3 C4.33 2.34 4.66 1.68 5 1 C5 3.97 5 6.94 5 10 C4.01 10.33 3.02 10.66 2 11 C0.80712589 7.12315913 0 4.08378077 0 0 Z " fill="#D1E2CD" transform="translate(384,209)"/>
<path d="M0 0 C-1.49097658 3.7952131 -3.75700849 5.61042731 -7 8 C-7 7.34 -7 6.68 -7 6 C-7.99 6.33 -8.98 6.66 -10 7 C-10 6.34 -10 5.68 -10 5 C-9.34 5 -8.68 5 -8 5 C-8 4.34 -8 3.68 -8 3 C-5.04518508 0.25624329 -4.22528092 0 0 0 Z " fill="#DEE8DC" transform="translate(183,144)"/>
<path d="M0 0 C0.144375 0.639375 0.28875 1.27875 0.4375 1.9375 C0.81007181 3.97545146 0.81007181 3.97545146 2 5 C2.66 3.35 3.32 1.7 4 0 C5 2 5 2 4.44140625 4.1640625 C4.15136719 4.97617188 3.86132812 5.78828125 3.5625 6.625 C3.27503906 7.44226563 2.98757812 8.25953125 2.69140625 9.1015625 C2.34916016 10.04128906 2.34916016 10.04128906 2 11 C1.01 11 0.02 11 -1 11 C-2.41687119 6.74938644 -1.19320039 4.28148375 0 0 Z " fill="#D3E4CF" transform="translate(142,197)"/>
<path d="M0 0 C0.33 0.66 0.66 1.32 1 2 C3.02463255 2.65213292 3.02463255 2.65213292 5 3 C2.44977144 5.97526665 -0.40293526 7.50122302 -4 9 C-4.99 8.67 -5.98 8.34 -7 8 C-6.21625 7.4225 -5.4325 6.845 -4.625 6.25 C-2.19952756 4.17102363 -1.14305583 2.90959667 0 0 Z " fill="#8EA491" transform="translate(269,249)"/>
<path d="M0 0 C4.75 0.875 4.75 0.875 7 2 C7.87591268 6.22030653 8.05632213 8.77471149 7 13 C5.68 9.7 4.36 6.4 3 3 C2.01 3.33 1.02 3.66 0 4 C0 2.68 0 1.36 0 0 Z " fill="#DBCBC1" transform="translate(281,299)"/>
<path d="M0 0 C-0.64187918 5.13503344 -1.68272247 9.9943454 -3 15 C-3.33 15 -3.66 15 -4 15 C-5.60685522 4.86982581 -5.60685522 4.86982581 -3.125 1.3125 C-1 0 -1 0 0 0 Z " fill="#6C9182" transform="translate(221,259)"/>
<path d="M0 0 C1.7074998 1.28062485 3.37373596 2.61767557 5 4 C5 4.66 5 5.32 5 6 C5.66 6.33 6.32 6.66 7 7 C5.02 7.99 5.02 7.99 3 9 C1.35 6.69 -0.3 4.38 -2 2 C-1.34 2 -0.68 2 0 2 C0 1.34 0 0.68 0 0 Z " fill="#DCE8D7" transform="translate(342,156)"/>
<path d="M0 0 C0.33 0 0.66 0 1 0 C1.02698422 2.43757413 1.04683099 4.87484915 1.0625 7.3125 C1.07087891 8.00279297 1.07925781 8.69308594 1.08789062 9.40429688 C1.10307906 12.5483025 1.00193327 14.99420019 0 18 C-0.66 18 -1.32 18 -2 18 C-1.42085333 11.98673249 -0.77662055 5.99107278 0 0 Z " fill="#6B9482" transform="translate(222,240)"/>
<path d="M0 0 C0.66 0.33 1.32 0.66 2 1 C0.8553125 1.8971875 0.8553125 1.8971875 -0.3125 2.8125 C-2.90814837 4.8058899 -2.90814837 4.8058899 -4.5 6.6875 C-6.52392064 8.45843056 -8.37879014 8.64578245 -11 9 C-11.33 8.01 -11.66 7.02 -12 6 C-11.30132812 5.73445312 -10.60265625 5.46890625 -9.8828125 5.1953125 C-8.97273438 4.84210938 -8.06265625 4.48890625 -7.125 4.125 C-6.22007812 3.77695313 -5.31515625 3.42890625 -4.3828125 3.0703125 C-1.87782993 2.11469105 -1.87782993 2.11469105 0 0 Z " fill="#B89284" transform="translate(265,198)"/>
<path d="M0 0 C1.32 0 2.64 0 4 0 C3.39102647 3.55234558 2.54266151 6.7331874 1 10 C0.01 10.495 0.01 10.495 -1 11 C-0.67 7.37 -0.34 3.74 0 0 Z " fill="#C5D8BE" transform="translate(143,193)"/>
<path d="M0 0 C0.33 0 0.66 0 1 0 C1 1.65 1 3.3 1 5 C1.99 5.33 2.98 5.66 4 6 C4 10.95 4 15.9 4 21 C3.67 21 3.34 21 3 21 C2.92652344 19.73542969 2.92652344 19.73542969 2.8515625 18.4453125 C2.77679688 17.34960938 2.70203125 16.25390625 2.625 15.125 C2.55539062 14.03445312 2.48578125 12.94390625 2.4140625 11.8203125 C2.26746509 8.86953526 2.26746509 8.86953526 0 7 C-1.24193548 2.48387097 -1.24193548 2.48387097 0 0 Z " fill="#392421" transform="translate(284,189)"/>
<path d="M0 0 C0.66 0 1.32 0 2 0 C2.50512244 1.60256108 3.00391627 3.20711792 3.5 4.8125 C3.7784375 5.70582031 4.056875 6.59914062 4.34375 7.51953125 C5 10 5 10 5 13 C3.35 12.01 1.7 11.02 0 10 C0.33 9.01 0.66 8.02 1 7 C0.72230092 4.6593935 0.39460023 2.32375692 0 0 Z " fill="#55342A" transform="translate(241,219)"/>
<path d="M0 0 C0.33 0 0.66 0 1 0 C2.19876651 5.44893869 1.91360308 8.22169095 -1 13 C-2.125 9.25 -2.125 9.25 -1 7 C-1.66 7 -2.32 7 -3 7 C-1.125 2.25 -1.125 2.25 0 0 Z " fill="#D6E4D3" transform="translate(137,167)"/>
<path d="M0 0 C10.55808656 -0.18451025 10.55808656 -0.18451025 15 1 C15 1.33 15 1.66 15 2 C7.08 2.495 7.08 2.495 -1 3 C-0.67 2.01 -0.34 1.02 0 0 Z " fill="#919D8A" transform="translate(253,344)"/>
<path d="M0 0 C-3 2 -3 2 -7 2 C-7 2.66 -7 3.32 -7 4 C-10.52948291 5.66670026 -12.28272326 6.13583456 -16 5 C-3.7639569 -1.2546523 -3.7639569 -1.2546523 0 0 Z " fill="#939E89" transform="translate(230,223)"/>
<path d="M0 0 C2.475 0.495 2.475 0.495 5 1 C5 3.64 5 6.28 5 9 C4.34 8.01 3.68 7.02 3 6 C2.34 6.99 1.68 7.98 1 9 C0.67 6.03 0.34 3.06 0 0 Z " fill="#D4E6CD" transform="translate(365,208)"/>
<path d="M0 0 C3.93846154 3.32307692 3.93846154 3.32307692 4.25 6.75 C4.1675 7.4925 4.085 8.235 4 9 C2.35 8.01 0.7 7.02 -1 6 C-0.67 4.02 -0.34 2.04 0 0 Z " fill="#C5DBBC" transform="translate(359,182)"/>
<path d="M0 0 C2.5 1.125 2.5 1.125 5 3 C5.3125 6.1875 5.3125 6.1875 5 9 C3.0625 8.4375 3.0625 8.4375 1 7 C0.25 3.375 0.25 3.375 0 0 Z " fill="#C9DCC3" transform="translate(365,161)"/>
<path d="M0 0 C0.33 0 0.66 0 1 0 C1.02694851 1.95825873 1.04637218 3.91662226 1.0625 5.875 C1.07410156 6.96554687 1.08570313 8.05609375 1.09765625 9.1796875 C1 12 1 12 0 14 C-0.66 13.67 -1.32 13.34 -2 13 C-1.85851011 11.3954444 -1.71164314 9.79136233 -1.5625 8.1875 C-1.48128906 7.29417969 -1.40007812 6.40085937 -1.31640625 5.48046875 C-1 3 -1 3 0 0 Z " fill="#D6BCAE" transform="translate(244,372)"/>
<path d="M0 0 C0.66 0 1.32 0 2 0 C5.07692308 6.4 5.07692308 6.4 4.6875 9.4375 C4.460625 9.953125 4.23375 10.46875 4 11 C4 10.01 4 9.02 4 8 C3.01 7.67 2.02 7.34 1 7 C-0.1875 3.9375 -0.1875 3.9375 -1 1 C-0.67 0.67 -0.34 0.34 0 0 Z " fill="#98B1A6" transform="translate(298,276)"/>
<path d="M0 0 C0.66 0.33 1.32 0.66 2 1 C0.625 2.5 0.625 2.5 -1 4 C-1.66 4 -2.32 4 -3 4 C-3 4.66 -3 5.32 -3 6 C-6.96 7.98 -6.96 7.98 -11 10 C-8.49273047 4.98546093 -6.87887159 4.4394358 -2 2 C-1.34 2 -0.68 2 0 2 C0 1.34 0 0.68 0 0 Z " fill="#EDC4B3" transform="translate(291,339)"/>
<path d="M0 0 C2.97 0.495 2.97 0.495 6 1 C6 1.66 6 2.32 6 3 C0.72 3 -4.56 3 -10 3 C-10 2.67 -10 2.34 -10 2 C-6.7 2 -3.4 2 0 2 C0 1.34 0 0.68 0 0 Z " fill="#C0B3AA" transform="translate(322,353)"/>
<path d="M0 0 C-2.40436026 3.60654039 -3.94679607 3.85452932 -8 5 C-8 4.01 -8 3.02 -8 2 C-8.66 1.67 -9.32 1.34 -10 1 C-6.61981469 -0.04005702 -3.5219721 -0.08004482 0 0 Z " fill="#E4A794" transform="translate(296,299)"/>
<path d="M0 0 C1.32 0.33 2.64 0.66 4 1 C3.814375 1.721875 3.62875 2.44375 3.4375 3.1875 C2.98004693 6.12826973 3.26483643 8.14103058 4 11 C2.29159719 9.36587557 1.06546953 8.13093906 0 6 C-0.039992 4.00039988 -0.04346799 1.99952758 0 0 Z " fill="#E0C2B0" transform="translate(243,244)"/>
<path d="M0 0 C2 3 2 3 1.6875 5.5625 C1 8 1 8 0 10 C-0.66 10 -1.32 10 -2 10 C-2.17942163 6.05272412 -2.09350689 3.4019487 0 0 Z " fill="#C0D5BB" transform="translate(124,199)"/>
<path d="M0 0 C1.98 1.65 3.96 3.3 6 5 C4.02 5.99 4.02 5.99 2 7 C0.68 5.68 -0.64 4.36 -2 3 C-1.34 2.01 -0.68 1.02 0 0 Z " fill="#D8E4D3" transform="translate(353,145)"/>
<path d="M0 0 C0.66 0.66 1.32 1.32 2 2 C1.01 2.33 0.02 2.66 -1 3 C-0.67 2.01 -0.34 1.02 0 0 Z M-4 3 C-3.01 3.33 -2.02 3.66 -1 4 C-2.65 6.64 -4.3 9.28 -6 12 C-7.21185923 8.36442231 -6.59260392 7.36216382 -5 4 C-4.67 3.67 -4.34 3.34 -4 3 Z " fill="#F4C7B3" transform="translate(241,142)"/>
<path d="M0 0 C3.68754757 0.49831724 5.60490662 1.10067643 8 4 C5.39417629 4.93065133 4.35801776 5.14917407 1.75 4.0625 C1.1725 3.711875 0.595 3.36125 0 3 C0 2.01 0 1.02 0 0 Z " fill="#D6DDD0" transform="translate(328,130)"/>
<path d="M0 0 C1.1446875 0.3403125 1.1446875 0.3403125 2.3125 0.6875 C1.9825 1.6775 1.6525 2.6675 1.3125 3.6875 C-0.9975 4.0175 -3.3075 4.3475 -5.6875 4.6875 C-5.6875 2.6875 -5.6875 2.6875 -4.5 1 C-2.6875 -0.3125 -2.6875 -0.3125 0 0 Z " fill="#F4BCA6" transform="translate(268.6875,125.3125)"/>
<path d="M0 0 C0.99 0.33 1.98 0.66 3 1 C-0.465 3.97 -0.465 3.97 -4 7 C-4.66 6.34 -5.32 5.68 -6 5 C-2.25 1.125 -2.25 1.125 0 0 Z " fill="#D2CEC7" transform="translate(158,352)"/>
<path d="M0 0 C0.99 1.32 1.98 2.64 3 4 C2 6 2 6 -1 8 C-1.99 6.02 -2.98 4.04 -4 2 C-2.68 2 -1.36 2 0 2 C0 1.34 0 0.68 0 0 Z " fill="#D6E6D1" transform="translate(358,177)"/>
<path d="M0 0 C1.32 0.33 2.64 0.66 4 1 C3.67 1.99 3.34 2.98 3 4 C2.01 4 1.02 4 0 4 C-0.66 5.32 -1.32 6.64 -2 8 C-2.33 7.01 -2.66 6.02 -3 5 C-1.5625 2.3125 -1.5625 2.3125 0 0 Z " fill="#C6DCC0" transform="translate(154,171)"/>
<path d="M0 0 C2.31 0 4.62 0 7 0 C7.33 0.66 7.66 1.32 8 2 C5.03 2.66 2.06 3.32 -1 4 C-1.33 3.34 -1.66 2.68 -2 2 C-1.34 2 -0.68 2 0 2 C0 1.34 0 0.68 0 0 Z " fill="#E5B4A0" transform="translate(254,365)"/>
<path d="M0 0 C2.64 0 5.28 0 8 0 C5.93243723 2.7972908 4.85559629 3.02692273 1.3125 3.6875 C0.219375 3.790625 -0.87375 3.89375 -2 4 C-1.34 3.67 -0.68 3.34 0 3 C0 2.01 0 1.02 0 0 Z " fill="#C7C7C7" transform="translate(343,400)"/>
<path d="M0 0 C3.79588866 0.54226981 5.47211993 2.20127563 8 5 C5.36 4.67 2.72 4.34 0 4 C0 2.68 0 1.36 0 0 Z " fill="#C3B5A2" transform="translate(246,347)"/>
<path d="M0 0 C0.33 0 0.66 0 1 0 C1.1953125 2.05078125 1.390625 4.1015625 1.5859375 6.15234375 C1.72257813 6.76207031 1.85921875 7.37179688 2 8 C2.66 8.33 3.32 8.66 4 9 C3.01 9.495 3.01 9.495 2 10 C1.01 9.34 0.02 8.68 -1 8 C-1.25660094 4.92078868 -1.39431504 2.78863007 0 0 Z " fill="#6D5855" transform="translate(237,210)"/>
<path d="M0 0 C0.66 0 1.32 0 2 0 C1.67 0.66 1.34 1.32 1 2 C0.67 1.34 0.34 0.68 0 0 Z M-2 1 C-1.34 1 -0.68 1 0 1 C0.33 2.98 0.66 4.96 1 7 C-0.32 7 -1.64 7 -3 7 C-2.67 5.02 -2.34 3.04 -2 1 Z " fill="#C8DBBE" transform="translate(131,181)"/>
<path d="M0 0 C4.55384615 -0.36923077 4.55384615 -0.36923077 6.8125 1.5 C7.204375 1.995 7.59625 2.49 8 3 C6.02 3.99 6.02 3.99 4 5 C2 3.625 2 3.625 0 2 C0 1.34 0 0.68 0 0 Z " fill="#DDE9DB" transform="translate(326,145)"/>
<path d="M0 0 C-0.5625 1.875 -0.5625 1.875 -2 4 C-5.625 5.25 -5.625 5.25 -9 6 C-4.5 0 -4.5 0 0 0 Z " fill="#C6DCC1" transform="translate(164,142)"/>
<path d="M0 0 C0.99 1.32 1.98 2.64 3 4 C2.34 4 1.68 4 1 4 C1.33 4.99 1.66 5.98 2 7 C0.68 7.99 -0.64 8.98 -2 10 C-1.46274105 6.62294375 -0.88935377 3.303314 0 0 Z " fill="#E8B3A2" transform="translate(249,233)"/>
<path d="M0 0 C0.66 0.33 1.32 0.66 2 1 C1.34 5.29 0.68 9.58 0 14 C-0.33 14 -0.66 14 -1 14 C-1.02685938 11.85423363 -1.04633088 9.70837355 -1.0625 7.5625 C-1.07410156 6.36753906 -1.08570313 5.17257813 -1.09765625 3.94140625 C-1 1 -1 1 0 0 Z " fill="#F6D1C5" transform="translate(229,184)"/>
<path d="M0 0 C0.66 0.33 1.32 0.66 2 1 C2.40729228 3.32156597 2.74438677 5.6568787 3 8 C2.01 8 1.02 8 0 8 C-1.125 2.25 -1.125 2.25 0 0 Z " fill="#C1D7B7" transform="translate(376,177)"/>
<path d="M0 0 C0.33 1.32 0.66 2.64 1 4 C0.34 4 -0.32 4 -1 4 C-1.33 5.32 -1.66 6.64 -2 8 C-2.99 8 -3.98 8 -5 8 C-3.8141763 4.62496331 -2.72426311 2.35277269 0 0 Z " fill="#E8AE99" transform="translate(259,135)"/>
<path d="M0 0 C0.66 1.32 1.32 2.64 2 4 C3.65 4 5.3 4 7 4 C7 4.33 7 4.66 7 5 C0.6 5.36923077 0.6 5.36923077 -2.4375 3.5 C-2.953125 3.005 -3.46875 2.51 -4 2 C-2.68 1.34 -1.36 0.68 0 0 Z " fill="#D9B8A7" transform="translate(233,364)"/>
<path d="M0 0 C0.99 0.33 1.98 0.66 3 1 C2.34 4.3 1.68 7.6 1 11 C0.67 11 0.34 11 0 11 C0 7.37 0 3.74 0 0 Z " fill="#BFD9B5" transform="translate(140,210)"/>
<path d="M0 0 C0.66 0 1.32 0 2 0 C1.37240135 2.92879371 0.41377341 5.36095629 -1 8 C-1.99 8 -2.98 8 -4 8 C-2.87548273 5.0280615 -1.77706209 2.66559313 0 0 Z " fill="#796D6A" transform="translate(244,186)"/>
<path d="M0 0 C0.66 0.33 1.32 0.66 2 1 C2 1.66 2 2.32 2 3 C2.66 3 3.32 3 4 3 C4.66 5.31 5.32 7.62 6 10 C5.01 9.67 4.02 9.34 3 9 C3 7.35 3 5.7 3 4 C1.68 3.67 0.36 3.34 -1 3 C-0.67 2.01 -0.34 1.02 0 0 Z " fill="#796C69" transform="translate(282,185)"/>
<path d="M0 0 C0.33 0.66 0.66 1.32 1 2 C-0.4375 4.625 -0.4375 4.625 -2 7 C-3.32 6.67 -4.64 6.34 -6 6 C-4.02 4.02 -2.04 2.04 0 0 Z " fill="#F4DDD2" transform="translate(290,320)"/>
<path d="M0 0 C0.66 0 1.32 0 2 0 C3.4606285 2.64738916 4 3.89448334 4 7 C3.01 7 2.02 7 1 7 C0.67 4.69 0.34 2.38 0 0 Z " fill="#CDD9C4" transform="translate(124,260)"/>
<path d="M0 0 C1.65 0.33 3.3 0.66 5 1 C3.35 2.65 1.7 4.3 0 6 C-0.99 5.34 -1.98 4.68 -3 4 C-2.34 3.67 -1.68 3.34 -1 3 C-0.67 2.01 -0.34 1.02 0 0 Z " fill="#CAB1A0" transform="translate(212,225)"/>
<path d="M0 0 C1.32 0.66 2.64 1.32 4 2 C4 2.66 4 3.32 4 4 C0.53846154 7 0.53846154 7 -2 7 C-1.34 4.69 -0.68 2.38 0 0 Z " fill="#E8B29F" transform="translate(281,219)"/>
<path d="M0 0 C5.875 3.75 5.875 3.75 7 6 C4.69 5.67 2.38 5.34 0 5 C0 3.35 0 1.7 0 0 Z " fill="#C9A292" transform="translate(280,212)"/>
<path d="M0 0 C0.93423645 3.01031744 1.04449911 3.86650268 0 7 C-0.99 7 -1.98 7 -3 7 C-2.625 4.0625 -2.625 4.0625 -2 1 C-1.34 0.67 -0.68 0.34 0 0 Z " fill="#C3DCBF" transform="translate(150,184)"/>
<path d="M0 0 C2.31 0 4.62 0 7 0 C6.01 1.485 6.01 1.485 5 3 C2.375 3.1875 2.375 3.1875 0 3 C0 2.01 0 1.02 0 0 Z " fill="#CBCBCB" transform="translate(96,400)"/>
<path d="M0 0 C0.66 0 1.32 0 2 0 C2.66 3.96 3.32 7.92 4 12 C3.01 11.67 2.02 11.34 1 11 C0.67 7.37 0.34 3.74 0 0 Z " fill="#877873" transform="translate(283,223)"/>
<path d="M0 0 C2.97 0.495 2.97 0.495 6 1 C5.34 2.32 4.68 3.64 4 5 C3.01 5 2.02 5 1 5 C0.67 3.35 0.34 1.7 0 0 Z " fill="#EDC4B6" transform="translate(281,217)"/>
<path d="M0 0 C3.3 0 6.6 0 10 0 C7.33440687 1.77706209 4.9719385 2.87548273 2 4 C2 3.34 2 2.68 2 2 C1.34 1.34 0.68 0.68 0 0 Z " fill="#3E2822" transform="translate(257,180)"/>
<path d="M0 0 C0.33 0 0.66 0 1 0 C1 2.31 1 4.62 1 7 C1.66 7 2.32 7 3 7 C3.33 8.32 3.66 9.64 4 11 C2.68 10.34 1.36 9.68 0 9 C0 6.03 0 3.06 0 0 Z " fill="#6C483B" transform="translate(266,238)"/>
<path d="M0 0 C1.9451 2.91765 2.45276317 4.62537285 3 8 C2.01 8 1.02 8 0 8 C-0.38063221 5.6739143 -0.71269945 3.33944736 -1 1 C-0.67 0.67 -0.34 0.34 0 0 Z " fill="#BCD3B6" transform="translate(385,204)"/>
<path d="M0 0 C3 2 3 2 3.6875 4.625 C3.8421875 5.800625 3.8421875 5.800625 4 7 C3.01 7.33 2.02 7.66 1 8 C-0.35439668 5.29120665 -0.06501451 2.99066732 0 0 Z " fill="#C5DBBE" transform="translate(365,202)"/>
<path d="M0 0 C0.66 0.66 1.32 1.32 2 2 C-1.465 4.97 -1.465 4.97 -5 8 C-5.66 7.67 -6.32 7.34 -7 7 C-6.21625 6.401875 -5.4325 5.80375 -4.625 5.1875 C-1.85425677 3.08914751 -1.85425677 3.08914751 0 0 Z " fill="#7A5243" transform="translate(268,196)"/>
<path d="M0 0 C0.99 0 1.98 0 3 0 C2.67 1.98 2.34 3.96 2 6 C1.01 5.67 0.02 5.34 -1 5 C-0.67 3.35 -0.34 1.7 0 0 Z " fill="#C4DCBE" transform="translate(133,174)"/>
<path d="M0 0 C1.32 1.32 2.64 2.64 4 4 C3.67 4.66 3.34 5.32 3 6 C1.68 4.68 0.36 3.36 -1 2 C-0.67 1.34 -0.34 0.68 0 0 Z M-1 4 C-0.34 5.32 0.32 6.64 1 8 C0.34 7.67 -0.32 7.34 -1 7 C-1 6.01 -1 5.02 -1 4 Z " fill="#D9E8D6" transform="translate(370,166)"/>
<path d="M0 0 C0.99 0 1.98 0 3 0 C2.60196439 2.88575819 2.20990931 3.82189513 -0.0625 5.75 C-0.701875 6.1625 -1.34125 6.575 -2 7 C-2 6.01 -2 5.02 -2 4 C-1.34 4 -0.68 4 0 4 C0 2.68 0 1.36 0 0 Z " fill="#EFC1B1" transform="translate(260,135)"/>
</svg>
